  0
SECTION
  2
HEADER
  9
$ACADVER
  1
AC1015
  9
$ACADMAINTVER
 70
     6
  9
$DWGCODEPAGE
  3
ANSI_1252
  9
$INSBASE
 10
0.0
 20
0.0
 30
0.0
  9
$EXTMIN
 10
0.0
 20
0.0
 30
0.0
  9
$EXTMAX
 10
420.0
 20
297.0
 30
0.0
  9
$LIMMIN
 10
0.0
 20
0.0
  9
$LIMMAX
 10
420.0
 20
297.0
  9
$ORTHOMODE
 70
     0
  9
$REGENMODE
 70
     1
  9
$FILLMODE
 70
     1
  9
$QTEXTMODE
 70
     0
  9
$MIRRTEXT
 70
     1
  9
$LTSCALE
 40
1.0
  9
$ATTMODE
 70
     1
  9
$TEXTSIZE
 40
2.5
  9
$TRACEWID
 40
1.0
  9
$TEXTSTYLE
  7
Standard
  9
$CLAYER
  8
0
  9
$CELTYPE
  6
ByLayer
  9
$CECOLOR
 62
   256
  9
$CELTSCALE
 40
1.0
  9
$DISPSILH
 70
     0
  9
$DIMSCALE
 40
1.0
  9
$DIMASZ
 40
2.5
  9
$DIMEXO
 40
0.625
  9
$DIMDLI
 40
3.75
  9
$DIMRND
 40
0.0
  9
$DIMDLE
 40
0.0
  9
$DIMEXE
 40
1.25
  9
$DIMTP
 40
0.0
  9
$DIMTM
 40
0.0
  9
$DIMTXT
 40
2.5
  9
$DIMCEN
 40
2.5
  9
$DIMTSZ
 40
0.0
  9
$DIMTOL
 70
     0
  9
$DIMLIM
 70
     0
  9
$DIMTIH
 70
     0
  9
$DIMTOH
 70
     0
  9
$DIMSE1
 70
     0
  9
$DIMSE2
 70
     0
  9
$DIMTAD
 70
     1
  9
$DIMZIN
 70
     8
  9
$DIMBLK
  1

  9
$DIMASO
 70
     1
  9
$DIMSHO
 70
     1
  9
$DIMPOST
  1

  9
$DIMAPOST
  1

  9
$DIMALT
 70
     0
  9
$DIMALTD
 70
     3
  9
$DIMALTF
 40
0.0393700787
  9
$DIMLFAC
 40
1.0
  9
$DIMTOFL
 70
     1
  9
$DIMTVP
 40
0.0
  9
$DIMTIX
 70
     0
  9
$DIMSOXD
 70
     0
  9
$DIMSAH
 70
     0
  9
$DIMBLK1
  1

  9
$DIMBLK2
  1

  9
$DIMSTYLE
  2
ISO-25
  9
$DIMCLRD
 70
     0
  9
$DIMCLRE
 70
     0
  9
$DIMCLRT
 70
     0
  9
$DIMTFAC
 40
1.0
  9
$DIMGAP
 40
0.625
  9
$DIMJUST
 70
     0
  9
$DIMSD1
 70
     0
  9
$DIMSD2
 70
     0
  9
$DIMTOLJ
 70
     0
  9
$DIMTZIN
 70
     8
  9
$DIMALTZ
 70
     0
  9
$DIMALTTZ
 70
     0
  9
$DIMUPT
 70
     0
  9
$DIMDEC
 70
     2
  9
$DIMTDEC
 70
     2
  9
$DIMALTU
 70
     2
  9
$DIMALTTD
 70
     3
  9
$DIMTXSTY
  7
Standard
  9
$DIMAUNIT
 70
     0
  9
$DIMADEC
 70
     0
  9
$DIMALTRND
 40
0.0
  9
$DIMAZIN
 70
     0
  9
$DIMDSEP
 70
    44
  9
$DIMATFIT
 70
     3
  9
$DIMFRAC
 70
     0
  9
$DIMLDRBLK
  1

  9
$DIMLUNIT
 70
     2
  9
$DIMLWD
 70
    -2
  9
$DIMLWE
 70
    -2
  9
$DIMTMOVE
 70
     0
  9
$LUNITS
 70
     2
  9
$LUPREC
 70
     4
  9
$SKETCHINC
 40
1.0
  9
$FILLETRAD
 40
10.0
  9
$AUNITS
 70
     0
  9
$AUPREC
 70
     0
  9
$MENU
  1
.
  9
$ELEVATION
 40
0.0
  9
$PELEVATION
 40
0.0
  9
$THICKNESS
 40
0.0
  9
$LIMCHECK
 70
     0
  9
$CHAMFERA
 40
10.0
  9
$CHAMFERB
 40
10.0
  9
$CHAMFERC
 40
20.0
  9
$CHAMFERD
 40
0.0
  9
$SKPOLY
 70
     0
  9
$TDCREATE
 40
2456749.357590058
  9
$TDUCREATE
 40
2456749.315923391
  9
$TDUPDATE
 40
2456749.357599989
  9
$TDUUPDATE
 40
2456749.315933322
  9
$TDINDWG
 40
0.0000000116
  9
$TDUSRTIMER
 40
0.0000000116
  9
$USRTIMER
 70
     1
  9
$ANGBASE
 50
0.0
  9
$ANGDIR
 70
     0
  9
$PDMODE
 70
     0
  9
$PDSIZE
 40
0.0
  9
$PLINEWID
 40
0.0
  9
$SPLFRAME
 70
     0
  9
$SPLINETYPE
 70
     6
  9
$SPLINESEGS
 70
     8
  9
$HANDSEED
  5
3A7
  9
$SURFTAB1
 70
     6
  9
$SURFTAB2
 70
     6
  9
$SURFTYPE
 70
     6
  9
$SURFU
 70
     6
  9
$SURFV
 70
     6
  9
$UCSBASE
  2

  9
$UCSNAME
  2

  9
$UCSORG
 10
0.0
 20
0.0
 30
0.0
  9
$UCSXDIR
 10
1.0
 20
0.0
 30
0.0
  9
$UCSYDIR
 10
0.0
 20
1.0
 30
0.0
  9
$UCSORTHOREF
  2

  9
$UCSORTHOVIEW
 70
     0
  9
$UCSORGTOP
 10
0.0
 20
0.0
 30
0.0
  9
$UCSORGBOTTOM
 10
0.0
 20
0.0
 30
0.0
  9
$UCSORGLEFT
 10
0.0
 20
0.0
 30
0.0
  9
$UCSORGRIGHT
 10
0.0
 20
0.0
 30
0.0
  9
$UCSORGFRONT
 10
0.0
 20
0.0
 30
0.0
  9
$UCSORGBACK
 10
0.0
 20
0.0
 30
0.0
  9
$PUCSBASE
  2

  9
$PUCSNAME
  2

  9
$PUCSORG
 10
0.0
 20
0.0
 30
0.0
  9
$PUCSXDIR
 10
1.0
 20
0.0
 30
0.0
  9
$PUCSYDIR
 10
0.0
 20
1.0
 30
0.0
  9
$PUCSORTHOREF
  2

  9
$PUCSORTHOVIEW
 70
     0
  9
$PUCSORGTOP
 10
0.0
 20
0.0
 30
0.0
  9
$PUCSORGBOTTOM
 10
0.0
 20
0.0
 30
0.0
  9
$PUCSORGLEFT
 10
0.0
 20
0.0
 30
0.0
  9
$PUCSORGRIGHT
 10
0.0
 20
0.0
 30
0.0
  9
$PUCSORGFRONT
 10
0.0
 20
0.0
 30
0.0
  9
$PUCSORGBACK
 10
0.0
 20
0.0
 30
0.0
  9
$USERI1
 70
     0
  9
$USERI2
 70
     0
  9
$USERI3
 70
     0
  9
$USERI4
 70
     0
  9
$USERI5
 70
     0
  9
$USERR1
 40
0.0
  9
$USERR2
 40
0.0
  9
$USERR3
 40
0.0
  9
$USERR4
 40
0.0
  9
$USERR5
 40
0.0
  9
$WORLDVIEW
 70
     1
  9
$SHADEDGE
 70
     3
  9
$SHADEDIF
 70
    70
  9
$TILEMODE
 70
     1
  9
$MAXACTVP
 70
    64
  9
$PINSBASE
 10
0.0
 20
0.0
 30
0.0
  9
$PLIMCHECK
 70
     0
  9
$PEXTMIN
 10
0.0
 20
0.0
 30
0.0
  9
$PEXTMAX
 10
420.0
 20
297.0
 30
0.0
  9
$PLIMMIN
 10
0.0
 20
0.0
  9
$PLIMMAX
 10
420.0
 20
297.0
  9
$UNITMODE
 70
     0
  9
$VISRETAIN
 70
     1
  9
$PLINEGEN
 70
     0
  9
$PSLTSCALE
 70
     1
  9
$TREEDEPTH
 70
  3020
  9
$CMLSTYLE
  2
Standard
  9
$CMLJUST
 70
     0
  9
$CMLSCALE
 40
20.0
  9
$PROXYGRAPHICS
 70
     1
  9
$MEASUREMENT
 70
     1
  9
$CELWEIGHT
370
    -1
  9
$ENDCAPS
280
     0
  9
$JOINSTYLE
280
     0
  9
$LWDISPLAY
290
     0
  9
$INSUNITS
 70
     4
  9
$HYPERLINKBASE
  1

  9
$STYLESHEET
  1

  9
$XEDIT
290
     1
  9
$CEPSNTYPE
380
     0
  9
$PSTYLEMODE
290
     1
  9
$FINGERPRINTGUID
  2
{A2B33626-8803-4455-AEE7-FC7121221635}
  9
$VERSIONGUID
  2
{FAEB1C32-E019-11D5-929B-00C0DF256EC4}
  9
$EXTNAMES
290
     1
  9
$PSVPSCALE
 40
0.0
  9
$OLESTARTUP
290
     0
  0
ENDSEC
  0
SECTION
  2
CLASSES
  0
CLASS
  1
ACDBDICTIONARYWDFLT
  2
AcDbDictionaryWithDefault
  3
ObjectDBX Classes
 90
        0
280
     0
281
     0
  0
CLASS
  1
VISUALSTYLE
  2
AcDbVisualStyle
  3
ObjectDBX Classes
 90
     4095
280
     0
281
     0
  0
CLASS
  1
MATERIAL
  2
AcDbMaterial
  3
ObjectDBX Classes
 90
     1153
280
     0
281
     0
  0
CLASS
  1
DICTIONARYVAR
  2
AcDbDictionaryVar
  3
ObjectDBX Classes
 90
        0
280
     0
281
     0
  0
CLASS
  1
ACDBPLACEHOLDER
  2
AcDbPlaceHolder
  3
ObjectDBX Classes
 90
        0
280
     0
281
     0
  0
CLASS
  1
LAYOUT
  2
AcDbLayout
  3
ObjectDBX Classes
 90
        0
280
     0
281
     0
  0
ENDSEC
  0
SECTION
  2
TABLES
  0
TABLE
  2
VPORT
  5
8
330
0
100
AcDbSymbolTable
 70
     1
  0
VPORT
  5
29
330
8
100
AcDbSymbolTableRecord
100
AcDbViewportTableRecord
  2
*Active
 70
     0
 10
0.0
 20
0.0
 11
1.0
 21
1.0
 12
344.1869158879
 22
148.5
 13
0.0
 23
0.0
 14
10.0
 24
10.0
 15
10.0
 25
10.0
 16
0.0
 26
0.0
 36
1.0
 17
0.0
 27
0.0
 37
0.0
 40
297.0
 41
1.9729729729
 42
50.0
 43
0.0
 44
0.0
 50
0.0
 51
0.0
 71
     0
 72
   100
 73
     1
 74
     3
 75
     0
 76
     0
 77
     0
 78
     0
281
     0
 65
     1
110
0.0
120
0.0
130
0.0
111
1.0
121
0.0
131
0.0
112
0.0
122
1.0
132
0.0
 79
     0
146
0.0
  0
ENDTAB
  0
TABLE
  2
LTYPE
  5
5
330
0
100
AcDbSymbolTable
 70
     1
  0
LTYPE
  5
14
330
5
100
AcDbSymbolTableRecord
100
AcDbLinetypeTableRecord
  2
ByBlock
 70
     0
  3

 72
    65
 73
     0
 40
0.0
  0
LTYPE
  5
15
330
5
100
AcDbSymbolTableRecord
100
AcDbLinetypeTableRecord
  2
ByLayer
 70
     0
  3

 72
    65
 73
     0
 40
0.0
  0
LTYPE
  5
16
330
5
100
AcDbSymbolTableRecord
100
AcDbLinetypeTableRecord
  2
Continuous
 70
     0
  3
Solid line
 72
    65
 73
     0
 40
0.0
  0
ENDTAB
  0
TABLE
  2
LAYER
  5
2
330
0
100
AcDbSymbolTable
 70
    29
  0
LAYER
  5
10
330
2
100
AcDbSymbolTableRecord
100
AcDbLayerTableRecord
  2
0
 70
     0
 62
     7
  6
Continuous
370
    -3
390
F
  0
LAYER
  5
3F
330
2
100
AcDbSymbolTableRecord
100
AcDbLayerTableRecord
  2
Default
 70
     0
 62
     7
  6
Continuous
370
    -3
390
F
  0
LAYER
  5
42
330
2
100
AcDbSymbolTableRecord
100
AcDbLayerTableRecord
  2
BASE_5
 70
     0
 62
     7
  6
Continuous
370
    -3
390
F
  0
LAYER
  5
62
330
2
100
AcDbSymbolTableRecord
100
AcDbLayerTableRecord
  2
BASE_4
 70
     0
 62
     7
  6
Continuous
370
    -3
390
F
  0
LAYER
  5
87
330
2
100
AcDbSymbolTableRecord
100
AcDbLayerTableRecord
  2
LINKAGE
 70
     0
 62
     7
  6
Continuous
370
    -3
390
F
  0
LAYER
  5
8E
330
2
100
AcDbSymbolTableRecord
100
AcDbLayerTableRecord
  2
MAIN_ARM_1
 70
     0
 62
     7
  6
Continuous
370
    -3
390
F
  0
LAYER
  5
AB
330
2
100
AcDbSymbolTableRecord
100
AcDbLayerTableRecord
  2
MAIN_ARM_2
 70
     0
 62
     7
  6
Continuous
370
    -3
390
F
  0
LAYER
  5
BB
330
2
100
AcDbSymbolTableRecord
100
AcDbLayerTableRecord
  2
UPRIGHT_ARM_2
 70
     0
 62
     7
  6
Continuous
370
    -3
390
F
  0
LAYER
  5
CB
330
2
100
AcDbSymbolTableRecord
100
AcDbLayerTableRecord
  2
UPRIGHT_ARM_1
 70
     0
 62
     7
  6
Continuous
370
    -3
390
F
  0
LAYER
  5
DD
330
2
100
AcDbSymbolTableRecord
100
AcDbLayerTableRecord
  2
GRIPPER_1
 70
     0
 62
     7
  6
Continuous
370
    -3
390
F
  0
LAYER
  5
FE
330
2
100
AcDbSymbolTableRecord
100
AcDbLayerTableRecord
  2
MAIN_ARM_3
 70
     0
 62
     7
  6
Continuous
370
    -3
390
F
  0
LAYER
  5
123
330
2
100
AcDbSymbolTableRecord
100
AcDbLayerTableRecord
  2
GRIPPER_5_
 70
     0
 62
     7
  6
Continuous
370
    -3
390
F
  0
LAYER
  5
140
330
2
100
AcDbSymbolTableRecord
100
AcDbLayerTableRecord
  2
BASE_2
 70
     0
 62
     7
  6
Continuous
370
    -3
390
F
  0
LAYER
  5
16E
330
2
100
AcDbSymbolTableRecord
100
AcDbLayerTableRecord
  2
SERVO_ARM
 70
     0
 62
     7
  6
Continuous
370
    -3
390
F
  0
LAYER
  5
17B
330
2
100
AcDbSymbolTableRecord
100
AcDbLayerTableRecord
  2
TRIANGLE
 70
     0
 62
     7
  6
Continuous
370
    -3
390
F
  0
LAYER
  5
185
330
2
100
AcDbSymbolTableRecord
100
AcDbLayerTableRecord
  2
UPRIGHT_ARM_3
 70
     0
 62
     7
  6
Continuous
370
    -3
390
F
  0
LAYER
  5
1AC
330
2
100
AcDbSymbolTableRecord
100
AcDbLayerTableRecord
  2
BASE_3
 70
     0
 62
     7
  6
Continuous
370
    -3
390
F
  0
LAYER
  5
1D3
330
2
100
AcDbSymbolTableRecord
100
AcDbLayerTableRecord
  2
GRIPPER_7
 70
     0
 62
     7
  6
Continuous
370
    -3
390
F
  0
LAYER
  5
1E0
330
2
100
AcDbSymbolTableRecord
100
AcDbLayerTableRecord
  2
BASE_1
 70
     0
 62
     7
  6
Continuous
370
    -3
390
F
  0
LAYER
  5
1F3
330
2
100
AcDbSymbolTableRecord
100
AcDbLayerTableRecord
  2
GRIPPER_9
 70
     0
 62
     7
  6
Continuous
370
    -3
390
F
  0
LAYER
  5
238
330
2
100
AcDbSymbolTableRecord
100
AcDbLayerTableRecord
  2
GRIPPER_8
 70
     0
 62
     7
  6
Continuous
370
    -3
390
F
  0
LAYER
  5
27F
330
2
100
AcDbSymbolTableRecord
100
AcDbLayerTableRecord
  2
GENERAL_SPACER
 70
     0
 62
     7
  6
Continuous
370
    -3
390
F
  0
LAYER
  5
282
330
2
100
AcDbSymbolTableRecord
100
AcDbLayerTableRecord
  2
GRIPPER_6
 70
     0
 62
     7
  6
Continuous
370
    -3
390
F
  0
LAYER
  5
28D
330
2
100
AcDbSymbolTableRecord
100
AcDbLayerTableRecord
  2
GRIPPER_3
 70
     0
 62
     7
  6
Continuous
370
    -3
390
F
  0
LAYER
  5
2C9
330
2
100
AcDbSymbolTableRecord
100
AcDbLayerTableRecord
  2
GRIPPER_4
 70
     0
 62
     7
  6
Continuous
370
    -3
390
F
  0
LAYER
  5
2EE
330
2
100
AcDbSymbolTableRecord
100
AcDbLayerTableRecord
  2
GRIPPER_10
 70
     0
 62
     7
  6
Continuous
370
    -3
390
F
  0
LAYER
  5
2FF
330
2
100
AcDbSymbolTableRecord
100
AcDbLayerTableRecord
  2
BASE_6
 70
     0
 62
     7
  6
Continuous
370
    -3
390
F
  0
LAYER
  5
31E
330
2
100
AcDbSymbolTableRecord
100
AcDbLayerTableRecord
  2
GRIPPER_2
 70
     0
 62
     7
  6
Continuous
370
    -3
390
F
  0
LAYER
  5
33D
330
2
100
AcDbSymbolTableRecord
100
AcDbLayerTableRecord
  2
PLATFORM_
 70
     0
 62
     7
  6
Continuous
370
    -3
390
F
  0
ENDTAB
  0
TABLE
  2
STYLE
  5
3
330
0
100
AcDbSymbolTable
 70
     1
  0
STYLE
  5
11
330
3
100
AcDbSymbolTableRecord
100
AcDbTextStyleTableRecord
  2
Standard
 70
     0
 40
0.0
 41
1.0
 50
0.0
 71
     0
 42
2.5
  3
txt
  4

  0
ENDTAB
  0
TABLE
  2
VIEW
  5
6
330
0
100
AcDbSymbolTable
 70
     0
  0
ENDTAB
  0
TABLE
  2
UCS
  5
7
330
0
100
AcDbSymbolTable
 70
     0
  0
ENDTAB
  0
TABLE
  2
APPID
  5
9
330
0
100
AcDbSymbolTable
 70
     1
  0
APPID
  5
12
330
9
100
AcDbSymbolTableRecord
100
AcDbRegAppTableRecord
  2
ACAD
 70
     0
  0
ENDTAB
  0
TABLE
  2
DIMSTYLE
  5
A
330
0
100
AcDbSymbolTable
 70
     1
100
AcDbDimStyleTable
  0
DIMSTYLE
105
27
330
A
100
AcDbSymbolTableRecord
100
AcDbDimStyleTableRecord
  2
ISO-25
 70
     0
 41
2.5
 42
0.625
 43
3.75
 44
1.25
 73
     0
 74
     0
 77
     1
 78
     8
140
2.5
141
2.5
143
0.0393700787
147
0.625
171
     3
172
     1
178
     0
271
     2
272
     2
274
     3
278
    44
283
     0
284
     8
340
11
  0
ENDTAB
  0
TABLE
  2
BLOCK_RECORD
  5
1
330
0
100
AcDbSymbolTable
 70
     2
  0
BLOCK_RECORD
  5
1F
330
1
100
AcDbSymbolTableRecord
100
AcDbBlockTableRecord
  2
*Model_Space
340
22
  0
BLOCK_RECORD
  5
1B
330
1
100
AcDbSymbolTableRecord
100
AcDbBlockTableRecord
  2
*Paper_Space
340
1E
  0
BLOCK_RECORD
  5
40
330
1
100
AcDbSymbolTableRecord
100
AcDbBlockTableRecord
  2
SE
340
0
102
{BLKREFS
331
41
102
}
  0
ENDTAB
  0
ENDSEC
  0
SECTION
  2
BLOCKS
  0
BLOCK
  5
20
330
1F
100
AcDbEntity
  8
0
100
AcDbBlockBegin
  2
*Model_Space
 70
     0
 10
0.0
 20
0.0
 30
0.0
  3
*Model_Space
  1

  0
ENDBLK
  5
21
330
1F
100
AcDbEntity
  8
0
100
AcDbBlockEnd
  0
BLOCK
  5
1C
330
1B
100
AcDbEntity
 67
     1
  8
0
100
AcDbBlockBegin
  2
*Paper_Space
 70
     0
 10
0.0
 20
0.0
 30
0.0
  3
*Paper_Space
  1

  0
ENDBLK
  5
1D
330
1B
100
AcDbEntity
 67
     1
  8
0
100
AcDbBlockEnd
  0
BLOCK
  5
378
330
40
100
AcDbEntity
  8
0
100
AcDbBlockBegin
  2
SE
 70
     0
 10
0.0
 20
0.0
 30
0.0
  3
SE
  1

  0
LINE
  5
43
330
40
100
AcDbEntity
  8
BASE_5
  6
Continuous
 62
     7
100
AcDbLine
 10
354.3750934938
 20
207.0396149945
 30
0.0
 11
354.3750934938
 21
242.0396149945
 31
0.0
  0
ARC
  5
44
330
40
100
AcDbEntity
  8
BASE_5
  6
Continuous
 62
     7
100
AcDbCircle
 10
349.3750934938
 20
207.0396149945
 30
0.0
 40
5.000000000000004
100
AcDbArc
 50
270.0
 51
0.0
  0
LINE
  5
45
330
40
100
AcDbEntity
  8
BASE_5
  6
Continuous
 62
     7
100
AcDbLine
 10
292.8750934938
 20
202.0396149945
 30
0.0
 11
349.3750934938
 21
202.0396149945
 31
0.0
  0
ARC
  5
46
330
40
100
AcDbEntity
  8
BASE_5
  6
Continuous
 62
     7
100
AcDbCircle
 10
292.8750934938
 20
207.0396149945
 30
0.0
 40
4.999999999999977
100
AcDbArc
 50
180.0
 51
270.0
  0
LINE
  5
47
330
40
100
AcDbEntity
  8
BASE_5
  6
Continuous
 62
     7
100
AcDbLine
 10
287.8750934938
 20
242.0396149945
 30
0.0
 11
287.8750934938
 21
207.0396149945
 31
0.0
  0
ARC
  5
48
330
40
100
AcDbEntity
  8
BASE_5
  6
Continuous
 62
     7
100
AcDbCircle
 10
292.8750934938
 20
242.0396149945
 30
0.0
 40
5.000000000000004
100
AcDbArc
 50
90.0
 51
180.0
  0
LINE
  5
49
330
40
100
AcDbEntity
  8
BASE_5
  6
Continuous
 62
     7
100
AcDbLine
 10
349.3750934938
 20
247.0396149945
 30
0.0
 11
292.8750934938
 21
247.0396149945
 31
0.0
  0
ARC
  5
4A
330
40
100
AcDbEntity
  8
BASE_5
  6
Continuous
 62
     7
100
AcDbCircle
 10
349.3750934938
 20
242.0396149945
 30
0.0
 40
5.000000000000004
100
AcDbArc
 50
0.0
 51
90.0
  0
LINE
  5
4B
330
40
100
AcDbEntity
  8
BASE_5
  6
Continuous
 62
     7
100
AcDbLine
 10
292.8750934938
 20
217.0396149945
 30
0.0
 11
295.8750934938
 21
217.0396149945
 31
0.0
  0
LINE
  5
4C
330
40
100
AcDbEntity
  8
BASE_5
  6
Continuous
 62
     7
100
AcDbLine
 10
295.8750934938
 20
217.0396149945
 30
0.0
 11
295.8750934938
 21
207.0396149945
 31
0.0
  0
LINE
  5
4D
330
40
100
AcDbEntity
  8
BASE_5
  6
Continuous
 62
     7
100
AcDbLine
 10
295.8750934938
 20
207.0396149945
 30
0.0
 11
292.8750934938
 21
207.0396149945
 31
0.0
  0
LINE
  5
4E
330
40
100
AcDbEntity
  8
BASE_5
  6
Continuous
 62
     7
100
AcDbLine
 10
292.8750934938
 20
207.0396149945
 30
0.0
 11
292.8750934938
 21
217.0396149945
 31
0.0
  0
LINE
  5
4F
330
40
100
AcDbEntity
  8
BASE_5
  6
Continuous
 62
     7
100
AcDbLine
 10
292.8750934938
 20
230.5396149945
 30
0.0
 11
292.8750934938
 21
242.0396149945
 31
0.0
  0
LINE
  5
50
330
40
100
AcDbEntity
  8
BASE_5
  6
Continuous
 62
     7
100
AcDbLine
 10
292.8750934938
 20
242.0396149945
 30
0.0
 11
295.8750934938
 21
242.0396149945
 31
0.0
  0
LINE
  5
51
330
40
100
AcDbEntity
  8
BASE_5
  6
Continuous
 62
     7
100
AcDbLine
 10
295.8750934938
 20
242.0396149945
 30
0.0
 11
295.8750934938
 21
230.5396149945
 31
0.0
  0
LINE
  5
52
330
40
100
AcDbEntity
  8
BASE_5
  6
Continuous
 62
     7
100
AcDbLine
 10
309.8750934938
 20
242.0396149945
 30
0.0
 11
309.8750934938
 21
239.0396149945
 31
0.0
  0
LINE
  5
53
330
40
100
AcDbEntity
  8
BASE_5
  6
Continuous
 62
     7
100
AcDbLine
 10
309.8750934938
 20
239.0396149945
 30
0.0
 11
299.8750934938
 21
239.0396149945
 31
0.0
  0
LINE
  5
54
330
40
100
AcDbEntity
  8
BASE_5
  6
Continuous
 62
     7
100
AcDbLine
 10
299.8750934938
 20
239.0396149945
 30
0.0
 11
299.8750934938
 21
242.0396149945
 31
0.0
  0
LINE
  5
55
330
40
100
AcDbEntity
  8
BASE_5
  6
Continuous
 62
     7
100
AcDbLine
 10
299.8750934938
 20
242.0396149945
 30
0.0
 11
309.8750934938
 21
242.0396149945
 31
0.0
  0
LINE
  5
56
330
40
100
AcDbEntity
  8
BASE_5
  6
Continuous
 62
     7
100
AcDbLine
 10
337.8750934938
 20
239.0396149945
 30
0.0
 11
337.8750934938
 21
242.0396149945
 31
0.0
  0
LINE
  5
57
330
40
100
AcDbEntity
  8
BASE_5
  6
Continuous
 62
     7
100
AcDbLine
 10
337.8750934938
 20
242.0396149945
 30
0.0
 11
347.8750934938
 21
242.0396149945
 31
0.0
  0
LINE
  5
58
330
40
100
AcDbEntity
  8
BASE_5
  6
Continuous
 62
     7
100
AcDbLine
 10
347.8750934938
 20
242.0396149945
 30
0.0
 11
347.8750934938
 21
239.0396149945
 31
0.0
  0
LINE
  5
59
330
40
100
AcDbEntity
  8
BASE_5
  6
Continuous
 62
     7
100
AcDbLine
 10
347.8750934938
 20
239.0396149945
 30
0.0
 11
337.8750934938
 21
239.0396149945
 31
0.0
  0
LINE
  5
5A
330
40
100
AcDbEntity
  8
BASE_5
  6
Continuous
 62
     7
100
AcDbLine
 10
346.8750934938
 20
220.0396149945
 30
0.0
 11
346.8750934938
 21
208.0396149945
 31
0.0
  0
LINE
  5
5B
330
40
100
AcDbEntity
  8
BASE_5
  6
Continuous
 62
     7
100
AcDbLine
 10
346.8750934938
 20
208.0396149945
 30
0.0
 11
323.8750934938
 21
208.0396149945
 31
0.0
  0
LINE
  5
5C
330
40
100
AcDbEntity
  8
BASE_5
  6
Continuous
 62
     7
100
AcDbLine
 10
323.8750934938
 20
208.0396149945
 30
0.0
 11
323.8750934938
 21
220.0396149945
 31
0.0
  0
LINE
  5
5D
330
40
100
AcDbEntity
  8
BASE_5
  6
Continuous
 62
     7
100
AcDbLine
 10
323.8750934938
 20
220.0396149945
 30
0.0
 11
346.8750934938
 21
220.0396149945
 31
0.0
  0
CIRCLE
  5
5E
330
40
100
AcDbEntity
  8
BASE_5
  6
Continuous
 62
     7
100
AcDbCircle
 10
323.8750934938
 20
240.5396149945
 30
0.0
 40
1.55
  0
ARC
  5
5F
330
40
100
AcDbEntity
  8
BASE_5
  6
Continuous
 62
     7
100
AcDbCircle
 10
294.3750934938
 20
230.5396149945
 30
0.0
 40
1.500000000000001
100
AcDbArc
 50
180.0
 51
0.0
  0
CIRCLE
  5
60
330
40
100
AcDbEntity
  8
BASE_5
  6
Continuous
 62
     7
100
AcDbCircle
 10
335.3750934938
 20
223.5396149945
 30
0.0
 40
1.3
  0
CIRCLE
  5
61
330
40
100
AcDbEntity
  8
BASE_5
  6
Continuous
 62
     7
100
AcDbCircle
 10
335.3750934938
 20
204.5396149945
 30
0.0
 40
1.3
  0
LINE
  5
63
330
40
100
AcDbEntity
  8
BASE_4
  6
Continuous
 62
     7
100
AcDbLine
 10
354.3750934938
 20
161.0396149945
 30
0.0
 11
354.3750934938
 21
196.0396149945
 31
0.0
  0
ARC
  5
64
330
40
100
AcDbEntity
  8
BASE_4
  6
Continuous
 62
     7
100
AcDbCircle
 10
349.3750934938
 20
161.0396149945
 30
0.0
 40
4.999999999999996
100
AcDbArc
 50
295.5639525966
 51
0.0
  0
LINE
  5
65
330
40
100
AcDbEntity
  8
BASE_4
  6
Continuous
 62
     7
100
AcDbLine
 10
321.8194814538
 20
142.3158905946
 30
0.0
 11
351.5326848893
 21
156.5290940302
 31
0.0
  0
ARC
  5
66
330
40
100
AcDbEntity
  8
BASE_4
  6
Continuous
 62
     7
100
AcDbCircle
 10
319.6618900582
 20
146.826411559
 30
0.0
 40
5.000000000000004
100
AcDbArc
 50
180.0
 51
295.5639525966
  0
LINE
  5
67
330
40
100
AcDbEntity
  8
BASE_4
  6
Continuous
 62
     7
100
AcDbLine
 10
314.6618900582
 20
151.0396149945
 30
0.0
 11
314.6618900582
 21
146.826411559
 31
0.0
  0
ARC
  5
68
330
40
100
AcDbEntity
  8
BASE_4
  6
Continuous
 62
     7
100
AcDbCircle
 10
309.6618900582
 20
151.0396149945
 30
0.0
 40
5.000000000000004
100
AcDbArc
 50
0.0
 51
90.0
  0
LINE
  5
69
330
40
100
AcDbEntity
  8
BASE_4
  6
Continuous
 62
     7
100
AcDbLine
 10
292.8750934938
 20
156.0396149945
 30
0.0
 11
309.6618900582
 21
156.0396149945
 31
0.0
  0
ARC
  5
6A
330
40
100
AcDbEntity
  8
BASE_4
  6
Continuous
 62
     7
100
AcDbCircle
 10
292.8750934938
 20
161.0396149945
 30
0.0
 40
4.999999999999977
100
AcDbArc
 50
180.0
 51
270.0
  0
LINE
  5
6B
330
40
100
AcDbEntity
  8
BASE_4
  6
Continuous
 62
     7
100
AcDbLine
 10
287.8750934938
 20
196.0396149945
 30
0.0
 11
287.8750934938
 21
161.0396149945
 31
0.0
  0
ARC
  5
6C
330
40
100
AcDbEntity
  8
BASE_4
  6
Continuous
 62
     7
100
AcDbCircle
 10
292.8750934938
 20
196.0396149945
 30
0.0
 40
5.000000000000004
100
AcDbArc
 50
90.0
 51
180.0
  0
LINE
  5
6D
330
40
100
AcDbEntity
  8
BASE_4
  6
Continuous
 62
     7
100
AcDbLine
 10
349.3750934938
 20
201.0396149945
 30
0.0
 11
292.8750934938
 21
201.0396149945
 31
0.0
  0
ARC
  5
6E
330
40
100
AcDbEntity
  8
BASE_4
  6
Continuous
 62
     7
100
AcDbCircle
 10
349.3750934938
 20
196.0396149945
 30
0.0
 40
5.000000000000004
100
AcDbArc
 50
0.0
 51
90.0
  0
CIRCLE
  5
6F
330
40
100
AcDbEntity
  8
BASE_4
  6
Continuous
 62
     7
100
AcDbCircle
 10
319.6618900582
 20
146.826411559
 30
0.0
 40
1.350000000000001
  0
LINE
  5
70
330
40
100
AcDbEntity
  8
BASE_4
  6
Continuous
 62
     7
100
AcDbLine
 10
292.8750934938
 20
171.0396149945
 30
0.0
 11
295.8750934938
 21
171.0396149945
 31
0.0
  0
LINE
  5
71
330
40
100
AcDbEntity
  8
BASE_4
  6
Continuous
 62
     7
100
AcDbLine
 10
295.8750934938
 20
171.0396149945
 30
0.0
 11
295.8750934938
 21
161.0396149945
 31
0.0
  0
LINE
  5
72
330
40
100
AcDbEntity
  8
BASE_4
  6
Continuous
 62
     7
100
AcDbLine
 10
295.8750934938
 20
161.0396149945
 30
0.0
 11
292.8750934938
 21
161.0396149945
 31
0.0
  0
LINE
  5
73
330
40
100
AcDbEntity
  8
BASE_4
  6
Continuous
 62
     7
100
AcDbLine
 10
292.8750934938
 20
161.0396149945
 30
0.0
 11
292.8750934938
 21
171.0396149945
 31
0.0
  0
LINE
  5
74
330
40
100
AcDbEntity
  8
BASE_4
  6
Continuous
 62
     7
100
AcDbLine
 10
292.8750934938
 20
184.5396149945
 30
0.0
 11
292.8750934938
 21
196.0396149945
 31
0.0
  0
LINE
  5
75
330
40
100
AcDbEntity
  8
BASE_4
  6
Continuous
 62
     7
100
AcDbLine
 10
292.8750934938
 20
196.0396149945
 30
0.0
 11
295.8750934938
 21
196.0396149945
 31
0.0
  0
LINE
  5
76
330
40
100
AcDbEntity
  8
BASE_4
  6
Continuous
 62
     7
100
AcDbLine
 10
295.8750934938
 20
196.0396149945
 30
0.0
 11
295.8750934938
 21
184.5396149945
 31
0.0
  0
LINE
  5
77
330
40
100
AcDbEntity
  8
BASE_4
  6
Continuous
 62
     7
100
AcDbLine
 10
309.8750934938
 20
196.0396149945
 30
0.0
 11
309.8750934938
 21
193.0396149945
 31
0.0
  0
LINE
  5
78
330
40
100
AcDbEntity
  8
BASE_4
  6
Continuous
 62
     7
100
AcDbLine
 10
309.8750934938
 20
193.0396149945
 30
0.0
 11
299.8750934938
 21
193.0396149945
 31
0.0
  0
LINE
  5
79
330
40
100
AcDbEntity
  8
BASE_4
  6
Continuous
 62
     7
100
AcDbLine
 10
299.8750934938
 20
193.0396149945
 30
0.0
 11
299.8750934938
 21
196.0396149945
 31
0.0
  0
LINE
  5
7A
330
40
100
AcDbEntity
  8
BASE_4
  6
Continuous
 62
     7
100
AcDbLine
 10
299.8750934938
 20
196.0396149945
 30
0.0
 11
309.8750934938
 21
196.0396149945
 31
0.0
  0
LINE
  5
7B
330
40
100
AcDbEntity
  8
BASE_4
  6
Continuous
 62
     7
100
AcDbLine
 10
337.8750934938
 20
193.0396149945
 30
0.0
 11
337.8750934938
 21
196.0396149945
 31
0.0
  0
LINE
  5
7C
330
40
100
AcDbEntity
  8
BASE_4
  6
Continuous
 62
     7
100
AcDbLine
 10
337.8750934938
 20
196.0396149945
 30
0.0
 11
347.8750934938
 21
196.0396149945
 31
0.0
  0
LINE
  5
7D
330
40
100
AcDbEntity
  8
BASE_4
  6
Continuous
 62
     7
100
AcDbLine
 10
347.8750934938
 20
196.0396149945
 30
0.0
 11
347.8750934938
 21
193.0396149945
 31
0.0
  0
LINE
  5
7E
330
40
100
AcDbEntity
  8
BASE_4
  6
Continuous
 62
     7
100
AcDbLine
 10
347.8750934938
 20
193.0396149945
 30
0.0
 11
337.8750934938
 21
193.0396149945
 31
0.0
  0
LINE
  5
7F
330
40
100
AcDbEntity
  8
BASE_4
  6
Continuous
 62
     7
100
AcDbLine
 10
323.8750934938
 20
174.0396149945
 30
0.0
 11
323.8750934938
 21
162.0396149945
 31
0.0
  0
LINE
  5
80
330
40
100
AcDbEntity
  8
BASE_4
  6
Continuous
 62
     7
100
AcDbLine
 10
323.8750934938
 20
162.0396149945
 30
0.0
 11
346.8750934938
 21
162.0396149945
 31
0.0
  0
LINE
  5
81
330
40
100
AcDbEntity
  8
BASE_4
  6
Continuous
 62
     7
100
AcDbLine
 10
346.8750934938
 20
162.0396149945
 30
0.0
 11
346.8750934938
 21
174.0396149945
 31
0.0
  0
LINE
  5
82
330
40
100
AcDbEntity
  8
BASE_4
  6
Continuous
 62
     7
100
AcDbLine
 10
346.8750934938
 20
174.0396149945
 30
0.0
 11
323.8750934938
 21
174.0396149945
 31
0.0
  0
CIRCLE
  5
83
330
40
100
AcDbEntity
  8
BASE_4
  6
Continuous
 62
     7
100
AcDbCircle
 10
323.8750934938
 20
194.5396149945
 30
0.0
 40
1.55
  0
ARC
  5
84
330
40
100
AcDbEntity
  8
BASE_4
  6
Continuous
 62
     7
100
AcDbCircle
 10
294.3750934938
 20
184.5396149945
 30
0.0
 40
1.500000000000001
100
AcDbArc
 50
180.0
 51
0.0
  0
CIRCLE
  5
85
330
40
100
AcDbEntity
  8
BASE_4
  6
Continuous
 62
     7
100
AcDbCircle
 10
335.3750934938
 20
177.5396149945
 30
0.0
 40
1.3
  0
CIRCLE
  5
86
330
40
100
AcDbEntity
  8
BASE_4
  6
Continuous
 62
     7
100
AcDbCircle
 10
335.3750934938
 20
158.5396149945
 30
0.0
 40
1.3
  0
LINE
  5
88
330
40
100
AcDbEntity
  8
LINKAGE
  6
Continuous
 62
     7
100
AcDbLine
 10
145.8750934938
 20
187.0396149945
 30
0.0
 11
65.8750934938
 21
187.0396149945
 31
0.0
  0
ARC
  5
89
330
40
100
AcDbEntity
  8
LINKAGE
  6
Continuous
 62
     7
100
AcDbCircle
 10
145.8750934938
 20
191.0396149945
 30
0.0
 40
4.000000000000004
100
AcDbArc
 50
270.0
 51
90.0
  0
LINE
  5
8A
330
40
100
AcDbEntity
  8
LINKAGE
  6
Continuous
 62
     7
100
AcDbLine
 10
65.8750934938
 20
195.0396149945
 30
0.0
 11
145.8750934938
 21
195.0396149945
 31
0.0
  0
ARC
  5
8B
330
40
100
AcDbEntity
  8
LINKAGE
  6
Continuous
 62
     7
100
AcDbCircle
 10
65.8750934938
 20
191.0396149945
 30
0.0
 40
4.000000000000004
100
AcDbArc
 50
90.0
 51
270.0
  0
CIRCLE
  5
8C
330
40
100
AcDbEntity
  8
LINKAGE
  6
Continuous
 62
     7
100
AcDbCircle
 10
65.8750934938
 20
191.0396149945
 30
0.0
 40
1.549999999999996
  0
CIRCLE
  5
8D
330
40
100
AcDbEntity
  8
LINKAGE
  6
Continuous
 62
     7
100
AcDbCircle
 10
145.8750934938
 20
191.0396149945
 30
0.0
 40
1.549999999999996
  0
LINE
  5
8F
330
40
100
AcDbEntity
  8
MAIN_ARM_1
  6
Continuous
 62
     7
100
AcDbLine
 10
182.8750934938
 20
235.0396149946
 30
0.0
 11
67.8750934938
 21
235.0396149946
 31
0.0
  0
ARC
  5
90
330
40
100
AcDbEntity
  8
MAIN_ARM_1
  6
Continuous
 62
     7
100
AcDbCircle
 10
182.8750934938
 20
241.0396149946
 30
0.0
 40
6.000000000000005
100
AcDbArc
 50
270.0
 51
90.0
  0
LINE
  5
91
330
40
100
AcDbEntity
  8
MAIN_ARM_1
  6
Continuous
 62
     7
100
AcDbLine
 10
67.8750934938
 20
247.0396149946
 30
0.0
 11
182.8750934938
 21
247.0396149946
 31
0.0
  0
ARC
  5
92
330
40
100
AcDbEntity
  8
MAIN_ARM_1
  6
Continuous
 62
     7
100
AcDbCircle
 10
67.8750934938
 20
241.0396149946
 30
0.0
 40
6.000000000000005
100
AcDbArc
 50
90.0
 51
270.0
  0
CIRCLE
  5
93
330
40
100
AcDbEntity
  8
MAIN_ARM_1
  6
Continuous
 62
     7
100
AcDbCircle
 10
147.8750934938
 20
241.0396149946
 30
0.0
 40
1.550000000000003
  0
CIRCLE
  5
94
330
40
100
AcDbEntity
  8
MAIN_ARM_1
  6
Continuous
 62
     7
100
AcDbCircle
 10
182.8750934938
 20
241.0396149946
 30
0.0
 40
1.3
  0
CIRCLE
  5
95
330
40
100
AcDbEntity
  8
MAIN_ARM_1
  6
Continuous
 62
     7
100
AcDbCircle
 10
67.8750934938
 20
241.0396149946
 30
0.0
 40
1.299999999999996
  0
LINE
  5
96
330
40
100
AcDbEntity
  8
MAIN_ARM_1
  6
Continuous
 62
     7
100
AcDbLine
 10
83.8750934938
 20
242.5396149946
 30
0.0
 11
83.8750934938
 21
239.5396149946
 31
0.0
  0
LINE
  5
97
330
40
100
AcDbEntity
  8
MAIN_ARM_1
  6
Continuous
 62
     7
100
AcDbLine
 10
83.8750934938
 20
239.5396149946
 30
0.0
 11
77.8750934938
 21
239.5396149946
 31
0.0
  0
LINE
  5
98
330
40
100
AcDbEntity
  8
MAIN_ARM_1
  6
Continuous
 62
     7
100
AcDbLine
 10
77.8750934938
 20
239.5396149946
 30
0.0
 11
77.8750934938
 21
242.5396149946
 31
0.0
  0
LINE
  5
99
330
40
100
AcDbEntity
  8
MAIN_ARM_1
  6
Continuous
 62
     7
100
AcDbLine
 10
77.8750934938
 20
242.5396149946
 30
0.0
 11
83.8750934938
 21
242.5396149946
 31
0.0
  0
LINE
  5
9A
330
40
100
AcDbEntity
  8
MAIN_ARM_1
  6
Continuous
 62
     7
100
AcDbLine
 10
137.8750934938
 20
239.5396149946
 30
0.0
 11
137.8750934938
 21
242.5396149946
 31
0.0
  0
LINE
  5
9B
330
40
100
AcDbEntity
  8
MAIN_ARM_1
  6
Continuous
 62
     7
100
AcDbLine
 10
137.8750934938
 20
242.5396149946
 30
0.0
 11
129.8750934938
 21
242.5396149946
 31
0.0
  0
LINE
  5
9C
330
40
100
AcDbEntity
  8
MAIN_ARM_1
  6
Continuous
 62
     7
100
AcDbLine
 10
129.8750934938
 20
242.5396149946
 30
0.0
 11
129.8750934938
 21
239.5396149946
 31
0.0
  0
LINE
  5
9D
330
40
100
AcDbEntity
  8
MAIN_ARM_1
  6
Continuous
 62
     7
100
AcDbLine
 10
129.8750934938
 20
239.5396149946
 30
0.0
 11
137.8750934938
 21
239.5396149946
 31
0.0
  0
CIRCLE
  5
9E
330
40
100
AcDbEntity
  8
MAIN_ARM_1
  6
Continuous
 62
     7
100
AcDbCircle
 10
115.8750934938
 20
241.0396149946
 30
0.0
 40
1.5
  0
LINE
  5
9F
330
40
100
AcDbEntity
  8
LINKAGE
  6
Continuous
 62
     7
100
AcDbLine
 10
145.8750934938
 20
178.0396149945
 30
0.0
 11
65.8750934938
 21
178.0396149945
 31
0.0
  0
ARC
  5
A0
330
40
100
AcDbEntity
  8
LINKAGE
  6
Continuous
 62
     7
100
AcDbCircle
 10
145.8750934938
 20
182.0396149945
 30
0.0
 40
4.000000000000018
100
AcDbArc
 50
270.0
 51
90.0
  0
LINE
  5
A1
330
40
100
AcDbEntity
  8
LINKAGE
  6
Continuous
 62
     7
100
AcDbLine
 10
65.8750934938
 20
186.0396149945
 30
0.0
 11
145.8750934938
 21
186.0396149945
 31
0.0
  0
ARC
  5
A2
330
40
100
AcDbEntity
  8
LINKAGE
  6
Continuous
 62
     7
100
AcDbCircle
 10
65.8750934938
 20
182.0396149945
 30
0.0
 40
4.000000000000004
100
AcDbArc
 50
90.0
 51
270.0
  0
CIRCLE
  5
A3
330
40
100
AcDbEntity
  8
LINKAGE
  6
Continuous
 62
     7
100
AcDbCircle
 10
65.8750934938
 20
182.0396149945
 30
0.0
 40
1.549999999999996
  0
CIRCLE
  5
A4
330
40
100
AcDbEntity
  8
LINKAGE
  6
Continuous
 62
     7
100
AcDbCircle
 10
145.8750934938
 20
182.0396149945
 30
0.0
 40
1.549999999999996
  0
LINE
  5
A5
330
40
100
AcDbEntity
  8
LINKAGE
  6
Continuous
 62
     7
100
AcDbLine
 10
145.8750934938
 20
169.0396149945
 30
0.0
 11
65.8750934938
 21
169.0396149945
 31
0.0
  0
ARC
  5
A6
330
40
100
AcDbEntity
  8
LINKAGE
  6
Continuous
 62
     7
100
AcDbCircle
 10
145.8750934938
 20
173.0396149945
 30
0.0
 40
4.000000000000004
100
AcDbArc
 50
270.0
 51
90.0
  0
LINE
  5
A7
330
40
100
AcDbEntity
  8
LINKAGE
  6
Continuous
 62
     7
100
AcDbLine
 10
65.8750934938
 20
177.0396149945
 30
0.0
 11
145.8750934938
 21
177.0396149945
 31
0.0
  0
ARC
  5
A8
330
40
100
AcDbEntity
  8
LINKAGE
  6
Continuous
 62
     7
100
AcDbCircle
 10
65.8750934938
 20
173.0396149945
 30
0.0
 40
3.99999999999999
100
AcDbArc
 50
90.0
 51
270.0
  0
CIRCLE
  5
A9
330
40
100
AcDbEntity
  8
LINKAGE
  6
Continuous
 62
     7
100
AcDbCircle
 10
65.8750934938
 20
173.0396149945
 30
0.0
 40
1.549999999999996
  0
CIRCLE
  5
AA
330
40
100
AcDbEntity
  8
LINKAGE
  6
Continuous
 62
     7
100
AcDbCircle
 10
145.8750934938
 20
173.0396149945
 30
0.0
 40
1.549999999999996
  0
LINE
  5
AC
330
40
100
AcDbEntity
  8
MAIN_ARM_2
  6
Continuous
 62
     7
100
AcDbLine
 10
67.8750934938
 20
234.0396149946
 30
0.0
 11
147.8750934938
 21
234.0396149946
 31
0.0
  0
ARC
  5
AD
330
40
100
AcDbEntity
  8
MAIN_ARM_2
  6
Continuous
 62
     7
100
AcDbCircle
 10
67.8750934938
 20
228.0396149946
 30
0.0
 40
6.000000000000005
100
AcDbArc
 50
90.0
 51
270.0
  0
LINE
  5
AE
330
40
100
AcDbEntity
  8
MAIN_ARM_2
  6
Continuous
 62
     7
100
AcDbLine
 10
147.8750934938
 20
222.0396149946
 30
0.0
 11
67.8750934938
 21
222.0396149946
 31
0.0
  0
ARC
  5
AF
330
40
100
AcDbEntity
  8
MAIN_ARM_2
  6
Continuous
 62
     7
100
AcDbCircle
 10
147.8750934938
 20
228.0396149946
 30
0.0
 40
6.000000000000005
100
AcDbArc
 50
270.0
 51
90.0
  0
CIRCLE
  5
B0
330
40
100
AcDbEntity
  8
MAIN_ARM_2
  6
Continuous
 62
     7
100
AcDbCircle
 10
67.8750934938
 20
228.0396149946
 30
0.0
 40
1.549999999999996
  0
CIRCLE
  5
B1
330
40
100
AcDbEntity
  8
MAIN_ARM_2
  6
Continuous
 62
     7
100
AcDbCircle
 10
147.8750934938
 20
228.0396149946
 30
0.0
 40
1.299999999999996
  0
LINE
  5
B2
330
40
100
AcDbEntity
  8
MAIN_ARM_2
  6
Continuous
 62
     7
100
AcDbLine
 10
130.8750934938
 20
226.5396149946
 30
0.0
 11
130.8750934938
 21
229.5396149946
 31
0.0
  0
LINE
  5
B3
330
40
100
AcDbEntity
  8
MAIN_ARM_2
  6
Continuous
 62
     7
100
AcDbLine
 10
130.8750934938
 20
229.5396149946
 30
0.0
 11
137.8750934938
 21
229.5396149946
 31
0.0
  0
LINE
  5
B4
330
40
100
AcDbEntity
  8
MAIN_ARM_2
  6
Continuous
 62
     7
100
AcDbLine
 10
137.8750934938
 20
229.5396149946
 30
0.0
 11
137.8750934938
 21
226.5396149946
 31
0.0
  0
LINE
  5
B5
330
40
100
AcDbEntity
  8
MAIN_ARM_2
  6
Continuous
 62
     7
100
AcDbLine
 10
137.8750934938
 20
226.5396149946
 30
0.0
 11
130.8750934938
 21
226.5396149946
 31
0.0
  0
LINE
  5
B6
330
40
100
AcDbEntity
  8
MAIN_ARM_2
  6
Continuous
 62
     7
100
AcDbLine
 10
77.8750934938
 20
229.5396149946
 30
0.0
 11
77.8750934938
 21
226.5396149946
 31
0.0
  0
LINE
  5
B7
330
40
100
AcDbEntity
  8
MAIN_ARM_2
  6
Continuous
 62
     7
100
AcDbLine
 10
77.8750934938
 20
226.5396149946
 30
0.0
 11
83.8750934938
 21
226.5396149946
 31
0.0
  0
LINE
  5
B8
330
40
100
AcDbEntity
  8
MAIN_ARM_2
  6
Continuous
 62
     7
100
AcDbLine
 10
83.8750934938
 20
226.5396149946
 30
0.0
 11
83.8750934938
 21
229.5396149946
 31
0.0
  0
LINE
  5
B9
330
40
100
AcDbEntity
  8
MAIN_ARM_2
  6
Continuous
 62
     7
100
AcDbLine
 10
83.8750934938
 20
229.5396149946
 30
0.0
 11
77.8750934938
 21
229.5396149946
 31
0.0
  0
CIRCLE
  5
BA
330
40
100
AcDbEntity
  8
MAIN_ARM_2
  6
Continuous
 62
     7
100
AcDbCircle
 10
115.8750934938
 20
228.0396149946
 30
0.0
 40
1.5
  0
LINE
  5
BC
330
40
100
AcDbEntity
  8
UPRIGHT_ARM_2
  6
Continuous
 62
     7
100
AcDbLine
 10
147.8750934938
 20
209.0396149945
 30
0.0
 11
67.8750934938
 21
209.0396149945
 31
0.0
  0
ARC
  5
BD
330
40
100
AcDbEntity
  8
UPRIGHT_ARM_2
  6
Continuous
 62
     7
100
AcDbCircle
 10
147.8750934938
 20
215.0396149945
 30
0.0
 40
5.999999999999978
100
AcDbArc
 50
270.0
 51
90.0
  0
LINE
  5
BE
330
40
100
AcDbEntity
  8
UPRIGHT_ARM_2
  6
Continuous
 62
     7
100
AcDbLine
 10
67.8750934938
 20
221.0396149945
 30
0.0
 11
147.8750934938
 21
221.0396149945
 31
0.0
  0
ARC
  5
BF
330
40
100
AcDbEntity
  8
UPRIGHT_ARM_2
  6
Continuous
 62
     7
100
AcDbCircle
 10
67.8750934938
 20
215.0396149945
 30
0.0
 40
6.000000000000005
100
AcDbArc
 50
90.0
 51
270.0
  0
CIRCLE
  5
C0
330
40
100
AcDbEntity
  8
UPRIGHT_ARM_2
  6
Continuous
 62
     7
100
AcDbCircle
 10
147.8750934938
 20
215.0396149945
 30
0.0
 40
1.549999999999996
  0
CIRCLE
  5
C1
330
40
100
AcDbEntity
  8
UPRIGHT_ARM_2
  6
Continuous
 62
     7
100
AcDbCircle
 10
67.8750934938
 20
215.0396149945
 30
0.0
 40
1.299999999999996
  0
LINE
  5
C2
330
40
100
AcDbEntity
  8
UPRIGHT_ARM_2
  6
Continuous
 62
     7
100
AcDbLine
 10
82.8750934938
 20
213.5396149945
 30
0.0
 11
82.8750934938
 21
216.5396149945
 31
0.0
  0
LINE
  5
C3
330
40
100
AcDbEntity
  8
UPRIGHT_ARM_2
  6
Continuous
 62
     7
100
AcDbLine
 10
82.8750934938
 20
216.5396149945
 30
0.0
 11
77.8750934938
 21
216.5396149945
 31
0.0
  0
LINE
  5
C4
330
40
100
AcDbEntity
  8
UPRIGHT_ARM_2
  6
Continuous
 62
     7
100
AcDbLine
 10
77.8750934938
 20
216.5396149945
 30
0.0
 11
77.8750934938
 21
213.5396149945
 31
0.0
  0
LINE
  5
C5
330
40
100
AcDbEntity
  8
UPRIGHT_ARM_2
  6
Continuous
 62
     7
100
AcDbLine
 10
77.8750934938
 20
213.5396149945
 30
0.0
 11
82.8750934938
 21
213.5396149945
 31
0.0
  0
LINE
  5
C6
330
40
100
AcDbEntity
  8
UPRIGHT_ARM_2
  6
Continuous
 62
     7
100
AcDbLine
 10
137.8750934938
 20
213.5396149945
 30
0.0
 11
137.8750934938
 21
216.5396149945
 31
0.0
  0
LINE
  5
C7
330
40
100
AcDbEntity
  8
UPRIGHT_ARM_2
  6
Continuous
 62
     7
100
AcDbLine
 10
137.8750934938
 20
216.5396149945
 30
0.0
 11
130.3750934938
 21
216.5396149945
 31
0.0
  0
LINE
  5
C8
330
40
100
AcDbEntity
  8
UPRIGHT_ARM_2
  6
Continuous
 62
     7
100
AcDbLine
 10
130.3750934938
 20
216.5396149945
 30
0.0
 11
130.3750934938
 21
213.5396149945
 31
0.0
  0
LINE
  5
C9
330
40
100
AcDbEntity
  8
UPRIGHT_ARM_2
  6
Continuous
 62
     7
100
AcDbLine
 10
130.3750934938
 20
213.5396149945
 30
0.0
 11
137.8750934938
 21
213.5396149945
 31
0.0
  0
CIRCLE
  5
CA
330
40
100
AcDbEntity
  8
UPRIGHT_ARM_2
  6
Continuous
 62
     7
100
AcDbCircle
 10
115.8750934938
 20
215.0396149945
 30
0.0
 40
1.5
  0
LINE
  5
CC
330
40
100
AcDbEntity
  8
UPRIGHT_ARM_1
  6
Continuous
 62
     7
100
AcDbLine
 10
67.8750934938
 20
208.0396149945
 30
0.0
 11
147.8750934938
 21
208.0396149945
 31
0.0
  0
ARC
  5
CD
330
40
100
AcDbEntity
  8
UPRIGHT_ARM_1
  6
Continuous
 62
     7
100
AcDbCircle
 10
67.8750934938
 20
202.0396149945
 30
0.0
 40
6.000000000000005
100
AcDbArc
 50
90.0
 51
270.0
  0
LINE
  5
CE
330
40
100
AcDbEntity
  8
UPRIGHT_ARM_1
  6
Continuous
 62
     7
100
AcDbLine
 10
147.8750934938
 20
196.0396149945
 30
0.0
 11
67.8750934938
 21
196.0396149945
 31
0.0
  0
ARC
  5
CF
330
40
100
AcDbEntity
  8
UPRIGHT_ARM_1
  6
Continuous
 62
     7
100
AcDbCircle
 10
147.8750934938
 20
202.0396149945
 30
0.0
 40
6.000000000000005
100
AcDbArc
 50
270.0
 51
90.0
  0
CIRCLE
  5
D0
330
40
100
AcDbEntity
  8
UPRIGHT_ARM_1
  6
Continuous
 62
     7
100
AcDbCircle
 10
147.8750934938
 20
202.0396149945
 30
0.0
 40
1.299999999999996
  0
LINE
  5
D1
330
40
100
AcDbEntity
  8
UPRIGHT_ARM_1
  6
Continuous
 62
     7
100
AcDbLine
 10
129.8750934938
 20
203.5396149945
 30
0.0
 11
129.8750934938
 21
200.5396149945
 31
0.0
  0
LINE
  5
D2
330
40
100
AcDbEntity
  8
UPRIGHT_ARM_1
  6
Continuous
 62
     7
100
AcDbLine
 10
129.8750934938
 20
200.5396149945
 30
0.0
 11
137.8750934938
 21
200.5396149945
 31
0.0
  0
LINE
  5
D3
330
40
100
AcDbEntity
  8
UPRIGHT_ARM_1
  6
Continuous
 62
     7
100
AcDbLine
 10
137.8750934938
 20
200.5396149945
 30
0.0
 11
137.8750934938
 21
203.5396149945
 31
0.0
  0
LINE
  5
D4
330
40
100
AcDbEntity
  8
UPRIGHT_ARM_1
  6
Continuous
 62
     7
100
AcDbLine
 10
137.8750934938
 20
203.5396149945
 30
0.0
 11
129.8750934938
 21
203.5396149945
 31
0.0
  0
LINE
  5
D5
330
40
100
AcDbEntity
  8
UPRIGHT_ARM_1
  6
Continuous
 62
     7
100
AcDbLine
 10
90.8750934938
 20
203.5396149945
 30
0.0
 11
90.8750934938
 21
200.5396149945
 31
0.0
  0
LINE
  5
D6
330
40
100
AcDbEntity
  8
UPRIGHT_ARM_1
  6
Continuous
 62
     7
100
AcDbLine
 10
90.8750934938
 20
200.5396149945
 30
0.0
 11
99.8750934938
 21
200.5396149945
 31
0.0
  0
LINE
  5
D7
330
40
100
AcDbEntity
  8
UPRIGHT_ARM_1
  6
Continuous
 62
     7
100
AcDbLine
 10
99.8750934938
 20
200.5396149945
 30
0.0
 11
99.8750934938
 21
203.5396149945
 31
0.0
  0
LINE
  5
D8
330
40
100
AcDbEntity
  8
UPRIGHT_ARM_1
  6
Continuous
 62
     7
100
AcDbLine
 10
99.8750934938
 20
203.5396149945
 30
0.0
 11
90.8750934938
 21
203.5396149945
 31
0.0
  0
CIRCLE
  5
D9
330
40
100
AcDbEntity
  8
UPRIGHT_ARM_1
  6
Continuous
 62
     7
100
AcDbCircle
 10
82.8750934938
 20
202.0396149945
 30
0.0
 40
0.9000000000000001
  0
CIRCLE
  5
DA
330
40
100
AcDbEntity
  8
UPRIGHT_ARM_1
  6
Continuous
 62
     7
100
AcDbCircle
 10
77.8750934938
 20
202.0396149945
 30
0.0
 40
0.9000000000000001
  0
CIRCLE
  5
DB
330
40
100
AcDbEntity
  8
UPRIGHT_ARM_1
  6
Continuous
 62
     7
100
AcDbCircle
 10
67.8750934938
 20
202.0396149945
 30
0.0
 40
3.75
  0
CIRCLE
  5
DC
330
40
100
AcDbEntity
  8
UPRIGHT_ARM_1
  6
Continuous
 62
     7
100
AcDbCircle
 10
115.8750934938
 20
202.0396149945
 30
0.0
 40
1.5
  0
LINE
  5
DE
330
40
100
AcDbEntity
  8
GRIPPER_1
  6
Continuous
 62
     7
100
AcDbLine
 10
261.7750934938
 20
118.0396149946
 30
0.0
 11
238.7750934938
 21
118.0396149946
 31
0.0
  0
ARC
  5
DF
330
40
100
AcDbEntity
  8
GRIPPER_1
  6
Continuous
 62
     7
100
AcDbCircle
 10
238.7750934938
 20
124.0396149946
 30
0.0
 40
6.00000000000002
100
AcDbArc
 50
180.0
 51
270.0
  0
LINE
  5
E0
330
40
100
AcDbEntity
  8
GRIPPER_1
  6
Continuous
 62
     7
100
AcDbLine
 10
232.7750934938
 20
124.0396149946
 30
0.0
 11
232.7750934938
 21
125.0396149946
 31
0.0
  0
ARC
  5
E1
330
40
100
AcDbEntity
  8
GRIPPER_1
  6
Continuous
 62
     7
100
AcDbCircle
 10
238.7750934938
 20
125.0396149946
 30
0.0
 40
6.000000000000005
100
AcDbArc
 50
90.0
 51
180.0
  0
LINE
  5
E2
330
40
100
AcDbEntity
  8
GRIPPER_1
  6
Continuous
 62
     7
100
AcDbLine
 10
238.7750934938
 20
131.0396149946
 30
0.0
 11
239.2750934938
 21
131.0396149946
 31
0.0
  0
ARC
  5
E3
330
40
100
AcDbEntity
  8
GRIPPER_1
  6
Continuous
 62
     7
100
AcDbCircle
 10
239.2750934938
 20
137.0396149946
 30
0.0
 40
6.00000000000002
100
AcDbArc
 50
270.0
 51
0.0
  0
LINE
  5
E4
330
40
100
AcDbEntity
  8
GRIPPER_1
  6
Continuous
 62
     7
100
AcDbLine
 10
245.2750934938
 20
137.0396149946
 30
0.0
 11
245.2750934938
 21
149.8827607451
 31
0.0
  0
LINE
  5
E5
330
40
100
AcDbEntity
  8
GRIPPER_1
  6
Continuous
 62
     7
100
AcDbLine
 10
245.2750934938
 20
149.8827607451
 30
0.0
 11
237.7334629335
 21
157.4243913054
 31
0.0
  0
ARC
  5
E6
330
40
100
AcDbEntity
  8
GRIPPER_1
  6
Continuous
 62
     7
100
AcDbCircle
 10
240.5618900582
 20
160.2528184301
 30
0.0
 40
3.999999999999986
100
AcDbArc
 50
48.8225537293
 51
225.0
  0
LINE
  5
E7
330
40
100
AcDbEntity
  8
GRIPPER_1
  6
Continuous
 62
     7
100
AcDbLine
 10
243.1954629817
 20
163.2635149703
 30
0.0
 11
265.725452879
 21
143.5556598047
 31
0.0
  0
ARC
  5
E8
330
40
100
AcDbEntity
  8
GRIPPER_1
  6
Continuous
 62
     7
100
AcDbCircle
 10
261.7750934938
 20
139.0396149946
 30
0.0
 40
5.999999999999988
100
AcDbArc
 50
0.0
 51
48.8225537293
  0
LINE
  5
E9
330
40
100
AcDbEntity
  8
GRIPPER_1
  6
Continuous
 62
     7
100
AcDbLine
 10
267.7750934938
 20
139.0396149946
 30
0.0
 11
267.7750934938
 21
124.0396149946
 31
0.0
  0
ARC
  5
EA
330
40
100
AcDbEntity
  8
GRIPPER_1
  6
Continuous
 62
     7
100
AcDbCircle
 10
261.7750934938
 20
124.0396149946
 30
0.0
 40
6.000000000000005
100
AcDbArc
 50
270.0
 51
0.0
  0
CIRCLE
  5
EB
330
40
100
AcDbEntity
  8
GRIPPER_1
  6
Continuous
 62
     7
100
AcDbCircle
 10
240.5618900582
 20
160.2528184301
 30
0.0
 40
1.299999999999999
  0
CIRCLE
  5
EC
330
40
100
AcDbEntity
  8
GRIPPER_1
  6
Continuous
 62
     7
100
AcDbCircle
 10
261.7750934938
 20
139.0396149946
 30
0.0
 40
1.55
  0
LINE
  5
ED
330
40
100
AcDbEntity
  8
GRIPPER_1
  6
Continuous
 62
     7
100
AcDbLine
 10
250.2750934938
 20
144.0396149946
 30
0.0
 11
253.2750934938
 21
144.0396149946
 31
0.0
  0
LINE
  5
EE
330
40
100
AcDbEntity
  8
GRIPPER_1
  6
Continuous
 62
     7
100
AcDbLine
 10
253.2750934938
 20
144.0396149946
 30
0.0
 11
253.2750934938
 21
151.0396149946
 31
0.0
  0
LINE
  5
EF
330
40
100
AcDbEntity
  8
GRIPPER_1
  6
Continuous
 62
     7
100
AcDbLine
 10
253.2750934938
 20
151.0396149946
 30
0.0
 11
250.2750934938
 21
151.0396149946
 31
0.0
  0
LINE
  5
F0
330
40
100
AcDbEntity
  8
GRIPPER_1
  6
Continuous
 62
     7
100
AcDbLine
 10
250.2750934938
 20
151.0396149946
 30
0.0
 11
250.2750934938
 21
144.0396149946
 31
0.0
  0
LINE
  5
F1
330
40
100
AcDbEntity
  8
GRIPPER_1
  6
Continuous
 62
     7
100
AcDbLine
 10
253.2750934938
 20
130.0396149946
 30
0.0
 11
250.2750934938
 21
130.0396149946
 31
0.0
  0
LINE
  5
F2
330
40
100
AcDbEntity
  8
GRIPPER_1
  6
Continuous
 62
     7
100
AcDbLine
 10
250.2750934938
 20
130.0396149946
 30
0.0
 11
250.2750934938
 21
123.0396149946
 31
0.0
  0
LINE
  5
F3
330
40
100
AcDbEntity
  8
GRIPPER_1
  6
Continuous
 62
     7
100
AcDbLine
 10
250.2750934938
 20
123.0396149946
 30
0.0
 11
253.2750934938
 21
123.0396149946
 31
0.0
  0
LINE
  5
F4
330
40
100
AcDbEntity
  8
GRIPPER_1
  6
Continuous
 62
     7
100
AcDbLine
 10
253.2750934938
 20
123.0396149946
 30
0.0
 11
253.2750934938
 21
130.0396149946
 31
0.0
  0
LINE
  5
F5
330
40
100
AcDbEntity
  8
GRIPPER_1
  6
Continuous
 62
     7
100
AcDbLine
 10
244.7750934938
 20
123.0396149946
 30
0.0
 11
244.7750934938
 21
126.0396149946
 31
0.0
  0
LINE
  5
F6
330
40
100
AcDbEntity
  8
GRIPPER_1
  6
Continuous
 62
     7
100
AcDbLine
 10
244.7750934938
 20
126.0396149946
 30
0.0
 11
237.7750934938
 21
126.0396149946
 31
0.0
  0
LINE
  5
F7
330
40
100
AcDbEntity
  8
GRIPPER_1
  6
Continuous
 62
     7
100
AcDbLine
 10
237.7750934938
 20
126.0396149946
 30
0.0
 11
237.7750934938
 21
123.0396149946
 31
0.0
  0
LINE
  5
F8
330
40
100
AcDbEntity
  8
GRIPPER_1
  6
Continuous
 62
     7
100
AcDbLine
 10
237.7750934938
 20
123.0396149946
 30
0.0
 11
244.7750934938
 21
123.0396149946
 31
0.0
  0
LINE
  5
F9
330
40
100
AcDbEntity
  8
GRIPPER_1
  6
Continuous
 62
     7
100
AcDbLine
 10
258.7750934938
 20
126.0396149946
 30
0.0
 11
258.7750934938
 21
123.0396149946
 31
0.0
  0
LINE
  5
FA
330
40
100
AcDbEntity
  8
GRIPPER_1
  6
Continuous
 62
     7
100
AcDbLine
 10
258.7750934938
 20
123.0396149946
 30
0.0
 11
265.7750934938
 21
123.0396149946
 31
0.0
  0
LINE
  5
FB
330
40
100
AcDbEntity
  8
GRIPPER_1
  6
Continuous
 62
     7
100
AcDbLine
 10
265.7750934938
 20
123.0396149946
 30
0.0
 11
265.7750934938
 21
126.0396149946
 31
0.0
  0
LINE
  5
FC
330
40
100
AcDbEntity
  8
GRIPPER_1
  6
Continuous
 62
     7
100
AcDbLine
 10
265.7750934938
 20
126.0396149946
 30
0.0
 11
258.7750934938
 21
126.0396149946
 31
0.0
  0
CIRCLE
  5
FD
330
40
100
AcDbEntity
  8
GRIPPER_1
  6
Continuous
 62
     7
100
AcDbCircle
 10
251.7750934938
 20
137.0396149946
 30
0.0
 40
1.55
  0
LINE
  5
FF
330
40
100
AcDbEntity
  8
MAIN_ARM_3
  6
Continuous
 62
     7
100
AcDbLine
 10
260.7750934938
 20
57.0396149946
 30
0.0
 11
230.0750934938
 21
57.0396149946
 31
0.0
  0
LINE
  5
100
330
40
100
AcDbEntity
  8
MAIN_ARM_3
  6
Continuous
 62
     7
100
AcDbLine
 10
260.7750934938
 20
117.0396149946
 30
0.0
 11
260.7750934938
 21
110.0396149946
 31
0.0
  0
LINE
  5
101
330
40
100
AcDbEntity
  8
MAIN_ARM_3
  6
Continuous
 62
     7
100
AcDbLine
 10
230.0750934938
 20
117.0396149946
 30
0.0
 11
260.7750934938
 21
117.0396149946
 31
0.0
  0
LINE
  5
102
330
40
100
AcDbEntity
  8
MAIN_ARM_3
  6
Continuous
 62
     7
100
AcDbLine
 10
230.0750934938
 20
57.0396149946
 30
0.0
 11
230.0750934938
 21
65.0396149946
 31
0.0
  0
LINE
  5
103
330
40
100
AcDbEntity
  8
MAIN_ARM_3
  6
Continuous
 62
     7
100
AcDbLine
 10
260.7750934938
 20
63.0396149946
 30
0.0
 11
260.7750934938
 21
57.0396149946
 31
0.0
  0
LINE
  5
104
330
40
100
AcDbEntity
  8
MAIN_ARM_3
  6
Continuous
 62
     7
100
AcDbLine
 10
260.7750934938
 20
110.0396149946
 30
0.0
 11
257.7750934938
 21
110.0396149946
 31
0.0
  0
LINE
  5
105
330
40
100
AcDbEntity
  8
MAIN_ARM_3
  6
Continuous
 62
     7
100
AcDbLine
 10
257.7750934938
 20
110.0396149946
 30
0.0
 11
257.7750934938
 21
96.441639744
 31
0.0
  0
LINE
  5
106
330
40
100
AcDbEntity
  8
MAIN_ARM_3
  6
Continuous
 62
     7
100
AcDbLine
 10
257.7750934938
 20
63.0396149946
 30
0.0
 11
260.7750934938
 21
63.0396149946
 31
0.0
  0
LINE
  5
107
330
40
100
AcDbEntity
  8
MAIN_ARM_3
  6
Continuous
 62
     7
100
AcDbLine
 10
230.0750934938
 20
111.0396149946
 30
0.0
 11
230.0750934938
 21
117.0396149946
 31
0.0
  0
LINE
  5
108
330
40
100
AcDbEntity
  8
MAIN_ARM_3
  6
Continuous
 62
     7
100
AcDbLine
 10
230.0750934938
 20
111.0396149946
 30
0.0
 11
233.0750934938
 21
111.0396149946
 31
0.0
  0
LINE
  5
109
330
40
100
AcDbEntity
  8
MAIN_ARM_3
  6
Continuous
 62
     7
100
AcDbLine
 10
233.0750934938
 20
111.0396149946
 30
0.0
 11
233.0750934938
 21
80.5396149946
 31
0.0
  0
LINE
  5
10A
330
40
100
AcDbEntity
  8
MAIN_ARM_3
  6
Continuous
 62
     7
100
AcDbLine
 10
233.0750934938
 20
65.0396149946
 30
0.0
 11
230.0750934938
 21
65.0396149946
 31
0.0
  0
LINE
  5
10B
330
40
100
AcDbEntity
  8
MAIN_ARM_3
  6
Continuous
 62
     7
100
AcDbLine
 10
257.7750934938
 20
93.6375902451
 30
0.0
 11
257.7750934938
 21
63.0396149946
 31
0.0
  0
LINE
  5
10C
330
40
100
AcDbEntity
  8
MAIN_ARM_3
  6
Continuous
 62
     7
100
AcDbLine
 10
253.7750934938
 20
93.6375902451
 30
0.0
 11
253.7750934938
 21
92.3875902451
 31
0.0
  0
LINE
  5
10D
330
40
100
AcDbEntity
  8
MAIN_ARM_3
  6
Continuous
 62
     7
100
AcDbLine
 10
253.7750934938
 20
92.3875902451
 30
0.0
 11
250.9710439948
 21
92.3875902451
 31
0.0
  0
LINE
  5
10E
330
40
100
AcDbEntity
  8
MAIN_ARM_3
  6
Continuous
 62
     7
100
AcDbLine
 10
250.9710439948
 20
92.3875902451
 30
0.0
 11
250.9710439948
 21
93.6375902451
 31
0.0
  0
LINE
  5
10F
330
40
100
AcDbEntity
  8
MAIN_ARM_3
  6
Continuous
 62
     7
100
AcDbLine
 10
250.9710439948
 20
93.6375902451
 30
0.0
 11
246.9710439948
 21
93.6375902451
 31
0.0
  0
LINE
  5
110
330
40
100
AcDbEntity
  8
MAIN_ARM_3
  6
Continuous
 62
     7
100
AcDbLine
 10
246.9710439948
 20
93.6375902451
 30
0.0
 11
246.9710439948
 21
96.441639744
 31
0.0
  0
LINE
  5
111
330
40
100
AcDbEntity
  8
MAIN_ARM_3
  6
Continuous
 62
     7
100
AcDbLine
 10
246.9710439948
 20
96.441639744
 30
0.0
 11
250.9710439948
 21
96.441639744
 31
0.0
  0
LINE
  5
112
330
40
100
AcDbEntity
  8
MAIN_ARM_3
  6
Continuous
 62
     7
100
AcDbLine
 10
250.9710439948
 20
96.441639744
 30
0.0
 11
250.9710439948
 21
97.691639744
 31
0.0
  0
LINE
  5
113
330
40
100
AcDbEntity
  8
MAIN_ARM_3
  6
Continuous
 62
     7
100
AcDbLine
 10
250.9710439948
 20
97.691639744
 30
0.0
 11
253.7750934938
 21
97.691639744
 31
0.0
  0
LINE
  5
114
330
40
100
AcDbEntity
  8
MAIN_ARM_3
  6
Continuous
 62
     7
100
AcDbLine
 10
253.7750934938
 20
97.691639744
 30
0.0
 11
253.7750934938
 21
96.441639744
 31
0.0
  0
LINE
  5
115
330
40
100
AcDbEntity
  8
MAIN_ARM_3
  6
Continuous
 62
     7
100
AcDbLine
 10
257.7750934938
 20
93.6375902451
 30
0.0
 11
253.7750934938
 21
93.6375902451
 31
0.0
  0
LINE
  5
116
330
40
100
AcDbEntity
  8
MAIN_ARM_3
  6
Continuous
 62
     7
100
AcDbLine
 10
253.7750934938
 20
96.441639744
 30
0.0
 11
257.7750934938
 21
96.441639744
 31
0.0
  0
LINE
  5
117
330
40
100
AcDbEntity
  8
MAIN_ARM_3
  6
Continuous
 62
     7
100
AcDbLine
 10
233.0750934938
 20
77.5396149946
 30
0.0
 11
233.0750934938
 21
65.0396149946
 31
0.0
  0
LINE
  5
118
330
40
100
AcDbEntity
  8
MAIN_ARM_3
  6
Continuous
 62
     7
100
AcDbLine
 10
237.0750934938
 20
80.5396149946
 30
0.0
 11
237.0750934938
 21
81.7896149946
 31
0.0
  0
LINE
  5
119
330
40
100
AcDbEntity
  8
MAIN_ARM_3
  6
Continuous
 62
     7
100
AcDbLine
 10
237.0750934938
 20
81.7896149946
 30
0.0
 11
240.0750934938
 21
81.7896149946
 31
0.0
  0
LINE
  5
11A
330
40
100
AcDbEntity
  8
MAIN_ARM_3
  6
Continuous
 62
     7
100
AcDbLine
 10
240.0750934938
 20
81.7896149946
 30
0.0
 11
240.0750934938
 21
80.5396149946
 31
0.0
  0
LINE
  5
11B
330
40
100
AcDbEntity
  8
MAIN_ARM_3
  6
Continuous
 62
     7
100
AcDbLine
 10
240.0750934938
 20
80.5396149946
 30
0.0
 11
244.0750934938
 21
80.5396149946
 31
0.0
  0
LINE
  5
11C
330
40
100
AcDbEntity
  8
MAIN_ARM_3
  6
Continuous
 62
     7
100
AcDbLine
 10
244.0750934938
 20
80.5396149946
 30
0.0
 11
244.0750934938
 21
77.5396149946
 31
0.0
  0
LINE
  5
11D
330
40
100
AcDbEntity
  8
MAIN_ARM_3
  6
Continuous
 62
     7
100
AcDbLine
 10
244.0750934938
 20
77.5396149946
 30
0.0
 11
240.0750934938
 21
77.5396149946
 31
0.0
  0
LINE
  5
11E
330
40
100
AcDbEntity
  8
MAIN_ARM_3
  6
Continuous
 62
     7
100
AcDbLine
 10
240.0750934938
 20
77.5396149946
 30
0.0
 11
240.0750934938
 21
76.2896149946
 31
0.0
  0
LINE
  5
11F
330
40
100
AcDbEntity
  8
MAIN_ARM_3
  6
Continuous
 62
     7
100
AcDbLine
 10
240.0750934938
 20
76.2896149946
 30
0.0
 11
237.0750934938
 21
76.2896149946
 31
0.0
  0
LINE
  5
120
330
40
100
AcDbEntity
  8
MAIN_ARM_3
  6
Continuous
 62
     7
100
AcDbLine
 10
237.0750934938
 20
76.2896149946
 30
0.0
 11
237.0750934938
 21
77.5396149946
 31
0.0
  0
LINE
  5
121
330
40
100
AcDbEntity
  8
MAIN_ARM_3
  6
Continuous
 62
     7
100
AcDbLine
 10
237.0750934938
 20
77.5396149946
 30
0.0
 11
233.0750934938
 21
77.5396149946
 31
0.0
  0
LINE
  5
122
330
40
100
AcDbEntity
  8
MAIN_ARM_3
  6
Continuous
 62
     7
100
AcDbLine
 10
233.0750934938
 20
80.5396149946
 30
0.0
 11
237.0750934938
 21
80.5396149946
 31
0.0
  0
LINE
  5
124
330
40
100
AcDbEntity
  8
GRIPPER_5_
  6
Continuous
 62
     7
100
AcDbLine
 10
155.3750934938
 20
180.5051510467
 30
0.0
 11
155.3750934938
 21
183.9051510467
 31
0.0
  0
LINE
  5
125
330
40
100
AcDbEntity
  8
GRIPPER_5_
  6
Continuous
 62
     7
100
AcDbLine
 10
155.3750934938
 20
192.3051510467
 30
0.0
 11
178.3750934938
 21
192.3051510467
 31
0.0
  0
LINE
  5
126
330
40
100
AcDbEntity
  8
GRIPPER_5_
  6
Continuous
 62
     7
100
AcDbLine
 10
178.3750934938
 20
192.3051510467
 30
0.0
 11
178.3750934938
 21
180.5051510467
 31
0.0
  0
LINE
  5
127
330
40
100
AcDbEntity
  8
GRIPPER_5_
  6
Continuous
 62
     7
100
AcDbLine
 10
178.3750934938
 20
180.5051510467
 30
0.0
 11
155.3750934938
 21
180.5051510467
 31
0.0
  0
CIRCLE
  5
128
330
40
100
AcDbEntity
  8
GRIPPER_5_
  6
Continuous
 62
     7
100
AcDbCircle
 10
166.8750934938
 20
195.9051510467
 30
0.0
 40
1.5
  0
CIRCLE
  5
129
330
40
100
AcDbEntity
  8
GRIPPER_5_
  6
Continuous
 62
     7
100
AcDbCircle
 10
166.8750934938
 20
176.9051510467
 30
0.0
 40
1.5
  0
LINE
  5
12A
330
40
100
AcDbEntity
  8
GRIPPER_5_
  6
Continuous
 62
     7
100
AcDbLine
 10
182.8750934938
 20
191.8051510467
 30
0.0
 11
182.8750934938
 21
181.0051510467
 31
0.0
  0
ARC
  5
12B
330
40
100
AcDbEntity
  8
GRIPPER_5_
  6
Continuous
 62
     7
100
AcDbCircle
 10
179.8750934938
 20
191.8051510467
 30
0.0
 40
3.000000000000003
100
AcDbArc
 50
0.0
 51
90.0
  0
LINE
  5
12C
330
40
100
AcDbEntity
  8
GRIPPER_5_
  6
Continuous
 62
     7
100
AcDbLine
 10
172.5663148039
 20
194.8051510467
 30
0.0
 11
179.8750934938
 21
194.8051510467
 31
0.0
  0
ARC
  5
12D
330
40
100
AcDbEntity
  8
GRIPPER_5_
  6
Continuous
 62
     7
100
AcDbCircle
 10
166.8750934938
 20
195.9051510467
 30
0.0
 40
3.000000000000011
100
AcDbArc
 50
18.4614582968
 51
161.5385417032
  0
ARC
  5
12E
330
40
100
AcDbEntity
  8
GRIPPER_5_
  6
Continuous
 62
     7
100
AcDbCircle
 10
172.5663148039
 20
197.8051510467
 30
0.0
 40
2.999999999999975
100
AcDbArc
 50
198.4614582968
 51
270.0
  0
LINE
  5
12F
330
40
100
AcDbEntity
  8
GRIPPER_5_
  6
Continuous
 62
     7
100
AcDbLine
 10
179.8750934938
 20
178.0051510467
 30
0.0
 11
172.8750934938
 21
178.0051510467
 31
0.0
  0
ARC
  5
130
330
40
100
AcDbEntity
  8
GRIPPER_5_
  6
Continuous
 62
     7
100
AcDbCircle
 10
179.8750934938
 20
181.0051510467
 30
0.0
 40
3.000000000000003
100
AcDbArc
 50
270.0
 51
0.0
  0
LINE
  5
131
330
40
100
AcDbEntity
  8
GRIPPER_5_
  6
Continuous
 62
     7
100
AcDbLine
 10
153.8750934938
 20
178.0051510467
 30
0.0
 11
160.8750934938
 21
178.0051510467
 31
0.0
  0
ARC
  5
132
330
40
100
AcDbEntity
  8
GRIPPER_5_
  6
Continuous
 62
     7
100
AcDbCircle
 10
153.8750934938
 20
181.0051510467
 30
0.0
 40
3.000000000000003
100
AcDbArc
 50
180.0
 51
270.0
  0
ARC
  5
133
330
40
100
AcDbEntity
  8
GRIPPER_5_
  6
Continuous
 62
     7
100
AcDbCircle
 10
172.8750934938
 20
175.0051510467
 30
0.0
 40
3.000000000000011
100
AcDbArc
 50
90.0
 51
161.5385417032
  0
ARC
  5
134
330
40
100
AcDbEntity
  8
GRIPPER_5_
  6
Continuous
 62
     7
100
AcDbCircle
 10
167.1838721837
 20
176.9051510467
 30
0.0
 40
3.000000000000003
100
AcDbArc
 50
270.0
 51
341.5385417032
  0
LINE
  5
135
330
40
100
AcDbEntity
  8
GRIPPER_5_
  6
Continuous
 62
     7
100
AcDbLine
 10
150.8750934938
 20
191.8051510467
 30
0.0
 11
150.8750934938
 21
181.0051510467
 31
0.0
  0
ARC
  5
136
330
40
100
AcDbEntity
  8
GRIPPER_5_
  6
Continuous
 62
     7
100
AcDbCircle
 10
153.8750934938
 20
191.8051510467
 30
0.0
 40
3.000000000000003
100
AcDbArc
 50
90.0
 51
180.0
  0
ARC
  5
137
330
40
100
AcDbEntity
  8
GRIPPER_5_
  6
Continuous
 62
     7
100
AcDbCircle
 10
160.8750934938
 20
175.0051510467
 30
0.0
 40
2.999999999999989
100
AcDbArc
 50
18.4614582968
 51
90.0
  0
LINE
  5
138
330
40
100
AcDbEntity
  8
GRIPPER_5_
  6
Continuous
 62
     7
100
AcDbLine
 10
161.1838721837
 20
194.8051510467
 30
0.0
 11
153.8750934938
 21
194.8051510467
 31
0.0
  0
ARC
  5
139
330
40
100
AcDbEntity
  8
GRIPPER_5_
  6
Continuous
 62
     7
100
AcDbCircle
 10
161.1838721837
 20
197.8051510467
 30
0.0
 40
2.999999999999989
100
AcDbArc
 50
270.0
 51
341.5385417032
  0
LINE
  5
13A
330
40
100
AcDbEntity
  8
GRIPPER_5_
  6
Continuous
 62
     7
100
AcDbLine
 10
166.5663148039
 20
173.9051510467
 30
0.0
 11
167.1838721837
 21
173.9051510467
 31
0.0
  0
ARC
  5
13B
330
40
100
AcDbEntity
  8
GRIPPER_5_
  6
Continuous
 62
     7
100
AcDbCircle
 10
166.5663148039
 20
176.9051510467
 30
0.0
 40
3.000000000000006
100
AcDbArc
 50
198.4614582968
 51
270.0
  0
LINE
  5
13C
330
40
100
AcDbEntity
  8
GRIPPER_5_
  6
Continuous
 62
     7
100
AcDbLine
 10
155.3750934938
 20
188.9051510467
 30
0.0
 11
155.3750934938
 21
192.3051510467
 31
0.0
  0
LINE
  5
13D
330
40
100
AcDbEntity
  8
GRIPPER_5_
  6
Continuous
 62
     7
100
AcDbLine
 10
155.3750934938
 20
183.9051510467
 30
0.0
 11
153.3750934938
 21
183.9051510467
 31
0.0
  0
LINE
  5
13E
330
40
100
AcDbEntity
  8
GRIPPER_5_
  6
Continuous
 62
     7
100
AcDbLine
 10
153.3750934938
 20
183.9051510467
 30
0.0
 11
153.3750934938
 21
188.9051510467
 31
0.0
  0
LINE
  5
13F
330
40
100
AcDbEntity
  8
GRIPPER_5_
  6
Continuous
 62
     7
100
AcDbLine
 10
153.3750934938
 20
188.9051510467
 30
0.0
 11
155.3750934938
 21
188.9051510467
 31
0.0
  0
LINE
  5
141
330
40
100
AcDbEntity
  8
BASE_2
  6
Continuous
 62
     7
100
AcDbLine
 10
314.1750934938
 20
57.0396149946
 30
0.0
 11
261.7750934938
 21
57.0396149946
 31
0.0
  0
LINE
  5
142
330
40
100
AcDbEntity
  8
BASE_2
  6
Continuous
 62
     7
100
AcDbLine
 10
314.1750934938
 20
105.0396149946
 30
0.0
 11
314.1750934938
 21
95.0396149946
 31
0.0
  0
LINE
  5
143
330
40
100
AcDbEntity
  8
BASE_2
  6
Continuous
 62
     7
100
AcDbLine
 10
261.7750934938
 20
105.0396149946
 30
0.0
 11
314.1750934938
 21
105.0396149946
 31
0.0
  0
LINE
  5
144
330
40
100
AcDbEntity
  8
BASE_2
  6
Continuous
 62
     7
100
AcDbLine
 10
261.7750934938
 20
57.0396149946
 30
0.0
 11
261.7750934938
 21
67.0396149946
 31
0.0
  0
LINE
  5
145
330
40
100
AcDbEntity
  8
BASE_2
  6
Continuous
 62
     7
100
AcDbLine
 10
314.1750934938
 20
67.0396149946
 30
0.0
 11
314.1750934938
 21
57.0396149946
 31
0.0
  0
LINE
  5
146
330
40
100
AcDbEntity
  8
BASE_2
  6
Continuous
 62
     7
100
AcDbLine
 10
314.1750934938
 20
95.0396149946
 30
0.0
 11
311.1750934938
 21
95.0396149946
 31
0.0
  0
LINE
  5
147
330
40
100
AcDbEntity
  8
BASE_2
  6
Continuous
 62
     7
100
AcDbLine
 10
311.1750934938
 20
95.0396149946
 30
0.0
 11
311.1750934938
 21
82.5396149946
 31
0.0
  0
LINE
  5
148
330
40
100
AcDbEntity
  8
BASE_2
  6
Continuous
 62
     7
100
AcDbLine
 10
311.1750934938
 20
67.0396149946
 30
0.0
 11
314.1750934938
 21
67.0396149946
 31
0.0
  0
LINE
  5
149
330
40
100
AcDbEntity
  8
BASE_2
  6
Continuous
 62
     7
100
AcDbLine
 10
261.7750934938
 20
95.0396149946
 30
0.0
 11
261.7750934938
 21
105.0396149946
 31
0.0
  0
LINE
  5
14A
330
40
100
AcDbEntity
  8
BASE_2
  6
Continuous
 62
     7
100
AcDbLine
 10
264.7750934938
 20
95.0396149946
 30
0.0
 11
261.7750934938
 21
95.0396149946
 31
0.0
  0
LINE
  5
14B
330
40
100
AcDbEntity
  8
BASE_2
  6
Continuous
 62
     7
100
AcDbLine
 10
261.7750934938
 20
67.0396149946
 30
0.0
 11
264.7750934938
 21
67.0396149946
 31
0.0
  0
LINE
  5
14C
330
40
100
AcDbEntity
  8
BASE_2
  6
Continuous
 62
     7
100
AcDbLine
 10
264.7750934938
 20
67.0396149946
 30
0.0
 11
264.7750934938
 21
79.5396149946
 31
0.0
  0
CIRCLE
  5
14D
330
40
100
AcDbEntity
  8
BASE_2
  6
Continuous
 62
     7
100
AcDbCircle
 10
280.9750934938
 20
84.5396149946
 30
0.0
 40
1.0
  0
CIRCLE
  5
14E
330
40
100
AcDbEntity
  8
BASE_2
  6
Continuous
 62
     7
100
AcDbCircle
 10
287.9750934938
 20
95.5396149946
 30
0.0
 40
1.0
  0
CIRCLE
  5
14F
330
40
100
AcDbEntity
  8
BASE_2
  6
Continuous
 62
     7
100
AcDbCircle
 10
294.9750934938
 20
84.5396149946
 30
0.0
 40
1.0
  0
CIRCLE
  5
150
330
40
100
AcDbEntity
  8
BASE_2
  6
Continuous
 62
     7
100
AcDbCircle
 10
287.9750934938
 20
73.5396149946
 30
0.0
 40
1.0
  0
CIRCLE
  5
151
330
40
100
AcDbEntity
  8
BASE_2
  6
Continuous
 62
     7
100
AcDbCircle
 10
287.9750934938
 20
84.5396149946
 30
0.0
 40
3.75
  0
CIRCLE
  5
152
330
40
100
AcDbEntity
  8
BASE_2
  6
Continuous
 62
     7
100
AcDbCircle
 10
299.9013316141
 20
96.6542691083
 30
0.0
 40
1.300000000000002
  0
CIRCLE
  5
153
330
40
100
AcDbEntity
  8
BASE_2
  6
Continuous
 62
     7
100
AcDbCircle
 10
299.6775495514
 20
64.7392987794
 30
0.0
 40
1.300000000000002
  0
CIRCLE
  5
154
330
40
100
AcDbEntity
  8
BASE_2
  6
Continuous
 62
     7
100
AcDbCircle
 10
276.2726374362
 20
64.7392987794
 30
0.0
 40
1.299999999999999
  0
CIRCLE
  5
155
330
40
100
AcDbEntity
  8
BASE_2
  6
Continuous
 62
     7
100
AcDbCircle
 10
276.0488553735
 20
96.6542691083
 30
0.0
 40
1.300000000000001
  0
LINE
  5
156
330
40
100
AcDbEntity
  8
BASE_2
  6
Continuous
 62
     7
100
AcDbLine
 10
311.1750934938
 20
79.5396149946
 30
0.0
 11
311.1750934938
 21
67.0396149946
 31
0.0
  0
LINE
  5
157
330
40
100
AcDbEntity
  8
BASE_2
  6
Continuous
 62
     7
100
AcDbLine
 10
307.1750934938
 20
79.5396149946
 30
0.0
 11
311.1750934938
 21
79.5396149946
 31
0.0
  0
LINE
  5
158
330
40
100
AcDbEntity
  8
BASE_2
  6
Continuous
 62
     7
100
AcDbLine
 10
311.1750934938
 20
82.5396149946
 30
0.0
 11
307.1750934938
 21
82.5396149946
 31
0.0
  0
LINE
  5
159
330
40
100
AcDbEntity
  8
BASE_2
  6
Continuous
 62
     7
100
AcDbLine
 10
307.1750934938
 20
82.5396149946
 30
0.0
 11
307.1750934938
 21
83.7896149946
 31
0.0
  0
LINE
  5
15A
330
40
100
AcDbEntity
  8
BASE_2
  6
Continuous
 62
     7
100
AcDbLine
 10
307.1750934938
 20
83.7896149946
 30
0.0
 11
304.1750934938
 21
83.7896149946
 31
0.0
  0
LINE
  5
15B
330
40
100
AcDbEntity
  8
BASE_2
  6
Continuous
 62
     7
100
AcDbLine
 10
304.1750934938
 20
83.7896149946
 30
0.0
 11
304.1750934938
 21
82.5396149946
 31
0.0
  0
LINE
  5
15C
330
40
100
AcDbEntity
  8
BASE_2
  6
Continuous
 62
     7
100
AcDbLine
 10
304.1750934938
 20
82.5396149946
 30
0.0
 11
300.1750934938
 21
82.5396149946
 31
0.0
  0
LINE
  5
15D
330
40
100
AcDbEntity
  8
BASE_2
  6
Continuous
 62
     7
100
AcDbLine
 10
300.1750934938
 20
82.5396149946
 30
0.0
 11
300.1750934938
 21
79.5396149946
 31
0.0
  0
LINE
  5
15E
330
40
100
AcDbEntity
  8
BASE_2
  6
Continuous
 62
     7
100
AcDbLine
 10
300.1750934938
 20
79.5396149946
 30
0.0
 11
304.1750934938
 21
79.5396149946
 31
0.0
  0
LINE
  5
15F
330
40
100
AcDbEntity
  8
BASE_2
  6
Continuous
 62
     7
100
AcDbLine
 10
304.1750934938
 20
79.5396149946
 30
0.0
 11
304.1750934938
 21
78.2896149946
 31
0.0
  0
LINE
  5
160
330
40
100
AcDbEntity
  8
BASE_2
  6
Continuous
 62
     7
100
AcDbLine
 10
304.1750934938
 20
78.2896149946
 30
0.0
 11
307.1750934938
 21
78.2896149946
 31
0.0
  0
LINE
  5
161
330
40
100
AcDbEntity
  8
BASE_2
  6
Continuous
 62
     7
100
AcDbLine
 10
307.1750934938
 20
78.2896149946
 30
0.0
 11
307.1750934938
 21
79.5396149946
 31
0.0
  0
LINE
  5
162
330
40
100
AcDbEntity
  8
BASE_2
  6
Continuous
 62
     7
100
AcDbLine
 10
264.7750934938
 20
82.5396149946
 30
0.0
 11
264.7750934938
 21
95.0396149946
 31
0.0
  0
LINE
  5
163
330
40
100
AcDbEntity
  8
BASE_2
  6
Continuous
 62
     7
100
AcDbLine
 10
268.7750934938
 20
82.5396149946
 30
0.0
 11
268.7750934938
 21
83.7896149946
 31
0.0
  0
LINE
  5
164
330
40
100
AcDbEntity
  8
BASE_2
  6
Continuous
 62
     7
100
AcDbLine
 10
268.7750934938
 20
83.7896149946
 30
0.0
 11
271.7750934938
 21
83.7896149946
 31
0.0
  0
LINE
  5
165
330
40
100
AcDbEntity
  8
BASE_2
  6
Continuous
 62
     7
100
AcDbLine
 10
271.7750934938
 20
83.7896149946
 30
0.0
 11
271.7750934938
 21
82.5396149946
 31
0.0
  0
LINE
  5
166
330
40
100
AcDbEntity
  8
BASE_2
  6
Continuous
 62
     7
100
AcDbLine
 10
271.7750934938
 20
82.5396149946
 30
0.0
 11
275.7750934938
 21
82.5396149946
 31
0.0
  0
LINE
  5
167
330
40
100
AcDbEntity
  8
BASE_2
  6
Continuous
 62
     7
100
AcDbLine
 10
275.7750934938
 20
82.5396149946
 30
0.0
 11
275.7750934938
 21
79.5396149946
 31
0.0
  0
LINE
  5
168
330
40
100
AcDbEntity
  8
BASE_2
  6
Continuous
 62
     7
100
AcDbLine
 10
275.7750934938
 20
79.5396149946
 30
0.0
 11
271.7750934938
 21
79.5396149946
 31
0.0
  0
LINE
  5
169
330
40
100
AcDbEntity
  8
BASE_2
  6
Continuous
 62
     7
100
AcDbLine
 10
271.7750934938
 20
79.5396149946
 30
0.0
 11
271.7750934938
 21
78.2896149946
 31
0.0
  0
LINE
  5
16A
330
40
100
AcDbEntity
  8
BASE_2
  6
Continuous
 62
     7
100
AcDbLine
 10
271.7750934938
 20
78.2896149946
 30
0.0
 11
268.7750934938
 21
78.2896149946
 31
0.0
  0
LINE
  5
16B
330
40
100
AcDbEntity
  8
BASE_2
  6
Continuous
 62
     7
100
AcDbLine
 10
268.7750934938
 20
78.2896149946
 30
0.0
 11
268.7750934938
 21
79.5396149946
 31
0.0
  0
LINE
  5
16C
330
40
100
AcDbEntity
  8
BASE_2
  6
Continuous
 62
     7
100
AcDbLine
 10
268.7750934938
 20
79.5396149946
 30
0.0
 11
264.7750934938
 21
79.5396149946
 31
0.0
  0
LINE
  5
16D
330
40
100
AcDbEntity
  8
BASE_2
  6
Continuous
 62
     7
100
AcDbLine
 10
264.7750934938
 20
82.5396149946
 30
0.0
 11
268.7750934938
 21
82.5396149946
 31
0.0
  0
CIRCLE
  5
16F
330
40
100
AcDbEntity
  8
SERVO_ARM
  6
Continuous
 62
     7
100
AcDbCircle
 10
66.8750934938
 20
160.0396149946
 30
0.0
 40
1.300000000000002
  0
CIRCLE
  5
170
330
40
100
AcDbEntity
  8
SERVO_ARM
  6
Continuous
 62
     7
100
AcDbCircle
 10
101.8750934938
 20
160.0396149946
 30
0.0
 40
1.299999999999996
  0
ARC
  5
171
330
40
100
AcDbEntity
  8
SERVO_ARM
  6
Continuous
 62
     7
100
AcDbCircle
 10
66.8750934938
 20
160.0396149946
 30
0.0
 40
6.000000000000002
100
AcDbArc
 50
61.0449756281
 51
298.9550243719
  0
ARC
  5
172
330
40
100
AcDbEntity
  8
SERVO_ARM
  6
Continuous
 62
     7
100
AcDbCircle
 10
74.6210601862
 20
146.0396149946
 30
0.0
 40
9.999999999999998
100
AcDbArc
 50
90.0
 51
118.9550243719
  0
ARC
  5
173
330
40
100
AcDbEntity
  8
SERVO_ARM
  6
Continuous
 62
     7
100
AcDbCircle
 10
101.8750934938
 20
160.0396149946
 30
0.0
 40
5.999999999999996
100
AcDbArc
 50
241.0449756281
 51
118.9550243719
  0
ARC
  5
174
330
40
100
AcDbEntity
  8
SERVO_ARM
  6
Continuous
 62
     7
100
AcDbCircle
 10
94.1291268014
 20
174.0396149946
 30
0.0
 40
10.0
100
AcDbArc
 50
270.0
 51
298.9550243719
  0
LINE
  5
175
330
40
100
AcDbEntity
  8
SERVO_ARM
  6
Continuous
 62
     7
100
AcDbLine
 10
94.1291268014
 20
156.0396149946
 30
0.0
 11
74.6210601862
 21
156.0396149946
 31
0.0
  0
ARC
  5
176
330
40
100
AcDbEntity
  8
SERVO_ARM
  6
Continuous
 62
     7
100
AcDbCircle
 10
94.1291268014
 20
146.0396149946
 30
0.0
 40
10.00000000000001
100
AcDbArc
 50
61.0449756281
 51
90.0
  0
LINE
  5
177
330
40
100
AcDbEntity
  8
SERVO_ARM
  6
Continuous
 62
     7
100
AcDbLine
 10
74.6210601862
 20
164.0396149946
 30
0.0
 11
94.1291268014
 21
164.0396149946
 31
0.0
  0
ARC
  5
178
330
40
100
AcDbEntity
  8
SERVO_ARM
  6
Continuous
 62
     7
100
AcDbCircle
 10
74.6210601862
 20
174.0396149946
 30
0.0
 40
10.00000000000001
100
AcDbArc
 50
241.0449756281
 51
270.0
  0
CIRCLE
  5
179
330
40
100
AcDbEntity
  8
SERVO_ARM
  6
Continuous
 62
     7
100
AcDbCircle
 10
76.8750934938
 20
160.0396149946
 30
0.0
 40
1.0
  0
CIRCLE
  5
17A
330
40
100
AcDbEntity
  8
SERVO_ARM
  6
Continuous
 62
     7
100
AcDbCircle
 10
81.8750934938
 20
160.0396149946
 30
0.0
 40
1.0
  0
CIRCLE
  5
17C
330
40
100
AcDbEntity
  8
TRIANGLE
  6
Continuous
 62
     7
100
AcDbCircle
 10
182.0882969294
 20
206.826411559
 30
0.0
 40
1.55
  0
CIRCLE
  5
17D
330
40
100
AcDbEntity
  8
TRIANGLE
  6
Continuous
 62
     7
100
AcDbCircle
 10
203.301500365
 20
228.0396149945
 30
0.0
 40
1.299999999999999
  0
CIRCLE
  5
17E
330
40
100
AcDbEntity
  8
TRIANGLE
  6
Continuous
 62
     7
100
AcDbCircle
 10
160.8750934938
 20
228.0396149945
 30
0.0
 40
1.299999999999999
  0
LINE
  5
17F
330
40
100
AcDbEntity
  8
TRIANGLE
  6
Continuous
 62
     7
100
AcDbLine
 10
177.8456562423
 20
202.5837708718
 30
0.0
 11
156.6324528067
 21
223.7969743074
 31
0.0
  0
ARC
  5
180
330
40
100
AcDbEntity
  8
TRIANGLE
  6
Continuous
 62
     7
100
AcDbCircle
 10
182.0882969294
 20
206.826411559
 30
0.0
 40
6.000000000000009
100
AcDbArc
 50
225.0
 51
315.0
  0
LINE
  5
181
330
40
100
AcDbEntity
  8
TRIANGLE
  6
Continuous
 62
     7
100
AcDbLine
 10
207.5441410521
 20
223.7969743074
 30
0.0
 11
186.3309376165
 21
202.5837708718
 31
0.0
  0
ARC
  5
182
330
40
100
AcDbEntity
  8
TRIANGLE
  6
Continuous
 62
     7
100
AcDbCircle
 10
203.301500365
 20
228.0396149945
 30
0.0
 40
6.000000000000005
100
AcDbArc
 50
315.0
 51
90.0
  0
LINE
  5
183
330
40
100
AcDbEntity
  8
TRIANGLE
  6
Continuous
 62
     7
100
AcDbLine
 10
160.8750934938
 20
234.0396149945
 30
0.0
 11
203.301500365
 21
234.0396149945
 31
0.0
  0
ARC
  5
184
330
40
100
AcDbEntity
  8
TRIANGLE
  6
Continuous
 62
     7
100
AcDbCircle
 10
160.8750934938
 20
228.0396149945
 30
0.0
 40
6.000000000000009
100
AcDbArc
 50
90.0
 51
225.0
  0
LINE
  5
186
330
40
100
AcDbEntity
  8
UPRIGHT_ARM_3
  6
Continuous
 62
     7
100
AcDbLine
 10
351.8750934938
 20
81.189794057
 30
0.0
 11
334.1750934938
 21
81.189794057
 31
0.0
  0
LINE
  5
187
330
40
100
AcDbEntity
  8
UPRIGHT_ARM_3
  6
Continuous
 62
     7
100
AcDbLine
 10
351.8750934938
 20
141.189794057
 30
0.0
 11
351.8750934938
 21
136.189794057
 31
0.0
  0
LINE
  5
188
330
40
100
AcDbEntity
  8
UPRIGHT_ARM_3
  6
Continuous
 62
     7
100
AcDbLine
 10
327.1750934938
 20
141.189794057
 30
0.0
 11
351.8750934938
 21
141.189794057
 31
0.0
  0
LINE
  5
189
330
40
100
AcDbEntity
  8
UPRIGHT_ARM_3
  6
Continuous
 62
     7
100
AcDbLine
 10
351.8750934938
 20
88.689794057
 30
0.0
 11
351.8750934938
 21
81.189794057
 31
0.0
  0
LINE
  5
18A
330
40
100
AcDbEntity
  8
UPRIGHT_ARM_3
  6
Continuous
 62
     7
100
AcDbLine
 10
351.8750934938
 20
136.189794057
 30
0.0
 11
348.8750934938
 21
136.189794057
 31
0.0
  0
LINE
  5
18B
330
40
100
AcDbEntity
  8
UPRIGHT_ARM_3
  6
Continuous
 62
     7
100
AcDbLine
 10
348.8750934938
 20
136.189794057
 30
0.0
 11
348.8750934938
 21
104.689794057
 31
0.0
  0
LINE
  5
18C
330
40
100
AcDbEntity
  8
UPRIGHT_ARM_3
  6
Continuous
 62
     7
100
AcDbLine
 10
348.8750934938
 20
88.689794057
 30
0.0
 11
351.8750934938
 21
88.689794057
 31
0.0
  0
LINE
  5
18D
330
40
100
AcDbEntity
  8
UPRIGHT_ARM_3
  6
Continuous
 62
     7
100
AcDbLine
 10
327.1750934938
 20
133.189794057
 30
0.0
 11
327.1750934938
 21
141.189794057
 31
0.0
  0
LINE
  5
18E
330
40
100
AcDbEntity
  8
UPRIGHT_ARM_3
  6
Continuous
 62
     7
100
AcDbLine
 10
327.1750934938
 20
133.189794057
 30
0.0
 11
330.1750934938
 21
133.189794057
 31
0.0
  0
LINE
  5
18F
330
40
100
AcDbEntity
  8
UPRIGHT_ARM_3
  6
Continuous
 62
     7
100
AcDbLine
 10
330.1750934938
 20
133.189794057
 30
0.0
 11
330.1750934938
 21
120.689794057
 31
0.0
  0
LINE
  5
190
330
40
100
AcDbEntity
  8
UPRIGHT_ARM_3
  6
Continuous
 62
     7
100
AcDbLine
 10
330.1750934938
 20
117.689794057
 30
0.0
 11
330.1750934938
 21
103.189794057
 31
0.0
  0
LINE
  5
191
330
40
100
AcDbEntity
  8
UPRIGHT_ARM_3
  6
Continuous
 62
     7
100
AcDbLine
 10
330.1750934938
 20
117.689794057
 30
0.0
 11
334.1750934938
 21
117.689794057
 31
0.0
  0
LINE
  5
192
330
40
100
AcDbEntity
  8
UPRIGHT_ARM_3
  6
Continuous
 62
     7
100
AcDbLine
 10
334.1750934938
 20
117.689794057
 30
0.0
 11
334.1750934938
 21
116.439794057
 31
0.0
  0
LINE
  5
193
330
40
100
AcDbEntity
  8
UPRIGHT_ARM_3
  6
Continuous
 62
     7
100
AcDbLine
 10
334.1750934938
 20
116.439794057
 30
0.0
 11
337.1750934938
 21
116.439794057
 31
0.0
  0
LINE
  5
194
330
40
100
AcDbEntity
  8
UPRIGHT_ARM_3
  6
Continuous
 62
     7
100
AcDbLine
 10
337.1750934938
 20
116.439794057
 30
0.0
 11
337.1750934938
 21
117.689794057
 31
0.0
  0
LINE
  5
195
330
40
100
AcDbEntity
  8
UPRIGHT_ARM_3
  6
Continuous
 62
     7
100
AcDbLine
 10
337.1750934938
 20
117.689794057
 30
0.0
 11
341.1750934938
 21
117.689794057
 31
0.0
  0
LINE
  5
196
330
40
100
AcDbEntity
  8
UPRIGHT_ARM_3
  6
Continuous
 62
     7
100
AcDbLine
 10
341.1750934938
 20
117.689794057
 30
0.0
 11
341.1750934938
 21
120.689794057
 31
0.0
  0
LINE
  5
197
330
40
100
AcDbEntity
  8
UPRIGHT_ARM_3
  6
Continuous
 62
     7
100
AcDbLine
 10
341.1750934938
 20
120.689794057
 30
0.0
 11
337.1750934938
 21
120.689794057
 31
0.0
  0
LINE
  5
198
330
40
100
AcDbEntity
  8
UPRIGHT_ARM_3
  6
Continuous
 62
     7
100
AcDbLine
 10
337.1750934938
 20
120.689794057
 30
0.0
 11
337.1750934938
 21
121.939794057
 31
0.0
  0
LINE
  5
199
330
40
100
AcDbEntity
  8
UPRIGHT_ARM_3
  6
Continuous
 62
     7
100
AcDbLine
 10
337.1750934938
 20
121.939794057
 30
0.0
 11
334.1750934938
 21
121.939794057
 31
0.0
  0
LINE
  5
19A
330
40
100
AcDbEntity
  8
UPRIGHT_ARM_3
  6
Continuous
 62
     7
100
AcDbLine
 10
334.1750934938
 20
121.939794057
 30
0.0
 11
334.1750934938
 21
120.689794057
 31
0.0
  0
LINE
  5
19B
330
40
100
AcDbEntity
  8
UPRIGHT_ARM_3
  6
Continuous
 62
     7
100
AcDbLine
 10
334.1750934938
 20
120.689794057
 30
0.0
 11
330.1750934938
 21
120.689794057
 31
0.0
  0
LINE
  5
19C
330
40
100
AcDbEntity
  8
UPRIGHT_ARM_3
  6
Continuous
 62
     7
100
AcDbLine
 10
348.8750934938
 20
101.689794057
 30
0.0
 11
348.8750934938
 21
88.689794057
 31
0.0
  0
LINE
  5
19D
330
40
100
AcDbEntity
  8
UPRIGHT_ARM_3
  6
Continuous
 62
     7
100
AcDbLine
 10
344.8750934938
 20
101.689794057
 30
0.0
 11
344.8750934938
 21
100.439794057
 31
0.0
  0
LINE
  5
19E
330
40
100
AcDbEntity
  8
UPRIGHT_ARM_3
  6
Continuous
 62
     7
100
AcDbLine
 10
344.8750934938
 20
100.439794057
 30
0.0
 11
341.8750934938
 21
100.439794057
 31
0.0
  0
LINE
  5
19F
330
40
100
AcDbEntity
  8
UPRIGHT_ARM_3
  6
Continuous
 62
     7
100
AcDbLine
 10
341.8750934938
 20
100.439794057
 30
0.0
 11
341.8750934938
 21
101.689794057
 31
0.0
  0
LINE
  5
1A0
330
40
100
AcDbEntity
  8
UPRIGHT_ARM_3
  6
Continuous
 62
     7
100
AcDbLine
 10
341.8750934938
 20
101.689794057
 30
0.0
 11
337.8750934938
 21
101.689794057
 31
0.0
  0
LINE
  5
1A1
330
40
100
AcDbEntity
  8
UPRIGHT_ARM_3
  6
Continuous
 62
     7
100
AcDbLine
 10
337.8750934938
 20
101.689794057
 30
0.0
 11
337.8750934938
 21
104.689794057
 31
0.0
  0
LINE
  5
1A2
330
40
100
AcDbEntity
  8
UPRIGHT_ARM_3
  6
Continuous
 62
     7
100
AcDbLine
 10
337.8750934938
 20
104.689794057
 30
0.0
 11
341.8750934938
 21
104.689794057
 31
0.0
  0
LINE
  5
1A3
330
40
100
AcDbEntity
  8
UPRIGHT_ARM_3
  6
Continuous
 62
     7
100
AcDbLine
 10
341.8750934938
 20
104.689794057
 30
0.0
 11
341.8750934938
 21
105.939794057
 31
0.0
  0
LINE
  5
1A4
330
40
100
AcDbEntity
  8
UPRIGHT_ARM_3
  6
Continuous
 62
     7
100
AcDbLine
 10
341.8750934938
 20
105.939794057
 30
0.0
 11
344.8750934938
 21
105.939794057
 31
0.0
  0
LINE
  5
1A5
330
40
100
AcDbEntity
  8
UPRIGHT_ARM_3
  6
Continuous
 62
     7
100
AcDbLine
 10
344.8750934938
 20
105.939794057
 30
0.0
 11
344.8750934938
 21
104.689794057
 31
0.0
  0
LINE
  5
1A6
330
40
100
AcDbEntity
  8
UPRIGHT_ARM_3
  6
Continuous
 62
     7
100
AcDbLine
 10
348.8750934938
 20
101.689794057
 30
0.0
 11
344.8750934938
 21
101.689794057
 31
0.0
  0
LINE
  5
1A7
330
40
100
AcDbEntity
  8
UPRIGHT_ARM_3
  6
Continuous
 62
     7
100
AcDbLine
 10
344.8750934938
 20
104.689794057
 30
0.0
 11
348.8750934938
 21
104.689794057
 31
0.0
  0
LINE
  5
1A8
330
40
100
AcDbEntity
  8
UPRIGHT_ARM_3
  6
Continuous
 62
     7
100
AcDbLine
 10
327.1750934938
 20
94.189794057
 30
0.0
 11
327.1750934938
 21
103.189794057
 31
0.0
  0
LINE
  5
1A9
330
40
100
AcDbEntity
  8
UPRIGHT_ARM_3
  6
Continuous
 62
     7
100
AcDbLine
 10
327.1750934938
 20
103.189794057
 30
0.0
 11
330.1750934938
 21
103.189794057
 31
0.0
  0
LINE
  5
1AA
330
40
100
AcDbEntity
  8
UPRIGHT_ARM_3
  6
Continuous
 62
     7
100
AcDbLine
 10
334.1750934938
 20
87.189794057
 30
0.0
 11
334.1750934938
 21
81.189794057
 31
0.0
  0
ARC
  5
1AB
330
40
100
AcDbEntity
  8
UPRIGHT_ARM_3
  6
Continuous
 62
     7
100
AcDbCircle
 10
327.1750934938
 20
87.189794057
 30
0.0
 40
6.999999999999999
100
AcDbArc
 50
0.0
 51
90.0
  0
LINE
  5
1AD
330
40
100
AcDbEntity
  8
BASE_3
  6
Continuous
 62
     7
100
AcDbLine
 10
273.7750934938
 20
141.0396149946
 30
0.0
 11
326.1750934938
 21
141.0396149946
 31
0.0
  0
LINE
  5
1AE
330
40
100
AcDbEntity
  8
BASE_3
  6
Continuous
 62
     7
100
AcDbLine
 10
273.7750934938
 20
106.0396149946
 30
0.0
 11
273.7750934938
 21
116.0396149946
 31
0.0
  0
LINE
  5
1AF
330
40
100
AcDbEntity
  8
BASE_3
  6
Continuous
 62
     7
100
AcDbLine
 10
326.1750934938
 20
106.0396149946
 30
0.0
 11
303.1750934938
 21
106.0396149946
 31
0.0
  0
LINE
  5
1B0
330
40
100
AcDbEntity
  8
BASE_3
  6
Continuous
 62
     7
100
AcDbLine
 10
326.1750934938
 20
141.0396149946
 30
0.0
 11
326.1750934938
 21
131.0396149946
 31
0.0
  0
LINE
  5
1B1
330
40
100
AcDbEntity
  8
BASE_3
  6
Continuous
 62
     7
100
AcDbLine
 10
273.7750934938
 20
131.0396149946
 30
0.0
 11
273.7750934938
 21
141.0396149946
 31
0.0
  0
LINE
  5
1B2
330
40
100
AcDbEntity
  8
BASE_3
  6
Continuous
 62
     7
100
AcDbLine
 10
273.7750934938
 20
116.0396149946
 30
0.0
 11
276.7750934938
 21
116.0396149946
 31
0.0
  0
LINE
  5
1B3
330
40
100
AcDbEntity
  8
BASE_3
  6
Continuous
 62
     7
100
AcDbLine
 10
276.7750934938
 20
116.0396149946
 30
0.0
 11
276.7750934938
 21
128.0396149946
 31
0.0
  0
LINE
  5
1B4
330
40
100
AcDbEntity
  8
BASE_3
  6
Continuous
 62
     7
100
AcDbLine
 10
280.7750934938
 20
131.0396149946
 30
0.0
 11
273.7750934938
 21
131.0396149946
 31
0.0
  0
LINE
  5
1B5
330
40
100
AcDbEntity
  8
BASE_3
  6
Continuous
 62
     7
100
AcDbLine
 10
326.1750934938
 20
116.0396149946
 30
0.0
 11
326.1750934938
 21
106.0396149946
 31
0.0
  0
LINE
  5
1B6
330
40
100
AcDbEntity
  8
BASE_3
  6
Continuous
 62
     7
100
AcDbLine
 10
323.1750934938
 20
116.0396149946
 30
0.0
 11
326.1750934938
 21
116.0396149946
 31
0.0
  0
LINE
  5
1B7
330
40
100
AcDbEntity
  8
BASE_3
  6
Continuous
 62
     7
100
AcDbLine
 10
326.1750934938
 20
131.0396149946
 30
0.0
 11
319.1750934938
 21
131.0396149946
 31
0.0
  0
LINE
  5
1B8
330
40
100
AcDbEntity
  8
BASE_3
  6
Continuous
 62
     7
100
AcDbLine
 10
288.1750934938
 20
116.0396149946
 30
0.0
 11
288.1750934938
 21
111.0396149946
 31
0.0
  0
ARC
  5
1B9
330
40
100
AcDbEntity
  8
BASE_3
  6
Continuous
 62
     7
100
AcDbCircle
 10
293.1750934938
 20
116.0396149946
 30
0.0
 40
5.000000000000004
100
AcDbArc
 50
0.0
 51
180.0
  0
LINE
  5
1BA
330
40
100
AcDbEntity
  8
BASE_3
  6
Continuous
 62
     7
100
AcDbLine
 10
283.1750934938
 20
106.0396149946
 30
0.0
 11
273.7750934938
 21
106.0396149946
 31
0.0
  0
ARC
  5
1BB
330
40
100
AcDbEntity
  8
BASE_3
  6
Continuous
 62
     7
100
AcDbCircle
 10
283.1750934938
 20
111.0396149946
 30
0.0
 40
4.999999999999997
100
AcDbArc
 50
270.0
 51
0.0
  0
LINE
  5
1BC
330
40
100
AcDbEntity
  8
BASE_3
  6
Continuous
 62
     7
100
AcDbLine
 10
298.1750934938
 20
111.0396149946
 30
0.0
 11
298.1750934938
 21
116.0396149946
 31
0.0
  0
ARC
  5
1BD
330
40
100
AcDbEntity
  8
BASE_3
  6
Continuous
 62
     7
100
AcDbCircle
 10
303.1750934938
 20
111.0396149946
 30
0.0
 40
5.000000000000004
100
AcDbArc
 50
180.0
 51
270.0
  0
LINE
  5
1BE
330
40
100
AcDbEntity
  8
BASE_3
  6
Continuous
 62
     7
100
AcDbLine
 10
280.7750934938
 20
131.0396149946
 30
0.0
 11
280.7750934938
 21
132.2896149946
 31
0.0
  0
LINE
  5
1BF
330
40
100
AcDbEntity
  8
BASE_3
  6
Continuous
 62
     7
100
AcDbLine
 10
280.7750934938
 20
132.2896149946
 30
0.0
 11
283.7750934938
 21
132.2896149946
 31
0.0
  0
LINE
  5
1C0
330
40
100
AcDbEntity
  8
BASE_3
  6
Continuous
 62
     7
100
AcDbLine
 10
283.7750934938
 20
132.2896149946
 30
0.0
 11
283.7750934938
 21
131.0396149946
 31
0.0
  0
LINE
  5
1C1
330
40
100
AcDbEntity
  8
BASE_3
  6
Continuous
 62
     7
100
AcDbLine
 10
283.7750934938
 20
131.0396149946
 30
0.0
 11
286.7750934938
 21
131.0396149946
 31
0.0
  0
LINE
  5
1C2
330
40
100
AcDbEntity
  8
BASE_3
  6
Continuous
 62
     7
100
AcDbLine
 10
286.7750934938
 20
131.0396149946
 30
0.0
 11
286.7750934938
 21
128.0396149946
 31
0.0
  0
LINE
  5
1C3
330
40
100
AcDbEntity
  8
BASE_3
  6
Continuous
 62
     7
100
AcDbLine
 10
286.7750934938
 20
128.0396149946
 30
0.0
 11
283.7750934938
 21
128.0396149946
 31
0.0
  0
LINE
  5
1C4
330
40
100
AcDbEntity
  8
BASE_3
  6
Continuous
 62
     7
100
AcDbLine
 10
283.7750934938
 20
128.0396149946
 30
0.0
 11
283.7750934938
 21
126.7896149946
 31
0.0
  0
LINE
  5
1C5
330
40
100
AcDbEntity
  8
BASE_3
  6
Continuous
 62
     7
100
AcDbLine
 10
283.7750934938
 20
126.7896149946
 30
0.0
 11
280.7750934938
 21
126.7896149946
 31
0.0
  0
LINE
  5
1C6
330
40
100
AcDbEntity
  8
BASE_3
  6
Continuous
 62
     7
100
AcDbLine
 10
280.7750934938
 20
126.7896149946
 30
0.0
 11
280.7750934938
 21
128.0396149946
 31
0.0
  0
LINE
  5
1C7
330
40
100
AcDbEntity
  8
BASE_3
  6
Continuous
 62
     7
100
AcDbLine
 10
280.7750934938
 20
128.0396149946
 30
0.0
 11
276.7750934938
 21
128.0396149946
 31
0.0
  0
LINE
  5
1C8
330
40
100
AcDbEntity
  8
BASE_3
  6
Continuous
 62
     7
100
AcDbLine
 10
323.1750934938
 20
128.0396149946
 30
0.0
 11
323.1750934938
 21
116.0396149946
 31
0.0
  0
LINE
  5
1C9
330
40
100
AcDbEntity
  8
BASE_3
  6
Continuous
 62
     7
100
AcDbLine
 10
319.1750934938
 20
131.0396149946
 30
0.0
 11
319.1750934938
 21
132.2896149946
 31
0.0
  0
LINE
  5
1CA
330
40
100
AcDbEntity
  8
BASE_3
  6
Continuous
 62
     7
100
AcDbLine
 10
319.1750934938
 20
132.2896149946
 30
0.0
 11
316.1750934938
 21
132.2896149946
 31
0.0
  0
LINE
  5
1CB
330
40
100
AcDbEntity
  8
BASE_3
  6
Continuous
 62
     7
100
AcDbLine
 10
316.1750934938
 20
132.2896149946
 30
0.0
 11
316.1750934938
 21
131.0396149946
 31
0.0
  0
LINE
  5
1CC
330
40
100
AcDbEntity
  8
BASE_3
  6
Continuous
 62
     7
100
AcDbLine
 10
316.1750934938
 20
131.0396149946
 30
0.0
 11
313.1750934938
 21
131.0396149946
 31
0.0
  0
LINE
  5
1CD
330
40
100
AcDbEntity
  8
BASE_3
  6
Continuous
 62
     7
100
AcDbLine
 10
313.1750934938
 20
131.0396149946
 30
0.0
 11
313.1750934938
 21
128.0396149946
 31
0.0
  0
LINE
  5
1CE
330
40
100
AcDbEntity
  8
BASE_3
  6
Continuous
 62
     7
100
AcDbLine
 10
313.1750934938
 20
128.0396149946
 30
0.0
 11
316.1750934938
 21
128.0396149946
 31
0.0
  0
LINE
  5
1CF
330
40
100
AcDbEntity
  8
BASE_3
  6
Continuous
 62
     7
100
AcDbLine
 10
316.1750934938
 20
128.0396149946
 30
0.0
 11
316.1750934938
 21
126.7896149946
 31
0.0
  0
LINE
  5
1D0
330
40
100
AcDbEntity
  8
BASE_3
  6
Continuous
 62
     7
100
AcDbLine
 10
316.1750934938
 20
126.7896149946
 30
0.0
 11
319.1750934938
 21
126.7896149946
 31
0.0
  0
LINE
  5
1D1
330
40
100
AcDbEntity
  8
BASE_3
  6
Continuous
 62
     7
100
AcDbLine
 10
319.1750934938
 20
126.7896149946
 30
0.0
 11
319.1750934938
 21
128.0396149946
 31
0.0
  0
LINE
  5
1D2
330
40
100
AcDbEntity
  8
BASE_3
  6
Continuous
 62
     7
100
AcDbLine
 10
319.1750934938
 20
128.0396149946
 30
0.0
 11
323.1750934938
 21
128.0396149946
 31
0.0
  0
CIRCLE
  5
1D4
330
40
100
AcDbEntity
  8
GRIPPER_7
  6
Continuous
 62
     7
100
AcDbCircle
 10
112.1220442598
 20
156.0396149946
 30
0.0
 40
1.55
  0
CIRCLE
  5
1D5
330
40
100
AcDbEntity
  8
GRIPPER_7
  6
Continuous
 62
     7
100
AcDbCircle
 10
137.1220442598
 20
156.0396149946
 30
0.0
 40
1.55
  0
ARC
  5
1D6
330
40
100
AcDbEntity
  8
GRIPPER_7
  6
Continuous
 62
     7
100
AcDbCircle
 10
137.1220442598
 20
156.0396149946
 30
0.0
 40
4.000000000000004
100
AcDbArc
 50
270.0
 51
90.0
  0
LINE
  5
1D7
330
40
100
AcDbEntity
  8
GRIPPER_7
  6
Continuous
 62
     7
100
AcDbLine
 10
112.1220442598
 20
160.0396149946
 30
0.0
 11
137.1220442598
 21
160.0396149946
 31
0.0
  0
ARC
  5
1D8
330
40
100
AcDbEntity
  8
GRIPPER_7
  6
Continuous
 62
     7
100
AcDbCircle
 10
112.1220442598
 20
156.0396149946
 30
0.0
 40
4.000000000000004
100
AcDbArc
 50
90.0
 51
270.0
  0
LINE
  5
1D9
330
40
100
AcDbEntity
  8
GRIPPER_7
  6
Continuous
 62
     7
100
AcDbLine
 10
137.1220442598
 20
152.0396149946
 30
0.0
 11
112.1220442598
 21
152.0396149946
 31
0.0
  0
CIRCLE
  5
1DA
330
40
100
AcDbEntity
  8
GRIPPER_7
  6
Continuous
 62
     7
100
AcDbCircle
 10
112.1220442598
 20
164.0396149946
 30
0.0
 40
1.55
  0
CIRCLE
  5
1DB
330
40
100
AcDbEntity
  8
GRIPPER_7
  6
Continuous
 62
     7
100
AcDbCircle
 10
137.1220442598
 20
164.0396149946
 30
0.0
 40
1.55
  0
ARC
  5
1DC
330
40
100
AcDbEntity
  8
GRIPPER_7
  6
Continuous
 62
     7
100
AcDbCircle
 10
137.1220442598
 20
164.0396149946
 30
0.0
 40
4.000000000000004
100
AcDbArc
 50
270.0
 51
90.0
  0
LINE
  5
1DD
330
40
100
AcDbEntity
  8
GRIPPER_7
  6
Continuous
 62
     7
100
AcDbLine
 10
112.1220442598
 20
168.0396149946
 30
0.0
 11
137.1220442598
 21
168.0396149946
 31
0.0
  0
ARC
  5
1DE
330
40
100
AcDbEntity
  8
GRIPPER_7
  6
Continuous
 62
     7
100
AcDbCircle
 10
112.1220442598
 20
164.0396149946
 30
0.0
 40
4.000000000000004
100
AcDbArc
 50
90.0
 51
270.0
  0
LINE
  5
1DF
330
40
100
AcDbEntity
  8
GRIPPER_7
  6
Continuous
 62
     7
100
AcDbLine
 10
137.1220442598
 20
160.0396149946
 30
0.0
 11
112.1220442598
 21
160.0396149946
 31
0.0
  0
LINE
  5
1E1
330
40
100
AcDbEntity
  8
BASE_1
  6
Continuous
 62
     7
100
AcDbLine
 10
159.9125971469
 20
91.2286553741
 30
0.0
 11
151.5687371289
 21
99.5725153921
 31
0.0
  0
LINE
  5
1E2
330
40
100
AcDbEntity
  8
BASE_1
  6
Continuous
 62
     7
100
AcDbLine
 10
151.5687371289
 20
99.5725153921
 30
0.0
 11
167.8321930962
 21
115.8359713594
 31
0.0
  0
LINE
  5
1E3
330
40
100
AcDbEntity
  8
BASE_1
  6
Continuous
 62
     7
100
AcDbLine
 10
167.8321930962
 20
115.8359713594
 30
0.0
 11
176.1760531142
 21
107.4921113414
 31
0.0
  0
LINE
  5
1E4
330
40
100
AcDbEntity
  8
BASE_1
  6
Continuous
 62
     7
100
AcDbLine
 10
176.1760531142
 20
107.4921113414
 30
0.0
 11
159.9125971469
 21
91.2286553741
 31
0.0
  0
CIRCLE
  5
1E5
330
40
100
AcDbEntity
  8
BASE_1
  6
Continuous
 62
     7
100
AcDbCircle
 10
157.5084340909
 20
109.8962743974
 30
0.0
 40
1.5
  0
CIRCLE
  5
1E6
330
40
100
AcDbEntity
  8
BASE_1
  6
Continuous
 62
     7
100
AcDbCircle
 10
170.2363561523
 20
97.1683523361
 30
0.0
 40
1.5
  0
CIRCLE
  5
1E7
330
40
100
AcDbEntity
  8
BASE_1
  6
Continuous
 62
     7
100
AcDbCircle
 10
163.8723951216
 20
134.645011739
 30
0.0
 40
1.3
  0
CIRCLE
  5
1E8
330
40
100
AcDbEntity
  8
BASE_1
  6
Continuous
 62
     7
100
AcDbCircle
 10
194.9850934938
 20
103.5323133668
 30
0.0
 40
1.3
  0
CIRCLE
  5
1E9
330
40
100
AcDbEntity
  8
BASE_1
  6
Continuous
 62
     7
100
AcDbCircle
 10
163.8723951216
 20
72.4196149946
 30
0.0
 40
1.3
  0
CIRCLE
  5
1EA
330
40
100
AcDbEntity
  8
BASE_1
  6
Continuous
 62
     7
100
AcDbCircle
 10
132.7596967494
 20
103.5323133668
 30
0.0
 40
1.3
  0
LINE
  5
1EB
330
40
100
AcDbEntity
  8
BASE_1
  6
Continuous
 62
     7
100
AcDbLine
 10
197.1064138374
 20
101.4109930232
 30
0.0
 11
165.9937154651
 21
70.298294651
 31
0.0
  0
ARC
  5
1EC
330
40
100
AcDbEntity
  8
BASE_1
  6
Continuous
 62
     7
100
AcDbCircle
 10
194.9850934938
 20
103.5323133668
 30
0.0
 40
2.999999999999999
100
AcDbArc
 50
315.0
 51
45.0
  0
LINE
  5
1ED
330
40
100
AcDbEntity
  8
BASE_1
  6
Continuous
 62
     7
100
AcDbLine
 10
165.9937154651
 20
136.7663320825
 30
0.0
 11
197.1064138374
 21
105.6536337103
 31
0.0
  0
ARC
  5
1EE
330
40
100
AcDbEntity
  8
BASE_1
  6
Continuous
 62
     7
100
AcDbCircle
 10
163.8723951216
 20
134.645011739
 30
0.0
 40
2.999999999999999
100
AcDbArc
 50
45.0
 51
135.0
  0
LINE
  5
1EF
330
40
100
AcDbEntity
  8
BASE_1
  6
Continuous
 62
     7
100
AcDbLine
 10
130.6383764058
 20
105.6536337103
 30
0.0
 11
161.751074778
 21
136.7663320825
 31
0.0
  0
ARC
  5
1F0
330
40
100
AcDbEntity
  8
BASE_1
  6
Continuous
 62
     7
100
AcDbCircle
 10
132.7596967494
 20
103.5323133668
 30
0.0
 40
2.999999999999999
100
AcDbArc
 50
135.0
 51
225.0
  0
LINE
  5
1F1
330
40
100
AcDbEntity
  8
BASE_1
  6
Continuous
 62
     7
100
AcDbLine
 10
161.751074778
 20
70.298294651
 30
0.0
 11
130.6383764058
 21
101.4109930232
 31
0.0
  0
ARC
  5
1F2
330
40
100
AcDbEntity
  8
BASE_1
  6
Continuous
 62
     7
100
AcDbCircle
 10
163.8723951216
 20
72.4196149946
 30
0.0
 40
3.000000000000005
100
AcDbArc
 50
225.0
 51
315.0
  0
ARC
  5
1F4
330
40
100
AcDbEntity
  8
GRIPPER_9
  6
Continuous
 62
     7
100
AcDbCircle
 10
209.9423374066
 20
69.7891112553
 30
0.0
 40
4.045639526347569
100
AcDbArc
 50
53.8652108588
 51
85.838262351
  0
ARC
  5
1F5
330
40
100
AcDbEntity
  8
GRIPPER_9
  6
Continuous
 62
     7
100
AcDbCircle
 10
210.0703108602
 20
65.3202089098
 30
0.0
 40
4.045639526347581
100
AcDbArc
 50
83.8652108588
 51
115.838262351
  0
ARC
  5
1F6
330
40
100
AcDbEntity
  8
GRIPPER_9
  6
Continuous
 62
     7
100
AcDbCircle
 10
212.4155902947
 20
61.5140126784
 30
0.0
 40
4.045639526347579
100
AcDbArc
 50
113.8652108588
 51
145.838262351
  0
ARC
  5
1F7
330
40
100
AcDbEntity
  8
GRIPPER_9
  6
Continuous
 62
     7
100
AcDbCircle
 10
216.3497599797
 20
59.3903897675
 30
0.0
 40
4.045639526347593
100
AcDbArc
 50
143.8652108588
 51
175.838262351
  0
ARC
  5
1F8
330
40
100
AcDbEntity
  8
GRIPPER_9
  6
Continuous
 62
     7
100
AcDbCircle
 10
220.8186623251
 20
59.5183632211
 30
0.0
 40
4.045639526347575
100
AcDbArc
 50
173.8652108588
 51
205.838262351
  0
ARC
  5
1F9
330
40
100
AcDbEntity
  8
GRIPPER_9
  6
Continuous
 62
     7
100
AcDbCircle
 10
224.6248585565
 20
61.8636426556
 30
0.0
 40
4.045639526347571
100
AcDbArc
 50
203.8652108588
 51
235.838262351
  0
ARC
  5
1FA
330
40
100
AcDbEntity
  8
GRIPPER_9
  6
Continuous
 62
     7
100
AcDbCircle
 10
226.7484814674
 20
65.7978123406
 30
0.0
 40
4.045639526347578
100
AcDbArc
 50
233.8652108588
 51
265.838262351
  0
ARC
  5
1FB
330
40
100
AcDbEntity
  8
GRIPPER_9
  6
Continuous
 62
     7
100
AcDbCircle
 10
226.6205080139
 20
70.266714686
 30
0.0
 40
4.045639526347581
100
AcDbArc
 50
263.8652108588
 51
295.838262351
  0
ARC
  5
1FC
330
40
100
AcDbEntity
  8
GRIPPER_9
  6
Continuous
 62
     7
100
AcDbCircle
 10
224.2752285793
 20
74.0729109174
 30
0.0
 40
4.045639526347586
100
AcDbArc
 50
293.8652108588
 51
325.838262351
  0
ARC
  5
1FD
330
40
100
AcDbEntity
  8
GRIPPER_9
  6
Continuous
 62
     7
100
AcDbCircle
 10
220.3410588944
 20
76.1965338283
 30
0.0
 40
4.045639526347567
100
AcDbArc
 50
323.8652108588
 51
355.838262351
  0
ARC
  5
1FE
330
40
100
AcDbEntity
  8
GRIPPER_9
  6
Continuous
 62
     7
100
AcDbCircle
 10
212.8389156548
 20
73.7562494816
 30
0.0
 40
0.8664222866025325
100
AcDbArc
 50
233.8652108588
 51
286.5741021685
  0
ARC
  5
1FF
330
40
100
AcDbEntity
  8
GRIPPER_9
  6
Continuous
 62
     7
100
AcDbCircle
 10
210.595252094
 20
70.2041405182
 30
0.0
 40
0.8664222866025225
100
AcDbArc
 50
263.8652108588
 51
61.5782814306
  0
ARC
  5
200
330
40
100
AcDbEntity
  8
GRIPPER_9
  6
Continuous
 62
     7
100
AcDbCircle
 10
212.933185319
 20
74.524142774
 30
0.0
 40
4.045639526347559
100
AcDbArc
 50
209.6052299384
 51
241.5782814306
  0
ARC
  5
201
330
40
100
AcDbEntity
  8
GRIPPER_9
  6
Continuous
 62
     7
100
AcDbCircle
 10
210.1112645552
 20
72.9207279374
 30
0.0
 40
0.7999999999999903
100
AcDbArc
 50
148.0901594311
 51
209.6052299384
  0
ARC
  5
202
330
40
100
AcDbEntity
  8
GRIPPER_9
  6
Continuous
 62
     7
100
AcDbCircle
 10
218.345409437
 20
67.7934617979
 30
0.0
 40
10.50000000000001
100
AcDbArc
 50
147.3533328584
 51
148.0901594311
  0
ARC
  5
203
330
40
100
AcDbEntity
  8
GRIPPER_9
  6
Continuous
 62
     7
100
AcDbCircle
 10
210.1778805109
 20
73.0261925612
 30
0.0
 40
0.8000000000000026
100
AcDbArc
 50
85.838262351
 51
147.3533328584
  0
ARC
  5
204
330
40
100
AcDbEntity
  8
GRIPPER_9
  6
Continuous
 62
     7
100
AcDbCircle
 10
210.4282369345
 20
66.0060921385
 30
0.0
 40
0.8664222866025162
100
AcDbArc
 50
293.8652108588
 51
91.5782814306
  0
ARC
  5
205
330
40
100
AcDbEntity
  8
GRIPPER_9
  6
Continuous
 62
     7
100
AcDbCircle
 10
210.2929453718
 20
70.9162904489
 30
0.0
 40
4.045639526347572
100
AcDbArc
 50
239.6052299384
 51
271.5782814306
  0
ARC
  5
206
330
40
100
AcDbEntity
  8
GRIPPER_9
  6
Continuous
 62
     7
100
AcDbCircle
 10
208.6507977212
 20
68.1167320858
 30
0.0
 40
0.8000000000000095
100
AcDbArc
 50
178.0901594311
 51
239.6052299384
  0
ARC
  5
207
330
40
100
AcDbEntity
  8
GRIPPER_9
  6
Continuous
 62
     7
100
AcDbCircle
 10
218.345409437
 20
67.7934617979
 30
0.0
 40
10.5
100
AcDbArc
 50
177.3533328584
 51
178.0901594311
  0
ARC
  5
208
330
40
100
AcDbEntity
  8
GRIPPER_9
  6
Continuous
 62
     7
100
AcDbCircle
 10
208.6557565192
 20
68.241375107
 30
0.0
 40
0.8000000000000087
100
AcDbArc
 50
115.838262351
 51
177.3533328584
  0
ARC
  5
209
330
40
100
AcDbEntity
  8
GRIPPER_9
  6
Continuous
 62
     7
100
AcDbCircle
 10
212.3826217534
 20
62.2869680157
 30
0.0
 40
0.8664222866025256
100
AcDbArc
 50
323.8652108588
 51
121.5782814306
  0
ARC
  5
20A
330
40
100
AcDbEntity
  8
GRIPPER_9
  6
Continuous
 62
     7
100
AcDbCircle
 10
209.810356668
 20
66.4716787088
 30
0.0
 40
4.045639526347577
100
AcDbArc
 50
269.6052299384
 51
301.5782814306
  0
ARC
  5
20B
330
40
100
AcDbEntity
  8
GRIPPER_9
  6
Continuous
 62
     7
100
AcDbCircle
 10
209.7879942673
 20
63.2261162216
 30
0.0
 40
0.7999999999999979
100
AcDbArc
 50
208.0901594311
 51
269.6052299384
  0
ARC
  5
20C
330
40
100
AcDbEntity
  8
GRIPPER_9
  6
Continuous
 62
     7
100
AcDbCircle
 10
218.345409437
 20
67.7934617979
 30
0.0
 40
10.5
100
AcDbArc
 50
207.3533328584
 51
208.0901594311
  0
ARC
  5
20D
330
40
100
AcDbEntity
  8
GRIPPER_9
  6
Continuous
 62
     7
100
AcDbCircle
 10
209.7299672018
 20
63.3365396434
 30
0.0
 40
0.7999999999999988
100
AcDbArc
 50
145.838262351
 51
207.3533328584
  0
ARC
  5
20E
330
40
100
AcDbEntity
  8
GRIPPER_9
  6
Continuous
 62
     7
100
AcDbCircle
 10
215.9347307167
 20
60.0433044549
 30
0.0
 40
0.8664222866025232
100
AcDbArc
 50
353.8652108588
 51
151.5782814306
  0
ARC
  5
20F
330
40
100
AcDbEntity
  8
GRIPPER_9
  6
Continuous
 62
     7
100
AcDbCircle
 10
211.614728461
 20
62.3812376799
 30
0.0
 40
4.045639526347579
100
AcDbArc
 50
299.6052299384
 51
331.5782814306
  0
ARC
  5
210
330
40
100
AcDbEntity
  8
GRIPPER_9
  6
Continuous
 62
     7
100
AcDbCircle
 10
213.2181432975
 20
59.5593169161
 30
0.0
 40
0.8000000000000027
100
AcDbArc
 50
238.0901594311
 51
299.6052299384
  0
ARC
  5
211
330
40
100
AcDbEntity
  8
GRIPPER_9
  6
Continuous
 62
     7
100
AcDbCircle
 10
218.345409437
 20
67.7934617979
 30
0.0
 40
10.5
100
AcDbArc
 50
237.3533328584
 51
238.0901594311
  0
ARC
  5
212
330
40
100
AcDbEntity
  8
GRIPPER_9
  6
Continuous
 62
     7
100
AcDbCircle
 10
213.1126786738
 20
59.6259328718
 30
0.0
 40
0.7999999999999919
100
AcDbArc
 50
175.838262351
 51
237.3533328584
  0
ARC
  5
213
330
40
100
AcDbEntity
  8
GRIPPER_9
  6
Continuous
 62
     7
100
AcDbCircle
 10
220.1327790964
 20
59.8762892954
 30
0.0
 40
0.8664222866025192
100
AcDbArc
 50
23.8652108588
 51
181.5782814306
  0
ARC
  5
214
330
40
100
AcDbEntity
  8
GRIPPER_9
  6
Continuous
 62
     7
100
AcDbCircle
 10
215.222580786
 20
59.7409977327
 30
0.0
 40
4.045639526347573
100
AcDbArc
 50
329.6052299384
 51
1.5782814306
  0
ARC
  5
215
330
40
100
AcDbEntity
  8
GRIPPER_9
  6
Continuous
 62
     7
100
AcDbCircle
 10
218.0221391491
 20
58.0988500821
 30
0.0
 40
0.8000000000000029
100
AcDbArc
 50
268.0901594311
 51
329.6052299384
  0
ARC
  5
216
330
40
100
AcDbEntity
  8
GRIPPER_9
  6
Continuous
 62
     7
100
AcDbCircle
 10
218.345409437
 20
67.7934617979
 30
0.0
 40
10.5
100
AcDbArc
 50
267.3533328584
 51
268.0901594311
  0
ARC
  5
217
330
40
100
AcDbEntity
  8
GRIPPER_9
  6
Continuous
 62
     7
100
AcDbCircle
 10
217.897496128
 20
58.1038088801
 30
0.0
 40
0.8000000000000044
100
AcDbArc
 50
205.838262351
 51
267.3533328584
  0
ARC
  5
218
330
40
100
AcDbEntity
  8
GRIPPER_9
  6
Continuous
 62
     7
100
AcDbCircle
 10
223.8519032193
 20
61.8306741143
 30
0.0
 40
0.8664222866025162
100
AcDbArc
 50
53.8652108588
 51
211.5782814306
  0
ARC
  5
219
330
40
100
AcDbEntity
  8
GRIPPER_9
  6
Continuous
 62
     7
100
AcDbCircle
 10
219.6671925262
 20
59.2584090289
 30
0.0
 40
4.045639526347577
100
AcDbArc
 50
359.6052299384
 51
31.5782814306
  0
ARC
  5
21A
330
40
100
AcDbEntity
  8
GRIPPER_9
  6
Continuous
 62
     7
100
AcDbCircle
 10
222.9127550134
 20
59.2360466283
 30
0.0
 40
0.8000000000000019
100
AcDbArc
 50
298.0901594311
 51
359.6052299384
  0
ARC
  5
21B
330
40
100
AcDbEntity
  8
GRIPPER_9
  6
Continuous
 62
     7
100
AcDbCircle
 10
218.345409437
 20
67.7934617979
 30
0.0
 40
10.5
100
AcDbArc
 50
297.3533328584
 51
298.0901594311
  0
ARC
  5
21C
330
40
100
AcDbEntity
  8
GRIPPER_9
  6
Continuous
 62
     7
100
AcDbCircle
 10
222.8023315916
 20
59.1780195627
 30
0.0
 40
0.7999999999999997
100
AcDbArc
 50
235.838262351
 51
297.3533328584
  0
ARC
  5
21D
330
40
100
AcDbEntity
  8
GRIPPER_9
  6
Continuous
 62
     7
100
AcDbCircle
 10
226.0955667801
 20
65.3827830777
 30
0.0
 40
0.8664222866025225
100
AcDbArc
 50
83.8652108588
 51
241.5782814306
  0
ARC
  5
21E
330
40
100
AcDbEntity
  8
GRIPPER_9
  6
Continuous
 62
     7
100
AcDbCircle
 10
223.7576335551
 20
61.0627808219
 30
0.0
 40
4.04563952634758
100
AcDbArc
 50
29.6052299384
 51
61.5782814306
  0
ARC
  5
21F
330
40
100
AcDbEntity
  8
GRIPPER_9
  6
Continuous
 62
     7
100
AcDbCircle
 10
226.5795543188
 20
62.6661956584
 30
0.0
 40
0.8000000000000148
100
AcDbArc
 50
328.0901594311
 51
29.6052299384
  0
ARC
  5
220
330
40
100
AcDbEntity
  8
GRIPPER_9
  6
Continuous
 62
     7
100
AcDbCircle
 10
218.345409437
 20
67.7934617979
 30
0.0
 40
10.49999999999999
100
AcDbArc
 50
327.3533328584
 51
328.0901594311
  0
ARC
  5
221
330
40
100
AcDbEntity
  8
GRIPPER_9
  6
Continuous
 62
     7
100
AcDbCircle
 10
226.5129383632
 20
62.5607310347
 30
0.0
 40
0.8000000000000009
100
AcDbArc
 50
265.838262351
 51
327.3533328584
  0
ARC
  5
222
330
40
100
AcDbEntity
  8
GRIPPER_9
  6
Continuous
 62
     7
100
AcDbCircle
 10
226.2625819396
 20
69.5808314573
 30
0.0
 40
0.8664222866025274
100
AcDbArc
 50
113.8652108588
 51
271.5782814306
  0
ARC
  5
223
330
40
100
AcDbEntity
  8
GRIPPER_9
  6
Continuous
 62
     7
100
AcDbCircle
 10
226.3978735022
 20
64.670633147
 30
0.0
 40
4.04563952634757
100
AcDbArc
 50
59.6052299384
 51
91.5782814306
  0
ARC
  5
224
330
40
100
AcDbEntity
  8
GRIPPER_9
  6
Continuous
 62
     7
100
AcDbCircle
 10
228.0400211529
 20
67.4701915101
 30
0.0
 40
0.8000000000000096
100
AcDbArc
 50
358.0901594311
 51
59.6052299384
  0
ARC
  5
225
330
40
100
AcDbEntity
  8
GRIPPER_9
  6
Continuous
 62
     7
100
AcDbCircle
 10
218.345409437
 20
67.7934617979
 30
0.0
 40
10.5
100
AcDbArc
 50
357.3533328584
 51
358.0901594311
  0
ARC
  5
226
330
40
100
AcDbEntity
  8
GRIPPER_9
  6
Continuous
 62
     7
100
AcDbCircle
 10
228.0350623548
 20
67.3455484889
 30
0.0
 40
0.8000000000000087
100
AcDbArc
 50
295.838262351
 51
357.3533328584
  0
ARC
  5
227
330
40
100
AcDbEntity
  8
GRIPPER_9
  6
Continuous
 62
     7
100
AcDbCircle
 10
224.3081971207
 20
73.2999555802
 30
0.0
 40
0.8664222866025272
100
AcDbArc
 50
143.8652108588
 51
301.5782814306
  0
ARC
  5
228
330
40
100
AcDbEntity
  8
GRIPPER_9
  6
Continuous
 62
     7
100
AcDbCircle
 10
226.880462206
 20
69.1152448871
 30
0.0
 40
4.045639526347577
100
AcDbArc
 50
89.6052299384
 51
121.5782814306
  0
ARC
  5
229
330
40
100
AcDbEntity
  8
GRIPPER_9
  6
Continuous
 62
     7
100
AcDbCircle
 10
226.9028246067
 20
72.3608073743
 30
0.0
 40
0.8000000000000217
100
AcDbArc
 50
28.0901594311
 51
89.6052299384
  0
ARC
  5
22A
330
40
100
AcDbEntity
  8
GRIPPER_9
  6
Continuous
 62
     7
100
AcDbCircle
 10
218.345409437
 20
67.7934617979
 30
0.0
 40
10.5
100
AcDbArc
 50
27.3533328584
 51
28.0901594311
  0
ARC
  5
22B
330
40
100
AcDbEntity
  8
GRIPPER_9
  6
Continuous
 62
     7
100
AcDbCircle
 10
226.9608516722
 20
72.2503839525
 30
0.0
 40
0.7999999999999983
100
AcDbArc
 50
325.838262351
 51
27.3533328584
  0
ARC
  5
22C
330
40
100
AcDbEntity
  8
GRIPPER_9
  6
Continuous
 62
     7
100
AcDbCircle
 10
220.7560881573
 20
75.543619141
 30
0.0
 40
0.8664222866025211
100
AcDbArc
 50
278.8693901209
 51
331.5782814306
  0
ARC
  5
22D
330
40
100
AcDbEntity
  8
GRIPPER_9
  6
Continuous
 62
     7
100
AcDbCircle
 10
225.076090413
 20
73.205685916
 30
0.0
 40
4.045639526347569
100
AcDbArc
 50
119.6052299384
 51
151.5782814306
  0
ARC
  5
22E
330
40
100
AcDbEntity
  8
GRIPPER_9
  6
Continuous
 62
     7
100
AcDbCircle
 10
223.4726755765
 20
76.0276066797
 30
0.0
 40
0.8000000000000057
100
AcDbArc
 50
58.0901594311
 51
119.6052299384
  0
ARC
  5
22F
330
40
100
AcDbEntity
  8
GRIPPER_9
  6
Continuous
 62
     7
100
AcDbCircle
 10
218.345409437
 20
67.7934617979
 30
0.0
 40
10.49999999999999
100
AcDbArc
 50
57.3533328584
 51
58.0901594311
  0
ARC
  5
230
330
40
100
AcDbEntity
  8
GRIPPER_9
  6
Continuous
 62
     7
100
AcDbCircle
 10
223.5781402003
 20
75.9609907241
 30
0.0
 40
0.799999999999992
100
AcDbArc
 50
355.838262351
 51
57.3533328584
  0
ARC
  5
231
330
40
100
AcDbEntity
  8
GRIPPER_9
  6
Continuous
 62
     7
100
AcDbCircle
 10
212.8399983203
 20
92.1797376193
 30
0.0
 40
4.000000000000006
100
AcDbArc
 50
12.7217461447
 51
192.7217461447
  0
LINE
  5
232
330
40
100
AcDbEntity
  8
GRIPPER_9
  6
Continuous
 62
     7
100
AcDbLine
 10
208.9381941888
 20
91.2988718406
 30
0.0
 11
213.086067095
 21
72.9258256474
 31
0.0
  0
LINE
  5
233
330
40
100
AcDbEntity
  8
GRIPPER_9
  6
Continuous
 62
     7
100
AcDbLine
 10
220.8896753578
 20
74.6875572048
 30
0.0
 11
216.7418024517
 21
93.060603398
 31
0.0
  0
CIRCLE
  5
234
330
40
100
AcDbEntity
  8
GRIPPER_9
  6
Continuous
 62
     7
100
AcDbCircle
 10
218.345409437
 20
67.7934617979
 30
0.0
 40
3.75
  0
CIRCLE
  5
235
330
40
100
AcDbEntity
  8
GRIPPER_9
  6
Continuous
 62
     7
100
AcDbCircle
 10
212.8399983203
 20
92.1797376193
 30
0.0
 40
1.55
  0
CIRCLE
  5
236
330
40
100
AcDbEntity
  8
GRIPPER_9
  6
Continuous
 62
     7
100
AcDbCircle
 10
219.4464916604
 20
62.9162066337
 30
0.0
 40
1.0
  0
CIRCLE
  5
237
330
40
100
AcDbEntity
  8
GRIPPER_9
  6
Continuous
 62
     7
100
AcDbCircle
 10
215.9230285456
 20
78.5234231593
 30
0.0
 40
1.0
  0
ARC
  5
239
330
40
100
AcDbEntity
  8
GRIPPER_8
  6
Continuous
 62
     7
100
AcDbCircle
 10
219.1296242989
 20
97.6504889521
 30
0.0
 40
4.045639526347462
100
AcDbArc
 50
158.8652108588
 51
190.838262351
  0
ARC
  5
23A
330
40
100
AcDbEntity
  8
GRIPPER_8
  6
Continuous
 62
     7
100
AcDbCircle
 10
214.7798741412
 20
98.6835131259
 30
0.0
 40
4.04563952634747
100
AcDbArc
 50
128.8652108588
 51
160.838262351
  0
ARC
  5
23B
330
40
100
AcDbEntity
  8
GRIPPER_8
  6
Continuous
 62
     7
100
AcDbCircle
 10
211.5293920915
 20
101.753013382
 30
0.0
 40
4.045639526347479
100
AcDbArc
 50
98.8652108588
 51
130.838262351
  0
ARC
  5
23C
330
40
100
AcDbEntity
  8
GRIPPER_8
  6
Continuous
 62
     7
100
AcDbCircle
 10
210.2491421899
 20
106.0365196055
 30
0.0
 40
4.045639526347472
100
AcDbArc
 50
68.8652108588
 51
100.838262351
  0
ARC
  5
23D
330
40
100
AcDbEntity
  8
GRIPPER_8
  6
Continuous
 62
     7
100
AcDbCircle
 10
211.2821663637
 20
110.3862697632
 30
0.0
 40
4.04563952634748
100
AcDbArc
 50
38.8652108588
 51
70.838262351
  0
ARC
  5
23E
330
40
100
AcDbEntity
  8
GRIPPER_8
  6
Continuous
 62
     7
100
AcDbCircle
 10
214.3516666198
 20
113.636751813
 30
0.0
 40
4.045639526347476
100
AcDbArc
 50
8.8652108588
 51
40.838262351
  0
ARC
  5
23F
330
40
100
AcDbEntity
  8
GRIPPER_8
  6
Continuous
 62
     7
100
AcDbCircle
 10
218.6351728433
 20
114.9170017146
 30
0.0
 40
4.045639526347459
100
AcDbArc
 50
338.8652108588
 51
10.838262351
  0
ARC
  5
240
330
40
100
AcDbEntity
  8
GRIPPER_8
  6
Continuous
 62
     7
100
AcDbCircle
 10
222.984923001
 20
113.8839775407
 30
0.0
 40
4.04563952634747
100
AcDbArc
 50
308.8652108588
 51
340.838262351
  0
ARC
  5
241
330
40
100
AcDbEntity
  8
GRIPPER_8
  6
Continuous
 62
     7
100
AcDbCircle
 10
226.2354050508
 20
110.8144772847
 30
0.0
 40
4.045639526347472
100
AcDbArc
 50
278.8652108588
 51
310.838262351
  0
ARC
  5
242
330
40
100
AcDbEntity
  8
GRIPPER_8
  6
Continuous
 62
     7
100
AcDbCircle
 10
227.5156549524
 20
106.5309710611
 30
0.0
 40
4.045639526347478
100
AcDbArc
 50
248.8652108588
 51
280.838262351
  0
ARC
  5
243
330
40
100
AcDbEntity
  8
GRIPPER_8
  6
Continuous
 62
     7
100
AcDbCircle
 10
226.4826307785
 20
102.1812209034
 30
0.0
 40
4.045639526347474
100
AcDbArc
 50
244.3710458817
 51
250.838262351
  0
ARC
  5
244
330
40
100
AcDbEntity
  8
GRIPPER_8
  6
Continuous
 62
     7
100
AcDbCircle
 10
214.5479734134
 20
99.4215977623
 30
0.0
 40
0.8664222866025432
100
AcDbArc
 50
338.8652108588
 51
136.5782814306
  0
ARC
  5
245
330
40
100
AcDbEntity
  8
GRIPPER_8
  6
Continuous
 62
     7
100
AcDbCircle
 10
218.8823985711
 20
106.2837453333
 30
0.0
 40
10.5
100
AcDbArc
 50
252.3533328584
 51
253.0901594311
  0
ARC
  5
246
330
40
100
AcDbEntity
  8
GRIPPER_8
  6
Continuous
 62
     7
100
AcDbCircle
 10
215.9418808224
 20
97.0401878272
 30
0.0
 40
0.8000000000000246
100
AcDbArc
 50
190.838262351
 51
252.3533328584
  0
ARC
  5
247
330
40
100
AcDbEntity
  8
GRIPPER_8
  6
Continuous
 62
     7
100
AcDbCircle
 10
213.781846666
 20
99.3139098569
 30
0.0
 40
4.045639526347475
100
AcDbArc
 50
314.6052299384
 51
321.0724464078
  0
ARC
  5
248
330
40
100
AcDbEntity
  8
GRIPPER_8
  6
Continuous
 62
     7
100
AcDbCircle
 10
216.0609933042
 20
97.0031380084
 30
0.0
 40
0.7999999999999942
100
AcDbArc
 50
253.0901594311
 51
314.6052299384
  0
ARC
  5
249
330
40
100
AcDbEntity
  8
GRIPPER_8
  6
Continuous
 62
     7
100
AcDbCircle
 10
211.6976024882
 20
102.5081637912
 30
0.0
 40
0.8664222866025552
100
AcDbArc
 50
308.8652108588
 51
106.5782814306
  0
ARC
  5
24A
330
40
100
AcDbEntity
  8
GRIPPER_8
  6
Continuous
 62
     7
100
AcDbCircle
 10
218.8823985711
 20
106.2837453333
 30
0.0
 40
10.5
100
AcDbArc
 50
222.3533328584
 51
223.0901594311
  0
ARC
  5
24B
330
40
100
AcDbEntity
  8
GRIPPER_8
  6
Continuous
 62
     7
100
AcDbCircle
 10
211.7140567474
 20
99.748848586
 30
0.0
 40
0.8000000000000088
100
AcDbArc
 50
160.838262351
 51
222.3533328584
  0
ARC
  5
24C
330
40
100
AcDbEntity
  8
GRIPPER_8
  6
Continuous
 62
     7
100
AcDbCircle
 10
210.9802733098
 20
102.7979667032
 30
0.0
 40
4.045639526347478
100
AcDbArc
 50
284.6052299384
 51
316.5782814306
  0
ARC
  5
24D
330
40
100
AcDbEntity
  8
GRIPPER_8
  6
Continuous
 62
     7
100
AcDbCircle
 10
211.7986862732
 20
99.6572062608
 30
0.0
 40
0.7999999999999982
100
AcDbArc
 50
223.0901594311
 51
284.6052299384
  0
ARC
  5
24E
330
40
100
AcDbEntity
  8
GRIPPER_8
  6
Continuous
 62
     7
100
AcDbCircle
 10
210.7723918712
 20
106.6063938452
 30
0.0
 40
0.8664222866025351
100
AcDbArc
 50
278.8652108588
 51
76.5782814306
  0
ARC
  5
24F
330
40
100
AcDbEntity
  8
GRIPPER_8
  6
Continuous
 62
     7
100
AcDbCircle
 10
218.8823985711
 20
106.2837453333
 30
0.0
 40
10.5
100
AcDbArc
 50
192.3533328584
 51
193.0901594311
  0
ARC
  5
250
330
40
100
AcDbEntity
  8
GRIPPER_8
  6
Continuous
 62
     7
100
AcDbCircle
 10
209.4069840751
 20
104.2085296509
 30
0.0
 40
0.7999999999999869
100
AcDbArc
 50
130.838262351
 51
192.3533328584
  0
ARC
  5
251
330
40
100
AcDbEntity
  8
GRIPPER_8
  6
Continuous
 62
     7
100
AcDbCircle
 10
210.2960680358
 20
107.2160351183
 30
0.0
 40
4.045639526347482
100
AcDbArc
 50
254.6052299384
 51
286.5782814306
  0
ARC
  5
252
330
40
100
AcDbEntity
  8
GRIPPER_8
  6
Continuous
 62
     7
100
AcDbCircle
 10
209.4344542317
 20
104.0868503063
 30
0.0
 40
0.8000000000000111
100
AcDbArc
 50
193.0901594311
 51
254.6052299384
  0
ARC
  5
253
330
40
100
AcDbEntity
  8
GRIPPER_8
  6
Continuous
 62
     7
100
AcDbCircle
 10
212.0202510001
 20
110.618170491
 30
0.0
 40
0.8664222866025393
100
AcDbArc
 50
248.8652108588
 51
46.5782814306
  0
ARC
  5
254
330
40
100
AcDbEntity
  8
GRIPPER_8
  6
Continuous
 62
     7
100
AcDbCircle
 10
218.8823985711
 20
106.2837453333
 30
0.0
 40
10.49999999999999
100
AcDbArc
 50
162.3533328584
 51
163.0901594311
  0
ARC
  5
255
330
40
100
AcDbEntity
  8
GRIPPER_8
  6
Continuous
 62
     7
100
AcDbCircle
 10
209.638841065
 20
109.224263082
 30
0.0
 40
0.7999999999999974
100
AcDbArc
 50
100.838262351
 51
162.3533328584
  0
ARC
  5
256
330
40
100
AcDbEntity
  8
GRIPPER_8
  6
Continuous
 62
     7
100
AcDbCircle
 10
211.9125630947
 20
111.3842972385
 30
0.0
 40
4.045639526347471
100
AcDbArc
 50
224.6052299384
 51
256.5782814306
  0
ARC
  5
257
330
40
100
AcDbEntity
  8
GRIPPER_8
  6
Continuous
 62
     7
100
AcDbCircle
 10
209.6017912462
 20
109.1051506002
 30
0.0
 40
0.8000000000000003
100
AcDbArc
 50
163.0901594311
 51
224.6052299384
  0
ARC
  5
258
330
40
100
AcDbEntity
  8
GRIPPER_8
  6
Continuous
 62
     7
100
AcDbCircle
 10
215.1068170289
 20
113.4685414162
 30
0.0
 40
0.8664222866025258
100
AcDbArc
 50
218.8652108588
 51
16.5782814306
  0
ARC
  5
259
330
40
100
AcDbEntity
  8
GRIPPER_8
  6
Continuous
 62
     7
100
AcDbCircle
 10
218.8823985711
 20
106.2837453333
 30
0.0
 40
10.49999999999999
100
AcDbArc
 50
132.3533328584
 51
133.0901594311
  0
ARC
  5
25A
330
40
100
AcDbEntity
  8
GRIPPER_8
  6
Continuous
 62
     7
100
AcDbCircle
 10
212.3475018238
 20
113.4520871571
 30
0.0
 40
0.7999999999999934
100
AcDbArc
 50
70.838262351
 51
132.3533328584
  0
ARC
  5
25B
330
40
100
AcDbEntity
  8
GRIPPER_8
  6
Continuous
 62
     7
100
AcDbCircle
 10
215.3966199409
 20
114.1858705947
 30
0.0
 40
4.045639526347482
100
AcDbArc
 50
194.6052299384
 51
226.5782814306
  0
ARC
  5
25C
330
40
100
AcDbEntity
  8
GRIPPER_8
  6
Continuous
 62
     7
100
AcDbCircle
 10
212.2558594986
 20
113.3674576313
 30
0.0
 40
0.7999999999999842
100
AcDbArc
 50
133.0901594311
 51
194.6052299384
  0
ARC
  5
25D
330
40
100
AcDbEntity
  8
GRIPPER_8
  6
Continuous
 62
     7
100
AcDbCircle
 10
219.205047083
 20
114.3937520332
 30
0.0
 40
0.8664222866025362
100
AcDbArc
 50
188.8652108588
 51
346.5782814306
  0
ARC
  5
25E
330
40
100
AcDbEntity
  8
GRIPPER_8
  6
Continuous
 62
     7
100
AcDbCircle
 10
218.8823985711
 20
106.2837453333
 30
0.0
 40
10.50000000000001
100
AcDbArc
 50
102.3533328584
 51
103.0901594311
  0
ARC
  5
25F
330
40
100
AcDbEntity
  8
GRIPPER_8
  6
Continuous
 62
     7
100
AcDbCircle
 10
216.8071828887
 20
115.7591598293
 30
0.0
 40
0.8000000000000111
100
AcDbArc
 50
40.838262351
 51
102.3533328584
  0
ARC
  5
260
330
40
100
AcDbEntity
  8
GRIPPER_8
  6
Continuous
 62
     7
100
AcDbCircle
 10
219.8146883561
 20
114.8700758686
 30
0.0
 40
4.045639526347497
100
AcDbArc
 50
164.6052299384
 51
196.5782814306
  0
ARC
  5
261
330
40
100
AcDbEntity
  8
GRIPPER_8
  6
Continuous
 62
     7
100
AcDbCircle
 10
216.6855035441
 20
115.7316896727
 30
0.0
 40
0.800000000000006
100
AcDbArc
 50
103.0901594311
 51
164.6052299384
  0
ARC
  5
262
330
40
100
AcDbEntity
  8
GRIPPER_8
  6
Continuous
 62
     7
100
AcDbCircle
 10
223.2168237288
 20
113.1458929043
 30
0.0
 40
0.8664222866025457
100
AcDbArc
 50
158.8652108588
 51
316.5782814306
  0
ARC
  5
263
330
40
100
AcDbEntity
  8
GRIPPER_8
  6
Continuous
 62
     7
100
AcDbCircle
 10
218.8823985711
 20
106.2837453333
 30
0.0
 40
10.5
100
AcDbArc
 50
72.3533328584
 51
73.0901594311
  0
ARC
  5
264
330
40
100
AcDbEntity
  8
GRIPPER_8
  6
Continuous
 62
     7
100
AcDbCircle
 10
221.8229163198
 20
115.5273028395
 30
0.0
 40
0.7999999999999974
100
AcDbArc
 50
10.838262351
 51
72.3533328584
  0
ARC
  5
265
330
40
100
AcDbEntity
  8
GRIPPER_8
  6
Continuous
 62
     7
100
AcDbCircle
 10
223.9829504763
 20
113.2535808097
 30
0.0
 40
4.045639526347495
100
AcDbArc
 50
134.6052299384
 51
166.5782814306
  0
ARC
  5
266
330
40
100
AcDbEntity
  8
GRIPPER_8
  6
Continuous
 62
     7
100
AcDbCircle
 10
221.703803838
 20
115.5643526583
 30
0.0
 40
0.8000000000000022
100
AcDbArc
 50
73.0901594311
 51
134.6052299384
  0
ARC
  5
267
330
40
100
AcDbEntity
  8
GRIPPER_8
  6
Continuous
 62
     7
100
AcDbCircle
 10
226.067194654
 20
110.0593268755
 30
0.0
 40
0.8664222866025377
100
AcDbArc
 50
128.8652108588
 51
286.5782814306
  0
ARC
  5
268
330
40
100
AcDbEntity
  8
GRIPPER_8
  6
Continuous
 62
     7
100
AcDbCircle
 10
218.8823985711
 20
106.2837453333
 30
0.0
 40
10.49999999999999
100
AcDbArc
 50
42.3533328584
 51
43.0901594311
  0
ARC
  5
269
330
40
100
AcDbEntity
  8
GRIPPER_8
  6
Continuous
 62
     7
100
AcDbCircle
 10
226.0507403949
 20
112.8186420806
 30
0.0
 40
0.8000000000000088
100
AcDbArc
 50
340.838262351
 51
42.3533328584
  0
ARC
  5
26A
330
40
100
AcDbEntity
  8
GRIPPER_8
  6
Continuous
 62
     7
100
AcDbCircle
 10
226.7845238325
 20
109.7695239635
 30
0.0
 40
4.045639526347471
100
AcDbArc
 50
104.6052299384
 51
136.5782814306
  0
ARC
  5
26B
330
40
100
AcDbEntity
  8
GRIPPER_8
  6
Continuous
 62
     7
100
AcDbCircle
 10
225.9661108691
 20
112.9102844059
 30
0.0
 40
0.7999999999999934
100
AcDbArc
 50
43.0901594311
 51
104.6052299384
  0
ARC
  5
26C
330
40
100
AcDbEntity
  8
GRIPPER_8
  6
Continuous
 62
     7
100
AcDbCircle
 10
226.992405271
 20
105.9610968214
 30
0.0
 40
0.866422286602542
100
AcDbArc
 50
98.8652108588
 51
256.5782814306
  0
ARC
  5
26D
330
40
100
AcDbEntity
  8
GRIPPER_8
  6
Continuous
 62
     7
100
AcDbCircle
 10
218.8823985711
 20
106.2837453333
 30
0.0
 40
10.50000000000001
100
AcDbArc
 50
12.3533328584
 51
13.0901594311
  0
ARC
  5
26E
330
40
100
AcDbEntity
  8
GRIPPER_8
  6
Continuous
 62
     7
100
AcDbCircle
 10
228.3578130671
 20
108.3589610157
 30
0.0
 40
0.7999999999999869
100
AcDbArc
 50
310.838262351
 51
12.3533328584
  0
ARC
  5
26F
330
40
100
AcDbEntity
  8
GRIPPER_8
  6
Continuous
 62
     7
100
AcDbCircle
 10
227.4687291064
 20
105.3514555483
 30
0.0
 40
4.045639526347482
100
AcDbArc
 50
74.6052299384
 51
106.5782814306
  0
ARC
  5
270
330
40
100
AcDbEntity
  8
GRIPPER_8
  6
Continuous
 62
     7
100
AcDbCircle
 10
228.3303429105
 20
108.4806403603
 30
0.0
 40
0.8000000000000111
100
AcDbArc
 50
13.0901594311
 51
74.6052299384
  0
ARC
  5
271
330
40
100
AcDbEntity
  8
GRIPPER_8
  6
Continuous
 62
     7
100
AcDbCircle
 10
225.7445461421
 20
101.9493201756
 30
0.0
 40
0.8664222866025393
100
AcDbArc
 50
68.8652108588
 51
226.5782814306
  0
ARC
  5
272
330
40
100
AcDbEntity
  8
GRIPPER_8
  6
Continuous
 62
     7
100
AcDbCircle
 10
218.8823985711
 20
106.2837453333
 30
0.0
 40
10.49999999999999
100
AcDbArc
 50
342.3533328584
 51
343.0901594311
  0
ARC
  5
273
330
40
100
AcDbEntity
  8
GRIPPER_8
  6
Continuous
 62
     7
100
AcDbCircle
 10
228.1259560773
 20
103.3432275846
 30
0.0
 40
0.8000000000000042
100
AcDbArc
 50
280.838262351
 51
342.3533328584
  0
ARC
  5
274
330
40
100
AcDbEntity
  8
GRIPPER_8
  6
Continuous
 62
     7
100
AcDbCircle
 10
225.8522340475
 20
101.1831934282
 30
0.0
 40
4.045639526347466
100
AcDbArc
 50
44.6052299384
 51
76.5782814306
  0
ARC
  5
275
330
40
100
AcDbEntity
  8
GRIPPER_8
  6
Continuous
 62
     7
100
AcDbCircle
 10
228.1630058961
 20
103.4623400665
 30
0.0
 40
0.7999999999999982
100
AcDbArc
 50
343.0901594311
 51
44.6052299384
  0
ARC
  5
276
330
40
100
AcDbEntity
  8
GRIPPER_8
  6
Continuous
 62
     7
100
AcDbCircle
 10
218.8823985711
 20
106.2837453333
 30
0.0
 40
10.50000000000001
100
AcDbArc
 50
312.3533328584
 51
313.0901594311
  0
ARC
  5
277
330
40
100
AcDbEntity
  8
GRIPPER_8
  6
Continuous
 62
     7
100
AcDbCircle
 10
225.4172953184
 20
99.1154035096
 30
0.0
 40
0.8000000000000091
100
AcDbArc
 50
250.838262351
 51
312.3533328584
  0
ARC
  5
278
330
40
100
AcDbEntity
  8
GRIPPER_8
  6
Continuous
 62
     7
100
AcDbCircle
 10
222.3681772013
 20
98.381620072
 30
0.0
 40
4.045639526347458
100
AcDbArc
 50
14.6052299384
 51
46.5782814306
  0
ARC
  5
279
330
40
100
AcDbEntity
  8
GRIPPER_8
  6
Continuous
 62
     7
100
AcDbCircle
 10
225.5089376436
 20
99.2000330354
 30
0.0
 40
0.8000000000000032
100
AcDbArc
 50
313.0901594311
 51
14.6052299384
  0
ARC
  5
27A
330
40
100
AcDbEntity
  8
GRIPPER_8
  6
Continuous
 62
     7
100
AcDbCircle
 10
224.3878096879
 20
81.897469512
 30
0.0
 40
4.000000000000009
100
AcDbArc
 50
192.7217461447
 51
12.7217461447
  0
LINE
  5
27B
330
40
100
AcDbEntity
  8
GRIPPER_8
  6
Continuous
 62
     7
100
AcDbLine
 10
228.2896138193
 20
82.7783352906
 30
0.0
 11
224.732724073
 21
98.5336154287
 31
0.0
  0
LINE
  5
27C
330
40
100
AcDbEntity
  8
GRIPPER_8
  6
Continuous
 62
     7
100
AcDbLine
 10
216.9291158101
 20
96.7718838714
 30
0.0
 11
220.4860055565
 21
81.0166037333
 31
0.0
  0
CIRCLE
  5
27D
330
40
100
AcDbEntity
  8
GRIPPER_8
  6
Continuous
 62
     7
100
AcDbCircle
 10
218.8823985711
 20
106.2837453333
 30
0.0
 40
1.55
  0
CIRCLE
  5
27E
330
40
100
AcDbEntity
  8
GRIPPER_8
  6
Continuous
 62
     7
100
AcDbCircle
 10
224.3878096879
 20
81.897469512
 30
0.0
 40
1.55
  0
CIRCLE
  5
280
330
40
100
AcDbEntity
  8
GENERAL_SPACER
  6
Continuous
 62
     7
100
AcDbCircle
 10
282.6710613969
 20
148.0232836237
 30
0.0
 40
5.0
  0
CIRCLE
  5
281
330
40
100
AcDbEntity
  8
GENERAL_SPACER
  6
Continuous
 62
     7
100
AcDbCircle
 10
282.6710613969
 20
148.0232836237
 30
0.0
 40
1.55
  0
CIRCLE
  5
283
330
40
100
AcDbEntity
  8
GRIPPER_6
  6
Continuous
 62
     7
100
AcDbCircle
 10
170.3750934938
 20
186.5051510467
 30
0.0
 40
1.5
  0
CIRCLE
  5
284
330
40
100
AcDbEntity
  8
GRIPPER_6
  6
Continuous
 62
     7
100
AcDbCircle
 10
161.3750934938
 20
186.5051510467
 30
0.0
 40
1.5
  0
LINE
  5
285
330
40
100
AcDbEntity
  8
GRIPPER_6
  6
Continuous
 62
     7
100
AcDbLine
 10
161.3750934938
 20
190.5051510467
 30
0.0
 11
170.3750934938
 21
190.5051510467
 31
0.0
  0
ARC
  5
286
330
40
100
AcDbEntity
  8
GRIPPER_6
  6
Continuous
 62
     7
100
AcDbCircle
 10
161.3750934938
 20
186.5051510467
 30
0.0
 40
4.000000000000004
100
AcDbArc
 50
90.0
 51
270.0
  0
LINE
  5
287
330
40
100
AcDbEntity
  8
GRIPPER_6
  6
Continuous
 62
     7
100
AcDbLine
 10
170.3750934938
 20
182.5051510467
 30
0.0
 11
161.3750934938
 21
182.5051510467
 31
0.0
  0
ARC
  5
288
330
40
100
AcDbEntity
  8
GRIPPER_6
  6
Continuous
 62
     7
100
AcDbCircle
 10
170.3750934938
 20
186.5051510467
 30
0.0
 40
4.000000000000004
100
AcDbArc
 50
270.0
 51
90.0
  0
CIRCLE
  5
289
330
40
100
AcDbEntity
  8
GENERAL_SPACER
  6
Continuous
 62
     7
100
AcDbCircle
 10
295.0860784439
 20
148.0001992239
 30
0.0
 40
5.0
  0
CIRCLE
  5
28A
330
40
100
AcDbEntity
  8
GENERAL_SPACER
  6
Continuous
 62
     7
100
AcDbCircle
 10
295.0860784439
 20
148.0001992239
 30
0.0
 40
1.55
  0
CIRCLE
  5
28B
330
40
100
AcDbEntity
  8
GENERAL_SPACER
  6
Continuous
 62
     7
100
AcDbCircle
 10
307.4687311603
 20
148.3569084672
 30
0.0
 40
5.0
  0
CIRCLE
  5
28C
330
40
100
AcDbEntity
  8
GENERAL_SPACER
  6
Continuous
 62
     7
100
AcDbCircle
 10
307.4687311603
 20
148.3569084672
 30
0.0
 40
1.55
  0
LINE
  5
28E
330
40
100
AcDbEntity
  8
GRIPPER_3
  6
Continuous
 62
     7
100
AcDbLine
 10
248.1250934938
 20
247.7896149945
 30
0.0
 11
240.7023548574
 21
247.7896149945
 31
0.0
  0
ARC
  5
28F
330
40
100
AcDbEntity
  8
GRIPPER_3
  6
Continuous
 62
     7
100
AcDbCircle
 10
248.1250934938
 20
242.0396149945
 30
0.0
 40
5.750000000000005
100
AcDbArc
 50
0.0
 51
90.0
  0
ARC
  5
290
330
40
100
AcDbEntity
  8
GRIPPER_3
  6
Continuous
 62
     7
100
AcDbCircle
 10
248.1250934938
 20
211.3396149945
 30
0.0
 40
5.750000000000005
100
AcDbArc
 50
270.0
 51
0.0
  0
LINE
  5
291
330
40
100
AcDbEntity
  8
GRIPPER_3
  6
Continuous
 62
     7
100
AcDbLine
 10
240.7023548574
 20
205.5896149945
 30
0.0
 11
248.1250934938
 21
205.5896149945
 31
0.0
  0
ARC
  5
292
330
40
100
AcDbEntity
  8
GRIPPER_3
  6
Continuous
 62
     7
100
AcDbCircle
 10
240.7023548574
 20
217.6396149945
 30
0.0
 40
12.05
100
AcDbArc
 50
232.2998080573
 51
270.0
  0
LINE
  5
293
330
40
100
AcDbEntity
  8
GRIPPER_3
  6
Continuous
 62
     7
100
AcDbLine
 10
220.2292678502
 20
218.2335075729
 30
0.0
 11
233.3334220832
 21
208.1053961084
 31
0.0
  0
ARC
  5
294
330
40
100
AcDbEntity
  8
GRIPPER_3
  6
Continuous
 62
     7
100
AcDbCircle
 10
223.2869163042
 20
222.1896149945
 30
0.0
 40
5.000000000000004
100
AcDbArc
 50
180.0
 51
232.2998080573
  0
LINE
  5
295
330
40
100
AcDbEntity
  8
GRIPPER_3
  6
Continuous
 62
     7
100
AcDbLine
 10
218.2869163042
 20
231.1896149945
 30
0.0
 11
218.2869163042
 21
222.1896149945
 31
0.0
  0
ARC
  5
296
330
40
100
AcDbEntity
  8
GRIPPER_3
  6
Continuous
 62
     7
100
AcDbCircle
 10
223.2869163042
 20
231.1896149945
 30
0.0
 40
4.999999999999988
100
AcDbArc
 50
127.7001919427
 51
180.0
  0
LINE
  5
297
330
40
100
AcDbEntity
  8
GRIPPER_3
  6
Continuous
 62
     7
100
AcDbLine
 10
233.3334220832
 20
245.2738338807
 30
0.0
 11
220.2292678502
 21
235.1457224162
 31
0.0
  0
ARC
  5
298
330
40
100
AcDbEntity
  8
GRIPPER_3
  6
Continuous
 62
     7
100
AcDbCircle
 10
240.7023548574
 20
235.7396149945
 30
0.0
 40
12.05
100
AcDbArc
 50
90.0
 51
127.7001919427
  0
LINE
  5
299
330
40
100
AcDbEntity
  8
GRIPPER_3
  6
Continuous
 62
     7
100
AcDbLine
 10
286.8750934938
 20
245.0396149945
 30
0.0
 11
279.8750934938
 21
245.0396149945
 31
0.0
  0
LINE
  5
29A
330
40
100
AcDbEntity
  8
GRIPPER_3
  6
Continuous
 62
     7
100
AcDbLine
 10
258.8750934938
 20
245.0396149945
 30
0.0
 11
258.8750934938
 21
242.0396149945
 31
0.0
  0
LINE
  5
29B
330
40
100
AcDbEntity
  8
GRIPPER_3
  6
Continuous
 62
     7
100
AcDbLine
 10
258.8750934938
 20
242.0396149945
 30
0.0
 11
253.8750934938
 21
242.0396149945
 31
0.0
  0
LINE
  5
29C
330
40
100
AcDbEntity
  8
GRIPPER_3
  6
Continuous
 62
     7
100
AcDbLine
 10
253.8750934938
 20
211.3396149945
 30
0.0
 11
258.8750934938
 21
211.3396149945
 31
0.0
  0
LINE
  5
29D
330
40
100
AcDbEntity
  8
GRIPPER_3
  6
Continuous
 62
     7
100
AcDbLine
 10
258.8750934938
 20
211.3396149945
 30
0.0
 11
258.8750934938
 21
208.3396149945
 31
0.0
  0
LINE
  5
29E
330
40
100
AcDbEntity
  8
GRIPPER_3
  6
Continuous
 62
     7
100
AcDbLine
 10
258.8750934938
 20
208.3396149945
 30
0.0
 11
265.8750934938
 21
208.3396149945
 31
0.0
  0
LINE
  5
29F
330
40
100
AcDbEntity
  8
GRIPPER_3
  6
Continuous
 62
     7
100
AcDbLine
 10
286.8750934938
 20
208.3396149945
 30
0.0
 11
286.8750934938
 21
245.0396149945
 31
0.0
  0
LINE
  5
2A0
330
40
100
AcDbEntity
  8
GRIPPER_3
  6
Continuous
 62
     7
100
AcDbLine
 10
265.8750934938
 20
245.0396149945
 30
0.0
 11
258.8750934938
 21
245.0396149945
 31
0.0
  0
LINE
  5
2A1
330
40
100
AcDbEntity
  8
GRIPPER_3
  6
Continuous
 62
     7
100
AcDbLine
 10
279.8750934938
 20
242.0396149945
 30
0.0
 11
274.3750934938
 21
242.0396149945
 31
0.0
  0
LINE
  5
2A2
330
40
100
AcDbEntity
  8
GRIPPER_3
  6
Continuous
 62
     7
100
AcDbLine
 10
265.8750934938
 20
242.0396149945
 30
0.0
 11
265.8750934938
 21
245.0396149945
 31
0.0
  0
LINE
  5
2A3
330
40
100
AcDbEntity
  8
GRIPPER_3
  6
Continuous
 62
     7
100
AcDbLine
 10
279.8750934938
 20
245.0396149945
 30
0.0
 11
279.8750934938
 21
242.0396149945
 31
0.0
  0
LINE
  5
2A4
330
40
100
AcDbEntity
  8
GRIPPER_3
  6
Continuous
 62
     7
100
AcDbLine
 10
279.8750934938
 20
208.3396149945
 30
0.0
 11
286.8750934938
 21
208.3396149945
 31
0.0
  0
LINE
  5
2A5
330
40
100
AcDbEntity
  8
GRIPPER_3
  6
Continuous
 62
     7
100
AcDbLine
 10
279.8750934938
 20
211.3396149945
 30
0.0
 11
274.3750934938
 21
211.3396149945
 31
0.0
  0
LINE
  5
2A6
330
40
100
AcDbEntity
  8
GRIPPER_3
  6
Continuous
 62
     7
100
AcDbLine
 10
265.8750934938
 20
211.3396149945
 30
0.0
 11
265.8750934938
 21
208.3396149945
 31
0.0
  0
LINE
  5
2A7
330
40
100
AcDbEntity
  8
GRIPPER_3
  6
Continuous
 62
     7
100
AcDbLine
 10
279.8750934938
 20
208.3396149945
 30
0.0
 11
279.8750934938
 21
211.3396149945
 31
0.0
  0
CIRCLE
  5
2A8
330
40
100
AcDbEntity
  8
GRIPPER_3
  6
Continuous
 62
     7
100
AcDbCircle
 10
223.2869163042
 20
222.1896149945
 30
0.0
 40
1.3
  0
CIRCLE
  5
2A9
330
40
100
AcDbEntity
  8
GRIPPER_3
  6
Continuous
 62
     7
100
AcDbCircle
 10
240.7023548574
 20
235.7396149945
 30
0.0
 40
1.3
  0
CIRCLE
  5
2AA
330
40
100
AcDbEntity
  8
GRIPPER_3
  6
Continuous
 62
     7
100
AcDbCircle
 10
223.2869163042
 20
231.1896149945
 30
0.0
 40
1.3
  0
CIRCLE
  5
2AB
330
40
100
AcDbEntity
  8
GRIPPER_3
  6
Continuous
 62
     7
100
AcDbCircle
 10
249.9831272933
 20
211.7772551461
 30
0.0
 40
1.3
  0
CIRCLE
  5
2AC
330
40
100
AcDbEntity
  8
GRIPPER_3
  6
Continuous
 62
     7
100
AcDbCircle
 10
241.1651785754
 20
228.6071030482
 30
0.0
 40
1.3
  0
LINE
  5
2AD
330
40
100
AcDbEntity
  8
GRIPPER_3
  6
Continuous
 62
     7
100
AcDbLine
 10
258.5452552071
 20
220.2146697731
 30
0.0
 11
252.9760244379
 21
230.8440473955
 31
0.0
  0
LINE
  5
2AE
330
40
100
AcDbEntity
  8
GRIPPER_3
  6
Continuous
 62
     7
100
AcDbLine
 10
252.9760244379
 20
230.8440473955
 30
0.0
 11
232.6030506616
 21
220.1696884211
 31
0.0
  0
LINE
  5
2AF
330
40
100
AcDbEntity
  8
GRIPPER_3
  6
Continuous
 62
     7
100
AcDbLine
 10
232.6030506616
 20
220.1696884211
 30
0.0
 11
238.1722814309
 21
209.5403107987
 31
0.0
  0
LINE
  5
2B0
330
40
100
AcDbEntity
  8
GRIPPER_3
  6
Continuous
 62
     7
100
AcDbLine
 10
238.1722814309
 20
209.5403107987
 30
0.0
 11
258.5452552071
 21
220.2146697731
 31
0.0
  0
LINE
  5
2B1
330
40
100
AcDbEntity
  8
GRIPPER_3
  6
Continuous
 62
     7
100
AcDbLine
 10
271.3750934938
 20
242.0396149945
 30
0.0
 11
265.8750934938
 21
242.0396149945
 31
0.0
  0
LINE
  5
2B2
330
40
100
AcDbEntity
  8
GRIPPER_3
  6
Continuous
 62
     7
100
AcDbLine
 10
274.3750934938
 20
242.0396149945
 30
0.0
 11
274.3750934938
 21
238.0396149945
 31
0.0
  0
LINE
  5
2B3
330
40
100
AcDbEntity
  8
GRIPPER_3
  6
Continuous
 62
     7
100
AcDbLine
 10
274.3750934938
 20
238.0396149945
 30
0.0
 11
275.6250934938
 21
238.0396149945
 31
0.0
  0
LINE
  5
2B4
330
40
100
AcDbEntity
  8
GRIPPER_3
  6
Continuous
 62
     7
100
AcDbLine
 10
275.6250934938
 20
238.0396149945
 30
0.0
 11
275.6250934938
 21
235.0396149945
 31
0.0
  0
LINE
  5
2B5
330
40
100
AcDbEntity
  8
GRIPPER_3
  6
Continuous
 62
     7
100
AcDbLine
 10
275.6250934938
 20
235.0396149945
 30
0.0
 11
274.3750934938
 21
235.0396149945
 31
0.0
  0
LINE
  5
2B6
330
40
100
AcDbEntity
  8
GRIPPER_3
  6
Continuous
 62
     7
100
AcDbLine
 10
274.3750934938
 20
235.0396149945
 30
0.0
 11
274.3750934938
 21
232.0396149945
 31
0.0
  0
LINE
  5
2B7
330
40
100
AcDbEntity
  8
GRIPPER_3
  6
Continuous
 62
     7
100
AcDbLine
 10
274.3750934938
 20
232.0396149945
 30
0.0
 11
271.3750934938
 21
232.0396149945
 31
0.0
  0
LINE
  5
2B8
330
40
100
AcDbEntity
  8
GRIPPER_3
  6
Continuous
 62
     7
100
AcDbLine
 10
271.3750934938
 20
232.0396149945
 30
0.0
 11
271.3750934938
 21
235.0396149945
 31
0.0
  0
LINE
  5
2B9
330
40
100
AcDbEntity
  8
GRIPPER_3
  6
Continuous
 62
     7
100
AcDbLine
 10
271.3750934938
 20
235.0396149945
 30
0.0
 11
270.1250934938
 21
235.0396149945
 31
0.0
  0
LINE
  5
2BA
330
40
100
AcDbEntity
  8
GRIPPER_3
  6
Continuous
 62
     7
100
AcDbLine
 10
270.1250934938
 20
235.0396149945
 30
0.0
 11
270.1250934938
 21
238.0396149945
 31
0.0
  0
LINE
  5
2BB
330
40
100
AcDbEntity
  8
GRIPPER_3
  6
Continuous
 62
     7
100
AcDbLine
 10
270.1250934938
 20
238.0396149945
 30
0.0
 11
271.3750934938
 21
238.0396149945
 31
0.0
  0
LINE
  5
2BC
330
40
100
AcDbEntity
  8
GRIPPER_3
  6
Continuous
 62
     7
100
AcDbLine
 10
271.3750934938
 20
238.0396149945
 30
0.0
 11
271.3750934938
 21
242.0396149945
 31
0.0
  0
LINE
  5
2BD
330
40
100
AcDbEntity
  8
GRIPPER_3
  6
Continuous
 62
     7
100
AcDbLine
 10
271.3750934938
 20
211.3396149945
 30
0.0
 11
265.8750934938
 21
211.3396149945
 31
0.0
  0
LINE
  5
2BE
330
40
100
AcDbEntity
  8
GRIPPER_3
  6
Continuous
 62
     7
100
AcDbLine
 10
274.3750934938
 20
211.3396149945
 30
0.0
 11
274.3750934938
 21
215.3396149945
 31
0.0
  0
LINE
  5
2BF
330
40
100
AcDbEntity
  8
GRIPPER_3
  6
Continuous
 62
     7
100
AcDbLine
 10
274.3750934938
 20
215.3396149945
 30
0.0
 11
275.6250934938
 21
215.3396149945
 31
0.0
  0
LINE
  5
2C0
330
40
100
AcDbEntity
  8
GRIPPER_3
  6
Continuous
 62
     7
100
AcDbLine
 10
275.6250934938
 20
215.3396149945
 30
0.0
 11
275.6250934938
 21
218.3396149945
 31
0.0
  0
LINE
  5
2C1
330
40
100
AcDbEntity
  8
GRIPPER_3
  6
Continuous
 62
     7
100
AcDbLine
 10
275.6250934938
 20
218.3396149945
 30
0.0
 11
274.3750934938
 21
218.3396149945
 31
0.0
  0
LINE
  5
2C2
330
40
100
AcDbEntity
  8
GRIPPER_3
  6
Continuous
 62
     7
100
AcDbLine
 10
274.3750934938
 20
218.3396149945
 30
0.0
 11
274.3750934938
 21
221.3396149945
 31
0.0
  0
LINE
  5
2C3
330
40
100
AcDbEntity
  8
GRIPPER_3
  6
Continuous
 62
     7
100
AcDbLine
 10
274.3750934938
 20
221.3396149945
 30
0.0
 11
271.3750934938
 21
221.3396149945
 31
0.0
  0
LINE
  5
2C4
330
40
100
AcDbEntity
  8
GRIPPER_3
  6
Continuous
 62
     7
100
AcDbLine
 10
271.3750934938
 20
221.3396149945
 30
0.0
 11
271.3750934938
 21
218.3396149945
 31
0.0
  0
LINE
  5
2C5
330
40
100
AcDbEntity
  8
GRIPPER_3
  6
Continuous
 62
     7
100
AcDbLine
 10
271.3750934938
 20
218.3396149945
 30
0.0
 11
270.1250934938
 21
218.3396149945
 31
0.0
  0
LINE
  5
2C6
330
40
100
AcDbEntity
  8
GRIPPER_3
  6
Continuous
 62
     7
100
AcDbLine
 10
270.1250934938
 20
218.3396149945
 30
0.0
 11
270.1250934938
 21
215.3396149945
 31
0.0
  0
LINE
  5
2C7
330
40
100
AcDbEntity
  8
GRIPPER_3
  6
Continuous
 62
     7
100
AcDbLine
 10
270.1250934938
 20
215.3396149945
 30
0.0
 11
271.3750934938
 21
215.3396149945
 31
0.0
  0
LINE
  5
2C8
330
40
100
AcDbEntity
  8
GRIPPER_3
  6
Continuous
 62
     7
100
AcDbLine
 10
271.3750934938
 20
215.3396149945
 30
0.0
 11
271.3750934938
 21
211.3396149945
 31
0.0
  0
LINE
  5
2CA
330
40
100
AcDbEntity
  8
GRIPPER_4
  6
Continuous
 62
     7
100
AcDbLine
 10
351.8750934938
 20
80.5396149946
 30
0.0
 11
351.8750934938
 21
73.5396149946
 31
0.0
  0
LINE
  5
2CB
330
40
100
AcDbEntity
  8
GRIPPER_4
  6
Continuous
 62
     7
100
AcDbLine
 10
315.1750934938
 20
80.5396149946
 30
0.0
 11
351.8750934938
 21
80.5396149946
 31
0.0
  0
LINE
  5
2CC
330
40
100
AcDbEntity
  8
GRIPPER_4
  6
Continuous
 62
     7
100
AcDbLine
 10
351.8750934938
 20
59.5396149946
 30
0.0
 11
351.8750934938
 21
57.0396149946
 31
0.0
  0
LINE
  5
2CD
330
40
100
AcDbEntity
  8
GRIPPER_4
  6
Continuous
 62
     7
100
AcDbLine
 10
351.8750934938
 20
73.5396149946
 30
0.0
 11
348.8750934938
 21
73.5396149946
 31
0.0
  0
LINE
  5
2CE
330
40
100
AcDbEntity
  8
GRIPPER_4
  6
Continuous
 62
     7
100
AcDbLine
 10
348.8750934938
 20
73.5396149946
 30
0.0
 11
348.8750934938
 21
68.0396149946
 31
0.0
  0
LINE
  5
2CF
330
40
100
AcDbEntity
  8
GRIPPER_4
  6
Continuous
 62
     7
100
AcDbLine
 10
348.8750934938
 20
59.5396149946
 30
0.0
 11
351.8750934938
 21
59.5396149946
 31
0.0
  0
LINE
  5
2D0
330
40
100
AcDbEntity
  8
GRIPPER_4
  6
Continuous
 62
     7
100
AcDbLine
 10
315.1750934938
 20
73.5396149946
 30
0.0
 11
315.1750934938
 21
80.5396149946
 31
0.0
  0
LINE
  5
2D1
330
40
100
AcDbEntity
  8
GRIPPER_4
  6
Continuous
 62
     7
100
AcDbLine
 10
318.1750934938
 20
73.5396149946
 30
0.0
 11
315.1750934938
 21
73.5396149946
 31
0.0
  0
LINE
  5
2D2
330
40
100
AcDbEntity
  8
GRIPPER_4
  6
Continuous
 62
     7
100
AcDbLine
 10
315.1750934938
 20
59.5396149946
 30
0.0
 11
318.1750934938
 21
59.5396149946
 31
0.0
  0
LINE
  5
2D3
330
40
100
AcDbEntity
  8
GRIPPER_4
  6
Continuous
 62
     7
100
AcDbLine
 10
318.1750934938
 20
59.5396149946
 30
0.0
 11
318.1750934938
 21
65.0396149946
 31
0.0
  0
LINE
  5
2D4
330
40
100
AcDbEntity
  8
GRIPPER_4
  6
Continuous
 62
     7
100
AcDbLine
 10
318.1750934938
 20
68.0396149946
 30
0.0
 11
318.1750934938
 21
73.5396149946
 31
0.0
  0
LINE
  5
2D5
330
40
100
AcDbEntity
  8
GRIPPER_4
  6
Continuous
 62
     7
100
AcDbLine
 10
322.1750934938
 20
63.7896149946
 30
0.0
 11
322.1750934938
 21
65.0396149946
 31
0.0
  0
LINE
  5
2D6
330
40
100
AcDbEntity
  8
GRIPPER_4
  6
Continuous
 62
     7
100
AcDbLine
 10
325.1750934938
 20
63.7896149946
 30
0.0
 11
322.1750934938
 21
63.7896149946
 31
0.0
  0
LINE
  5
2D7
330
40
100
AcDbEntity
  8
GRIPPER_4
  6
Continuous
 62
     7
100
AcDbLine
 10
325.1750934938
 20
65.0396149946
 30
0.0
 11
325.1750934938
 21
63.7896149946
 31
0.0
  0
LINE
  5
2D8
330
40
100
AcDbEntity
  8
GRIPPER_4
  6
Continuous
 62
     7
100
AcDbLine
 10
329.1750934938
 20
65.0396149946
 30
0.0
 11
325.1750934938
 21
65.0396149946
 31
0.0
  0
LINE
  5
2D9
330
40
100
AcDbEntity
  8
GRIPPER_4
  6
Continuous
 62
     7
100
AcDbLine
 10
329.1750934938
 20
68.0396149946
 30
0.0
 11
329.1750934938
 21
65.0396149946
 31
0.0
  0
LINE
  5
2DA
330
40
100
AcDbEntity
  8
GRIPPER_4
  6
Continuous
 62
     7
100
AcDbLine
 10
325.1750934938
 20
68.0396149946
 30
0.0
 11
329.1750934938
 21
68.0396149946
 31
0.0
  0
LINE
  5
2DB
330
40
100
AcDbEntity
  8
GRIPPER_4
  6
Continuous
 62
     7
100
AcDbLine
 10
325.1750934938
 20
69.2896149946
 30
0.0
 11
325.1750934938
 21
68.0396149946
 31
0.0
  0
LINE
  5
2DC
330
40
100
AcDbEntity
  8
GRIPPER_4
  6
Continuous
 62
     7
100
AcDbLine
 10
322.1750934938
 20
69.2896149946
 30
0.0
 11
325.1750934938
 21
69.2896149946
 31
0.0
  0
LINE
  5
2DD
330
40
100
AcDbEntity
  8
GRIPPER_4
  6
Continuous
 62
     7
100
AcDbLine
 10
322.1750934938
 20
68.0396149946
 30
0.0
 11
322.1750934938
 21
69.2896149946
 31
0.0
  0
LINE
  5
2DE
330
40
100
AcDbEntity
  8
GRIPPER_4
  6
Continuous
 62
     7
100
AcDbLine
 10
318.1750934938
 20
68.0396149946
 30
0.0
 11
322.1750934938
 21
68.0396149946
 31
0.0
  0
LINE
  5
2DF
330
40
100
AcDbEntity
  8
GRIPPER_4
  6
Continuous
 62
     7
100
AcDbLine
 10
322.1750934938
 20
65.0396149946
 30
0.0
 11
318.1750934938
 21
65.0396149946
 31
0.0
  0
LINE
  5
2E0
330
40
100
AcDbEntity
  8
GRIPPER_4
  6
Continuous
 62
     7
100
AcDbLine
 10
348.8750934938
 20
65.0396149946
 30
0.0
 11
348.8750934938
 21
59.5396149946
 31
0.0
  0
LINE
  5
2E1
330
40
100
AcDbEntity
  8
GRIPPER_4
  6
Continuous
 62
     7
100
AcDbLine
 10
344.8750934938
 20
63.7896149946
 30
0.0
 11
344.8750934938
 21
65.0396149946
 31
0.0
  0
LINE
  5
2E2
330
40
100
AcDbEntity
  8
GRIPPER_4
  6
Continuous
 62
     7
100
AcDbLine
 10
341.8750934938
 20
63.7896149946
 30
0.0
 11
344.8750934938
 21
63.7896149946
 31
0.0
  0
LINE
  5
2E3
330
40
100
AcDbEntity
  8
GRIPPER_4
  6
Continuous
 62
     7
100
AcDbLine
 10
341.8750934938
 20
65.0396149946
 30
0.0
 11
341.8750934938
 21
63.7896149946
 31
0.0
  0
LINE
  5
2E4
330
40
100
AcDbEntity
  8
GRIPPER_4
  6
Continuous
 62
     7
100
AcDbLine
 10
337.8750934938
 20
65.0396149946
 30
0.0
 11
341.8750934938
 21
65.0396149946
 31
0.0
  0
LINE
  5
2E5
330
40
100
AcDbEntity
  8
GRIPPER_4
  6
Continuous
 62
     7
100
AcDbLine
 10
337.8750934938
 20
68.0396149946
 30
0.0
 11
337.8750934938
 21
65.0396149946
 31
0.0
  0
LINE
  5
2E6
330
40
100
AcDbEntity
  8
GRIPPER_4
  6
Continuous
 62
     7
100
AcDbLine
 10
341.8750934938
 20
68.0396149946
 30
0.0
 11
337.8750934938
 21
68.0396149946
 31
0.0
  0
LINE
  5
2E7
330
40
100
AcDbEntity
  8
GRIPPER_4
  6
Continuous
 62
     7
100
AcDbLine
 10
341.8750934938
 20
69.2896149946
 30
0.0
 11
341.8750934938
 21
68.0396149946
 31
0.0
  0
LINE
  5
2E8
330
40
100
AcDbEntity
  8
GRIPPER_4
  6
Continuous
 62
     7
100
AcDbLine
 10
344.8750934938
 20
69.2896149946
 30
0.0
 11
341.8750934938
 21
69.2896149946
 31
0.0
  0
LINE
  5
2E9
330
40
100
AcDbEntity
  8
GRIPPER_4
  6
Continuous
 62
     7
100
AcDbLine
 10
344.8750934938
 20
68.0396149946
 30
0.0
 11
344.8750934938
 21
69.2896149946
 31
0.0
  0
LINE
  5
2EA
330
40
100
AcDbEntity
  8
GRIPPER_4
  6
Continuous
 62
     7
100
AcDbLine
 10
348.8750934938
 20
68.0396149946
 30
0.0
 11
344.8750934938
 21
68.0396149946
 31
0.0
  0
LINE
  5
2EB
330
40
100
AcDbEntity
  8
GRIPPER_4
  6
Continuous
 62
     7
100
AcDbLine
 10
344.8750934938
 20
65.0396149946
 30
0.0
 11
348.8750934938
 21
65.0396149946
 31
0.0
  0
LINE
  5
2EC
330
40
100
AcDbEntity
  8
GRIPPER_4
  6
Continuous
 62
     7
100
AcDbLine
 10
315.1750934938
 20
57.0396149946
 30
0.0
 11
315.1750934938
 21
59.5396149946
 31
0.0
  0
LINE
  5
2ED
330
40
100
AcDbEntity
  8
GRIPPER_4
  6
Continuous
 62
     7
100
AcDbLine
 10
315.1750934938
 20
57.0396149946
 30
0.0
 11
351.8750934938
 21
57.0396149946
 31
0.0
  0
LINE
  5
2EF
330
40
100
AcDbEntity
  8
GRIPPER_10
  6
Continuous
 62
     7
100
AcDbLine
 10
203.5974893054
 20
172.0051510467
 30
0.0
 11
158.5974893054
 21
172.0051510467
 31
0.0
  0
ARC
  5
2F0
330
40
100
AcDbEntity
  8
GRIPPER_10
  6
Continuous
 62
     7
100
AcDbCircle
 10
148.5974893054
 20
172.0051510467
 30
0.0
 40
9.999999999999995
100
AcDbArc
 50
284.8065069119
 51
360.0
  0
LINE
  5
2F1
330
40
100
AcDbEntity
  8
GRIPPER_10
  6
Continuous
 62
     7
100
AcDbLine
 10
151.1530448609
 20
162.3372073252
 30
0.0
 11
150.7819808751
 21
162.2391229075
 31
0.0
  0
ARC
  5
2F2
330
40
100
AcDbEntity
  8
GRIPPER_10
  6
Continuous
 62
     7
100
AcDbCircle
 10
152.0597586529
 20
157.4051510467
 30
0.0
 40
4.999999999999991
100
AcDbArc
 50
104.8065069119
 51
284.8065069119
  0
LINE
  5
2F3
330
40
100
AcDbEntity
  8
GRIPPER_10
  6
Continuous
 62
     7
100
AcDbLine
 10
153.3375364306
 20
152.571179186
 30
0.0
 11
203.5974893054
 21
165.8565380473
 31
0.0
  0
LINE
  5
2F4
330
40
100
AcDbEntity
  8
GRIPPER_10
  6
Continuous
 62
     7
100
AcDbLine
 10
203.5974893054
 20
165.8565380473
 30
0.0
 11
203.5974893054
 21
172.0051510467
 31
0.0
  0
CIRCLE
  5
2F5
330
40
100
AcDbEntity
  8
GRIPPER_10
  6
Continuous
 62
     7
100
AcDbCircle
 10
169.4620573516
 20
162.0051510467
 30
0.0
 40
1.3
  0
CIRCLE
  5
2F6
330
40
100
AcDbEntity
  8
GRIPPER_10
  6
Continuous
 62
     7
100
AcDbCircle
 10
152.0597586529
 20
157.4051510467
 30
0.0
 40
1.3
  0
LINE
  5
2F7
330
40
100
AcDbEntity
  8
GRIPPER_10
  6
Continuous
 62
     7
100
AcDbLine
 10
182.2835929224
 20
153.0396149946
 30
0.0
 11
227.2835929224
 21
153.0396149946
 31
0.0
  0
ARC
  5
2F8
330
40
100
AcDbEntity
  8
GRIPPER_10
  6
Continuous
 62
     7
100
AcDbCircle
 10
237.2835929224
 20
153.0396149946
 30
0.0
 40
9.99999999999998
100
AcDbArc
 50
104.8065069119
 51
180.0
  0
LINE
  5
2F9
330
40
100
AcDbEntity
  8
GRIPPER_10
  6
Continuous
 62
     7
100
AcDbLine
 10
234.7280373668
 20
162.7075587161
 30
0.0
 11
235.0991013526
 21
162.8056431338
 31
0.0
  0
ARC
  5
2FA
330
40
100
AcDbEntity
  8
GRIPPER_10
  6
Continuous
 62
     7
100
AcDbCircle
 10
233.8213235749
 20
167.6396149946
 30
0.0
 40
4.999999999999988
100
AcDbArc
 50
284.8065069119
 51
104.8065069119
  0
LINE
  5
2FB
330
40
100
AcDbEntity
  8
GRIPPER_10
  6
Continuous
 62
     7
100
AcDbLine
 10
232.5435457971
 20
172.4735868553
 30
0.0
 11
182.2835929224
 21
159.188227994
 31
0.0
  0
LINE
  5
2FC
330
40
100
AcDbEntity
  8
GRIPPER_10
  6
Continuous
 62
     7
100
AcDbLine
 10
182.2835929224
 20
159.188227994
 30
0.0
 11
182.2835929224
 21
153.0396149946
 31
0.0
  0
CIRCLE
  5
2FD
330
40
100
AcDbEntity
  8
GRIPPER_10
  6
Continuous
 62
     7
100
AcDbCircle
 10
216.4190248761
 20
163.0396149946
 30
0.0
 40
1.3
  0
CIRCLE
  5
2FE
330
40
100
AcDbEntity
  8
GRIPPER_10
  6
Continuous
 62
     7
100
AcDbCircle
 10
233.8213235749
 20
167.6396149946
 30
0.0
 40
1.3
  0
LINE
  5
300
330
40
100
AcDbEntity
  8
BASE_6
  6
Continuous
 62
     7
100
AcDbLine
 10
274.3750934938
 20
181.5896149945
 30
0.0
 11
260.3750934938
 21
181.5896149945
 31
0.0
  0
ARC
  5
301
330
40
100
AcDbEntity
  8
BASE_6
  6
Continuous
 62
     7
100
AcDbCircle
 10
260.3750934938
 20
194.0896149945
 30
0.0
 40
12.50000000000001
100
AcDbArc
 50
90.0
 51
270.0
  0
LINE
  5
302
330
40
100
AcDbEntity
  8
BASE_6
  6
Continuous
 62
     7
100
AcDbLine
 10
260.3750934938
 20
206.5896149945
 30
0.0
 11
274.3750934938
 21
206.5896149945
 31
0.0
  0
ARC
  5
303
330
40
100
AcDbEntity
  8
BASE_6
  6
Continuous
 62
     7
100
AcDbCircle
 10
274.3750934938
 20
194.0896149945
 30
0.0
 40
12.49999999999998
100
AcDbArc
 50
270.0
 51
90.0
  0
LINE
  5
304
330
40
100
AcDbEntity
  8
BASE_6
  6
Continuous
 62
     7
100
AcDbLine
 10
255.8750934938
 20
188.1896149945
 30
0.0
 11
278.8750934938
 21
188.1896149945
 31
0.0
  0
LINE
  5
305
330
40
100
AcDbEntity
  8
BASE_6
  6
Continuous
 62
     7
100
AcDbLine
 10
255.8750934938
 20
199.9896149945
 30
0.0
 11
255.8750934938
 21
188.1896149945
 31
0.0
  0
LINE
  5
306
330
40
100
AcDbEntity
  8
BASE_6
  6
Continuous
 62
     7
100
AcDbLine
 10
278.8750934938
 20
199.9896149945
 30
0.0
 11
255.8750934938
 21
199.9896149945
 31
0.0
  0
LINE
  5
307
330
40
100
AcDbEntity
  8
BASE_6
  6
Continuous
 62
     7
100
AcDbLine
 10
278.8750934938
 20
188.1896149945
 30
0.0
 11
278.8750934938
 21
191.5896149945
 31
0.0
  0
CIRCLE
  5
308
330
40
100
AcDbEntity
  8
BASE_6
  6
Continuous
 62
     7
100
AcDbCircle
 10
267.3750934938
 20
203.5896149945
 30
0.0
 40
1.5
  0
CIRCLE
  5
309
330
40
100
AcDbEntity
  8
BASE_6
  6
Continuous
 62
     7
100
AcDbCircle
 10
267.3750934938
 20
184.5896149945
 30
0.0
 40
1.5
  0
LINE
  5
30A
330
40
100
AcDbEntity
  8
BASE_6
  6
Continuous
 62
     7
100
AcDbLine
 10
278.8750934938
 20
196.5896149945
 30
0.0
 11
278.8750934938
 21
199.9896149945
 31
0.0
  0
LINE
  5
30B
330
40
100
AcDbEntity
  8
BASE_6
  6
Continuous
 62
     7
100
AcDbLine
 10
280.8750934938
 20
191.5896149945
 30
0.0
 11
280.8750934938
 21
196.5896149945
 31
0.0
  0
LINE
  5
30C
330
40
100
AcDbEntity
  8
BASE_6
  6
Continuous
 62
     7
100
AcDbLine
 10
280.8750934938
 20
196.5896149945
 30
0.0
 11
278.8750934938
 21
196.5896149945
 31
0.0
  0
LINE
  5
30D
330
40
100
AcDbEntity
  8
BASE_6
  6
Continuous
 62
     7
100
AcDbLine
 10
278.8750934938
 20
191.5896149945
 30
0.0
 11
280.8750934938
 21
191.5896149945
 31
0.0
  0
LINE
  5
30E
330
40
100
AcDbEntity
  8
BASE_6
  6
Continuous
 62
     7
100
AcDbLine
 10
255.8750934938
 20
162.1896149945
 30
0.0
 11
255.8750934938
 21
165.5896149945
 31
0.0
  0
LINE
  5
30F
330
40
100
AcDbEntity
  8
BASE_6
  6
Continuous
 62
     7
100
AcDbLine
 10
255.8750934938
 20
173.9896149945
 30
0.0
 11
278.8750934938
 21
173.9896149945
 31
0.0
  0
LINE
  5
310
330
40
100
AcDbEntity
  8
BASE_6
  6
Continuous
 62
     7
100
AcDbLine
 10
278.8750934938
 20
173.9896149945
 30
0.0
 11
278.8750934938
 21
162.1896149945
 31
0.0
  0
LINE
  5
311
330
40
100
AcDbEntity
  8
BASE_6
  6
Continuous
 62
     7
100
AcDbLine
 10
278.8750934938
 20
162.1896149945
 30
0.0
 11
255.8750934938
 21
162.1896149945
 31
0.0
  0
LINE
  5
312
330
40
100
AcDbEntity
  8
BASE_6
  6
Continuous
 62
     7
100
AcDbLine
 10
274.3750934938
 20
180.5896149945
 30
0.0
 11
260.3750934938
 21
180.5896149945
 31
0.0
  0
ARC
  5
313
330
40
100
AcDbEntity
  8
BASE_6
  6
Continuous
 62
     7
100
AcDbCircle
 10
274.3750934938
 20
168.0896149945
 30
0.0
 40
12.5
100
AcDbArc
 50
270.0
 51
90.0
  0
LINE
  5
314
330
40
100
AcDbEntity
  8
BASE_6
  6
Continuous
 62
     7
100
AcDbLine
 10
260.3750934938
 20
155.5896149945
 30
0.0
 11
274.3750934938
 21
155.5896149945
 31
0.0
  0
ARC
  5
315
330
40
100
AcDbEntity
  8
BASE_6
  6
Continuous
 62
     7
100
AcDbCircle
 10
260.3750934938
 20
168.0896149945
 30
0.0
 40
12.5
100
AcDbArc
 50
90.0
 51
270.0
  0
CIRCLE
  5
316
330
40
100
AcDbEntity
  8
BASE_6
  6
Continuous
 62
     7
100
AcDbCircle
 10
267.3750934938
 20
177.5896149945
 30
0.0
 40
1.5
  0
CIRCLE
  5
317
330
40
100
AcDbEntity
  8
BASE_6
  6
Continuous
 62
     7
100
AcDbCircle
 10
267.3750934938
 20
158.5896149945
 30
0.0
 40
1.5
  0
LINE
  5
318
330
40
100
AcDbEntity
  8
BASE_6
  6
Continuous
 62
     7
100
AcDbLine
 10
255.8750934938
 20
170.5896149945
 30
0.0
 11
255.8750934938
 21
173.9896149945
 31
0.0
  0
LINE
  5
319
330
40
100
AcDbEntity
  8
BASE_6
  6
Continuous
 62
     7
100
AcDbLine
 10
253.8750934938
 20
165.5896149945
 30
0.0
 11
253.8750934938
 21
170.5896149945
 31
0.0
  0
LINE
  5
31A
330
40
100
AcDbEntity
  8
BASE_6
  6
Continuous
 62
     7
100
AcDbLine
 10
253.8750934938
 20
170.5896149945
 30
0.0
 11
255.8750934938
 21
170.5896149945
 31
0.0
  0
LINE
  5
31B
330
40
100
AcDbEntity
  8
BASE_6
  6
Continuous
 62
     7
100
AcDbLine
 10
255.8750934938
 20
165.5896149945
 30
0.0
 11
253.8750934938
 21
165.5896149945
 31
0.0
  0
CIRCLE
  5
31C
330
40
100
AcDbEntity
  8
GENERAL_SPACER
  6
Continuous
 62
     7
100
AcDbCircle
 10
270.4633540273
 20
148.7442851311
 30
0.0
 40
5.0
  0
CIRCLE
  5
31D
330
40
100
AcDbEntity
  8
GENERAL_SPACER
  6
Continuous
 62
     7
100
AcDbCircle
 10
270.4633540273
 20
148.7442851311
 30
0.0
 40
1.55
  0
LINE
  5
31F
330
40
100
AcDbEntity
  8
GRIPPER_2
  6
Continuous
 62
     7
100
AcDbLine
 10
183.8750934938
 20
194.0051510467
 30
0.0
 11
183.8750934938
 21
179.0051510467
 31
0.0
  0
ARC
  5
320
330
40
100
AcDbEntity
  8
GRIPPER_2
  6
Continuous
 62
     7
100
AcDbCircle
 10
189.8750934938
 20
194.0051510467
 30
0.0
 40
5.999999999999988
100
AcDbArc
 50
131.1774462707
 51
180.0
  0
LINE
  5
321
330
40
100
AcDbEntity
  8
GRIPPER_2
  6
Continuous
 62
     7
100
AcDbLine
 10
206.3750934938
 20
192.0051510467
 30
0.0
 11
206.3750934938
 21
204.8482967973
 31
0.0
  0
ARC
  5
322
330
40
100
AcDbEntity
  8
GRIPPER_2
  6
Continuous
 62
     7
100
AcDbCircle
 10
212.3750934938
 20
192.0051510467
 30
0.0
 40
6.000000000000033
100
AcDbArc
 50
180.0
 51
270.0
  0
LINE
  5
323
330
40
100
AcDbEntity
  8
GRIPPER_2
  6
Continuous
 62
     7
100
AcDbLine
 10
212.8750934938
 20
186.0051510467
 30
0.0
 11
212.3750934938
 21
186.0051510467
 31
0.0
  0
ARC
  5
324
330
40
100
AcDbEntity
  8
GRIPPER_2
  6
Continuous
 62
     7
100
AcDbCircle
 10
212.8750934938
 20
180.0051510467
 30
0.0
 40
6.000000000000033
100
AcDbArc
 50
0.0
 51
90.0
  0
LINE
  5
325
330
40
100
AcDbEntity
  8
GRIPPER_2
  6
Continuous
 62
     7
100
AcDbLine
 10
218.8750934938
 20
179.0051510467
 30
0.0
 11
218.8750934938
 21
180.0051510467
 31
0.0
  0
ARC
  5
326
330
40
100
AcDbEntity
  8
GRIPPER_2
  6
Continuous
 62
     7
100
AcDbCircle
 10
212.8750934938
 20
179.0051510467
 30
0.0
 40
6.00000000000002
100
AcDbArc
 50
270.0
 51
0.0
  0
LINE
  5
327
330
40
100
AcDbEntity
  8
GRIPPER_2
  6
Continuous
 62
     7
100
AcDbLine
 10
189.8750934938
 20
173.0051510467
 30
0.0
 11
212.8750934938
 21
173.0051510467
 31
0.0
  0
ARC
  5
328
330
40
100
AcDbEntity
  8
GRIPPER_2
  6
Continuous
 62
     7
100
AcDbCircle
 10
189.8750934938
 20
179.0051510467
 30
0.0
 40
6.00000000000002
100
AcDbArc
 50
180.0
 51
270.0
  0
CIRCLE
  5
329
330
40
100
AcDbEntity
  8
GRIPPER_2
  6
Continuous
 62
     7
100
AcDbCircle
 10
189.8750934938
 20
194.0051510467
 30
0.0
 40
1.55
  0
LINE
  5
32A
330
40
100
AcDbEntity
  8
GRIPPER_2
  6
Continuous
 62
     7
100
AcDbLine
 10
201.3750934938
 20
199.0051510467
 30
0.0
 11
198.3750934938
 21
199.0051510467
 31
0.0
  0
LINE
  5
32B
330
40
100
AcDbEntity
  8
GRIPPER_2
  6
Continuous
 62
     7
100
AcDbLine
 10
198.3750934938
 20
199.0051510467
 30
0.0
 11
198.3750934938
 21
206.0051510467
 31
0.0
  0
LINE
  5
32C
330
40
100
AcDbEntity
  8
GRIPPER_2
  6
Continuous
 62
     7
100
AcDbLine
 10
198.3750934938
 20
206.0051510467
 30
0.0
 11
201.3750934938
 21
206.0051510467
 31
0.0
  0
LINE
  5
32D
330
40
100
AcDbEntity
  8
GRIPPER_2
  6
Continuous
 62
     7
100
AcDbLine
 10
201.3750934938
 20
206.0051510467
 30
0.0
 11
201.3750934938
 21
199.0051510467
 31
0.0
  0
LINE
  5
32E
330
40
100
AcDbEntity
  8
GRIPPER_2
  6
Continuous
 62
     7
100
AcDbLine
 10
198.3750934938
 20
185.0051510467
 30
0.0
 11
201.3750934938
 21
185.0051510467
 31
0.0
  0
LINE
  5
32F
330
40
100
AcDbEntity
  8
GRIPPER_2
  6
Continuous
 62
     7
100
AcDbLine
 10
201.3750934938
 20
185.0051510467
 30
0.0
 11
201.3750934938
 21
178.0051510467
 31
0.0
  0
LINE
  5
330
330
40
100
AcDbEntity
  8
GRIPPER_2
  6
Continuous
 62
     7
100
AcDbLine
 10
201.3750934938
 20
178.0051510467
 30
0.0
 11
198.3750934938
 21
178.0051510467
 31
0.0
  0
LINE
  5
331
330
40
100
AcDbEntity
  8
GRIPPER_2
  6
Continuous
 62
     7
100
AcDbLine
 10
198.3750934938
 20
178.0051510467
 30
0.0
 11
198.3750934938
 21
185.0051510467
 31
0.0
  0
LINE
  5
332
330
40
100
AcDbEntity
  8
GRIPPER_2
  6
Continuous
 62
     7
100
AcDbLine
 10
206.8750934938
 20
178.0051510467
 30
0.0
 11
206.8750934938
 21
181.0051510467
 31
0.0
  0
LINE
  5
333
330
40
100
AcDbEntity
  8
GRIPPER_2
  6
Continuous
 62
     7
100
AcDbLine
 10
206.8750934938
 20
181.0051510467
 30
0.0
 11
213.8750934938
 21
181.0051510467
 31
0.0
  0
LINE
  5
334
330
40
100
AcDbEntity
  8
GRIPPER_2
  6
Continuous
 62
     7
100
AcDbLine
 10
213.8750934938
 20
181.0051510467
 30
0.0
 11
213.8750934938
 21
178.0051510467
 31
0.0
  0
LINE
  5
335
330
40
100
AcDbEntity
  8
GRIPPER_2
  6
Continuous
 62
     7
100
AcDbLine
 10
213.8750934938
 20
178.0051510467
 30
0.0
 11
206.8750934938
 21
178.0051510467
 31
0.0
  0
LINE
  5
336
330
40
100
AcDbEntity
  8
GRIPPER_2
  6
Continuous
 62
     7
100
AcDbLine
 10
192.8750934938
 20
181.0051510467
 30
0.0
 11
192.8750934938
 21
178.0051510467
 31
0.0
  0
LINE
  5
337
330
40
100
AcDbEntity
  8
GRIPPER_2
  6
Continuous
 62
     7
100
AcDbLine
 10
192.8750934938
 20
178.0051510467
 30
0.0
 11
185.8750934938
 21
178.0051510467
 31
0.0
  0
LINE
  5
338
330
40
100
AcDbEntity
  8
GRIPPER_2
  6
Continuous
 62
     7
100
AcDbLine
 10
185.8750934938
 20
178.0051510467
 30
0.0
 11
185.8750934938
 21
181.0051510467
 31
0.0
  0
LINE
  5
339
330
40
100
AcDbEntity
  8
GRIPPER_2
  6
Continuous
 62
     7
100
AcDbLine
 10
185.8750934938
 20
181.0051510467
 30
0.0
 11
192.8750934938
 21
181.0051510467
 31
0.0
  0
CIRCLE
  5
33A
330
40
100
AcDbEntity
  8
GRIPPER_2
  6
Continuous
 62
     7
100
AcDbCircle
 10
199.8750934938
 20
192.0051510467
 30
0.0
 40
1.55
  0
LINE
  5
33B
330
40
100
AcDbEntity
  8
GRIPPER_2
  6
Continuous
 62
     7
100
AcDbLine
 10
197.6729605332
 20
208.7978247362
 30
0.0
 11
185.9247341086
 21
198.5211958569
 31
0.0
  0
ARC
  5
33C
330
40
100
AcDbEntity
  8
GRIPPER_2
  6
Continuous
 62
     7
100
AcDbCircle
 10
201.1277656595
 20
204.8482967973
 30
0.0
 40
5.247327834329346
100
AcDbArc
 50
0.0
 51
131.1774462707
  0
LINE
  5
33E
330
40
100
AcDbEntity
  8
PLATFORM_
  6
Continuous
 62
     7
100
AcDbLine
 10
195.8750934938
 20
151.0396149946
 30
0.0
 11
70.8750934938
 21
151.0396149946
 31
0.0
  0
ARC
  5
33F
330
40
100
AcDbEntity
  8
PLATFORM_
  6
Continuous
 62
     7
100
AcDbCircle
 10
195.8750934938
 20
141.0396149946
 30
0.0
 40
10.00000000000001
100
AcDbArc
 50
0.0
 51
90.0
  0
LINE
  5
340
330
40
100
AcDbEntity
  8
PLATFORM_
  6
Continuous
 62
     7
100
AcDbLine
 10
60.8750934938
 20
141.0396149946
 30
0.0
 11
60.8750934938
 21
66.0396149946
 31
0.0
  0
ARC
  5
341
330
40
100
AcDbEntity
  8
PLATFORM_
  6
Continuous
 62
     7
100
AcDbCircle
 10
70.8750934938
 20
141.0396149946
 30
0.0
 40
9.999999999999995
100
AcDbArc
 50
90.0
 51
180.0
  0
LINE
  5
342
330
40
100
AcDbEntity
  8
PLATFORM_
  6
Continuous
 62
     7
100
AcDbLine
 10
70.8750934938
 20
56.0396149946
 30
0.0
 11
195.8750934938
 21
56.0396149946
 31
0.0
  0
ARC
  5
343
330
40
100
AcDbEntity
  8
PLATFORM_
  6
Continuous
 62
     7
100
AcDbCircle
 10
70.8750934938
 20
66.0396149946
 30
0.0
 40
10.0
100
AcDbArc
 50
180.0
 51
270.0
  0
LINE
  5
344
330
40
100
AcDbEntity
  8
PLATFORM_
  6
Continuous
 62
     7
100
AcDbLine
 10
205.8750934938
 20
66.0396149946
 30
0.0
 11
205.8750934938
 21
141.0396149946
 31
0.0
  0
ARC
  5
345
330
40
100
AcDbEntity
  8
PLATFORM_
  6
Continuous
 62
     7
100
AcDbCircle
 10
195.8750934938
 20
66.0396149946
 30
0.0
 40
10.0
100
AcDbArc
 50
270.0
 51
0.0
  0
CIRCLE
  5
346
330
40
100
AcDbEntity
  8
PLATFORM_
  6
Continuous
 62
     7
100
AcDbCircle
 10
185.8750934938
 20
125.5396149946
 30
0.0
 40
1.55
  0
CIRCLE
  5
347
330
40
100
AcDbEntity
  8
PLATFORM_
  6
Continuous
 62
     7
100
AcDbCircle
 10
185.8750934938
 20
81.5396149946
 30
0.0
 40
1.55
  0
CIRCLE
  5
348
330
40
100
AcDbEntity
  8
PLATFORM_
  6
Continuous
 62
     7
100
AcDbCircle
 10
141.8750934938
 20
81.5396149946
 30
0.0
 40
1.55
  0
CIRCLE
  5
349
330
40
100
AcDbEntity
  8
PLATFORM_
  6
Continuous
 62
     7
100
AcDbCircle
 10
141.8750934938
 20
125.5396149946
 30
0.0
 40
1.55
  0
CIRCLE
  5
34A
330
40
100
AcDbEntity
  8
PLATFORM_
  6
Continuous
 62
     7
100
AcDbCircle
 10
104.3750934938
 20
71.7396149946
 30
0.0
 40
1.3
  0
CIRCLE
  5
34B
330
40
100
AcDbEntity
  8
PLATFORM_
  6
Continuous
 62
     7
100
AcDbCircle
 10
76.4750934938
 20
71.7396149946
 30
0.0
 40
1.3
  0
CIRCLE
  5
34C
330
40
100
AcDbEntity
  8
PLATFORM_
  6
Continuous
 62
     7
100
AcDbCircle
 10
71.3750934938
 20
123.8396149946
 30
0.0
 40
1.3
  0
CIRCLE
  5
34D
330
40
100
AcDbEntity
  8
PLATFORM_
  6
Continuous
 62
     7
100
AcDbCircle
 10
119.5750934938
 20
122.5396149946
 30
0.0
 40
1.3
  0
LINE
  5
34E
330
40
100
AcDbEntity
  8
BASE_6
  6
Continuous
 62
     7
100
AcDbLine
 10
215.0743023567
 20
198.0123971901
 30
0.0
 11
217.3279929725
 21
200.5581541715
 31
0.0
  0
LINE
  5
34F
330
40
100
AcDbEntity
  8
BASE_6
  6
Continuous
 62
     7
100
AcDbLine
 10
222.8959344939
 20
206.8476714196
 30
0.0
 11
240.1172317209
 21
191.6021172539
 31
0.0
  0
LINE
  5
350
330
40
100
AcDbEntity
  8
BASE_6
  6
Continuous
 62
     7
100
AcDbLine
 10
240.1172317209
 20
191.6021172539
 30
0.0
 11
232.2955995837
 21
182.7668430244
 31
0.0
  0
LINE
  5
351
330
40
100
AcDbEntity
  8
BASE_6
  6
Continuous
 62
     7
100
AcDbLine
 10
232.2955995837
 20
182.7668430244
 30
0.0
 11
215.0743023567
 21
198.0123971901
 31
0.0
  0
LINE
  5
352
330
40
100
AcDbEntity
  8
BASE_6
  6
Continuous
 62
     7
100
AcDbLine
 10
241.1226586762
 20
199.526706621
 30
0.0
 11
230.6401299294
 21
208.8066091566
 31
0.0
  0
ARC
  5
353
330
40
100
AcDbEntity
  8
BASE_6
  6
Continuous
 62
     7
100
AcDbCircle
 10
232.8370314122
 20
190.1673059542
 30
0.0
 40
12.49999999999999
100
AcDbArc
 50
228.482392234
 51
48.482392234
  0
LINE
  5
354
330
40
100
AcDbEntity
  8
BASE_6
  6
Continuous
 62
     7
100
AcDbLine
 10
214.0688754014
 20
190.087807823
 30
0.0
 11
224.5514041482
 21
180.8079052873
 31
0.0
  0
ARC
  5
355
330
40
100
AcDbEntity
  8
BASE_6
  6
Continuous
 62
     7
100
AcDbCircle
 10
222.3545026654
 20
199.4472084898
 30
0.0
 40
12.49999999999999
100
AcDbArc
 50
48.482392234
 51
228.482392234
  0
CIRCLE
  5
356
330
40
100
AcDbEntity
  8
BASE_6
  6
Continuous
 62
     7
100
AcDbCircle
 10
233.8928437594
 20
201.9204017288
 30
0.0
 40
1.5
  0
CIRCLE
  5
357
330
40
100
AcDbEntity
  8
BASE_6
  6
Continuous
 62
     7
100
AcDbCircle
 10
221.2986903182
 20
187.6941127152
 30
0.0
 40
1.5
  0
LINE
  5
358
330
40
100
AcDbEntity
  8
BASE_6
  6
Continuous
 62
     7
100
AcDbLine
 10
220.6422438781
 20
204.3019144382
 30
0.0
 11
222.8959344939
 21
206.8476714196
 31
0.0
  0
LINE
  5
359
330
40
100
AcDbEntity
  8
BASE_6
  6
Continuous
 62
     7
100
AcDbLine
 10
215.8304888658
 20
201.8838545337
 30
0.0
 11
219.1447397714
 21
205.6276148005
 31
0.0
  0
LINE
  5
35A
330
40
100
AcDbEntity
  8
BASE_6
  6
Continuous
 62
     7
100
AcDbLine
 10
219.1447397714
 20
205.6276148005
 30
0.0
 11
220.6422438781
 21
204.3019144382
 31
0.0
  0
LINE
  5
35B
330
40
100
AcDbEntity
  8
BASE_6
  6
Continuous
 62
     7
100
AcDbLine
 10
217.3279929725
 20
200.5581541715
 30
0.0
 11
215.8304888658
 21
201.8838545337
 31
0.0
  0
LINE
  5
35C
330
40
100
AcDbEntity
  8
GRIPPER_5_
  6
Continuous
 62
     7
100
AcDbLine
 10
213.3750934938
 20
147.5396149946
 30
0.0
 11
216.7750934938
 21
147.5396149946
 31
0.0
  0
LINE
  5
35D
330
40
100
AcDbEntity
  8
GRIPPER_5_
  6
Continuous
 62
     7
100
AcDbLine
 10
225.1750934938
 20
147.5396149946
 30
0.0
 11
225.1750934938
 21
124.5396149946
 31
0.0
  0
LINE
  5
35E
330
40
100
AcDbEntity
  8
GRIPPER_5_
  6
Continuous
 62
     7
100
AcDbLine
 10
225.1750934938
 20
124.5396149946
 30
0.0
 11
213.3750934938
 21
124.5396149946
 31
0.0
  0
LINE
  5
35F
330
40
100
AcDbEntity
  8
GRIPPER_5_
  6
Continuous
 62
     7
100
AcDbLine
 10
213.3750934938
 20
124.5396149946
 30
0.0
 11
213.3750934938
 21
147.5396149946
 31
0.0
  0
CIRCLE
  5
360
330
40
100
AcDbEntity
  8
GRIPPER_5_
  6
Continuous
 62
     7
100
AcDbCircle
 10
228.7750934938
 20
136.0396149946
 30
0.0
 40
1.5
  0
CIRCLE
  5
361
330
40
100
AcDbEntity
  8
GRIPPER_5_
  6
Continuous
 62
     7
100
AcDbCircle
 10
209.7750934938
 20
136.0396149946
 30
0.0
 40
1.5
  0
LINE
  5
362
330
40
100
AcDbEntity
  8
GRIPPER_5_
  6
Continuous
 62
     7
100
AcDbLine
 10
224.6750934938
 20
120.0396149946
 30
0.0
 11
213.8750934938
 21
120.0396149946
 31
0.0
  0
ARC
  5
363
330
40
100
AcDbEntity
  8
GRIPPER_5_
  6
Continuous
 62
     7
100
AcDbCircle
 10
224.6750934938
 20
123.0396149946
 30
0.0
 40
3.000000000000003
100
AcDbArc
 50
270.0
 51
0.0
  0
LINE
  5
364
330
40
100
AcDbEntity
  8
GRIPPER_5_
  6
Continuous
 62
     7
100
AcDbLine
 10
227.6750934938
 20
130.3483936845
 30
0.0
 11
227.6750934938
 21
123.0396149946
 31
0.0
  0
ARC
  5
365
330
40
100
AcDbEntity
  8
GRIPPER_5_
  6
Continuous
 62
     7
100
AcDbCircle
 10
228.7750934938
 20
136.0396149946
 30
0.0
 40
2.999999999999997
100
AcDbArc
 50
288.4614582968
 51
71.5385417032
  0
ARC
  5
366
330
40
100
AcDbEntity
  8
GRIPPER_5_
  6
Continuous
 62
     7
100
AcDbCircle
 10
230.6750934938
 20
130.3483936845
 30
0.0
 40
3.000000000000003
100
AcDbArc
 50
108.4614582968
 51
180.0
  0
LINE
  5
367
330
40
100
AcDbEntity
  8
GRIPPER_5_
  6
Continuous
 62
     7
100
AcDbLine
 10
210.8750934938
 20
123.0396149946
 30
0.0
 11
210.8750934938
 21
130.0396149946
 31
0.0
  0
ARC
  5
368
330
40
100
AcDbEntity
  8
GRIPPER_5_
  6
Continuous
 62
     7
100
AcDbCircle
 10
213.8750934938
 20
123.0396149946
 30
0.0
 40
3.000000000000003
100
AcDbArc
 50
180.0
 51
270.0
  0
LINE
  5
369
330
40
100
AcDbEntity
  8
GRIPPER_5_
  6
Continuous
 62
     7
100
AcDbLine
 10
210.8750934938
 20
149.0396149946
 30
0.0
 11
210.8750934938
 21
142.0396149946
 31
0.0
  0
ARC
  5
36A
330
40
100
AcDbEntity
  8
GRIPPER_5_
  6
Continuous
 62
     7
100
AcDbCircle
 10
213.8750934938
 20
149.0396149946
 30
0.0
 40
3.000000000000003
100
AcDbArc
 50
90.0
 51
180.0
  0
ARC
  5
36B
330
40
100
AcDbEntity
  8
GRIPPER_5_
  6
Continuous
 62
     7
100
AcDbCircle
 10
207.8750934938
 20
130.0396149946
 30
0.0
 40
2.999999999999997
100
AcDbArc
 50
0.0
 51
71.5385417032
  0
ARC
  5
36C
330
40
100
AcDbEntity
  8
GRIPPER_5_
  6
Continuous
 62
     7
100
AcDbCircle
 10
209.7750934938
 20
135.7308363046
 30
0.0
 40
3.000000000000003
100
AcDbArc
 50
180.0
 51
251.5385417032
  0
LINE
  5
36D
330
40
100
AcDbEntity
  8
GRIPPER_5_
  6
Continuous
 62
     7
100
AcDbLine
 10
224.6750934938
 20
152.0396149946
 30
0.0
 11
213.8750934938
 21
152.0396149946
 31
0.0
  0
ARC
  5
36E
330
40
100
AcDbEntity
  8
GRIPPER_5_
  6
Continuous
 62
     7
100
AcDbCircle
 10
224.6750934938
 20
149.0396149946
 30
0.0
 40
2.999999999999975
100
AcDbArc
 50
0.0
 51
90.0
  0
ARC
  5
36F
330
40
100
AcDbEntity
  8
GRIPPER_5_
  6
Continuous
 62
     7
100
AcDbCircle
 10
207.8750934938
 20
142.0396149946
 30
0.0
 40
3.000000000000003
100
AcDbArc
 50
288.4614582968
 51
0.0
  0
LINE
  5
370
330
40
100
AcDbEntity
  8
GRIPPER_5_
  6
Continuous
 62
     7
100
AcDbLine
 10
227.6750934938
 20
141.7308363046
 30
0.0
 11
227.6750934938
 21
149.0396149946
 31
0.0
  0
ARC
  5
371
330
40
100
AcDbEntity
  8
GRIPPER_5_
  6
Continuous
 62
     7
100
AcDbCircle
 10
230.6750934938
 20
141.7308363046
 30
0.0
 40
3.000000000000002
100
AcDbArc
 50
180.0
 51
251.5385417032
  0
LINE
  5
372
330
40
100
AcDbEntity
  8
GRIPPER_5_
  6
Continuous
 62
     7
100
AcDbLine
 10
206.7750934938
 20
136.3483936845
 30
0.0
 11
206.7750934938
 21
135.7308363046
 31
0.0
  0
ARC
  5
373
330
40
100
AcDbEntity
  8
GRIPPER_5_
  6
Continuous
 62
     7
100
AcDbCircle
 10
209.7750934938
 20
136.3483936845
 30
0.0
 40
2.999999999999997
100
AcDbArc
 50
108.4614582968
 51
180.0
  0
LINE
  5
374
330
40
100
AcDbEntity
  8
GRIPPER_5_
  6
Continuous
 62
     7
100
AcDbLine
 10
221.7750934938
 20
147.5396149946
 30
0.0
 11
225.1750934938
 21
147.5396149946
 31
0.0
  0
LINE
  5
375
330
40
100
AcDbEntity
  8
GRIPPER_5_
  6
Continuous
 62
     7
100
AcDbLine
 10
216.7750934938
 20
147.5396149946
 30
0.0
 11
216.7750934938
 21
149.5396149946
 31
0.0
  0
LINE
  5
376
330
40
100
AcDbEntity
  8
GRIPPER_5_
  6
Continuous
 62
     7
100
AcDbLine
 10
216.7750934938
 20
149.5396149946
 30
0.0
 11
221.7750934938
 21
149.5396149946
 31
0.0
  0
LINE
  5
377
330
40
100
AcDbEntity
  8
GRIPPER_5_
  6
Continuous
 62
     7
100
AcDbLine
 10
221.7750934938
 20
149.5396149946
 30
0.0
 11
221.7750934938
 21
147.5396149946
 31
0.0
  0
ENDBLK
  5
379
330
40
100
AcDbEntity
  8
0
100
AcDbBlockEnd
  0
ENDSEC
  0
SECTION
  2
ENTITIES
  0
INSERT
  5
41
330
1F
100
AcDbEntity
  8
Default
100
AcDbBlockReference
  2
SE
 10
0.0
 20
0.0
 30
0.0
  0
ENDSEC
  0
SECTION
  2
OBJECTS
  0
DICTIONARY
  5
C
330
0
100
AcDbDictionary
281
     1
  3
ACAD_GROUP
350
D
  3
ACAD_LAYOUT
350
1A
  3
ACAD_MATERIAL
350
3B
  3
ACAD_MLEADERSTYLE
350
37C
  3
ACAD_MLINESTYLE
350
17
  3
ACAD_PLOTSETTINGS
350
19
  3
ACAD_PLOTSTYLENAME
350
E
  3
ACAD_VISUALSTYLE
350
2A
  3
AcDbVariableDictionary
350
37A
  0
DICTIONARY
  5
D
102
{ACAD_REACTORS
330
C
102
}
330
C
100
AcDbDictionary
281
     1
  0
DICTIONARY
  5
1A
102
{ACAD_REACTORS
330
C
102
}
330
C
100
AcDbDictionary
281
     1
  3
Layout1
350
1E
  3
Model
350
22
  0
DICTIONARY
  5
3B
102
{ACAD_REACTORS
330
C
102
}
330
C
100
AcDbDictionary
281
     1
  3
ByBlock
350
3D
  3
ByLayer
350
3C
  3
Global
350
3E
  0
DICTIONARY
  5
37C
102
{ACAD_REACTORS
330
C
102
}
330
C
100
AcDbDictionary
281
     1
  0
DICTIONARY
  5
17
102
{ACAD_REACTORS
330
C
102
}
330
C
100
AcDbDictionary
281
     1
  3
Standard
350
18
  0
DICTIONARY
  5
19
102
{ACAD_REACTORS
330
C
102
}
330
C
100
AcDbDictionary
281
     1
  0
ACDBDICTIONARYWDFLT
  5
E
102
{ACAD_REACTORS
330
C
102
}
330
C
100
AcDbDictionary
281
     1
  3
Normal
350
F
100
AcDbDictionaryWithDefault
340
F
  0
DICTIONARY
  5
2A
102
{ACAD_REACTORS
330
C
102
}
330
C
100
AcDbDictionary
281
     1
  3
2dWireframe
350
2F
  3
3D Hidden
350
31
  3
3dWireframe
350
30
  3
Basic
350
32
  3
Brighten
350
36
  3
ColorChange
350
3A
  3
Conceptual
350
34
  3
Dim
350
35
  3
Facepattern
350
39
  3
Flat
350
2B
  3
FlatWithEdges
350
2C
  3
Gouraud
350
2D
  3
GouraudWithEdges
350
2E
  3
Linepattern
350
38
  3
Realistic
350
33
  3
Thicken
350
37
  0
DICTIONARY
  5
37A
102
{ACAD_REACTORS
330
C
102
}
330
C
100
AcDbDictionary
281
     1
  3
DIMASSOC
350
37F
  3
HIDETEXT
350
380
  3
PSOLHEIGHT
350
37E
  3
PSOLWIDTH
350
37D
  0
LAYOUT
  5
1E
102
{ACAD_REACTORS
330
1A
102
}
330
1A
100
AcDbPlotSettings
  1

  2
none_device
  4

  6

 40
0.0
 41
0.0
 42
0.0
 43
0.0
 44
0.0
 45
0.0
 46
0.0
 47
0.0
 48
0.0
 49
0.0
140
0.0
141
0.0
142
1.0
143
1.0
 70
   688
 72
     0
 73
     0
 74
     5
  7

 75
    16
147
1.0
148
0.0
149
0.0
100
AcDbLayout
  1
Layout1
 70
     1
 71
     1
 10
0.0
 20
0.0
 11
420.0
 21
297.0
 12
0.0
 22
0.0
 32
0.0
 14
0.0
 24
0.0
 34
0.0
 15
420.0
 25
297.0
 35
0.0
146
0.0
 13
0.0
 23
0.0
 33
0.0
 16
1.0
 26
0.0
 36
0.0
 17
0.0
 27
1.0
 37
0.0
 76
     0
330
1B
  0
LAYOUT
  5
22
102
{ACAD_REACTORS
330
1A
102
}
330
1A
100
AcDbPlotSettings
  1

  2
none_device
  4

  6

 40
0.0
 41
0.0
 42
0.0
 43
0.0
 44
0.0
 45
0.0
 46
0.0
 47
0.0
 48
0.0
 49
0.0
140
0.0
141
0.0
142
1.0
143
1.0
 70
  1712
 72
     0
 73
     0
 74
     0
  7

 75
     0
147
1.0
148
0.0
149
0.0
100
AcDbLayout
  1
Model
 70
     1
 71
     0
 10
0.0
 20
0.0
 11
420.0
 21
297.0
 12
0.0
 22
0.0
 32
0.0
 14
0.0
 24
0.0
 34
0.0
 15
420.0
 25
297.0
 35
0.0
146
0.0
 13
0.0
 23
0.0
 33
0.0
 16
1.0
 26
0.0
 36
0.0
 17
0.0
 27
1.0
 37
0.0
 76
     0
330
1F
331
29
  0
MATERIAL
  5
3D
102
{ACAD_REACTORS
330
3B
102
}
102
{ACAD_XDICTIONARY
360
3A3
102
}
330
3B
100
AcDbMaterial
  1
ByBlock
  0
MATERIAL
  5
3C
102
{ACAD_REACTORS
330
3B
102
}
102
{ACAD_XDICTIONARY
360
3A1
102
}
330
3B
100
AcDbMaterial
  1
ByLayer
  0
MATERIAL
  5
3E
102
{ACAD_REACTORS
330
3B
102
}
102
{ACAD_XDICTIONARY
360
3A5
102
}
330
3B
100
AcDbMaterial
  1
Global
  0
MLINESTYLE
  5
18
102
{ACAD_REACTORS
330
17
102
}
330
17
100
AcDbMlineStyle
  2
Standard
 70
     0
  3

 62
   256
 51
90.0
 52
90.0
 71
     2
 49
0.5
 62
   256
  6
BYLAYER
 49
-0.5
 62
   256
  6
BYLAYER
  0
ACDBPLACEHOLDER
  5
F
102
{ACAD_REACTORS
330
E
102
}
330
E
  0
VISUALSTYLE
  5
2F
102
{ACAD_REACTORS
330
2A
102
}
102
{ACAD_XDICTIONARY
360
389
102
}
330
2A
100
AcDbVisualStyle
  2
2dWireframe
 70
     4
 71
     0
 72
     2
 73
     0
 90
        0
 40
-0.6
 41
-30.0
 62
     5
 63
     7
 74
     1
 91
        4
 64
     7
 65
   257
 75
     1
175
     1
 42
1.0
 92
        0
 66
   257
 43
1.0
 76
     1
 77
     6
 78
     2
 67
     7
 79
     5
170
     0
171
     0
290
     0
174
     0
 93
        1
 44
0.0
173
     0
291
     0
 45
0.0
1001
ACAD
1000
AcDbSavedByObjectVersion
1070
     0
  0
VISUALSTYLE
  5
31
102
{ACAD_REACTORS
330
2A
102
}
102
{ACAD_XDICTIONARY
360
38D
102
}
330
2A
100
AcDbVisualStyle
  2
3D Hidden
 70
     6
 71
     1
 72
     2
 73
     2
 90
        0
 40
-0.6
 41
-30.0
 62
     5
 63
     7
 74
     2
 91
        2
 64
     7
 65
   257
 75
     2
175
     1
 42
40.0
 92
        0
 66
   257
 43
1.0
 76
     1
 77
     6
 78
     2
 67
     7
 79
     3
170
     0
171
     0
290
     0
174
     0
 93
        1
 44
0.0
173
     0
291
     0
 45
0.0
1001
ACAD
1000
AcDbSavedByObjectVersion
1070
     0
  0
VISUALSTYLE
  5
30
102
{ACAD_REACTORS
330
2A
102
}
102
{ACAD_XDICTIONARY
360
38B
102
}
330
2A
100
AcDbVisualStyle
  2
3dWireframe
 70
     5
 71
     0
 72
     2
 73
     0
 90
        0
 40
-0.6
 41
-30.0
 62
     5
 63
     7
 74
     1
 91
        4
 64
     7
 65
   257
 75
     1
175
     1
 42
1.0
 92
        0
 66
   257
 43
1.0
 76
     1
 77
     6
 78
     2
 67
     7
 79
     5
170
     0
171
     0
290
     0
174
     0
 93
        1
 44
0.0
173
     0
291
     0
 45
0.0
1001
ACAD
1000
AcDbSavedByObjectVersion
1070
     0
  0
VISUALSTYLE
  5
32
102
{ACAD_REACTORS
330
2A
102
}
102
{ACAD_XDICTIONARY
360
38F
102
}
330
2A
100
AcDbVisualStyle
  2
Basic
 70
     7
 71
     1
 72
     0
 73
     1
 90
        0
 40
-0.6
 41
-30.0
 62
     5
 63
     7
 74
     0
 91
        4
 64
     7
 65
   257
 75
     1
175
     1
 42
1.0
 92
        8
 66
     7
 43
1.0
 76
     1
 77
     6
 78
     2
 67
     7
 79
     5
170
     0
171
     0
290
     0
174
     0
 93
        1
 44
0.0
173
     0
291
     1
 45
0.0
1001
ACAD
1000
AcDbSavedByObjectVersion
1070
     0
  0
VISUALSTYLE
  5
36
102
{ACAD_REACTORS
330
2A
102
}
102
{ACAD_XDICTIONARY
360
397
102
}
330
2A
100
AcDbVisualStyle
  2
Brighten
 70
    12
 71
     2
 72
     2
 73
     0
 90
        0
 40
-0.6
 41
-30.0
 62
     5
 63
     7
 74
     1
 91
        4
 64
     7
 65
   257
 75
     1
175
     1
 42
1.0
 92
        8
 66
     7
 43
1.0
 76
     1
 77
     6
 78
     2
 67
     7
 79
     5
170
     0
171
     0
290
     0
174
     0
 93
        1
 44
50.0
173
     0
291
     1
 45
0.0
1001
ACAD
1000
AcDbSavedByObjectVersion
1070
     0
  0
VISUALSTYLE
  5
3A
102
{ACAD_REACTORS
330
2A
102
}
102
{ACAD_XDICTIONARY
360
39F
102
}
330
2A
100
AcDbVisualStyle
  2
ColorChange
 70
    16
 71
     2
 72
     2
 73
     3
 90
        0
 40
-0.6
 41
-30.0
 62
     5
 63
     8
 74
     1
 91
        4
 64
     7
 65
   257
 75
     1
175
     1
 42
1.0
 92
        8
 66
     8
 43
1.0
 76
     1
 77
     6
 78
     2
 67
     7
 79
     5
170
     0
171
     0
290
     0
174
     0
 93
        1
 44
0.0
173
     0
291
     1
 45
0.0
1001
ACAD
1000
AcDbSavedByObjectVersion
1070
     0
  0
VISUALSTYLE
  5
34
102
{ACAD_REACTORS
330
2A
102
}
102
{ACAD_XDICTIONARY
360
393
102
}
330
2A
100
AcDbVisualStyle
  2
Conceptual
 70
     9
 71
     3
 72
     2
 73
     0
 90
        0
 40
-0.6
 41
-30.0
 62
     5
 63
     7
 74
     2
 91
        2
 64
     7
 65
   257
 75
     1
175
     1
 42
40.0
 92
        8
 66
     7
 43
1.0
 76
     1
 77
     6
 78
     2
 67
     7
 79
     3
170
     0
171
     0
290
     0
174
     0
 93
        1
 44
0.0
173
     0
291
     0
 45
0.0
1001
ACAD
1000
AcDbSavedByObjectVersion
1070
     0
  0
VISUALSTYLE
  5
35
102
{ACAD_REACTORS
330
2A
102
}
102
{ACAD_XDICTIONARY
360
395
102
}
330
2A
100
AcDbVisualStyle
  2
Dim
 70
    11
 71
     2
 72
     2
 73
     0
 90
        0
 40
-0.6
 41
-30.0
 62
     5
 63
     7
 74
     1
 91
        4
 64
     7
 65
   257
 75
     1
175
     1
 42
1.0
 92
        8
 66
     7
 43
1.0
 76
     1
 77
     6
 78
     2
 67
     7
 79
     5
170
     0
171
     0
290
     0
174
     0
 93
        1
 44
-50.0
173
     0
291
     1
 45
0.0
1001
ACAD
1000
AcDbSavedByObjectVersion
1070
     0
  0
VISUALSTYLE
  5
39
102
{ACAD_REACTORS
330
2A
102
}
102
{ACAD_XDICTIONARY
360
39D
102
}
330
2A
100
AcDbVisualStyle
  2
Facepattern
 70
    15
 71
     2
 72
     2
 73
     0
 90
        0
 40
-0.6
 41
-30.0
 62
     5
 63
     7
 74
     1
 91
        4
 64
     7
 65
   257
 75
     1
175
     1
 42
1.0
 92
        8
 66
     7
 43
1.0
 76
     1
 77
     6
 78
     2
 67
     7
 79
     5
170
     0
171
     0
290
     0
174
     0
 93
        1
 44
0.0
173
     0
291
     1
 45
0.0
1001
ACAD
1000
AcDbSavedByObjectVersion
1070
     0
  0
VISUALSTYLE
  5
2B
102
{ACAD_REACTORS
330
2A
102
}
102
{ACAD_XDICTIONARY
360
381
102
}
330
2A
100
AcDbVisualStyle
  2
Flat
 70
     0
 71
     2
 72
     1
 73
     1
 90
        2
 40
-0.6
 41
30.0
 62
     5
 63
     7
 74
     0
 91
        4
 64
     7
 65
   257
 75
     1
175
     1
 42
1.0
 92
        8
 66
     7
 43
1.0
 76
     1
 77
     6
 78
     2
 67
     7
 79
     5
170
     0
171
     0
290
     0
174
     0
 93
       13
 44
0.0
173
     0
291
     1
 45
0.0
1001
ACAD
1000
AcDbSavedByObjectVersion
1070
     0
  0
VISUALSTYLE
  5
2C
102
{ACAD_REACTORS
330
2A
102
}
102
{ACAD_XDICTIONARY
360
383
102
}
330
2A
100
AcDbVisualStyle
  2
FlatWithEdges
 70
     1
 71
     2
 72
     1
 73
     1
 90
        2
 40
-0.6
 41
30.0
 62
     5
 63
     7
 74
     1
 91
        4
 64
     7
 65
   257
 75
     1
175
     1
 42
1.0
 92
        0
 66
   257
 43
1.0
 76
     1
 77
     6
 78
     2
 67
     7
 79
     5
170
     0
171
     0
290
     0
174
     0
 93
       13
 44
0.0
173
     0
291
     1
 45
0.0
1001
ACAD
1000
AcDbSavedByObjectVersion
1070
     0
  0
VISUALSTYLE
  5
2D
102
{ACAD_REACTORS
330
2A
102
}
102
{ACAD_XDICTIONARY
360
385
102
}
330
2A
100
AcDbVisualStyle
  2
Gouraud
 70
     2
 71
     2
 72
     2
 73
     1
 90
        2
 40
-0.6
 41
30.0
 62
     5
 63
     7
 74
     0
 91
        4
 64
     7
 65
   257
 75
     1
175
     1
 42
1.0
 92
        0
 66
     7
 43
1.0
 76
     1
 77
     6
 78
     2
 67
     7
 79
     5
170
     0
171
     0
290
     0
174
     0
 93
       13
 44
0.0
173
     0
291
     1
 45
0.0
1001
ACAD
1000
AcDbSavedByObjectVersion
1070
     0
  0
VISUALSTYLE
  5
2E
102
{ACAD_REACTORS
330
2A
102
}
102
{ACAD_XDICTIONARY
360
387
102
}
330
2A
100
AcDbVisualStyle
  2
GouraudWithEdges
 70
     3
 71
     2
 72
     2
 73
     1
 90
        2
 40
-0.6
 41
30.0
 62
     5
 63
     7
 74
     1
 91
        4
 64
     7
 65
   257
 75
     1
175
     1
 42
1.0
 92
        0
 66
   257
 43
1.0
 76
     1
 77
     6
 78
     2
 67
     7
 79
     5
170
     0
171
     0
290
     0
174
     0
 93
       13
 44
0.0
173
     0
291
     1
 45
0.0
1001
ACAD
1000
AcDbSavedByObjectVersion
1070
     0
  0
VISUALSTYLE
  5
38
102
{ACAD_REACTORS
330
2A
102
}
102
{ACAD_XDICTIONARY
360
39B
102
}
330
2A
100
AcDbVisualStyle
  2
Linepattern
 70
    14
 71
     2
 72
     2
 73
     0
 90
        0
 40
-0.6
 41
-30.0
 62
     5
 63
     7
 74
     1
 91
        4
 64
     7
 65
   257
 75
     7
175
     7
 42
1.0
 92
        8
 66
     7
 43
1.0
 76
     1
 77
     6
 78
     2
 67
     7
 79
     5
170
     0
171
     0
290
     0
174
     0
 93
        1
 44
0.0
173
     0
291
     1
 45
0.0
1001
ACAD
1000
AcDbSavedByObjectVersion
1070
     0
  0
VISUALSTYLE
  5
33
102
{ACAD_REACTORS
330
2A
102
}
102
{ACAD_XDICTIONARY
360
391
102
}
330
2A
100
AcDbVisualStyle
  2
Realistic
 70
     8
 71
     2
 72
     2
 73
     0
 90
        0
 40
-0.6
 41
-30.0
 62
     5
 63
     7
 74
     1
 91
        0
 64
     7
 65
   257
 75
     1
175
     1
 42
1.0
 92
        8
 66
     8
 43
1.0
 76
     1
 77
     6
 78
     2
 67
     7
 79
     5
170
     0
171
     0
290
     0
174
     0
 93
       13
 44
0.0
173
     0
291
     0
 45
0.0
1001
ACAD
1000
AcDbSavedByObjectVersion
1070
     0
  0
VISUALSTYLE
  5
37
102
{ACAD_REACTORS
330
2A
102
}
102
{ACAD_XDICTIONARY
360
399
102
}
330
2A
100
AcDbVisualStyle
  2
Thicken
 70
    13
 71
     2
 72
     2
 73
     0
 90
        0
 40
-0.6
 41
-30.0
 62
     5
 63
     7
 74
     1
 91
        4
 64
     7
 65
   257
 75
     1
175
     1
 42
1.0
 92
       12
 66
     7
 43
1.0
 76
     1
 77
     6
 78
     2
 67
     7
 79
     5
170
     0
171
     0
290
     0
174
     0
 93
        1
 44
0.0
173
     0
291
     1
 45
0.0
1001
ACAD
1000
AcDbSavedByObjectVersion
1070
     0
  0
DICTIONARYVAR
  5
37F
102
{ACAD_REACTORS
330
37A
102
}
330
37A
100
DictionaryVariables
280
     0
  1
2
  0
DICTIONARYVAR
  5
380
102
{ACAD_REACTORS
330
37A
102
}
330
37A
100
DictionaryVariables
280
     0
  1
1
  0
DICTIONARYVAR
  5
37E
102
{ACAD_REACTORS
330
37A
102
}
330
37A
100
DictionaryVariables
280
     0
  1
80.000000
  0
DICTIONARYVAR
  5
37D
102
{ACAD_REACTORS
330
37A
102
}
330
37A
100
DictionaryVariables
280
     0
  1
5.000000
  0
DICTIONARY
  5
3A3
330
3D
100
AcDbDictionary
280
     1
281
     1
  3
ACAD_XREC_ROUNDTRIP
360
3A4
  0
DICTIONARY
  5
3A1
330
3C
100
AcDbDictionary
280
     1
281
     1
  3
ACAD_XREC_ROUNDTRIP
360
3A2
  0
DICTIONARY
  5
3A5
330
3E
100
AcDbDictionary
280
     1
281
     1
  3
ACAD_XREC_ROUNDTRIP
360
3A6
  0
DICTIONARY
  5
389
330
2F
100
AcDbDictionary
280
     1
281
     1
  3
ACAD_XREC_ROUNDTRIP
360
38A
  0
DICTIONARY
  5
38D
330
31
100
AcDbDictionary
280
     1
281
     1
  3
ACAD_XREC_ROUNDTRIP
360
38E
  0
DICTIONARY
  5
38B
330
30
100
AcDbDictionary
280
     1
281
     1
  3
ACAD_XREC_ROUNDTRIP
360
38C
  0
DICTIONARY
  5
38F
330
32
100
AcDbDictionary
280
     1
281
     1
  3
ACAD_XREC_ROUNDTRIP
360
390
  0
DICTIONARY
  5
397
330
36
100
AcDbDictionary
280
     1
281
     1
  3
ACAD_XREC_ROUNDTRIP
360
398
  0
DICTIONARY
  5
39F
330
3A
100
AcDbDictionary
280
     1
281
     1
  3
ACAD_XREC_ROUNDTRIP
360
3A0
  0
DICTIONARY
  5
393
330
34
100
AcDbDictionary
280
     1
281
     1
  3
ACAD_XREC_ROUNDTRIP
360
394
  0
DICTIONARY
  5
395
330
35
100
AcDbDictionary
280
     1
281
     1
  3
ACAD_XREC_ROUNDTRIP
360
396
  0
DICTIONARY
  5
39D
330
39
100
AcDbDictionary
280
     1
281
     1
  3
ACAD_XREC_ROUNDTRIP
360
39E
  0
DICTIONARY
  5
381
330
2B
100
AcDbDictionary
280
     1
281
     1
  3
ACAD_XREC_ROUNDTRIP
360
382
  0
DICTIONARY
  5
383
330
2C
100
AcDbDictionary
280
     1
281
     1
  3
ACAD_XREC_ROUNDTRIP
360
384
  0
DICTIONARY
  5
385
330
2D
100
AcDbDictionary
280
     1
281
     1
  3
ACAD_XREC_ROUNDTRIP
360
386
  0
DICTIONARY
  5
387
330
2E
100
AcDbDictionary
280
     1
281
     1
  3
ACAD_XREC_ROUNDTRIP
360
388
  0
DICTIONARY
  5
39B
330
38
100
AcDbDictionary
280
     1
281
     1
  3
ACAD_XREC_ROUNDTRIP
360
39C
  0
DICTIONARY
  5
391
330
33
100
AcDbDictionary
280
     1
281
     1
  3
ACAD_XREC_ROUNDTRIP
360
392
  0
DICTIONARY
  5
399
330
37
100
AcDbDictionary
280
     1
281
     1
  3
ACAD_XREC_ROUNDTRIP
360
39A
  0
XRECORD
  5
3A4
102
{ACAD_REACTORS
330
3A3
102
}
330
3A3
100
AcDbXrecord
280
     1
102
MATERIAL
148
0.0
149
0.0
149
0.0
 93
        0
 94
      127
282
     0
 72
     1
 77
     1
171
     1
175
     1
179
     1
273
     0
  0
XRECORD
  5
3A2
102
{ACAD_REACTORS
330
3A1
102
}
330
3A1
100
AcDbXrecord
280
     1
102
MATERIAL
148
0.0
149
0.0
149
0.0
 93
        0
 94
      127
282
     0
 72
     1
 77
     1
171
     1
175
     1
179
     1
273
     0
  0
XRECORD
  5
3A6
102
{ACAD_REACTORS
330
3A5
102
}
330
3A5
100
AcDbXrecord
280
     1
102
MATERIAL
148
0.0
149
0.0
149
0.0
 93
        0
 94
      127
282
     0
 72
     1
 77
     1
171
     1
175
     1
179
     1
273
     0
  0
XRECORD
  5
38A
102
{ACAD_REACTORS
330
389
102
}
330
389
100
AcDbXrecord
280
     1
102
RTVSPropertyOp0
 70
     1
102
RTVSPropertyOp1
 70
     1
102
RTVSPropertyOp2
 70
     1
102
RTVSPropertyOp3
 70
     1
102
RTVSPropertyOp4
 70
     1
102
RTVSPropertyOp5
 70
     1
102
RTVSPropertyOp6
 70
     1
102
RTVSPropertyOp7
 70
     1
102
RTVSPropertyOp8
 70
     1
102
RTVSPropertyOp9
 70
     1
102
RTVSPropertyOp10
 70
     1
102
RTVSPropertyOp11
 70
     1
102
RTVSPropertyOp12
 70
     1
102
RTVSPropertyOp13
 70
     1
102
RTVSPropertyOp14
 70
     1
102
RTVSPropertyOp15
 70
     1
102
RTVSPropertyOp16
 70
     1
102
RTVSPropertyOp17
 70
     1
102
RTVSPropertyOp18
 70
     1
102
RTVSPropertyOp19
 70
     1
102
RTVSPropertyOp20
 70
     1
102
RTVSPropertyOp21
 70
     1
102
RTVSPropertyOp22
 70
     1
102
RTVSPropertyOp23
 70
     1
102
RTVSPropertyOp24
 70
     1
102
RTVSPropertyOp25
 70
     1
102
RTVSPropertyOp26
 70
     1
102
RTVSPropertyOp27
 70
     1
102
RTVSPropertyOp28
 70
     1
102
RTVSPropertyOp29
 70
     1
102
RTVSPropertyOp30
 70
     1
102
RTVSPropertyOp31
 70
     1
102
RTVSPropertyOp32
 70
     1
  0
XRECORD
  5
38E
102
{ACAD_REACTORS
330
38D
102
}
330
38D
100
AcDbXrecord
280
     1
102
RTVSPropertyOp0
 70
     1
102
RTVSPropertyOp1
 70
     1
102
RTVSPropertyOp2
 70
     1
102
RTVSPropertyOp3
 70
     1
102
RTVSPropertyOp4
 70
     1
102
RTVSPropertyOp5
 70
     1
102
RTVSPropertyOp6
 70
     1
102
RTVSPropertyOp7
 70
     1
102
RTVSPropertyOp8
 70
     1
102
RTVSPropertyOp9
 70
     1
102
RTVSPropertyOp10
 70
     1
102
RTVSPropertyOp11
 70
     1
102
RTVSPropertyOp12
 70
     1
102
RTVSPropertyOp13
 70
     1
102
RTVSPropertyOp14
 70
     1
102
RTVSPropertyOp15
 70
     1
102
RTVSPropertyOp16
 70
     1
102
RTVSPropertyOp17
 70
     1
102
RTVSPropertyOp18
 70
     1
102
RTVSPropertyOp19
 70
     1
102
RTVSPropertyOp20
 70
     1
102
RTVSPropertyOp21
 70
     1
102
RTVSPropertyOp22
 70
     1
102
RTVSPropertyOp23
 70
     1
102
RTVSPropertyOp24
 70
     1
102
RTVSPropertyOp25
 70
     1
102
RTVSPropertyOp26
 70
     1
102
RTVSPropertyOp27
 70
     1
102
RTVSPropertyOp28
 70
     1
102
RTVSPropertyOp29
 70
     1
102
RTVSPropertyOp30
 70
     1
102
RTVSPropertyOp31
 70
     1
102
RTVSPropertyOp32
 70
     1
  0
XRECORD
  5
38C
102
{ACAD_REACTORS
330
38B
102
}
330
38B
100
AcDbXrecord
280
     1
102
RTVSPropertyOp0
 70
     1
102
RTVSPropertyOp1
 70
     1
102
RTVSPropertyOp2
 70
     1
102
RTVSPropertyOp3
 70
     1
102
RTVSPropertyOp4
 70
     1
102
RTVSPropertyOp5
 70
     1
102
RTVSPropertyOp6
 70
     1
102
RTVSPropertyOp7
 70
     1
102
RTVSPropertyOp8
 70
     1
102
RTVSPropertyOp9
 70
     1
102
RTVSPropertyOp10
 70
     1
102
RTVSPropertyOp11
 70
     1
102
RTVSPropertyOp12
 70
     1
102
RTVSPropertyOp13
 70
     1
102
RTVSPropertyOp14
 70
     1
102
RTVSPropertyOp15
 70
     1
102
RTVSPropertyOp16
 70
     1
102
RTVSPropertyOp17
 70
     1
102
RTVSPropertyOp18
 70
     1
102
RTVSPropertyOp19
 70
     1
102
RTVSPropertyOp20
 70
     1
102
RTVSPropertyOp21
 70
     1
102
RTVSPropertyOp22
 70
     1
102
RTVSPropertyOp23
 70
     1
102
RTVSPropertyOp24
 70
     1
102
RTVSPropertyOp25
 70
     1
102
RTVSPropertyOp26
 70
     1
102
RTVSPropertyOp27
 70
     1
102
RTVSPropertyOp28
 70
     1
102
RTVSPropertyOp29
 70
     1
102
RTVSPropertyOp30
 70
     1
102
RTVSPropertyOp31
 70
     1
102
RTVSPropertyOp32
 70
     1
  0
XRECORD
  5
390
102
{ACAD_REACTORS
330
38F
102
}
330
38F
100
AcDbXrecord
280
     1
102
RTVSPropertyOp0
 70
     1
102
RTVSPropertyOp1
 70
     1
102
RTVSPropertyOp2
 70
     1
102
RTVSPropertyOp3
 70
     1
102
RTVSPropertyOp4
 70
     1
102
RTVSPropertyOp5
 70
     1
102
RTVSPropertyOp6
 70
     1
102
RTVSPropertyOp7
 70
     1
102
RTVSPropertyOp8
 70
     1
102
RTVSPropertyOp9
 70
     1
102
RTVSPropertyOp10
 70
     1
102
RTVSPropertyOp11
 70
     1
102
RTVSPropertyOp12
 70
     1
102
RTVSPropertyOp13
 70
     1
102
RTVSPropertyOp14
 70
     1
102
RTVSPropertyOp15
 70
     1
102
RTVSPropertyOp16
 70
     1
102
RTVSPropertyOp17
 70
     1
102
RTVSPropertyOp18
 70
     1
102
RTVSPropertyOp19
 70
     1
102
RTVSPropertyOp20
 70
     1
102
RTVSPropertyOp21
 70
     1
102
RTVSPropertyOp22
 70
     1
102
RTVSPropertyOp23
 70
     1
102
RTVSPropertyOp24
 70
     1
102
RTVSPropertyOp25
 70
     1
102
RTVSPropertyOp26
 70
     1
102
RTVSPropertyOp27
 70
     1
102
RTVSPropertyOp28
 70
     1
102
RTVSPropertyOp29
 70
     1
102
RTVSPropertyOp30
 70
     1
102
RTVSPropertyOp31
 70
     1
102
RTVSPropertyOp32
 70
     1
  0
XRECORD
  5
398
102
{ACAD_REACTORS
330
397
102
}
330
397
100
AcDbXrecord
280
     1
102
RTVSPropertyOp0
 70
     1
102
RTVSPropertyOp1
 70
     1
102
RTVSPropertyOp2
 70
     1
102
RTVSPropertyOp3
 70
     1
102
RTVSPropertyOp4
 70
     1
102
RTVSPropertyOp5
 70
     1
102
RTVSPropertyOp6
 70
     1
102
RTVSPropertyOp7
 70
     1
102
RTVSPropertyOp8
 70
     1
102
RTVSPropertyOp9
 70
     1
102
RTVSPropertyOp10
 70
     1
102
RTVSPropertyOp11
 70
     1
102
RTVSPropertyOp12
 70
     1
102
RTVSPropertyOp13
 70
     1
102
RTVSPropertyOp14
 70
     1
102
RTVSPropertyOp15
 70
     1
102
RTVSPropertyOp16
 70
     1
102
RTVSPropertyOp17
 70
     1
102
RTVSPropertyOp18
 70
     1
102
RTVSPropertyOp19
 70
     1
102
RTVSPropertyOp20
 70
     1
102
RTVSPropertyOp21
 70
     1
102
RTVSPropertyOp22
 70
     1
102
RTVSPropertyOp23
 70
     1
102
RTVSPropertyOp24
 70
     1
102
RTVSPropertyOp25
 70
     1
102
RTVSPropertyOp26
 70
     1
102
RTVSPropertyOp27
 70
     1
102
RTVSPropertyOp28
 70
     1
102
RTVSPropertyOp29
 70
     1
102
RTVSPropertyOp30
 70
     1
102
RTVSPropertyOp31
 70
     1
102
RTVSPropertyOp32
 70
     1
  0
XRECORD
  5
3A0
102
{ACAD_REACTORS
330
39F
102
}
330
39F
100
AcDbXrecord
280
     1
102
RTVSPropertyOp0
 70
     1
102
RTVSPropertyOp1
 70
     1
102
RTVSPropertyOp2
 70
     1
102
RTVSPropertyOp3
 70
     1
102
RTVSPropertyOp4
 70
     1
102
RTVSPropertyOp5
 70
     1
102
RTVSPropertyOp6
 70
     1
102
RTVSPropertyOp7
 70
     1
102
RTVSPropertyOp8
 70
     1
102
RTVSPropertyOp9
 70
     1
102
RTVSPropertyOp10
 70
     1
102
RTVSPropertyOp11
 70
     1
102
RTVSPropertyOp12
 70
     1
102
RTVSPropertyOp13
 70
     1
102
RTVSPropertyOp14
 70
     1
102
RTVSPropertyOp15
 70
     1
102
RTVSPropertyOp16
 70
     1
102
RTVSPropertyOp17
 70
     1
102
RTVSPropertyOp18
 70
     1
102
RTVSPropertyOp19
 70
     1
102
RTVSPropertyOp20
 70
     1
102
RTVSPropertyOp21
 70
     1
102
RTVSPropertyOp22
 70
     1
102
RTVSPropertyOp23
 70
     1
102
RTVSPropertyOp24
 70
     1
102
RTVSPropertyOp25
 70
     1
102
RTVSPropertyOp26
 70
     1
102
RTVSPropertyOp27
 70
     1
102
RTVSPropertyOp28
 70
     1
102
RTVSPropertyOp29
 70
     1
102
RTVSPropertyOp30
 70
     1
102
RTVSPropertyOp31
 70
     1
102
RTVSPropertyOp32
 70
     1
  0
XRECORD
  5
394
102
{ACAD_REACTORS
330
393
102
}
330
393
100
AcDbXrecord
280
     1
102
RTVSPropertyOp0
 70
     1
102
RTVSPropertyOp1
 70
     1
102
RTVSPropertyOp2
 70
     1
102
RTVSPropertyOp3
 70
     1
102
RTVSPropertyOp4
 70
     1
102
RTVSPropertyOp5
 70
     1
102
RTVSPropertyOp6
 70
     1
102
RTVSPropertyOp7
 70
     1
102
RTVSPropertyOp8
 70
     1
102
RTVSPropertyOp9
 70
     1
102
RTVSPropertyOp10
 70
     1
102
RTVSPropertyOp11
 70
     1
102
RTVSPropertyOp12
 70
     1
102
RTVSPropertyOp13
 70
     1
102
RTVSPropertyOp14
 70
     1
102
RTVSPropertyOp15
 70
     1
102
RTVSPropertyOp16
 70
     1
102
RTVSPropertyOp17
 70
     1
102
RTVSPropertyOp18
 70
     1
102
RTVSPropertyOp19
 70
     1
102
RTVSPropertyOp20
 70
     1
102
RTVSPropertyOp21
 70
     1
102
RTVSPropertyOp22
 70
     1
102
RTVSPropertyOp23
 70
     1
102
RTVSPropertyOp24
 70
     1
102
RTVSPropertyOp25
 70
     1
102
RTVSPropertyOp26
 70
     1
102
RTVSPropertyOp27
 70
     1
102
RTVSPropertyOp28
 70
     1
102
RTVSPropertyOp29
 70
     1
102
RTVSPropertyOp30
 70
     1
102
RTVSPropertyOp31
 70
     1
102
RTVSPropertyOp32
 70
     1
  0
XRECORD
  5
396
102
{ACAD_REACTORS
330
395
102
}
330
395
100
AcDbXrecord
280
     1
102
RTVSPropertyOp0
 70
     1
102
RTVSPropertyOp1
 70
     1
102
RTVSPropertyOp2
 70
     1
102
RTVSPropertyOp3
 70
     1
102
RTVSPropertyOp4
 70
     1
102
RTVSPropertyOp5
 70
     1
102
RTVSPropertyOp6
 70
     1
102
RTVSPropertyOp7
 70
     1
102
RTVSPropertyOp8
 70
     1
102
RTVSPropertyOp9
 70
     1
102
RTVSPropertyOp10
 70
     1
102
RTVSPropertyOp11
 70
     1
102
RTVSPropertyOp12
 70
     1
102
RTVSPropertyOp13
 70
     1
102
RTVSPropertyOp14
 70
     1
102
RTVSPropertyOp15
 70
     1
102
RTVSPropertyOp16
 70
     1
102
RTVSPropertyOp17
 70
     1
102
RTVSPropertyOp18
 70
     1
102
RTVSPropertyOp19
 70
     1
102
RTVSPropertyOp20
 70
     1
102
RTVSPropertyOp21
 70
     1
102
RTVSPropertyOp22
 70
     1
102
RTVSPropertyOp23
 70
     1
102
RTVSPropertyOp24
 70
     1
102
RTVSPropertyOp25
 70
     1
102
RTVSPropertyOp26
 70
     1
102
RTVSPropertyOp27
 70
     1
102
RTVSPropertyOp28
 70
     1
102
RTVSPropertyOp29
 70
     1
102
RTVSPropertyOp30
 70
     1
102
RTVSPropertyOp31
 70
     1
102
RTVSPropertyOp32
 70
     1
  0
XRECORD
  5
39E
102
{ACAD_REACTORS
330
39D
102
}
330
39D
100
AcDbXrecord
280
     1
102
RTVSPropertyOp0
 70
     1
102
RTVSPropertyOp1
 70
     1
102
RTVSPropertyOp2
 70
     1
102
RTVSPropertyOp3
 70
     1
102
RTVSPropertyOp4
 70
     1
102
RTVSPropertyOp5
 70
     1
102
RTVSPropertyOp6
 70
     1
102
RTVSPropertyOp7
 70
     1
102
RTVSPropertyOp8
 70
     1
102
RTVSPropertyOp9
 70
     1
102
RTVSPropertyOp10
 70
     1
102
RTVSPropertyOp11
 70
     1
102
RTVSPropertyOp12
 70
     1
102
RTVSPropertyOp13
 70
     1
102
RTVSPropertyOp14
 70
     1
102
RTVSPropertyOp15
 70
     1
102
RTVSPropertyOp16
 70
     1
102
RTVSPropertyOp17
 70
     1
102
RTVSPropertyOp18
 70
     1
102
RTVSPropertyOp19
 70
     1
102
RTVSPropertyOp20
 70
     1
102
RTVSPropertyOp21
 70
     1
102
RTVSPropertyOp22
 70
     1
102
RTVSPropertyOp23
 70
     1
102
RTVSPropertyOp24
 70
     1
102
RTVSPropertyOp25
 70
     1
102
RTVSPropertyOp26
 70
     1
102
RTVSPropertyOp27
 70
     1
102
RTVSPropertyOp28
 70
     1
102
RTVSPropertyOp29
 70
     1
102
RTVSPropertyOp30
 70
     1
102
RTVSPropertyOp31
 70
     1
102
RTVSPropertyOp32
 70
     1
  0
XRECORD
  5
382
102
{ACAD_REACTORS
330
381
102
}
330
381
100
AcDbXrecord
280
     1
102
RTVSPropertyOp0
 70
     1
102
RTVSPropertyOp1
 70
     1
102
RTVSPropertyOp2
 70
     1
102
RTVSPropertyOp3
 70
     1
102
RTVSPropertyOp4
 70
     1
102
RTVSPropertyOp5
 70
     1
102
RTVSPropertyOp6
 70
     1
102
RTVSPropertyOp7
 70
     1
102
RTVSPropertyOp8
 70
     1
102
RTVSPropertyOp9
 70
     1
102
RTVSPropertyOp10
 70
     1
102
RTVSPropertyOp11
 70
     1
102
RTVSPropertyOp12
 70
     1
102
RTVSPropertyOp13
 70
     1
102
RTVSPropertyOp14
 70
     1
102
RTVSPropertyOp15
 70
     1
102
RTVSPropertyOp16
 70
     1
102
RTVSPropertyOp17
 70
     1
102
RTVSPropertyOp18
 70
     1
102
RTVSPropertyOp19
 70
     1
102
RTVSPropertyOp20
 70
     1
102
RTVSPropertyOp21
 70
     1
102
RTVSPropertyOp22
 70
     1
102
RTVSPropertyOp23
 70
     1
102
RTVSPropertyOp24
 70
     1
102
RTVSPropertyOp25
 70
     1
102
RTVSPropertyOp26
 70
     1
102
RTVSPropertyOp27
 70
     1
102
RTVSPropertyOp28
 70
     1
102
RTVSPropertyOp29
 70
     1
102
RTVSPropertyOp30
 70
     1
102
RTVSPropertyOp31
 70
     1
102
RTVSPropertyOp32
 70
     1
  0
XRECORD
  5
384
102
{ACAD_REACTORS
330
383
102
}
330
383
100
AcDbXrecord
280
     1
102
RTVSPropertyOp0
 70
     1
102
RTVSPropertyOp1
 70
     1
102
RTVSPropertyOp2
 70
     1
102
RTVSPropertyOp3
 70
     1
102
RTVSPropertyOp4
 70
     1
102
RTVSPropertyOp5
 70
     1
102
RTVSPropertyOp6
 70
     1
102
RTVSPropertyOp7
 70
     1
102
RTVSPropertyOp8
 70
     1
102
RTVSPropertyOp9
 70
     1
102
RTVSPropertyOp10
 70
     1
102
RTVSPropertyOp11
 70
     1
102
RTVSPropertyOp12
 70
     1
102
RTVSPropertyOp13
 70
     1
102
RTVSPropertyOp14
 70
     1
102
RTVSPropertyOp15
 70
     1
102
RTVSPropertyOp16
 70
     1
102
RTVSPropertyOp17
 70
     1
102
RTVSPropertyOp18
 70
     1
102
RTVSPropertyOp19
 70
     1
102
RTVSPropertyOp20
 70
     1
102
RTVSPropertyOp21
 70
     1
102
RTVSPropertyOp22
 70
     1
102
RTVSPropertyOp23
 70
     1
102
RTVSPropertyOp24
 70
     1
102
RTVSPropertyOp25
 70
     1
102
RTVSPropertyOp26
 70
     1
102
RTVSPropertyOp27
 70
     1
102
RTVSPropertyOp28
 70
     1
102
RTVSPropertyOp29
 70
     1
102
RTVSPropertyOp30
 70
     1
102
RTVSPropertyOp31
 70
     1
102
RTVSPropertyOp32
 70
     1
  0
XRECORD
  5
386
102
{ACAD_REACTORS
330
385
102
}
330
385
100
AcDbXrecord
280
     1
102
RTVSPropertyOp0
 70
     1
102
RTVSPropertyOp1
 70
     1
102
RTVSPropertyOp2
 70
     1
102
RTVSPropertyOp3
 70
     1
102
RTVSPropertyOp4
 70
     1
102
RTVSPropertyOp5
 70
     1
102
RTVSPropertyOp6
 70
     1
102
RTVSPropertyOp7
 70
     1
102
RTVSPropertyOp8
 70
     1
102
RTVSPropertyOp9
 70
     1
102
RTVSPropertyOp10
 70
     1
102
RTVSPropertyOp11
 70
     1
102
RTVSPropertyOp12
 70
     1
102
RTVSPropertyOp13
 70
     1
102
RTVSPropertyOp14
 70
     1
102
RTVSPropertyOp15
 70
     1
102
RTVSPropertyOp16
 70
     1
102
RTVSPropertyOp17
 70
     1
102
RTVSPropertyOp18
 70
     1
102
RTVSPropertyOp19
 70
     1
102
RTVSPropertyOp20
 70
     1
102
RTVSPropertyOp21
 70
     1
102
RTVSPropertyOp22
 70
     1
102
RTVSPropertyOp23
 70
     1
102
RTVSPropertyOp24
 70
     1
102
RTVSPropertyOp25
 70
     1
102
RTVSPropertyOp26
 70
     1
102
RTVSPropertyOp27
 70
     1
102
RTVSPropertyOp28
 70
     1
102
RTVSPropertyOp29
 70
     1
102
RTVSPropertyOp30
 70
     1
102
RTVSPropertyOp31
 70
     1
102
RTVSPropertyOp32
 70
     1
  0
XRECORD
  5
388
102
{ACAD_REACTORS
330
387
102
}
330
387
100
AcDbXrecord
280
     1
102
RTVSPropertyOp0
 70
     1
102
RTVSPropertyOp1
 70
     1
102
RTVSPropertyOp2
 70
     1
102
RTVSPropertyOp3
 70
     1
102
RTVSPropertyOp4
 70
     1
102
RTVSPropertyOp5
 70
     1
102
RTVSPropertyOp6
 70
     1
102
RTVSPropertyOp7
 70
     1
102
RTVSPropertyOp8
 70
     1
102
RTVSPropertyOp9
 70
     1
102
RTVSPropertyOp10
 70
     1
102
RTVSPropertyOp11
 70
     1
102
RTVSPropertyOp12
 70
     1
102
RTVSPropertyOp13
 70
     1
102
RTVSPropertyOp14
 70
     1
102
RTVSPropertyOp15
 70
     1
102
RTVSPropertyOp16
 70
     1
102
RTVSPropertyOp17
 70
     1
102
RTVSPropertyOp18
 70
     1
102
RTVSPropertyOp19
 70
     1
102
RTVSPropertyOp20
 70
     1
102
RTVSPropertyOp21
 70
     1
102
RTVSPropertyOp22
 70
     1
102
RTVSPropertyOp23
 70
     1
102
RTVSPropertyOp24
 70
     1
102
RTVSPropertyOp25
 70
     1
102
RTVSPropertyOp26
 70
     1
102
RTVSPropertyOp27
 70
     1
102
RTVSPropertyOp28
 70
     1
102
RTVSPropertyOp29
 70
     1
102
RTVSPropertyOp30
 70
     1
102
RTVSPropertyOp31
 70
     1
102
RTVSPropertyOp32
 70
     1
  0
XRECORD
  5
39C
102
{ACAD_REACTORS
330
39B
102
}
330
39B
100
AcDbXrecord
280
     1
102
RTVSPropertyOp0
 70
     1
102
RTVSPropertyOp1
 70
     1
102
RTVSPropertyOp2
 70
     1
102
RTVSPropertyOp3
 70
     1
102
RTVSPropertyOp4
 70
     1
102
RTVSPropertyOp5
 70
     1
102
RTVSPropertyOp6
 70
     1
102
RTVSPropertyOp7
 70
     1
102
RTVSPropertyOp8
 70
     1
102
RTVSPropertyOp9
 70
     1
102
RTVSPropertyOp10
 70
     1
102
RTVSPropertyOp11
 70
     1
102
RTVSPropertyOp12
 70
     1
102
RTVSPropertyOp13
 70
     1
102
RTVSPropertyOp14
 70
     1
102
RTVSPropertyOp15
 70
     1
102
RTVSPropertyOp16
 70
     1
102
RTVSPropertyOp17
 70
     1
102
RTVSPropertyOp18
 70
     1
102
RTVSPropertyOp19
 70
     1
102
RTVSPropertyOp20
 70
     1
102
RTVSPropertyOp21
 70
     1
102
RTVSPropertyOp22
 70
     1
102
RTVSPropertyOp23
 70
     1
102
RTVSPropertyOp24
 70
     1
102
RTVSPropertyOp25
 70
     1
102
RTVSPropertyOp26
 70
     1
102
RTVSPropertyOp27
 70
     1
102
RTVSPropertyOp28
 70
     1
102
RTVSPropertyOp29
 70
     1
102
RTVSPropertyOp30
 70
     1
102
RTVSPropertyOp31
 70
     1
102
RTVSPropertyOp32
 70
     1
  0
XRECORD
  5
392
102
{ACAD_REACTORS
330
391
102
}
330
391
100
AcDbXrecord
280
     1
102
RTVSPropertyOp0
 70
     1
102
RTVSPropertyOp1
 70
     1
102
RTVSPropertyOp2
 70
     1
102
RTVSPropertyOp3
 70
     1
102
RTVSPropertyOp4
 70
     1
102
RTVSPropertyOp5
 70
     1
102
RTVSPropertyOp6
 70
     1
102
RTVSPropertyOp7
 70
     1
102
RTVSPropertyOp8
 70
     1
102
RTVSPropertyOp9
 70
     1
102
RTVSPropertyOp10
 70
     1
102
RTVSPropertyOp11
 70
     1
102
RTVSPropertyOp12
 70
     1
102
RTVSPropertyOp13
 70
     1
102
RTVSPropertyOp14
 70
     1
102
RTVSPropertyOp15
 70
     1
102
RTVSPropertyOp16
 70
     1
102
RTVSPropertyOp17
 70
     1
102
RTVSPropertyOp18
 70
     1
102
RTVSPropertyOp19
 70
     1
102
RTVSPropertyOp20
 70
     1
102
RTVSPropertyOp21
 70
     1
102
RTVSPropertyOp22
 70
     1
102
RTVSPropertyOp23
 70
     1
102
RTVSPropertyOp24
 70
     1
102
RTVSPropertyOp25
 70
     1
102
RTVSPropertyOp26
 70
     1
102
RTVSPropertyOp27
 70
     1
102
RTVSPropertyOp28
 70
     1
102
RTVSPropertyOp29
 70
     1
102
RTVSPropertyOp30
 70
     1
102
RTVSPropertyOp31
 70
     1
102
RTVSPropertyOp32
 70
     1
  0
XRECORD
  5
39A
102
{ACAD_REACTORS
330
399
102
}
330
399
100
AcDbXrecord
280
     1
102
RTVSPropertyOp0
 70
     1
102
RTVSPropertyOp1
 70
     1
102
RTVSPropertyOp2
 70
     1
102
RTVSPropertyOp3
 70
     1
102
RTVSPropertyOp4
 70
     1
102
RTVSPropertyOp5
 70
     1
102
RTVSPropertyOp6
 70
     1
102
RTVSPropertyOp7
 70
     1
102
RTVSPropertyOp8
 70
     1
102
RTVSPropertyOp9
 70
     1
102
RTVSPropertyOp10
 70
     1
102
RTVSPropertyOp11
 70
     1
102
RTVSPropertyOp12
 70
     1
102
RTVSPropertyOp13
 70
     1
102
RTVSPropertyOp14
 70
     1
102
RTVSPropertyOp15
 70
     1
102
RTVSPropertyOp16
 70
     1
102
RTVSPropertyOp17
 70
     1
102
RTVSPropertyOp18
 70
     1
102
RTVSPropertyOp19
 70
     1
102
RTVSPropertyOp20
 70
     1
102
RTVSPropertyOp21
 70
     1
102
RTVSPropertyOp22
 70
     1
102
RTVSPropertyOp23
 70
     1
102
RTVSPropertyOp24
 70
     1
102
RTVSPropertyOp25
 70
     1
102
RTVSPropertyOp26
 70
     1
102
RTVSPropertyOp27
 70
     1
102
RTVSPropertyOp28
 70
     1
102
RTVSPropertyOp29
 70
     1
102
RTVSPropertyOp30
 70
     1
102
RTVSPropertyOp31
 70
     1
102
RTVSPropertyOp32
 70
     1
  0
ENDSEC
  0
EOF
