0
SECTION
2
HEADER
9
$INSUNITS
70
4
9
$ACADVER
1
AC1014
9
$HANDSEED
5
FFFF
0
ENDSEC
0
SECTION
2
TABLES
0
TABLE
2
VPORT
5
8
100
AcDbSymbolTable
0
ENDTAB
0
TABLE
2
LTYPE
5
5
100
AcDbSymbolTable
0
LTYPE
5
14
100
AcDbSymbolTableRecord
100
AcDbLinetypeTableRecord
2
BYBLOCK
70
0
0
LTYPE
5
15
100
AcDbSymbolTableRecord
100
AcDbLinetypeTableRecord
2
BYLAYER
70
0
0
ENDTAB
0
TABLE
2
LAYER
5
2
100
AcDbSymbolTable
70
2
0
LAYER
5
50
100
AcDbSymbolTableRecord
100
AcDbLayerTableRecord
2
0
70
0
6
CONTINUOUS
0
ENDTAB
0
TABLE
2
STYLE
5
3
100
AcDbSymbolTable
70
1
0
STYLE
5
11
100
AcDbSymbolTableRecord
100
AcDbTextStyleTableRecord
2
STANDARD
70
0
0
ENDTAB
0
TABLE
2
VIEW
5
6
100
AcDbSymbolTable
70
0
0
ENDTAB
0
TABLE
2
UCS
5
7
100
AcDbSymbolTable
70
0
0
ENDTAB
0
TABLE
2
APPID
5
9
100
AcDbSymbolTable
70
2
0
APPID
5
12
100
AcDbSymbolTableRecord
100
AcDbRegAppTableRecord
2
ACAD
70
0
0
ENDTAB
0
TABLE
2
DIMSTYLE
5
A
100
AcDbSymbolTable
70
1
0
ENDTAB
0
TABLE
2
BLOCK_RECORD
5
1
100
AcDbSymbolTable
70
1
0
BLOCK_RECORD
5
1F
100
AcDbSymbolTableRecord
100
AcDbBlockTableRecord
2
*MODEL_SPACE
0
BLOCK_RECORD
5
1B
100
AcDbSymbolTableRecord
100
AcDbBlockTableRecord
2
*PAPER_SPACE
0
ENDTAB
0
ENDSEC
0
SECTION
2
BLOCKS
0
BLOCK
5
20
100
AcDbEntity
100
AcDbBlockBegin
2
*MODEL_SPACE
0
ENDBLK
5
21
100
AcDbEntity
100
AcDbBlockEnd
0
BLOCK
5
1C
100
AcDbEntity
100
AcDbBlockBegin
2
*PAPER_SPACE
0
ENDBLK
5
1D
100
AcDbEntity
100
AcDbBlockEnd
0
ENDSEC
0
SECTION
2
ENTITIES
0
LINE
5
100
100
AcDbEntity
8
0
100
AcDbLine
10
162.15897922496762
20
-251.4168906285318
30
0
11
162.14687956506361
21
-251.34827004729453
31
0
0
LINE
5
101
100
AcDbEntity
8
0
100
AcDbLine
10
162.14687956506361
20
-251.34827004729453
30
0
11
159.80918491535957
21
-247.0584627903865
31
0
0
ARC
5
102
100
AcDbEntity
8
0
100
AcDbCircle
10
180.44417841068991
20
-235.8135953635269
30
0
40
23.499999999999485
100
AcDbArc
50
190.00000000000014
51
208.58780645073205
0
LINE
5
103
100
AcDbEntity
8
0
100
AcDbLine
10
157.30119621490354
20
-239.89432753869974
30
0
11
156.64513665362426
21
-236.17362887623014
31
0
0
ARC
5
104
100
AcDbEntity
8
0
100
AcDbCircle
10
165.50840643073406
20
-234.61079527722774
30
0
40
8.9999999999999325
100
AcDbArc
50
144.91575984753192
51
190.00000000000026
0
LINE
5
105
100
AcDbEntity
8
0
100
AcDbLine
10
158.14363579761542
20
-229.4377735759827
30
0
11
159.33103362729651
21
-227.7472891413708
31
0
0
LINE
5
106
100
AcDbEntity
8
0
100
AcDbLine
10
159.33103362729651
20
-227.7472891413708
30
0
11
159.12691850616648
21
-225.74124165574449
31
0
0
ARC
5
107
100
AcDbEntity
8
0
100
AcDbCircle
10
159.02569126671722
20
-224.74637832543556
30
0
40
1.0000000000000269
100
AcDbArc
50
95.809844754070738
51
275.8098456078443
0
LINE
5
108
100
AcDbEntity
8
0
100
AcDbLine
10
158.92446402726816
20
-223.75151499512654
30
0
11
158.87800560978209
21
-223.29492074053115
31
0
0
ARC
5
109
100
AcDbEntity
8
0
100
AcDbCircle
10
158.77677837033292
20
-222.30005741022217
30
0
40
0.99999999999999867
100
AcDbArc
50
95.809844754075769
51
275.8098447540774
0
LINE
5
110
100
AcDbEntity
8
0
100
AcDbLine
10
158.67555113088378
20
-221.30519407991318
30
0
11
158.62909271339774
21
-220.84859982531779
31
0
0
ARC
5
111
100
AcDbEntity
8
0
100
AcDbCircle
10
158.52786547394851
20
-219.85373649500877
30
0
40
0.99999999999999323
100
AcDbArc
50
95.809844754072515
51
275.80984475408047
0
LINE
5
112
100
AcDbEntity
8
0
100
AcDbLine
10
158.42663823449942
20
-218.85887316469979
30
0
11
158.22252311336933
21
-216.85282567907348
31
0
0
LINE
5
113
100
AcDbEntity
8
0
100
AcDbLine
10
158.22252311336933
20
-216.85282567907348
30
0
11
151.48107625317689
21
-226.45054490934962
31
0
0
ARC
5
114
100
AcDbEntity
8
0
100
AcDbCircle
10
164.57400182316533
20
-235.64702793378527
30
0
40
15.999999999999702
100
AcDbArc
50
144.91575984753129
51
190.00000000000065
0
LINE
5
115
100
AcDbEntity
8
0
100
AcDbLine
10
148.81707777497036
20
-238.42539877645629
30
0
11
149.31816214322075
21
-241.26718944420935
31
0
0
ARC
5
116
100
AcDbEntity
8
0
100
AcDbCircle
10
126.17517994743643
20
-245.34792161938208
30
0
40
23.499999999997421
100
AcDbArc
50
-8.7235144909000084
51
10.000000000000746
0
LINE
5
117
100
AcDbEntity
8
0
100
AcDbLine
10
149.40332549251644
20
-248.9120841488494
30
0
11
148.66474221772404
21
-253.7255346192477
31
0
0
LINE
5
118
100
AcDbEntity
8
0
100
AcDbLine
10
148.66474221772404
20
-253.7255346192477
30
0
11
148.66846410288309
21
-253.74664247888487
31
0
0
ARC
5
119
100
AcDbEntity
8
0
100
AcDbCircle
10
149.01508381444307
20
-256.29163876222191
30
0
40
2.5684920297017237
100
AcDbArc
50
97.755767187681585
51
97.770489262525274
0
ARC
5
120
100
AcDbEntity
8
0
100
AcDbCircle
10
156.81251525969708
20
-260.75181807179172
30
0
40
10.742786273976982
100
AcDbArc
50
139.30188066617322
51
145.00456530548624
0
ARC
5
121
100
AcDbEntity
8
0
100
AcDbCircle
10
156.81129528347202
20
-260.75307080158404
30
0
40
10.742505465371387
100
AcDbArc
50
144.99536009896019
51
150.6981939293743
0
ARC
5
122
100
AcDbEntity
8
0
100
AcDbCircle
10
149.95345749514937
20
-254.95150272277294
30
0
40
2.5684924701413303
100
AcDbArc
50
192.22951073901913
51
235.82330425349463
0
LINE
5
123
100
AcDbEntity
8
0
100
AcDbLine
10
148.51061474055456
20
-257.07643998177281
30
0
11
149.62758812504458
21
-257.83487031684524
31
0
0
ARC
5
124
100
AcDbEntity
8
0
100
AcDbCircle
10
149.26856975707014
20
-258.36361199241492
30
0
40
0.63911027845533019
100
AcDbArc
50
-17.609525459250623
51
55.823289903766359
0
ARC
5
125
100
AcDbEntity
8
0
100
AcDbCircle
10
156.82663899906336
20
-260.76253092011024
30
0
40
7.2905317648944532
100
AcDbArc
50
162.39066114527282
51
167.49981350118355
0
ARC
5
126
100
AcDbEntity
8
0
100
AcDbCircle
10
156.82612497743901
20
-260.76239265786398
30
0
40
7.2900000021691982
100
AcDbArc
50
167.49999999545719
51
172.60952529096838
0
ARC
5
127
100
AcDbEntity
8
0
100
AcDbCircle
10
148.96288536409432
20
-259.74246545251947
30
0
40
0.63911020749287606
100
AcDbArc
50
279.17670643438578
51
352.60952919214179
0
LINE
5
128
100
AcDbEntity
8
0
100
AcDbLine
10
149.06481056719895
20
-260.3733958054853
30
0
11
147.73196238371003
21
-260.58871378918781
31
0
0
ARC
5
129
100
AcDbEntity
8
0
100
AcDbCircle
10
148.14158471696214
20
-263.1243326708958
30
0
40
2.5684924202047772
100
AcDbArc
50
99.176695746504336
51
142.77048926097959
0
ARC
5
130
100
AcDbEntity
8
0
100
AcDbCircle
10
156.80556960068338
20
-260.76497235764054
30
0
40
10.739308996160485
100
AcDbArc
50
184.30095666757018
51
190.0054893040917
0
ARC
5
131
100
AcDbEntity
8
0
100
AcDbCircle
10
156.80561735416546
20
-260.76706948512384
30
0
40
10.738991863318024
100
AcDbArc
50
189.99442639606508
51
195.69912763226986
0
ARC
5
132
100
AcDbEntity
8
0
100
AcDbCircle
10
147.85749551778639
20
-261.51318276046055
30
0
40
2.5684924701414857
100
AcDbArc
50
237.22951073902135
51
280.82330425349448
0
LINE
5
133
100
AcDbEntity
8
0
100
AcDbLine
10
148.33980916726131
20
-264.03598420185534
30
0
11
149.66591985493085
21
-263.78245598042884
31
0
0
ARC
5
134
100
AcDbEntity
8
0
100
AcDbCircle
10
149.78593235648032
20
-264.41019712716735
30
0
40
0.63911027830631939
100
AcDbArc
50
27.390474543501327
51
100.82328989020827
0
ARC
5
135
100
AcDbEntity
8
0
100
AcDbCircle
10
156.8261249772635
20
-260.76239265683671
30
0
40
7.2900000015291084
100
AcDbArc
50
207.39047470832546
51
212.49999999351488
0
ARC
5
136
100
AcDbEntity
8
0
100
AcDbCircle
10
156.82582535688806
20
-260.76260288320088
30
0
40
7.2896343504188952
100
AcDbArc
50
212.4998717478891
51
217.60965350405402
0
ARC
5
137
100
AcDbEntity
8
0
100
AcDbCircle
10
150.54477748121843
20
-265.6013452662383
30
0
40
0.63911020757255865
100
AcDbArc
50
-35.823293559661728
51
37.609529200063697
0
LINE
5
138
100
AcDbEntity
8
0
100
AcDbLine
10
151.06298461464962
20
-265.9754083949806
30
0
11
150.2727714321567
21
-267.07012719017405
31
0
0
ARC
5
139
100
AcDbEntity
8
0
100
AcDbCircle
10
152.35537146748484
20
-268.57343376636635
30
0
40
2.5684924202045449
100
AcDbArc
50
144.17669574650307
51
187.77048926098212
0
ARC
5
140
100
AcDbEntity
8
0
100
AcDbCircle
10
156.81342782000894
20
-260.77873416660742
30
0
40
10.739331079223467
100
AcDbArc
50
229.30096253747649
51
235.00548343418663
0
ARC
5
141
100
AcDbEntity
8
0
100
AcDbCircle
10
156.81534361568666
20
-260.77954420516642
30
0
40
10.739766387687697
100
AcDbArc
50
234.99463227035119
51
240.69892175798336
0
ARC
5
142
100
AcDbEntity
8
0
100
AcDbCircle
10
151.01523504110949
20
-267.63506013838889
30
0
40
2.5684924701410665
100
AcDbArc
50
282.22951073901663
51
325.82330425349659
0
LINE
5
143
100
AcDbEntity
8
0
100
AcDbLine
10
153.14017230010921
20
-269.0779028929835
30
0
11
153.89860263547581
21
-267.96092950869939
31
0
0
ARC
5
144
100
AcDbEntity
8
0
100
AcDbCircle
10
154.42734431069721
20
-268.31994787659079
30
0
40
0.63911027812054555
100
AcDbArc
50
72.390474543113342
51
145.82328989238641
0
ARC
5
145
100
AcDbEntity
8
0
100
AcDbCircle
10
156.82612458314017
20
-260.7623948978719
30
0
40
7.2899977286376103
100
AcDbArc
50
252.39047391938206
51
262.60952608696471
0
ARC
5
146
100
AcDbEntity
8
0
100
AcDbCircle
10
155.80619777078019
20
-268.62563226955177
30
0
40
0.63911020769128035
100
AcDbArc
50
9.1767064428652709
51
82.609529200630547
0
LINE
5
147
100
AcDbEntity
8
0
100
AcDbLine
10
156.43712812392687
20
-268.52370706632212
30
0
11
156.65244610752421
21
-269.85655524982798
31
0
0
ARC
5
148
100
AcDbEntity
8
0
100
AcDbCircle
10
159.18806498923217
20
-269.44693291657586
30
0
40
2.5684924202047599
100
AcDbArc
50
189.17669574650503
51
232.77048926098044
0
ARC
5
149
100
AcDbEntity
8
0
100
AcDbCircle
10
156.82827139527797
20
-260.77949559760265
30
0
40
10.742784204390134
100
AcDbArc
50
274.30188011641417
51
280.00456585524807
0
ARC
5
150
100
AcDbEntity
8
0
100
AcDbCircle
10
156.83132662710736
20
-260.78520160111327
30
0
40
10.736634381213168
100
AcDbArc
50
279.99379957692202
51
285.69975445141455
0
ARC
5
151
100
AcDbEntity
8
0
100
AcDbCircle
10
157.57691507879738
20
-269.73102211575167
30
0
40
2.568492470141059
100
AcDbArc
50
-32.770489260983062
51
10.823304253496255
0
LINE
5
152
100
AcDbEntity
8
0
100
AcDbLine
10
160.09971652019175
20
-269.24870846627675
30
0
11
159.84618829905935
21
-267.92259777881316
31
0
0
ARC
5
153
100
AcDbEntity
8
0
100
AcDbCircle
10
160.47392944541318
20
-267.80258527718712
30
0
40
0.63911027794285569
100
AcDbArc
50
117.39047453272741
51
190.82328990342643
0
ARC
5
154
100
AcDbEntity
8
0
100
AcDbCircle
10
156.82612497506514
20
-260.76239265635837
30
0
40
7.2900000022452094
100
AcDbArc
50
297.39047471556773
51
307.60952528981358
0
ARC
5
155
100
AcDbEntity
8
0
100
AcDbCircle
10
161.66507758449904
20
-267.04374015242769
30
0
40
0.63911020777979277
100
AcDbArc
50
54.176706440505498
51
127.60952919348797
0
LINE
5
156
100
AcDbEntity
8
0
100
AcDbLine
10
162.03914071336112
20
-266.52553301882739
30
0
11
163.13385950851045
21
-267.31574620138133
31
0
0
ARC
5
157
100
AcDbEntity
8
0
100
AcDbCircle
10
164.6371660847027
20
-265.23314616605313
30
0
40
2.5684924202045312
100
AcDbArc
50
234.17669574650392
51
277.7704892609828
0
ARC
5
158
100
AcDbEntity
8
0
100
AcDbCircle
10
156.83974896199368
20
-260.77297833088573
30
0
40
10.742768225385015
100
AcDbArc
50
319.30187587176727
51
325.00457009989805
0
ARC
5
159
100
AcDbEntity
8
0
100
AcDbCircle
10
156.84093526714071
20
-260.77170231810049
30
0
40
10.742528352923612
100
AcDbArc
50
324.99536617908296
51
330.69818784925258
0
ARC
5
160
100
AcDbEntity
8
0
100
AcDbCircle
10
163.6987924567251
20
-266.57328259242865
30
0
40
2.5684924701413046
100
AcDbArc
50
12.22951073901914
51
55.823304253494655
0
LINE
5
161
100
AcDbEntity
8
0
100
AcDbLine
10
165.14163521131991
20
-264.44834533342879
30
0
11
164.02466182733002
21
-263.68991499826814
31
0
0
ARC
5
162
100
AcDbEntity
8
0
100
AcDbCircle
10
164.38368019484315
20
-263.16117332300666
30
0
40
0.63911027794128106
100
AcDbArc
50
162.3904745255127
51
235.82328992245957
0
ARC
5
163
100
AcDbEntity
8
0
100
AcDbCircle
10
156.82603580359688
20
-260.76236867192654
30
0
40
7.2900922500510434
100
AcDbArc
50
342.39050705270535
51
347.49996764402965
0
ARC
5
164
100
AcDbEntity
8
0
100
AcDbCircle
10
156.82612497433124
20
-260.76239265731914
30
0
40
7.2900000016288597
100
AcDbArc
50
347.49999999933851
51
352.60952529034552
0
ARC
5
165
100
AcDbEntity
8
0
100
AcDbCircle
10
164.68936458781258
20
-261.78231986286596
30
0
40
0.6391102077859957
100
AcDbArc
50
99.176706434625714
51
172.60952918283721
0
LINE
5
166
100
AcDbEntity
8
0
100
AcDbLine
10
164.58743938465855
20
-261.15138950961114
30
0
11
165.92028756816444
21
-260.93607152601379
31
0
0
ARC
5
167
100
AcDbEntity
8
0
100
AcDbCircle
10
165.51066523491241
20
-258.40045264430591
30
0
40
2.5684924202046604
100
AcDbArc
50
279.17669574650347
51
322.77048926098081
0
ARC
5
168
100
AcDbEntity
8
0
100
AcDbCircle
10
156.84668216588744
20
-260.75981272981699
30
0
40
10.739307169494797
100
AcDbArc
50
4.3009561820244633
51
10.005489789641661
0
ARC
5
169
100
AcDbEntity
8
0
100
AcDbCircle
10
156.84663419401434
20
-260.75771546603539
30
0
40
10.738990228056744
100
AcDbArc
50
9.9944259613699113
51
15.699128066966235
0
ARC
5
170
100
AcDbEntity
8
0
100
AcDbCircle
10
165.79475443408808
20
-260.0116025547411
30
0
40
2.5684924701415452
100
AcDbArc
50
57.229510739022032
51
100.8233042534945
0
LINE
5
171
100
AcDbEntity
8
0
100
AcDbLine
10
165.31244078461316
20
-257.48880111334631
30
0
11
163.98633009744373
21
-257.7423293346846
31
0
0
ARC
5
172
100
AcDbEntity
8
0
100
AcDbCircle
10
163.86631759543292
20
-257.11458818825423
30
0
40
0.63911027809025478
100
AcDbArc
50
207.39047452277507
51
280.82328993601891
0
ARC
5
173
100
AcDbEntity
8
0
100
AcDbCircle
10
156.82612497469125
20
-260.76239265847482
30
0
40
7.2900000021967015
100
AcDbArc
50
27.390474708462275
51
37.609525291127738
0
ARC
5
174
100
AcDbEntity
8
0
100
AcDbCircle
10
163.10747247068849
20
-255.9234400491471
30
0
40
0.63911020770642391
100
AcDbArc
50
144.17670642868333
51
217.60952917490073
0
LINE
5
175
100
AcDbEntity
8
0
100
AcDbLine
10
162.58926533722487
20
-255.54937692022105
30
0
11
163.37947851971776
21
-254.45465812502755
31
0
0
ARC
5
176
100
AcDbEntity
8
0
100
AcDbCircle
10
161.29687848438994
20
-252.95135154883528
30
0
40
2.5684924202042509
100
AcDbArc
50
-35.823304253500538
51
7.7704892609830143
0
ARC
5
177
100
AcDbEntity
8
0
100
AcDbCircle
10
156.83882100375263
20
-260.74605260049952
30
0
40
10.739332915604894
100
AcDbArc
50
49.300963025604709
51
55.005482946058684
0
ARC
5
178
100
AcDbEntity
8
0
100
AcDbCircle
10
156.83694252760301
20
-260.74518353485252
30
0
40
10.739698466633403
100
AcDbArc
50
54.994614217621603
51
60.294103734825818
0
CIRCLE
5
179
100
AcDbEntity
8
0
100
AcDbCircle
10
169.5655498148995
20
-281.72564680363308
30
0
40
1.2250000000000008
0
LINE
5
180
100
AcDbEntity
8
0
100
AcDbLine
10
177.09928741475863
20
-278.13707215749753
30
0
11
177.71236652952709
21
-277.68048487591466
31
0
0
ARC
5
181
100
AcDbEntity
8
0
100
AcDbCircle
10
176.17820858009958
20
-275.62050600335772
30
0
40
2.5684924202047239
100
AcDbArc
50
306.67669574650404
51
350.2704892609807
0
ARC
5
182
100
AcDbEntity
8
0
100
AcDbCircle
10
177.17414501421456
20
-276.91843563403341
30
0
40
2.568492470141464
100
AcDbArc
50
84.72951073902226
51
128.32330425349554
0
LINE
5
183
100
AcDbEntity
8
0
100
AcDbLine
10
175.58142751510917
20
-274.90339108434802
30
0
11
174.52221927398082
21
-275.74060313439446
31
0
0
ARC
5
184
100
AcDbEntity
8
0
100
AcDbCircle
10
174.12590828080147
20
-275.23920554294386
30
0
40
0.63911027845536883
100
AcDbArc
50
234.89047454075722
51
308.32328990376709
0
ARC
5
185
100
AcDbEntity
8
0
100
AcDbCircle
10
172.90279343308782
20
-274.53303992366369
30
0
40
0.63911020749295133
100
AcDbArc
50
171.67670643438731
51
245.10952919213145
0
LINE
5
186
100
AcDbEntity
8
0
100
AcDbLine
10
172.2704149610334
20
-274.44052330135293
30
0
11
172.46585772880928
21
-273.10461602954865
31
0
0
ARC
5
187
100
AcDbEntity
8
0
100
AcDbCircle
10
169.92441920947192
20
-272.73280448911407
30
0
40
2.5684924202045787
100
AcDbArc
50
-8.3233042534969535
51
35.270489260980881
0
ARC
5
188
100
AcDbEntity
8
0
100
AcDbCircle
10
171.54642745901873
20
-272.94634592627426
30
0
40
2.5684924701412344
100
AcDbArc
50
129.72951073901891
51
173.32330425349627
0
LINE
5
189
100
AcDbEntity
8
0
100
AcDbLine
10
168.99535444941151
20
-272.64771560493068
30
0
11
168.83837943711225
21
-273.98868725285047
31
0
0
ARC
5
190
100
AcDbEntity
8
0
100
AcDbCircle
10
168.20360360955664
20
-273.91437980646822
30
0
40
0.63911027830629319
100
AcDbArc
50
279.89047454349901
51
353.32328989021386
0
ARC
5
191
100
AcDbEntity
8
0
100
AcDbCircle
10
166.83939630853811
20
-274.27991811143619
30
0
40
0.63911020757255099
100
AcDbArc
50
216.67670644034126
51
290.10952920006508
0
LINE
5
192
100
AcDbEntity
8
0
100
AcDbLine
10
166.32681807163945
20
-274.66165808639465
30
0
11
165.5203878871811
21
-273.57883008900546
31
0
0
ARC
5
193
100
AcDbEntity
8
0
100
AcDbCircle
10
163.46040901462408
20
-275.11298803843317
30
0
40
2.568492420204894
100
AcDbArc
50
36.676695746505487
51
80.27048926097882
0
ARC
5
194
100
AcDbEntity
8
0
100
AcDbCircle
10
164.75833864529989
20
-274.11705160431802
30
0
40
2.5684924701414671
100
AcDbArc
50
174.72951073902229
51
218.32330425349511
0
LINE
5
195
100
AcDbEntity
8
0
100
AcDbLine
10
162.74329409561446
20
-275.70976910342341
30
0
11
163.58050614537603
21
-276.76897734477035
31
0
0
ARC
5
196
100
AcDbEntity
8
0
100
AcDbCircle
10
163.07910855410941
20
-277.16528833764255
30
0
40
0.63911027812054311
100
AcDbArc
50
-35.109525456884015
51
38.323289892391685
0
ARC
5
197
100
AcDbEntity
8
0
100
AcDbCircle
10
169.56554779642588
20
-281.72564575535023
30
0
40
7.2899977286313424
100
AcDbArc
50
144.89047391937797
51
155.1095260869694
0
ARC
5
198
100
AcDbEntity
8
0
100
AcDbCircle
10
162.3729429348499
20
-278.38840318534028
30
0
40
0.63911020769120896
100
AcDbArc
50
261.67670644286335
51
335.10952920063357
0
LINE
5
199
100
AcDbEntity
8
0
100
AcDbLine
10
162.28042631260399
20
-279.02078165760452
30
0
11
160.94451904081512
21
-278.8253388897233
31
0
0
ARC
5
200
100
AcDbEntity
8
0
100
AcDbCircle
10
160.57270750038046
20
-281.36677740906043
30
0
40
2.5684924202043784
100
AcDbArc
50
81.676695746500428
51
125.27048926098405
0
ARC
5
201
100
AcDbEntity
8
0
100
AcDbCircle
10
160.78624893754093
20
-279.74476915951351
30
0
40
2.5684924701415888
100
AcDbArc
50
219.7295107390224
51
263.32330425349284
0
LINE
5
202
100
AcDbEntity
8
0
100
AcDbLine
10
160.48761861619715
20
-282.2958421691211
30
0
11
161.8285902638321
21
-282.45281718163892
31
0
0
ARC
5
203
100
AcDbEntity
8
0
100
AcDbCircle
10
161.75428281763845
20
-283.08759300885066
30
0
40
0.63911027794281661
100
AcDbArc
50
9.8904745327254773
51
83.323289903423287
0
ARC
5
204
100
AcDbEntity
8
0
100
AcDbCircle
10
169.56554981634974
20
-281.72564680317419
30
0
40
7.2900000022483713
100
AcDbArc
50
189.89047471556995
51
200.1095252898109
0
ARC
5
205
100
AcDbEntity
8
0
100
AcDbCircle
10
162.11982112262248
20
-284.45180030988979
30
0
40
0.63911020777966965
100
AcDbArc
50
-53.323293559500293
51
20.109529193497579
0
LINE
5
206
100
AcDbEntity
8
0
100
AcDbLine
10
162.50156109770609
20
-284.96437854695353
30
0
11
161.41873310027196
21
-285.77080873135145
31
0
0
ARC
5
207
100
AcDbEntity
8
0
100
AcDbCircle
10
162.95289104969967
20
-287.8307876039085
30
0
40
2.5684924202049153
100
AcDbArc
50
126.67669574650637
51
170.27048926097882
0
ARC
5
208
100
AcDbEntity
8
0
100
AcDbCircle
10
161.95695461558455
20
-286.53285797323269
30
0
40
2.5684924701414671
100
AcDbArc
50
264.72951073902101
51
308.32330425349369
0
LINE
5
209
100
AcDbEntity
8
0
100
AcDbLine
10
163.54967211468988
20
-288.54790252291815
30
0
11
164.60888035575195
21
-287.71069047337511
31
0
0
ARC
5
210
100
AcDbEntity
8
0
100
AcDbCircle
10
165.00519134877609
20
-288.21208806429308
30
0
40
0.63911027794119879
100
AcDbArc
50
54.890474525516559
51
128.32328992246002
0
ARC
5
211
100
AcDbEntity
8
0
100
AcDbCircle
10
166.22830619652615
20
-288.91825368357809
30
0
40
0.63911020778607641
100
AcDbArc
50
-8.3232935653684379
51
65.109529182827032
0
LINE
5
212
100
AcDbEntity
8
0
100
AcDbLine
10
166.86068466887099
20
-289.01077030592859
30
0
11
166.66524190098977
21
-290.34667757771746
31
0
0
ARC
5
213
100
AcDbEntity
8
0
100
AcDbCircle
10
169.20668042032716
20
-290.71848911815209
30
0
40
2.5684924202046195
100
AcDbArc
50
171.67669574650191
51
215.27048926097947
0
ARC
5
214
100
AcDbEntity
8
0
100
AcDbCircle
10
167.58467217078024
20
-290.50494768099179
30
0
40
2.5684924701413347
100
AcDbArc
50
309.7295107390201
51
353.32330425349522
0
LINE
5
215
100
AcDbEntity
8
0
100
AcDbLine
10
170.13574518038754
20
-290.80357800233543
30
0
11
170.23211857680468
21
-289.98030052446029
31
0
0
ARC
5
216
100
AcDbEntity
8
0
100
AcDbCircle
10
326.15557680230029
20
-309.21417925284453
30
0
40
8.0000000000000746
100
AcDbArc
50
165.14283445507988
51
226.18693853959905
0
ARC
5
217
100
AcDbEntity
8
0
100
AcDbCircle
10
317.15557680230017
20
-318.595010772492
30
0
40
5.0000000000004263
100
AcDbArc
50
0
51
46.186938539597222
0
LINE
5
218
100
AcDbEntity
8
0
100
AcDbLine
10
322.15557680230063
20
-318.59501077249155
30
0
11
322.15557680230114
21
-328.1998286005155
31
0
0
ARC
5
219
100
AcDbEntity
8
0
100
AcDbCircle
10
320.15557680230143
20
-328.19982860051562
30
0
40
1.9999999999996112
100
AcDbArc
50
-32.936161372026376
51
0
0
LINE
5
220
100
AcDbEntity
8
0
100
AcDbLine
10
321.83413056415134
20
-329.28723711095591
30
0
11
318.2456831686917
21
-334.82646346151256
31
0
0
ARC
5
221
100
AcDbEntity
8
0
100
AcDbCircle
10
326.63845197794325
20
-340.26350601371439
30
0
40
9.9999999999999307
100
AcDbArc
50
147.06383862797824
51
218.93022262225787
0
LINE
5
222
100
AcDbEntity
8
0
100
AcDbLine
10
318.85933398155146
20
-346.54724082656372
30
0
11
323.04392960374537
21
-351.72767317798412
31
0
0
ARC
5
223
100
AcDbEntity
8
0
100
AcDbCircle
10
326.15557680230211
20
-349.21417925284453
30
0
40
3.9999999999999298
100
AcDbArc
50
-141.06977617032521
51
38.930222975901131
0
LINE
5
224
100
AcDbEntity
8
0
100
AcDbLine
10
329.26722400085885
20
-346.70068532770478
30
0
11
325.08262837866494
21
-341.52025297628416
31
0
0
ARC
5
225
100
AcDbEntity
8
0
100
AcDbCircle
10
326.63845197794325
20
-340.26350601371439
30
0
40
1.9999999999999483
100
AcDbArc
50
147.06383862797762
51
218.93022262225639
0
LINE
5
226
100
AcDbEntity
8
0
100
AcDbLine
10
324.95989821609299
20
-339.17609750327404
30
0
11
328.54834561155258
21
-333.6368711527175
31
0
0
ARC
5
227
100
AcDbEntity
8
0
100
AcDbCircle
10
320.15557680230143
20
-328.19982860051562
30
0
40
9.999999999999643
100
AcDbArc
50
-32.936161372023271
51
0
0
LINE
5
228
100
AcDbEntity
8
0
100
AcDbLine
10
330.15557680230103
20
-328.19982860051505
30
0
11
330.15557680230052
21
-318.59501077249115
31
0
0
ARC
5
229
100
AcDbEntity
8
0
100
AcDbCircle
10
335.15557680230046
20
-318.59501077249087
30
0
40
4.999999999999921
100
AcDbArc
50
133.81306146040683
51
180
0
ARC
5
230
100
AcDbEntity
8
0
100
AcDbCircle
10
326.15557680230029
20
-309.21417925284453
30
0
40
7.999999999999865
100
AcDbArc
50
-46.186938539595694
51
14.857165544927076
0
LINE
5
231
100
AcDbEntity
8
0
100
AcDbLine
10
333.88812114074949
20
-307.16289720156209
30
0
11
330.02184897152404
21
-292.58853822720334
31
0
0
ARC
5
232
100
AcDbEntity
8
0
100
AcDbCircle
10
326.15557680229938
20
-293.61417925284468
30
0
40
3.9999999999999334
100
AcDbArc
50
14.857165544928467
51
165.14283445507704
0
LINE
5
233
100
AcDbEntity
8
0
100
AcDbLine
10
322.28930463307472
20
-292.58853822720374
30
0
11
318.42303246385052
21
-307.16289720156294
31
0
0
CIRCLE
5
234
100
AcDbEntity
8
0
100
AcDbCircle
10
326.15557680230211
20
-349.21417925284453
30
0
40
1.2250000000000005
0
CIRCLE
5
235
100
AcDbEntity
8
0
100
AcDbCircle
10
300.8269329029095
20
-358.24886514607016
30
0
40
1.2249999999999917
0
CIRCLE
5
236
100
AcDbEntity
8
0
100
AcDbCircle
10
260.8269329029099
20
-358.24886514606419
30
0
40
1.0749999999999877
0
ARC
5
237
100
AcDbEntity
8
0
100
AcDbCircle
10
245.22693290291014
20
-358.24886514606186
30
0
40
3.9999999999999392
100
AcDbArc
50
104.85716554491681
51
255.14283445506601
0
LINE
5
238
100
AcDbEntity
8
0
100
AcDbLine
10
244.20129187726843
20
-362.1151373152864
30
0
11
258.77565085162666
21
-365.98140948451339
31
0
0
ARC
5
239
100
AcDbEntity
8
0
100
AcDbCircle
10
260.8269329029099
20
-358.24886514606419
30
0
40
7.9999999999999538
100
AcDbArc
50
255.14283445506743
51
316.1869385395882
0
ARC
5
240
100
AcDbEntity
8
0
100
AcDbCircle
10
270.20776442255556
20
-367.24886514606578
30
0
40
5.0000000000002842
100
AcDbArc
50
89.999999999994145
51
136.18693853958803
0
LINE
5
241
100
AcDbEntity
8
0
100
AcDbLine
10
270.20776442255607
20
-362.24886514606555
30
0
11
279.81258225057991
21
-362.24886514606703
31
0
0
ARC
5
242
100
AcDbEntity
8
0
100
AcDbCircle
10
279.81258225057951
20
-364.24886514606749
30
0
40
2.0000000000004587
100
AcDbArc
50
57.063838627973347
51
89.999999999988603
0
LINE
5
243
100
AcDbEntity
8
0
100
AcDbLine
10
280.89999076102026
20
-362.57031138421689
30
0
11
286.43921711157611
21
-366.15875877967773
31
0
0
ARC
5
244
100
AcDbEntity
8
0
100
AcDbCircle
10
291.87625966377959
20
-357.76598997042754
30
0
40
9.9999999999997353
100
AcDbArc
50
237.06383862796605
51
308.93022262224628
0
LINE
5
245
100
AcDbEntity
8
0
100
AcDbLine
10
298.15999447662711
20
-365.5451079668203
30
0
11
303.34042682804852
21
-361.36051234462747
31
0
0
ARC
5
246
100
AcDbEntity
8
0
100
AcDbCircle
10
300.8269329029095
20
-358.24886514607016
30
0
40
4.0000000000000462
100
AcDbArc
50
-51.069777377755436
51
128.93022262224372
0
LINE
5
247
100
AcDbEntity
8
0
100
AcDbLine
10
298.31343897777066
20
-355.13721794751297
30
0
11
293.13300662634902
21
-359.3218135697058
31
0
0
ARC
5
248
100
AcDbEntity
8
0
100
AcDbCircle
10
291.87625966377959
20
-357.76598997042754
30
0
40
1.9999999999997045
100
AcDbArc
50
237.06383862796145
51
308.9302226222498
0
LINE
5
249
100
AcDbEntity
8
0
100
AcDbLine
10
290.7888511533389
20
-359.44454373227728
30
0
11
285.24962480278322
21
-355.85609633681662
31
0
0
ARC
5
250
100
AcDbEntity
8
0
100
AcDbCircle
10
279.81258225057951
20
-364.24886514606749
30
0
40
10.000000000000389
100
AcDbArc
50
57.063838627967073
51
89.999999999990564
0
LINE
5
251
100
AcDbEntity
8
0
100
AcDbLine
10
279.81258225058116
20
-354.24886514606715
30
0
11
270.20776442255726
21
-354.24886514606567
31
0
0
ARC
5
252
100
AcDbEntity
8
0
100
AcDbCircle
10
270.20776442255823
20
-349.24886514606527
30
0
40
5.0000000000003677
100
AcDbArc
50
223.81306146039586
51
269.99999999998892
0
ARC
5
253
100
AcDbEntity
8
0
100
AcDbCircle
10
260.8269329029099
20
-358.24886514606419
30
0
40
7.9999999999999432
100
AcDbArc
50
43.813061460394849
51
104.85716554491503
0
LINE
5
254
100
AcDbEntity
8
0
100
AcDbLine
10
258.77565085162905
20
-350.51632080761442
30
0
11
244.2012918772696
21
-354.38259297683703
31
0
0
LWPOLYLINE
5
255
100
AcDbEntity
8
0
100
AcDbPolyline
90
4
70
1
43
0.0
10
148.74923184285129
20
-308.09780354498673
10
151.9492318428513
20
-308.09780354498673
10
151.94923184285153
20
-296.09780354498673
10
148.74923184285149
20
-296.09780354498673
0
LWPOLYLINE
5
256
100
AcDbEntity
8
0
100
AcDbPolyline
90
4
70
1
43
0.0
10
148.74923184285072
20
-339.46744454706788
10
151.94923184285074
20
-339.46744454706794
10
151.94923184285096
20
-327.46744454706806
10
148.74923184285092
20
-327.467444547068
0
CIRCLE
5
257
100
AcDbEntity
8
0
100
AcDbCircle
10
150.34923184285032
20
-360.05306238145931
30
0
40
1.2250000000000112
0
CIRCLE
5
258
100
AcDbEntity
8
0
100
AcDbCircle
10
150.34923184285179
20
-280.05306238145965
30
0
40
1.0750000000000048
0
LWPOLYLINE
5
259
100
AcDbEntity
8
0
100
AcDbPolyline
90
6
70
1
43
0.0
10
144.34923184285174
20
-280.0530623814596
42
-0.99999999999999989
10
156.34923184285182
20
-280.05306238145965
10
156.34923184285046
20
-353.12485915118395
42
0.14144966032622866
10
157.11846261208115
20
-355.78955270128995
42
-1.8116548391159519
10
143.58000107361963
20
-355.78955270128972
42
0.14144966032624151
10
144.34923184285043
20
-353.12485915118378
0
LINE
5
260
100
AcDbEntity
8
0
100
AcDbLine
10
165.5603786584754
20
-358.7086077652823
30
0
11
165.56037865847557
21
-360.48314555726586
31
0
0
LINE
5
261
100
AcDbEntity
8
0
100
AcDbLine
10
182.76037865847564
20
-360.48314555726421
30
0
11
185.82950420197255
21
-360.48314555726392
31
0
0
LINE
5
262
100
AcDbEntity
8
0
100
AcDbLine
10
178.0603786584756
20
-360.48314555726461
30
0
11
178.06037865847543
21
-358.7086077652811
31
0
0
LINE
5
263
100
AcDbEntity
8
0
100
AcDbLine
10
178.06037865847543
20
-358.7086077652811
30
0
11
181.26037865847542
21
-358.70860776528082
31
0
0
ARC
5
264
100
AcDbEntity
8
0
100
AcDbCircle
10
185.82950420197162
20
-350.20642892595725
30
0
40
10.276716631306684
100
AcDbArc
50
270.00000000000523
51
345.13758615464371
0
LINE
5
265
100
AcDbEntity
8
0
100
AcDbLine
10
195.7624086645458
20
-352.84239433877087
30
0
11
200.75888141218383
21
-334.01457277066891
31
0
0
ARC
5
266
100
AcDbEntity
8
0
100
AcDbCircle
10
195.82950420196994
20
-332.70642892595629
30
0
40
5.0999999999054282
100
AcDbArc
50
-14.862413845355601
51
90.000000000005755
0
LINE
5
267
100
AcDbEntity
8
0
100
AcDbLine
10
195.82950420196943
20
-327.60642892605091
30
0
11
184.36037865837795
21
-327.60642892605182
31
0
0
ARC
5
268
100
AcDbEntity
8
0
100
AcDbCircle
10
184.36037865837804
20
-328.6064289259574
30
0
40
0.99999999990558308
100
AcDbArc
50
90.000000000004889
51
180
0
LINE
5
269
100
AcDbEntity
8
0
100
AcDbLine
10
183.36037865847248
20
-328.60642892595752
30
0
11
183.3603786584726
21
-329.60642892595752
31
0
0
LINE
5
270
100
AcDbEntity
8
0
100
AcDbLine
10
183.3603786584726
20
-329.60642892595752
30
0
11
181.36037865847265
21
-329.60642892595774
31
0
0
LINE
5
271
100
AcDbEntity
8
0
100
AcDbLine
10
181.36037865847265
20
-329.60642892595774
30
0
11
181.36037865847314
21
-335.00642892595772
31
0
0
LINE
5
272
100
AcDbEntity
8
0
100
AcDbLine
10
181.36037865847314
20
-335.00642892595772
30
0
11
189.74727465847323
21
-335.00642892595687
31
0
0
LINE
5
273
100
AcDbEntity
8
0
100
AcDbLine
10
189.74727465847323
20
-335.00642892595687
30
0
11
189.74727465847354
21
-338.20642892595686
31
0
0
LINE
5
274
100
AcDbEntity
8
0
100
AcDbLine
10
189.74727465847354
20
-338.20642892595686
30
0
11
175.74727465847346
21
-338.20642892595822
31
0
0
LINE
5
275
100
AcDbEntity
8
0
100
AcDbLine
10
175.74727465847346
20
-338.20642892595822
30
0
11
175.74727465847326
21
-336.00642892595829
31
0
0
LINE
5
276
100
AcDbEntity
8
0
100
AcDbLine
10
175.74727465847326
20
-336.00642892595829
30
0
11
162.76037865847314
21
-336.00642892595948
31
0
0
ARC
5
277
100
AcDbEntity
8
0
100
AcDbCircle
10
162.76037865847331
20
-338.00642892595954
30
0
40
2.0000000000000284
100
AcDbArc
50
90.000000000004889
51
180
0
LINE
5
278
100
AcDbEntity
8
0
100
AcDbLine
10
160.76037865847331
20
-338.00642892595977
30
0
11
160.76037865847539
21
-358.98314555726637
31
0
0
ARC
5
279
100
AcDbEntity
8
0
100
AcDbCircle
10
162.26037865847542
20
-358.9831455572662
30
0
40
1.5000000000000213
100
AcDbArc
50
180
51
270.00000000000546
0
LINE
5
280
100
AcDbEntity
8
0
100
AcDbLine
10
162.26037865847556
20
-360.4831455572662
30
0
11
162.26037865847533
21
-358.70860776528269
31
0
0
LINE
5
281
100
AcDbEntity
8
0
100
AcDbLine
10
162.26037865847533
20
-358.70860776528269
30
0
11
165.5603786584754
21
-358.7086077652823
31
0
0
LWPOLYLINE
5
282
100
AcDbEntity
8
0
100
AcDbPolyline
90
4
70
1
43
0.0
10
162.36037865847368
20
-341.20642892595959
10
162.36037865847439
20
-348.45642892595953
10
165.56037865847441
20
-348.45642892595919
10
165.5603786584737
20
-341.2064289259593
0
LWPOLYLINE
5
283
100
AcDbEntity
8
0
100
AcDbPolyline
90
4
70
1
43
0.0
10
178.06037865847372
20
-341.20642892595805
10
178.06037865847443
20
-348.45642892595799
10
181.26037865847448
20
-348.45642892595765
10
181.26037865847371
20
-341.20642892595777
0
CIRCLE
5
284
100
AcDbEntity
8
0
100
AcDbCircle
10
185.82950420197162
20
-350.20642892595725
30
0
40
1.2250000000000068
0
CIRCLE
5
285
100
AcDbEntity
8
0
100
AcDbCircle
10
195.82950420196994
20
-332.70642892595629
30
0
40
1.225000000000007
0
LWPOLYLINE
5
286
100
AcDbEntity
8
0
100
AcDbPolyline
90
25
70
1
43
0.0
10
241.6585695470238
20
-325.47209166166732
10
241.65856954702437
20
-323.69755386968387
10
241.75856954702442
20
-323.69755386968393
42
-0.41421356237308121
10
243.25856954702388
20
-325.19755386968427
10
243.2585695470172
20
-346.1742705009907
42
-0.41421356237309509
10
241.25856954701669
20
-348.17427050098991
10
228.27167354701683
20
-348.17427050098604
10
228.27167354701754
20
-345.97427050098599
10
214.27167354701771
20
-345.97427050098167
10
214.27167354701675
20
-349.17427050098172
10
222.65856954701664
20
-349.17427050098416
10
222.65856954701493
20
-354.5742705009842
10
220.65856954701499
20
-354.57427050098346
10
220.65856954701474
20
-355.5742705009834
42
-0.41421356237310542
10
219.65856954710884
20
-356.57427050088876
10
208.18944400351765
20
-356.57427050088518
42
-0.49239931758367611
10
203.2600667933059
20
-350.16612665626519
10
208.25653954095168
20
-331.33830508816538
42
-0.34012390412920163
10
218.18944400352785
20
-323.69755386967654
10
221.25856954702473
20
-323.69755386967756
10
222.75856954702417
20
-325.47209166166147
10
225.9585695470241
20
-325.47209166166249
10
225.95856954702302
20
-328.77872879309609
10
238.45856954702285
20
-328.7787287930999
10
238.45856954702384
20
-325.4720916616663
0
LWPOLYLINE
5
287
100
AcDbEntity
8
0
100
AcDbPolyline
90
8
70
1
43
0.0
10
241.65856954702059
20
-335.72427050099031
10
222.7585695470209
20
-335.72427050098446
10
222.75856954701862
20
-342.97427050098435
10
225.95856954701858
20
-342.97427050098526
10
225.95856954701986
20
-338.87427050098546
10
238.45856954701964
20
-338.87427050098927
10
238.45856954701833
20
-342.97427050098918
10
241.65856954701832
20
-342.9742705009902
0
CIRCLE
5
288
100
AcDbEntity
8
0
100
AcDbCircle
10
173.06358311214228
20
-41.739985816362932
30
0
40
1.2250000000000016
0
CIRCLE
5
289
100
AcDbEntity
8
0
100
AcDbCircle
10
191.06358311214228
20
-41.739985816362875
30
0
40
1.2250000000000016
0
LWPOLYLINE
5
290
100
AcDbEntity
8
0
100
AcDbPolyline
90
8
70
1
43
0.0
10
186.05482711671019
20
-59.807857601096856
10
178.05482711671019
20
-59.807857601096863
42
0.41421356237310802
10
177.05482711671021
20
-60.807857601096849
10
177.05482711671016
20
-62.807857601096835
42
0.41421356237310542
10
178.05482711671019
20
-63.807857601096842
10
186.05482711671019
20
-63.807857601096821
42
0.41421356237308465
10
187.05482711671021
20
-62.807857601096842
10
187.05482711671021
20
-60.807857601096856
42
0.41421356237307161
0
LINE
5
291
100
AcDbEntity
8
0
100
AcDbLine
10
200.62248337875442
20
-51.289985816362808
30
0
11
200.62248337875442
21
-60.17302885733622
31
0
0
ARC
5
292
100
AcDbEntity
8
0
100
AcDbCircle
10
200.50586090844769
20
-58.410068195531714
30
0
40
1.7668138259733674
100
AcDbArc
50
273.78468685289073
51
340.02350156314861
0
LINE
5
293
100
AcDbEntity
8
0
100
AcDbLine
10
202.16637054913326
20
-59.013673057043746
30
0
11
203.00322799049138
21
-56.711488403040732
31
0
0
ARC
5
294
100
AcDbEntity
8
0
100
AcDbCircle
10
182.3269056988903
20
-49.195525624139037
30
0
40
21.99999999999989
100
AcDbArc
50
340.02350156314833
51
348.29046689620714
0
LINE
5
295
100
AcDbEntity
8
0
100
AcDbLine
10
204.31644926606268
20
-48.517312009247924
30
0
11
204.28871160406226
21
-47.617981011434892
31
0
0
ARC
5
296
100
AcDbEntity
8
0
100
AcDbCircle
10
187.29679157488357
20
-48.142055168396212
30
0
40
16.999999999999957
100
AcDbArc
50
1.7665879699776788
51
34.945705240369605
0
LINE
5
297
100
AcDbEntity
8
0
100
AcDbLine
10
201.23161014909655
20
-38.404456321464444
30
0
11
201.3908855554682
21
-38.632384574210448
31
0
0
ARC
5
298
100
AcDbEntity
8
0
100
AcDbCircle
10
205.07951400158348
20
-36.054784879434337
30
0
40
4.5000000000000995
100
AcDbArc
50
180
51
214.94570524036962
0
LINE
5
299
100
AcDbEntity
8
0
100
AcDbLine
10
200.57951400158339
20
-36.054784879434401
30
0
11
200.57951400158339
21
-33.215127023648193
31
0
0
LINE
5
300
100
AcDbEntity
8
0
100
AcDbLine
10
200.57951400158339
20
-33.215127023648193
30
0
11
163.56545275592549
21
-33.215127023648222
31
0
0
LINE
5
301
100
AcDbEntity
8
0
100
AcDbLine
10
163.56545275592549
20
-33.215127023648222
30
0
11
163.56545275592549
21
-36.054784879434465
31
0
0
ARC
5
302
100
AcDbEntity
8
0
100
AcDbCircle
10
159.06545275592543
20
-36.05478487943445
30
0
40
4.5000000000000275
100
AcDbArc
50
325.0542947596312
51
360
0
LINE
5
303
100
AcDbEntity
8
0
100
AcDbLine
10
162.75408120204071
20
-38.632384574210477
30
0
11
162.91335660841227
21
-38.40445632146448
31
0
0
ARC
5
304
100
AcDbEntity
8
0
100
AcDbCircle
10
176.84817518262525
20
-48.142055168396219
30
0
40
16.99999999999994
100
AcDbArc
50
145.05429475963047
51
178.23341203002275
0
LINE
5
305
100
AcDbEntity
8
0
100
AcDbLine
10
159.85625515344657
20
-47.617981011435035
30
0
11
159.82851749144612
21
-48.517312009247959
31
0
0
ARC
5
306
100
AcDbEntity
8
0
100
AcDbCircle
10
181.81806105861853
20
-49.195525624139037
30
0
40
21.999999999999936
100
AcDbArc
50
178.23341203002235
51
186.50037736308076
0
LINE
5
307
100
AcDbEntity
8
0
100
AcDbLine
10
161.14173876701744
20
-56.711488403040768
30
0
11
161.97859620837559
21
-59.013673057043789
31
0
0
ARC
5
308
100
AcDbEntity
8
0
100
AcDbCircle
10
163.63910584906114
20
-58.41006819553175
30
0
40
1.766813825973377
100
AcDbArc
50
199.9764984368519
51
266.21531314710933
0
LINE
5
309
100
AcDbEntity
8
0
100
AcDbLine
10
163.5224833787544
20
-60.173028857336263
30
0
11
163.5224833787544
21
-51.676881816362901
31
0
0
LINE
5
310
100
AcDbEntity
8
0
100
AcDbLine
10
166.82248337875444
20
-51.676881816362894
30
0
11
166.82248337875444
21
-60.176882021505087
31
0
0
LINE
5
311
100
AcDbEntity
8
0
100
AcDbLine
10
166.82248337875444
20
-60.176882021505087
30
0
11
173.05482711671021
21
-60.176882021505094
31
0
0
ARC
5
312
100
AcDbEntity
8
0
100
AcDbCircle
10
173.05482711671021
20
-61.176882021505094
30
0
40
0.99999999999997868
100
AcDbArc
50
0
51
90
0
LINE
5
313
100
AcDbEntity
8
0
100
AcDbLine
10
174.05482711671021
20
-61.176882021505094
30
0
11
174.05482711671021
21
-62.807857601096842
31
0
0
ARC
5
314
100
AcDbEntity
8
0
100
AcDbCircle
10
178.05482711671016
20
-62.807857601096835
30
0
40
3.9999999999999503
100
AcDbArc
50
180
51
270.0000000000004
0
LINE
5
315
100
AcDbEntity
8
0
100
AcDbLine
10
178.05482711671019
20
-66.807857601096828
30
0
11
186.09013964079861
21
-66.807857601096813
31
0
0
ARC
5
316
100
AcDbEntity
8
0
100
AcDbCircle
10
186.09013964079864
20
-62.807857601096835
30
0
40
3.9999999999999769
100
AcDbArc
50
-90.000000000000398
51
0
0
LINE
5
317
100
AcDbEntity
8
0
100
AcDbLine
10
190.09013964079861
20
-62.807857601096835
30
0
11
190.09013964079861
21
-61.176882021505072
31
0
0
ARC
5
318
100
AcDbEntity
8
0
100
AcDbCircle
10
191.09013964079861
20
-61.176882021505072
30
0
40
0.99999999999999645
100
AcDbArc
50
89.99999999999838
51
180
0
LINE
5
319
100
AcDbEntity
8
0
100
AcDbLine
10
191.09013964079864
20
-60.176882021505079
30
0
11
197.32248337875444
21
-60.176882021505065
31
0
0
LINE
5
320
100
AcDbEntity
8
0
100
AcDbLine
10
197.32248337875444
20
-60.176882021505065
30
0
11
197.32248337875438
21
-51.289985816362815
31
0
0
LWPOLYLINE
5
321
100
AcDbEntity
8
0
100
AcDbPolyline
90
4
70
1
43
0.0
10
185.52276450383908
20
-11.859284585077042
10
182.32276450383907
20
-11.859284585077042
10
182.32276450383907
20
-20.209284585077025
10
185.52276450383908
20
-20.209284585077025
0
ARC
5
322
100
AcDbEntity
8
0
100
AcDbCircle
10
194.84331705565367
20
-30.685534442904423
30
0
40
1.499999999996203
100
AcDbArc
50
263.84670780895323
51
353.84670780895334
0
LINE
5
323
100
AcDbEntity
8
0
100
AcDbLine
10
196.33467506852026
20
-30.846317767435359
30
0
11
196.88357638308671
21
-25.754941680145443
31
0
0
ARC
5
324
100
AcDbEntity
8
0
100
AcDbCircle
10
195.88933770783979
20
-25.647752797124561
30
0
40
1.0000000000000067
100
AcDbArc
50
-6.1532921910457556
51
83.846707808952658
0
LINE
5
325
100
AcDbEntity
8
0
100
AcDbLine
10
195.9965265908607
20
-24.653514121877627
30
0
11
193.76737596488127
21
-24.413189367235919
31
0
0
LINE
5
326
100
AcDbEntity
8
0
100
AcDbLine
10
193.76737596488127
20
-24.413189367235919
30
0
11
193.28166477045127
21
-25.133228757055946
31
0
0
LINE
5
327
100
AcDbEntity
8
0
100
AcDbLine
10
193.28166477045127
20
-25.133228757055946
30
0
11
193.28166477045113
21
-27.461463424400158
31
0
0
ARC
5
328
100
AcDbEntity
8
0
100
AcDbCircle
10
190.08166477045108
20
-24.154826292966462
30
0
40
4.6015050927904309
100
AcDbArc
50
280.05895960907532
51
314.06106480164544
0
LINE
5
329
100
AcDbEntity
8
0
100
AcDbLine
10
190.88537051279414
20
-28.685599538087111
30
0
11
188.23251603014822
21
-26.896084773156232
31
0
0
LINE
5
330
100
AcDbEntity
8
0
100
AcDbLine
10
188.23251603014822
20
-26.896084773156232
30
0
11
190.08166477045108
21
-24.154826292966462
31
0
0
LINE
5
331
100
AcDbEntity
8
0
100
AcDbLine
10
190.08166477045108
20
-24.154826292966462
30
0
11
190.08166477045111
21
-17.209284585077029
31
0
0
LINE
5
332
100
AcDbEntity
8
0
100
AcDbLine
10
190.08166477045111
20
-17.209284585077029
30
0
11
193.38166477045115
21
-17.209284585077029
31
0
0
LINE
5
333
100
AcDbEntity
8
0
100
AcDbLine
10
193.38166477045115
20
-17.209284585077029
30
0
11
193.38166477045115
21
-10.3495680489367
31
0
0
ARC
5
334
100
AcDbEntity
8
0
100
AcDbCircle
10
190.09993052110556
20
-23.951380381084711
30
0
40
13.992107718364007
100
AcDbArc
50
76.43538449756015
51
90.07479578777199
0
LINE
5
335
100
AcDbEntity
8
0
100
AcDbLine
10
190.08166477045111
20
-9.9592845850770839
30
0
11
190.08166477045111
21
-6.9592845850770724
31
0
0
LINE
5
336
100
AcDbEntity
8
0
100
AcDbLine
10
190.08166477045111
20
-6.9592845850770724
30
0
11
179.84481381060507
21
-6.9592845850770511
31
0
0
LINE
5
337
100
AcDbEntity
8
0
100
AcDbLine
10
179.84481381060507
20
-6.9592845850770511
30
0
11
179.84481381060505
21
-4.6592845850770539
31
0
0
LINE
5
338
100
AcDbEntity
8
0
100
AcDbLine
10
179.84481381060505
20
-4.6592845850770539
30
0
11
169.84481381060507
21
-4.6592845850770539
31
0
0
LINE
5
339
100
AcDbEntity
8
0
100
AcDbLine
10
169.84481381060507
20
-4.6592845850770539
30
0
11
169.84481381060507
21
-6.9592845850770688
31
0
0
LINE
5
340
100
AcDbEntity
8
0
100
AcDbLine
10
169.84481381060507
20
-6.9592845850770688
30
0
11
159.60796285075898
21
-6.9592845850770892
31
0
0
LINE
5
341
100
AcDbEntity
8
0
100
AcDbLine
10
159.60796285075898
20
-6.9592845850770892
30
0
11
159.60796285075898
21
-9.959284585077091
31
0
0
ARC
5
342
100
AcDbEntity
8
0
100
AcDbCircle
10
159.58969710010459
20
-23.951380381084721
30
0
40
13.992107718364
100
AcDbArc
50
89.925204212228223
51
103.56461550243975
0
LINE
5
343
100
AcDbEntity
8
0
100
AcDbLine
10
156.30796285075903
20
-10.349568048936712
30
0
11
156.307962850759
21
-17.209284585077043
31
0
0
LINE
5
344
100
AcDbEntity
8
0
100
AcDbLine
10
156.307962850759
20
-17.209284585077043
30
0
11
159.60796285075901
21
-17.209284585077043
31
0
0
LINE
5
345
100
AcDbEntity
8
0
100
AcDbLine
10
159.60796285075901
20
-17.209284585077043
30
0
11
159.60796285075907
21
-24.154826292966554
31
0
0
LINE
5
346
100
AcDbEntity
8
0
100
AcDbLine
10
159.60796285075907
20
-24.154826292966554
30
0
11
161.4571115910619
21
-26.896084773156236
31
0
0
LINE
5
347
100
AcDbEntity
8
0
100
AcDbLine
10
161.4571115910619
20
-26.896084773156236
30
0
11
158.80425710841604
21
-28.685599538087132
31
0
0
ARC
5
348
100
AcDbEntity
8
0
100
AcDbCircle
10
159.60796285075907
20
-24.154826292966554
30
0
40
4.6015050927903838
100
AcDbArc
50
225.93893519835387
51
259.94104039092497
0
LINE
5
349
100
AcDbEntity
8
0
100
AcDbLine
10
156.40796285075902
20
-27.461463424400179
30
0
11
156.40796285075885
21
-25.133228757055978
31
0
0
LINE
5
350
100
AcDbEntity
8
0
100
AcDbLine
10
156.40796285075885
20
-25.133228757055978
30
0
11
155.92225165632891
21
-24.41318936723594
31
0
0
LINE
5
351
100
AcDbEntity
8
0
100
AcDbLine
10
155.92225165632891
20
-24.41318936723594
30
0
11
153.69310103034945
21
-24.653514121877656
31
0
0
ARC
5
352
100
AcDbEntity
8
0
100
AcDbCircle
10
153.80028991337036
20
-25.647752797124586
30
0
40
1.0000000000000155
100
AcDbArc
50
96.153292191047356
51
186.15329219104598
0
LINE
5
353
100
AcDbEntity
8
0
100
AcDbLine
10
152.80605123812342
20
-25.754941680145475
30
0
11
153.35495255268987
21
-30.846317767435405
31
0
0
ARC
5
354
100
AcDbEntity
8
0
100
AcDbCircle
10
154.84631056555648
20
-30.685534442904448
30
0
40
1.4999999999962261
100
AcDbArc
50
186.15329219104731
51
276.15329219104666
0
LINE
5
355
100
AcDbEntity
8
0
100
AcDbLine
10
155.00709389008742
20
-32.176892455771046
30
0
11
159.10869823718025
21
-31.734698443906332
31
0
0
ARC
5
356
100
AcDbEntity
8
0
100
AcDbCircle
10
174.84481381060516
20
-177.69624091285363
30
0
40
146.80734727272502
100
AcDbArc
50
83.846707808953127
51
96.15329219104693
0
LINE
5
357
100
AcDbEntity
8
0
100
AcDbLine
10
190.58092938402993
20
-31.734698443906328
30
0
11
194.68253373112273
21
-32.176892455771011
31
0
0
LWPOLYLINE
5
358
100
AcDbEntity
8
0
100
AcDbPolyline
90
22
70
1
43
0.0
10
157.07149749818788
20
25.708313084879432
10
157.07149749818788
20
22.708313084879453
10
167.07149749818791
20
22.708313084879453
10
167.07149749818791
20
25.708313084879432
10
177.308348458034
20
25.708313084879435
10
177.308348458034
20
12.521417084879412
10
180.308348458034
20
12.52141708487941
10
180.308348458034
20
-1.4785829151206165
10
177.308348458034
20
-1.4785829151206162
10
177.308348458034
20
-3.4785829151206196
10
173.97867377989263
20
-3.4785829151205934
42
-0.31531703902048763
10
169.43832149545048
20
-0.2991693709022164
42
0.31531703902048425
10
165.00859462416554
20
2.8027779515580598
10
159.10810229190264
20
2.8027779515581743
42
0.31531703902049985
10
154.6783754206175
20
-0.29916937090217754
42
-0.31531703902049207
10
150.13802313617535
20
-3.478582915120624
10
146.80834845803398
20
-3.4785829151206205
10
146.808348458034
20
-1.478582915120628
10
143.808348458034
20
-1.4785829151206298
10
143.80834845803398
20
12.521417084879396
10
146.80834845803398
20
12.521417084879396
10
146.80834845803395
20
25.708313084879432
0
LWPOLYLINE
5
359
100
AcDbEntity
8
0
100
AcDbPolyline
90
4
70
1
43
0.0
10
172.74944819142192
20
14.458313084879357
10
169.5494481914219
20
14.458313084879343
10
169.5494481914219
20
12.208313084879439
10
172.74944819142192
20
12.208313084879453
0
LWPOLYLINE
5
360
100
AcDbEntity
8
0
100
AcDbPolyline
90
4
70
1
43
0.0
10
172.74944819142192
20
20.708313084879425
10
169.5494481914219
20
20.708313084879421
10
169.5494481914219
20
18.458313084879101
10
172.74944819142192
20
18.458313084879144
0
LWPOLYLINE
5
361
100
AcDbEntity
8
0
100
AcDbPolyline
90
4
70
1
43
0.0
10
157.07149749818791
20
10.208313084879448
10
157.07149749818791
20
7.0083130848794379
10
167.07149749818791
20
7.0083130848794397
10
167.07149749818791
20
10.20831308487945
0
CIRCLE
5
362
100
AcDbEntity
8
0
100
AcDbCircle
10
153.04944819142185
20
16.458313084879393
30
0
40
4.500000000000008
0
CIRCLE
5
363
100
AcDbEntity
8
0
100
AcDbCircle
10
171.04944819142187
20
16.458313084879464
30
0
40
1.0750000000000013
0
LWPOLYLINE
5
364
100
AcDbEntity
8
0
100
AcDbPolyline
90
4
70
1
43
0.0
10
173.19871543570784
20
46.27302234007022
10
169.99871543570782
20
46.27302234007022
10
169.99871543570779
20
37.92302234007024
10
173.19871543570784
20
37.923022340070233
0
ARC
5
365
100
AcDbEntity
8
0
100
AcDbCircle
10
182.51926798752243
20
27.446772482242828
30
0
40
1.4999999999962106
100
AcDbArc
50
263.84670780895107
51
353.84670780895198
0
LINE
5
366
100
AcDbEntity
8
0
100
AcDbLine
10
184.01062600038901
20
27.285989157711853
30
0
11
184.55952731495546
21
32.377365245001812
31
0
0
ARC
5
367
100
AcDbEntity
8
0
100
AcDbCircle
10
183.56528863970854
20
32.484554128022701
30
0
40
1.0000000000000073
100
AcDbArc
50
-6.1532921910462139
51
83.846707808952658
0
LINE
5
368
100
AcDbEntity
8
0
100
AcDbLine
10
183.67247752272945
20
33.478792803269634
30
0
11
181.44332689674999
21
33.719117557911332
31
0
0
LINE
5
369
100
AcDbEntity
8
0
100
AcDbLine
10
181.44332689674999
20
33.719117557911332
30
0
11
180.95761570232003
21
32.999078168091309
31
0
0
LINE
5
370
100
AcDbEntity
8
0
100
AcDbLine
10
180.95761570232003
20
32.999078168091309
30
0
11
180.95761570231988
21
30.67084350074709
31
0
0
ARC
5
371
100
AcDbEntity
8
0
100
AcDbCircle
10
177.75761570231995
20
33.977480632180566
30
0
40
4.6015050927901875
100
AcDbArc
50
280.05895960907401
51
314.06106480164641
0
LINE
5
372
100
AcDbEntity
8
0
100
AcDbLine
10
178.56132144466287
20
29.44670738706014
30
0
11
175.90846696201697
21
31.236222151991022
31
0
0
LINE
5
373
100
AcDbEntity
8
0
100
AcDbLine
10
175.90846696201697
20
31.236222151991022
30
0
11
177.75761570231995
21
33.977480632180566
31
0
0
LINE
5
374
100
AcDbEntity
8
0
100
AcDbLine
10
177.75761570231995
20
33.977480632180566
30
0
11
177.7576157023199
21
40.923022340070233
31
0
0
LINE
5
375
100
AcDbEntity
8
0
100
AcDbLine
10
177.7576157023199
20
40.923022340070233
30
0
11
181.05761570231988
21
40.923022340070233
31
0
0
LINE
5
376
100
AcDbEntity
8
0
100
AcDbLine
10
181.05761570231988
20
40.923022340070233
30
0
11
181.05761570231988
21
47.782738876210573
31
0
0
ARC
5
377
100
AcDbEntity
8
0
100
AcDbCircle
10
177.77588145297429
20
34.180926544062544
30
0
40
13.992107718364018
100
AcDbArc
50
76.43538449756015
51
90.074795787771777
0
LINE
5
378
100
AcDbEntity
8
0
100
AcDbLine
10
177.7576157023199
20
48.17302234007019
30
0
11
177.7576157023199
21
51.173022340070197
31
0
0
LINE
5
379
100
AcDbEntity
8
0
100
AcDbLine
10
177.7576157023199
20
51.173022340070197
30
0
11
167.52076474247383
21
51.173022340070219
31
0
0
LINE
5
380
100
AcDbEntity
8
0
100
AcDbLine
10
167.52076474247383
20
51.173022340070219
30
0
11
167.52076474247383
21
53.47302234007023
31
0
0
LINE
5
381
100
AcDbEntity
8
0
100
AcDbLine
10
167.52076474247383
20
53.47302234007023
30
0
11
157.52076474247383
21
53.473022340070216
31
0
0
LINE
5
382
100
AcDbEntity
8
0
100
AcDbLine
10
157.52076474247383
20
53.473022340070216
30
0
11
157.52076474247383
21
51.173022340070204
31
0
0
LINE
5
383
100
AcDbEntity
8
0
100
AcDbLine
10
157.52076474247383
20
51.173022340070204
30
0
11
147.28391378262774
21
51.17302234007019
31
0
0
LINE
5
384
100
AcDbEntity
8
0
100
AcDbLine
10
147.28391378262774
20
51.17302234007019
30
0
11
147.28391378262774
21
48.173022340070176
31
0
0
ARC
5
385
100
AcDbEntity
8
0
100
AcDbCircle
10
147.26564803197331
20
34.18092654406253
30
0
40
13.99210771836402
100
AcDbArc
50
89.925204212228124
51
103.56461550243974
0
LINE
5
386
100
AcDbEntity
8
0
100
AcDbLine
10
143.98391378262775
20
47.782738876210551
30
0
11
143.98391378262775
21
40.923022340070219
31
0
0
LINE
5
387
100
AcDbEntity
8
0
100
AcDbLine
10
143.98391378262775
20
40.923022340070219
30
0
11
147.28391378262774
21
40.923022340070219
31
0
0
LINE
5
388
100
AcDbEntity
8
0
100
AcDbLine
10
147.28391378262774
20
40.923022340070219
30
0
11
147.28391378262779
21
33.977480632180701
31
0
0
LINE
5
389
100
AcDbEntity
8
0
100
AcDbLine
10
147.28391378262779
20
33.977480632180701
30
0
11
149.13306252293066
21
31.236222151991008
31
0
0
LINE
5
390
100
AcDbEntity
8
0
100
AcDbLine
10
149.13306252293066
20
31.236222151991008
30
0
11
146.48020804028479
21
29.446707387060123
31
0
0
ARC
5
391
100
AcDbEntity
8
0
100
AcDbCircle
10
147.28391378262779
20
33.977480632180701
30
0
40
4.6015050927903811
100
AcDbArc
50
225.93893519835424
51
259.94104039092531
0
LINE
5
392
100
AcDbEntity
8
0
100
AcDbLine
10
144.08391378262777
20
30.670843500747065
30
0
11
144.0839137826276
21
32.99907816809128
31
0
0
LINE
5
393
100
AcDbEntity
8
0
100
AcDbLine
10
144.0839137826276
20
32.99907816809128
30
0
11
143.59820258819764
21
33.719117557911311
31
0
0
LINE
5
394
100
AcDbEntity
8
0
100
AcDbLine
10
143.59820258819764
20
33.719117557911311
30
0
11
141.36905196221821
21
33.478792803269599
31
0
0
ARC
5
395
100
AcDbEntity
8
0
100
AcDbCircle
10
141.47624084523909
20
32.484554128022673
30
0
40
1.0000000000000155
100
AcDbArc
50
96.15329219104575
51
186.15329219104618
0
LINE
5
396
100
AcDbEntity
8
0
100
AcDbLine
10
140.48200216999217
20
32.377365245001783
30
0
11
141.03090348455862
21
27.28598915771185
31
0
0
ARC
5
397
100
AcDbEntity
8
0
100
AcDbCircle
10
142.52226149742521
20
27.4467724822428
30
0
40
1.4999999999962079
100
AcDbArc
50
186.15329219104711
51
276.15329219104672
0
LINE
5
398
100
AcDbEntity
8
0
100
AcDbLine
10
142.68304482195614
20
25.955414469376205
30
0
11
146.78464916904898
21
26.397608481240916
31
0
0
ARC
5
399
100
AcDbEntity
8
0
100
AcDbCircle
10
162.52076474247389
20
-119.56393398772755
30
0
40
146.80734727274609
100
AcDbArc
50
83.846707808954022
51
96.153292191046035
0
LINE
5
400
100
AcDbEntity
8
0
100
AcDbLine
10
178.25688031589866
20
26.397608481240926
30
0
11
182.35848466299143
21
25.955414469376237
31
0
0
LWPOLYLINE
5
401
100
AcDbEntity
8
0
100
AcDbPolyline
90
8
70
1
43
0.0
10
154.47724946657499
20
73.395351743931784
42
-0.41421356237308204
10
153.47724946657533
20
74.395351743931244
10
153.4772494665734
20
92.395351743931286
42
-0.41421356237312629
10
154.47724946657291
20
93.395351743930945
10
162.47724946657371
20
93.395351743931357
42
-0.41421356237309509
10
163.47724946657397
20
92.395351743931244
10
163.47724946657598
20
74.395351743932196
42
-0.41421356237312884
10
162.47724946657527
20
73.395351743931371
0
LWPOLYLINE
5
402
100
AcDbEntity
8
0
100
AcDbPolyline
90
8
70
1
43
0.0
10
162.32246734586496
20
131.89875140449578
42
-0.41421356237320428
10
163.32246734586522
20
130.89875140449507
10
163.32246734586596
20
124.89875140449672
42
-0.41421356237313145
10
162.32246734586471
20
123.89875140449534
10
154.3224673458659
20
123.89875140449513
42
-0.41421356237307944
10
153.32246734586641
20
124.89875140449448
10
153.32246734586559
20
130.89875140449527
42
-0.41421356237325629
10
154.32246734586491
20
131.8987514044949
0
LWPOLYLINE
5
403
100
AcDbEntity
8
0
100
AcDbPolyline
90
57
70
1
43
0.0
10
169.72724955710942
20
84.784206957181794
10
169.7272495571093
20
85.78420695718178
10
166.22724955710925
20
85.784206957181397
10
166.22724946657783
20
54.384453919221507
10
159.6658102073516
20
54.384453919225564
42
-0.41421356237288343
10
157.477249466578
20
56.573014660000297
10
157.47724946657701
20
65.634453919220547
10
154.47724946657661
20
65.634453919220192
10
154.47724946657607
20
71.134453919220348
10
150.72724932977141
20
71.134453919219979
10
150.72724937236882
20
82.970071752013439
10
147.52724937236874
20
82.970071752013084
10
147.52724937236883
20
81.970071752012814
42
-0.41421356237308982
10
146.52724937236894
20
80.970071752012714
10
145.52724937174852
20
80.970071752012572
42
-0.4142135623731002
10
144.52724937174838
20
81.970071752012487
10
144.52724937174798
20
86.234270252571775
42
-0.19753230843213956
10
146.55128109810749
20
91.157657271660497
10
147.5267446199243
20
92.143538641098971
10
147.52724937236758
20
92.970071752013098
10
150.72724937236762
20
92.970071752013439
10
150.72724946657166
20
114.33971275569276
10
147.52724946657162
20
114.33971275569243
10
147.5272494665717
20
113.3397127556926
42
-0.41421356237309509
10
146.52724946657179
20
112.33971275569249
10
145.52724946657179
20
112.3397127556924
42
-0.41421356237308982
10
144.52724946657167
20
113.33971275569232
10
144.52724946657153
20
115.23394493346723
42
-0.21023047567041167
10
146.79719069534394
20
120.39403640753446
10
147.52724946657094
20
121.06325339946359
10
147.52724946657059
20
124.33971275569246
10
150.72724946657064
20
124.33971275569276
10
150.72724946656894
20
141.30945391921995
10
154.72724946656902
20
141.44617358047856
10
154.72724946656876
20
143.69617358047856
10
165.22724946656882
20
143.69617358047961
10
165.22724946656905
20
141.44617358047958
10
166.22724946656905
20
141.30945391922151
10
166.22724946657087
20
123.35943664453922
10
169.42724946657091
20
123.35943664453953
10
169.42724946657123
20
120.08297728831069
10
170.04118594063513
20
119.30585490570536
42
-0.20819209280033799
10
172.42724946657188
20
114.253767929014
10
172.42724946657205
20
112.35953575123904
42
-0.4242968226893799
10
171.39361758697123
20
111.3594366445397
10
170.42724944357587
20
111.35943664453967
42
-0.41427638124380339
10
169.42724946657205
20
112.35965111681173
10
169.42724946657194
20
113.35965111681155
10
166.22724946657186
20
113.35965111681136
10
166.22724955710825
20
95.783992761379693
10
169.72724955710831
20
95.783992761380063
10
169.72724955710862
20
92.51272788917035
10
170.48902150957346
20
91.709671782838768
42
-0.20540023899371584
10
172.72724955710927
20
86.6655700331834
10
172.72724955710942
20
84.787065295512718
42
-0.42229525776024257
10
171.70310810354022
20
83.783992761380262
10
170.72717622776682
20
83.783992761380134
42
-0.4142548293123493
0
LWPOLYLINE
5
404
100
AcDbEntity
8
0
100
AcDbPolyline
90
35
70
1
43
0.0
10
199.23528858262782
20
177.63375766834255
42
-0.15260369060168366
10
196.92233058131558
20
185.0355907736141
10
196.92233058131563
20
186.06375655026829
42
0.41421356237307422
10
195.92233058131566
20
187.06375655026835
10
189.92233058131561
20
187.06375655026864
42
0.41421356237313667
10
188.92233058131555
20
186.06375655026866
10
188.92233058131481
20
172.07260243463978
42
-0.25297160166057509
10
185.7567549450622
20
166.21622217045811
42
0.12765163526496698
10
169.75738283092602
20
148.59387780009777
42
-0.75482119025730199
10
154.69415836871266
20
151.73521604145949
10
153.16219460674066
20
172.96375655027023
10
153.16069227847504
20
178.96468202832534
10
150.16069227847501
20
178.96393098003958
10
150.15718738658197
20
192.96393054131585
10
157.66318945663261
20
192.9637565502702
10
157.66318945663275
20
194.96375655027015
42
-0.4142135623731002
10
158.66318945663278
20
195.96375655027015
10
166.66318945663281
20
195.96375655026978
42
-0.41421356237309509
10
167.66318945663275
20
194.96375655026978
10
167.66318945663267
20
192.96375655026975
10
171.42233058131555
20
192.96375655026952
10
171.4223305813147
20
172.06375655026943
10
183.92233058131478
20
172.06375655026881
10
183.92233058131592
20
192.96375655026901
10
189.6631884733205
20
192.96375655026876
10
189.66318847332062
20
194.96375655026873
42
-0.41421356237309509
10
190.66318847332067
20
195.96375655026873
10
196.6631884733207
20
195.96375655026844
42
-0.41421356237309509
10
197.6631884733207
20
194.96375655026839
10
197.66318847332056
20
192.96375655026833
10
205.04022081333287
20
192.96375655026799
10
205.0621937174412
20
178.96377379343977
10
202.06219362342893
20
178.96377379343991
10
202.06219362342881
20
174.90303695846055
42
-0.76626024555844152
10
201.12985424778799
20
174.65187433331391
42
0.019866521824693825
0
LWPOLYLINE
5
405
100
AcDbEntity
8
0
100
AcDbPolyline
90
8
70
1
43
0.0
10
158.42233058131652
20
186.06375655027009
42
-0.41421356237311063
10
159.42233058131654
20
187.06375655027006
10
165.4223305813166
20
187.06375655026977
42
-0.41421356237307422
10
166.4223305813166
20
186.06375655026972
10
166.42233058131615
20
178.06375655026969
42
-0.41421356237307422
10
165.42233058131612
20
177.06375655026972
10
159.42233058131603
20
177.06375655027
42
-0.414213562373069
10
158.42233058131609
20
178.06375655027
0
CIRCLE
5
406
100
AcDbEntity
8
0
100
AcDbCircle
10
162.67340806587731
20
152.31104090227512
30
0
40
1.2250000000000132
0
LWPOLYLINE
5
407
100
AcDbEntity
8
0
100
AcDbPolyline
90
4
70
1
43
0.0
10
320.81682334205715
20
-168.26872148066394
10
324.01682334205714
20
-168.26872120419341
10
324.01682334205691
20
-156.26893567646579
10
320.81682334205686
20
-156.26893567646584
0
LWPOLYLINE
5
408
100
AcDbEntity
8
0
100
AcDbPolyline
90
4
70
1
43
0.0
10
324.01682334205782
20
-195.84416536382295
10
324.01682334205753
20
-183.84437955962485
10
320.79478523582674
20
-183.85029988766314
10
320.81682334205777
20
-195.84416536382307
0
CIRCLE
5
409
100
AcDbEntity
8
0
100
AcDbCircle
10
322.41682334205649
20
-139.24391840178376
30
0
40
1.0750000000000035
0
LWPOLYLINE
5
410
100
AcDbEntity
8
0
100
AcDbPolyline
90
6
70
1
43
0.0
10
316.41682334205649
20
-139.24391840178384
42
-0.99999999999999989
10
328.41682334205649
20
-139.24391840178365
10
328.41682334205808
20
-212.31571517150695
42
0.14144966032617592
10
329.18605411128902
20
-214.98040872161309
42
-1.8116548391158767
10
315.64759257282742
20
-214.98040872161323
42
0.14144966032624856
10
316.41682334205819
20
-212.31571517150726
0
LWPOLYLINE
5
411
100
AcDbEntity
8
0
100
AcDbPolyline
90
4
70
1
43
0.0
10
325.90140853751194
20
-218.91579340178228
10
324.40801488231716
20
-203.05641840178259
42
0.91025898983281262
10
320.4256318017986
20
-203.05641840178268
10
318.93223814660462
20
-218.91579340178239
42
1.0985884360051039
0
LWPOLYLINE
5
412
100
AcDbEntity
8
0
100
AcDbPolyline
90
4
70
1
43
0.0
10
329.64022134583871
20
-308.88668512284136
10
328.14969896607465
20
-293.02704001220224
42
0.91025898983278652
10
324.1673159508216
20
-293.0263190240658
10
322.6710510691459
20
-308.88542339360265
42
1.0985884360050973
0
ELLIPSE
5
413
100
AcDbEntity
8
0
100
AcDbEllipse
10
285.21932216358329
20
149.88818738259232
30
0
11
-15.500000000000107
21
3.5599995173995985e-13
31
0.0
40
0.99999998361145515
41
0
42
6.2831853071795862
0
LWPOLYLINE
5
414
100
AcDbEntity
8
0
100
AcDbPolyline
90
4
70
1
43
0.0
10
272.73932216358298
20
133.30636843808793
10
256.49932216358292
20
133.3063684380883
10
256.49932216358263
20
123.06636875733696
10
272.73932216358276
20
123.0663687573366
0
ELLIPSE
5
415
100
AcDbEntity
8
0
100
AcDbEllipse
10
244.2578367742652
20
149.8881873825926
30
0
11
-15.50000000000011
21
3.5599995173995985e-13
31
0.0
40
0.99999998361145515
41
0
42
6.2831853071795862
0
LWPOLYLINE
5
416
100
AcDbEntity
8
0
100
AcDbPolyline
90
4
70
1
43
0.0
10
218.61932216358039
20
174.18858559591035
10
228.61932216358045
20
174.18858559589935
10
228.61932216357707
20
177.78858553690065
10
218.61932216357701
20
177.78858553691163
0
LWPOLYLINE
5
417
100
AcDbEntity
8
0
100
AcDbPolyline
90
4
70
1
43
0.0
10
314.85783677423728
20
119.68654068735947
10
314.85783677423717
20
116.68654073652507
10
318.45783677423719
20
116.68654073652499
10
318.45783677423731
20
119.68654068735937
0
LWPOLYLINE
5
418
100
AcDbEntity
8
0
100
AcDbPolyline
90
4
70
1
43
0.0
10
310.85783677456169
20
116.68858653819404
10
300.85783677456158
20
116.68858653819427
10
300.85783677456152
20
113.088586597193
10
310.85783677456163
20
113.08858659719277
0
LWPOLYLINE
5
419
100
AcDbEntity
8
0
100
AcDbPolyline
90
4
70
1
43
0.0
10
314.85783677423854
20
174.18816919380663
10
314.85783677423848
20
171.18816924297224
10
318.4578367742385
20
171.18816924297218
10
318.45783677423856
20
174.18816919380657
0
LWPOLYLINE
5
420
100
AcDbEntity
8
0
100
AcDbPolyline
90
4
70
1
43
0.0
10
259.73857946890467
20
174.18858559586508
10
269.73857946890473
20
174.18858559585405
10
269.73857946890871
20
177.78858553685527
10
259.73857946890865
20
177.78858553686626
0
LWPOLYLINE
5
421
100
AcDbEntity
8
0
100
AcDbPolyline
90
4
70
1
43
0.0
10
228.61932216358284
20
116.68858653819592
10
218.61932216358275
20
116.68858653819615
10
218.61932216358269
20
113.08858659719489
10
228.61932216358275
20
113.08858659719465
0
LWPOLYLINE
5
422
100
AcDbEntity
8
0
100
AcDbPolyline
90
4
70
1
43
0.0
10
269.73857946890712
20
116.68858653819497
10
259.73857946890706
20
116.6885865381952
10
259.73857946890695
20
113.08858659719392
10
269.73857946890706
20
113.08858659719374
0
LWPOLYLINE
5
423
100
AcDbEntity
8
0
100
AcDbPolyline
90
4
70
1
43
0.0
10
300.85783677455925
20
174.18858559581969
10
310.8578367745593
20
174.18858559580869
10
310.85783677473432
20
177.78858553680993
10
300.85783677473421
20
177.7885855368209
0
LINE
5
424
100
AcDbEntity
8
0
100
AcDbLine
10
321.52752214103339
20
107.27006562034813
30
0
11
317.9798810398255
21
108.09307069464181
31
0
0
ELLIPSE
5
425
100
AcDbEntity
8
0
100
AcDbEllipse
10
318.65783677423514
20
111.01546282135111
30
0
11
-3.0000000000000373
21
-5.6807888948462475e-08
31
0.0
40
0.99999998361145503
41
6.2831852882433523
42
7.6260272880882205
0
LINE
5
426
100
AcDbEntity
8
0
100
AcDbLine
10
315.65783677423508
20
111.0154628213519
30
0
11
315.65783677423536
21
112.08858661358128
31
0
0
ELLIPSE
5
427
100
AcDbEntity
8
0
100
AcDbEllipse
10
316.65783677423536
20
112.08858661358104
30
0
11
-1.0000000000000211
21
2.7178015694021045e-13
31
0.0
40
0.99999998361145515
41
3.1415926535897505
42
6.2831853071796004
0
LINE
5
428
100
AcDbEntity
8
0
100
AcDbLine
10
317.65783677423536
20
112.08858661358072
30
0
11
317.65783677423508
21
111.01546282135078
31
0
0
ELLIPSE
5
429
100
AcDbEntity
8
0
100
AcDbEllipse
10
318.65783677423514
20
111.01546282135111
30
0
11
-1.0000000000000389
21
3.4271196467383826e-13
31
0.0
40
0.99999998361145515
41
6.6791017161445621e-13
42
1.3428419998452146
0
LINE
5
430
100
AcDbEntity
8
0
100
AcDbLine
10
318.43185152943204
20
110.04133211244729
30
0
11
321.97949263063947
21
109.21832703815427
31
0
0
LINE
5
431
100
AcDbEntity
8
0
100
AcDbLine
10
321.97949263063947
20
109.21832703815427
30
0
11
329.05520478263276
21
139.71885153311408
31
0
0
ELLIPSE
5
432
100
AcDbEntity
8
0
100
AcDbEllipse
10
285.21932216358329
20
149.88818738259232
30
0
11
45.000000000002473
21
9.2267067874907148e-07
31
0.0
40
0.99999998361145537
41
6.0552309597256375
42
7.0043198511134115
0
LINE
5
433
100
AcDbEntity
8
0
100
AcDbLine
10
319.01689305975714
20
179.59886177051558
30
0
11
317.33460111047941
21
178.05238580877554
31
0
0
ELLIPSE
5
434
100
AcDbEntity
8
0
100
AcDbEllipse
10
316.6578367742386
20
178.78858552042047
30
0
11
-0.99999999999925149
21
-2.0330629263431987e-08
31
0.0
40
0.99999998361145503
41
5.455747576110026
42
8.5973402296997783
0
LINE
5
435
100
AcDbEntity
8
0
100
AcDbLine
10
315.9810724379978
20
179.52478523206543
30
0
11
317.66336438727546
21
181.0712611938057
31
0
0
ELLIPSE
5
436
100
AcDbEntity
8
0
100
AcDbEllipse
10
285.21932216358329
20
149.88818738259232
30
0
11
-45.00000000000248
21
-1.0133745709239863e-06
31
0.0
40
0.99999998361145537
41
3.9071752987444768
42
4.8914375081544357
0
ELLIPSE
5
437
100
AcDbEntity
8
0
100
AcDbEllipse
10
264.73857946893202
20
263.04974781259034
30
0
11
-70.000000000018787
21
-1.4143546112066474e-06
31
0.0
40
0.99999998361145526
41
1.3917477563005658
42
1.7498448568787537
0
ELLIPSE
5
438
100
AcDbEntity
8
0
100
AcDbEllipse
10
244.2578367742652
20
149.8881873825926
30
0
11
-45.000000000004967
21
-1.0282466123001659e-06
31
0.0
40
0.99999998361145459
41
4.5333404072457792
42
5.5176026166510095
0
LINE
5
439
100
AcDbEntity
8
0
100
AcDbLine
10
211.8137945507126
20
181.07126119395474
30
0
11
213.49608650014969
21
179.52478523206798
31
0
0
ELLIPSE
5
440
100
AcDbEntity
8
0
100
AcDbEllipse
10
212.81932216390879
20
178.78858552042288
30
0
11
0.99999999999927758
21
1.9222730698875701e-08
31
0.0
40
0.99999998361145503
41
3.9690303451059861
42
7.110622998695856
0
LINE
5
441
100
AcDbEntity
8
0
100
AcDbLine
10
212.14255782766793
20
178.0523858087779
30
0
11
210.46026587822425
21
179.59886177067077
31
0
0
ELLIPSE
5
442
100
AcDbEntity
8
0
100
AcDbEllipse
10
244.2578367742652
20
149.8881873825926
30
0
11
-45.000000000004945
21
-9.7420388200930574e-07
31
0.0
40
0.99999998361145492
41
5.5620507210884567
42
6.5111298936582642
0
LINE
5
443
100
AcDbEntity
8
0
100
AcDbLine
10
200.42185532331186
20
139.7192775667495
30
0
11
207.49736987596219
21
109.21825827002141
31
0
0
LINE
5
444
100
AcDbEntity
8
0
100
AcDbLine
10
207.49736987596219
20
109.21825827002141
30
0
11
211.04530740871215
21
110.04133211244975
31
0
0
ELLIPSE
5
445
100
AcDbEntity
8
0
100
AcDbEllipse
10
210.81932216390911
20
111.01546282135291
30
0
11
1.0000000000000435
21
2.0157802337050782e-08
31
0.0
40
0.99999998361145515
41
4.9403432871769892
42
6.2831852870220999
0
LINE
5
446
100
AcDbEntity
8
0
100
AcDbLine
10
211.81932216390916
20
111.01546282135322
30
0
11
211.81932216390885
21
112.08858661358312
31
0
0
ELLIPSE
5
447
100
AcDbEntity
8
0
100
AcDbEllipse
10
212.81932216390888
20
112.08858661358342
30
0
11
-1.0000000000000033
21
-2.7889045424918035e-13
31
0.0
40
0.99999998361145515
41
3.1415926535897647
42
6.2831853071795862
0
LINE
5
448
100
AcDbEntity
8
0
100
AcDbLine
10
213.81932216390891
20
112.08858661358364
30
0
11
213.81932216390911
21
111.01546282135428
31
0
0
ELLIPSE
5
449
100
AcDbEntity
8
0
100
AcDbEllipse
10
210.81932216390911
20
111.01546282135291
30
0
11
2.9999999999999991
21
7.1297133581268757e-13
31
0.0
40
0.99999998361145526
41
4.9403433073347589
42
6.2831853071797994
0
LINE
5
450
100
AcDbEntity
8
0
100
AcDbLine
10
211.4972778983186
20
108.09307069464425
30
0
11
207.94932143076107
21
107.26999245959446
31
0
0
LINE
5
451
100
AcDbEntity
8
0
100
AcDbLine
10
207.94932143076107
20
107.26999245959446
30
0
11
211.53340694350672
21
91.819771762298203
31
0
0
ELLIPSE
5
452
100
AcDbEntity
8
0
100
AcDbEllipse
10
218.83940385199838
20
93.514590064938545
30
0
11
-7.5000000000002451
21
-1.5350583110196323e-07
31
0.0
40
0.99999998361145515
41
0.2279445876602037
42
2.6020047011754066
0
ELLIPSE
5
453
100
AcDbEntity
8
0
100
AcDbEllipse
10
264.73814886621392
20
66.027226034256458
30
0
11
46.00000000000076
21
1.2685927597289037e-06
31
0.0
40
0.99999998361145515
41
0.53957818554639947
42
2.6020046940647439
0
ELLIPSE
5
454
100
AcDbEntity
8
0
100
AcDbEllipse
10
310.63716102307762
20
93.514143981895302
30
0
11
7.5000000000015827
21
1.4528984682016244e-07
31
0.0
40
0.99999998361145537
41
3.6811708473423148
42
6.0552309608574495
0
LINE
5
455
100
AcDbEntity
8
0
100
AcDbLine
10
317.94314145958703
20
91.819254673648643
30
0
11
321.52752214103339
21
107.27006562034813
31
0
0
LWPOLYLINE
5
456
100
AcDbEntity
8
0
100
AcDbPolyline
90
4
70
1
43
0.0
10
253.83069428137094
20
-46.719122572874113
10
253.8306942813748
20
-43.119122631872919
10
246.46321939822809
20
-43.119122631864911
10
246.46321939822423
20
-46.719122572866098
0
LWPOLYLINE
5
457
100
AcDbEntity
8
0
100
AcDbPolyline
90
4
70
1
43
0.0
10
259.61143697609026
20
17.980876366782507
10
259.61143697609435
20
14.380876425781253
10
269.61143697613176
20
14.380876425781249
10
269.61143697612766
20
17.980876366782496
0
LWPOLYLINE
5
458
100
AcDbEntity
8
0
100
AcDbPolyline
90
4
70
1
43
0.0
10
218.49217967071564
20
17.980876366782542
10
218.49217967071581
20
14.38087642578127
10
226.49217967071587
20
14.380876425781267
10
226.49217967071567
20
17.980876366782535
0
LWPOLYLINE
5
459
100
AcDbEntity
8
0
100
AcDbPolyline
90
4
70
1
43
0.0
10
226.49217967071561
20
-46.719122572844554
10
226.49217967071948
20
-43.119122631843361
10
218.49217967071948
20
-43.119122631834671
10
218.49217967071559
20
-46.719122572835865
0
LWPOLYLINE
5
460
100
AcDbEntity
8
0
100
AcDbPolyline
90
4
70
1
43
0.0
10
279.47817845788461
20
-46.719122572901796
10
279.47817845788853
20
-43.119122631900595
10
270.23069428137484
20
-43.11912263189059
10
270.23069428137097
20
-46.719122572891749
0
LWPOLYLINE
5
461
100
AcDbEntity
8
0
100
AcDbPolyline
90
4
70
1
43
0.0
10
302.73069428137177
20
17.980876366782436
10
302.73069428136455
20
14.380876425781235
10
310.73069428136449
20
14.380876425781214
10
310.73069428137177
20
17.980876366782464
0
LWPOLYLINE
5
462
100
AcDbEntity
8
0
100
AcDbPolyline
90
4
70
1
43
0.0
10
210.89217967070937
20
5.3788290344836671
10
214.49217967070936
20
5.3788290344836298
10
214.49217967070936
20
13.37882877226704
10
210.89217967070937
20
13.378828772267081
0
LWPOLYLINE
5
463
100
AcDbEntity
8
0
100
AcDbPolyline
90
4
70
1
43
0.0
10
210.8921796707094
20
-42.122800406960188
10
214.49217967070939
20
-42.122800406960224
10
214.49217967070939
20
-34.122800669102709
10
210.8921796707094
20
-34.122800669102659
0
LWPOLYLINE
5
464
100
AcDbEntity
8
0
100
AcDbPolyline
90
4
70
1
43
0.0
10
310.73069428137171
20
-46.719122572935504
10
310.73069428137558
20
-43.11912263193431
10
302.73069428137558
20
-43.119122631925663
10
302.73069428137165
20
-46.719122572926814
0
ELLIPSE
5
465
100
AcDbEntity
8
0
100
AcDbEllipse
10
291.23069428141775
20
9.3808765076930811
30
0
11
-1.2250000000000005
21
8.4363939445442316e-16
31
0.0
40
0.99999998361145948
41
0
42
6.2831853071795862
0
ELLIPSE
5
466
100
AcDbEntity
8
0
100
AcDbEllipse
10
233.23069428141781
20
9.3808765077556799
30
0
11
-1.2250000000000005
21
8.4363939445442316e-16
31
0.0
40
0.99999998361145948
41
0
42
6.2831853071795862
0
ELLIPSE
5
467
100
AcDbEntity
8
0
100
AcDbEllipse
10
233.230694281365
20
-39.619122689191748
30
0
11
-1.2250000000000005
21
8.4363939445442316e-16
31
0.0
40
0.99999998361145948
41
0
42
6.2831853071795862
0
ELLIPSE
5
468
100
AcDbEntity
8
0
100
AcDbEllipse
10
291.23069428136495
20
-39.619122689254418
30
0
11
-1.2250000000000005
21
8.4363939445442316e-16
31
0.0
40
0.99999998361145948
41
0
42
6.2831853071795862
0
LINE
5
469
100
AcDbEntity
8
0
100
AcDbLine
10
233.230694281365
20
-35.619122754745867
30
0
11
231.73069428160562
21
-35.619122754745867
31
0
0
ELLIPSE
5
470
100
AcDbEntity
8
0
100
AcDbEllipse
10
231.73069428160571
20
-34.619122771134379
30
0
11
-1.00000000000005
21
-7.0426819530531408e-14
31
0.0
40
0.99999998361145936
41
0
42
1.5707963267947829
0
LINE
5
471
100
AcDbEntity
8
0
100
AcDbLine
10
230.73069428160565
20
-34.61912277113445
30
0
11
230.73069428160565
21
-28.719122867848363
31
0
0
LINE
5
472
100
AcDbEntity
8
0
100
AcDbLine
10
230.73069428160565
20
-28.719122867848363
30
0
11
218.49217928136525
21
-28.719122867848334
31
0
0
ELLIPSE
5
473
100
AcDbEntity
8
0
100
AcDbEllipse
10
218.49217928136525
20
-24.719122933402495
30
0
11
-4.0000000000000222
21
2.5098115240357534e-15
31
0.0
40
0.99999998361145936
41
6.2831853071795836
42
7.8539816339744828
0
LINE
5
474
100
AcDbEntity
8
0
100
AcDbLine
10
214.49217928136522
20
-24.719122933402481
30
0
11
214.4921792813652
21
-5.7191232448202856
31
0
0
ELLIPSE
5
475
100
AcDbEntity
8
0
100
AcDbEllipse
10
218.49217928136517
20
-5.7191232448202811
30
0
11
-3.9999999999999862
21
2.9155163678360941e-14
31
0.0
40
0.99999998361145936
41
4.7123889803846897
42
6.2831853071795942
0
LINE
5
476
100
AcDbEntity
8
0
100
AcDbLine
10
218.49217928136522
20
-1.7191233103744574
30
0
11
230.73069428160562
21
-1.7191233103744437
31
0
0
LINE
5
477
100
AcDbEntity
8
0
100
AcDbLine
10
230.73069428160562
20
-1.7191233103744437
30
0
11
230.73069428160562
21
4.3808765896983921
31
0
0
ELLIPSE
5
478
100
AcDbEntity
8
0
100
AcDbEllipse
10
231.73069428160562
20
4.3808765896983815
30
0
11
-1.0000000000000144
21
-2.15770072475958e-14
31
0.0
40
0.99999998361145936
41
4.7123889803846897
42
6.2831853071795534
0
LINE
5
479
100
AcDbEntity
8
0
100
AcDbLine
10
231.73069428160559
20
5.3808765733098554
30
0
11
233.23069428141781
21
5.3808765733098687
31
0
0
ELLIPSE
5
480
100
AcDbEntity
8
0
100
AcDbEllipse
10
233.23069428141781
20
9.3808765077556799
30
0
11
3.9999999999999858
21
-2.7547408798511653e-15
31
0.0
40
0.99999998361145948
41
4.7123889803846968
42
6.2831853071795845
0
LINE
5
481
100
AcDbEntity
8
0
100
AcDbLine
10
237.23069428141781
20
9.3808765077556711
30
0
11
237.23069428141781
21
10.880876483129775
31
0
0
ELLIPSE
5
482
100
AcDbEntity
8
0
100
AcDbEllipse
10
238.23069428141787
20
10.880876483129747
30
0
11
-1.0000000000000588
21
-5.7104229213221271e-14
31
0.0
40
0.99999998361145936
41
4.7123889803846897
42
6.283185307179501
0
LINE
5
483
100
AcDbEntity
8
0
100
AcDbLine
10
238.23069428141778
20
11.880876466741267
30
0
11
286.23069428141775
21
11.880876466741201
31
0
0
ELLIPSE
5
484
100
AcDbEntity
8
0
100
AcDbEllipse
10
286.23069428141775
20
10.880876483129747
30
0
11
1.0000000000000144
21
-6.2738899866908743e-16
31
0.0
40
0.99999998361145936
41
6.2831853071795845
42
7.8539816339744259
0
LINE
5
485
100
AcDbEntity
8
0
100
AcDbLine
10
287.23069428141775
20
10.880876483129747
30
0
11
287.23069428141775
21
9.3808765076930882
31
0
0
ELLIPSE
5
486
100
AcDbEntity
8
0
100
AcDbEllipse
10
291.23069428141775
20
9.3808765076930811
30
0
11
3.9999999999999991
21
-2.7547408798511748e-15
31
0.0
40
0.99999998361145948
41
3.1415926535897922
42
6.2831853071795845
0
LINE
5
487
100
AcDbEntity
8
0
100
AcDbLine
10
295.23069428141775
20
9.3808765076930722
30
0
11
295.23069428141775
21
10.880876483129704
31
0
0
ELLIPSE
5
488
100
AcDbEntity
8
0
100
AcDbEllipse
10
296.23069428141781
20
10.880876483129711
30
0
11
-1.0000000000000189
21
-1.7136304398021805e-14
31
0.0
40
0.99999998361145936
41
4.7123889803848034
42
6.2831853071795756
0
LINE
5
489
100
AcDbEntity
8
0
100
AcDbLine
10
296.2306942814177
20
11.88087646674119
30
0
11
309.73069428160824
21
11.880876466741439
31
0
0
ELLIPSE
5
490
100
AcDbEntity
8
0
100
AcDbEllipse
10
309.73069428160829
20
10.380876491324287
30
0
11
1.4999999999999862
21
-9.4117931537911922e-16
31
0.0
40
0.99999998361145948
41
6.2831853071795853
42
7.8539816339745396
0
LINE
5
491
100
AcDbEntity
8
0
100
AcDbLine
10
311.23069428160824
20
10.380876491324285
30
0
11
311.23069428160829
21
-40.619122672860335
31
0
0
ELLIPSE
5
492
100
AcDbEntity
8
0
100
AcDbEllipse
10
309.73069428160829
20
-40.619122672860328
30
0
11
1.500000000000004
21
-2.7586531475838783e-14
31
0.0
40
0.99999998361145925
41
4.7123889803846613
42
6.2831853071795969
0
LINE
5
493
100
AcDbEntity
8
0
100
AcDbLine
10
309.73069428160824
20
-42.119122648277525
30
0
11
296.230694281365
21
-42.119122648277518
31
0
0
ELLIPSE
5
494
100
AcDbEntity
8
0
100
AcDbEllipse
10
296.230694281365
20
-41.119122664666037
30
0
11
-1.0000000000000144
21
6.2706595126826449e-16
31
0.0
40
0.99999998361145936
41
0
42
1.5707963267948966
0
LINE
5
495
100
AcDbEntity
8
0
100
AcDbLine
10
295.230694281365
20
-41.119122664666037
30
0
11
295.230694281365
21
-39.619122689254425
31
0
0
ELLIPSE
5
496
100
AcDbEntity
8
0
100
AcDbEllipse
10
291.23069428136495
20
-39.619122689254418
30
0
11
-4.0000000000000346
21
2.7581026909415338e-15
31
0.0
40
0.99999998361145948
41
3.1415926535897931
42
6.2831853071795845
0
LINE
5
497
100
AcDbEntity
8
0
100
AcDbLine
10
287.23069428136495
20
-39.619122689254404
30
0
11
287.23069428136489
21
-41.11912266466603
31
0
0
ELLIPSE
5
498
100
AcDbEntity
8
0
100
AcDbEllipse
10
286.23069428136489
20
-41.119122664666001
30
0
11
1.0000000000000189
21
1.7136182955163979e-14
31
0.0
40
0.99999998361145936
41
4.7123889803846897
42
6.2831853071795436
0
LINE
5
499
100
AcDbEntity
8
0
100
AcDbLine
10
286.23069428136495
20
-42.119122648277482
30
0
11
238.23069428136503
21
-42.119122648277454
31
0
0
ELLIPSE
5
500
100
AcDbEntity
8
0
100
AcDbEllipse
10
238.23069428136503
20
-41.119122664666001
30
0
11
-1.0000000000000144
21
6.2741000108213018e-16
31
0.0
40
0.99999998361145936
41
0
42
1.570796326794925
0
LINE
5
501
100
AcDbEntity
8
0
100
AcDbLine
10
237.230694281365
20
-41.119122664666001
30
0
11
237.230694281365
21
-39.619122689191791
31
0
0
ELLIPSE
5
502
100
AcDbEntity
8
0
100
AcDbEllipse
10
233.230694281365
20
-39.619122689191748
30
0
11
4.0000000000000222
21
-2.7547408798511902e-15
31
0.0
40
0.99999998361145936
41
6.2831853071795774
42
7.8539816339744686
0
LINE
5
503
100
AcDbEntity
8
0
100
AcDbLine
10
207.82249376407506
20
23.799397468861052
30
0
11
211.37013540512228
21
22.976392269331978
31
0
0
ELLIPSE
5
504
100
AcDbEntity
8
0
100
AcDbEllipse
10
210.69217967071268
20
20.054000142622677
30
0
11
3.0000000000000124
21
-1.262072987784357e-07
31
0.0
40
0.9999999836114597
41
4.2068852401656052e-08
42
1.3428420419137306
0
LINE
5
505
100
AcDbEntity
8
0
100
AcDbLine
10
213.69217967071268
20
20.054000142621931
30
0
11
213.69217967071248
21
18.980876350392592
31
0
0
ELLIPSE
5
506
100
AcDbEntity
8
0
100
AcDbEllipse
10
212.69217967071242
20
18.980876350392837
30
0
11
1.0000000000000142
21
-2.4949716340652556e-13
31
0.0
40
0.99999998361145948
41
3.1415926535897398
42
6.2831853071795933
0
LINE
5
507
100
AcDbEntity
8
0
100
AcDbLine
10
211.69217967071239
20
18.980876350393139
30
0
11
211.69217967071273
21
20.054000142623011
31
0
0
ELLIPSE
5
508
100
AcDbEntity
8
0
100
AcDbEllipse
10
210.69217967071268
20
20.054000142622677
30
0
11
1.000000000000032
21
-3.2046129529991556e-13
31
0.0
40
0.99999998361145948
41
6.5369931689925501e-13
42
1.3428419998451893
0
LINE
5
509
100
AcDbEntity
8
0
100
AcDbLine
10
210.91816491551577
20
21.028130851526509
30
0
11
207.37052326744015
21
21.851136052685494
31
0
0
LINE
5
510
100
AcDbEntity
8
0
100
AcDbLine
10
207.37052326744015
20
21.851136052685494
30
0
11
200.29481166231585
21
-8.6493855850884849
31
0
0
ELLIPSE
5
511
100
AcDbEntity
8
0
100
AcDbEllipse
10
244.13069428136524
20
-18.818721267905225
30
0
11
-45.000000000002146
21
8.0859754352305082e-08
31
0.0
40
0.99999996722292273
41
6.0552309820263357
42
7.0043199329403656
0
LINE
5
512
100
AcDbEntity
8
0
100
AcDbLine
10
210.33312515375763
20
-48.52939718075735
30
0
11
212.01541533446999
21
-46.982922844801543
31
0
0
ELLIPSE
5
513
100
AcDbEntity
8
0
100
AcDbEllipse
10
212.69217967071083
20
-47.719122556446472
30
0
11
0.99999999999924383
21
-4.064286733551637e-08
31
0.0
40
0.99999998361145936
41
5.4557476370835074
42
8.5973402906733298
0
LINE
5
514
100
AcDbEntity
8
0
100
AcDbLine
10
213.36894400695166
20
-48.455322268091436
30
0
11
211.68665392619903
21
-50.001796512157732
31
0
0
ELLIPSE
5
515
100
AcDbEntity
8
0
100
AcDbEllipse
10
244.13069428136524
20
-18.818721267905225
30
0
11
-45.000000000002146
21
8.0859754352305082e-08
31
0.0
40
0.99999996722292273
41
0.76558272939215211
42
1.7498448788809835
0
ELLIPSE
5
516
100
AcDbEntity
8
0
100
AcDbEllipse
10
264.61143697603825
20
-131.98027984335363
30
0
11
-70
21
-7.807101918067692e-08
31
0.0
40
0.99999996722292306
41
4.5333404289804218
42
4.8914375295585941
0
ELLIPSE
5
517
100
AcDbEntity
8
0
100
AcDbEllipse
10
285.09217967068304
20
-18.818721267904586
30
0
11
45.000000000004661
21
2.0011296049046643e-08
31
0.0
40
0.99999996722292295
41
4.5333404296510338
42
5.5176025791351302
0
LINE
5
518
100
AcDbEntity
8
0
100
AcDbLine
10
317.53622002571109
20
-50.001796512304537
30
0
11
315.85392994479912
21
-48.455322268091663
31
0
0
ELLIPSE
5
519
100
AcDbEntity
8
0
100
AcDbEllipse
10
316.53069428103993
20
-47.719122556446578
30
0
11
-0.99999999999926981
21
4.9678318195245381e-08
31
0.0
40
0.99999998361145914
41
3.9690304140070456
42
7.1106230675969382
0
LINE
5
520
100
AcDbEntity
8
0
100
AcDbLine
10
317.20745861728079
20
-46.982922844801593
30
0
11
318.88974879815919
21
-48.529397180910181
31
0
0
ELLIPSE
5
521
100
AcDbEntity
8
0
100
AcDbEllipse
10
285.09217967068304
20
-18.818721267904586
30
0
11
45.000000000004661
21
2.0011296049046643e-08
31
0.0
40
0.99999996722292295
41
5.5620506827665031
42
6.5111299148625648
0
LINE
5
522
100
AcDbEntity
8
0
100
AcDbLine
10
328.92816112163587
20
-8.6498116187141356
30
0
11
321.85264711582988
21
21.851204820815504
31
0
0
LINE
5
523
100
AcDbEntity
8
0
100
AcDbLine
10
321.85264711582988
20
21.851204820815504
30
0
11
318.30470903623484
21
21.028130851526456
31
0
0
ELLIPSE
5
524
100
AcDbEntity
8
0
100
AcDbEllipse
10
318.53069428103794
20
20.054000142623281
30
0
11
-1.000000000000036
21
4.4013386754637729e-08
31
0.0
40
0.99999998361145936
41
4.9403433513482931
42
6.2831853511932785
0
LINE
5
525
100
AcDbEntity
8
0
100
AcDbLine
10
317.53069428103788
20
20.054000142622979
30
0
11
317.53069428103822
21
18.980876350393071
31
0
0
ELLIPSE
5
526
100
AcDbEntity
8
0
100
AcDbEllipse
10
316.53069428103822
20
18.980876350392766
30
0
11
0.99999999999999645
21
3.0117344778286338e-13
31
0.0
40
0.99999998361145948
41
3.1415926535897434
42
6.2831853071795862
0
LINE
5
527
100
AcDbEntity
8
0
100
AcDbLine
10
315.53069428103817
20
18.980876350392517
30
0
11
315.53069428103794
21
20.054000142621856
31
0
0
ELLIPSE
5
528
100
AcDbEntity
8
0
100
AcDbEllipse
10
318.53069428103794
20
20.054000142623281
30
0
11
-2.99999999999998
21
-7.7966997457200838e-13
31
0.0
40
0.99999998361145948
41
4.9403433073347731
42
6.2831853071798029
0
LINE
5
529
100
AcDbEntity
8
0
100
AcDbLine
10
317.85273854662836
20
22.976392269331924
30
0
11
321.40069555400231
21
23.799470629612017
31
0
0
LINE
5
530
100
AcDbEntity
8
0
100
AcDbLine
10
321.40069555400231
20
23.799470629612017
30
0
11
309.42198195081295
21
75.437124125243912
31
0
0
ELLIPSE
5
531
100
AcDbEntity
8
0
100
AcDbEllipse
10
264.61186757873247
20
65.042238706072425
30
0
11
45.999999961503441
21
-1.8658645695168732e-06
31
0.0
40
0.99999998361145925
41
0.227944645082334
42
0.77314792047033398
0
ELLIPSE
5
532
100
AcDbEntity
8
0
100
AcDbEllipse
10
296.81907702839879
20
96.469863872899211
30
0
11
-1.0000000000000009
21
4.1484751675535669e-08
31
0.0
40
0.99999998361145936
41
3.9147405749826638
42
5.5299959911974295
0
ELLIPSE
5
533
100
AcDbEntity
8
0
100
AcDbEllipse
10
293.90103238230449
20
99.2057394545118
30
0
11
-3.0000000000000555
21
1.2577972385852121e-07
31
0.0
40
0.99999998361145925
41
0.86206610067429623
42
2.388403338049367
0
ELLIPSE
5
534
100
AcDbEntity
8
0
100
AcDbEllipse
10
292.59929172325423
20
97.687361642170998
30
0
11
-1.0000000000000331
21
4.0285329030997914e-08
31
0.0
40
0.99999998361145959
41
4.0036587526228438
42
7.1452514062126369
0
ELLIPSE
5
535
100
AcDbEntity
8
0
100
AcDbEllipse
10
293.90103238230449
20
99.2057394545118
30
0
11
0.99999999999999845
21
-4.2900425642478097e-08
31
0.0
40
0.99999998361145936
41
4.003658755237927
42
7.1452514088277486
0
ELLIPSE
5
536
100
AcDbEntity
8
0
100
AcDbEllipse
10
264.61186757873247
20
65.042238706072425
30
0
11
45.99999996150342
21
-2.2415562428435014e-06
31
0.0
40
0.99999998361145936
41
0.8620661074772128
42
1.0006333280314585
0
ELLIPSE
5
537
100
AcDbEntity
8
0
100
AcDbEllipse
10
288.90148657111928
20
102.92382207720566
30
0
11
-1.0000000000000768
21
4.4757019757035721e-08
31
0.0
40
0.99999998361145959
41
4.1422259776487866
42
7.2838186523119619
0
ELLIPSE
5
538
100
AcDbEntity
8
0
100
AcDbEllipse
10
287.82194794831173
20
101.24019614815923
30
0
11
1.0000000000000127
21
-3.9573751706156735e-08
31
0.0
40
0.99999998361145948
41
4.1422259724655035
42
7.2838186049818656
0
ELLIPSE
5
539
100
AcDbEntity
8
0
100
AcDbEllipse
10
288.90148657111928
20
102.92382207720566
30
0
11
-3.0000000000003544
21
1.3834488804542741e-07
31
0.0
40
0.99999998361145948
41
5.7574813952214532
42
7.2838186325964944
0
ELLIPSE
5
540
100
AcDbEntity
8
0
100
AcDbEllipse
10
285.44160299390865
20
104.93111017314256
30
0
11
1.0000000000005134
21
-4.9996660006490501e-08
31
0.0
40
0.99999998361145903
41
5.7574813991031313
42
7.3727368153179951
0
ELLIPSE
5
541
100
AcDbEntity
8
0
100
AcDbEllipse
10
264.61186757873247
20
65.042238706072425
30
0
11
45.999999961503441
21
-1.8998511741585844e-06
31
0.0
40
0.99999998361145925
41
1.0895514994427737
42
1.295596647161418
0
ELLIPSE
5
542
100
AcDbEntity
8
0
100
AcDbEllipse
10
264.61186757873213
20
130.96193568497137
30
0
11
-24.999999999999659
21
1.1554216028386577e-06
31
0.0
40
0.99999998361145992
41
1.7112578395987375
42
2.0943951854424232
0
LINE
5
543
100
AcDbEntity
8
0
100
AcDbLine
10
268.11186886288732
20
106.20814868324693
30
0
11
268.11186886288732
21
65.042238706072425
31
0
0
ELLIPSE
5
544
100
AcDbEntity
8
0
100
AcDbEllipse
10
264.61186757873247
20
65.042238706072425
30
0
11
3.5000012841548997
21
-2.4103991542482787e-15
31
0.0
40
0.99999998361145948
41
3.1424492763622416
42
6.2831853071795898
0
LINE
5
545
100
AcDbEntity
8
0
100
AcDbLine
10
261.11186757873247
20
65.039240525684633
30
0
11
261.11186757873242
21
106.20814850167696
31
0
0
ELLIPSE
5
546
100
AcDbEntity
8
0
100
AcDbEllipse
10
264.61186757873213
20
130.96193568497137
30
0
11
-24.999999999999662
21
1.1392526116926758e-06
31
0.0
40
0.99999998361145914
41
1.0471975967666995
42
1.4303349576551536
0
ELLIPSE
5
547
100
AcDbEntity
8
0
100
AcDbEllipse
10
264.61186757873247
20
65.042238706072425
30
0
11
45.999999961500187
21
-2.33591243015141e-06
31
0.0
40
0.99999998361145981
41
1.8459960845450567
42
2.0520412462288351
0
ELLIPSE
5
548
100
AcDbEntity
8
0
100
AcDbEllipse
10
243.78213216355618
20
104.93111017314257
30
0
11
-1.0000000000000178
21
4.1210180268258512e-08
31
0.0
40
0.99999998361145925
41
5.1936338902479866
42
6.808889306462885
0
ELLIPSE
5
549
100
AcDbEntity
8
0
100
AcDbEllipse
10
240.32224858634564
20
102.92382207720567
30
0
11
3.0000000000001052
21
-1.2615242073188426e-07
31
0.0
40
0.99999998361145948
41
5.2825520699284194
42
6.8088893073035051
0
ELLIPSE
5
550
100
AcDbEntity
8
0
100
AcDbEllipse
10
241.40178720915316
20
101.24019614815928
30
0
11
-1.00000000000001
21
4.7657245580423613e-08
31
0.0
40
0.99999998361145959
41
5.2825520755349036
42
8.4241447291246416
0
ELLIPSE
5
551
100
AcDbEntity
8
0
100
AcDbEllipse
10
240.32224858634564
20
102.92382207720567
30
0
11
1.0000000000000753
21
-4.0442657348038751e-08
31
0.0
40
0.99999998361145959
41
5.2825520683202924
42
8.4241447219100465
0
ELLIPSE
5
552
100
AcDbEntity
8
0
100
AcDbEllipse
10
264.61186757873247
20
65.042238706072425
30
0
11
45.999999961500187
21
-2.4666151965391236e-06
31
0.0
40
0.99999998361145936
41
2.1409594279098862
42
2.2795266484641328
0
ELLIPSE
5
553
100
AcDbEntity
8
0
100
AcDbEllipse
10
235.32270277516039
20
99.205739454511843
30
0
11
-0.99999999999999523
21
4.8037035599302058e-08
31
0.0
40
0.99999998361145914
41
5.4211192964688584
42
8.5627119711321527
0
ELLIPSE
5
554
100
AcDbEntity
8
0
100
AcDbEllipse
10
236.62444343421069
20
97.687361642171027
30
0
11
1.0000000000000366
21
-4.3957080128609327e-08
31
0.0
40
0.99999998361145948
41
5.4211192923889211
42
8.5627119249052974
0
ELLIPSE
5
555
100
AcDbEntity
8
0
100
AcDbEllipse
10
235.32270277516039
20
99.205739454511843
30
0
11
-3.0000000000000537
21
1.2399022641940149e-07
31
0.0
40
0.99999998361145925
41
0.75318939879707592
42
2.2795266361721418
0
ELLIPSE
5
556
100
AcDbEntity
8
0
100
AcDbEllipse
10
232.40465812906609
20
96.469863872899253
30
0
11
-1.0000000000000371
21
4.9960365428036724e-08
31
0.0
40
0.99999998361145936
41
3.8947820610171955
42
5.5100374772319007
0
ELLIPSE
5
557
100
AcDbEntity
8
0
100
AcDbEllipse
10
264.61186757873247
20
65.042238706072425
30
0
11
-45.999999961500194
21
2.1424003660008846e-06
31
0.0
40
0.99999998361145936
41
5.5100374738454461
42
6.0552310304111323
0
LINE
5
558
100
AcDbEntity
8
0
100
AcDbLine
10
219.80185423481743
20
75.437559626284639
30
0
11
207.82249376407506
21
23.799397468861052
31
0
0
LINE
5
559
100
AcDbEntity
8
0
100
AcDbLine
10
191.98567538858805
20
111.88260360877041
30
0
11
191.98567538858885
21
120.13680118242556
31
0
0
LINE
5
560
100
AcDbEntity
8
0
100
AcDbLine
10
191.98567538858885
20
120.13680118242556
30
0
11
188.89529259844753
21
120.13680118242587
31
0
0
ARC
5
561
100
AcDbEntity
8
0
100
AcDbCircle
10
209.38799485093912
20
120.63260360876373
30
0
40
20.498699121047576
100
AcDbArc
50
181.38594926632325
51
192.68120161032451
0
LINE
5
562
100
AcDbEntity
8
0
100
AcDbLine
10
189.38932825397501
20
116.13260360890733
30
0
11
189.38932825397666
21
112.38760833179931
31
0
0
LINE
5
563
100
AcDbEntity
8
0
100
AcDbLine
10
189.38932825397666
20
112.38760833179931
30
0
11
188.72880768998681
21
115.07849705495667
31
0
0
ARC
5
564
100
AcDbEntity
8
0
100
AcDbCircle
10
183.43567538858952
20
126.88301278407637
30
0
40
12.936917761164317
100
AcDbArc
50
284.77856493916681
51
294.15141341769305
0
LINE
5
565
100
AcDbEntity
8
0
100
AcDbLine
10
186.73567662930145
20
114.37406266944132
30
0
11
186.73567677611518
21
97.131982337722661
31
0
0
ARC
5
566
100
AcDbEntity
8
0
100
AcDbCircle
10
186.73567678463004
20
96.131982337722661
30
0
40
0.99999999999997868
100
AcDbArc
50
-89.999999512132831
51
90.000000487865535
0
LINE
5
567
100
AcDbEntity
8
0
100
AcDbLine
10
186.73567679314493
20
95.13198233772269
30
0
11
186.73567695620423
21
75.98198233772294
31
0
0
LINE
5
568
100
AcDbEntity
8
0
100
AcDbLine
10
186.73567695620423
20
75.98198233772294
30
0
11
183.43567695620425
21
75.981982337723281
31
0
0
ARC
5
569
100
AcDbEntity
8
0
100
AcDbCircle
10
182.43474396963225
20
75.233227352126804
30
0
40
1.2500003488253562
100
AcDbArc
50
36.798584869448753
51
143.05874694074694
0
ARC
5
570
100
AcDbEntity
8
0
100
AcDbCircle
10
185.08567695620425
20
75.98198233772311
30
0
40
3.6499992992901604
100
AcDbArc
50
179.9609128242692
51
271.83394487579108
0
LINE
5
571
100
AcDbEntity
8
0
100
AcDbLine
10
185.20248755907349
20
72.333852656930972
30
0
11
190.42624490123109
21
72.501113773661785
31
0
0
ARC
5
572
100
AcDbEntity
8
0
100
AcDbCircle
10
190.36223907915218
20
74.500089324973004
30
0
40
2.0000000000000111
100
AcDbArc
50
271.83394487579147
51
357.3516158586437
0
LINE
5
573
100
AcDbEntity
8
0
100
AcDbLine
10
192.36010289166853
20
74.407676194749868
30
0
11
192.38372849924309
21
74.91843420400707
31
0
0
ARC
5
574
100
AcDbEntity
8
0
100
AcDbCircle
10
191.38479659298497
20
74.964640769118688
30
0
40
0.9999999999999637
100
AcDbArc
50
-2.6483841413591778
51
78.80089099489669
0
LINE
5
575
100
AcDbEntity
8
0
100
AcDbLine
10
191.57901568954935
20
75.945598944847731
30
0
11
190.54145784984772
21
76.15102416199349
31
0
0
ARC
5
576
100
AcDbEntity
8
0
100
AcDbCircle
10
190.73567694641213
20
77.131982337722576
30
0
40
1.000000000000002
100
AcDbArc
50
125.00206206638867
51
258.80089099489555
0
LINE
5
577
100
AcDbEntity
8
0
100
AcDbLine
10
190.1620710292751
20
77.951113738552365
30
0
11
195.03009958227693
21
81.360005132484304
31
0
0
ARC
5
578
100
AcDbEntity
8
0
100
AcDbCircle
10
192.73567591374092
20
84.636530735811874
30
0
40
3.9999999999999272
100
AcDbArc
50
305.00206206617753
51
360
0
LINE
5
579
100
AcDbEntity
8
0
100
AcDbLine
10
196.73567591374086
20
84.636530735660131
30
0
11
196.73567591433545
21
100.62719031439718
31
0
0
ARC
5
580
100
AcDbEntity
8
0
100
AcDbCircle
10
285.73567591426195
20
100.62719031102871
30
0
40
88.999999999926516
100
AcDbArc
50
168.23624446035484
51
180
0
LINE
5
581
100
AcDbEntity
8
0
100
AcDbLine
10
198.60498260221121
20
118.77222497476721
30
0
11
200.13549003427855
21
126.12157294497709
31
0
0
ARC
5
582
100
AcDbEntity
8
0
100
AcDbCircle
10
166.36010891890336
20
133.15532233710374
30
0
40
34.500000000001222
100
AcDbArc
50
348.23624446035956
51
360
0
LINE
5
583
100
AcDbEntity
8
0
100
AcDbLine
10
200.86010891890459
20
133.15532233710016
30
0
11
200.86010891890484
21
135.79211696405454
31
0
0
ARC
5
584
100
AcDbEntity
8
0
100
AcDbCircle
10
196.36010891890493
20
135.79211696405497
30
0
40
4.4999999999999218
100
AcDbArc
50
0
51
89.999999999994216
0
LINE
5
585
100
AcDbEntity
8
0
100
AcDbLine
10
196.36010891890538
20
140.29211696405491
30
0
11
189.36010891890589
21
140.29211696405559
31
0
0
ARC
5
586
100
AcDbEntity
8
0
100
AcDbCircle
10
189.36010891890547
20
135.79211696405571
30
0
40
4.4999999999999041
100
AcDbArc
50
89.999999999994571
51
180
0
LINE
5
587
100
AcDbEntity
8
0
100
AcDbLine
10
184.86010891890558
20
135.79211696405619
30
0
11
184.86010891890515
21
132.18703159437172
31
0
0
ARC
5
588
100
AcDbEntity
8
0
100
AcDbCircle
10
182.86010891890521
20
132.18703159437194
30
0
40
1.9999999999999929
100
AcDbArc
50
269.99999999999346
51
360
0
LINE
5
589
100
AcDbEntity
8
0
100
AcDbLine
10
182.86010891890498
20
130.18703159437197
30
0
11
181.86010890588719
21
130.18703159437206
31
0
0
ARC
5
590
100
AcDbEntity
8
0
100
AcDbCircle
10
181.86010890588699
20
128.18703159437209
30
0
40
1.9999999999999751
100
AcDbArc
50
89.999999999994301
51
180
0
LINE
5
591
100
AcDbEntity
8
0
100
AcDbLine
10
179.86010890588702
20
128.18703159437231
30
0
11
179.8601089058869
21
127.26200001592647
31
0
0
ARC
5
592
100
AcDbEntity
8
0
100
AcDbCircle
10
183.43567538858952
20
126.88301278407637
30
0
40
3.5955954992367727
100
AcDbArc
50
173.94960350879052
51
255.99999999992443
0
LINE
5
593
100
AcDbEntity
8
0
100
AcDbLine
10
182.56582210959994
20
123.39422183775092
30
0
11
183.43567538858952
21
126.88301278407637
31
0
0
LINE
5
594
100
AcDbEntity
8
0
100
AcDbLine
10
183.43567538858952
20
126.88301278407637
30
0
11
188.82298822208239
21
126.88301278407602
31
0
0
LINE
5
595
100
AcDbEntity
8
0
100
AcDbLine
10
188.82298822208239
20
126.88301278407602
30
0
11
189.38567538867147
21
129.38258301195054
31
0
0
LINE
5
596
100
AcDbEntity
8
0
100
AcDbLine
10
189.38567538867147
20
129.38258301195054
30
0
11
189.38567533484022
21
126.88258301195057
31
0
0
LINE
5
597
100
AcDbEntity
8
0
100
AcDbLine
10
189.38567533484022
20
126.88258301195057
30
0
11
189.38932825397791
21
125.13260360863335
31
0
0
ARC
5
598
100
AcDbEntity
8
0
100
AcDbCircle
10
209.38799485093912
20
120.63260360876373
30
0
40
20.498699121047622
100
AcDbArc
50
167.31879838963764
51
178.59057852872445
0
LINE
5
599
100
AcDbEntity
8
0
100
AcDbLine
10
188.89549743207996
20
121.13680118242591
30
0
11
191.98567538858896
21
121.13680118242553
31
0
0
LINE
5
600
100
AcDbEntity
8
0
100
AcDbLine
10
191.98567538858896
20
121.13680118242553
30
0
11
191.98567538858978
21
129.38260360877013
31
0
0
ARC
5
601
100
AcDbEntity
8
0
100
AcDbCircle
10
167.21484205525775
20
120.63260360877277
30
0
40
26.270833333331225
100
AcDbArc
50
-19.455157102810254
51
19.455157102798704
0
LWPOLYLINE
5
602
100
AcDbEntity
8
0
100
AcDbPolyline
90
8
70
1
43
0.0
10
192.73567591801469
20
92.643420337722119
10
190.73567682201536
20
92.643420337722262
42
0.41421356486474009
10
189.73567682201522
20
91.643420329215303
10
189.73567688156345
20
84.643420325652528
42
0.41421355988142389
10
190.73567687799979
20
83.64342033772283
10
192.7356759180137
20
83.643420337722191
42
0.41421356237313145
10
193.7356759180139
20
84.643420337722091
10
193.73567591801461
20
91.643420337722077
42
0.4142135623731002
0
LWPOLYLINE
5
603
100
AcDbEntity
8
0
100
AcDbPolyline
90
8
70
1
43
0.0
10
196.3601089189051
20
137.29211699042469
10
189.36010891890561
20
137.2921169904254
42
0.41421356237308121
10
187.8601089189055
20
135.7921169904256
10
187.86010891890527
20
133.79211699042563
42
0.41421356237309509
10
189.36010891890507
20
132.29211699042548
10
196.36010891890461
20
132.29211699042477
42
0.41421356237309509
10
197.8601089189047
20
133.7921169904246
10
197.86010891890493
20
135.79211699042457
42
0.41421356237310197
0
LWPOLYLINE
5
604
100
AcDbEntity
8
0
100
AcDbPolyline
90
4
70
1
43
0.0
10
183.78390987193396
20
156.67129589564098
10
183.78390987193376
20
144.17129589564109
10
186.43390987193374
20
144.17129589564104
10
186.43390987193396
20
156.67129589564095
0
LWPOLYLINE
5
605
100
AcDbEntity
8
0
100
AcDbPolyline
90
20
70
1
43
0.0
10
198.46062650324063
20
156.67129589563848
10
198.46062650324046
20
144.1712958956436
10
189.43390987193379
20
144.17129589564294
10
189.43390987193374
20
141.17129589564109
10
181.08390987193374
20
141.17129589564121
10
181.08390987193377
20
144.17129589564115
10
176.18390987193391
20
144.17129589564124
10
176.18390987193391
20
146.17129589564121
10
173.88390987191906
20
146.17129589564126
10
173.88390987192116
20
148.42129589564152
10
179.29166527566295
20
148.42129589564112
10
179.29166527566304
20
152.42129589564109
10
173.88390987193307
20
152.42129589564126
10
173.88390987193372
20
154.67129589564115
10
176.18390987193374
20
154.67129589564115
10
176.18390987193379
20
156.67129589564112
10
181.08390987193394
20
156.67129589564104
10
181.083909871934
20
159.67129589564104
10
189.43390987193399
20
159.67129589564087
10
189.43390987193393
20
156.67129589563925
0
LWPOLYLINE
5
606
100
AcDbEntity
8
0
100
AcDbPolyline
90
32
70
1
43
0.0
10
255.0949178135939
20
1.1826650454571874
10
255.09491781359407
20
-12.817160524773712
10
252.44491781359403
20
-12.817160524773744
10
252.444917813594
20
-13.817160524773762
42
-0.41421356237308465
10
251.44491781359406
20
-14.817160524773747
10
245.44491781359395
20
-14.817160524773847
42
-0.41421356237308854
10
244.44491781359392
20
-13.817160524773854
10
244.44491781359392
20
-12.817160524773856
10
239.34491781359384
20
-12.817160524773925
10
239.34491781359378
20
-7.8171605247739171
10
237.44491781359375
20
-7.8171605247738896
42
-0.41421356237309698
10
236.44491781359375
20
-6.8171605247739393
10
236.44491781359363
20
1.1828394752260716
42
-0.41421356237309181
10
237.44491781359361
20
2.1828394752261024
10
239.34491781359361
20
2.1828394752261282
10
239.34491781359355
20
7.182839475226138
10
280.34491781359418
20
7.1828394752266966
10
280.34491781359418
20
2.1828394752263511
10
282.24491781359416
20
2.1828394752263769
42
-0.41421356237309176
10
283.24491781359421
20
1.1828394752263383
10
283.24491781359421
20
-6.8171605247736897
42
-0.41421356237309731
10
282.24491781359416
20
-7.8171605247737217
10
280.34491781359435
20
-7.8171605247737119
10
280.34491781359441
20
-12.817160524773376
10
275.24491781359438
20
-12.817160524773442
10
275.24491781359438
20
-13.817160524773444
42
-0.41421356237308399
10
274.24491781359444
20
-14.817160524773449
10
267.24491781359427
20
-14.817160524773563
42
-0.4142135623730937
10
266.24491781359427
20
-13.817160524773552
10
266.24491781359427
20
-12.81716052477357
10
258.39491781359408
20
-12.817160524773673
10
258.39491781359396
20
1.1826650454572367
0
LWPOLYLINE
5
607
100
AcDbEntity
8
0
100
AcDbPolyline
90
32
70
1
43
0.0
10
254.66410122019198
20
-23.707874339478643
10
254.66410122019198
20
-37.707699909709504
10
252.01410122019195
20
-37.707699909709504
10
252.01410122019189
20
-38.707699909709497
42
-0.41421356237309509
10
251.01410122019192
20
-39.707699909709497
10
245.01410122019192
20
-39.707699909709476
42
-0.41421356237309509
10
244.01410122019195
20
-38.707699909709497
10
244.01410122019195
20
-37.707699909709504
10
238.91410122019187
20
-37.707699909709504
10
238.91410122019187
20
-32.707699909709504
10
237.01410122019186
20
-32.707699909709504
42
-0.4142135623730937
10
236.01410122019186
20
-31.707699909709493
10
236.01410122019189
20
-23.707699909709468
42
-0.41421356237309109
10
237.01410122019186
20
-22.707699909709483
10
238.91410122019187
20
-22.707699909709483
10
238.91410122019187
20
-17.707699909709483
10
279.91410122019209
20
-17.707699909709483
10
279.91410122019209
20
-22.707699909709824
10
281.81410122019201
20
-22.707699909709859
42
-0.41421356237310414
10
282.81410122019201
20
-23.707699909709902
10
282.8141012201919
20
-31.707699909709923
42
-0.4142135623730977
10
281.8141012201919
20
-32.707699909709895
10
279.91410122019209
20
-32.707699909709859
10
279.91410122019209
20
-37.707699909709504
10
274.81410122019207
20
-37.707699909709504
10
274.81410122019213
20
-38.707699909709504
42
-0.4142135623730937
10
273.81410122019213
20
-39.707699909709497
10
266.81410122019207
20
-39.707699909709511
42
-0.41421356237309509
10
265.81410122019207
20
-38.707699909709497
10
265.81410122019207
20
-37.707699909709504
10
257.96410122019199
20
-37.70769990970949
10
257.96410122019199
20
-23.707874339478636
0
LINE
5
608
100
AcDbEntity
8
0
100
AcDbLine
10
223.06521729592953
20
-99.216777919299943
30
0
11
227.06521729593587
21
-99.21677791927317
31
0
0
LINE
5
609
100
AcDbEntity
8
0
100
AcDbLine
10
227.06521729593587
20
-99.21677791927317
30
0
11
227.06521729593584
21
-101.51677788157953
31
0
0
LINE
5
610
100
AcDbEntity
8
0
100
AcDbLine
10
227.06521729593584
20
-101.51677788157953
30
0
11
235.06521729593578
21
-101.51677788157953
31
0
0
LINE
5
611
100
AcDbEntity
8
0
100
AcDbLine
10
235.06521729593578
20
-101.51677788157953
30
0
11
235.06521729593584
21
-99.21677791927317
31
0
0
LINE
5
612
100
AcDbEntity
8
0
100
AcDbLine
10
235.06521729593584
20
-99.21677791927317
30
0
11
243.07120678973774
21
-99.216777919148825
31
0
0
LINE
5
613
100
AcDbEntity
8
0
100
AcDbLine
10
243.07120678973774
20
-99.216777919148825
30
0
11
243.071206789738
21
-90.91677805518745
31
0
0
ELLIPSE
5
614
100
AcDbEntity
8
0
100
AcDbEllipse
10
245.07120678973843
20
-90.916778055187621
30
0
11
-1.9999999999999887
21
1.7787610690307608e-13
31
0.0
40
0.99999998361146136
41
4.7123889803847607
42
6.2831853071795933
0
LINE
5
615
100
AcDbEntity
8
0
100
AcDbLine
10
245.07120678973843
20
-88.916778087964715
30
0
11
253.03625702344368
21
-88.91677808796473
31
0
0
ELLIPSE
5
616
100
AcDbEntity
8
0
100
AcDbEllipse
10
253.03625702344368
20
-90.916778055187621
30
0
11
2.0000000000003815
21
-2.4042587426874778e-16
31
0.0
40
0.99999998361146147
41
7.1054273576009009e-14
42
1.5707963267948823
0
LINE
5
617
100
AcDbEntity
8
0
100
AcDbLine
10
255.03625702344408
20
-90.916778055187478
30
0
11
255.03625702344436
21
-101.51677788157953
31
0
0
LINE
5
618
100
AcDbEntity
8
0
100
AcDbLine
10
255.03625702344436
20
-101.51677788157953
30
0
11
262.40373190659108
21
-101.51677788157953
31
0
0
LINE
5
619
100
AcDbEntity
8
0
100
AcDbLine
10
262.40373190659108
20
-101.51677788157953
30
0
11
262.40373190659108
21
-92.216778033882576
31
0
0
ELLIPSE
5
620
100
AcDbEntity
8
0
100
AcDbEllipse
10
263.90373190659108
20
-92.216778033882576
30
0
11
-1.5000000000000004
21
1.8031941181497601e-16
31
0.0
40
0.99999998361146147
41
4.7123889803846613
42
6.2831853071795862
0
LINE
5
621
100
AcDbEntity
8
0
100
AcDbLine
10
263.90373190659108
20
-90.716778058465366
30
0
11
277.30373190659111
21
-90.716778058465493
31
0
0
ELLIPSE
5
622
100
AcDbEntity
8
0
100
AcDbEllipse
10
277.30373190659111
20
-92.216778033882676
30
0
11
1.5000000000000004
21
-1.8031940568095334e-16
31
0.0
40
0.99999998361146136
41
6.2831853071795791
42
7.8539816339744828
0
LINE
5
623
100
AcDbEntity
8
0
100
AcDbLine
10
278.80373190659105
20
-92.216778033882676
30
0
11
278.80373190659105
21
-101.51677788157953
31
0
0
LINE
5
624
100
AcDbEntity
8
0
100
AcDbLine
10
278.80373190659105
20
-101.51677788157953
30
0
11
288.05121608310469
21
-101.51677788157953
31
0
0
LINE
5
625
100
AcDbEntity
8
0
100
AcDbLine
10
288.05121608310469
20
-101.51677788157953
30
0
11
288.05121608310469
21
-94.916777989633658
31
0
0
ELLIPSE
5
626
100
AcDbEntity
8
0
100
AcDbEllipse
10
291.70373190659097
20
-94.916777989633673
30
0
11
-3.6525158234862474
21
6.6273174195892218e-16
31
0.0
40
0.99999998361146147
41
3.1415926535897896
42
6.2831853071795827
0
LINE
5
627
100
AcDbEntity
8
0
100
AcDbLine
10
295.3562477300772
20
-94.916777989633673
30
0
11
295.3562477300772
21
-99.216777919148811
31
0
0
LINE
5
628
100
AcDbEntity
8
0
100
AcDbLine
10
295.3562477300772
20
-99.216777919148811
30
0
11
311.30373190659174
21
-99.216777919275856
31
0
0
LINE
5
629
100
AcDbEntity
8
0
100
AcDbLine
10
311.30373190659174
20
-99.216777919275856
30
0
11
311.30373190659168
21
-101.51677788157953
31
0
0
LINE
5
630
100
AcDbEntity
8
0
100
AcDbLine
10
311.30373190659168
20
-101.51677788157953
30
0
11
319.30373190659174
21
-101.51677788157953
31
0
0
LINE
5
631
100
AcDbEntity
8
0
100
AcDbLine
10
319.30373190659174
20
-101.51677788157953
30
0
11
319.30373190659174
21
-99.216777919275856
31
0
0
LINE
5
632
100
AcDbEntity
8
0
100
AcDbLine
10
319.30373190659174
20
-99.216777919275856
30
0
11
326.3037319065981
21
-99.216777919395327
31
0
0
LINE
5
633
100
AcDbEntity
8
0
100
AcDbLine
10
326.3037319065981
20
-99.216777919395327
30
0
11
326.30373190659719
21
-81.216778213753855
31
0
0
LINE
5
634
100
AcDbEntity
8
0
100
AcDbLine
10
326.30373190659719
20
-81.216778213753855
30
0
11
319.30373190659174
21
-81.216778213720573
31
0
0
LINE
5
635
100
AcDbEntity
8
0
100
AcDbLine
10
319.30373190659174
20
-81.216778213720573
30
0
11
319.30373190659179
21
-78.216778262647949
31
0
0
LINE
5
636
100
AcDbEntity
8
0
100
AcDbLine
10
319.30373190659179
20
-78.216778262647949
30
0
11
309.30373190659179
21
-78.216778262647964
31
0
0
LINE
5
637
100
AcDbEntity
8
0
100
AcDbLine
10
309.30373190659179
20
-78.216778262647964
30
0
11
309.30373190657753
21
-81.216778213672995
31
0
0
LINE
5
638
100
AcDbEntity
8
0
100
AcDbLine
10
309.30373190657753
20
-81.216778213672995
30
0
11
278.18447460126572
21
-81.216778213525032
31
0
0
LINE
5
639
100
AcDbEntity
8
0
100
AcDbLine
10
278.18447460126572
20
-81.216778213525032
30
0
11
278.18447460126055
21
-78.21677826264802
31
0
0
LINE
5
640
100
AcDbEntity
8
0
100
AcDbLine
10
278.18447460126055
20
-78.21677826264802
30
0
11
268.1844746012606
21
-78.216778262648035
31
0
0
LINE
5
641
100
AcDbEntity
8
0
100
AcDbLine
10
268.1844746012606
20
-78.216778262648035
30
0
11
268.18447460125634
21
-81.216778213477454
31
0
0
LINE
5
642
100
AcDbEntity
8
0
100
AcDbLine
10
268.18447460125634
20
-81.216778213477454
30
0
11
237.06521729543536
21
-81.216778213329505
31
0
0
LINE
5
643
100
AcDbEntity
8
0
100
AcDbLine
10
237.06521729543536
20
-81.216778213329505
30
0
11
237.06521729543536
21
-78.216778262648049
31
0
0
LINE
5
644
100
AcDbEntity
8
0
100
AcDbLine
10
237.06521729543536
20
-78.216778262648049
30
0
11
227.06521729543536
21
-78.216778262648035
31
0
0
LINE
5
645
100
AcDbEntity
8
0
100
AcDbLine
10
227.06521729543536
20
-78.216778262648035
30
0
11
227.06521729542106
21
-81.216778213281927
31
0
0
LINE
5
646
100
AcDbEntity
8
0
100
AcDbLine
10
227.06521729542106
20
-81.216778213281927
30
0
11
223.06521729593058
21
-81.216778213262927
31
0
0
LINE
5
647
100
AcDbEntity
8
0
100
AcDbLine
10
223.06521729593058
20
-81.216778213262927
30
0
11
220.06521729593058
21
-81.216778213558328
31
0
0
LINE
5
648
100
AcDbEntity
8
0
100
AcDbLine
10
220.06521729593058
20
-81.216778213558328
30
0
11
220.06521729593064
21
-90.216778066434401
31
0
0
LINE
5
649
100
AcDbEntity
8
0
100
AcDbLine
10
220.06521729593064
20
-90.216778066434401
30
0
11
223.06521729593004
21
-90.21677806634213
31
0
0
LINE
5
650
100
AcDbEntity
8
0
100
AcDbLine
10
223.06521729593004
20
-90.21677806634213
30
0
11
223.06521729592953
21
-99.216777919299943
31
0
0
LINE
5
651
100
AcDbEntity
8
0
100
AcDbLine
10
216.54236666404694
20
-89.634749637938711
30
0
11
219.54236666404688
21
-89.634749637938569
31
0
0
LINE
5
652
100
AcDbEntity
8
0
100
AcDbLine
10
219.54236666404688
20
-89.634749637938569
30
0
11
219.54236842081838
21
-80.624339732643691
31
0
0
LINE
5
653
100
AcDbEntity
8
0
100
AcDbLine
10
219.54236842081838
20
-80.624339732643691
30
0
11
215.54236920508532
21
-80.624339732629849
31
0
0
LINE
5
654
100
AcDbEntity
8
0
100
AcDbLine
10
215.54236920508532
20
-80.624339732629849
30
0
11
215.54236920517397
21
-78.324339727278542
31
0
0
LINE
5
655
100
AcDbEntity
8
0
100
AcDbLine
10
215.54236920517397
20
-78.324339727278542
30
0
11
207.54236920509993
21
-78.324339727529704
31
0
0
LINE
5
656
100
AcDbEntity
8
0
100
AcDbLine
10
207.54236920509993
20
-78.324339727529704
30
0
11
207.54236920476799
21
-80.624339732019592
31
0
0
LINE
5
657
100
AcDbEntity
8
0
100
AcDbLine
10
207.54236920476799
20
-80.624339732019592
30
0
11
168.04073820676712
21
-80.624339729006337
31
0
0
LINE
5
658
100
AcDbEntity
8
0
100
AcDbLine
10
168.04073820676712
20
-80.624339729006337
30
0
11
168.04073820676703
21
-78.324339729027855
31
0
0
LINE
5
659
100
AcDbEntity
8
0
100
AcDbLine
10
168.04073820676703
20
-78.324339729027855
30
0
11
160.04073820676706
21
-78.324339729021062
31
0
0
LINE
5
660
100
AcDbEntity
8
0
100
AcDbLine
10
160.04073820676706
20
-78.324339729021062
30
0
11
160.04073820676717
21
-80.624339729021074
31
0
0
LINE
5
661
100
AcDbEntity
8
0
100
AcDbLine
10
160.04073820676717
20
-80.624339729021074
30
0
11
156.0407382067672
21
-80.624339729028435
31
0
0
LINE
5
662
100
AcDbEntity
8
0
100
AcDbLine
10
156.0407382067672
20
-80.624339729028435
30
0
11
156.04073820676763
21
-89.634749637941582
31
0
0
LINE
5
663
100
AcDbEntity
8
0
100
AcDbLine
10
156.04073820676763
20
-89.634749637941582
30
0
11
159.0407382067676
21
-89.634749637941439
31
0
0
LINE
5
664
100
AcDbEntity
8
0
100
AcDbLine
10
159.0407382067676
20
-89.634749637941439
30
0
11
159.04073820676618
21
-100.93474982313181
31
0
0
LINE
5
665
100
AcDbEntity
8
0
100
AcDbLine
10
159.04073820676621
20
-100.93474982313181
30
0
11
162.04073815760057
21
-100.93420668994588
31
0
0
LINE
5
666
100
AcDbEntity
8
0
100
AcDbLine
10
162.04073815760057
20
-100.93420668994588
30
0
11
162.04032175549114
21
-98.634206727639594
31
0
0
LINE
5
667
100
AcDbEntity
8
0
100
AcDbLine
10
162.04032175549114
20
-98.634206727639594
30
0
11
213.54195031110385
21
-98.62488264628567
31
0
0
LINE
5
668
100
AcDbEntity
8
0
100
AcDbLine
10
213.54195031110385
20
-98.62488264628567
30
0
11
213.54236671321314
21
-100.92488260859368
31
0
0
LINE
5
669
100
AcDbEntity
8
0
100
AcDbLine
10
213.54236671321314
20
-100.92488260859368
30
0
11
216.54236666404751
21
-100.92433947540775
31
0
0
LINE
5
670
100
AcDbEntity
8
0
100
AcDbLine
10
216.54236666404751
20
-100.92433947540775
30
0
11
216.54236666404694
21
-89.634749637938711
31
0
0
CIRCLE
5
671
100
AcDbEntity
8
0
100
AcDbCircle
10
270.09327350370779
20
-106.2504147972148
30
0
40
1.0750000000000233
0
CIRCLE
5
672
100
AcDbEntity
8
0
100
AcDbCircle
10
150.09327350370745
20
-106.25041479720885
30
0
40
1.2250000000000321
0
CIRCLE
5
673
100
AcDbEntity
8
0
100
AcDbCircle
10
190.09327350370756
20
-106.25041479721084
30
0
40
1.2250000000000321
0
LWPOLYLINE
5
674
100
AcDbEntity
8
0
100
AcDbPolyline
90
12
70
1
43
0.0
10
270.09327350370762
20
-110.25041479721489
10
196.41782882403973
20
-110.25041479721123
42
0.15434713018691862
10
193.54303095116074
20
-111.15950570630102
42
-0.31622776601665686
10
186.64351605625399
20
-111.15950570630073
42
0.15434713018693913
10
183.76871818337503
20
-110.25041479721062
10
150.09327350370725
20
-110.25041479720896
42
-0.99999999999999989
10
150.09327350370765
20
-102.25041479720873
10
183.76871818337534
20
-102.25041479721041
42
0.15434713018692797
10
186.64351605625438
20
-101.34132388812064
42
-0.31622776601665775
10
193.5430309511612
20
-101.34132388812093
42
0.15434713018693741
10
196.41782882404013
20
-102.25041479721106
10
270.09327350370802
20
-102.2504147972147
42
-0.99999999999999989
0
ELLIPSE
5
675
100
AcDbEntity
8
0
100
AcDbEllipse
10
187.78708098007598
20
-185.61030498571762
30
0
11
1.0750000000000064
21
4.0000861742237108e-14
31
0.0
40
0.99999998361146192
41
0
42
6.2831853071795862
0
ELLIPSE
5
676
100
AcDbEntity
8
0
100
AcDbEllipse
10
245.78708098007633
20
-185.61030498577799
30
0
11
1.0750000000000064
21
4.0000861742237108e-14
31
0.0
40
0.99999998361146192
41
0
42
6.2831853071795862
0
ELLIPSE
5
677
100
AcDbEntity
8
0
100
AcDbEllipse
10
187.787080980127
20
-136.61030578876967
30
0
11
1.0750000000000064
21
4.0000861742237108e-14
31
0.0
40
0.99999998361146192
41
0
42
6.2831853071795862
0
ELLIPSE
5
678
100
AcDbEntity
8
0
100
AcDbEllipse
10
245.78708098012731
20
-136.61030578883012
30
0
11
1.0750000000000064
21
4.0000861742237108e-14
31
0.0
40
0.99999998361146192
41
0
42
6.2831853071795862
0
ELLIPSE
5
679
100
AcDbEntity
8
0
100
AcDbEllipse
10
214.40590768276425
20
-241.26866900370857
30
0
11
-3.4249999635289541
21
1.5377404349870009e-08
31
0.0
40
0.99999998361146192
41
4.0788784088380936
42
5.3457010549416646
0
LINE
5
680
100
AcDbEntity
8
0
100
AcDbLine
10
216.43343150210154
20
-238.50827561463529
30
0
11
228.3685278887524
21
-239.37503182930976
31
0
0
ELLIPSE
5
681
100
AcDbEntity
8
0
100
AcDbEllipse
10
228.23090761466824
20
-241.27004117618699
30
0
11
1.8999999690251681
21
-1.2540944983874258e-08
31
0.0
40
0.99999998361146203
41
4.7846856891374543
42
7.7814864324483493
0
LINE
5
682
100
AcDbEntity
8
0
100
AcDbLine
10
228.36815171536045
20
-243.16507780417419
30
0
11
216.43288350758436
21
-244.02946481396728
31
0
0
ELLIPSE
5
683
100
AcDbEntity
8
0
100
AcDbEllipse
10
214.40590768276425
20
-241.26866900370857
30
0
11
3.4249999635290251
21
-2.7535045632465227e-08
31
0.0
40
0.99999998361146192
41
4.0788784123847828
42
5.3457010584912998
0
LINE
5
684
100
AcDbEntity
8
0
100
AcDbLine
10
212.37838386341866
20
-244.02906239277581
30
0
11
200.44328747677605
21
-243.16230617810749
31
0
0
ELLIPSE
5
685
100
AcDbEntity
8
0
100
AcDbEllipse
10
200.58090775086026
20
-241.26729683123023
30
0
11
-1.899999969025169
21
1.1049100072380025e-08
31
0.0
40
0.99999998361146203
41
4.784685688352285
42
7.7814864316631418
0
LINE
5
686
100
AcDbEntity
8
0
100
AcDbLine
10
200.44366365016802
20
-239.37226020324306
30
0
11
212.37893185794408
21
-238.50787319344994
31
0
0
LINE
5
687
100
AcDbEntity
8
0
100
AcDbLine
10
271.1952814974199
20
-200.02882594688236
30
0
11
267.64763985637268
21
-199.20582074735341
31
0
0
ELLIPSE
5
688
100
AcDbEntity
8
0
100
AcDbEllipse
10
268.32559559078214
20
-196.28342862064409
30
0
11
-3.0000000000000373
21
1.1130101978951146e-08
31
0.0
40
0.99999998361146192
41
3.7098288885317743e-09
42
1.3428420035546773
0
LINE
5
689
100
AcDbEntity
8
0
100
AcDbLine
10
265.32559559078214
20
-196.28342862064343
30
0
11
265.32559559078231
21
-195.21030482841408
31
0
0
ELLIPSE
5
690
100
AcDbEntity
8
0
100
AcDbEllipse
10
266.32559559078237
20
-195.21030482841434
30
0
11
-1.0000000000000211
21
2.1158217975807558e-13
31
0.0
40
0.99999998361146203
41
3.1415926535897363
42
6.2831853071795294
0
LINE
5
691
100
AcDbEntity
8
0
100
AcDbLine
10
267.32559559078243
20
-195.21030482841462
30
0
11
267.32559559078209
21
-196.28342862064446
31
0
0
ELLIPSE
5
692
100
AcDbEntity
8
0
100
AcDbEllipse
10
268.32559559078214
20
-196.28342862064409
30
0
11
-1.0000000000000389
21
2.8258811957503081e-13
31
0.0
40
0.99999998361146203
41
6.8212102632969618e-13
42
1.3428419998452081
0
LINE
5
693
100
AcDbEntity
8
0
100
AcDbLine
10
268.0996103459791
20
-197.25755932954792
30
0
11
271.64725199405484
21
-198.08056453070677
31
0
0
LINE
5
694
100
AcDbEntity
8
0
100
AcDbLine
10
271.64725199405484
20
-198.08056453070677
30
0
11
278.72296359917806
21
-167.58004289293225
31
0
0
ELLIPSE
5
695
100
AcDbEntity
8
0
100
AcDbEllipse
10
234.88708098012796
20
-157.41070721011704
30
0
11
45.000000000002458
21
-8.0858051085230687e-08
31
0.0
40
0.99999996722292495
41
6.0552309820263339
42
7.0043199329403656
0
LINE
5
696
100
AcDbEntity
8
0
100
AcDbLine
10
268.68465010773468
20
-127.70003129726335
30
0
11
267.00235992702244
21
-129.24650563321933
31
0
0
ELLIPSE
5
697
100
AcDbEntity
8
0
100
AcDbEllipse
10
266.32559559078152
20
-128.5103059215744
30
0
11
-0.99999999999925171
21
-2.4962128197802969e-09
31
0.0
40
0.9999999836114617
41
5.4557475939444489
42
8.5973402475342837
0
LINE
5
698
100
AcDbEntity
8
0
100
AcDbLine
10
265.64883125454065
20
-127.77410620992946
30
0
11
267.33112133529323
21
-126.22763196586305
31
0
0
ELLIPSE
5
699
100
AcDbEntity
8
0
100
AcDbEllipse
10
234.88708098012796
20
-157.41070721011704
30
0
11
45.000000000002458
21
-8.0858051085230687e-08
31
0.0
40
0.99999996722292495
41
0.76558272939215188
42
1.7498448788809855
0
ELLIPSE
5
700
100
AcDbEntity
8
0
100
AcDbEllipse
10
214.40633828545066
20
-44.249148634668352
30
0
11
70.000000000000483
21
7.8073668707238936e-08
31
0.0
40
0.99999996722292583
41
4.5333404289804218
42
4.8914375295585923
0
ELLIPSE
5
701
100
AcDbEntity
8
0
100
AcDbEllipse
10
193.92559559080982
20
-157.4107072101192
30
0
11
-45.000000000004974
21
-2.0012999316121896e-08
31
0.0
40
0.99999996722292517
41
4.533340429651032
42
5.5176025791351337
0
LINE
5
702
100
AcDbEntity
8
0
100
AcDbLine
10
161.48155523578032
20
-126.22763196572026
30
0
11
163.16384531669252
21
-127.77410620993309
31
0
0
ELLIPSE
5
703
100
AcDbEntity
8
0
100
AcDbEllipse
10
162.48708098045171
20
-128.51030592157824
30
0
11
0.99999999999927769
21
-5.3552733081385639e-09
31
0.0
40
0.9999999836114617
41
3.9690303696840084
42
7.1106230232739698
0
LINE
5
704
100
AcDbEntity
8
0
100
AcDbLine
10
161.81031664421084
20
-129.24650563322325
30
0
11
160.12802646333233
21
-127.70003129711463
31
0
0
ELLIPSE
5
705
100
AcDbEntity
8
0
100
AcDbEllipse
10
193.92559559080982
20
-157.4107072101192
30
0
11
-45.000000000004974
21
-2.0012999316121896e-08
31
0.0
40
0.99999996722292517
41
5.5620506827665048
42
6.5111299148625674
0
LINE
5
706
100
AcDbEntity
8
0
100
AcDbLine
10
150.08961413985713
20
-167.5796168593115
30
0
11
157.16512814566426
21
-198.08063329884118
31
0
0
LINE
5
707
100
AcDbEntity
8
0
100
AcDbLine
10
157.16512814566426
20
-198.08063329884118
30
0
11
160.71306622525927
21
-197.25755932955198
31
0
0
ELLIPSE
5
708
100
AcDbEntity
8
0
100
AcDbEllipse
10
160.48708098045614
20
-196.28342862064875
30
0
11
1.0000000000000437
21
-7.8702243333506061e-09
31
0.0
40
0.99999998361146181
41
4.9403433152050953
42
6.2831853150501829
0
LINE
5
709
100
AcDbEntity
8
0
100
AcDbLine
10
161.4870809804562
20
-196.28342862064841
30
0
11
161.4870809804558
21
-195.21030482841851
31
0
0
ELLIPSE
5
710
100
AcDbEntity
8
0
100
AcDbEllipse
10
162.48708098045586
20
-195.21030482841815
30
0
11
-1.0000000000000033
21
-3.3908843143131787e-13
31
0.0
40
0.99999998361146203
41
3.1415926535897647
42
6.2831853071796147
0
LINE
5
711
100
AcDbEntity
8
0
100
AcDbLine
10
163.48708098045589
20
-195.21030482841783
30
0
11
163.4870809804562
21
-196.28342862064724
31
0
0
ELLIPSE
5
712
100
AcDbEntity
8
0
100
AcDbEllipse
10
160.48708098045614
20
-196.28342862064875
30
0
11
3.0000000000000004
21
8.9338117376939804e-13
31
0.0
40
0.99999998361146192
41
4.9403433073347571
42
6.2831853071797852
0
LINE
5
713
100
AcDbEntity
8
0
100
AcDbLine
10
161.16503671486586
20
-199.20582074735739
30
0
11
157.61707970749185
21
-200.02889910763767
31
0
0
LINE
5
714
100
AcDbEntity
8
0
100
AcDbLine
10
157.61707970749185
20
-200.02889910763767
30
0
11
169.59579331068085
21
-251.66655260327025
31
0
0
ELLIPSE
5
715
100
AcDbEntity
8
0
100
AcDbEllipse
10
214.40590768276365
20
-241.27166718409626
30
0
11
-45.999999961506319
21
-1.0520566640082051e-07
31
0.0
40
0.99999998361146192
41
0.22794460223302188
42
0.77314787762101822
0
ELLIPSE
5
716
100
AcDbEntity
8
0
100
AcDbEllipse
10
182.19869823309821
20
-272.69929235092457
30
0
11
1.0000000000000084
21
1.2228551504733787e-11
31
0.0
40
0.99999998361146181
41
3.9147405334857108
42
5.5299959497003943
0
ELLIPSE
5
717
100
AcDbEntity
8
0
100
AcDbEllipse
10
185.11674287919266
20
-275.43516793253707
30
0
11
3.0000000000000786
21
9.7870933579713437e-10
31
0.0
40
0.99999998361146192
41
0.86206605842151318
42
2.3884032957965875
0
LINE
5
718
100
AcDbEntity
8
0
100
AcDbLine
10
187.06935386776797
20
-273.15760121402576
30
0
11
191.73559662458939
21
-276.62781166166093
31
0
0
ELLIPSE
5
719
100
AcDbEntity
8
0
100
AcDbEllipse
10
190.11628869037807
20
-279.15325055523078
30
0
11
3.0000000000003668
21
-1.7155528941881215e-08
31
0.0
40
0.9999999836114617
41
5.7574813548250399
42
7.2838185922000989
0
ELLIPSE
5
720
100
AcDbEntity
8
0
100
AcDbEllipse
10
193.57617226758873
20
-281.1605386511676
30
0
11
-1.0000000000005174
21
1.1102366248572082e-09
31
0.0
40
0.9999999836114617
41
5.7574813502167181
42
7.3727367664315429
0
ELLIPSE
5
721
100
AcDbEntity
8
0
100
AcDbEllipse
10
214.40590768276365
20
-241.27166718409626
30
0
11
-45.999999961506326
21
4.628027050479489e-07
31
0.0
40
0.99999998361146192
41
1.089551468202627
42
2.0520412055090982
0
ELLIPSE
5
722
100
AcDbEntity
8
0
100
AcDbEllipse
10
235.23564309794151
20
-281.16053865116601
30
0
11
1.0000000000000266
21
-5.8467503755155201e-09
31
0.0
40
0.99999998361146181
41
5.1936338548847489
42
6.8088892710995017
0
ELLIPSE
5
723
100
AcDbEntity
8
0
100
AcDbEllipse
10
238.69552667515205
20
-279.15325055522896
30
0
11
-3.0000000000001323
21
1.2312074137987848e-08
31
0.0
40
0.9999999836114617
41
5.2825520319816928
42
6.8088892693567287
0
LINE
5
724
100
AcDbEntity
8
0
100
AcDbLine
10
237.07621874094065
20
-276.62781166165939
30
0
11
241.74246149776164
21
-273.15760121402371
31
0
0
ELLIPSE
5
725
100
AcDbEntity
8
0
100
AcDbEllipse
10
243.69507248633715
20
-275.43516793253491
30
0
11
3.0000000000000862
21
-1.1710211134108306e-08
31
0.0
40
0.9999999836114617
41
0.75318936137046522
42
2.2795265987455333
0
ELLIPSE
5
726
100
AcDbEntity
8
0
100
AcDbEllipse
10
246.61311713243137
20
-272.69929235092212
30
0
11
1.0000000000000331
21
-2.7681826275660626e-09
31
0.0
40
0.99999998361146203
41
3.8947820138249507
42
5.5100374300397519
0
ELLIPSE
5
727
100
AcDbEntity
8
0
100
AcDbEllipse
10
214.40590768276365
20
-241.27166718409626
30
0
11
45.999999961506333
21
-2.3031874851753292e-07
31
0.0
40
0.9999999836114617
41
5.5100374322784926
42
6.0552314823256905
0
LINE
5
728
100
AcDbEntity
8
0
100
AcDbLine
10
259.21592615657829
20
-251.66696599139408
30
0
11
271.1952814974199
21
-200.02882594688236
31
0
0
CIRCLE
5
729
100
AcDbEntity
8
0
100
AcDbCircle
10
282.37027809030934
20
-108.97606784540645
30
0
40
1.2250000000000141
0
CIRCLE
5
730
100
AcDbEntity
8
0
100
AcDbCircle
10
278.95870439065027
20
-128.84089014241681
30
0
40
1.2250000000000141
0
CIRCLE
5
731
100
AcDbEntity
8
0
100
AcDbCircle
10
322.18456494680169
20
-113.1079635494342
30
0
40
1.2250000000000141
0
LWPOLYLINE
5
732
100
AcDbEntity
8
0
100
AcDbPolyline
90
12
70
1
43
0.0
10
321.92429511365452
20
-109.11644007913446
42
-0.94686157779119851
10
322.87809814397849
20
-117.04738123538905
10
318.39941249495092
20
-117.83585238136425
42
0.087624173546938633
10
284.89732775388865
20
-130.02961401297642
10
280.95963601674663
20
-132.30445371591847
42
-0.73416812711173485
10
275.33714930510979
20
-127.14255602852876
10
276.4632942923397
20
-124.74114627516643
42
0.16264458722622113
10
277.56399832397466
20
-115.29789951086484
10
276.49766384934469
20
-110.20586538029505
42
-0.59433023754531233
10
284.52729452952042
20
-103.37720366764928
10
288.31947818073877
20
-104.83817900416163
42
0.10863647351191749
10
318.03939205160981
20
-109.36975766057287
0
CIRCLE
5
733
100
AcDbEntity
8
0
100
AcDbCircle
10
311.54390694406948
20
-131.34859564862978
30
0
40
1.2250000000000112
0
CIRCLE
5
734
100
AcDbEntity
8
0
100
AcDbCircle
10
311.54390694407596
20
-211.34859564862813
30
0
40
1.0750000000000048
0
LWPOLYLINE
5
735
100
AcDbEntity
8
0
100
AcDbPolyline
90
6
70
1
43
0.0
10
315.54390694407596
20
-211.34859564862785
42
-0.99999999999999989
10
307.54390694407596
20
-211.34859564862842
10
307.54390694406999
20
-137.67315096896243
42
0.15434713018693624
10
306.63481603497968
20
-134.79835309608333
42
-1.9249505911476936
10
316.45299785315973
20
-134.79835309608265
42
0.15434713018693183
10
315.54390694406999
20
-137.67315096896169
0
LWPOLYLINE
5
736
100
AcDbEntity
8
0
100
AcDbPolyline
90
4
70
1
43
0.0
10
312.68540099022238
20
-278.87223260958501
10
312.68540099022238
20
-280.47223260958498
10
324.68614221970739
20
-280.47223260958486
10
324.68614221970739
20
-278.87223260958484
0
LWPOLYLINE
5
737
100
AcDbEntity
8
0
100
AcDbPolyline
90
16
70
1
43
0.0
10
290.97943266358146
20
-269.87223260958535
10
286.97943266358146
20
-269.87223260958535
42
0.37401680760095962
10
284.99876767742813
20
-271.59480475837677
10
283.97943266358163
20
-278.8722326095853
10
281.97943266358158
20
-278.87223260958541
10
281.97943266358158
20
-280.47223260958538
10
285.42943268050396
20
-280.47223260958538
10
285.42943268050391
20
-281.47223260958532
42
0.41421356237309509
10
286.42943268050396
20
-282.47223260958526
10
291.42943268050391
20
-282.47223260958521
42
0.41421356237308465
10
292.42943268050391
20
-281.47223260958521
10
292.42943268050391
20
-280.47223260958543
10
295.97943266358163
20
-280.47223260958521
10
295.97943266358163
20
-278.87223260958518
10
293.97943266358163
20
-278.87223260958524
10
292.96009764973576
20
-271.59480475837768
42
0.37401680760097861
0
LWPOLYLINE
5
738
100
AcDbEntity
8
0
100
AcDbPolyline
90
35
70
1
43
0.0
10
328.62608831725248
20
-287.21391429968611
10
328.62608831725242
20
-282.87274383066108
10
324.92608831725244
20
-282.87274383066108
10
324.92608831725249
20
-287.21458416395967
10
302.3738254423568
20
-287.21866712482159
10
302.37382544235675
20
-282.87000386506969
10
298.67382544235676
20
-282.87000386506975
10
298.67382544235682
20
-287.21933698909521
10
276.6869429691734
20
-287.22331759100251
42
-0.4142135623730881
10
273.68639988515315
20
-284.22386077335409
10
273.68614318007565
20
-282.80594848280168
42
0.99999999999999989
10
273.68578109128504
20
-280.80594851557873
10
273.68268868770605
20
-263.72503572076863
42
0.99999999999999989
10
273.68232659891544
20
-261.72503575354568
10
273.67626139901569
20
-228.22386169111246
42
-0.41421358105141476
10
276.68549451501229
20
-225.21462838321162
10
298.4738253817186
20
-225.21462838321133
10
298.47382538171865
20
-231.9695169615899
10
302.17382544235625
20
-231.96951696159005
10
302.17382544235647
20
-244.46951696158999
10
324.92382544235647
20
-244.46951696158959
10
324.9238254423563
20
-239.08563291123048
10
326.42382541777351
20
-238.21924539499668
10
324.9238254423563
20
-237.35358205635202
10
324.92382544235625
20
-231.9695169615897
10
328.62382550299378
20
-231.96951696158936
10
328.62382550299367
20
-225.1733859795111
10
330.63664736782061
20
-225.17338597951098
42
-0.41421356237309853
10
333.67626041570361
20
-228.21299902739406
10
333.68232561560325
20
-261.71417308982728
42
0.99999999999999989
10
333.68268770439397
20
-263.71417305705017
10
333.68578010797285
20
-280.79508585186034
42
0.99999999999999989
10
333.68614219676351
20
-282.79508581908323
10
333.68639890184102
20
-284.21299810963563
42
-0.41421356237308465
10
330.68694208419259
20
-287.21354119365594
0
LWPOLYLINE
5
739
100
AcDbEntity
8
0
100
AcDbPolyline
90
4
70
1
43
0.0
10
328.18503890149395
20
-263.8722326095849
10
328.18503890149407
20
-273.87223260958484
10
331.78503890149409
20
-273.87223260958478
10
331.78503890149392
20
-263.8722326095849
0
LWPOLYLINE
5
740
100
AcDbEntity
8
0
100
AcDbPolyline
90
4
70
1
43
0.0
10
275.68503988480609
20
-263.87223260958558
10
275.68503988480632
20
-273.87223260958552
10
279.28503988480628
20
-273.87223260958547
10
279.28503988480611
20
-263.87223260958558
0
CIRCLE
5
741
100
AcDbEntity
8
0
100
AcDbCircle
10
302.69206094746107
20
-139.58771177710045
30
0
40
1.0750000000000035
0
CIRCLE
5
742
100
AcDbEntity
8
0
100
AcDbCircle
10
302.69206094746653
20
-219.58771177710051
30
0
40
1.0750000000000028
0
LWPOLYLINE
5
743
100
AcDbEntity
8
0
100
AcDbPolyline
90
4
70
1
43
0.0
10
306.69206094746107
20
-139.5877117771002
10
306.69206094746647
20
-219.58771177710025
42
-0.99999999999999989
10
298.69206094746653
20
-219.58771177710076
10
298.69206094746107
20
-139.58771177710071
42
-0.99999999999999989
0
CIRCLE
5
744
100
AcDbEntity
8
0
100
AcDbCircle
10
293.78366412784703
20
-219.63030898338741
30
0
40
1.075000000000004
0
CIRCLE
5
745
100
AcDbEntity
8
0
100
AcDbCircle
10
293.78366412784953
20
-139.63030898338755
30
0
40
1.0750000000000035
0
LWPOLYLINE
5
746
100
AcDbEntity
8
0
100
AcDbPolyline
90
4
70
1
43
0.0
10
289.78366412784703
20
-219.63030898338729
10
289.78366412784953
20
-139.63030898338741
42
-0.99999999999999989
10
297.78366412784953
20
-139.63030898338766
10
297.78366412784703
20
-219.63030898338752
42
-0.99999999999999989
0
CIRCLE
5
747
100
AcDbEntity
8
0
100
AcDbCircle
10
284.59570558224806
20
-139.72172018723501
30
0
40
1.0749999999999942
0
CIRCLE
5
748
100
AcDbEntity
8
0
100
AcDbCircle
10
284.59570558224823
20
-219.72172018723455
30
0
40
1.0749999999999937
0
LWPOLYLINE
5
749
100
AcDbEntity
8
0
100
AcDbPolyline
90
4
70
1
43
0.0
10
288.595705582248
20
-139.72172018723501
10
288.59570558224823
20
-219.72172018723452
42
-0.99999999999999989
10
280.59570558224829
20
-219.72172018723458
10
280.59570558224812
20
-139.72172018723504
42
-0.99999999999999989
0
LWPOLYLINE
5
750
100
AcDbEntity
8
0
100
AcDbPolyline
90
4
70
1
43
0.0
10
307.74662501975592
20
-302.621190177524
10
306.14662501975596
20
-302.62119017752406
10
306.14662501975658
20
-312.62193140700907
10
307.74662501975661
20
-312.6219314070089
0
LWPOLYLINE
5
751
100
AcDbEntity
8
0
100
AcDbPolyline
90
16
70
1
43
0.0
10
309.74662501975808
20
-336.87789971672726
10
309.7466250197578
20
-331.87789971672726
42
0.41421356237313667
10
308.74662501975769
20
-330.87789971672737
10
307.74662501975791
20
-330.87789971672743
10
307.74662501975752
20
-327.3278997336497
10
306.14662501975749
20
-327.3278997336497
10
306.14662501975766
20
-329.32789973364982
10
298.8691971685501
20
-330.34723474749592
42
0.37401680760097944
10
297.14662501975783
20
-332.32789973365027
10
297.14662501975806
20
-336.32789973365021
42
0.37401680760097455
10
298.86919716854959
20
-338.30856471980348
10
306.14662501975823
20
-339.3278997336497
10
306.14662501975835
20
-341.3278997336497
10
307.74662501975837
20
-341.32789973364964
10
307.74662501975814
20
-337.87789971672737
10
308.74662501975814
20
-337.87789971672731
42
0.41421356237310542
0
LWPOLYLINE
5
752
100
AcDbEntity
8
0
100
AcDbPolyline
90
37
70
1
43
0.0
10
310.14493981811592
20
-324.83350695487417
10
314.49376560814704
20
-324.83350695487388
10
314.49771000117579
20
-346.62038942805742
42
-0.41421356237309853
10
311.49825318352742
20
-349.6209325120779
10
310.08034089297502
20
-349.62118921715546
42
0.99999999999999989
10
308.08034092575213
20
-349.62155130594613
10
290.99942813094185
20
-349.62464370952574
42
0.99999999999999989
10
288.99942816371896
20
-349.62500579831658
10
255.49825410128557
20
-349.63107099821769
42
-0.14352032802005163
10
253.87879810646456
20
-349.15676325872511
10
245.83535888958326
20
-344.00109657000053
42
-0.3028401595826094
10
244.0553183423111
20
-339.93529444946023
10
246.73248303437788
20
-324.83350701551547
10
259.24390937176179
20
-324.83350701551473
10
259.24390937176167
20
-321.13350695487719
10
271.74390937176167
20
-321.13350695487645
10
271.74390937176025
20
-298.38350695487657
10
266.36002532140111
20
-298.38350695487696
10
265.49363780516722
20
-296.88350697945981
10
264.62797446652263
20
-298.38350695487702
10
259.24390937176031
20
-298.38350695487736
10
259.24390937175974
20
-294.68350689423983
10
252.07731497189141
20
-294.68350689424022
10
252.53399129866142
20
-292.10741255330134
42
-0.36365882707070851
10
255.48739143756421
20
-289.63107198153023
10
288.98856549999766
20
-289.62500678162911
42
0.99999999999999989
10
290.98856546722055
20
-289.62464469283839
10
308.06947826203083
20
-289.62155228925872
42
0.99999999999999989
10
310.06947822925372
20
-289.62119020046794
10
311.48739051980607
20
-289.62093349539055
42
-0.41421356237308121
10
314.48793360382649
20
-292.6203903130388
10
314.48834332841733
20
-294.88350695487418
10
310.14767937401768
20
-294.88350695487441
10
310.14767937401791
20
-298.58350695487439
10
314.48901319269112
20
-298.58350695487411
10
314.49309574387325
20
-321.13350695487384
10
310.14493981811569
20
-321.13350695487418
0
CIRCLE
5
753
100
AcDbEntity
8
0
100
AcDbCircle
10
247.99390937176287
20
-340.63350695487782
30
0
40
1.2250000000000041
0
LWPOLYLINE
5
754
100
AcDbEntity
8
0
100
AcDbPolyline
90
4
70
1
43
0.0
10
301.1466250197559
20
-295.12229349573772
10
301.14662501975567
20
-291.52229349573776
10
291.14662501975567
20
-291.52229349573838
10
291.1466250197559
20
-295.12229349573835
0
LWPOLYLINE
5
755
100
AcDbEntity
8
0
100
AcDbPolyline
90
4
70
1
43
0.0
10
301.14662501975891
20
-344.02229251242517
10
291.14662501975891
20
-344.02229251242574
10
291.14662501975914
20
-347.6222925124257
10
301.14662501975914
20
-347.62229251242513
0
LWPOLYLINE
5
756
100
AcDbEntity
8
0
100
AcDbPolyline
90
31
70
1
43
0.0
10
159.91701480130038
20
-310.57683810606596
10
159.91701480130035
20
-301.57683825318992
10
162.91701480130033
20
-301.5768382528945
10
166.91701480079075
20
-301.57683825291355
10
166.91701480097603
20
-298.57683830277028
10
176.91701480097589
20
-298.57683830277028
10
176.91701480080491
20
-301.57683825296107
10
208.0362721066254
20
-301.57683825310909
10
208.03627210662967
20
-298.57683830277023
10
218.0362721066295
20
-298.57683830277017
10
218.03627210663467
20
-301.57683825315661
10
249.15552941194602
20
-301.57683825330457
10
249.15552941195301
20
-298.57683830277011
10
259.15552941195284
20
-298.57683830277011
10
259.15552941196017
20
-301.57683825335209
10
266.1555294119654
20
-301.5768382533854
10
266.15552941196631
20
-319.57683795902676
10
259.15552941195278
20
-319.57683795878052
10
259.15552941196006
20
-321.87683792121101
10
251.15552941196023
20
-321.87683792121101
10
251.15552941195293
20
-319.57683795878046
10
218.03627210670322
20
-319.57683795865643
10
218.03627210671664
20
-321.87683792116781
10
208.03627210667941
20
-321.8768379212263
10
208.03627210666599
20
-319.57683795864847
10
174.91701480130556
20
-319.57683795852512
10
174.91701480130533
20
-321.87683792121106
10
166.9170148013055
20
-321.87683792121101
10
166.91701480130564
20
-319.57683795852506
10
162.91701480129939
20
-319.57683795867189
10
162.91701480129976
20
-310.57683810597371
0
LINE
5
757
100
AcDbEntity
8
0
100
AcDbLine
10
204.7839355722345
20
61.341402032949773
30
0
11
204.78393557223461
21
69.595599606604964
31
0
0
LINE
5
758
100
AcDbEntity
8
0
100
AcDbLine
10
204.78393557223461
20
69.595599606604964
30
0
11
201.69355278209324
21
69.595599606605035
31
0
0
ARC
5
759
100
AcDbEntity
8
0
100
AcDbCircle
10
222.186255034585
20
70.091402032944586
30
0
40
20.498699121047792
100
AcDbArc
50
181.38594926632797
51
192.68120161032917
0
LINE
5
760
100
AcDbEntity
8
0
100
AcDbLine
10
202.18758843762106
20
65.591402033086524
30
0
11
202.18758843762299
21
61.846406755978464
31
0
0
LINE
5
761
100
AcDbEntity
8
0
100
AcDbLine
10
202.18758843762299
20
61.846406755978464
30
0
11
201.52706787363292
21
64.537295479135793
31
0
0
ARC
5
762
100
AcDbEntity
8
0
100
AcDbCircle
10
196.23393557223409
20
76.34181120825788
30
0
40
12.936917761167155
100
AcDbArc
50
284.77856493917079
51
294.15141341769493
0
LINE
5
763
100
AcDbEntity
8
0
100
AcDbLine
10
199.53393681294762
20
63.832861093620309
30
0
11
199.53393695976274
21
46.590780761901499
31
0
0
ARC
5
764
100
AcDbEntity
8
0
100
AcDbCircle
10
199.53393696827766
20
45.590780761901506
30
0
40
0.99999999999998757
100
AcDbArc
50
-89.999999512129577
51
90.000000487868803
0
LINE
5
765
100
AcDbEntity
8
0
100
AcDbLine
10
199.5339369767926
20
44.59078076190152
30
0
11
199.53393713985352
21
25.440780761901642
31
0
0
LINE
5
766
100
AcDbEntity
8
0
100
AcDbLine
10
199.53393713985352
20
25.440780761901642
30
0
11
196.23393713985351
21
25.44078076190171
31
0
0
ARC
5
767
100
AcDbEntity
8
0
100
AcDbCircle
10
195.23300415328154
20
24.692025776305133
30
0
40
1.2500003488253886
100
AcDbArc
50
36.798584869453173
51
143.05874694075203
0
ARC
5
768
100
AcDbEntity
8
0
100
AcDbCircle
10
197.88393713985351
20
25.44078076190166
30
0
40
3.649999299290231
100
AcDbArc
50
179.96091282427855
51
271.83394487579557
0
LINE
5
769
100
AcDbEntity
8
0
100
AcDbLine
10
198.00074774272304
20
21.792651081109497
30
0
11
203.22450508488072
21
21.959912197840744
31
0
0
ARC
5
770
100
AcDbEntity
8
0
100
AcDbCircle
10
203.16049926280164
20
23.958887749151998
30
0
40
2.0000000000000382
100
AcDbArc
50
271.83394487579636
51
357.35161585864745
0
LINE
5
771
100
AcDbEntity
8
0
100
AcDbLine
10
205.15836307531799
20
23.86647461892899
30
0
11
205.18198868289255
21
24.377232628186217
31
0
0
ARC
5
772
100
AcDbEntity
8
0
100
AcDbCircle
10
204.18305677663437
20
24.423439193297742
30
0
40
0.99999999999999489
100
AcDbArc
50
-2.6483841413539362
51
78.800890994901849
0
LINE
5
773
100
AcDbEntity
8
0
100
AcDbLine
10
204.37727587319867
20
25.404397369026817
30
0
11
203.33971803349704
21
25.609822586172495
31
0
0
ARC
5
774
100
AcDbEntity
8
0
100
AcDbCircle
10
203.5339371300613
20
26.590780761901623
30
0
40
0.9999999999999859
100
AcDbArc
50
125.00206206639118
51
258.80089099490408
0
LINE
5
775
100
AcDbEntity
8
0
100
AcDbLine
10
202.96033121292425
20
27.409912162731377
30
0
11
207.82835976592591
21
30.818803556663703
31
0
0
ARC
5
776
100
AcDbEntity
8
0
100
AcDbCircle
10
205.53393609738959
20
34.095329159991138
30
0
40
3.9999999999999862
100
AcDbArc
50
305.0020620661823
51
360
0
LINE
5
777
100
AcDbEntity
8
0
100
AcDbLine
10
209.53393609738956
20
34.095329159839743
30
0
11
209.53393609798283
21
50.085988738576859
31
0
0
ARC
5
778
100
AcDbEntity
8
0
100
AcDbCircle
10
298.5339360979799
20
50.085988735208531
30
0
40
88.999999999997073
100
AcDbArc
50
168.23624446036422
51
180
0
LINE
5
779
100
AcDbEntity
8
0
100
AcDbLine
10
211.40324278585709
20
68.231023398947144
30
0
11
212.93375021792394
21
75.580371369157248
31
0
0
ARC
5
780
100
AcDbEntity
8
0
100
AcDbCircle
10
179.15836910254779
20
82.614120761281171
30
0
40
34.500000000001606
100
AcDbArc
50
348.23624446036433
51
360
0
LINE
5
781
100
AcDbEntity
8
0
100
AcDbLine
10
213.65836910254939
20
82.614120761280475
30
0
11
213.65836910254941
21
85.250915388234773
31
0
0
ARC
5
782
100
AcDbEntity
8
0
100
AcDbCircle
10
209.15836910254944
20
85.250915388234858
30
0
40
4.4999999999999574
100
AcDbArc
50
0
51
89.99999999999855
0
LINE
5
783
100
AcDbEntity
8
0
100
AcDbLine
10
209.15836910254956
20
89.750915388234802
30
0
11
202.15836910254995
21
89.750915388234972
31
0
0
ARC
5
784
100
AcDbEntity
8
0
100
AcDbCircle
10
202.1583691025499
20
85.250915388235015
30
0
40
4.4999999999999574
100
AcDbArc
50
89.999999999999275
51
180
0
LINE
5
785
100
AcDbEntity
8
0
100
AcDbLine
10
197.65836910254993
20
85.250915388235086
30
0
11
197.65836910254987
21
81.64583001855064
31
0
0
ARC
5
786
100
AcDbEntity
8
0
100
AcDbCircle
10
195.65836910254987
20
81.645830018550711
30
0
40
2.0000000000000018
100
AcDbArc
50
269.9999999999992
51
360
0
LINE
5
787
100
AcDbEntity
8
0
100
AcDbLine
10
195.65836910254984
20
79.645830018550711
30
0
11
194.65836908953202
21
79.645830018550726
31
0
0
ARC
5
788
100
AcDbEntity
8
0
100
AcDbCircle
10
194.65836908953196
20
77.64583001855074
30
0
40
1.9999999999999929
100
AcDbArc
50
89.99999999999838
51
180
0
LINE
5
789
100
AcDbEntity
8
0
100
AcDbLine
10
192.65836908953196
20
77.645830018550782
30
0
11
192.65836908953193
21
76.720798440104957
31
0
0
ARC
5
790
100
AcDbEntity
8
0
100
AcDbCircle
10
196.23393557223409
20
76.34181120825788
30
0
40
3.5955954992359946
100
AcDbArc
50
173.94960350883775
51
255.9999999999481
0
LINE
5
791
100
AcDbEntity
8
0
100
AcDbLine
10
195.36408229324533
20
72.853020261929601
30
0
11
196.23393557223409
21
76.34181120825788
31
0
0
LINE
5
792
100
AcDbEntity
8
0
100
AcDbLine
10
196.23393557223409
20
76.34181120825788
30
0
11
201.6212484057275
21
76.341811208255237
31
0
0
LINE
5
793
100
AcDbEntity
8
0
100
AcDbLine
10
201.6212484057275
20
76.341811208255237
30
0
11
202.18393557231639
21
78.841381436129822
31
0
0
LINE
5
794
100
AcDbEntity
8
0
100
AcDbLine
10
202.18393557231639
20
78.841381436129822
30
0
11
202.18393551848544
21
76.341381436129851
31
0
0
LINE
5
795
100
AcDbEntity
8
0
100
AcDbLine
10
202.18393551848544
20
76.341381436129851
30
0
11
202.18758843762322
21
74.591402032812582
31
0
0
ARC
5
796
100
AcDbEntity
8
0
100
AcDbCircle
10
222.186255034585
20
70.091402032944586
30
0
40
20.498699121047821
100
AcDbArc
50
167.31879838964241
51
178.59057852872937
0
LINE
5
797
100
AcDbEntity
8
0
100
AcDbLine
10
201.69375761572556
20
70.595599606605063
30
0
11
204.78393557223467
21
70.595599606604964
31
0
0
LINE
5
798
100
AcDbEntity
8
0
100
AcDbLine
10
204.78393557223467
20
70.595599606604964
30
0
11
204.78393557223478
21
78.841402032949617
31
0
0
ARC
5
799
100
AcDbEntity
8
0
100
AcDbCircle
10
180.01310223890184
20
70.091402032950128
30
0
40
26.270833333332813
100
AcDbArc
50
-19.455157102804453
51
19.455157102802428
0
LWPOLYLINE
5
800
100
AcDbEntity
8
0
100
AcDbPolyline
90
8
70
1
43
0.0
10
205.5339361016627
20
42.10221876190144
10
203.53393700566332
20
42.102218761901412
42
0.4142135648647271
10
202.53393700566329
20
41.102218753394347
10
202.53393706521206
20
34.102218749831543
42
0.41421355988144476
10
203.53393706164852
20
33.102218761901895
10
205.53393610166239
20
33.10221876190144
42
0.41421356237308465
10
206.53393610166256
20
34.102218761901398
10
206.53393610166268
20
41.102218761901462
42
0.41421356237311319
0
LWPOLYLINE
5
801
100
AcDbEntity
8
0
100
AcDbPolyline
90
8
70
1
43
0.0
10
209.1583691025495
20
86.750915414604577
10
202.15836910254993
20
86.750915414604719
42
0.4142135623730881
10
200.65836910254995
20
85.250915414604762
10
200.65836910254987
20
83.250915414604805
42
0.41421356237309165
10
202.15836910254981
20
81.750915414604776
10
209.15836910254939
20
81.75091541460462
42
0.41421356237308465
10
210.65836910254941
20
83.250915414604577
10
210.65836910254944
20
85.250915414604549
42
0.41421356237309165
0
LINE
5
802
100
AcDbEntity
8
0
100
AcDbLine
10
191.19778152876648
20
30.068749022443384
30
0
11
191.1977815287658
21
21.814551448787981
31
0
0
LINE
5
803
100
AcDbEntity
8
0
100
AcDbLine
10
191.1977815287658
20
21.814551448787981
30
0
11
194.28816431890723
21
21.814551448787732
31
0
0
ARC
5
804
100
AcDbEntity
8
0
100
AcDbCircle
10
173.79546206641521
20
21.318749022449381
30
0
40
20.498699121048013
100
AcDbArc
50
1.3859492663248256
51
12.681201610326148
0
LINE
5
805
100
AcDbEntity
8
0
100
AcDbLine
10
193.79412866337964
20
25.818749022306442
30
0
11
193.7941286633779
21
29.563744299414534
31
0
0
LINE
5
806
100
AcDbEntity
8
0
100
AcDbLine
10
193.7941286633779
20
29.563744299414534
30
0
11
194.45464922736787
21
26.872855576257084
31
0
0
ARC
5
807
100
AcDbEntity
8
0
100
AcDbCircle
10
199.74778152876684
20
15.068339847132862
30
0
40
12.936917761169177
100
AcDbArc
50
104.77856493916832
51
114.15141341769169
0
LINE
5
808
100
AcDbEntity
8
0
100
AcDbLine
10
196.44778028805334
20
27.577289961772532
30
0
11
196.44778014123912
21
44.81937029349173
31
0
0
ARC
5
809
100
AcDbEntity
8
0
100
AcDbCircle
10
196.44778013272429
20
45.819370293491765
30
0
40
1.0000000000000142
100
AcDbArc
50
90.000000487865535
51
270.00000048786387
0
LINE
5
810
100
AcDbEntity
8
0
100
AcDbLine
10
196.44778012420943
20
46.819370293491779
30
0
11
196.44777996114965
21
65.969370293492148
31
0
0
LINE
5
811
100
AcDbEntity
8
0
100
AcDbLine
10
196.44777996114965
20
65.969370293492148
30
0
11
199.74777996114966
21
65.969370293491878
31
0
0
ARC
5
812
100
AcDbEntity
8
0
100
AcDbCircle
10
200.74871294772174
20
66.718125279088397
30
0
40
1.250000348825445
100
AcDbArc
50
216.79858486944798
51
323.05874694074902
0
ARC
5
813
100
AcDbEntity
8
0
100
AcDbCircle
10
198.09777996114968
20
65.969370293492005
30
0
40
3.6499992992903025
100
AcDbArc
50
-0.039087175730761099
51
91.833944875792838
0
LINE
5
814
100
AcDbEntity
8
0
100
AcDbLine
10
197.98096935828033
20
69.617499974284257
30
0
11
192.75721201612265
21
69.450238857553344
31
0
0
ARC
5
815
100
AcDbEntity
8
0
100
AcDbCircle
10
192.82121783820159
20
67.451263306242041
30
0
40
2.0000000000000924
100
AcDbArc
50
91.833944875792241
51
177.35161585864455
0
LINE
5
816
100
AcDbEntity
8
0
100
AcDbLine
10
190.82335402568521
20
67.543676436465148
30
0
11
190.79972841811065
21
67.032918427207932
31
0
0
ARC
5
817
100
AcDbEntity
8
0
100
AcDbCircle
10
191.79866032436883
20
66.986711862096342
30
0
40
1.0000000000000331
100
AcDbArc
50
177.35161585864245
51
258.80089099489891
0
LINE
5
818
100
AcDbEntity
8
0
100
AcDbLine
10
191.60444122780447
20
66.005753686367242
30
0
11
192.64199906750608
21
65.800328469221483
31
0
0
ARC
5
819
100
AcDbEntity
8
0
100
AcDbCircle
10
192.44777997094175
20
64.819370293492383
30
0
40
1.0000000000000093
100
AcDbArc
50
-54.99793793361178
51
78.800890994900527
0
LINE
5
820
100
AcDbEntity
8
0
100
AcDbLine
10
193.02138588807878
20
64.00023889266258
30
0
11
188.15335733507686
21
60.591347498730421
31
0
0
ARC
5
821
100
AcDbEntity
8
0
100
AcDbCircle
10
190.44778100361302
20
57.314821895402794
30
0
40
4.0000000000000444
100
AcDbArc
50
125.00206206617869
51
180
0
LINE
5
822
100
AcDbEntity
8
0
100
AcDbLine
10
186.44778100361299
20
57.314821895554488
30
0
11
186.44778100301875
21
41.324162316816889
31
0
0
ARC
5
823
100
AcDbEntity
8
0
100
AcDbCircle
10
97.447781003282259
20
41.324162320163595
30
0
40
88.999999999736517
100
AcDbArc
50
348.23624446034341
51
360
0
LINE
5
824
100
AcDbEntity
8
0
100
AcDbLine
10
184.57847431514338
20
23.179127656446383
30
0
11
183.04796688307607
21
15.829779686236032
31
0
0
ARC
5
825
100
AcDbEntity
8
0
100
AcDbCircle
10
216.82334799845216
20
8.7960302941099133
30
0
40
34.50000000000199
100
AcDbArc
50
168.23624446036069
51
180
0
LINE
5
826
100
AcDbEntity
8
0
100
AcDbLine
10
182.3233479984502
20
8.7960302941128212
30
0
11
182.32334799845
21
6.159235667158276
31
0
0
ARC
5
827
100
AcDbEntity
8
0
100
AcDbCircle
10
186.82334799844998
20
6.1592356671579385
30
0
40
4.4999999999999929
100
AcDbArc
50
180
51
269.99999999999534
0
LINE
5
828
100
AcDbEntity
8
0
100
AcDbLine
10
186.82334799844961
20
1.6592356671578623
30
0
11
193.82334799844926
21
1.6592356671573074
31
0
0
ARC
5
829
100
AcDbEntity
8
0
100
AcDbCircle
10
193.82334799844961
20
6.15923566715737
30
0
40
4.5000000000000631
100
AcDbArc
50
269.99999999999568
51
360
0
LINE
5
830
100
AcDbEntity
8
0
100
AcDbLine
10
198.32334799844961
20
6.159235667157005
30
0
11
198.32334799844989
21
9.7643210368415527
31
0
0
ARC
5
831
100
AcDbEntity
8
0
100
AcDbCircle
10
200.32334799844989
20
9.7643210368414728
30
0
40
1.9999999999999651
100
AcDbArc
50
89.999999999995111
51
180
0
LINE
5
832
100
AcDbEntity
8
0
100
AcDbLine
10
200.32334799845006
20
11.764321036841439
30
0
11
201.32334801146794
21
11.764321036841361
31
0
0
ARC
5
833
100
AcDbEntity
8
0
100
AcDbCircle
10
201.32334801146808
20
13.764321036841407
30
0
40
2.0000000000000462
100
AcDbArc
50
269.99999999999591
51
360
0
LINE
5
834
100
AcDbEntity
8
0
100
AcDbLine
10
203.32334801146811
20
13.764321036841256
30
0
11
203.32334801146817
21
14.689352615287097
31
0
0
ARC
5
835
100
AcDbEntity
8
0
100
AcDbCircle
10
199.74778152876684
20
15.068339847132862
30
0
40
3.5955954992350438
100
AcDbArc
50
-6.0503964911428509
51
75.999999999963393
0
LINE
5
836
100
AcDbEntity
8
0
100
AcDbLine
10
200.617634807755
20
18.557130793462711
30
0
11
199.74778152876684
21
15.068339847132862
31
0
0
LINE
5
837
100
AcDbEntity
8
0
100
AcDbLine
10
199.74778152876684
20
15.068339847132862
30
0
11
194.36046869527252
21
15.068339847137359
31
0
0
LINE
5
838
100
AcDbEntity
8
0
100
AcDbLine
10
194.36046869527252
20
15.068339847137359
30
0
11
193.79778152868346
21
12.568769619262735
31
0
0
LINE
5
839
100
AcDbEntity
8
0
100
AcDbLine
10
193.79778152868346
20
12.568769619262735
30
0
11
193.79778158251466
21
15.068769619262772
31
0
0
LINE
5
840
100
AcDbEntity
8
0
100
AcDbLine
10
193.79778158251466
20
15.068769619262772
30
0
11
193.79412866337691
21
16.818749022580086
31
0
0
ARC
5
841
100
AcDbEntity
8
0
100
AcDbCircle
10
173.79546206641521
20
21.318749022449381
30
0
40
20.498699121048034
100
AcDbArc
50
347.3187983896388
51
358.59057852872542
0
LINE
5
842
100
AcDbEntity
8
0
100
AcDbLine
10
194.2879594852748
20
20.814551448787569
30
0
11
191.19778152876574
21
20.814551448787967
31
0
0
LINE
5
843
100
AcDbEntity
8
0
100
AcDbLine
10
191.19778152876574
20
20.814551448787967
30
0
11
191.19778152876506
21
12.56874902244309
31
0
0
ARC
5
844
100
AcDbEntity
8
0
100
AcDbCircle
10
215.968614862094
20
21.318749022441278
30
0
40
26.270833333328536
100
AcDbArc
50
160.54484289718823
51
199.45515710280267
0
LWPOLYLINE
5
845
100
AcDbEntity
8
0
100
AcDbPolyline
90
8
70
1
43
0.0
10
190.44778099933944
20
49.307932293492279
10
192.44778009533883
20
49.307932293492193
42
0.41421356486475053
10
193.44778009533894
20
50.307932301999202
10
193.44778003579057
20
57.307932305562225
42
0.41421355988142911
10
192.4477800393542
20
58.30793229349193
10
190.44778099934024
20
58.307932293492513
42
0.41421356237312629
10
189.44778099934007
20
57.307932293492563
10
189.4477809993395
20
50.307932293492357
42
0.41421356237311319
0
LWPOLYLINE
5
846
100
AcDbEntity
8
0
100
AcDbPolyline
90
8
70
1
43
0.0
10
186.82334799844989
20
4.6592356407882001
10
193.82334799844952
20
4.6592356407876423
42
0.41421356237309481
10
195.32334799844961
20
6.1592356407875144
10
195.32334799844978
20
8.1592356407875535
42
0.41421356237308726
10
193.82334799844989
20
9.6592356407876974
10
186.82334799845029
20
9.6592356407882711
42
0.41421356237311607
10
185.32334799845015
20
8.1592356407883564
10
185.32334799845
20
6.1592356407883209
42
0.41421356237309981
0
LINE
5
847
100
AcDbEntity
8
0
100
AcDbLine
10
178.24947771760452
20
81.472773897352582
30
0
11
178.24947771760463
21
73.218576323697363
31
0
0
LINE
5
848
100
AcDbEntity
8
0
100
AcDbLine
10
178.24947771760463
20
73.218576323697363
30
0
11
181.33986050774604
21
73.21857632369742
31
0
0
ARC
5
849
100
AcDbEntity
8
0
100
AcDbCircle
10
160.84715825525439
20
72.7227738973572
30
0
40
20.498699121047672
100
AcDbArc
50
1.3859492663298223
51
12.681201610331131
0
LINE
5
850
100
AcDbEntity
8
0
100
AcDbLine
10
180.84582485221813
20
77.22277389721593
30
0
11
180.845824852216
21
80.96776917432399
31
0
0
LINE
5
851
100
AcDbEntity
8
0
100
AcDbLine
10
180.845824852216
20
80.96776917432399
30
0
11
181.50634541620619
21
78.276880451166647
31
0
0
ARC
5
852
100
AcDbEntity
8
0
100
AcDbCircle
10
186.79947771760413
20
66.472364722048383
30
0
40
12.936917761163356
100
AcDbArc
50
104.77856493917122
51
114.15141341769832
0
LINE
5
853
100
AcDbEntity
8
0
100
AcDbLine
10
183.49947647689149
20
78.981314836682259
30
0
11
183.49947633007574
21
96.223395168401083
31
0
0
ARC
5
854
100
AcDbEntity
8
0
100
AcDbCircle
10
183.49947632156076
20
97.223395168401083
30
0
40
0.99999999999999645
100
AcDbArc
50
90.000000487870423
51
270.00000048787206
0
LINE
5
855
100
AcDbEntity
8
0
100
AcDbLine
10
183.49947631304582
20
98.223395168401083
30
0
11
183.49947614998425
21
117.373395168401
31
0
0
LINE
5
856
100
AcDbEntity
8
0
100
AcDbLine
10
183.49947614998425
20
117.373395168401
30
0
11
186.79947614998423
21
117.37339516840103
31
0
0
ARC
5
857
100
AcDbEntity
8
0
100
AcDbCircle
10
187.8004091365562
20
118.12215015399765
30
0
40
1.2500003488254128
100
AcDbArc
50
216.79858486945477
51
323.05874694075374
0
ARC
5
858
100
AcDbEntity
8
0
100
AcDbCircle
10
185.14947614998425
20
117.37339516840102
30
0
40
3.649999299290231
100
AcDbArc
50
-0.039087175721448437
51
91.833944875797798
0
LINE
5
859
100
AcDbEntity
8
0
100
AcDbLine
10
185.03266554711459
20
121.02152484919318
30
0
11
179.80890820495699
21
120.85426373246179
31
0
0
ARC
5
860
100
AcDbEntity
8
0
100
AcDbCircle
10
179.87291402703613
20
118.85528818115051
30
0
40
2.0000000000000537
100
AcDbArc
50
91.833944875797954
51
177.3516158586491
0
LINE
5
861
100
AcDbEntity
8
0
100
AcDbLine
10
177.87505021451975
20
118.94770131137346
30
0
11
177.85142460694527
21
118.43694330211622
31
0
0
ARC
5
862
100
AcDbEntity
8
0
100
AcDbCircle
10
178.85035651320339
20
118.39073673700476
30
0
40
0.9999999999999567
100
AcDbArc
50
177.35161585864978
51
258.8008909949034
0
LINE
5
863
100
AcDbEntity
8
0
100
AcDbLine
10
178.65613741663913
20
117.40977856127569
30
0
11
179.69369525634076
21
117.20435334413003
31
0
0
ARC
5
864
100
AcDbEntity
8
0
100
AcDbCircle
10
179.49947615977652
20
116.22339516840088
30
0
40
0.99999999999997868
100
AcDbArc
50
-54.997937933608569
51
78.800890994905785
0
LINE
5
865
100
AcDbEntity
8
0
100
AcDbLine
10
180.07308207691358
20
115.40426376757114
30
0
11
175.20505352391211
21
111.99537237363867
31
0
0
ARC
5
866
100
AcDbEntity
8
0
100
AcDbCircle
10
177.49947719244852
20
108.7188467703113
30
0
40
3.9999999999999765
100
AcDbArc
50
125.0020620661838
51
180
0
LINE
5
867
100
AcDbEntity
8
0
100
AcDbLine
10
173.49947719244855
20
108.7188467704626
30
0
11
173.49947719185582
21
92.728187191725397
31
0
0
ARC
5
868
100
AcDbEntity
8
0
100
AcDbCircle
10
84.499477191990962
20
92.728187195077169
30
0
40
88.999999999864855
100
AcDbArc
50
348.23624446035728
51
360
0
LINE
5
869
100
AcDbEntity
8
0
100
AcDbLine
10
171.63017050398213
20
74.583152531354926
30
0
11
170.09966307191561
21
67.233804561144822
31
0
0
ARC
5
870
100
AcDbEntity
8
0
100
AcDbCircle
10
203.87504418729179
20
60.200055169021965
30
0
40
34.500000000001428
100
AcDbArc
50
168.23624446036598
51
180
0
LINE
5
871
100
AcDbEntity
8
0
100
AcDbLine
10
169.37504418729043
20
60.200055169021724
30
0
11
169.37504418729043
21
57.563260542067233
31
0
0
ARC
5
872
100
AcDbEntity
8
0
100
AcDbCircle
10
173.87504418729037
20
57.563260542067304
30
0
40
4.4999999999999574
100
AcDbArc
50
180
51
270.00000000000034
0
LINE
5
873
100
AcDbEntity
8
0
100
AcDbLine
10
173.8750441872904
20
53.063260542067326
30
0
11
180.87504418728997
21
53.063260542067418
31
0
0
ARC
5
874
100
AcDbEntity
8
0
100
AcDbCircle
10
180.87504418728992
20
57.563260542067376
30
0
40
4.4999999999999574
100
AcDbArc
50
-89.999999999999304
51
0
0
LINE
5
875
100
AcDbEntity
8
0
100
AcDbLine
10
185.37504418728983
20
57.563260542067439
30
0
11
185.3750441872898
21
61.168345911751885
31
0
0
ARC
5
876
100
AcDbEntity
8
0
100
AcDbCircle
10
187.37504418728972
20
61.168345911751999
30
0
40
1.999999999999913
100
AcDbArc
50
90
51
180
0
LINE
5
877
100
AcDbEntity
8
0
100
AcDbLine
10
187.37504418728972
20
63.168345911751913
30
0
11
188.37504420030754
21
63.168345911751913
31
0
0
ARC
5
878
100
AcDbEntity
8
0
100
AcDbCircle
10
188.37504420030751
20
65.168345911751913
30
0
40
2.0000000000000018
100
AcDbArc
50
-89.99999999999919
51
0
0
LINE
5
879
100
AcDbEntity
8
0
100
AcDbLine
10
190.37504420030751
20
65.168345911751942
30
0
11
190.37504420030751
21
66.093377490197767
31
0
0
ARC
5
880
100
AcDbEntity
8
0
100
AcDbCircle
10
186.79947771760413
20
66.472364722048383
30
0
40
3.595595499237568
100
AcDbArc
50
-6.0503964912162829
51
75.999999999917051
0
LINE
5
881
100
AcDbEntity
8
0
100
AcDbLine
10
187.669330996594
20
69.961155668373053
30
0
11
186.79947771760413
21
66.472364722048383
31
0
0
LINE
5
882
100
AcDbEntity
8
0
100
AcDbLine
10
186.79947771760413
20
66.472364722048383
30
0
11
181.41216488411197
21
66.472364722047217
31
0
0
LINE
5
883
100
AcDbEntity
8
0
100
AcDbLine
10
181.41216488411197
20
66.472364722047217
30
0
11
180.84947771752314
21
63.972794494172589
31
0
0
LINE
5
884
100
AcDbEntity
8
0
100
AcDbLine
10
180.84947771752314
20
63.972794494172589
30
0
11
180.84947777135412
21
66.472794494172561
31
0
0
LINE
5
885
100
AcDbEntity
8
0
100
AcDbLine
10
180.84947777135412
20
66.472794494172561
30
0
11
180.84582485221617
21
68.222773897489844
31
0
0
ARC
5
886
100
AcDbEntity
8
0
100
AcDbCircle
10
160.84715825525439
20
72.7227738973572
30
0
40
20.498699121047679
100
AcDbArc
50
347.31879838964414
51
358.59057852873093
0
LINE
5
887
100
AcDbEntity
8
0
100
AcDbLine
10
181.33965567411371
20
72.218576323697292
30
0
11
178.24947771760469
21
72.218576323697391
31
0
0
LINE
5
888
100
AcDbEntity
8
0
100
AcDbLine
10
178.24947771760469
20
72.218576323697391
30
0
11
178.24947771760478
21
63.97277389735271
31
0
0
ARC
5
889
100
AcDbEntity
8
0
100
AcDbCircle
10
203.0203110509342
20
72.722773897352965
30
0
40
26.270833333329755
100
AcDbArc
50
160.54484289719494
51
199.4551571028066
0
LWPOLYLINE
5
890
100
AcDbEntity
8
0
100
AcDbPolyline
90
8
70
1
43
0.0
10
177.49947718817569
20
100.71195716840096
10
179.49947628417505
20
100.71195716840106
42
0.41421356486470373
10
180.49947628417505
20
101.71195717690816
10
180.49947622462605
20
108.71195718047098
42
0.41421355988142911
10
179.49947622818956
20
109.71195716840059
10
177.49947718817566
20
109.711957168401
42
0.4142135623731002
10
176.49947718817555
20
108.71195716840097
10
176.49947718817566
20
101.71195716840091
42
0.41421356237311585
0
LWPOLYLINE
5
891
100
AcDbEntity
8
0
100
AcDbPolyline
90
8
70
1
43
0.0
10
173.87504418729037
20
56.063260515697593
10
180.87504418728992
20
56.063260515697671
42
0.41421356237310197
10
182.37504418728986
20
57.563260515697657
10
182.37504418728986
20
59.563260515697614
42
0.41421356237311407
10
180.87504418728986
20
61.063260515697621
10
173.87504418729034
20
61.063260515697557
42
0.41421356237311241
10
172.37504418729034
20
59.563260515697543
10
172.37504418729037
20
57.563260515697543
42
0.41421356237307599
0
LWPOLYLINE
5
892
100
AcDbEntity
8
0
100
AcDbPolyline
90
4
70
1
43
0.0
10
152.05425423337422
20
-245.16658393806745
10
153.33750015112594
20
-261.0443444827593
42
1.0985884360050959
10
160.20079318415458
20
-259.83416074452794
10
155.97613596653346
20
-244.47505037336381
42
0.91025898983281184
0
LINE
5
893
100
AcDbEntity
8
0
100
AcDbLine
10
170.23211857680468
20
-289.98030052446029
30
0
11
173.38667608635825
21
-291.80158515177521
31
0
0
LINE
5
894
100
AcDbEntity
8
0
100
AcDbLine
10
173.38667608635825
20
-291.80158515177521
30
0
11
178.1624503314124
21
-292.75384091839356
31
0
0
ARC
5
895
100
AcDbEntity
8
0
100
AcDbCircle
10
173.56717389111634
20
-315.80017326081168
30
0
40
23.499999999998469
100
AcDbArc
50
59.999999999999531
51
78.723514490899518
0
LINE
5
896
100
AcDbEntity
8
0
100
AcDbLine
10
185.31717389111574
20
-295.44857627187878
30
0
11
187.81620266397437
21
-296.89139120660138
31
0
0
ARC
5
897
100
AcDbEntity
8
0
100
AcDbCircle
10
195.81620266397448
20
-283.03498474605044
30
0
40
15.999999999999993
100
AcDbArc
50
239.99999999999952
51
285.08424015246788
0
LINE
5
898
100
AcDbEntity
8
0
100
AcDbLine
10
199.98002561921962
20
-298.48369273077759
30
0
11
211.30464217763046
21
-295.43141816957308
31
0
0
LINE
5
899
100
AcDbEntity
8
0
100
AcDbLine
10
211.30464217763046
20
-295.43141816957308
30
0
11
209.4893856414252
21
-294.55350404790431
31
0
0
ARC
5
900
100
AcDbEntity
8
0
100
AcDbCircle
10
208.58914166618817
20
-294.1181182591497
30
0
40
0.99999999999999312
100
AcDbArc
50
154.19015524592049
51
334.19015524592561
0
LINE
5
901
100
AcDbEntity
8
0
100
AcDbLine
10
207.68889769095122
20
-293.68273247039502
30
0
11
207.27572915382189
21
-293.48291140591158
31
0
0
ARC
5
902
100
AcDbEntity
8
0
100
AcDbCircle
10
206.37548517858491
20
-293.04752561715696
30
0
40
1.0000000000000098
100
AcDbArc
50
154.19015524592123
51
334.19015524592413
0
LINE
5
903
100
AcDbEntity
8
0
100
AcDbLine
10
205.47524120334793
20
-292.61213982840229
30
0
11
205.06207266621863
21
-292.4123187639189
31
0
0
ARC
5
904
100
AcDbEntity
8
0
100
AcDbCircle
10
204.16182869098162
20
-291.97693297516435
30
0
40
0.99999999999999212
100
AcDbArc
50
154.19015524591688
51
334.19015524592777
0
LINE
5
905
100
AcDbEntity
8
0
100
AcDbLine
10
203.2615847157447
20
-291.54154718640962
30
0
11
201.44632817953942
21
-290.66363306474085
31
0
0
LINE
5
906
100
AcDbEntity
8
0
100
AcDbLine
10
201.44632817953942
20
-290.66363306474085
30
0
11
199.45167845488908
21
-291.20124231461358
31
0
0
ARC
5
907
100
AcDbEntity
8
0
100
AcDbCircle
10
197.10952804256365
20
-282.51134407320455
30
0
40
8.9999999999999591
100
AcDbArc
50
239.99999999999983
51
285.08424015246811
0
LINE
5
908
100
AcDbEntity
8
0
100
AcDbLine
10
192.60952804256365
20
-290.30557270726445
30
0
11
189.33760055045187
21
-288.41652448892478
31
0
0
ARC
5
909
100
AcDbEntity
8
0
100
AcDbCircle
10
201.08760055045266
20
-268.06492749998989
30
0
40
23.500000000000895
100
AcDbArc
50
221.4121935492681
51
239.99999999999901
0
LINE
5
910
100
AcDbEntity
8
0
100
AcDbLine
10
183.46329817491869
20
-283.60950744850538
30
0
11
180.23173661015187
21
-279.94559254368062
31
0
0
LINE
5
911
100
AcDbEntity
8
0
100
AcDbLine
10
180.23173661015187
20
-279.94559254368062
30
0
11
177.09928741475863
21
-278.13707215749753
31
0
0
ARC
5
912
100
AcDbEntity
8
0
100
AcDbCircle
10
169.57972749724081
20
-281.71584682583637
30
0
40
10.742786273971303
100
AcDbArc
50
31.801880666174274
51
37.504565305486778
0
ARC
5
913
100
AcDbEntity
8
0
100
AcDbCircle
10
169.56526338185472
20
-281.72609545987996
30
0
40
7.2905317649145021
100
AcDbArc
50
54.890661145279481
51
59.999813501176334
0
ARC
5
914
100
AcDbEntity
8
0
100
AcDbCircle
10
169.56927063179532
20
-281.70526706305452
30
0
40
10.739308996153273
100
AcDbArc
50
76.800956667571072
51
82.505489304096301
0
ARC
5
915
100
AcDbEntity
8
0
100
AcDbCircle
10
169.56554981522481
20
-281.72564680510857
30
0
40
7.2900000015094193
100
AcDbArc
50
99.89047470831575
51
104.99999999351898
0
ARC
5
916
100
AcDbEntity
8
0
100
AcDbCircle
10
169.55378274917342
20
-281.70862332425224
30
0
40
10.739331079205321
100
AcDbArc
50
121.80096253747062
51
127.50548343419038
0
ARC
5
917
100
AcDbEntity
8
0
100
AcDbCircle
10
169.54859301037214
20
-281.72255092689528
30
0
40
10.742784204394171
100
AcDbArc
50
166.80188011641624
51
172.50456585524827
0
ARC
5
918
100
AcDbEntity
8
0
100
AcDbCircle
10
169.55135726726422
20
-281.73545705670216
30
0
40
10.742768225422758
100
AcDbArc
50
211.80187587177645
51
217.50457009988679
0
ARC
5
919
100
AcDbEntity
8
0
100
AcDbCircle
10
169.56559950508947
20
-281.72556897108313
30
0
40
7.2900922500616012
100
AcDbArc
50
234.89050705270682
51
239.99996764402397
0
ARC
5
920
100
AcDbEntity
8
0
100
AcDbCircle
10
169.56182866951377
20
-281.74602834342568
30
0
40
10.739307169463888
100
AcDbArc
50
256.8009561820154
51
262.50548978964838
0
LINE
5
921
100
AcDbEntity
8
0
100
AcDbLine
10
181.26037865847542
20
-358.70860776528082
30
0
11
182.76037865847564
21
-360.48314555726421
31
0
0
CIRCLE
5
922
100
AcDbEntity
8
0
100
AcDbCircle
10
208.18944400351921
20
-351.47427050097974
30
0
40
1.2249999999999814
0
LINE
5
923
100
AcDbEntity
8
0
100
AcDbLine
10
163.5224833787544
20
-51.676881816362901
30
0
11
166.82248337875444
21
-51.676881816362894
31
0
0
LINE
5
924
100
AcDbEntity
8
0
100
AcDbLine
10
197.32248337875438
20
-51.289985816362815
30
0
11
200.62248337875442
21
-51.289985816362808
31
0
0
ARC
5
925
100
AcDbEntity
8
0
100
AcDbCircle
10
204.04970844307738
20
-52.676881816362872
30
0
40
1.0000000000000011
100
AcDbArc
50
82.197333701743375
51
259.59275583138583
0
ARC
5
926
100
AcDbEntity
8
0
100
AcDbCircle
10
182.3269056988903
20
-49.195525624139037
30
0
40
21.999999999999886
100
AcDbArc
50
-6.5003773630805117
51
1.7665879699776788
0
ARC
5
927
100
AcDbEntity
8
0
100
AcDbCircle
10
160.09525831443145
20
-52.676881816362908
30
0
40
0.99999999999998668
100
AcDbArc
50
-79.59275583138367
51
97.802666298258458
0
ARC
5
928
100
AcDbEntity
8
0
100
AcDbCircle
10
181.81806105861853
20
-49.195525624139037
30
0
40
21.999999999999922
100
AcDbArc
50
191.70953310379329
51
199.9764984368517
0
ARC
5
929
100
AcDbEntity
8
0
100
AcDbCircle
10
169.57889960151235
20
-281.71430661073134
30
0
40
10.742505465387172
100
AcDbArc
50
37.495360098965342
51
43.198193929371158
0
ARC
5
930
100
AcDbEntity
8
0
100
AcDbCircle
10
169.56554981420237
20
-281.72564680497533
30
0
40
7.2900000021571243
100
AcDbArc
50
59.999999995451461
51
65.109525290971661
0
ARC
5
931
100
AcDbEntity
8
0
100
AcDbCircle
10
169.56725620601492
20
-281.70468198798017
30
0
40
10.738991863327843
100
AcDbArc
50
82.494426396067141
51
88.199127632266425
0
ARC
5
932
100
AcDbEntity
8
0
100
AcDbCircle
10
169.56543941635937
20
-281.7252978357854
30
0
40
7.2896343503931984
100
AcDbArc
50
104.99987174788096
51
110.10965350406454
0
ARC
5
933
100
AcDbEntity
8
0
100
AcDbCircle
10
169.55243411079064
20
-281.71020686776552
30
0
40
10.739766387660223
100
AcDbArc
50
127.49463227034397
51
133.19892175799089
0
ARC
5
934
100
AcDbEntity
8
0
100
AcDbCircle
10
169.54223237218784
20
-281.72374892493252
30
0
40
10.736634381231909
100
AcDbArc
50
172.49379957692867
51
178.19975445141094
0
ARC
5
935
100
AcDbEntity
8
0
100
AcDbCircle
10
169.55221749345185
20
-281.73697216046708
30
0
40
10.742528352967932
100
AcDbArc
50
217.49536617909408
51
223.19818784924013
0
ARC
5
936
100
AcDbEntity
8
0
100
AcDbCircle
10
169.56554981565534
20
-281.72564680217778
30
0
40
7.2900000016382229
100
AcDbArc
50
239.99999999934232
51
245.10952529034293
0
ARC
5
937
100
AcDbEntity
8
0
100
AcDbCircle
10
169.56384329095758
20
-281.74661325119536
30
0
40
10.738990228050238
100
AcDbArc
50
262.49442596136868
51
268.19912806696885
0
LINE
5
938
100
AcDbEntity
8
0
100
AcDbLine
10
165.56037865847557
20
-360.48314555726586
30
0
11
178.0603786584756
21
-360.48314555726461
31
0
0
ENDSEC
0
SECTION
2
OBJECTS
0
DICTIONARY
5
C
100
AcDbDictionary
3
ACAD_GROUP
350
D
3
ACAD_MLINESTYLE
350
17
0
DICTIONARY
5
D
100
AcDbDictionary
0
DICTIONARY
5
1A
330
C
100
AcDbDictionary
0
DICTIONARY
5
17
100
AcDbDictionary
0
ENDSEC
0
EOF
