G04 #@! TF.FileFunction,Legend,Bot*
%FSLAX46Y46*%
G04 Gerber Fmt 4.6, Leading zero omitted, Abs format (unit mm)*
G04 Created by KiCad (PCBNEW (2015-01-16 BZR 5376)-product) date 26/03/2015 09:41:38*
%MOMM*%
G01*
G04 APERTURE LIST*
%ADD10C,0.100000*%
%ADD11C,2.000000*%
%ADD12R,2.000000X2.000000*%
%ADD13R,1.574800X2.286000*%
%ADD14O,1.574800X2.286000*%
%ADD15R,1.727200X1.727200*%
%ADD16O,1.727200X1.727200*%
%ADD17C,4.800600*%
%ADD18R,4.800600X4.800600*%
%ADD19R,2.032000X1.727200*%
%ADD20O,2.032000X1.727200*%
%ADD21C,1.500000*%
G04 APERTURE END LIST*
D10*
G36*
X122465325Y-113611348D02*
X122515355Y-114314765D01*
X122705227Y-114987783D01*
X123027061Y-115607944D01*
X123472978Y-116152791D01*
X124035099Y-116599865D01*
X124434916Y-116816454D01*
X124582143Y-116879145D01*
X124739817Y-116933857D01*
X124920353Y-116981263D01*
X125136166Y-117022039D01*
X125399669Y-117056858D01*
X125723279Y-117086395D01*
X126119410Y-117111325D01*
X126600476Y-117132321D01*
X127178892Y-117150058D01*
X127867073Y-117165211D01*
X128677433Y-117178453D01*
X129622388Y-117190460D01*
X130714352Y-117201906D01*
X131699661Y-117211090D01*
X132798147Y-117220345D01*
X133741230Y-117226755D01*
X134542819Y-117230132D01*
X135216823Y-117230289D01*
X135777151Y-117227037D01*
X136237712Y-117220191D01*
X136612415Y-117209562D01*
X136915169Y-117194963D01*
X137159884Y-117176208D01*
X137360469Y-117153108D01*
X137488581Y-117133121D01*
X138198565Y-116968408D01*
X138781926Y-116736920D01*
X139273950Y-116421476D01*
X139633249Y-116088920D01*
X139717235Y-115985062D01*
X139846883Y-115802733D01*
X140024931Y-115537488D01*
X140254116Y-115184880D01*
X140537177Y-114740463D01*
X140876851Y-114199792D01*
X141275876Y-113558420D01*
X141736991Y-112811902D01*
X142262932Y-111955792D01*
X142856439Y-110985644D01*
X143520249Y-109897011D01*
X144257099Y-108685448D01*
X145069729Y-107346509D01*
X145960875Y-105875748D01*
X146933276Y-104268719D01*
X147989669Y-102520976D01*
X148039667Y-102438217D01*
X148867278Y-101069084D01*
X149671451Y-99740288D01*
X150447825Y-98458964D01*
X151192042Y-97232248D01*
X151899743Y-96067275D01*
X152566567Y-94971180D01*
X153188156Y-93951100D01*
X153760151Y-93014169D01*
X154278192Y-92167524D01*
X154737920Y-91418299D01*
X155134975Y-90773631D01*
X155464999Y-90240654D01*
X155723632Y-89826505D01*
X155906514Y-89538318D01*
X156009287Y-89383229D01*
X156031166Y-89357360D01*
X157048357Y-92237593D01*
X158010601Y-94961922D01*
X158919246Y-97534143D01*
X159775638Y-99958053D01*
X160581126Y-102237449D01*
X161337056Y-104376129D01*
X162044776Y-106377889D01*
X162705633Y-108246528D01*
X163320974Y-109985841D01*
X163892148Y-111599626D01*
X164420500Y-113091680D01*
X164907379Y-114465801D01*
X165354132Y-115725785D01*
X165762105Y-116875429D01*
X166132647Y-117918531D01*
X166467104Y-118858888D01*
X166766825Y-119700296D01*
X167033156Y-120446554D01*
X167267444Y-121101457D01*
X167471037Y-121668804D01*
X167645283Y-122152391D01*
X167791528Y-122556016D01*
X167911120Y-122883475D01*
X168005406Y-123138566D01*
X168075733Y-123325086D01*
X168123449Y-123446832D01*
X168144683Y-123496779D01*
X168524340Y-124131639D01*
X169022826Y-124670788D01*
X169615063Y-125100951D01*
X170275976Y-125408849D01*
X170980487Y-125581206D01*
X171703519Y-125604745D01*
X172042667Y-125560612D01*
X172801792Y-125339701D01*
X173475414Y-124983958D01*
X174050894Y-124510781D01*
X174515592Y-123937568D01*
X174856869Y-123281715D01*
X175062084Y-122560621D01*
X175118598Y-121791684D01*
X175084380Y-121373955D01*
X175050924Y-121254674D01*
X174963585Y-120984085D01*
X174825268Y-120570411D01*
X174638875Y-120021870D01*
X174407308Y-119346685D01*
X174133469Y-118553077D01*
X173820263Y-117649267D01*
X173470591Y-116643475D01*
X173087356Y-115543923D01*
X172673461Y-114358832D01*
X172231808Y-113096422D01*
X171765300Y-111764915D01*
X171276839Y-110372532D01*
X170769329Y-108927494D01*
X170245672Y-107438022D01*
X169708770Y-105912336D01*
X169161526Y-104358658D01*
X168606844Y-102785209D01*
X168047625Y-101200210D01*
X167486771Y-99611882D01*
X166927187Y-98028446D01*
X166371774Y-96458123D01*
X165823436Y-94909134D01*
X165285074Y-93389700D01*
X164759591Y-91908041D01*
X164249891Y-90472380D01*
X163758875Y-89090937D01*
X163289446Y-87771933D01*
X162844508Y-86523589D01*
X162426962Y-85354127D01*
X162039712Y-84271766D01*
X161685659Y-83284729D01*
X161367707Y-82401235D01*
X161088758Y-81629507D01*
X160851716Y-80977766D01*
X160659481Y-80454231D01*
X160514958Y-80067125D01*
X160421049Y-79824668D01*
X160384935Y-79741497D01*
X160152234Y-79398782D01*
X159818861Y-79015339D01*
X159427533Y-78631511D01*
X159020969Y-78287645D01*
X158641886Y-78024085D01*
X158468625Y-77931624D01*
X157742771Y-77684443D01*
X157009023Y-77594465D01*
X156289173Y-77657507D01*
X155605008Y-77869390D01*
X154978319Y-78225932D01*
X154448711Y-78702968D01*
X154358495Y-78827418D01*
X154183654Y-79093323D01*
X153926536Y-79496847D01*
X153589488Y-80034154D01*
X153174857Y-80701408D01*
X152684991Y-81494773D01*
X152122237Y-82410411D01*
X151488942Y-83444487D01*
X150787453Y-84593165D01*
X150020118Y-85852608D01*
X149189283Y-87218980D01*
X148297297Y-88688445D01*
X147346507Y-90257166D01*
X146339259Y-91921308D01*
X145277901Y-93677033D01*
X144610667Y-94781815D01*
X135170333Y-110418036D01*
X130328186Y-110361884D01*
X129254711Y-110349660D01*
X128336043Y-110340404D01*
X127557668Y-110335038D01*
X126905073Y-110334482D01*
X126363743Y-110339657D01*
X125919165Y-110351484D01*
X125556826Y-110370882D01*
X125262210Y-110398773D01*
X125020806Y-110436077D01*
X124818097Y-110483715D01*
X124639572Y-110542607D01*
X124470716Y-110613675D01*
X124297014Y-110697838D01*
X124192100Y-110751091D01*
X123840034Y-110986770D01*
X123468748Y-111326858D01*
X123126477Y-111720446D01*
X122861456Y-112116624D01*
X122816309Y-112203148D01*
X122563017Y-112899990D01*
X122465325Y-113611348D01*
X122465325Y-113611348D01*
X122465325Y-113611348D01*
G37*
X122465325Y-113611348D02*
X122515355Y-114314765D01*
X122705227Y-114987783D01*
X123027061Y-115607944D01*
X123472978Y-116152791D01*
X124035099Y-116599865D01*
X124434916Y-116816454D01*
X124582143Y-116879145D01*
X124739817Y-116933857D01*
X124920353Y-116981263D01*
X125136166Y-117022039D01*
X125399669Y-117056858D01*
X125723279Y-117086395D01*
X126119410Y-117111325D01*
X126600476Y-117132321D01*
X127178892Y-117150058D01*
X127867073Y-117165211D01*
X128677433Y-117178453D01*
X129622388Y-117190460D01*
X130714352Y-117201906D01*
X131699661Y-117211090D01*
X132798147Y-117220345D01*
X133741230Y-117226755D01*
X134542819Y-117230132D01*
X135216823Y-117230289D01*
X135777151Y-117227037D01*
X136237712Y-117220191D01*
X136612415Y-117209562D01*
X136915169Y-117194963D01*
X137159884Y-117176208D01*
X137360469Y-117153108D01*
X137488581Y-117133121D01*
X138198565Y-116968408D01*
X138781926Y-116736920D01*
X139273950Y-116421476D01*
X139633249Y-116088920D01*
X139717235Y-115985062D01*
X139846883Y-115802733D01*
X140024931Y-115537488D01*
X140254116Y-115184880D01*
X140537177Y-114740463D01*
X140876851Y-114199792D01*
X141275876Y-113558420D01*
X141736991Y-112811902D01*
X142262932Y-111955792D01*
X142856439Y-110985644D01*
X143520249Y-109897011D01*
X144257099Y-108685448D01*
X145069729Y-107346509D01*
X145960875Y-105875748D01*
X146933276Y-104268719D01*
X147989669Y-102520976D01*
X148039667Y-102438217D01*
X148867278Y-101069084D01*
X149671451Y-99740288D01*
X150447825Y-98458964D01*
X151192042Y-97232248D01*
X151899743Y-96067275D01*
X152566567Y-94971180D01*
X153188156Y-93951100D01*
X153760151Y-93014169D01*
X154278192Y-92167524D01*
X154737920Y-91418299D01*
X155134975Y-90773631D01*
X155464999Y-90240654D01*
X155723632Y-89826505D01*
X155906514Y-89538318D01*
X156009287Y-89383229D01*
X156031166Y-89357360D01*
X157048357Y-92237593D01*
X158010601Y-94961922D01*
X158919246Y-97534143D01*
X159775638Y-99958053D01*
X160581126Y-102237449D01*
X161337056Y-104376129D01*
X162044776Y-106377889D01*
X162705633Y-108246528D01*
X163320974Y-109985841D01*
X163892148Y-111599626D01*
X164420500Y-113091680D01*
X164907379Y-114465801D01*
X165354132Y-115725785D01*
X165762105Y-116875429D01*
X166132647Y-117918531D01*
X166467104Y-118858888D01*
X166766825Y-119700296D01*
X167033156Y-120446554D01*
X167267444Y-121101457D01*
X167471037Y-121668804D01*
X167645283Y-122152391D01*
X167791528Y-122556016D01*
X167911120Y-122883475D01*
X168005406Y-123138566D01*
X168075733Y-123325086D01*
X168123449Y-123446832D01*
X168144683Y-123496779D01*
X168524340Y-124131639D01*
X169022826Y-124670788D01*
X169615063Y-125100951D01*
X170275976Y-125408849D01*
X170980487Y-125581206D01*
X171703519Y-125604745D01*
X172042667Y-125560612D01*
X172801792Y-125339701D01*
X173475414Y-124983958D01*
X174050894Y-124510781D01*
X174515592Y-123937568D01*
X174856869Y-123281715D01*
X175062084Y-122560621D01*
X175118598Y-121791684D01*
X175084380Y-121373955D01*
X175050924Y-121254674D01*
X174963585Y-120984085D01*
X174825268Y-120570411D01*
X174638875Y-120021870D01*
X174407308Y-119346685D01*
X174133469Y-118553077D01*
X173820263Y-117649267D01*
X173470591Y-116643475D01*
X173087356Y-115543923D01*
X172673461Y-114358832D01*
X172231808Y-113096422D01*
X171765300Y-111764915D01*
X171276839Y-110372532D01*
X170769329Y-108927494D01*
X170245672Y-107438022D01*
X169708770Y-105912336D01*
X169161526Y-104358658D01*
X168606844Y-102785209D01*
X168047625Y-101200210D01*
X167486771Y-99611882D01*
X166927187Y-98028446D01*
X166371774Y-96458123D01*
X165823436Y-94909134D01*
X165285074Y-93389700D01*
X164759591Y-91908041D01*
X164249891Y-90472380D01*
X163758875Y-89090937D01*
X163289446Y-87771933D01*
X162844508Y-86523589D01*
X162426962Y-85354127D01*
X162039712Y-84271766D01*
X161685659Y-83284729D01*
X161367707Y-82401235D01*
X161088758Y-81629507D01*
X160851716Y-80977766D01*
X160659481Y-80454231D01*
X160514958Y-80067125D01*
X160421049Y-79824668D01*
X160384935Y-79741497D01*
X160152234Y-79398782D01*
X159818861Y-79015339D01*
X159427533Y-78631511D01*
X159020969Y-78287645D01*
X158641886Y-78024085D01*
X158468625Y-77931624D01*
X157742771Y-77684443D01*
X157009023Y-77594465D01*
X156289173Y-77657507D01*
X155605008Y-77869390D01*
X154978319Y-78225932D01*
X154448711Y-78702968D01*
X154358495Y-78827418D01*
X154183654Y-79093323D01*
X153926536Y-79496847D01*
X153589488Y-80034154D01*
X153174857Y-80701408D01*
X152684991Y-81494773D01*
X152122237Y-82410411D01*
X151488942Y-83444487D01*
X150787453Y-84593165D01*
X150020118Y-85852608D01*
X149189283Y-87218980D01*
X148297297Y-88688445D01*
X147346507Y-90257166D01*
X146339259Y-91921308D01*
X145277901Y-93677033D01*
X144610667Y-94781815D01*
X135170333Y-110418036D01*
X130328186Y-110361884D01*
X129254711Y-110349660D01*
X128336043Y-110340404D01*
X127557668Y-110335038D01*
X126905073Y-110334482D01*
X126363743Y-110339657D01*
X125919165Y-110351484D01*
X125556826Y-110370882D01*
X125262210Y-110398773D01*
X125020806Y-110436077D01*
X124818097Y-110483715D01*
X124639572Y-110542607D01*
X124470716Y-110613675D01*
X124297014Y-110697838D01*
X124192100Y-110751091D01*
X123840034Y-110986770D01*
X123468748Y-111326858D01*
X123126477Y-111720446D01*
X122861456Y-112116624D01*
X122816309Y-112203148D01*
X122563017Y-112899990D01*
X122465325Y-113611348D01*
X122465325Y-113611348D01*
G36*
X129381018Y-104945174D02*
X129436442Y-105329863D01*
X129561167Y-105577953D01*
X129716425Y-105736567D01*
X130013271Y-105964807D01*
X130454434Y-106264570D01*
X131042641Y-106637752D01*
X131402667Y-106858500D01*
X131882424Y-107146684D01*
X132318790Y-107402669D01*
X132689465Y-107613869D01*
X132972152Y-107767699D01*
X133144554Y-107851572D01*
X133182995Y-107863360D01*
X133347067Y-107818669D01*
X133500495Y-107733532D01*
X133650231Y-107538650D01*
X133683469Y-107291105D01*
X133596300Y-107062251D01*
X133540500Y-107003039D01*
X133425238Y-106922124D01*
X133189002Y-106769288D01*
X132856018Y-106559741D01*
X132450509Y-106308693D01*
X131996698Y-106031353D01*
X131885734Y-105964050D01*
X131437121Y-105687359D01*
X131044606Y-105435683D01*
X130729098Y-105223228D01*
X130511512Y-105064204D01*
X130412759Y-104972820D01*
X130409359Y-104960925D01*
X130502036Y-104880327D01*
X130698395Y-104786514D01*
X130785232Y-104755034D01*
X131130881Y-104639817D01*
X132579469Y-105457330D01*
X133136480Y-105767016D01*
X133568294Y-105992790D01*
X133893925Y-106139485D01*
X134132390Y-106211937D01*
X134302705Y-106214979D01*
X134423884Y-106153448D01*
X134514945Y-106032177D01*
X134551474Y-105958720D01*
X134599710Y-105818900D01*
X134598521Y-105689175D01*
X134533078Y-105556381D01*
X134388552Y-105407352D01*
X134150116Y-105228924D01*
X133802941Y-105007929D01*
X133332198Y-104731204D01*
X132877852Y-104472801D01*
X132408220Y-104202903D01*
X131992957Y-103954954D01*
X131653448Y-103742492D01*
X131411077Y-103579057D01*
X131287230Y-103478187D01*
X131275667Y-103458438D01*
X131347574Y-103365547D01*
X131531070Y-103250420D01*
X131667881Y-103187319D01*
X132060095Y-103026359D01*
X133403548Y-103780515D01*
X133843068Y-104025683D01*
X134239126Y-104243681D01*
X134565086Y-104420080D01*
X134794312Y-104540452D01*
X134895902Y-104588960D01*
X135145391Y-104604660D01*
X135357741Y-104492998D01*
X135497039Y-104295942D01*
X135527371Y-104055461D01*
X135478509Y-103908127D01*
X135378665Y-103817650D01*
X135153004Y-103662899D01*
X134826008Y-103457601D01*
X134422161Y-103215482D01*
X133965945Y-102950266D01*
X133481842Y-102675679D01*
X132994335Y-102405448D01*
X132527907Y-102153297D01*
X132107041Y-101932953D01*
X131756219Y-101758140D01*
X131499923Y-101642585D01*
X131362637Y-101600013D01*
X131361452Y-101600000D01*
X131146580Y-101674777D01*
X130987278Y-101860924D01*
X130923866Y-102101167D01*
X130935635Y-102204868D01*
X130937504Y-102363206D01*
X130826200Y-102487652D01*
X130724313Y-102550581D01*
X130477395Y-102775254D01*
X130303970Y-103097407D01*
X130234539Y-103450735D01*
X130244067Y-103594605D01*
X130254360Y-103780632D01*
X130180491Y-103896526D01*
X129997785Y-103999707D01*
X129673101Y-104238847D01*
X129463708Y-104567752D01*
X129381018Y-104945174D01*
X129381018Y-104945174D01*
X129381018Y-104945174D01*
G37*
X129381018Y-104945174D02*
X129436442Y-105329863D01*
X129561167Y-105577953D01*
X129716425Y-105736567D01*
X130013271Y-105964807D01*
X130454434Y-106264570D01*
X131042641Y-106637752D01*
X131402667Y-106858500D01*
X131882424Y-107146684D01*
X132318790Y-107402669D01*
X132689465Y-107613869D01*
X132972152Y-107767699D01*
X133144554Y-107851572D01*
X133182995Y-107863360D01*
X133347067Y-107818669D01*
X133500495Y-107733532D01*
X133650231Y-107538650D01*
X133683469Y-107291105D01*
X133596300Y-107062251D01*
X133540500Y-107003039D01*
X133425238Y-106922124D01*
X133189002Y-106769288D01*
X132856018Y-106559741D01*
X132450509Y-106308693D01*
X131996698Y-106031353D01*
X131885734Y-105964050D01*
X131437121Y-105687359D01*
X131044606Y-105435683D01*
X130729098Y-105223228D01*
X130511512Y-105064204D01*
X130412759Y-104972820D01*
X130409359Y-104960925D01*
X130502036Y-104880327D01*
X130698395Y-104786514D01*
X130785232Y-104755034D01*
X131130881Y-104639817D01*
X132579469Y-105457330D01*
X133136480Y-105767016D01*
X133568294Y-105992790D01*
X133893925Y-106139485D01*
X134132390Y-106211937D01*
X134302705Y-106214979D01*
X134423884Y-106153448D01*
X134514945Y-106032177D01*
X134551474Y-105958720D01*
X134599710Y-105818900D01*
X134598521Y-105689175D01*
X134533078Y-105556381D01*
X134388552Y-105407352D01*
X134150116Y-105228924D01*
X133802941Y-105007929D01*
X133332198Y-104731204D01*
X132877852Y-104472801D01*
X132408220Y-104202903D01*
X131992957Y-103954954D01*
X131653448Y-103742492D01*
X131411077Y-103579057D01*
X131287230Y-103478187D01*
X131275667Y-103458438D01*
X131347574Y-103365547D01*
X131531070Y-103250420D01*
X131667881Y-103187319D01*
X132060095Y-103026359D01*
X133403548Y-103780515D01*
X133843068Y-104025683D01*
X134239126Y-104243681D01*
X134565086Y-104420080D01*
X134794312Y-104540452D01*
X134895902Y-104588960D01*
X135145391Y-104604660D01*
X135357741Y-104492998D01*
X135497039Y-104295942D01*
X135527371Y-104055461D01*
X135478509Y-103908127D01*
X135378665Y-103817650D01*
X135153004Y-103662899D01*
X134826008Y-103457601D01*
X134422161Y-103215482D01*
X133965945Y-102950266D01*
X133481842Y-102675679D01*
X132994335Y-102405448D01*
X132527907Y-102153297D01*
X132107041Y-101932953D01*
X131756219Y-101758140D01*
X131499923Y-101642585D01*
X131362637Y-101600013D01*
X131361452Y-101600000D01*
X131146580Y-101674777D01*
X130987278Y-101860924D01*
X130923866Y-102101167D01*
X130935635Y-102204868D01*
X130937504Y-102363206D01*
X130826200Y-102487652D01*
X130724313Y-102550581D01*
X130477395Y-102775254D01*
X130303970Y-103097407D01*
X130234539Y-103450735D01*
X130244067Y-103594605D01*
X130254360Y-103780632D01*
X130180491Y-103896526D01*
X129997785Y-103999707D01*
X129673101Y-104238847D01*
X129463708Y-104567752D01*
X129381018Y-104945174D01*
X129381018Y-104945174D01*
G36*
X132748913Y-99206863D02*
X132827277Y-99652617D01*
X133037354Y-100037398D01*
X133370393Y-100330457D01*
X133671542Y-100461275D01*
X133957735Y-100495951D01*
X134182866Y-100434226D01*
X134278355Y-100335566D01*
X134360013Y-100081907D01*
X134301251Y-99854285D01*
X134091659Y-99620870D01*
X134027333Y-99568000D01*
X133832895Y-99394072D01*
X133710412Y-99246184D01*
X133688667Y-99190549D01*
X133727692Y-99057888D01*
X133827280Y-98840220D01*
X133901562Y-98700416D01*
X134003601Y-98530003D01*
X134109114Y-98404735D01*
X134253274Y-98302265D01*
X134471256Y-98200244D01*
X134798232Y-98076322D01*
X134994550Y-98005945D01*
X135874642Y-97692384D01*
X136865450Y-98254885D01*
X137341027Y-98522725D01*
X137695163Y-98714582D01*
X137952390Y-98840292D01*
X138137243Y-98909689D01*
X138274257Y-98932609D01*
X138387964Y-98918886D01*
X138461605Y-98894745D01*
X138640303Y-98746951D01*
X138732773Y-98515141D01*
X138712904Y-98273599D01*
X138694288Y-98232763D01*
X138596009Y-98144995D01*
X138372003Y-97992614D01*
X138046681Y-97789313D01*
X137644457Y-97548784D01*
X137189742Y-97284719D01*
X136706950Y-97010812D01*
X136220491Y-96740755D01*
X135754779Y-96488241D01*
X135334226Y-96266961D01*
X134983243Y-96090610D01*
X134726245Y-95972879D01*
X134587643Y-95927461D01*
X134583979Y-95927333D01*
X134372274Y-96001572D01*
X134197330Y-96184386D01*
X134113400Y-96415924D01*
X134112000Y-96448008D01*
X134173436Y-96586330D01*
X134328154Y-96765070D01*
X134408719Y-96836919D01*
X134705437Y-97081500D01*
X134241551Y-97227727D01*
X133757199Y-97436239D01*
X133374818Y-97738678D01*
X133052034Y-98170004D01*
X133007150Y-98246215D01*
X132807218Y-98728581D01*
X132748913Y-99206863D01*
X132748913Y-99206863D01*
X132748913Y-99206863D01*
G37*
X132748913Y-99206863D02*
X132827277Y-99652617D01*
X133037354Y-100037398D01*
X133370393Y-100330457D01*
X133671542Y-100461275D01*
X133957735Y-100495951D01*
X134182866Y-100434226D01*
X134278355Y-100335566D01*
X134360013Y-100081907D01*
X134301251Y-99854285D01*
X134091659Y-99620870D01*
X134027333Y-99568000D01*
X133832895Y-99394072D01*
X133710412Y-99246184D01*
X133688667Y-99190549D01*
X133727692Y-99057888D01*
X133827280Y-98840220D01*
X133901562Y-98700416D01*
X134003601Y-98530003D01*
X134109114Y-98404735D01*
X134253274Y-98302265D01*
X134471256Y-98200244D01*
X134798232Y-98076322D01*
X134994550Y-98005945D01*
X135874642Y-97692384D01*
X136865450Y-98254885D01*
X137341027Y-98522725D01*
X137695163Y-98714582D01*
X137952390Y-98840292D01*
X138137243Y-98909689D01*
X138274257Y-98932609D01*
X138387964Y-98918886D01*
X138461605Y-98894745D01*
X138640303Y-98746951D01*
X138732773Y-98515141D01*
X138712904Y-98273599D01*
X138694288Y-98232763D01*
X138596009Y-98144995D01*
X138372003Y-97992614D01*
X138046681Y-97789313D01*
X137644457Y-97548784D01*
X137189742Y-97284719D01*
X136706950Y-97010812D01*
X136220491Y-96740755D01*
X135754779Y-96488241D01*
X135334226Y-96266961D01*
X134983243Y-96090610D01*
X134726245Y-95972879D01*
X134587643Y-95927461D01*
X134583979Y-95927333D01*
X134372274Y-96001572D01*
X134197330Y-96184386D01*
X134113400Y-96415924D01*
X134112000Y-96448008D01*
X134173436Y-96586330D01*
X134328154Y-96765070D01*
X134408719Y-96836919D01*
X134705437Y-97081500D01*
X134241551Y-97227727D01*
X133757199Y-97436239D01*
X133374818Y-97738678D01*
X133052034Y-98170004D01*
X133007150Y-98246215D01*
X132807218Y-98728581D01*
X132748913Y-99206863D01*
X132748913Y-99206863D01*
G36*
X134903963Y-91179069D02*
X134909290Y-91384386D01*
X134978130Y-91483891D01*
X135153085Y-91689318D01*
X135420938Y-91986450D01*
X135768470Y-92361072D01*
X136182463Y-92798966D01*
X136649698Y-93285916D01*
X137100229Y-93749352D01*
X137100229Y-92236075D01*
X137101128Y-92232650D01*
X137189033Y-92238526D01*
X137402971Y-92274507D01*
X137704038Y-92332362D01*
X138053330Y-92403858D01*
X138411945Y-92480762D01*
X138740977Y-92554842D01*
X139001525Y-92617865D01*
X139154683Y-92661600D01*
X139177355Y-92672004D01*
X139151667Y-92750476D01*
X139058652Y-92937851D01*
X138916943Y-93197141D01*
X138881022Y-93260266D01*
X138557000Y-93825711D01*
X137810550Y-93047694D01*
X137532899Y-92752733D01*
X137308024Y-92503131D01*
X137156833Y-92322906D01*
X137100229Y-92236075D01*
X137100229Y-93749352D01*
X137156958Y-93807707D01*
X137265990Y-93919012D01*
X137875094Y-94538986D01*
X138378222Y-95046779D01*
X138787491Y-95451571D01*
X139115017Y-95762541D01*
X139372915Y-95988868D01*
X139573302Y-96139732D01*
X139728293Y-96224311D01*
X139850005Y-96251784D01*
X139950553Y-96231332D01*
X140042054Y-96172133D01*
X140130671Y-96089329D01*
X140250638Y-95900284D01*
X140244771Y-95682905D01*
X140106789Y-95419453D01*
X139830412Y-95092192D01*
X139747349Y-95006777D01*
X139296380Y-94551887D01*
X139716571Y-93821443D01*
X139902776Y-93502807D01*
X140063135Y-93237655D01*
X140175641Y-93061894D01*
X140211538Y-93013742D01*
X140332266Y-92991041D01*
X140583663Y-93013688D01*
X140934073Y-93078820D01*
X140936224Y-93079292D01*
X141271416Y-93148710D01*
X141488070Y-93177346D01*
X141631839Y-93165835D01*
X141748376Y-93114811D01*
X141786067Y-93091097D01*
X141944504Y-92898588D01*
X141983263Y-92651074D01*
X141897499Y-92417695D01*
X141837833Y-92352728D01*
X141720847Y-92302626D01*
X141461083Y-92222541D01*
X141080762Y-92117655D01*
X140602104Y-91993147D01*
X140047330Y-91854198D01*
X139438659Y-91705988D01*
X138798312Y-91553699D01*
X138148508Y-91402510D01*
X137511469Y-91257602D01*
X136909413Y-91124155D01*
X136364562Y-91007351D01*
X135899134Y-90912369D01*
X135535351Y-90844390D01*
X135295433Y-90808595D01*
X135207020Y-90806792D01*
X135010420Y-90948111D01*
X134903963Y-91179069D01*
X134903963Y-91179069D01*
X134903963Y-91179069D01*
G37*
X134903963Y-91179069D02*
X134909290Y-91384386D01*
X134978130Y-91483891D01*
X135153085Y-91689318D01*
X135420938Y-91986450D01*
X135768470Y-92361072D01*
X136182463Y-92798966D01*
X136649698Y-93285916D01*
X137100229Y-93749352D01*
X137100229Y-92236075D01*
X137101128Y-92232650D01*
X137189033Y-92238526D01*
X137402971Y-92274507D01*
X137704038Y-92332362D01*
X138053330Y-92403858D01*
X138411945Y-92480762D01*
X138740977Y-92554842D01*
X139001525Y-92617865D01*
X139154683Y-92661600D01*
X139177355Y-92672004D01*
X139151667Y-92750476D01*
X139058652Y-92937851D01*
X138916943Y-93197141D01*
X138881022Y-93260266D01*
X138557000Y-93825711D01*
X137810550Y-93047694D01*
X137532899Y-92752733D01*
X137308024Y-92503131D01*
X137156833Y-92322906D01*
X137100229Y-92236075D01*
X137100229Y-93749352D01*
X137156958Y-93807707D01*
X137265990Y-93919012D01*
X137875094Y-94538986D01*
X138378222Y-95046779D01*
X138787491Y-95451571D01*
X139115017Y-95762541D01*
X139372915Y-95988868D01*
X139573302Y-96139732D01*
X139728293Y-96224311D01*
X139850005Y-96251784D01*
X139950553Y-96231332D01*
X140042054Y-96172133D01*
X140130671Y-96089329D01*
X140250638Y-95900284D01*
X140244771Y-95682905D01*
X140106789Y-95419453D01*
X139830412Y-95092192D01*
X139747349Y-95006777D01*
X139296380Y-94551887D01*
X139716571Y-93821443D01*
X139902776Y-93502807D01*
X140063135Y-93237655D01*
X140175641Y-93061894D01*
X140211538Y-93013742D01*
X140332266Y-92991041D01*
X140583663Y-93013688D01*
X140934073Y-93078820D01*
X140936224Y-93079292D01*
X141271416Y-93148710D01*
X141488070Y-93177346D01*
X141631839Y-93165835D01*
X141748376Y-93114811D01*
X141786067Y-93091097D01*
X141944504Y-92898588D01*
X141983263Y-92651074D01*
X141897499Y-92417695D01*
X141837833Y-92352728D01*
X141720847Y-92302626D01*
X141461083Y-92222541D01*
X141080762Y-92117655D01*
X140602104Y-91993147D01*
X140047330Y-91854198D01*
X139438659Y-91705988D01*
X138798312Y-91553699D01*
X138148508Y-91402510D01*
X137511469Y-91257602D01*
X136909413Y-91124155D01*
X136364562Y-91007351D01*
X135899134Y-90912369D01*
X135535351Y-90844390D01*
X135295433Y-90808595D01*
X135207020Y-90806792D01*
X135010420Y-90948111D01*
X134903963Y-91179069D01*
X134903963Y-91179069D01*
G36*
X139452171Y-87252370D02*
X139469392Y-87524435D01*
X139472078Y-87556666D01*
X139539874Y-88030656D01*
X139670693Y-88399150D01*
X139891597Y-88703178D01*
X140229649Y-88983771D01*
X140456776Y-89128615D01*
X140456776Y-87462210D01*
X140464265Y-87222938D01*
X140539285Y-86990092D01*
X140694984Y-86693151D01*
X140711322Y-86664510D01*
X140909212Y-86356332D01*
X141101751Y-86157682D01*
X141339069Y-86018100D01*
X141365261Y-86006302D01*
X141667281Y-85901260D01*
X141903413Y-85906778D01*
X142141358Y-86029360D01*
X142221446Y-86088567D01*
X142414558Y-86237669D01*
X141809318Y-87311473D01*
X141204078Y-88385278D01*
X140879258Y-88219567D01*
X140643612Y-88063208D01*
X140527268Y-87874024D01*
X140503672Y-87778428D01*
X140456776Y-87462210D01*
X140456776Y-89128615D01*
X140546771Y-89186008D01*
X140967686Y-89416988D01*
X141283722Y-89540905D01*
X141517347Y-89562306D01*
X141691031Y-89485739D01*
X141748353Y-89429167D01*
X141832056Y-89306387D01*
X141979934Y-89064321D01*
X142174749Y-88732158D01*
X142399265Y-88339091D01*
X142535766Y-88095667D01*
X142765947Y-87685001D01*
X142972117Y-87322091D01*
X143138204Y-87034851D01*
X143248135Y-86851196D01*
X143280431Y-86802364D01*
X143395367Y-86751169D01*
X143521839Y-86836446D01*
X143635518Y-87029175D01*
X143712077Y-87300337D01*
X143715371Y-87321193D01*
X143730764Y-87473846D01*
X143719133Y-87619370D01*
X143668656Y-87788566D01*
X143567514Y-88012234D01*
X143403887Y-88321174D01*
X143173883Y-88732167D01*
X142885615Y-89264033D01*
X142693538Y-89675832D01*
X142593480Y-89983886D01*
X142581273Y-90204517D01*
X142652748Y-90354047D01*
X142742434Y-90421021D01*
X143020161Y-90503819D01*
X143261828Y-90426064D01*
X143449872Y-90233500D01*
X143568659Y-90053885D01*
X143745098Y-89764499D01*
X143955962Y-89404342D01*
X144178027Y-89012415D01*
X144191991Y-88987319D01*
X144457172Y-88485373D01*
X144631129Y-88080755D01*
X144721700Y-87733457D01*
X144736720Y-87403472D01*
X144684027Y-87050793D01*
X144620224Y-86801184D01*
X144519550Y-86533843D01*
X144365553Y-86297250D01*
X144134706Y-86069830D01*
X143803480Y-85830009D01*
X143348346Y-85556212D01*
X143129000Y-85433817D01*
X142616756Y-85168773D01*
X142202865Y-84999890D01*
X141851000Y-84920688D01*
X141524832Y-84924691D01*
X141188032Y-85005419D01*
X141035214Y-85060435D01*
X140663037Y-85233437D01*
X140367581Y-85449989D01*
X140110934Y-85747186D01*
X139855184Y-86162125D01*
X139794418Y-86274507D01*
X139620435Y-86608821D01*
X139514317Y-86847767D01*
X139462687Y-87044548D01*
X139452171Y-87252370D01*
X139452171Y-87252370D01*
X139452171Y-87252370D01*
G37*
X139452171Y-87252370D02*
X139469392Y-87524435D01*
X139472078Y-87556666D01*
X139539874Y-88030656D01*
X139670693Y-88399150D01*
X139891597Y-88703178D01*
X140229649Y-88983771D01*
X140456776Y-89128615D01*
X140456776Y-87462210D01*
X140464265Y-87222938D01*
X140539285Y-86990092D01*
X140694984Y-86693151D01*
X140711322Y-86664510D01*
X140909212Y-86356332D01*
X141101751Y-86157682D01*
X141339069Y-86018100D01*
X141365261Y-86006302D01*
X141667281Y-85901260D01*
X141903413Y-85906778D01*
X142141358Y-86029360D01*
X142221446Y-86088567D01*
X142414558Y-86237669D01*
X141809318Y-87311473D01*
X141204078Y-88385278D01*
X140879258Y-88219567D01*
X140643612Y-88063208D01*
X140527268Y-87874024D01*
X140503672Y-87778428D01*
X140456776Y-87462210D01*
X140456776Y-89128615D01*
X140546771Y-89186008D01*
X140967686Y-89416988D01*
X141283722Y-89540905D01*
X141517347Y-89562306D01*
X141691031Y-89485739D01*
X141748353Y-89429167D01*
X141832056Y-89306387D01*
X141979934Y-89064321D01*
X142174749Y-88732158D01*
X142399265Y-88339091D01*
X142535766Y-88095667D01*
X142765947Y-87685001D01*
X142972117Y-87322091D01*
X143138204Y-87034851D01*
X143248135Y-86851196D01*
X143280431Y-86802364D01*
X143395367Y-86751169D01*
X143521839Y-86836446D01*
X143635518Y-87029175D01*
X143712077Y-87300337D01*
X143715371Y-87321193D01*
X143730764Y-87473846D01*
X143719133Y-87619370D01*
X143668656Y-87788566D01*
X143567514Y-88012234D01*
X143403887Y-88321174D01*
X143173883Y-88732167D01*
X142885615Y-89264033D01*
X142693538Y-89675832D01*
X142593480Y-89983886D01*
X142581273Y-90204517D01*
X142652748Y-90354047D01*
X142742434Y-90421021D01*
X143020161Y-90503819D01*
X143261828Y-90426064D01*
X143449872Y-90233500D01*
X143568659Y-90053885D01*
X143745098Y-89764499D01*
X143955962Y-89404342D01*
X144178027Y-89012415D01*
X144191991Y-88987319D01*
X144457172Y-88485373D01*
X144631129Y-88080755D01*
X144721700Y-87733457D01*
X144736720Y-87403472D01*
X144684027Y-87050793D01*
X144620224Y-86801184D01*
X144519550Y-86533843D01*
X144365553Y-86297250D01*
X144134706Y-86069830D01*
X143803480Y-85830009D01*
X143348346Y-85556212D01*
X143129000Y-85433817D01*
X142616756Y-85168773D01*
X142202865Y-84999890D01*
X141851000Y-84920688D01*
X141524832Y-84924691D01*
X141188032Y-85005419D01*
X141035214Y-85060435D01*
X140663037Y-85233437D01*
X140367581Y-85449989D01*
X140110934Y-85747186D01*
X139855184Y-86162125D01*
X139794418Y-86274507D01*
X139620435Y-86608821D01*
X139514317Y-86847767D01*
X139462687Y-87044548D01*
X139452171Y-87252370D01*
X139452171Y-87252370D01*
G36*
X140394380Y-81494528D02*
X140394792Y-81495014D01*
X140493421Y-81561117D01*
X140720492Y-81696586D01*
X141055950Y-81890328D01*
X141479742Y-82131249D01*
X141971812Y-82408258D01*
X142512106Y-82710262D01*
X143080570Y-83026168D01*
X143657150Y-83344884D01*
X144221790Y-83655318D01*
X144754438Y-83946376D01*
X145235038Y-84206966D01*
X145643536Y-84425997D01*
X145959878Y-84592374D01*
X146164009Y-84695007D01*
X146231681Y-84723533D01*
X146472453Y-84705862D01*
X146633847Y-84590819D01*
X146746531Y-84463045D01*
X146807287Y-84342581D01*
X146804665Y-84219226D01*
X146727215Y-84082780D01*
X146563484Y-83923043D01*
X146302023Y-83729812D01*
X145931381Y-83492888D01*
X145440107Y-83202068D01*
X144816750Y-82847153D01*
X144438009Y-82634667D01*
X143884903Y-82323641D01*
X143382833Y-82038179D01*
X142950028Y-81788896D01*
X142604717Y-81586409D01*
X142365131Y-81441331D01*
X142249499Y-81364279D01*
X142241649Y-81355658D01*
X142316788Y-81313565D01*
X142512798Y-81278366D01*
X142781266Y-81252805D01*
X143073779Y-81239628D01*
X143341926Y-81241579D01*
X143537294Y-81261401D01*
X143592902Y-81279055D01*
X143856162Y-81350060D01*
X144087119Y-81295717D01*
X144262271Y-81151021D01*
X144358116Y-80950967D01*
X144351151Y-80730550D01*
X144217874Y-80524765D01*
X144139918Y-80464551D01*
X144034016Y-80351609D01*
X143893081Y-80146468D01*
X143740166Y-79891018D01*
X143598323Y-79627151D01*
X143490604Y-79396758D01*
X143440060Y-79241731D01*
X143445751Y-79203076D01*
X143522088Y-79238317D01*
X143726809Y-79346878D01*
X144041089Y-79518394D01*
X144446104Y-79742500D01*
X144923029Y-80008832D01*
X145453038Y-80307023D01*
X145542000Y-80357275D01*
X146211594Y-80735611D01*
X146749808Y-81038174D01*
X147172854Y-81272198D01*
X147496948Y-81444914D01*
X147738301Y-81563555D01*
X147913129Y-81635353D01*
X148037645Y-81667540D01*
X148128062Y-81667348D01*
X148200595Y-81642009D01*
X148271456Y-81598757D01*
X148293167Y-81584446D01*
X148460376Y-81388053D01*
X148504079Y-81139651D01*
X148418740Y-80903972D01*
X148357167Y-80836299D01*
X148260969Y-80773895D01*
X148037249Y-80639938D01*
X147706080Y-80445881D01*
X147287534Y-80203174D01*
X146801686Y-79923268D01*
X146268608Y-79617614D01*
X145708373Y-79297663D01*
X145141055Y-78974866D01*
X144586725Y-78660675D01*
X144065458Y-78366538D01*
X143597325Y-78103909D01*
X143202402Y-77884238D01*
X142900759Y-77718976D01*
X142773583Y-77651057D01*
X142668679Y-77611406D01*
X142579712Y-77638555D01*
X142476390Y-77758121D01*
X142328424Y-77995724D01*
X142291145Y-78059089D01*
X141994790Y-78564741D01*
X142376330Y-79381214D01*
X142528847Y-79718483D01*
X142644632Y-79995723D01*
X142710406Y-80179710D01*
X142718414Y-80237142D01*
X142622841Y-80261485D01*
X142395740Y-80296171D01*
X142074201Y-80336013D01*
X141800431Y-80365450D01*
X140921903Y-80454303D01*
X140642452Y-80958763D01*
X140507020Y-81215269D01*
X140418068Y-81407414D01*
X140394380Y-81494528D01*
X140394380Y-81494528D01*
X140394380Y-81494528D01*
G37*
X140394380Y-81494528D02*
X140394792Y-81495014D01*
X140493421Y-81561117D01*
X140720492Y-81696586D01*
X141055950Y-81890328D01*
X141479742Y-82131249D01*
X141971812Y-82408258D01*
X142512106Y-82710262D01*
X143080570Y-83026168D01*
X143657150Y-83344884D01*
X144221790Y-83655318D01*
X144754438Y-83946376D01*
X145235038Y-84206966D01*
X145643536Y-84425997D01*
X145959878Y-84592374D01*
X146164009Y-84695007D01*
X146231681Y-84723533D01*
X146472453Y-84705862D01*
X146633847Y-84590819D01*
X146746531Y-84463045D01*
X146807287Y-84342581D01*
X146804665Y-84219226D01*
X146727215Y-84082780D01*
X146563484Y-83923043D01*
X146302023Y-83729812D01*
X145931381Y-83492888D01*
X145440107Y-83202068D01*
X144816750Y-82847153D01*
X144438009Y-82634667D01*
X143884903Y-82323641D01*
X143382833Y-82038179D01*
X142950028Y-81788896D01*
X142604717Y-81586409D01*
X142365131Y-81441331D01*
X142249499Y-81364279D01*
X142241649Y-81355658D01*
X142316788Y-81313565D01*
X142512798Y-81278366D01*
X142781266Y-81252805D01*
X143073779Y-81239628D01*
X143341926Y-81241579D01*
X143537294Y-81261401D01*
X143592902Y-81279055D01*
X143856162Y-81350060D01*
X144087119Y-81295717D01*
X144262271Y-81151021D01*
X144358116Y-80950967D01*
X144351151Y-80730550D01*
X144217874Y-80524765D01*
X144139918Y-80464551D01*
X144034016Y-80351609D01*
X143893081Y-80146468D01*
X143740166Y-79891018D01*
X143598323Y-79627151D01*
X143490604Y-79396758D01*
X143440060Y-79241731D01*
X143445751Y-79203076D01*
X143522088Y-79238317D01*
X143726809Y-79346878D01*
X144041089Y-79518394D01*
X144446104Y-79742500D01*
X144923029Y-80008832D01*
X145453038Y-80307023D01*
X145542000Y-80357275D01*
X146211594Y-80735611D01*
X146749808Y-81038174D01*
X147172854Y-81272198D01*
X147496948Y-81444914D01*
X147738301Y-81563555D01*
X147913129Y-81635353D01*
X148037645Y-81667540D01*
X148128062Y-81667348D01*
X148200595Y-81642009D01*
X148271456Y-81598757D01*
X148293167Y-81584446D01*
X148460376Y-81388053D01*
X148504079Y-81139651D01*
X148418740Y-80903972D01*
X148357167Y-80836299D01*
X148260969Y-80773895D01*
X148037249Y-80639938D01*
X147706080Y-80445881D01*
X147287534Y-80203174D01*
X146801686Y-79923268D01*
X146268608Y-79617614D01*
X145708373Y-79297663D01*
X145141055Y-78974866D01*
X144586725Y-78660675D01*
X144065458Y-78366538D01*
X143597325Y-78103909D01*
X143202402Y-77884238D01*
X142900759Y-77718976D01*
X142773583Y-77651057D01*
X142668679Y-77611406D01*
X142579712Y-77638555D01*
X142476390Y-77758121D01*
X142328424Y-77995724D01*
X142291145Y-78059089D01*
X141994790Y-78564741D01*
X142376330Y-79381214D01*
X142528847Y-79718483D01*
X142644632Y-79995723D01*
X142710406Y-80179710D01*
X142718414Y-80237142D01*
X142622841Y-80261485D01*
X142395740Y-80296171D01*
X142074201Y-80336013D01*
X141800431Y-80365450D01*
X140921903Y-80454303D01*
X140642452Y-80958763D01*
X140507020Y-81215269D01*
X140418068Y-81407414D01*
X140394380Y-81494528D01*
X140394380Y-81494528D01*
%LPC*%
D11*
X104648000Y-114554000D03*
X107188000Y-114554000D03*
X109728000Y-114554000D03*
X112268000Y-114554000D03*
X114808000Y-114554000D03*
X117348000Y-114554000D03*
X119888000Y-114554000D03*
D12*
X122428000Y-114554000D03*
D13*
X177038000Y-85344000D03*
D14*
X174498000Y-85344000D03*
X171958000Y-85344000D03*
X169418000Y-85344000D03*
X166878000Y-85344000D03*
X164338000Y-85344000D03*
X161798000Y-85344000D03*
X159258000Y-85344000D03*
X156718000Y-85344000D03*
X154178000Y-85344000D03*
X151638000Y-85344000D03*
X149098000Y-85344000D03*
X149098000Y-100584000D03*
X151638000Y-100584000D03*
X154178000Y-100584000D03*
X156718000Y-100584000D03*
X159258000Y-100584000D03*
X161798000Y-100584000D03*
X164338000Y-100584000D03*
X166878000Y-100584000D03*
X169418000Y-100584000D03*
X171958000Y-100584000D03*
X174498000Y-100584000D03*
X177038000Y-100584000D03*
D15*
X130048000Y-125984000D03*
D16*
X130048000Y-123444000D03*
X132588000Y-125984000D03*
X132588000Y-123444000D03*
X135128000Y-125984000D03*
X135128000Y-123444000D03*
X137668000Y-125984000D03*
X137668000Y-123444000D03*
X140208000Y-125984000D03*
X140208000Y-123444000D03*
D17*
X97028000Y-124714000D03*
D18*
X97028000Y-118618000D03*
D17*
X102108000Y-122428000D03*
D19*
X142748000Y-75184000D03*
D20*
X142748000Y-77724000D03*
X142748000Y-80264000D03*
D19*
X147828000Y-75184000D03*
D20*
X147828000Y-77724000D03*
X147828000Y-80264000D03*
D19*
X152908000Y-75184000D03*
D20*
X152908000Y-77724000D03*
X152908000Y-80264000D03*
D19*
X137668000Y-75184000D03*
D20*
X137668000Y-77724000D03*
X137668000Y-80264000D03*
D21*
X171528000Y-127324000D03*
X171528000Y-125324000D03*
X171528000Y-123324000D03*
X171528000Y-121324000D03*
X171528000Y-119324000D03*
X171528000Y-117324000D03*
X171528000Y-115324000D03*
X171528000Y-113324000D03*
X171528000Y-111324000D03*
X171528000Y-109324000D03*
X149528000Y-109324000D03*
X149528000Y-111324000D03*
X149528000Y-113324000D03*
X149528000Y-115324000D03*
X149528000Y-117324000D03*
X149528000Y-119324000D03*
X149528000Y-121324000D03*
X149528000Y-123324000D03*
X149528000Y-125324000D03*
X149528000Y-127324000D03*
M02*
