G04 #@! TF.FileFunction,Soldermask,Bot*
%FSLAX46Y46*%
G04 Gerber Fmt 4.6, Leading zero omitted, Abs format (unit mm)*
G04 Created by KiCad (PCBNEW (2015-01-16 BZR 5376)-product) date 26/03/2015 09:41:38*
%MOMM*%
G01*
G04 APERTURE LIST*
%ADD10C,0.100000*%
%ADD11C,2.000000*%
%ADD12R,2.000000X2.000000*%
%ADD13R,1.574800X2.286000*%
%ADD14O,1.574800X2.286000*%
%ADD15R,1.727200X1.727200*%
%ADD16O,1.727200X1.727200*%
%ADD17C,4.800600*%
%ADD18R,4.800600X4.800600*%
%ADD19R,2.032000X1.727200*%
%ADD20O,2.032000X1.727200*%
%ADD21C,1.500000*%
G04 APERTURE END LIST*
D10*
D11*
X104648000Y-114554000D03*
X107188000Y-114554000D03*
X109728000Y-114554000D03*
X112268000Y-114554000D03*
X114808000Y-114554000D03*
X117348000Y-114554000D03*
X119888000Y-114554000D03*
D12*
X122428000Y-114554000D03*
D13*
X177038000Y-85344000D03*
D14*
X174498000Y-85344000D03*
X171958000Y-85344000D03*
X169418000Y-85344000D03*
X166878000Y-85344000D03*
X164338000Y-85344000D03*
X161798000Y-85344000D03*
X159258000Y-85344000D03*
X156718000Y-85344000D03*
X154178000Y-85344000D03*
X151638000Y-85344000D03*
X149098000Y-85344000D03*
X149098000Y-100584000D03*
X151638000Y-100584000D03*
X154178000Y-100584000D03*
X156718000Y-100584000D03*
X159258000Y-100584000D03*
X161798000Y-100584000D03*
X164338000Y-100584000D03*
X166878000Y-100584000D03*
X169418000Y-100584000D03*
X171958000Y-100584000D03*
X174498000Y-100584000D03*
X177038000Y-100584000D03*
D15*
X130048000Y-125984000D03*
D16*
X130048000Y-123444000D03*
X132588000Y-125984000D03*
X132588000Y-123444000D03*
X135128000Y-125984000D03*
X135128000Y-123444000D03*
X137668000Y-125984000D03*
X137668000Y-123444000D03*
X140208000Y-125984000D03*
X140208000Y-123444000D03*
D17*
X97028000Y-124714000D03*
D18*
X97028000Y-118618000D03*
D17*
X102108000Y-122428000D03*
D19*
X142748000Y-75184000D03*
D20*
X142748000Y-77724000D03*
X142748000Y-80264000D03*
D19*
X147828000Y-75184000D03*
D20*
X147828000Y-77724000D03*
X147828000Y-80264000D03*
D19*
X152908000Y-75184000D03*
D20*
X152908000Y-77724000D03*
X152908000Y-80264000D03*
D19*
X137668000Y-75184000D03*
D20*
X137668000Y-77724000D03*
X137668000Y-80264000D03*
D21*
X171528000Y-127324000D03*
X171528000Y-125324000D03*
X171528000Y-123324000D03*
X171528000Y-121324000D03*
X171528000Y-119324000D03*
X171528000Y-117324000D03*
X171528000Y-115324000D03*
X171528000Y-113324000D03*
X171528000Y-111324000D03*
X171528000Y-109324000D03*
X149528000Y-109324000D03*
X149528000Y-111324000D03*
X149528000Y-113324000D03*
X149528000Y-115324000D03*
X149528000Y-117324000D03*
X149528000Y-119324000D03*
X149528000Y-121324000D03*
X149528000Y-123324000D03*
X149528000Y-125324000D03*
X149528000Y-127324000D03*
M02*
