G04 #@! TF.FileFunction,Legend,Top*
%FSLAX46Y46*%
G04 Gerber Fmt 4.6, Leading zero omitted, Abs format (unit mm)*
G04 Created by KiCad (PCBNEW (2015-01-16 BZR 5376)-product) date 26/03/2015 09:41:38*
%MOMM*%
G01*
G04 APERTURE LIST*
%ADD10C,0.100000*%
%ADD11C,0.300000*%
%ADD12C,0.150000*%
%ADD13R,1.524000X2.032000*%
%ADD14R,3.302000X1.270000*%
%ADD15R,2.032000X1.524000*%
%ADD16R,1.000000X8.000000*%
%ADD17C,2.000000*%
%ADD18R,2.000000X2.000000*%
%ADD19R,1.574800X2.286000*%
%ADD20O,1.574800X2.286000*%
%ADD21R,1.727200X1.727200*%
%ADD22O,1.727200X1.727200*%
%ADD23C,4.800600*%
%ADD24R,4.800600X4.800600*%
%ADD25R,1.270000X0.406400*%
%ADD26R,2.000000X1.200000*%
%ADD27R,2.032000X3.657600*%
%ADD28R,2.032000X1.016000*%
%ADD29R,2.032000X1.727200*%
%ADD30O,2.032000X1.727200*%
%ADD31C,1.500000*%
G04 APERTURE END LIST*
D10*
D11*
X108773144Y-83298571D02*
X108773144Y-81798571D01*
X109273144Y-82870000D01*
X109773144Y-81798571D01*
X109773144Y-83298571D01*
X111058858Y-83227143D02*
X110916001Y-83298571D01*
X110630287Y-83298571D01*
X110487430Y-83227143D01*
X110416001Y-83084286D01*
X110416001Y-82512857D01*
X110487430Y-82370000D01*
X110630287Y-82298571D01*
X110916001Y-82298571D01*
X111058858Y-82370000D01*
X111130287Y-82512857D01*
X111130287Y-82655714D01*
X110416001Y-82798571D01*
X112273144Y-82512857D02*
X112487430Y-82584286D01*
X112558858Y-82655714D01*
X112630287Y-82798571D01*
X112630287Y-83012857D01*
X112558858Y-83155714D01*
X112487430Y-83227143D01*
X112344572Y-83298571D01*
X111773144Y-83298571D01*
X111773144Y-81798571D01*
X112273144Y-81798571D01*
X112416001Y-81870000D01*
X112487430Y-81941429D01*
X112558858Y-82084286D01*
X112558858Y-82227143D01*
X112487430Y-82370000D01*
X112416001Y-82441429D01*
X112273144Y-82512857D01*
X111773144Y-82512857D01*
X113273144Y-83298571D02*
X113273144Y-82298571D01*
X113273144Y-82584286D02*
X113344572Y-82441429D01*
X113416001Y-82370000D01*
X113558858Y-82298571D01*
X113701715Y-82298571D01*
X114844572Y-83298571D02*
X114844572Y-82512857D01*
X114773143Y-82370000D01*
X114630286Y-82298571D01*
X114344572Y-82298571D01*
X114201715Y-82370000D01*
X114844572Y-83227143D02*
X114701715Y-83298571D01*
X114344572Y-83298571D01*
X114201715Y-83227143D01*
X114130286Y-83084286D01*
X114130286Y-82941429D01*
X114201715Y-82798571D01*
X114344572Y-82727143D01*
X114701715Y-82727143D01*
X114844572Y-82655714D01*
X115558858Y-83298571D02*
X115558858Y-82298571D01*
X115558858Y-81798571D02*
X115487429Y-81870000D01*
X115558858Y-81941429D01*
X115630286Y-81870000D01*
X115558858Y-81798571D01*
X115558858Y-81941429D01*
X116273144Y-82298571D02*
X116273144Y-83298571D01*
X116273144Y-82441429D02*
X116344572Y-82370000D01*
X116487430Y-82298571D01*
X116701715Y-82298571D01*
X116844572Y-82370000D01*
X116916001Y-82512857D01*
X116916001Y-83298571D01*
X118773144Y-83298571D02*
X118773144Y-81798571D01*
X119344572Y-81798571D01*
X119487430Y-81870000D01*
X119558858Y-81941429D01*
X119630287Y-82084286D01*
X119630287Y-82298571D01*
X119558858Y-82441429D01*
X119487430Y-82512857D01*
X119344572Y-82584286D01*
X118773144Y-82584286D01*
X120273144Y-83298571D02*
X120273144Y-82298571D01*
X120273144Y-82584286D02*
X120344572Y-82441429D01*
X120416001Y-82370000D01*
X120558858Y-82298571D01*
X120701715Y-82298571D01*
X121416001Y-83298571D02*
X121273143Y-83227143D01*
X121201715Y-83155714D01*
X121130286Y-83012857D01*
X121130286Y-82584286D01*
X121201715Y-82441429D01*
X121273143Y-82370000D01*
X121416001Y-82298571D01*
X121630286Y-82298571D01*
X121773143Y-82370000D01*
X121844572Y-82441429D01*
X121916001Y-82584286D01*
X121916001Y-83012857D01*
X121844572Y-83155714D01*
X121773143Y-83227143D01*
X121630286Y-83298571D01*
X121416001Y-83298571D01*
X122344572Y-82298571D02*
X122916001Y-82298571D01*
X122558858Y-81798571D02*
X122558858Y-83084286D01*
X122630286Y-83227143D01*
X122773144Y-83298571D01*
X122916001Y-83298571D01*
X123630287Y-83298571D02*
X123487429Y-83227143D01*
X123416001Y-83155714D01*
X123344572Y-83012857D01*
X123344572Y-82584286D01*
X123416001Y-82441429D01*
X123487429Y-82370000D01*
X123630287Y-82298571D01*
X123844572Y-82298571D01*
X123987429Y-82370000D01*
X124058858Y-82441429D01*
X124130287Y-82584286D01*
X124130287Y-83012857D01*
X124058858Y-83155714D01*
X123987429Y-83227143D01*
X123844572Y-83298571D01*
X123630287Y-83298571D01*
X124558858Y-82298571D02*
X125130287Y-82298571D01*
X124773144Y-81798571D02*
X124773144Y-83084286D01*
X124844572Y-83227143D01*
X124987430Y-83298571D01*
X125130287Y-83298571D01*
X125487430Y-82298571D02*
X125844573Y-83298571D01*
X126201715Y-82298571D02*
X125844573Y-83298571D01*
X125701715Y-83655714D01*
X125630287Y-83727143D01*
X125487430Y-83798571D01*
X126773144Y-82298571D02*
X126773144Y-83798571D01*
X126773144Y-82370000D02*
X126916001Y-82298571D01*
X127201715Y-82298571D01*
X127344572Y-82370000D01*
X127416001Y-82441429D01*
X127487430Y-82584286D01*
X127487430Y-83012857D01*
X127416001Y-83155714D01*
X127344572Y-83227143D01*
X127201715Y-83298571D01*
X126916001Y-83298571D01*
X126773144Y-83227143D01*
X128701715Y-83227143D02*
X128558858Y-83298571D01*
X128273144Y-83298571D01*
X128130287Y-83227143D01*
X128058858Y-83084286D01*
X128058858Y-82512857D01*
X128130287Y-82370000D01*
X128273144Y-82298571D01*
X128558858Y-82298571D01*
X128701715Y-82370000D01*
X128773144Y-82512857D01*
X128773144Y-82655714D01*
X128058858Y-82798571D01*
X130416001Y-82298571D02*
X130773144Y-83298571D01*
X131130286Y-82298571D01*
X131630286Y-81941429D02*
X131701715Y-81870000D01*
X131844572Y-81798571D01*
X132201715Y-81798571D01*
X132344572Y-81870000D01*
X132416001Y-81941429D01*
X132487429Y-82084286D01*
X132487429Y-82227143D01*
X132416001Y-82441429D01*
X131558858Y-83298571D01*
X132487429Y-83298571D01*
X133130286Y-83155714D02*
X133201714Y-83227143D01*
X133130286Y-83298571D01*
X133058857Y-83227143D01*
X133130286Y-83155714D01*
X133130286Y-83298571D01*
X134130286Y-81798571D02*
X134273143Y-81798571D01*
X134416000Y-81870000D01*
X134487429Y-81941429D01*
X134558858Y-82084286D01*
X134630286Y-82370000D01*
X134630286Y-82727143D01*
X134558858Y-83012857D01*
X134487429Y-83155714D01*
X134416000Y-83227143D01*
X134273143Y-83298571D01*
X134130286Y-83298571D01*
X133987429Y-83227143D01*
X133916000Y-83155714D01*
X133844572Y-83012857D01*
X133773143Y-82727143D01*
X133773143Y-82370000D01*
X133844572Y-82084286D01*
X133916000Y-81941429D01*
X133987429Y-81870000D01*
X134130286Y-81798571D01*
X97773145Y-84270000D02*
X97630288Y-84198571D01*
X97416002Y-84198571D01*
X97201717Y-84270000D01*
X97058859Y-84412857D01*
X96987431Y-84555714D01*
X96916002Y-84841429D01*
X96916002Y-85055714D01*
X96987431Y-85341429D01*
X97058859Y-85484286D01*
X97201717Y-85627143D01*
X97416002Y-85698571D01*
X97558859Y-85698571D01*
X97773145Y-85627143D01*
X97844574Y-85555714D01*
X97844574Y-85055714D01*
X97558859Y-85055714D01*
X98487431Y-85698571D02*
X98487431Y-84698571D01*
X98487431Y-84984286D02*
X98558859Y-84841429D01*
X98630288Y-84770000D01*
X98773145Y-84698571D01*
X98916002Y-84698571D01*
X99987430Y-85627143D02*
X99844573Y-85698571D01*
X99558859Y-85698571D01*
X99416002Y-85627143D01*
X99344573Y-85484286D01*
X99344573Y-84912857D01*
X99416002Y-84770000D01*
X99558859Y-84698571D01*
X99844573Y-84698571D01*
X99987430Y-84770000D01*
X100058859Y-84912857D01*
X100058859Y-85055714D01*
X99344573Y-85198571D01*
X101344573Y-85698571D02*
X101344573Y-84912857D01*
X101273144Y-84770000D01*
X101130287Y-84698571D01*
X100844573Y-84698571D01*
X100701716Y-84770000D01*
X101344573Y-85627143D02*
X101201716Y-85698571D01*
X100844573Y-85698571D01*
X100701716Y-85627143D01*
X100630287Y-85484286D01*
X100630287Y-85341429D01*
X100701716Y-85198571D01*
X100844573Y-85127143D01*
X101201716Y-85127143D01*
X101344573Y-85055714D01*
X101844573Y-84698571D02*
X102416002Y-84698571D01*
X102058859Y-84198571D02*
X102058859Y-85484286D01*
X102130287Y-85627143D01*
X102273145Y-85698571D01*
X102416002Y-85698571D01*
X104058859Y-85698571D02*
X104058859Y-84698571D01*
X104058859Y-84198571D02*
X103987430Y-84270000D01*
X104058859Y-84341429D01*
X104130287Y-84270000D01*
X104058859Y-84198571D01*
X104058859Y-84341429D01*
X105416002Y-85698571D02*
X105416002Y-84198571D01*
X105416002Y-85627143D02*
X105273145Y-85698571D01*
X104987431Y-85698571D01*
X104844573Y-85627143D01*
X104773145Y-85555714D01*
X104701716Y-85412857D01*
X104701716Y-84984286D01*
X104773145Y-84841429D01*
X104844573Y-84770000D01*
X104987431Y-84698571D01*
X105273145Y-84698571D01*
X105416002Y-84770000D01*
X106701716Y-85627143D02*
X106558859Y-85698571D01*
X106273145Y-85698571D01*
X106130288Y-85627143D01*
X106058859Y-85484286D01*
X106058859Y-84912857D01*
X106130288Y-84770000D01*
X106273145Y-84698571D01*
X106558859Y-84698571D01*
X106701716Y-84770000D01*
X106773145Y-84912857D01*
X106773145Y-85055714D01*
X106058859Y-85198571D01*
X108058859Y-85698571D02*
X108058859Y-84912857D01*
X107987430Y-84770000D01*
X107844573Y-84698571D01*
X107558859Y-84698571D01*
X107416002Y-84770000D01*
X108058859Y-85627143D02*
X107916002Y-85698571D01*
X107558859Y-85698571D01*
X107416002Y-85627143D01*
X107344573Y-85484286D01*
X107344573Y-85341429D01*
X107416002Y-85198571D01*
X107558859Y-85127143D01*
X107916002Y-85127143D01*
X108058859Y-85055714D01*
X108701716Y-85627143D02*
X108844573Y-85698571D01*
X109130288Y-85698571D01*
X109273145Y-85627143D01*
X109344573Y-85484286D01*
X109344573Y-85412857D01*
X109273145Y-85270000D01*
X109130288Y-85198571D01*
X108916002Y-85198571D01*
X108773145Y-85127143D01*
X108701716Y-84984286D01*
X108701716Y-84912857D01*
X108773145Y-84770000D01*
X108916002Y-84698571D01*
X109130288Y-84698571D01*
X109273145Y-84770000D01*
X111058859Y-85627143D02*
X111201716Y-85698571D01*
X111487431Y-85698571D01*
X111630288Y-85627143D01*
X111701716Y-85484286D01*
X111701716Y-85412857D01*
X111630288Y-85270000D01*
X111487431Y-85198571D01*
X111273145Y-85198571D01*
X111130288Y-85127143D01*
X111058859Y-84984286D01*
X111058859Y-84912857D01*
X111130288Y-84770000D01*
X111273145Y-84698571D01*
X111487431Y-84698571D01*
X111630288Y-84770000D01*
X112130288Y-84698571D02*
X112701717Y-84698571D01*
X112344574Y-84198571D02*
X112344574Y-85484286D01*
X112416002Y-85627143D01*
X112558860Y-85698571D01*
X112701717Y-85698571D01*
X113416003Y-85698571D02*
X113273145Y-85627143D01*
X113201717Y-85555714D01*
X113130288Y-85412857D01*
X113130288Y-84984286D01*
X113201717Y-84841429D01*
X113273145Y-84770000D01*
X113416003Y-84698571D01*
X113630288Y-84698571D01*
X113773145Y-84770000D01*
X113844574Y-84841429D01*
X113916003Y-84984286D01*
X113916003Y-85412857D01*
X113844574Y-85555714D01*
X113773145Y-85627143D01*
X113630288Y-85698571D01*
X113416003Y-85698571D01*
X114773146Y-85698571D02*
X114630288Y-85627143D01*
X114558860Y-85484286D01*
X114558860Y-84198571D01*
X115916002Y-85627143D02*
X115773145Y-85698571D01*
X115487431Y-85698571D01*
X115344574Y-85627143D01*
X115273145Y-85484286D01*
X115273145Y-84912857D01*
X115344574Y-84770000D01*
X115487431Y-84698571D01*
X115773145Y-84698571D01*
X115916002Y-84770000D01*
X115987431Y-84912857D01*
X115987431Y-85055714D01*
X115273145Y-85198571D01*
X116630288Y-84698571D02*
X116630288Y-85698571D01*
X116630288Y-84841429D02*
X116701716Y-84770000D01*
X116844574Y-84698571D01*
X117058859Y-84698571D01*
X117201716Y-84770000D01*
X117273145Y-84912857D01*
X117273145Y-85698571D01*
X118916002Y-84698571D02*
X119487431Y-84698571D01*
X119130288Y-85698571D02*
X119130288Y-84412857D01*
X119201716Y-84270000D01*
X119344574Y-84198571D01*
X119487431Y-84198571D01*
X119987431Y-85698571D02*
X119987431Y-84698571D01*
X119987431Y-84984286D02*
X120058859Y-84841429D01*
X120130288Y-84770000D01*
X120273145Y-84698571D01*
X120416002Y-84698571D01*
X121130288Y-85698571D02*
X120987430Y-85627143D01*
X120916002Y-85555714D01*
X120844573Y-85412857D01*
X120844573Y-84984286D01*
X120916002Y-84841429D01*
X120987430Y-84770000D01*
X121130288Y-84698571D01*
X121344573Y-84698571D01*
X121487430Y-84770000D01*
X121558859Y-84841429D01*
X121630288Y-84984286D01*
X121630288Y-85412857D01*
X121558859Y-85555714D01*
X121487430Y-85627143D01*
X121344573Y-85698571D01*
X121130288Y-85698571D01*
X122273145Y-85698571D02*
X122273145Y-84698571D01*
X122273145Y-84841429D02*
X122344573Y-84770000D01*
X122487431Y-84698571D01*
X122701716Y-84698571D01*
X122844573Y-84770000D01*
X122916002Y-84912857D01*
X122916002Y-85698571D01*
X122916002Y-84912857D02*
X122987431Y-84770000D01*
X123130288Y-84698571D01*
X123344573Y-84698571D01*
X123487431Y-84770000D01*
X123558859Y-84912857D01*
X123558859Y-85698571D01*
X125273145Y-84698571D02*
X125630288Y-85698571D01*
X125987430Y-84698571D01*
X127130287Y-85627143D02*
X126987430Y-85698571D01*
X126701716Y-85698571D01*
X126558859Y-85627143D01*
X126487430Y-85484286D01*
X126487430Y-84912857D01*
X126558859Y-84770000D01*
X126701716Y-84698571D01*
X126987430Y-84698571D01*
X127130287Y-84770000D01*
X127201716Y-84912857D01*
X127201716Y-85055714D01*
X126487430Y-85198571D01*
X127844573Y-85698571D02*
X127844573Y-84698571D01*
X127844573Y-84984286D02*
X127916001Y-84841429D01*
X127987430Y-84770000D01*
X128130287Y-84698571D01*
X128273144Y-84698571D01*
X128630287Y-84698571D02*
X128987430Y-85698571D01*
X129344572Y-84698571D02*
X128987430Y-85698571D01*
X128844572Y-86055714D01*
X128773144Y-86127143D01*
X128630287Y-86198571D01*
X131701715Y-85627143D02*
X131558858Y-85698571D01*
X131273144Y-85698571D01*
X131130286Y-85627143D01*
X131058858Y-85555714D01*
X130987429Y-85412857D01*
X130987429Y-84984286D01*
X131058858Y-84841429D01*
X131130286Y-84770000D01*
X131273144Y-84698571D01*
X131558858Y-84698571D01*
X131701715Y-84770000D01*
X132558858Y-85698571D02*
X132416000Y-85627143D01*
X132344572Y-85484286D01*
X132344572Y-84198571D01*
X133701714Y-85627143D02*
X133558857Y-85698571D01*
X133273143Y-85698571D01*
X133130286Y-85627143D01*
X133058857Y-85484286D01*
X133058857Y-84912857D01*
X133130286Y-84770000D01*
X133273143Y-84698571D01*
X133558857Y-84698571D01*
X133701714Y-84770000D01*
X133773143Y-84912857D01*
X133773143Y-85055714D01*
X133058857Y-85198571D01*
X134273143Y-84698571D02*
X134630286Y-85698571D01*
X134987428Y-84698571D01*
X136130285Y-85627143D02*
X135987428Y-85698571D01*
X135701714Y-85698571D01*
X135558857Y-85627143D01*
X135487428Y-85484286D01*
X135487428Y-84912857D01*
X135558857Y-84770000D01*
X135701714Y-84698571D01*
X135987428Y-84698571D01*
X136130285Y-84770000D01*
X136201714Y-84912857D01*
X136201714Y-85055714D01*
X135487428Y-85198571D01*
X136844571Y-85698571D02*
X136844571Y-84698571D01*
X136844571Y-84984286D02*
X136915999Y-84841429D01*
X136987428Y-84770000D01*
X137130285Y-84698571D01*
X137273142Y-84698571D01*
X138915999Y-84698571D02*
X138915999Y-86198571D01*
X138915999Y-84770000D02*
X139058856Y-84698571D01*
X139344570Y-84698571D01*
X139487427Y-84770000D01*
X139558856Y-84841429D01*
X139630285Y-84984286D01*
X139630285Y-85412857D01*
X139558856Y-85555714D01*
X139487427Y-85627143D01*
X139344570Y-85698571D01*
X139058856Y-85698571D01*
X138915999Y-85627143D01*
X140844570Y-85627143D02*
X140701713Y-85698571D01*
X140415999Y-85698571D01*
X140273142Y-85627143D01*
X140201713Y-85484286D01*
X140201713Y-84912857D01*
X140273142Y-84770000D01*
X140415999Y-84698571D01*
X140701713Y-84698571D01*
X140844570Y-84770000D01*
X140915999Y-84912857D01*
X140915999Y-85055714D01*
X140201713Y-85198571D01*
X141773142Y-85698571D02*
X141630284Y-85627143D01*
X141558856Y-85555714D01*
X141487427Y-85412857D01*
X141487427Y-84984286D01*
X141558856Y-84841429D01*
X141630284Y-84770000D01*
X141773142Y-84698571D01*
X141987427Y-84698571D01*
X142130284Y-84770000D01*
X142201713Y-84841429D01*
X142273142Y-84984286D01*
X142273142Y-85412857D01*
X142201713Y-85555714D01*
X142130284Y-85627143D01*
X141987427Y-85698571D01*
X141773142Y-85698571D01*
X142915999Y-84698571D02*
X142915999Y-86198571D01*
X142915999Y-84770000D02*
X143058856Y-84698571D01*
X143344570Y-84698571D01*
X143487427Y-84770000D01*
X143558856Y-84841429D01*
X143630285Y-84984286D01*
X143630285Y-85412857D01*
X143558856Y-85555714D01*
X143487427Y-85627143D01*
X143344570Y-85698571D01*
X143058856Y-85698571D01*
X142915999Y-85627143D01*
X144487428Y-85698571D02*
X144344570Y-85627143D01*
X144273142Y-85484286D01*
X144273142Y-84198571D01*
X145630284Y-85627143D02*
X145487427Y-85698571D01*
X145201713Y-85698571D01*
X145058856Y-85627143D01*
X144987427Y-85484286D01*
X144987427Y-84912857D01*
X145058856Y-84770000D01*
X145201713Y-84698571D01*
X145487427Y-84698571D01*
X145630284Y-84770000D01*
X145701713Y-84912857D01*
X145701713Y-85055714D01*
X144987427Y-85198571D01*
X146344570Y-85555714D02*
X146415998Y-85627143D01*
X146344570Y-85698571D01*
X146273141Y-85627143D01*
X146344570Y-85555714D01*
X146344570Y-85698571D01*
X146344570Y-85127143D02*
X146273141Y-84270000D01*
X146344570Y-84198571D01*
X146415998Y-84270000D01*
X146344570Y-85127143D01*
X146344570Y-84198571D01*
D12*
X167640000Y-94996000D02*
X167386000Y-94996000D01*
X167386000Y-94996000D02*
X167386000Y-97282000D01*
X167386000Y-97282000D02*
X167640000Y-97282000D01*
X167640000Y-94996000D02*
X167640000Y-97282000D01*
X167640000Y-97282000D02*
X169291000Y-97282000D01*
X171069000Y-94996000D02*
X172720000Y-94996000D01*
X172720000Y-94996000D02*
X172720000Y-97282000D01*
X172720000Y-97282000D02*
X171069000Y-97282000D01*
X169291000Y-94996000D02*
X167640000Y-94996000D01*
X95504000Y-104013000D02*
X98552000Y-104013000D01*
X95377000Y-103378000D02*
X93980000Y-103378000D01*
X100076000Y-103378000D02*
X98679000Y-103378000D01*
X100076000Y-110490000D02*
X98806000Y-110490000D01*
X93980000Y-110490000D02*
X95250000Y-110490000D01*
X98679000Y-103378000D02*
X98679000Y-103886000D01*
X98679000Y-103886000D02*
X98044000Y-104521000D01*
X98044000Y-104521000D02*
X96012000Y-104521000D01*
X95377000Y-103378000D02*
X95377000Y-103886000D01*
X95377000Y-103886000D02*
X96012000Y-104521000D01*
X93980000Y-110490000D02*
X93980000Y-103378000D01*
X100076000Y-103378000D02*
X100076000Y-110490000D01*
X158750000Y-97409000D02*
X159004000Y-97409000D01*
X159004000Y-97409000D02*
X159004000Y-95123000D01*
X159004000Y-95123000D02*
X158750000Y-95123000D01*
X158750000Y-97409000D02*
X158750000Y-95123000D01*
X158750000Y-95123000D02*
X157099000Y-95123000D01*
X155321000Y-97409000D02*
X153670000Y-97409000D01*
X153670000Y-97409000D02*
X153670000Y-95123000D01*
X153670000Y-95123000D02*
X155321000Y-95123000D01*
X157099000Y-97409000D02*
X158750000Y-97409000D01*
X108331000Y-107442000D02*
X108331000Y-107188000D01*
X108331000Y-107188000D02*
X106045000Y-107188000D01*
X106045000Y-107188000D02*
X106045000Y-107442000D01*
X108331000Y-107442000D02*
X106045000Y-107442000D01*
X106045000Y-107442000D02*
X106045000Y-109093000D01*
X108331000Y-110871000D02*
X108331000Y-112522000D01*
X108331000Y-112522000D02*
X106045000Y-112522000D01*
X106045000Y-112522000D02*
X106045000Y-110871000D01*
X108331000Y-109093000D02*
X108331000Y-107442000D01*
X108331000Y-101092000D02*
X108331000Y-100838000D01*
X108331000Y-100838000D02*
X106045000Y-100838000D01*
X106045000Y-100838000D02*
X106045000Y-101092000D01*
X108331000Y-101092000D02*
X106045000Y-101092000D01*
X106045000Y-101092000D02*
X106045000Y-102743000D01*
X108331000Y-104521000D02*
X108331000Y-106172000D01*
X108331000Y-106172000D02*
X106045000Y-106172000D01*
X106045000Y-106172000D02*
X106045000Y-104521000D01*
X108331000Y-102743000D02*
X108331000Y-101092000D01*
X132461000Y-73914000D02*
X132461000Y-73660000D01*
X132461000Y-73660000D02*
X130175000Y-73660000D01*
X130175000Y-73660000D02*
X130175000Y-73914000D01*
X132461000Y-73914000D02*
X130175000Y-73914000D01*
X130175000Y-73914000D02*
X130175000Y-75565000D01*
X132461000Y-77343000D02*
X132461000Y-78994000D01*
X132461000Y-78994000D02*
X130175000Y-78994000D01*
X130175000Y-78994000D02*
X130175000Y-77343000D01*
X132461000Y-75565000D02*
X132461000Y-73914000D01*
X167640000Y-87757000D02*
X167386000Y-87757000D01*
X167386000Y-87757000D02*
X167386000Y-90043000D01*
X167386000Y-90043000D02*
X167640000Y-90043000D01*
X167640000Y-87757000D02*
X167640000Y-90043000D01*
X167640000Y-90043000D02*
X169291000Y-90043000D01*
X171069000Y-87757000D02*
X172720000Y-87757000D01*
X172720000Y-87757000D02*
X172720000Y-90043000D01*
X172720000Y-90043000D02*
X171069000Y-90043000D01*
X169291000Y-87757000D02*
X167640000Y-87757000D01*
X118618000Y-130429000D02*
X118618000Y-119634000D01*
X113538000Y-130429000D02*
X113538000Y-119634000D01*
X113538000Y-130429000D02*
X118618000Y-130429000D01*
X135128000Y-72644000D02*
X91948000Y-72644000D01*
X91948000Y-72644000D02*
X91948000Y-118364000D01*
X135128000Y-118364000D02*
X135128000Y-72644000D01*
X91948000Y-118364000D02*
X135128000Y-118364000D01*
X103378000Y-113284000D02*
X121158000Y-113284000D01*
X103378000Y-113284000D02*
X103378000Y-115824000D01*
X103378000Y-115824000D02*
X121158000Y-115824000D01*
X179578000Y-94234000D02*
X178308000Y-94234000D01*
X178308000Y-94234000D02*
X178308000Y-91694000D01*
X178308000Y-91694000D02*
X179578000Y-91694000D01*
X179578000Y-99314000D02*
X146558000Y-99314000D01*
X146558000Y-99314000D02*
X146558000Y-86614000D01*
X146558000Y-86614000D02*
X179578000Y-86614000D01*
X179578000Y-86614000D02*
X179578000Y-99314000D01*
X128778000Y-122174000D02*
X141478000Y-122174000D01*
X141478000Y-122174000D02*
X141478000Y-127254000D01*
X141478000Y-127254000D02*
X131318000Y-127254000D01*
X128778000Y-122174000D02*
X128778000Y-124714000D01*
X128498000Y-125984000D02*
X128498000Y-127534000D01*
X128778000Y-124714000D02*
X131318000Y-124714000D01*
X131318000Y-124714000D02*
X131318000Y-127254000D01*
X128498000Y-127534000D02*
X130048000Y-127534000D01*
X92710000Y-131826000D02*
X92710000Y-132588000D01*
X92710000Y-132588000D02*
X101346000Y-132588000D01*
X101346000Y-132588000D02*
X101346000Y-131826000D01*
X92710000Y-128778000D02*
X101346000Y-128778000D01*
X92710000Y-119126000D02*
X101346000Y-119126000D01*
X101346000Y-131826000D02*
X101346000Y-119126000D01*
X92710000Y-131826000D02*
X92710000Y-119126000D01*
X161290000Y-89154000D02*
X161290000Y-96774000D01*
X164846000Y-96774000D02*
X164846000Y-89154000D01*
X161290000Y-89154000D02*
X164846000Y-89154000D01*
X164846000Y-96774000D02*
X161290000Y-96774000D01*
X164697210Y-96266000D02*
G75*
G03X164697210Y-96266000I-359210J0D01*
G01*
X162433000Y-96774000D02*
X162433000Y-96012000D01*
X162433000Y-96012000D02*
X163703000Y-96012000D01*
X163703000Y-96012000D02*
X163703000Y-96774000D01*
X167028000Y-133554000D02*
X167028000Y-114554000D01*
X153528000Y-133554000D02*
X167028000Y-133554000D01*
X154028000Y-115554000D02*
X167028000Y-115554000D01*
X153528000Y-132554000D02*
X153528000Y-133554000D01*
X153528000Y-114554000D02*
X153528000Y-132554000D01*
X167028000Y-114554000D02*
X153528000Y-114554000D01*
X113030000Y-102616000D02*
X109982000Y-102616000D01*
X109982000Y-102616000D02*
X109982000Y-109728000D01*
X109982000Y-109728000D02*
X113030000Y-109728000D01*
X116078000Y-102616000D02*
X116840000Y-102616000D01*
X116840000Y-102616000D02*
X119126000Y-104140000D01*
X119126000Y-104140000D02*
X119126000Y-108204000D01*
X119126000Y-108204000D02*
X116840000Y-109728000D01*
X116840000Y-109728000D02*
X116078000Y-109728000D01*
X141478000Y-76454000D02*
X141478000Y-81534000D01*
X141478000Y-81534000D02*
X144018000Y-81534000D01*
X144018000Y-81534000D02*
X144018000Y-76454000D01*
X144298000Y-73634000D02*
X144298000Y-75184000D01*
X144018000Y-76454000D02*
X141478000Y-76454000D01*
X141198000Y-75184000D02*
X141198000Y-73634000D01*
X141198000Y-73634000D02*
X144298000Y-73634000D01*
X146558000Y-76454000D02*
X146558000Y-81534000D01*
X146558000Y-81534000D02*
X149098000Y-81534000D01*
X149098000Y-81534000D02*
X149098000Y-76454000D01*
X149378000Y-73634000D02*
X149378000Y-75184000D01*
X149098000Y-76454000D02*
X146558000Y-76454000D01*
X146278000Y-75184000D02*
X146278000Y-73634000D01*
X146278000Y-73634000D02*
X149378000Y-73634000D01*
X151638000Y-76454000D02*
X151638000Y-81534000D01*
X151638000Y-81534000D02*
X154178000Y-81534000D01*
X154178000Y-81534000D02*
X154178000Y-76454000D01*
X154458000Y-73634000D02*
X154458000Y-75184000D01*
X154178000Y-76454000D02*
X151638000Y-76454000D01*
X151358000Y-75184000D02*
X151358000Y-73634000D01*
X151358000Y-73634000D02*
X154458000Y-73634000D01*
X136398000Y-76454000D02*
X136398000Y-81534000D01*
X136398000Y-81534000D02*
X138938000Y-81534000D01*
X138938000Y-81534000D02*
X138938000Y-76454000D01*
X139218000Y-73634000D02*
X139218000Y-75184000D01*
X138938000Y-76454000D02*
X136398000Y-76454000D01*
X136118000Y-75184000D02*
X136118000Y-73634000D01*
X136118000Y-73634000D02*
X139218000Y-73634000D01*
X172528000Y-128824000D02*
X163528000Y-134824000D01*
X163528000Y-134824000D02*
X157528000Y-134824000D01*
X157528000Y-134824000D02*
X148528000Y-128824000D01*
X148528000Y-128824000D02*
X148528000Y-102824000D01*
X172528000Y-128824000D02*
X172528000Y-102824000D01*
X171528000Y-102324000D02*
X149528000Y-102324000D01*
D10*
G36*
X104129673Y-82267117D02*
X104124423Y-82565990D01*
X104007252Y-82844951D01*
X103932182Y-82934848D01*
X103850058Y-83011331D01*
X103762128Y-83066292D01*
X103640770Y-83103285D01*
X103458361Y-83125865D01*
X103187278Y-83137586D01*
X102799901Y-83142001D01*
X102317002Y-83142666D01*
X100909641Y-83142666D01*
X100682860Y-82909833D01*
X100585900Y-82782727D01*
X100414737Y-82528759D01*
X100181316Y-82166854D01*
X99897579Y-81715931D01*
X99575471Y-81194914D01*
X99226936Y-80622723D01*
X98974873Y-80203946D01*
X98623944Y-79620276D01*
X98299820Y-79085500D01*
X98012852Y-78616361D01*
X97773390Y-78229605D01*
X97591784Y-77941973D01*
X97478383Y-77770211D01*
X97444029Y-77727446D01*
X97406313Y-77803897D01*
X97318976Y-78023754D01*
X97188075Y-78370503D01*
X97019664Y-78827633D01*
X96819799Y-79378628D01*
X96594536Y-80006978D01*
X96349930Y-80696168D01*
X96216362Y-81075211D01*
X95915394Y-81923480D01*
X95642252Y-82677457D01*
X95401278Y-83325827D01*
X95196813Y-83857274D01*
X95033200Y-84260482D01*
X94914782Y-84524134D01*
X94851876Y-84631211D01*
X94619202Y-84779393D01*
X94318686Y-84837973D01*
X94026377Y-84799356D01*
X93887996Y-84727473D01*
X93691767Y-84498462D01*
X93572361Y-84210254D01*
X93556667Y-84080976D01*
X93584198Y-83969432D01*
X93663252Y-83714060D01*
X93788515Y-83330544D01*
X93954674Y-82834566D01*
X94156418Y-82241809D01*
X94388434Y-81567955D01*
X94645410Y-80828689D01*
X94922032Y-80039693D01*
X95014078Y-79778576D01*
X95357861Y-78806213D01*
X95651640Y-77981571D01*
X95901228Y-77292501D01*
X96112438Y-76726854D01*
X96291083Y-76272482D01*
X96442977Y-75917237D01*
X96573933Y-75648969D01*
X96689764Y-75455530D01*
X96796283Y-75324772D01*
X96899304Y-75244546D01*
X97004639Y-75202703D01*
X97118101Y-75187094D01*
X97211987Y-75185296D01*
X97445625Y-75208886D01*
X97615897Y-75263917D01*
X97617452Y-75264888D01*
X97686148Y-75351848D01*
X97832406Y-75568773D01*
X98046647Y-75900441D01*
X98319292Y-76331625D01*
X98640763Y-76847101D01*
X99001479Y-77431646D01*
X99391863Y-78070033D01*
X99654226Y-78502091D01*
X101567213Y-81661000D01*
X102620773Y-81705834D01*
X103038360Y-81728616D01*
X103403553Y-81757814D01*
X103677830Y-81789725D01*
X103822669Y-81820642D01*
X103824852Y-81821628D01*
X104028113Y-82001331D01*
X104129673Y-82267117D01*
X104129673Y-82267117D01*
X104129673Y-82267117D01*
G37*
X104129673Y-82267117D02*
X104124423Y-82565990D01*
X104007252Y-82844951D01*
X103932182Y-82934848D01*
X103850058Y-83011331D01*
X103762128Y-83066292D01*
X103640770Y-83103285D01*
X103458361Y-83125865D01*
X103187278Y-83137586D01*
X102799901Y-83142001D01*
X102317002Y-83142666D01*
X100909641Y-83142666D01*
X100682860Y-82909833D01*
X100585900Y-82782727D01*
X100414737Y-82528759D01*
X100181316Y-82166854D01*
X99897579Y-81715931D01*
X99575471Y-81194914D01*
X99226936Y-80622723D01*
X98974873Y-80203946D01*
X98623944Y-79620276D01*
X98299820Y-79085500D01*
X98012852Y-78616361D01*
X97773390Y-78229605D01*
X97591784Y-77941973D01*
X97478383Y-77770211D01*
X97444029Y-77727446D01*
X97406313Y-77803897D01*
X97318976Y-78023754D01*
X97188075Y-78370503D01*
X97019664Y-78827633D01*
X96819799Y-79378628D01*
X96594536Y-80006978D01*
X96349930Y-80696168D01*
X96216362Y-81075211D01*
X95915394Y-81923480D01*
X95642252Y-82677457D01*
X95401278Y-83325827D01*
X95196813Y-83857274D01*
X95033200Y-84260482D01*
X94914782Y-84524134D01*
X94851876Y-84631211D01*
X94619202Y-84779393D01*
X94318686Y-84837973D01*
X94026377Y-84799356D01*
X93887996Y-84727473D01*
X93691767Y-84498462D01*
X93572361Y-84210254D01*
X93556667Y-84080976D01*
X93584198Y-83969432D01*
X93663252Y-83714060D01*
X93788515Y-83330544D01*
X93954674Y-82834566D01*
X94156418Y-82241809D01*
X94388434Y-81567955D01*
X94645410Y-80828689D01*
X94922032Y-80039693D01*
X95014078Y-79778576D01*
X95357861Y-78806213D01*
X95651640Y-77981571D01*
X95901228Y-77292501D01*
X96112438Y-76726854D01*
X96291083Y-76272482D01*
X96442977Y-75917237D01*
X96573933Y-75648969D01*
X96689764Y-75455530D01*
X96796283Y-75324772D01*
X96899304Y-75244546D01*
X97004639Y-75202703D01*
X97118101Y-75187094D01*
X97211987Y-75185296D01*
X97445625Y-75208886D01*
X97615897Y-75263917D01*
X97617452Y-75264888D01*
X97686148Y-75351848D01*
X97832406Y-75568773D01*
X98046647Y-75900441D01*
X98319292Y-76331625D01*
X98640763Y-76847101D01*
X99001479Y-77431646D01*
X99391863Y-78070033D01*
X99654226Y-78502091D01*
X101567213Y-81661000D01*
X102620773Y-81705834D01*
X103038360Y-81728616D01*
X103403553Y-81757814D01*
X103677830Y-81789725D01*
X103822669Y-81820642D01*
X103824852Y-81821628D01*
X104028113Y-82001331D01*
X104129673Y-82267117D01*
X104129673Y-82267117D01*
G36*
X102785333Y-80741612D02*
X102717227Y-80850630D01*
X102548346Y-80994552D01*
X102331849Y-81137721D01*
X102120892Y-81244482D01*
X101982682Y-81280000D01*
X101869145Y-81222811D01*
X101854000Y-81172253D01*
X101922233Y-81066971D01*
X102091944Y-80938510D01*
X102150839Y-80904648D01*
X102328127Y-80796476D01*
X102411027Y-80720098D01*
X102410314Y-80707425D01*
X102322744Y-80722733D01*
X102179303Y-80805697D01*
X101980980Y-80908116D01*
X101835161Y-80941333D01*
X101702692Y-80901803D01*
X101701463Y-80803291D01*
X101818714Y-80675909D01*
X101991482Y-80572385D01*
X102171904Y-80471094D01*
X102253451Y-80394025D01*
X102250957Y-80378735D01*
X102156051Y-80386857D01*
X102009970Y-80467030D01*
X101797595Y-80574294D01*
X101619082Y-80595452D01*
X101521677Y-80528298D01*
X101515333Y-80490139D01*
X101586953Y-80393674D01*
X101765236Y-80273102D01*
X101995316Y-80155131D01*
X102222328Y-80066469D01*
X102391405Y-80033823D01*
X102432583Y-80043629D01*
X102537092Y-80164397D01*
X102655675Y-80372172D01*
X102750799Y-80592684D01*
X102785333Y-80741612D01*
X102785333Y-80741612D01*
X102785333Y-80741612D01*
G37*
X102785333Y-80741612D02*
X102717227Y-80850630D01*
X102548346Y-80994552D01*
X102331849Y-81137721D01*
X102120892Y-81244482D01*
X101982682Y-81280000D01*
X101869145Y-81222811D01*
X101854000Y-81172253D01*
X101922233Y-81066971D01*
X102091944Y-80938510D01*
X102150839Y-80904648D01*
X102328127Y-80796476D01*
X102411027Y-80720098D01*
X102410314Y-80707425D01*
X102322744Y-80722733D01*
X102179303Y-80805697D01*
X101980980Y-80908116D01*
X101835161Y-80941333D01*
X101702692Y-80901803D01*
X101701463Y-80803291D01*
X101818714Y-80675909D01*
X101991482Y-80572385D01*
X102171904Y-80471094D01*
X102253451Y-80394025D01*
X102250957Y-80378735D01*
X102156051Y-80386857D01*
X102009970Y-80467030D01*
X101797595Y-80574294D01*
X101619082Y-80595452D01*
X101521677Y-80528298D01*
X101515333Y-80490139D01*
X101586953Y-80393674D01*
X101765236Y-80273102D01*
X101995316Y-80155131D01*
X102222328Y-80066469D01*
X102391405Y-80033823D01*
X102432583Y-80043629D01*
X102537092Y-80164397D01*
X102655675Y-80372172D01*
X102750799Y-80592684D01*
X102785333Y-80741612D01*
X102785333Y-80741612D01*
G36*
X102083515Y-79527581D02*
X102002257Y-79689647D01*
X101905392Y-79742649D01*
X101790703Y-79734484D01*
X101786078Y-79618116D01*
X101792900Y-79590357D01*
X101775595Y-79410739D01*
X101643862Y-79304613D01*
X101443115Y-79289578D01*
X101233200Y-79373481D01*
X101030608Y-79460227D01*
X100885159Y-79438756D01*
X100838000Y-79334908D01*
X100906748Y-79254936D01*
X101078648Y-79135256D01*
X101302179Y-79005087D01*
X101525823Y-78893648D01*
X101698060Y-78830158D01*
X101737664Y-78824666D01*
X101842935Y-78891799D01*
X101854000Y-78941299D01*
X101913767Y-79088583D01*
X101985280Y-79166885D01*
X102081159Y-79329523D01*
X102083515Y-79527581D01*
X102083515Y-79527581D01*
X102083515Y-79527581D01*
G37*
X102083515Y-79527581D02*
X102002257Y-79689647D01*
X101905392Y-79742649D01*
X101790703Y-79734484D01*
X101786078Y-79618116D01*
X101792900Y-79590357D01*
X101775595Y-79410739D01*
X101643862Y-79304613D01*
X101443115Y-79289578D01*
X101233200Y-79373481D01*
X101030608Y-79460227D01*
X100885159Y-79438756D01*
X100838000Y-79334908D01*
X100906748Y-79254936D01*
X101078648Y-79135256D01*
X101302179Y-79005087D01*
X101525823Y-78893648D01*
X101698060Y-78830158D01*
X101737664Y-78824666D01*
X101842935Y-78891799D01*
X101854000Y-78941299D01*
X101913767Y-79088583D01*
X101985280Y-79166885D01*
X102081159Y-79329523D01*
X102083515Y-79527581D01*
X102083515Y-79527581D01*
G36*
X101691030Y-77858888D02*
X101634419Y-78003655D01*
X101457466Y-78233534D01*
X101195378Y-78509817D01*
X100992357Y-78708187D01*
X100992357Y-78285688D01*
X100979111Y-78260222D01*
X100878631Y-78250089D01*
X100866222Y-78260222D01*
X100877844Y-78310556D01*
X100922667Y-78316666D01*
X100992357Y-78285688D01*
X100992357Y-78708187D01*
X100938036Y-78761264D01*
X100771893Y-78910332D01*
X100669580Y-78975540D01*
X100603729Y-78975403D01*
X100558757Y-78940534D01*
X100549593Y-78832555D01*
X100586675Y-78735001D01*
X100634739Y-78541833D01*
X100580626Y-78396930D01*
X100448282Y-78351645D01*
X100411765Y-78359920D01*
X100269840Y-78354321D01*
X100175394Y-78277399D01*
X100186443Y-78178297D01*
X100191282Y-78173161D01*
X100286167Y-78136159D01*
X100498156Y-78073942D01*
X100779210Y-77998734D01*
X101081291Y-77922757D01*
X101356359Y-77858236D01*
X101556377Y-77817393D01*
X101621167Y-77809327D01*
X101691030Y-77858888D01*
X101691030Y-77858888D01*
X101691030Y-77858888D01*
G37*
X101691030Y-77858888D02*
X101634419Y-78003655D01*
X101457466Y-78233534D01*
X101195378Y-78509817D01*
X100992357Y-78708187D01*
X100992357Y-78285688D01*
X100979111Y-78260222D01*
X100878631Y-78250089D01*
X100866222Y-78260222D01*
X100877844Y-78310556D01*
X100922667Y-78316666D01*
X100992357Y-78285688D01*
X100992357Y-78708187D01*
X100938036Y-78761264D01*
X100771893Y-78910332D01*
X100669580Y-78975540D01*
X100603729Y-78975403D01*
X100558757Y-78940534D01*
X100549593Y-78832555D01*
X100586675Y-78735001D01*
X100634739Y-78541833D01*
X100580626Y-78396930D01*
X100448282Y-78351645D01*
X100411765Y-78359920D01*
X100269840Y-78354321D01*
X100175394Y-78277399D01*
X100186443Y-78178297D01*
X100191282Y-78173161D01*
X100286167Y-78136159D01*
X100498156Y-78073942D01*
X100779210Y-77998734D01*
X101081291Y-77922757D01*
X101356359Y-77858236D01*
X101556377Y-77817393D01*
X101621167Y-77809327D01*
X101691030Y-77858888D01*
X101691030Y-77858888D01*
G36*
X100740522Y-77087442D02*
X100710410Y-77337469D01*
X100565161Y-77507532D01*
X100469015Y-77566668D01*
X100469015Y-77092315D01*
X100417645Y-77007921D01*
X100282205Y-76888044D01*
X100217966Y-76911395D01*
X100250103Y-77064505D01*
X100261785Y-77091296D01*
X100361431Y-77233636D01*
X100442648Y-77221884D01*
X100469015Y-77092315D01*
X100469015Y-77566668D01*
X100396049Y-77611548D01*
X100282348Y-77611261D01*
X100169091Y-77490234D01*
X100085741Y-77364166D01*
X99975588Y-77211745D01*
X99913226Y-77163344D01*
X99908093Y-77175994D01*
X99951777Y-77305052D01*
X100038571Y-77451309D01*
X100118675Y-77636720D01*
X100089920Y-77770881D01*
X99996074Y-77808666D01*
X99904314Y-77745127D01*
X99789404Y-77599978D01*
X99659644Y-77295312D01*
X99670938Y-77019595D01*
X99818809Y-76806389D01*
X99902462Y-76752507D01*
X100218902Y-76637392D01*
X100458965Y-76665331D01*
X100621532Y-76811505D01*
X100740522Y-77087442D01*
X100740522Y-77087442D01*
X100740522Y-77087442D01*
G37*
X100740522Y-77087442D02*
X100710410Y-77337469D01*
X100565161Y-77507532D01*
X100469015Y-77566668D01*
X100469015Y-77092315D01*
X100417645Y-77007921D01*
X100282205Y-76888044D01*
X100217966Y-76911395D01*
X100250103Y-77064505D01*
X100261785Y-77091296D01*
X100361431Y-77233636D01*
X100442648Y-77221884D01*
X100469015Y-77092315D01*
X100469015Y-77566668D01*
X100396049Y-77611548D01*
X100282348Y-77611261D01*
X100169091Y-77490234D01*
X100085741Y-77364166D01*
X99975588Y-77211745D01*
X99913226Y-77163344D01*
X99908093Y-77175994D01*
X99951777Y-77305052D01*
X100038571Y-77451309D01*
X100118675Y-77636720D01*
X100089920Y-77770881D01*
X99996074Y-77808666D01*
X99904314Y-77745127D01*
X99789404Y-77599978D01*
X99659644Y-77295312D01*
X99670938Y-77019595D01*
X99818809Y-76806389D01*
X99902462Y-76752507D01*
X100218902Y-76637392D01*
X100458965Y-76665331D01*
X100621532Y-76811505D01*
X100740522Y-77087442D01*
X100740522Y-77087442D01*
G36*
X100532947Y-75867265D02*
X100454426Y-76013194D01*
X100390778Y-76060288D01*
X100029589Y-76273949D01*
X99710013Y-76450417D01*
X99464795Y-76572472D01*
X99326680Y-76622893D01*
X99320090Y-76623333D01*
X99239307Y-76554978D01*
X99229333Y-76498054D01*
X99298940Y-76388135D01*
X99475233Y-76253311D01*
X99583031Y-76192331D01*
X99788687Y-76078351D01*
X99859309Y-76004683D01*
X99815574Y-75945095D01*
X99790003Y-75929776D01*
X99693197Y-75837819D01*
X99743005Y-75727498D01*
X99806573Y-75635985D01*
X99774249Y-75619996D01*
X99629772Y-75683857D01*
X99362589Y-75828702D01*
X99085299Y-75965500D01*
X98931168Y-75994418D01*
X98892885Y-75915517D01*
X98916105Y-75832496D01*
X99010908Y-75734302D01*
X99210241Y-75594349D01*
X99464559Y-75441131D01*
X99724320Y-75303141D01*
X99939979Y-75208872D01*
X100043705Y-75184000D01*
X100183476Y-75244763D01*
X100206711Y-75401442D01*
X100161603Y-75520916D01*
X100115505Y-75647912D01*
X100194691Y-75689360D01*
X100275629Y-75691999D01*
X100468266Y-75743944D01*
X100532947Y-75867265D01*
X100532947Y-75867265D01*
X100532947Y-75867265D01*
G37*
X100532947Y-75867265D02*
X100454426Y-76013194D01*
X100390778Y-76060288D01*
X100029589Y-76273949D01*
X99710013Y-76450417D01*
X99464795Y-76572472D01*
X99326680Y-76622893D01*
X99320090Y-76623333D01*
X99239307Y-76554978D01*
X99229333Y-76498054D01*
X99298940Y-76388135D01*
X99475233Y-76253311D01*
X99583031Y-76192331D01*
X99788687Y-76078351D01*
X99859309Y-76004683D01*
X99815574Y-75945095D01*
X99790003Y-75929776D01*
X99693197Y-75837819D01*
X99743005Y-75727498D01*
X99806573Y-75635985D01*
X99774249Y-75619996D01*
X99629772Y-75683857D01*
X99362589Y-75828702D01*
X99085299Y-75965500D01*
X98931168Y-75994418D01*
X98892885Y-75915517D01*
X98916105Y-75832496D01*
X99010908Y-75734302D01*
X99210241Y-75594349D01*
X99464559Y-75441131D01*
X99724320Y-75303141D01*
X99939979Y-75208872D01*
X100043705Y-75184000D01*
X100183476Y-75244763D01*
X100206711Y-75401442D01*
X100161603Y-75520916D01*
X100115505Y-75647912D01*
X100194691Y-75689360D01*
X100275629Y-75691999D01*
X100468266Y-75743944D01*
X100532947Y-75867265D01*
X100532947Y-75867265D01*
D12*
X121285143Y-116344000D02*
X121142286Y-116272571D01*
X120928000Y-116272571D01*
X120713715Y-116344000D01*
X120570857Y-116486857D01*
X120499429Y-116629714D01*
X120428000Y-116915429D01*
X120428000Y-117129714D01*
X120499429Y-117415429D01*
X120570857Y-117558286D01*
X120713715Y-117701143D01*
X120928000Y-117772571D01*
X121070857Y-117772571D01*
X121285143Y-117701143D01*
X121356572Y-117629714D01*
X121356572Y-117129714D01*
X121070857Y-117129714D01*
X121999429Y-117772571D02*
X121999429Y-116272571D01*
X122856572Y-117772571D01*
X122856572Y-116272571D01*
X123570858Y-117772571D02*
X123570858Y-116272571D01*
X123928001Y-116272571D01*
X124142286Y-116344000D01*
X124285144Y-116486857D01*
X124356572Y-116629714D01*
X124428001Y-116915429D01*
X124428001Y-117129714D01*
X124356572Y-117415429D01*
X124285144Y-117558286D01*
X124142286Y-117701143D01*
X123928001Y-117772571D01*
X123570858Y-117772571D01*
%LPC*%
D13*
X168529000Y-96139000D03*
X171831000Y-96139000D03*
D14*
X97028000Y-110617000D03*
X97028000Y-103251000D03*
D13*
X157861000Y-96266000D03*
X154559000Y-96266000D03*
D15*
X107188000Y-108331000D03*
X107188000Y-111633000D03*
X107188000Y-101981000D03*
X107188000Y-105283000D03*
X131318000Y-74803000D03*
X131318000Y-78105000D03*
D13*
X168529000Y-88900000D03*
X171831000Y-88900000D03*
D16*
X114173000Y-125984000D03*
X116078000Y-125984000D03*
X117983000Y-125984000D03*
X114173000Y-125984000D03*
X116078000Y-125984000D03*
X117983000Y-125984000D03*
D17*
X104648000Y-114554000D03*
X107188000Y-114554000D03*
X109728000Y-114554000D03*
X112268000Y-114554000D03*
X114808000Y-114554000D03*
X117348000Y-114554000D03*
X119888000Y-114554000D03*
D18*
X122428000Y-114554000D03*
D19*
X177038000Y-85344000D03*
D20*
X174498000Y-85344000D03*
X171958000Y-85344000D03*
X169418000Y-85344000D03*
X166878000Y-85344000D03*
X164338000Y-85344000D03*
X161798000Y-85344000D03*
X159258000Y-85344000D03*
X156718000Y-85344000D03*
X154178000Y-85344000D03*
X151638000Y-85344000D03*
X149098000Y-85344000D03*
X149098000Y-100584000D03*
X151638000Y-100584000D03*
X154178000Y-100584000D03*
X156718000Y-100584000D03*
X159258000Y-100584000D03*
X161798000Y-100584000D03*
X164338000Y-100584000D03*
X166878000Y-100584000D03*
X169418000Y-100584000D03*
X171958000Y-100584000D03*
X174498000Y-100584000D03*
X177038000Y-100584000D03*
D21*
X130048000Y-125984000D03*
D22*
X130048000Y-123444000D03*
X132588000Y-125984000D03*
X132588000Y-123444000D03*
X135128000Y-125984000D03*
X135128000Y-123444000D03*
X137668000Y-125984000D03*
X137668000Y-123444000D03*
X140208000Y-125984000D03*
X140208000Y-123444000D03*
D23*
X97028000Y-124714000D03*
D24*
X97028000Y-118618000D03*
D23*
X102108000Y-122428000D03*
D25*
X165735000Y-95885000D03*
X165735000Y-95250000D03*
X165735000Y-94589600D03*
X165735000Y-93929200D03*
X165735000Y-93294200D03*
X165735000Y-92633800D03*
X165735000Y-91973400D03*
X165735000Y-91338400D03*
X165735000Y-90678000D03*
X165735000Y-90043000D03*
X160401000Y-90043000D03*
X160401000Y-90678000D03*
X160401000Y-91338400D03*
X160401000Y-91973400D03*
X160401000Y-92633800D03*
X160401000Y-93294200D03*
X160401000Y-93929200D03*
X160401000Y-94589600D03*
X160401000Y-95250000D03*
X160401000Y-95885000D03*
D26*
X167028000Y-126054000D03*
X167028000Y-124554000D03*
X167028000Y-123054000D03*
X167028000Y-121554000D03*
X167028000Y-120054000D03*
X167028000Y-118554000D03*
X167028000Y-117054000D03*
X167028000Y-115554000D03*
X153528000Y-115554000D03*
X153528000Y-117054000D03*
X153528000Y-118554000D03*
X153528000Y-120054000D03*
X153528000Y-121554000D03*
X153528000Y-123054000D03*
X153528000Y-124554000D03*
X153528000Y-126054000D03*
D27*
X117856000Y-106172000D03*
D28*
X111252000Y-106172000D03*
X111252000Y-108458000D03*
X111252000Y-103886000D03*
D29*
X142748000Y-75184000D03*
D30*
X142748000Y-77724000D03*
X142748000Y-80264000D03*
D29*
X147828000Y-75184000D03*
D30*
X147828000Y-77724000D03*
X147828000Y-80264000D03*
D29*
X152908000Y-75184000D03*
D30*
X152908000Y-77724000D03*
X152908000Y-80264000D03*
D29*
X137668000Y-75184000D03*
D30*
X137668000Y-77724000D03*
X137668000Y-80264000D03*
D31*
X171528000Y-127324000D03*
X171528000Y-125324000D03*
X171528000Y-123324000D03*
X171528000Y-121324000D03*
X171528000Y-119324000D03*
X171528000Y-117324000D03*
X171528000Y-115324000D03*
X171528000Y-113324000D03*
X171528000Y-111324000D03*
X171528000Y-109324000D03*
X149528000Y-109324000D03*
X149528000Y-111324000D03*
X149528000Y-113324000D03*
X149528000Y-115324000D03*
X149528000Y-117324000D03*
X149528000Y-119324000D03*
X149528000Y-121324000D03*
X149528000Y-123324000D03*
X149528000Y-125324000D03*
X149528000Y-127324000D03*
M02*
