G04 #@! TF.FileFunction,Copper,L1,Top,Signal*
%FSLAX46Y46*%
G04 Gerber Fmt 4.6, Leading zero omitted, Abs format (unit mm)*
G04 Created by KiCad (PCBNEW (2015-01-16 BZR 5376)-product) date 26/03/2015 09:41:38*
%MOMM*%
G01*
G04 APERTURE LIST*
%ADD10C,0.100000*%
%ADD11R,1.524000X2.032000*%
%ADD12R,3.302000X1.270000*%
%ADD13R,2.032000X1.524000*%
%ADD14R,1.000000X8.000000*%
%ADD15C,2.000000*%
%ADD16R,2.000000X2.000000*%
%ADD17R,1.574800X2.286000*%
%ADD18O,1.574800X2.286000*%
%ADD19R,1.727200X1.727200*%
%ADD20O,1.727200X1.727200*%
%ADD21C,4.800600*%
%ADD22R,4.800600X4.800600*%
%ADD23R,1.270000X0.406400*%
%ADD24R,2.000000X1.200000*%
%ADD25R,2.032000X3.657600*%
%ADD26R,2.032000X1.016000*%
%ADD27R,2.032000X1.727200*%
%ADD28O,2.032000X1.727200*%
%ADD29C,1.500000*%
%ADD30C,0.889000*%
%ADD31C,0.254000*%
%ADD32C,1.100000*%
G04 APERTURE END LIST*
D10*
D11*
X168529000Y-96139000D03*
X171831000Y-96139000D03*
D12*
X97028000Y-110617000D03*
X97028000Y-103251000D03*
D11*
X157861000Y-96266000D03*
X154559000Y-96266000D03*
D13*
X107188000Y-108331000D03*
X107188000Y-111633000D03*
X107188000Y-101981000D03*
X107188000Y-105283000D03*
X131318000Y-74803000D03*
X131318000Y-78105000D03*
D11*
X168529000Y-88900000D03*
X171831000Y-88900000D03*
D14*
X114173000Y-125984000D03*
X116078000Y-125984000D03*
X117983000Y-125984000D03*
D15*
X104648000Y-114554000D03*
X107188000Y-114554000D03*
X109728000Y-114554000D03*
X112268000Y-114554000D03*
X114808000Y-114554000D03*
X117348000Y-114554000D03*
X119888000Y-114554000D03*
D16*
X122428000Y-114554000D03*
D17*
X177038000Y-85344000D03*
D18*
X174498000Y-85344000D03*
X171958000Y-85344000D03*
X169418000Y-85344000D03*
X166878000Y-85344000D03*
X164338000Y-85344000D03*
X161798000Y-85344000D03*
X159258000Y-85344000D03*
X156718000Y-85344000D03*
X154178000Y-85344000D03*
X151638000Y-85344000D03*
X149098000Y-85344000D03*
X149098000Y-100584000D03*
X151638000Y-100584000D03*
X154178000Y-100584000D03*
X156718000Y-100584000D03*
X159258000Y-100584000D03*
X161798000Y-100584000D03*
X164338000Y-100584000D03*
X166878000Y-100584000D03*
X169418000Y-100584000D03*
X171958000Y-100584000D03*
X174498000Y-100584000D03*
X177038000Y-100584000D03*
D19*
X130048000Y-125984000D03*
D20*
X130048000Y-123444000D03*
X132588000Y-125984000D03*
X132588000Y-123444000D03*
X135128000Y-125984000D03*
X135128000Y-123444000D03*
X137668000Y-125984000D03*
X137668000Y-123444000D03*
X140208000Y-125984000D03*
X140208000Y-123444000D03*
D21*
X97028000Y-124714000D03*
D22*
X97028000Y-118618000D03*
D21*
X102108000Y-122428000D03*
D23*
X165735000Y-95885000D03*
X165735000Y-95250000D03*
X165735000Y-94589600D03*
X165735000Y-93929200D03*
X165735000Y-93294200D03*
X165735000Y-92633800D03*
X165735000Y-91973400D03*
X165735000Y-91338400D03*
X165735000Y-90678000D03*
X165735000Y-90043000D03*
X160401000Y-90043000D03*
X160401000Y-90678000D03*
X160401000Y-91338400D03*
X160401000Y-91973400D03*
X160401000Y-92633800D03*
X160401000Y-93294200D03*
X160401000Y-93929200D03*
X160401000Y-94589600D03*
X160401000Y-95250000D03*
X160401000Y-95885000D03*
D24*
X167028000Y-126054000D03*
X167028000Y-124554000D03*
X167028000Y-123054000D03*
X167028000Y-121554000D03*
X167028000Y-120054000D03*
X167028000Y-118554000D03*
X167028000Y-117054000D03*
X167028000Y-115554000D03*
X153528000Y-115554000D03*
X153528000Y-117054000D03*
X153528000Y-118554000D03*
X153528000Y-120054000D03*
X153528000Y-121554000D03*
X153528000Y-123054000D03*
X153528000Y-124554000D03*
X153528000Y-126054000D03*
D25*
X117856000Y-106172000D03*
D26*
X111252000Y-106172000D03*
X111252000Y-108458000D03*
X111252000Y-103886000D03*
D27*
X142748000Y-75184000D03*
D28*
X142748000Y-77724000D03*
X142748000Y-80264000D03*
D27*
X147828000Y-75184000D03*
D28*
X147828000Y-77724000D03*
X147828000Y-80264000D03*
D27*
X152908000Y-75184000D03*
D28*
X152908000Y-77724000D03*
X152908000Y-80264000D03*
D27*
X137668000Y-75184000D03*
D28*
X137668000Y-77724000D03*
X137668000Y-80264000D03*
D29*
X171528000Y-127324000D03*
X171528000Y-125324000D03*
X171528000Y-123324000D03*
X171528000Y-121324000D03*
X171528000Y-119324000D03*
X171528000Y-117324000D03*
X171528000Y-115324000D03*
X171528000Y-113324000D03*
X171528000Y-111324000D03*
X171528000Y-109324000D03*
X149528000Y-109324000D03*
X149528000Y-111324000D03*
X149528000Y-113324000D03*
X149528000Y-115324000D03*
X149528000Y-117324000D03*
X149528000Y-119324000D03*
X149528000Y-121324000D03*
X149528000Y-123324000D03*
X149528000Y-125324000D03*
X149528000Y-127324000D03*
D30*
X146685000Y-106680000D03*
X168529000Y-93853000D03*
X109728000Y-100203000D03*
X104140000Y-112014000D03*
X162179000Y-94361000D03*
X121539000Y-110744000D03*
X141478000Y-120650000D03*
X126238000Y-124587000D03*
X125476000Y-116586000D03*
X143764000Y-96266000D03*
X138938000Y-91440000D03*
X138938000Y-89281000D03*
X112268000Y-121920000D03*
X156210000Y-96139000D03*
X140335000Y-90424000D03*
X153670000Y-113030000D03*
X165862000Y-97155000D03*
X126746000Y-121666000D03*
X126746000Y-116332000D03*
X127254000Y-113792000D03*
X155448000Y-87376000D03*
X138684000Y-103886000D03*
X144018000Y-103124000D03*
X141478000Y-104394000D03*
X147447000Y-105537000D03*
X138684000Y-105664000D03*
X147574000Y-107696000D03*
X157226000Y-89408000D03*
X175768000Y-92202000D03*
X157353000Y-90678000D03*
D31*
X169418000Y-100584000D02*
X169418000Y-101727000D01*
X164465000Y-106680000D02*
X146685000Y-106680000D01*
X169418000Y-101727000D02*
X164465000Y-106680000D01*
X168529000Y-96139000D02*
X168529000Y-93853000D01*
X165735000Y-95250000D02*
X167640000Y-95250000D01*
X167640000Y-95250000D02*
X168529000Y-96139000D01*
X171831000Y-96139000D02*
X172847000Y-96139000D01*
X174498000Y-97790000D02*
X174498000Y-100584000D01*
X172847000Y-96139000D02*
X174498000Y-97790000D01*
X171831000Y-88900000D02*
X171831000Y-85471000D01*
X171831000Y-85471000D02*
X171958000Y-85344000D01*
X171831000Y-88900000D02*
X172212000Y-88900000D01*
X107188000Y-101981000D02*
X107950000Y-101981000D01*
X107950000Y-101981000D02*
X109728000Y-100203000D01*
X107188000Y-111633000D02*
X104521000Y-111633000D01*
X104521000Y-111633000D02*
X104140000Y-112014000D01*
X160401000Y-90043000D02*
X161925000Y-90043000D01*
X162179000Y-90297000D02*
X162179000Y-94361000D01*
X161925000Y-90043000D02*
X162179000Y-90297000D01*
X122428000Y-114554000D02*
X122428000Y-111633000D01*
X122428000Y-111633000D02*
X121539000Y-110744000D01*
X140208000Y-123444000D02*
X140208000Y-121920000D01*
X140208000Y-121920000D02*
X141478000Y-120650000D01*
X139192000Y-124714000D02*
X131826000Y-124714000D01*
X131826000Y-124714000D02*
X131318000Y-125222000D01*
X131318000Y-125222000D02*
X131318000Y-127000000D01*
X131318000Y-127000000D02*
X130556000Y-127762000D01*
X130556000Y-127762000D02*
X127000000Y-127762000D01*
X127000000Y-127762000D02*
X126238000Y-127000000D01*
X126238000Y-127000000D02*
X126238000Y-124587000D01*
X140208000Y-123698000D02*
X139192000Y-124714000D01*
X140208000Y-123444000D02*
X140208000Y-123698000D01*
X125476000Y-116586000D02*
X123444000Y-114554000D01*
X123444000Y-114554000D02*
X122428000Y-114554000D01*
X138938000Y-91440000D02*
X125984000Y-91440000D01*
X125984000Y-91440000D02*
X122428000Y-94996000D01*
X122428000Y-94996000D02*
X122428000Y-111633000D01*
X154559000Y-96266000D02*
X143764000Y-96266000D01*
X137668000Y-77724000D02*
X131699000Y-77724000D01*
X131699000Y-77724000D02*
X131318000Y-78105000D01*
X137668000Y-77724000D02*
X136144000Y-77724000D01*
X138938000Y-89281000D02*
X115951000Y-89281000D01*
D32*
X107188000Y-108331000D02*
X111125000Y-108331000D01*
X111125000Y-108331000D02*
X111252000Y-108458000D01*
X97028000Y-110617000D02*
X102235000Y-110617000D01*
X104521000Y-108331000D02*
X107188000Y-108331000D01*
X102235000Y-110617000D02*
X104521000Y-108331000D01*
X147828000Y-77724000D02*
X152908000Y-77724000D01*
X142748000Y-77724000D02*
X147828000Y-77724000D01*
X137668000Y-77724000D02*
X142748000Y-77724000D01*
X97028000Y-108204000D02*
X115951000Y-89281000D01*
X115951000Y-89281000D02*
X127508000Y-77724000D01*
X127508000Y-77724000D02*
X136144000Y-77724000D01*
D31*
X97028000Y-110617000D02*
X98425000Y-110617000D01*
D32*
X97028000Y-110617000D02*
X97028000Y-108204000D01*
X97028000Y-118618000D02*
X97028000Y-110617000D01*
D31*
X112268000Y-121920000D02*
X113792000Y-121920000D01*
X113792000Y-121920000D02*
X114173000Y-122301000D01*
X114173000Y-122301000D02*
X114173000Y-125984000D01*
X111252000Y-106172000D02*
X112903000Y-106172000D01*
X156337000Y-96266000D02*
X157861000Y-96266000D01*
X156210000Y-96139000D02*
X156337000Y-96266000D01*
X125476000Y-90424000D02*
X140335000Y-90424000D01*
X114554000Y-101346000D02*
X125476000Y-90424000D01*
X114554000Y-104521000D02*
X114554000Y-101346000D01*
X112903000Y-106172000D02*
X114554000Y-104521000D01*
X160401000Y-95250000D02*
X162052000Y-95250000D01*
X153528000Y-113172000D02*
X153528000Y-115554000D01*
X153670000Y-113030000D02*
X153528000Y-113172000D01*
X163957000Y-97155000D02*
X165862000Y-97155000D01*
X162052000Y-95250000D02*
X163957000Y-97155000D01*
X161925000Y-127324000D02*
X152089000Y-127324000D01*
X152089000Y-127324000D02*
X151384000Y-126619000D01*
X151384000Y-126619000D02*
X151384000Y-116205000D01*
X151384000Y-116205000D02*
X152035000Y-115554000D01*
X152035000Y-115554000D02*
X153528000Y-115554000D01*
X160401000Y-95250000D02*
X158877000Y-95250000D01*
X158877000Y-95250000D02*
X157861000Y-96266000D01*
X111252000Y-106172000D02*
X112522000Y-106172000D01*
X117348000Y-113284000D02*
X117348000Y-114554000D01*
X114554000Y-110490000D02*
X117348000Y-113284000D01*
X114554000Y-108204000D02*
X114554000Y-110490000D01*
X112522000Y-106172000D02*
X114554000Y-108204000D01*
D32*
X107188000Y-105283000D02*
X108839000Y-105283000D01*
X109728000Y-106172000D02*
X111252000Y-106172000D01*
X108839000Y-105283000D02*
X109728000Y-106172000D01*
D31*
X114173000Y-123825000D02*
X114173000Y-125984000D01*
X117348000Y-114554000D02*
X119888000Y-114554000D01*
X171528000Y-127324000D02*
X161925000Y-127324000D01*
X161925000Y-127324000D02*
X161868000Y-127324000D01*
X165735000Y-90043000D02*
X165735000Y-89662000D01*
X166497000Y-88900000D02*
X168529000Y-88900000D01*
X165735000Y-89662000D02*
X166497000Y-88900000D01*
X133096000Y-99314000D02*
X126238000Y-106172000D01*
X141478000Y-90932000D02*
X133096000Y-99314000D01*
X141478000Y-89154000D02*
X141478000Y-90932000D01*
X148082000Y-82550000D02*
X141478000Y-89154000D01*
X164592000Y-82550000D02*
X148082000Y-82550000D01*
X166878000Y-84836000D02*
X164592000Y-82550000D01*
X118618000Y-121412000D02*
X117983000Y-122047000D01*
X126492000Y-121412000D02*
X118618000Y-121412000D01*
X126746000Y-121666000D02*
X126492000Y-121412000D01*
X126238000Y-115570000D02*
X126746000Y-116332000D01*
X126238000Y-106172000D02*
X126238000Y-115570000D01*
X117983000Y-122047000D02*
X117983000Y-125984000D01*
X166878000Y-85344000D02*
X166878000Y-84836000D01*
X142240000Y-91186000D02*
X142240000Y-91440000D01*
X127254000Y-113792000D02*
X127254000Y-106426000D01*
X164338000Y-85090000D02*
X162560000Y-83312000D01*
X162560000Y-83312000D02*
X148590000Y-83312000D01*
X148590000Y-83312000D02*
X142240000Y-89662000D01*
X142240000Y-89662000D02*
X142240000Y-91186000D01*
X142240000Y-91440000D02*
X127254000Y-106426000D01*
X164338000Y-85344000D02*
X164338000Y-85090000D01*
X145948400Y-94589600D02*
X143154400Y-94589600D01*
X146050000Y-94589600D02*
X145948400Y-94589600D01*
X160401000Y-94589600D02*
X146050000Y-94589600D01*
X104648000Y-118364000D02*
X104648000Y-114554000D01*
X106934000Y-120650000D02*
X104648000Y-118364000D01*
X134874000Y-120650000D02*
X106934000Y-120650000D01*
X137668000Y-117856000D02*
X134874000Y-120650000D01*
X137668000Y-100076000D02*
X137668000Y-117856000D01*
X143154400Y-94589600D02*
X137668000Y-100076000D01*
X145846800Y-93929200D02*
X143052800Y-93929200D01*
X107188000Y-118364000D02*
X107188000Y-114554000D01*
X108712000Y-119888000D02*
X107188000Y-118364000D01*
X134620000Y-119888000D02*
X108712000Y-119888000D01*
X136906000Y-117602000D02*
X134620000Y-119888000D01*
X136906000Y-100076000D02*
X136906000Y-117602000D01*
X143052800Y-93929200D02*
X136906000Y-100076000D01*
X160401000Y-93929200D02*
X145846800Y-93929200D01*
X145846800Y-93929200D02*
X145796000Y-93980000D01*
X160401000Y-93294200D02*
X142925800Y-93294200D01*
X109728000Y-117348000D02*
X109728000Y-114554000D01*
X111506000Y-119126000D02*
X109728000Y-117348000D01*
X134366000Y-119126000D02*
X111506000Y-119126000D01*
X136144000Y-117348000D02*
X134366000Y-119126000D01*
X136144000Y-100076000D02*
X136144000Y-117348000D01*
X142925800Y-93294200D02*
X136144000Y-100076000D01*
X146888200Y-92633800D02*
X142824200Y-92633800D01*
X160401000Y-92633800D02*
X146888200Y-92633800D01*
X112268000Y-117094000D02*
X112268000Y-114554000D01*
X113538000Y-118364000D02*
X112268000Y-117094000D01*
X134112000Y-118364000D02*
X113538000Y-118364000D01*
X135382000Y-117094000D02*
X134112000Y-118364000D01*
X135382000Y-100076000D02*
X135382000Y-117094000D01*
X142824200Y-92633800D02*
X135382000Y-100076000D01*
X146812000Y-91948000D02*
X142748000Y-91948000D01*
X146837400Y-91973400D02*
X146812000Y-91948000D01*
X160401000Y-91973400D02*
X146837400Y-91973400D01*
X142748000Y-91948000D02*
X134620000Y-100076000D01*
X114808000Y-116840000D02*
X114808000Y-114554000D01*
X115570000Y-117602000D02*
X114808000Y-116840000D01*
X133858000Y-117602000D02*
X115570000Y-117602000D01*
X134620000Y-116840000D02*
X133858000Y-117602000D01*
X134620000Y-100076000D02*
X134620000Y-116840000D01*
X165735000Y-91338400D02*
X176123600Y-91338400D01*
X177038000Y-90424000D02*
X177038000Y-85344000D01*
X176123600Y-91338400D02*
X177038000Y-90424000D01*
X174498000Y-85344000D02*
X174498000Y-89789000D01*
X173609000Y-90678000D02*
X165735000Y-90678000D01*
X174498000Y-89789000D02*
X173609000Y-90678000D01*
X165735000Y-93294200D02*
X164668200Y-93294200D01*
X164338000Y-87503000D02*
X161798000Y-85344000D01*
X164338000Y-89281000D02*
X164338000Y-87503000D01*
X164338000Y-92964000D02*
X164338000Y-89281000D01*
X164668200Y-93294200D02*
X164338000Y-92964000D01*
X147828000Y-80264000D02*
X147828000Y-80899000D01*
X165735000Y-94589600D02*
X163931600Y-94589600D01*
X154178000Y-87630000D02*
X154178000Y-85344000D01*
X154940000Y-88392000D02*
X154178000Y-87630000D01*
X162433000Y-88392000D02*
X154940000Y-88392000D01*
X163068000Y-88900000D02*
X162433000Y-88392000D01*
X163068000Y-93726000D02*
X163068000Y-88900000D01*
X163931600Y-94589600D02*
X163068000Y-93726000D01*
X165735000Y-93929200D02*
X164287200Y-93929200D01*
X162560000Y-87376000D02*
X155448000Y-87376000D01*
X163703000Y-88392000D02*
X162560000Y-87376000D01*
X163703000Y-93345000D02*
X163703000Y-88392000D01*
X164287200Y-93929200D02*
X163703000Y-93345000D01*
X149098000Y-98044000D02*
X140970000Y-98044000D01*
X140970000Y-98044000D02*
X138684000Y-100330000D01*
X138684000Y-100330000D02*
X138684000Y-103886000D01*
X151638000Y-100584000D02*
X149098000Y-98044000D01*
X166116000Y-98044000D02*
X169545000Y-98044000D01*
X166116000Y-98044000D02*
X154178000Y-98044000D01*
X151638000Y-100584000D02*
X154178000Y-98044000D01*
X167309800Y-92633800D02*
X165735000Y-92633800D01*
X169468800Y-92633800D02*
X167309800Y-92633800D01*
X169799000Y-92964000D02*
X169468800Y-92633800D01*
X169799000Y-97790000D02*
X169799000Y-92964000D01*
X169545000Y-98044000D02*
X169799000Y-97790000D01*
X154178000Y-100584000D02*
X154178000Y-101854000D01*
X142748000Y-125984000D02*
X140208000Y-125984000D01*
X143764000Y-124968000D02*
X142748000Y-125984000D01*
X143764000Y-105156000D02*
X143764000Y-124968000D01*
X146558000Y-102362000D02*
X143764000Y-105156000D01*
X153670000Y-102362000D02*
X146558000Y-102362000D01*
X154178000Y-101854000D02*
X153670000Y-102362000D01*
X165735000Y-91973400D02*
X169951400Y-91973400D01*
X166370000Y-98806000D02*
X158496000Y-98806000D01*
X158496000Y-98806000D02*
X156718000Y-100584000D01*
X169926000Y-98806000D02*
X166370000Y-98806000D01*
X170434000Y-98298000D02*
X169926000Y-98806000D01*
X170434000Y-92456000D02*
X170434000Y-98298000D01*
X169951400Y-91973400D02*
X170434000Y-92456000D01*
X156718000Y-100584000D02*
X156718000Y-102108000D01*
X137668000Y-127000000D02*
X137668000Y-125984000D01*
X137922000Y-127254000D02*
X137668000Y-127000000D01*
X142494000Y-127254000D02*
X137922000Y-127254000D01*
X144526000Y-125222000D02*
X142494000Y-127254000D01*
X144526000Y-105664000D02*
X144526000Y-125222000D01*
X147066000Y-103124000D02*
X144526000Y-105664000D01*
X155702000Y-103124000D02*
X147066000Y-103124000D01*
X156718000Y-102108000D02*
X155702000Y-103124000D01*
X159258000Y-100584000D02*
X159258000Y-101854000D01*
X132588000Y-127254000D02*
X132588000Y-125984000D01*
X133350000Y-128016000D02*
X132588000Y-127254000D01*
X143002000Y-128016000D02*
X133350000Y-128016000D01*
X145288000Y-125730000D02*
X143002000Y-128016000D01*
X145288000Y-106172000D02*
X145288000Y-125730000D01*
X147574000Y-103886000D02*
X145288000Y-106172000D01*
X157226000Y-103886000D02*
X147574000Y-103886000D01*
X159258000Y-101854000D02*
X157226000Y-103886000D01*
X140716000Y-118110000D02*
X140716000Y-106426000D01*
X140716000Y-106426000D02*
X144018000Y-103124000D01*
X137668000Y-123444000D02*
X137668000Y-121158000D01*
X137668000Y-121158000D02*
X140716000Y-118110000D01*
X137668000Y-123444000D02*
X137922000Y-123444000D01*
X141478000Y-104394000D02*
X139700000Y-106172000D01*
X139700000Y-106172000D02*
X139700000Y-118110000D01*
X135128000Y-123444000D02*
X135128000Y-122682000D01*
X135128000Y-122682000D02*
X139700000Y-118110000D01*
X166878000Y-100584000D02*
X166878000Y-101600000D01*
X166878000Y-101600000D02*
X162941000Y-105537000D01*
X162941000Y-105537000D02*
X147447000Y-105537000D01*
X135382000Y-121412000D02*
X138684000Y-118110000D01*
X134366000Y-121412000D02*
X135382000Y-121412000D01*
X134366000Y-121412000D02*
X132588000Y-123190000D01*
X138684000Y-105664000D02*
X138684000Y-118110000D01*
X132588000Y-123444000D02*
X132588000Y-123190000D01*
X153528000Y-118554000D02*
X155004000Y-118554000D01*
X155829000Y-117729000D02*
X155829000Y-107696000D01*
X155004000Y-118554000D02*
X155829000Y-117729000D01*
X171958000Y-100584000D02*
X171958000Y-101727000D01*
X165989000Y-107696000D02*
X155829000Y-107696000D01*
X155829000Y-107696000D02*
X147574000Y-107696000D01*
X171958000Y-101727000D02*
X165989000Y-107696000D01*
X158623000Y-90678000D02*
X157226000Y-89408000D01*
X160401000Y-90678000D02*
X158623000Y-90678000D01*
X172586000Y-123324000D02*
X171528000Y-123324000D01*
X172974000Y-122936000D02*
X172586000Y-123324000D01*
X172974000Y-105918000D02*
X172974000Y-122936000D01*
X175768000Y-103124000D02*
X172974000Y-105918000D01*
X175768000Y-92202000D02*
X175768000Y-103124000D01*
X171528000Y-123324000D02*
X170822000Y-123324000D01*
X170822000Y-123324000D02*
X169052000Y-121554000D01*
X169052000Y-121554000D02*
X167028000Y-121554000D01*
X157988000Y-91313000D02*
X157353000Y-90678000D01*
X160401000Y-91338400D02*
X157988000Y-91313000D01*
X171528000Y-125324000D02*
X170028000Y-125324000D01*
X169258000Y-124554000D02*
X167028000Y-124554000D01*
X170028000Y-125324000D02*
X169258000Y-124554000D01*
G36*
X124779369Y-90043000D02*
X114015185Y-100807185D01*
X113850004Y-101054395D01*
X113792000Y-101346000D01*
X113792000Y-104205369D01*
X112752311Y-105245058D01*
X112728673Y-105209073D01*
X112517640Y-105066623D01*
X112330032Y-105029000D01*
X112394310Y-105029000D01*
X112627699Y-104932327D01*
X112806327Y-104753698D01*
X112903000Y-104520309D01*
X112903000Y-104171750D01*
X112903000Y-103600250D01*
X112903000Y-103251691D01*
X112806327Y-103018302D01*
X112627699Y-102839673D01*
X112394310Y-102743000D01*
X112141691Y-102743000D01*
X111537750Y-102743000D01*
X111379000Y-102901750D01*
X111379000Y-103759000D01*
X112744250Y-103759000D01*
X112903000Y-103600250D01*
X112903000Y-104171750D01*
X112744250Y-104013000D01*
X111379000Y-104013000D01*
X111379000Y-104033000D01*
X111125000Y-104033000D01*
X111125000Y-104013000D01*
X111125000Y-103759000D01*
X111125000Y-102901750D01*
X110966250Y-102743000D01*
X110362309Y-102743000D01*
X110109690Y-102743000D01*
X109876301Y-102839673D01*
X109697673Y-103018302D01*
X109601000Y-103251691D01*
X109601000Y-103600250D01*
X109759750Y-103759000D01*
X111125000Y-103759000D01*
X111125000Y-104013000D01*
X109759750Y-104013000D01*
X109601000Y-104171750D01*
X109601000Y-104394348D01*
X109292480Y-104188203D01*
X108839000Y-104097999D01*
X108839000Y-102869309D01*
X108839000Y-102266750D01*
X108839000Y-101695250D01*
X108839000Y-101092691D01*
X108742327Y-100859302D01*
X108563699Y-100680673D01*
X108330310Y-100584000D01*
X108077691Y-100584000D01*
X107473750Y-100584000D01*
X107315000Y-100742750D01*
X107315000Y-101854000D01*
X108680250Y-101854000D01*
X108839000Y-101695250D01*
X108839000Y-102266750D01*
X108680250Y-102108000D01*
X107315000Y-102108000D01*
X107315000Y-103219250D01*
X107473750Y-103378000D01*
X108077691Y-103378000D01*
X108330310Y-103378000D01*
X108563699Y-103281327D01*
X108742327Y-103102698D01*
X108839000Y-102869309D01*
X108839000Y-104097999D01*
X108838994Y-104098000D01*
X108685645Y-104098000D01*
X108664673Y-104066073D01*
X108453640Y-103923623D01*
X108204000Y-103873560D01*
X107061000Y-103873560D01*
X107061000Y-103219250D01*
X107061000Y-102108000D01*
X105695750Y-102108000D01*
X105537000Y-102266750D01*
X105537000Y-102869309D01*
X105633673Y-103102698D01*
X105812301Y-103281327D01*
X106045690Y-103378000D01*
X106298309Y-103378000D01*
X106902250Y-103378000D01*
X107061000Y-103219250D01*
X107061000Y-103873560D01*
X106172000Y-103873560D01*
X105929877Y-103920537D01*
X105717073Y-104060327D01*
X105574623Y-104271360D01*
X105524560Y-104521000D01*
X105524560Y-106045000D01*
X105571537Y-106287123D01*
X105711327Y-106499927D01*
X105922360Y-106642377D01*
X106172000Y-106692440D01*
X108204000Y-106692440D01*
X108446123Y-106645463D01*
X108494102Y-106613945D01*
X108890075Y-107009918D01*
X108890078Y-107009922D01*
X108890079Y-107009922D01*
X109093733Y-107146000D01*
X108685645Y-107146000D01*
X108664673Y-107114073D01*
X108453640Y-106971623D01*
X108204000Y-106921560D01*
X106172000Y-106921560D01*
X105929877Y-106968537D01*
X105717073Y-107108327D01*
X105691643Y-107146000D01*
X104521005Y-107146000D01*
X104521000Y-107145999D01*
X104067520Y-107236203D01*
X103683078Y-107493078D01*
X103683075Y-107493081D01*
X101744156Y-109432000D01*
X98998826Y-109432000D01*
X98928640Y-109384623D01*
X98679000Y-109334560D01*
X98213000Y-109334560D01*
X98213000Y-108694843D01*
X105537000Y-101370843D01*
X105537000Y-101695250D01*
X105695750Y-101854000D01*
X107061000Y-101854000D01*
X107061000Y-100742750D01*
X106902250Y-100584000D01*
X106323843Y-100584000D01*
X116788918Y-90118924D01*
X116788921Y-90118922D01*
X116788922Y-90118922D01*
X116864843Y-90043000D01*
X124779369Y-90043000D01*
X124779369Y-90043000D01*
G37*
X124779369Y-90043000D02*
X114015185Y-100807185D01*
X113850004Y-101054395D01*
X113792000Y-101346000D01*
X113792000Y-104205369D01*
X112752311Y-105245058D01*
X112728673Y-105209073D01*
X112517640Y-105066623D01*
X112330032Y-105029000D01*
X112394310Y-105029000D01*
X112627699Y-104932327D01*
X112806327Y-104753698D01*
X112903000Y-104520309D01*
X112903000Y-104171750D01*
X112903000Y-103600250D01*
X112903000Y-103251691D01*
X112806327Y-103018302D01*
X112627699Y-102839673D01*
X112394310Y-102743000D01*
X112141691Y-102743000D01*
X111537750Y-102743000D01*
X111379000Y-102901750D01*
X111379000Y-103759000D01*
X112744250Y-103759000D01*
X112903000Y-103600250D01*
X112903000Y-104171750D01*
X112744250Y-104013000D01*
X111379000Y-104013000D01*
X111379000Y-104033000D01*
X111125000Y-104033000D01*
X111125000Y-104013000D01*
X111125000Y-103759000D01*
X111125000Y-102901750D01*
X110966250Y-102743000D01*
X110362309Y-102743000D01*
X110109690Y-102743000D01*
X109876301Y-102839673D01*
X109697673Y-103018302D01*
X109601000Y-103251691D01*
X109601000Y-103600250D01*
X109759750Y-103759000D01*
X111125000Y-103759000D01*
X111125000Y-104013000D01*
X109759750Y-104013000D01*
X109601000Y-104171750D01*
X109601000Y-104394348D01*
X109292480Y-104188203D01*
X108839000Y-104097999D01*
X108839000Y-102869309D01*
X108839000Y-102266750D01*
X108839000Y-101695250D01*
X108839000Y-101092691D01*
X108742327Y-100859302D01*
X108563699Y-100680673D01*
X108330310Y-100584000D01*
X108077691Y-100584000D01*
X107473750Y-100584000D01*
X107315000Y-100742750D01*
X107315000Y-101854000D01*
X108680250Y-101854000D01*
X108839000Y-101695250D01*
X108839000Y-102266750D01*
X108680250Y-102108000D01*
X107315000Y-102108000D01*
X107315000Y-103219250D01*
X107473750Y-103378000D01*
X108077691Y-103378000D01*
X108330310Y-103378000D01*
X108563699Y-103281327D01*
X108742327Y-103102698D01*
X108839000Y-102869309D01*
X108839000Y-104097999D01*
X108838994Y-104098000D01*
X108685645Y-104098000D01*
X108664673Y-104066073D01*
X108453640Y-103923623D01*
X108204000Y-103873560D01*
X107061000Y-103873560D01*
X107061000Y-103219250D01*
X107061000Y-102108000D01*
X105695750Y-102108000D01*
X105537000Y-102266750D01*
X105537000Y-102869309D01*
X105633673Y-103102698D01*
X105812301Y-103281327D01*
X106045690Y-103378000D01*
X106298309Y-103378000D01*
X106902250Y-103378000D01*
X107061000Y-103219250D01*
X107061000Y-103873560D01*
X106172000Y-103873560D01*
X105929877Y-103920537D01*
X105717073Y-104060327D01*
X105574623Y-104271360D01*
X105524560Y-104521000D01*
X105524560Y-106045000D01*
X105571537Y-106287123D01*
X105711327Y-106499927D01*
X105922360Y-106642377D01*
X106172000Y-106692440D01*
X108204000Y-106692440D01*
X108446123Y-106645463D01*
X108494102Y-106613945D01*
X108890075Y-107009918D01*
X108890078Y-107009922D01*
X108890079Y-107009922D01*
X109093733Y-107146000D01*
X108685645Y-107146000D01*
X108664673Y-107114073D01*
X108453640Y-106971623D01*
X108204000Y-106921560D01*
X106172000Y-106921560D01*
X105929877Y-106968537D01*
X105717073Y-107108327D01*
X105691643Y-107146000D01*
X104521005Y-107146000D01*
X104521000Y-107145999D01*
X104067520Y-107236203D01*
X103683078Y-107493078D01*
X103683075Y-107493081D01*
X101744156Y-109432000D01*
X98998826Y-109432000D01*
X98928640Y-109384623D01*
X98679000Y-109334560D01*
X98213000Y-109334560D01*
X98213000Y-108694843D01*
X105537000Y-101370843D01*
X105537000Y-101695250D01*
X105695750Y-101854000D01*
X107061000Y-101854000D01*
X107061000Y-100742750D01*
X106902250Y-100584000D01*
X106323843Y-100584000D01*
X116788918Y-90118924D01*
X116788921Y-90118922D01*
X116788922Y-90118922D01*
X116864843Y-90043000D01*
X124779369Y-90043000D01*
G36*
X133288369Y-121412000D02*
X132751755Y-121948613D01*
X132588000Y-121916041D01*
X132014511Y-122030115D01*
X131528330Y-122354971D01*
X131318000Y-122669751D01*
X131107670Y-122354971D01*
X130621489Y-122030115D01*
X130048000Y-121916041D01*
X129474511Y-122030115D01*
X128988330Y-122354971D01*
X128663474Y-122841152D01*
X128549400Y-123414641D01*
X128549400Y-123473359D01*
X128663474Y-124046848D01*
X128975300Y-124513529D01*
X128942277Y-124519937D01*
X128729473Y-124659727D01*
X128587023Y-124870760D01*
X128536960Y-125120400D01*
X128536960Y-126847600D01*
X128583937Y-127089723D01*
X128723727Y-127302527D01*
X128934760Y-127444977D01*
X129184400Y-127495040D01*
X130911600Y-127495040D01*
X131153723Y-127448063D01*
X131366527Y-127308273D01*
X131508977Y-127097240D01*
X131517179Y-127056340D01*
X131528330Y-127073029D01*
X131830112Y-127274673D01*
X131884004Y-127545605D01*
X132049185Y-127792815D01*
X132095369Y-127839000D01*
X123113000Y-127839000D01*
X123113000Y-124714000D01*
X123113000Y-123444000D01*
X123060857Y-123181862D01*
X122912368Y-122959632D01*
X122690138Y-122811143D01*
X122428000Y-122759000D01*
X119130440Y-122759000D01*
X119130440Y-122174000D01*
X125787880Y-122174000D01*
X125830311Y-122276689D01*
X126133714Y-122580622D01*
X126530332Y-122745313D01*
X126959784Y-122745687D01*
X127356689Y-122581689D01*
X127660622Y-122278286D01*
X127825313Y-121881668D01*
X127825687Y-121452216D01*
X127809070Y-121412000D01*
X133288369Y-121412000D01*
X133288369Y-121412000D01*
G37*
X133288369Y-121412000D02*
X132751755Y-121948613D01*
X132588000Y-121916041D01*
X132014511Y-122030115D01*
X131528330Y-122354971D01*
X131318000Y-122669751D01*
X131107670Y-122354971D01*
X130621489Y-122030115D01*
X130048000Y-121916041D01*
X129474511Y-122030115D01*
X128988330Y-122354971D01*
X128663474Y-122841152D01*
X128549400Y-123414641D01*
X128549400Y-123473359D01*
X128663474Y-124046848D01*
X128975300Y-124513529D01*
X128942277Y-124519937D01*
X128729473Y-124659727D01*
X128587023Y-124870760D01*
X128536960Y-125120400D01*
X128536960Y-126847600D01*
X128583937Y-127089723D01*
X128723727Y-127302527D01*
X128934760Y-127444977D01*
X129184400Y-127495040D01*
X130911600Y-127495040D01*
X131153723Y-127448063D01*
X131366527Y-127308273D01*
X131508977Y-127097240D01*
X131517179Y-127056340D01*
X131528330Y-127073029D01*
X131830112Y-127274673D01*
X131884004Y-127545605D01*
X132049185Y-127792815D01*
X132095369Y-127839000D01*
X123113000Y-127839000D01*
X123113000Y-124714000D01*
X123113000Y-123444000D01*
X123060857Y-123181862D01*
X122912368Y-122959632D01*
X122690138Y-122811143D01*
X122428000Y-122759000D01*
X119130440Y-122759000D01*
X119130440Y-122174000D01*
X125787880Y-122174000D01*
X125830311Y-122276689D01*
X126133714Y-122580622D01*
X126530332Y-122745313D01*
X126959784Y-122745687D01*
X127356689Y-122581689D01*
X127660622Y-122278286D01*
X127825313Y-121881668D01*
X127825687Y-121452216D01*
X127809070Y-121412000D01*
X133288369Y-121412000D01*
G36*
X139419160Y-124714007D02*
X139148330Y-124894971D01*
X138938000Y-125209751D01*
X138727670Y-124894971D01*
X138456827Y-124714000D01*
X138727670Y-124533029D01*
X138943663Y-124209771D01*
X139001179Y-124332490D01*
X139419160Y-124714007D01*
X139419160Y-124714007D01*
G37*
X139419160Y-124714007D02*
X139148330Y-124894971D01*
X138938000Y-125209751D01*
X138727670Y-124894971D01*
X138456827Y-124714000D01*
X138727670Y-124533029D01*
X138943663Y-124209771D01*
X139001179Y-124332490D01*
X139419160Y-124714007D01*
G36*
X139914225Y-91418144D02*
X132557188Y-98775181D01*
X132557185Y-98775184D01*
X125699185Y-105633185D01*
X125534004Y-105880395D01*
X125476000Y-106172000D01*
X125476000Y-115570000D01*
X125490565Y-115643223D01*
X125490487Y-115717877D01*
X125519285Y-115787608D01*
X125534004Y-115861605D01*
X125575480Y-115923678D01*
X125603978Y-115992682D01*
X125674257Y-116098100D01*
X125666687Y-116116332D01*
X125666313Y-116545784D01*
X125787880Y-116840000D01*
X124063000Y-116840000D01*
X124063000Y-115680310D01*
X124063000Y-115427691D01*
X124063000Y-114839750D01*
X124063000Y-114268250D01*
X124063000Y-113680309D01*
X124063000Y-113427690D01*
X123966327Y-113194301D01*
X123787698Y-113015673D01*
X123554309Y-112919000D01*
X122713750Y-112919000D01*
X122555000Y-113077750D01*
X122555000Y-114427000D01*
X123904250Y-114427000D01*
X124063000Y-114268250D01*
X124063000Y-114839750D01*
X123904250Y-114681000D01*
X122555000Y-114681000D01*
X122555000Y-116030250D01*
X122713750Y-116189000D01*
X123554309Y-116189000D01*
X123787698Y-116092327D01*
X123966327Y-115913699D01*
X124063000Y-115680310D01*
X124063000Y-116840000D01*
X115885630Y-116840000D01*
X115570000Y-116524369D01*
X115570000Y-116008220D01*
X115732943Y-115940894D01*
X116078199Y-115596240D01*
X116420637Y-115939278D01*
X117021352Y-116188716D01*
X117671795Y-116189284D01*
X118272943Y-115940894D01*
X118618199Y-115596240D01*
X118960637Y-115939278D01*
X119561352Y-116188716D01*
X120211795Y-116189284D01*
X120812943Y-115940894D01*
X120875196Y-115878749D01*
X120889673Y-115913699D01*
X121068302Y-116092327D01*
X121301691Y-116189000D01*
X122142250Y-116189000D01*
X122301000Y-116030250D01*
X122301000Y-114681000D01*
X122281000Y-114681000D01*
X122281000Y-114427000D01*
X122301000Y-114427000D01*
X122301000Y-113077750D01*
X122142250Y-112919000D01*
X121301691Y-112919000D01*
X121068302Y-113015673D01*
X120889673Y-113194301D01*
X120875369Y-113228833D01*
X120815363Y-113168722D01*
X120214648Y-112919284D01*
X119564205Y-112918716D01*
X119519440Y-112937212D01*
X119519440Y-108000800D01*
X119519440Y-104343200D01*
X119472463Y-104101077D01*
X119332673Y-103888273D01*
X119121640Y-103745823D01*
X118872000Y-103695760D01*
X116840000Y-103695760D01*
X116597877Y-103742737D01*
X116385073Y-103882527D01*
X116242623Y-104093560D01*
X116192560Y-104343200D01*
X116192560Y-108000800D01*
X116239537Y-108242923D01*
X116379327Y-108455727D01*
X116590360Y-108598177D01*
X116840000Y-108648240D01*
X118872000Y-108648240D01*
X119114123Y-108601263D01*
X119326927Y-108461473D01*
X119469377Y-108250440D01*
X119519440Y-108000800D01*
X119519440Y-112937212D01*
X118963057Y-113167106D01*
X118617800Y-113511759D01*
X118275363Y-113168722D01*
X118070117Y-113083496D01*
X118051996Y-112992396D01*
X118051996Y-112992395D01*
X117985834Y-112893376D01*
X117886816Y-112745185D01*
X115316000Y-110174369D01*
X115316000Y-108204000D01*
X115257996Y-107912396D01*
X115257996Y-107912395D01*
X115092815Y-107665185D01*
X113790130Y-106362500D01*
X115092815Y-105059815D01*
X115092816Y-105059815D01*
X115257996Y-104812605D01*
X115257997Y-104812604D01*
X115316000Y-104521000D01*
X115316000Y-101661630D01*
X125791630Y-91186000D01*
X139570358Y-91186000D01*
X139722714Y-91338622D01*
X139914225Y-91418144D01*
X139914225Y-91418144D01*
G37*
X139914225Y-91418144D02*
X132557188Y-98775181D01*
X132557185Y-98775184D01*
X125699185Y-105633185D01*
X125534004Y-105880395D01*
X125476000Y-106172000D01*
X125476000Y-115570000D01*
X125490565Y-115643223D01*
X125490487Y-115717877D01*
X125519285Y-115787608D01*
X125534004Y-115861605D01*
X125575480Y-115923678D01*
X125603978Y-115992682D01*
X125674257Y-116098100D01*
X125666687Y-116116332D01*
X125666313Y-116545784D01*
X125787880Y-116840000D01*
X124063000Y-116840000D01*
X124063000Y-115680310D01*
X124063000Y-115427691D01*
X124063000Y-114839750D01*
X124063000Y-114268250D01*
X124063000Y-113680309D01*
X124063000Y-113427690D01*
X123966327Y-113194301D01*
X123787698Y-113015673D01*
X123554309Y-112919000D01*
X122713750Y-112919000D01*
X122555000Y-113077750D01*
X122555000Y-114427000D01*
X123904250Y-114427000D01*
X124063000Y-114268250D01*
X124063000Y-114839750D01*
X123904250Y-114681000D01*
X122555000Y-114681000D01*
X122555000Y-116030250D01*
X122713750Y-116189000D01*
X123554309Y-116189000D01*
X123787698Y-116092327D01*
X123966327Y-115913699D01*
X124063000Y-115680310D01*
X124063000Y-116840000D01*
X115885630Y-116840000D01*
X115570000Y-116524369D01*
X115570000Y-116008220D01*
X115732943Y-115940894D01*
X116078199Y-115596240D01*
X116420637Y-115939278D01*
X117021352Y-116188716D01*
X117671795Y-116189284D01*
X118272943Y-115940894D01*
X118618199Y-115596240D01*
X118960637Y-115939278D01*
X119561352Y-116188716D01*
X120211795Y-116189284D01*
X120812943Y-115940894D01*
X120875196Y-115878749D01*
X120889673Y-115913699D01*
X121068302Y-116092327D01*
X121301691Y-116189000D01*
X122142250Y-116189000D01*
X122301000Y-116030250D01*
X122301000Y-114681000D01*
X122281000Y-114681000D01*
X122281000Y-114427000D01*
X122301000Y-114427000D01*
X122301000Y-113077750D01*
X122142250Y-112919000D01*
X121301691Y-112919000D01*
X121068302Y-113015673D01*
X120889673Y-113194301D01*
X120875369Y-113228833D01*
X120815363Y-113168722D01*
X120214648Y-112919284D01*
X119564205Y-112918716D01*
X119519440Y-112937212D01*
X119519440Y-108000800D01*
X119519440Y-104343200D01*
X119472463Y-104101077D01*
X119332673Y-103888273D01*
X119121640Y-103745823D01*
X118872000Y-103695760D01*
X116840000Y-103695760D01*
X116597877Y-103742737D01*
X116385073Y-103882527D01*
X116242623Y-104093560D01*
X116192560Y-104343200D01*
X116192560Y-108000800D01*
X116239537Y-108242923D01*
X116379327Y-108455727D01*
X116590360Y-108598177D01*
X116840000Y-108648240D01*
X118872000Y-108648240D01*
X119114123Y-108601263D01*
X119326927Y-108461473D01*
X119469377Y-108250440D01*
X119519440Y-108000800D01*
X119519440Y-112937212D01*
X118963057Y-113167106D01*
X118617800Y-113511759D01*
X118275363Y-113168722D01*
X118070117Y-113083496D01*
X118051996Y-112992396D01*
X118051996Y-112992395D01*
X117985834Y-112893376D01*
X117886816Y-112745185D01*
X115316000Y-110174369D01*
X115316000Y-108204000D01*
X115257996Y-107912396D01*
X115257996Y-107912395D01*
X115092815Y-107665185D01*
X113790130Y-106362500D01*
X115092815Y-105059815D01*
X115092816Y-105059815D01*
X115257996Y-104812605D01*
X115257997Y-104812604D01*
X115316000Y-104521000D01*
X115316000Y-101661630D01*
X125791630Y-91186000D01*
X139570358Y-91186000D01*
X139722714Y-91338622D01*
X139914225Y-91418144D01*
G36*
X143002000Y-124652370D02*
X142432370Y-125222000D01*
X141486183Y-125222000D01*
X141267670Y-124894971D01*
X140996839Y-124714007D01*
X141414821Y-124332490D01*
X141662968Y-123803027D01*
X141662968Y-123084973D01*
X141414821Y-122555510D01*
X140982947Y-122161312D01*
X140567026Y-121989042D01*
X140335000Y-122110183D01*
X140335000Y-123317000D01*
X141542469Y-123317000D01*
X141662968Y-123084973D01*
X141662968Y-123803027D01*
X141542469Y-123571000D01*
X140335000Y-123571000D01*
X140335000Y-123591000D01*
X140081000Y-123591000D01*
X140081000Y-123571000D01*
X140061000Y-123571000D01*
X140061000Y-123317000D01*
X140081000Y-123317000D01*
X140081000Y-122110183D01*
X139848974Y-121989042D01*
X139433053Y-122161312D01*
X139001179Y-122555510D01*
X138943663Y-122678228D01*
X138727670Y-122354971D01*
X138430000Y-122156074D01*
X138430000Y-121473630D01*
X141254815Y-118648815D01*
X141419996Y-118401605D01*
X141419996Y-118401604D01*
X141478000Y-118110000D01*
X141478000Y-106741630D01*
X143002000Y-105217630D01*
X143002000Y-124652370D01*
X143002000Y-124652370D01*
G37*
X143002000Y-124652370D02*
X142432370Y-125222000D01*
X141486183Y-125222000D01*
X141267670Y-124894971D01*
X140996839Y-124714007D01*
X141414821Y-124332490D01*
X141662968Y-123803027D01*
X141662968Y-123084973D01*
X141414821Y-122555510D01*
X140982947Y-122161312D01*
X140567026Y-121989042D01*
X140335000Y-122110183D01*
X140335000Y-123317000D01*
X141542469Y-123317000D01*
X141662968Y-123084973D01*
X141662968Y-123803027D01*
X141542469Y-123571000D01*
X140335000Y-123571000D01*
X140335000Y-123591000D01*
X140081000Y-123591000D01*
X140081000Y-123571000D01*
X140061000Y-123571000D01*
X140061000Y-123317000D01*
X140081000Y-123317000D01*
X140081000Y-122110183D01*
X139848974Y-121989042D01*
X139433053Y-122161312D01*
X139001179Y-122555510D01*
X138943663Y-122678228D01*
X138727670Y-122354971D01*
X138430000Y-122156074D01*
X138430000Y-121473630D01*
X141254815Y-118648815D01*
X141419996Y-118401605D01*
X141419996Y-118401604D01*
X141478000Y-118110000D01*
X141478000Y-106741630D01*
X143002000Y-105217630D01*
X143002000Y-124652370D01*
G36*
X154706000Y-96393000D02*
X154686000Y-96393000D01*
X154686000Y-96413000D01*
X154432000Y-96413000D01*
X154432000Y-96393000D01*
X153320750Y-96393000D01*
X153162000Y-96551750D01*
X153162000Y-97155691D01*
X153162000Y-97408310D01*
X153258673Y-97641699D01*
X153380671Y-97763697D01*
X152231843Y-98912525D01*
X152182329Y-98879441D01*
X151638000Y-98771167D01*
X151093671Y-98879441D01*
X151044156Y-98912525D01*
X149636815Y-97505185D01*
X149389605Y-97340004D01*
X149098000Y-97282000D01*
X141539630Y-97282000D01*
X143470030Y-95351600D01*
X145948400Y-95351600D01*
X146050000Y-95351600D01*
X153162000Y-95351600D01*
X153162000Y-95376309D01*
X153162000Y-95980250D01*
X153320750Y-96139000D01*
X154432000Y-96139000D01*
X154432000Y-96119000D01*
X154686000Y-96119000D01*
X154686000Y-96139000D01*
X154706000Y-96139000D01*
X154706000Y-96393000D01*
X154706000Y-96393000D01*
G37*
X154706000Y-96393000D02*
X154686000Y-96393000D01*
X154686000Y-96413000D01*
X154432000Y-96413000D01*
X154432000Y-96393000D01*
X153320750Y-96393000D01*
X153162000Y-96551750D01*
X153162000Y-97155691D01*
X153162000Y-97408310D01*
X153258673Y-97641699D01*
X153380671Y-97763697D01*
X152231843Y-98912525D01*
X152182329Y-98879441D01*
X151638000Y-98771167D01*
X151093671Y-98879441D01*
X151044156Y-98912525D01*
X149636815Y-97505185D01*
X149389605Y-97340004D01*
X149098000Y-97282000D01*
X141539630Y-97282000D01*
X143470030Y-95351600D01*
X145948400Y-95351600D01*
X146050000Y-95351600D01*
X153162000Y-95351600D01*
X153162000Y-95376309D01*
X153162000Y-95980250D01*
X153320750Y-96139000D01*
X154432000Y-96139000D01*
X154432000Y-96119000D01*
X154686000Y-96119000D01*
X154686000Y-96139000D01*
X154706000Y-96139000D01*
X154706000Y-96393000D01*
G36*
X164540709Y-96393000D02*
X164272630Y-96393000D01*
X162590815Y-94711185D01*
X162343605Y-94546004D01*
X162052000Y-94488000D01*
X161683440Y-94488000D01*
X161683440Y-94386400D01*
X161658392Y-94257301D01*
X161683440Y-94132400D01*
X161683440Y-93726000D01*
X161660896Y-93609811D01*
X161683440Y-93497400D01*
X161683440Y-93091000D01*
X161658392Y-92961901D01*
X161683440Y-92837000D01*
X161683440Y-92430600D01*
X161658392Y-92301501D01*
X161683440Y-92176600D01*
X161683440Y-91770200D01*
X161660896Y-91654011D01*
X161683440Y-91541600D01*
X161683440Y-91135200D01*
X161658392Y-91006101D01*
X161683440Y-90881200D01*
X161683440Y-90474800D01*
X161665956Y-90384686D01*
X161671000Y-90372509D01*
X161671000Y-90303350D01*
X161645161Y-90277511D01*
X161636463Y-90232677D01*
X161496673Y-90019873D01*
X161380418Y-89941400D01*
X161512250Y-89941400D01*
X161671000Y-89782650D01*
X161671000Y-89713491D01*
X161574327Y-89480102D01*
X161395699Y-89301473D01*
X161162310Y-89204800D01*
X160909691Y-89204800D01*
X160686750Y-89204800D01*
X160528000Y-89363550D01*
X160528000Y-89827360D01*
X160274000Y-89827360D01*
X160274000Y-89363550D01*
X160115250Y-89204800D01*
X159892309Y-89204800D01*
X159639690Y-89204800D01*
X159406301Y-89301473D01*
X159227673Y-89480102D01*
X159131000Y-89713491D01*
X159131000Y-89782650D01*
X159264348Y-89915998D01*
X159131000Y-89915998D01*
X159131000Y-89916000D01*
X158917594Y-89916000D01*
X158305542Y-89359589D01*
X158305687Y-89194216D01*
X158289070Y-89154000D01*
X162165704Y-89154000D01*
X162306000Y-89266235D01*
X162306000Y-93726000D01*
X162364004Y-94017605D01*
X162529185Y-94264815D01*
X163392785Y-95128415D01*
X163639995Y-95293596D01*
X163639996Y-95293596D01*
X163931600Y-95351600D01*
X164452560Y-95351600D01*
X164452560Y-95453200D01*
X164475103Y-95569388D01*
X164452560Y-95681800D01*
X164452560Y-96088200D01*
X164499537Y-96330323D01*
X164540709Y-96393000D01*
X164540709Y-96393000D01*
G37*
X164540709Y-96393000D02*
X164272630Y-96393000D01*
X162590815Y-94711185D01*
X162343605Y-94546004D01*
X162052000Y-94488000D01*
X161683440Y-94488000D01*
X161683440Y-94386400D01*
X161658392Y-94257301D01*
X161683440Y-94132400D01*
X161683440Y-93726000D01*
X161660896Y-93609811D01*
X161683440Y-93497400D01*
X161683440Y-93091000D01*
X161658392Y-92961901D01*
X161683440Y-92837000D01*
X161683440Y-92430600D01*
X161658392Y-92301501D01*
X161683440Y-92176600D01*
X161683440Y-91770200D01*
X161660896Y-91654011D01*
X161683440Y-91541600D01*
X161683440Y-91135200D01*
X161658392Y-91006101D01*
X161683440Y-90881200D01*
X161683440Y-90474800D01*
X161665956Y-90384686D01*
X161671000Y-90372509D01*
X161671000Y-90303350D01*
X161645161Y-90277511D01*
X161636463Y-90232677D01*
X161496673Y-90019873D01*
X161380418Y-89941400D01*
X161512250Y-89941400D01*
X161671000Y-89782650D01*
X161671000Y-89713491D01*
X161574327Y-89480102D01*
X161395699Y-89301473D01*
X161162310Y-89204800D01*
X160909691Y-89204800D01*
X160686750Y-89204800D01*
X160528000Y-89363550D01*
X160528000Y-89827360D01*
X160274000Y-89827360D01*
X160274000Y-89363550D01*
X160115250Y-89204800D01*
X159892309Y-89204800D01*
X159639690Y-89204800D01*
X159406301Y-89301473D01*
X159227673Y-89480102D01*
X159131000Y-89713491D01*
X159131000Y-89782650D01*
X159264348Y-89915998D01*
X159131000Y-89915998D01*
X159131000Y-89916000D01*
X158917594Y-89916000D01*
X158305542Y-89359589D01*
X158305687Y-89194216D01*
X158289070Y-89154000D01*
X162165704Y-89154000D01*
X162306000Y-89266235D01*
X162306000Y-93726000D01*
X162364004Y-94017605D01*
X162529185Y-94264815D01*
X163392785Y-95128415D01*
X163639995Y-95293596D01*
X163639996Y-95293596D01*
X163931600Y-95351600D01*
X164452560Y-95351600D01*
X164452560Y-95453200D01*
X164475103Y-95569388D01*
X164452560Y-95681800D01*
X164452560Y-96088200D01*
X164499537Y-96330323D01*
X164540709Y-96393000D01*
G36*
X175006000Y-102808369D02*
X172435185Y-105379185D01*
X172270004Y-105626395D01*
X172212000Y-105918000D01*
X172212000Y-108097331D01*
X171732829Y-107926799D01*
X171182552Y-107954770D01*
X170804077Y-108111540D01*
X170736088Y-108352483D01*
X171528000Y-109144395D01*
X171542142Y-109130252D01*
X171721747Y-109309857D01*
X171707605Y-109324000D01*
X171721747Y-109338142D01*
X171542142Y-109517747D01*
X171528000Y-109503605D01*
X171348395Y-109683209D01*
X171348395Y-109324000D01*
X170556483Y-108532088D01*
X170315540Y-108600077D01*
X170130799Y-109119171D01*
X170158770Y-109669448D01*
X170315540Y-110047923D01*
X170556483Y-110115912D01*
X171348395Y-109324000D01*
X171348395Y-109683209D01*
X170979571Y-110052033D01*
X170744485Y-110149169D01*
X170354539Y-110538436D01*
X170143241Y-111047298D01*
X170142760Y-111598285D01*
X170353169Y-112107515D01*
X170569312Y-112324035D01*
X170354539Y-112538436D01*
X170143241Y-113047298D01*
X170142760Y-113598285D01*
X170353169Y-114107515D01*
X170569312Y-114324035D01*
X170354539Y-114538436D01*
X170143241Y-115047298D01*
X170142760Y-115598285D01*
X170353169Y-116107515D01*
X170569312Y-116324035D01*
X170354539Y-116538436D01*
X170143241Y-117047298D01*
X170142760Y-117598285D01*
X170353169Y-118107515D01*
X170569312Y-118324035D01*
X170354539Y-118538436D01*
X170143241Y-119047298D01*
X170142760Y-119598285D01*
X170353169Y-120107515D01*
X170569312Y-120324035D01*
X170354539Y-120538436D01*
X170143241Y-121047298D01*
X170142787Y-121567157D01*
X169590815Y-121015185D01*
X169343605Y-120850004D01*
X169052000Y-120792000D01*
X168647765Y-120792000D01*
X168675440Y-120654000D01*
X168675440Y-119454000D01*
X168645855Y-119301521D01*
X168675440Y-119154000D01*
X168675440Y-117954000D01*
X168645855Y-117801521D01*
X168675440Y-117654000D01*
X168675440Y-116454000D01*
X168645855Y-116301521D01*
X168675440Y-116154000D01*
X168675440Y-114954000D01*
X168628463Y-114711877D01*
X168488673Y-114499073D01*
X168277640Y-114356623D01*
X168028000Y-114306560D01*
X166028000Y-114306560D01*
X165785877Y-114353537D01*
X165573073Y-114493327D01*
X165430623Y-114704360D01*
X165380560Y-114954000D01*
X165380560Y-116154000D01*
X165410144Y-116306478D01*
X165380560Y-116454000D01*
X165380560Y-117654000D01*
X165410144Y-117806478D01*
X165380560Y-117954000D01*
X165380560Y-119154000D01*
X165410144Y-119306478D01*
X165380560Y-119454000D01*
X165380560Y-120654000D01*
X165410144Y-120806478D01*
X165380560Y-120954000D01*
X165380560Y-122154000D01*
X165410144Y-122306478D01*
X165380560Y-122454000D01*
X165380560Y-123654000D01*
X165410144Y-123806478D01*
X165380560Y-123954000D01*
X165380560Y-125154000D01*
X165410144Y-125306478D01*
X165380560Y-125454000D01*
X165380560Y-126562000D01*
X161925000Y-126562000D01*
X161868000Y-126562000D01*
X155175440Y-126562000D01*
X155175440Y-125454000D01*
X155145855Y-125301521D01*
X155175440Y-125154000D01*
X155175440Y-123954000D01*
X155145855Y-123801521D01*
X155175440Y-123654000D01*
X155175440Y-122454000D01*
X155145855Y-122301521D01*
X155175440Y-122154000D01*
X155175440Y-120954000D01*
X155148522Y-120815262D01*
X155163000Y-120780310D01*
X155163000Y-120527691D01*
X155163000Y-120339750D01*
X155004250Y-120181000D01*
X153655000Y-120181000D01*
X153655000Y-120201000D01*
X153401000Y-120201000D01*
X153401000Y-120181000D01*
X153381000Y-120181000D01*
X153381000Y-119927000D01*
X153401000Y-119927000D01*
X153401000Y-119907000D01*
X153655000Y-119907000D01*
X153655000Y-119927000D01*
X155004250Y-119927000D01*
X155163000Y-119768250D01*
X155163000Y-119580309D01*
X155163000Y-119327690D01*
X155147912Y-119291265D01*
X155148725Y-119287212D01*
X155295604Y-119257996D01*
X155295605Y-119257996D01*
X155542815Y-119092815D01*
X156367815Y-118267816D01*
X156367815Y-118267815D01*
X156532996Y-118020605D01*
X156590999Y-117729000D01*
X156591000Y-117729000D01*
X156591000Y-108458000D01*
X165989000Y-108458000D01*
X165989000Y-108457999D01*
X166280604Y-108399996D01*
X166280605Y-108399996D01*
X166527815Y-108234815D01*
X172467055Y-102295575D01*
X172502329Y-102288559D01*
X172963789Y-101980222D01*
X173227753Y-101585170D01*
X173232475Y-101601262D01*
X173582014Y-102035191D01*
X174071004Y-102302327D01*
X174150940Y-102319010D01*
X174371000Y-102196852D01*
X174371000Y-100711000D01*
X174351000Y-100711000D01*
X174351000Y-100457000D01*
X174371000Y-100457000D01*
X174371000Y-98971148D01*
X174150940Y-98848990D01*
X174071004Y-98865673D01*
X173582014Y-99132809D01*
X173232475Y-99566738D01*
X173228000Y-99581987D01*
X173228000Y-97281310D01*
X173228000Y-97028691D01*
X173228000Y-96424750D01*
X173228000Y-95853250D01*
X173228000Y-95249309D01*
X173228000Y-94996690D01*
X173131327Y-94763301D01*
X172952698Y-94584673D01*
X172719309Y-94488000D01*
X172116750Y-94488000D01*
X171958000Y-94646750D01*
X171958000Y-96012000D01*
X173069250Y-96012000D01*
X173228000Y-95853250D01*
X173228000Y-96424750D01*
X173069250Y-96266000D01*
X171958000Y-96266000D01*
X171958000Y-97631250D01*
X172116750Y-97790000D01*
X172719309Y-97790000D01*
X172952698Y-97693327D01*
X173131327Y-97514699D01*
X173228000Y-97281310D01*
X173228000Y-99581987D01*
X173227753Y-99582829D01*
X172963789Y-99187778D01*
X172502329Y-98879441D01*
X171958000Y-98771167D01*
X171413671Y-98879441D01*
X170952211Y-99187778D01*
X170688000Y-99583198D01*
X170503121Y-99306508D01*
X170972815Y-98836816D01*
X170972815Y-98836815D01*
X171137996Y-98589605D01*
X171195999Y-98298000D01*
X171196000Y-98298000D01*
X171196000Y-97790000D01*
X171545250Y-97790000D01*
X171704000Y-97631250D01*
X171704000Y-96266000D01*
X171684000Y-96266000D01*
X171684000Y-96012000D01*
X171704000Y-96012000D01*
X171704000Y-94646750D01*
X171545250Y-94488000D01*
X171196000Y-94488000D01*
X171196000Y-92456000D01*
X171137996Y-92164395D01*
X171095235Y-92100400D01*
X174688587Y-92100400D01*
X174688313Y-92415784D01*
X174852311Y-92812689D01*
X175006000Y-92966646D01*
X175006000Y-98909925D01*
X174924996Y-98865673D01*
X174845060Y-98848990D01*
X174625000Y-98971148D01*
X174625000Y-100457000D01*
X174645000Y-100457000D01*
X174645000Y-100711000D01*
X174625000Y-100711000D01*
X174625000Y-102196852D01*
X174845060Y-102319010D01*
X174924996Y-102302327D01*
X175006000Y-102258074D01*
X175006000Y-102808369D01*
X175006000Y-102808369D01*
G37*
X175006000Y-102808369D02*
X172435185Y-105379185D01*
X172270004Y-105626395D01*
X172212000Y-105918000D01*
X172212000Y-108097331D01*
X171732829Y-107926799D01*
X171182552Y-107954770D01*
X170804077Y-108111540D01*
X170736088Y-108352483D01*
X171528000Y-109144395D01*
X171542142Y-109130252D01*
X171721747Y-109309857D01*
X171707605Y-109324000D01*
X171721747Y-109338142D01*
X171542142Y-109517747D01*
X171528000Y-109503605D01*
X171348395Y-109683209D01*
X171348395Y-109324000D01*
X170556483Y-108532088D01*
X170315540Y-108600077D01*
X170130799Y-109119171D01*
X170158770Y-109669448D01*
X170315540Y-110047923D01*
X170556483Y-110115912D01*
X171348395Y-109324000D01*
X171348395Y-109683209D01*
X170979571Y-110052033D01*
X170744485Y-110149169D01*
X170354539Y-110538436D01*
X170143241Y-111047298D01*
X170142760Y-111598285D01*
X170353169Y-112107515D01*
X170569312Y-112324035D01*
X170354539Y-112538436D01*
X170143241Y-113047298D01*
X170142760Y-113598285D01*
X170353169Y-114107515D01*
X170569312Y-114324035D01*
X170354539Y-114538436D01*
X170143241Y-115047298D01*
X170142760Y-115598285D01*
X170353169Y-116107515D01*
X170569312Y-116324035D01*
X170354539Y-116538436D01*
X170143241Y-117047298D01*
X170142760Y-117598285D01*
X170353169Y-118107515D01*
X170569312Y-118324035D01*
X170354539Y-118538436D01*
X170143241Y-119047298D01*
X170142760Y-119598285D01*
X170353169Y-120107515D01*
X170569312Y-120324035D01*
X170354539Y-120538436D01*
X170143241Y-121047298D01*
X170142787Y-121567157D01*
X169590815Y-121015185D01*
X169343605Y-120850004D01*
X169052000Y-120792000D01*
X168647765Y-120792000D01*
X168675440Y-120654000D01*
X168675440Y-119454000D01*
X168645855Y-119301521D01*
X168675440Y-119154000D01*
X168675440Y-117954000D01*
X168645855Y-117801521D01*
X168675440Y-117654000D01*
X168675440Y-116454000D01*
X168645855Y-116301521D01*
X168675440Y-116154000D01*
X168675440Y-114954000D01*
X168628463Y-114711877D01*
X168488673Y-114499073D01*
X168277640Y-114356623D01*
X168028000Y-114306560D01*
X166028000Y-114306560D01*
X165785877Y-114353537D01*
X165573073Y-114493327D01*
X165430623Y-114704360D01*
X165380560Y-114954000D01*
X165380560Y-116154000D01*
X165410144Y-116306478D01*
X165380560Y-116454000D01*
X165380560Y-117654000D01*
X165410144Y-117806478D01*
X165380560Y-117954000D01*
X165380560Y-119154000D01*
X165410144Y-119306478D01*
X165380560Y-119454000D01*
X165380560Y-120654000D01*
X165410144Y-120806478D01*
X165380560Y-120954000D01*
X165380560Y-122154000D01*
X165410144Y-122306478D01*
X165380560Y-122454000D01*
X165380560Y-123654000D01*
X165410144Y-123806478D01*
X165380560Y-123954000D01*
X165380560Y-125154000D01*
X165410144Y-125306478D01*
X165380560Y-125454000D01*
X165380560Y-126562000D01*
X161925000Y-126562000D01*
X161868000Y-126562000D01*
X155175440Y-126562000D01*
X155175440Y-125454000D01*
X155145855Y-125301521D01*
X155175440Y-125154000D01*
X155175440Y-123954000D01*
X155145855Y-123801521D01*
X155175440Y-123654000D01*
X155175440Y-122454000D01*
X155145855Y-122301521D01*
X155175440Y-122154000D01*
X155175440Y-120954000D01*
X155148522Y-120815262D01*
X155163000Y-120780310D01*
X155163000Y-120527691D01*
X155163000Y-120339750D01*
X155004250Y-120181000D01*
X153655000Y-120181000D01*
X153655000Y-120201000D01*
X153401000Y-120201000D01*
X153401000Y-120181000D01*
X153381000Y-120181000D01*
X153381000Y-119927000D01*
X153401000Y-119927000D01*
X153401000Y-119907000D01*
X153655000Y-119907000D01*
X153655000Y-119927000D01*
X155004250Y-119927000D01*
X155163000Y-119768250D01*
X155163000Y-119580309D01*
X155163000Y-119327690D01*
X155147912Y-119291265D01*
X155148725Y-119287212D01*
X155295604Y-119257996D01*
X155295605Y-119257996D01*
X155542815Y-119092815D01*
X156367815Y-118267816D01*
X156367815Y-118267815D01*
X156532996Y-118020605D01*
X156590999Y-117729000D01*
X156591000Y-117729000D01*
X156591000Y-108458000D01*
X165989000Y-108458000D01*
X165989000Y-108457999D01*
X166280604Y-108399996D01*
X166280605Y-108399996D01*
X166527815Y-108234815D01*
X172467055Y-102295575D01*
X172502329Y-102288559D01*
X172963789Y-101980222D01*
X173227753Y-101585170D01*
X173232475Y-101601262D01*
X173582014Y-102035191D01*
X174071004Y-102302327D01*
X174150940Y-102319010D01*
X174371000Y-102196852D01*
X174371000Y-100711000D01*
X174351000Y-100711000D01*
X174351000Y-100457000D01*
X174371000Y-100457000D01*
X174371000Y-98971148D01*
X174150940Y-98848990D01*
X174071004Y-98865673D01*
X173582014Y-99132809D01*
X173232475Y-99566738D01*
X173228000Y-99581987D01*
X173228000Y-97281310D01*
X173228000Y-97028691D01*
X173228000Y-96424750D01*
X173228000Y-95853250D01*
X173228000Y-95249309D01*
X173228000Y-94996690D01*
X173131327Y-94763301D01*
X172952698Y-94584673D01*
X172719309Y-94488000D01*
X172116750Y-94488000D01*
X171958000Y-94646750D01*
X171958000Y-96012000D01*
X173069250Y-96012000D01*
X173228000Y-95853250D01*
X173228000Y-96424750D01*
X173069250Y-96266000D01*
X171958000Y-96266000D01*
X171958000Y-97631250D01*
X172116750Y-97790000D01*
X172719309Y-97790000D01*
X172952698Y-97693327D01*
X173131327Y-97514699D01*
X173228000Y-97281310D01*
X173228000Y-99581987D01*
X173227753Y-99582829D01*
X172963789Y-99187778D01*
X172502329Y-98879441D01*
X171958000Y-98771167D01*
X171413671Y-98879441D01*
X170952211Y-99187778D01*
X170688000Y-99583198D01*
X170503121Y-99306508D01*
X170972815Y-98836816D01*
X170972815Y-98836815D01*
X171137996Y-98589605D01*
X171195999Y-98298000D01*
X171196000Y-98298000D01*
X171196000Y-97790000D01*
X171545250Y-97790000D01*
X171704000Y-97631250D01*
X171704000Y-96266000D01*
X171684000Y-96266000D01*
X171684000Y-96012000D01*
X171704000Y-96012000D01*
X171704000Y-94646750D01*
X171545250Y-94488000D01*
X171196000Y-94488000D01*
X171196000Y-92456000D01*
X171137996Y-92164395D01*
X171095235Y-92100400D01*
X174688587Y-92100400D01*
X174688313Y-92415784D01*
X174852311Y-92812689D01*
X175006000Y-92966646D01*
X175006000Y-98909925D01*
X174924996Y-98865673D01*
X174845060Y-98848990D01*
X174625000Y-98971148D01*
X174625000Y-100457000D01*
X174645000Y-100457000D01*
X174645000Y-100711000D01*
X174625000Y-100711000D01*
X174625000Y-102196852D01*
X174845060Y-102319010D01*
X174924996Y-102302327D01*
X175006000Y-102258074D01*
X175006000Y-102808369D01*
G36*
X177623000Y-83553560D02*
X176250600Y-83553560D01*
X176008477Y-83600537D01*
X175795673Y-83740327D01*
X175653223Y-83951360D01*
X175619279Y-84120621D01*
X175503789Y-83947778D01*
X175042329Y-83639441D01*
X174498000Y-83531167D01*
X173953671Y-83639441D01*
X173492211Y-83947778D01*
X173228246Y-84342829D01*
X173223525Y-84326738D01*
X172873986Y-83892809D01*
X172384996Y-83625673D01*
X172305060Y-83608990D01*
X172085000Y-83731148D01*
X172085000Y-85217000D01*
X172105000Y-85217000D01*
X172105000Y-85471000D01*
X172085000Y-85471000D01*
X172085000Y-86956852D01*
X172305060Y-87079010D01*
X172384996Y-87062327D01*
X172873986Y-86795191D01*
X173223525Y-86361262D01*
X173228246Y-86345170D01*
X173492211Y-86740222D01*
X173736000Y-86903116D01*
X173736000Y-89473370D01*
X173293370Y-89916000D01*
X173228000Y-89916000D01*
X173228000Y-89789691D01*
X173228000Y-89185750D01*
X173228000Y-88614250D01*
X173228000Y-88010309D01*
X173228000Y-87757690D01*
X173131327Y-87524301D01*
X172952698Y-87345673D01*
X172719309Y-87249000D01*
X172116750Y-87249000D01*
X171958000Y-87407750D01*
X171958000Y-88773000D01*
X173069250Y-88773000D01*
X173228000Y-88614250D01*
X173228000Y-89185750D01*
X173069250Y-89027000D01*
X171958000Y-89027000D01*
X171958000Y-89047000D01*
X171831000Y-89047000D01*
X171831000Y-86956852D01*
X171831000Y-85471000D01*
X171831000Y-85217000D01*
X171831000Y-83731148D01*
X171610940Y-83608990D01*
X171531004Y-83625673D01*
X171042014Y-83892809D01*
X170692475Y-84326738D01*
X170688000Y-84341989D01*
X170683525Y-84326738D01*
X170333986Y-83892809D01*
X169844996Y-83625673D01*
X169765060Y-83608990D01*
X169545000Y-83731148D01*
X169545000Y-85217000D01*
X170535600Y-85217000D01*
X170840400Y-85217000D01*
X171831000Y-85217000D01*
X171831000Y-85471000D01*
X170840400Y-85471000D01*
X170535600Y-85471000D01*
X169545000Y-85471000D01*
X169545000Y-86956852D01*
X169765060Y-87079010D01*
X169844996Y-87062327D01*
X170333986Y-86795191D01*
X170683525Y-86361262D01*
X170688000Y-86346010D01*
X170692475Y-86361262D01*
X171042014Y-86795191D01*
X171531004Y-87062327D01*
X171610940Y-87079010D01*
X171831000Y-86956852D01*
X171831000Y-89047000D01*
X171704000Y-89047000D01*
X171704000Y-89027000D01*
X171704000Y-88773000D01*
X171704000Y-87407750D01*
X171545250Y-87249000D01*
X170942691Y-87249000D01*
X170709302Y-87345673D01*
X170530673Y-87524301D01*
X170434000Y-87757690D01*
X170434000Y-88010309D01*
X170434000Y-88614250D01*
X170592750Y-88773000D01*
X171704000Y-88773000D01*
X171704000Y-89027000D01*
X170592750Y-89027000D01*
X170434000Y-89185750D01*
X170434000Y-89789691D01*
X170434000Y-89916000D01*
X169938440Y-89916000D01*
X169938440Y-87884000D01*
X169891463Y-87641877D01*
X169751673Y-87429073D01*
X169540640Y-87286623D01*
X169291000Y-87236560D01*
X167767000Y-87236560D01*
X167524877Y-87283537D01*
X167312073Y-87423327D01*
X167169623Y-87634360D01*
X167119560Y-87884000D01*
X167119560Y-88138000D01*
X166497000Y-88138000D01*
X166205395Y-88196004D01*
X166106376Y-88262165D01*
X165958185Y-88361184D01*
X165196185Y-89123185D01*
X165149963Y-89192360D01*
X165100000Y-89192360D01*
X165100000Y-87503000D01*
X165093913Y-87472403D01*
X165097507Y-87441418D01*
X165065097Y-87327532D01*
X165041996Y-87211395D01*
X165024665Y-87185457D01*
X165016127Y-87155455D01*
X164942598Y-87062636D01*
X164917492Y-87025063D01*
X165343789Y-86740222D01*
X165608000Y-86344801D01*
X165872211Y-86740222D01*
X166333671Y-87048559D01*
X166878000Y-87156833D01*
X167422329Y-87048559D01*
X167883789Y-86740222D01*
X168147753Y-86345170D01*
X168152475Y-86361262D01*
X168502014Y-86795191D01*
X168991004Y-87062327D01*
X169070940Y-87079010D01*
X169291000Y-86956852D01*
X169291000Y-85471000D01*
X169271000Y-85471000D01*
X169271000Y-85217000D01*
X169291000Y-85217000D01*
X169291000Y-83731148D01*
X169070940Y-83608990D01*
X168991004Y-83625673D01*
X168502014Y-83892809D01*
X168152475Y-84326738D01*
X168147753Y-84342829D01*
X167883789Y-83947778D01*
X167422329Y-83639441D01*
X166878000Y-83531167D01*
X166688493Y-83568862D01*
X165130815Y-82011185D01*
X164883605Y-81846004D01*
X164592000Y-81788000D01*
X148082000Y-81788000D01*
X147790395Y-81846004D01*
X147543184Y-82011185D01*
X140939185Y-88615185D01*
X140774004Y-88862395D01*
X140716000Y-89154000D01*
X140716000Y-89413339D01*
X140550668Y-89344687D01*
X140121216Y-89344313D01*
X140017408Y-89387205D01*
X140017687Y-89067216D01*
X139853689Y-88670311D01*
X139550286Y-88366378D01*
X139153668Y-88201687D01*
X138724216Y-88201313D01*
X138327311Y-88365311D01*
X138173353Y-88519000D01*
X118388843Y-88519000D01*
X127998843Y-78909000D01*
X129662708Y-78909000D01*
X129701537Y-79109123D01*
X129841327Y-79321927D01*
X130052360Y-79464377D01*
X130302000Y-79514440D01*
X132334000Y-79514440D01*
X132576123Y-79467463D01*
X132788927Y-79327673D01*
X132931377Y-79116640D01*
X132973017Y-78909000D01*
X136144000Y-78909000D01*
X136503988Y-78837393D01*
X136738365Y-78994000D01*
X136423585Y-79204330D01*
X136098729Y-79690511D01*
X135984655Y-80264000D01*
X136098729Y-80837489D01*
X136423585Y-81323670D01*
X136909766Y-81648526D01*
X137483255Y-81762600D01*
X137852745Y-81762600D01*
X138426234Y-81648526D01*
X138912415Y-81323670D01*
X139237271Y-80837489D01*
X139351345Y-80264000D01*
X139237271Y-79690511D01*
X138912415Y-79204330D01*
X138597634Y-78994000D01*
X138724845Y-78909000D01*
X141691154Y-78909000D01*
X141818365Y-78994000D01*
X141503585Y-79204330D01*
X141178729Y-79690511D01*
X141064655Y-80264000D01*
X141178729Y-80837489D01*
X141503585Y-81323670D01*
X141989766Y-81648526D01*
X142563255Y-81762600D01*
X142932745Y-81762600D01*
X143506234Y-81648526D01*
X143992415Y-81323670D01*
X144317271Y-80837489D01*
X144431345Y-80264000D01*
X144317271Y-79690511D01*
X143992415Y-79204330D01*
X143677634Y-78994000D01*
X143804845Y-78909000D01*
X146771154Y-78909000D01*
X146898365Y-78994000D01*
X146583585Y-79204330D01*
X146258729Y-79690511D01*
X146144655Y-80264000D01*
X146258729Y-80837489D01*
X146583585Y-81323670D01*
X147069766Y-81648526D01*
X147643255Y-81762600D01*
X148012745Y-81762600D01*
X148586234Y-81648526D01*
X149072415Y-81323670D01*
X149397271Y-80837489D01*
X149511345Y-80264000D01*
X149397271Y-79690511D01*
X149072415Y-79204330D01*
X148757634Y-78994000D01*
X148884845Y-78909000D01*
X151851154Y-78909000D01*
X151978365Y-78994000D01*
X151663585Y-79204330D01*
X151338729Y-79690511D01*
X151224655Y-80264000D01*
X151338729Y-80837489D01*
X151663585Y-81323670D01*
X152149766Y-81648526D01*
X152723255Y-81762600D01*
X153092745Y-81762600D01*
X153666234Y-81648526D01*
X154152415Y-81323670D01*
X154477271Y-80837489D01*
X154591345Y-80264000D01*
X154477271Y-79690511D01*
X154152415Y-79204330D01*
X153837634Y-78994000D01*
X154152415Y-78783670D01*
X154477271Y-78297489D01*
X154591345Y-77724000D01*
X154477271Y-77150511D01*
X154152415Y-76664330D01*
X154130219Y-76649499D01*
X154283698Y-76585927D01*
X154462327Y-76407299D01*
X154559000Y-76173910D01*
X154559000Y-75921291D01*
X154559000Y-75469750D01*
X154559000Y-74898250D01*
X154559000Y-74446709D01*
X154559000Y-74194090D01*
X154462327Y-73960701D01*
X154283698Y-73782073D01*
X154050309Y-73685400D01*
X153193750Y-73685400D01*
X153035000Y-73844150D01*
X153035000Y-75057000D01*
X154400250Y-75057000D01*
X154559000Y-74898250D01*
X154559000Y-75469750D01*
X154400250Y-75311000D01*
X153035000Y-75311000D01*
X153035000Y-75331000D01*
X152781000Y-75331000D01*
X152781000Y-75311000D01*
X152781000Y-75057000D01*
X152781000Y-73844150D01*
X152622250Y-73685400D01*
X151765691Y-73685400D01*
X151532302Y-73782073D01*
X151353673Y-73960701D01*
X151257000Y-74194090D01*
X151257000Y-74446709D01*
X151257000Y-74898250D01*
X151415750Y-75057000D01*
X152781000Y-75057000D01*
X152781000Y-75311000D01*
X151415750Y-75311000D01*
X151257000Y-75469750D01*
X151257000Y-75921291D01*
X151257000Y-76173910D01*
X151353673Y-76407299D01*
X151485374Y-76539000D01*
X149250625Y-76539000D01*
X149382327Y-76407299D01*
X149479000Y-76173910D01*
X149479000Y-75921291D01*
X149479000Y-75469750D01*
X149479000Y-74898250D01*
X149479000Y-74446709D01*
X149479000Y-74194090D01*
X149382327Y-73960701D01*
X149203698Y-73782073D01*
X148970309Y-73685400D01*
X148113750Y-73685400D01*
X147955000Y-73844150D01*
X147955000Y-75057000D01*
X149320250Y-75057000D01*
X149479000Y-74898250D01*
X149479000Y-75469750D01*
X149320250Y-75311000D01*
X147955000Y-75311000D01*
X147955000Y-75331000D01*
X147701000Y-75331000D01*
X147701000Y-75311000D01*
X147701000Y-75057000D01*
X147701000Y-73844150D01*
X147542250Y-73685400D01*
X146685691Y-73685400D01*
X146452302Y-73782073D01*
X146273673Y-73960701D01*
X146177000Y-74194090D01*
X146177000Y-74446709D01*
X146177000Y-74898250D01*
X146335750Y-75057000D01*
X147701000Y-75057000D01*
X147701000Y-75311000D01*
X146335750Y-75311000D01*
X146177000Y-75469750D01*
X146177000Y-75921291D01*
X146177000Y-76173910D01*
X146273673Y-76407299D01*
X146405374Y-76539000D01*
X144170625Y-76539000D01*
X144302327Y-76407299D01*
X144399000Y-76173910D01*
X144399000Y-75921291D01*
X144399000Y-75469750D01*
X144399000Y-74898250D01*
X144399000Y-74446709D01*
X144399000Y-74194090D01*
X144302327Y-73960701D01*
X144123698Y-73782073D01*
X143890309Y-73685400D01*
X143033750Y-73685400D01*
X142875000Y-73844150D01*
X142875000Y-75057000D01*
X144240250Y-75057000D01*
X144399000Y-74898250D01*
X144399000Y-75469750D01*
X144240250Y-75311000D01*
X142875000Y-75311000D01*
X142875000Y-75331000D01*
X142621000Y-75331000D01*
X142621000Y-75311000D01*
X142621000Y-75057000D01*
X142621000Y-73844150D01*
X142462250Y-73685400D01*
X141605691Y-73685400D01*
X141372302Y-73782073D01*
X141193673Y-73960701D01*
X141097000Y-74194090D01*
X141097000Y-74446709D01*
X141097000Y-74898250D01*
X141255750Y-75057000D01*
X142621000Y-75057000D01*
X142621000Y-75311000D01*
X141255750Y-75311000D01*
X141097000Y-75469750D01*
X141097000Y-75921291D01*
X141097000Y-76173910D01*
X141193673Y-76407299D01*
X141325374Y-76539000D01*
X139090625Y-76539000D01*
X139222327Y-76407299D01*
X139319000Y-76173910D01*
X139319000Y-75921291D01*
X139319000Y-75469750D01*
X139319000Y-74898250D01*
X139319000Y-74446709D01*
X139319000Y-74194090D01*
X139222327Y-73960701D01*
X139043698Y-73782073D01*
X138810309Y-73685400D01*
X137953750Y-73685400D01*
X137795000Y-73844150D01*
X137795000Y-75057000D01*
X139160250Y-75057000D01*
X139319000Y-74898250D01*
X139319000Y-75469750D01*
X139160250Y-75311000D01*
X137795000Y-75311000D01*
X137795000Y-75331000D01*
X137541000Y-75331000D01*
X137541000Y-75311000D01*
X137541000Y-75057000D01*
X137541000Y-73844150D01*
X137382250Y-73685400D01*
X136525691Y-73685400D01*
X136292302Y-73782073D01*
X136113673Y-73960701D01*
X136017000Y-74194090D01*
X136017000Y-74446709D01*
X136017000Y-74898250D01*
X136175750Y-75057000D01*
X137541000Y-75057000D01*
X137541000Y-75311000D01*
X136175750Y-75311000D01*
X136017000Y-75469750D01*
X136017000Y-75921291D01*
X136017000Y-76173910D01*
X136113673Y-76407299D01*
X136270546Y-76564171D01*
X136144000Y-76539000D01*
X132969000Y-76539000D01*
X132969000Y-75691309D01*
X132969000Y-75088750D01*
X132969000Y-74517250D01*
X132969000Y-73914691D01*
X132872327Y-73681302D01*
X132693699Y-73502673D01*
X132460310Y-73406000D01*
X132207691Y-73406000D01*
X131603750Y-73406000D01*
X131445000Y-73564750D01*
X131445000Y-74676000D01*
X132810250Y-74676000D01*
X132969000Y-74517250D01*
X132969000Y-75088750D01*
X132810250Y-74930000D01*
X131445000Y-74930000D01*
X131445000Y-76041250D01*
X131603750Y-76200000D01*
X132207691Y-76200000D01*
X132460310Y-76200000D01*
X132693699Y-76103327D01*
X132872327Y-75924698D01*
X132969000Y-75691309D01*
X132969000Y-76539000D01*
X131191000Y-76539000D01*
X131191000Y-76041250D01*
X131191000Y-74930000D01*
X131191000Y-74676000D01*
X131191000Y-73564750D01*
X131032250Y-73406000D01*
X130428309Y-73406000D01*
X130175690Y-73406000D01*
X129942301Y-73502673D01*
X129763673Y-73681302D01*
X129667000Y-73914691D01*
X129667000Y-74517250D01*
X129825750Y-74676000D01*
X131191000Y-74676000D01*
X131191000Y-74930000D01*
X129825750Y-74930000D01*
X129667000Y-75088750D01*
X129667000Y-75691309D01*
X129763673Y-75924698D01*
X129942301Y-76103327D01*
X130175690Y-76200000D01*
X130428309Y-76200000D01*
X131032250Y-76200000D01*
X131191000Y-76041250D01*
X131191000Y-76539000D01*
X127508005Y-76539000D01*
X127508000Y-76538999D01*
X127054520Y-76629203D01*
X126670078Y-76886078D01*
X126670075Y-76886081D01*
X115113078Y-88443078D01*
X115113075Y-88443081D01*
X99314000Y-104242156D01*
X99314000Y-104012309D01*
X99314000Y-103536750D01*
X99314000Y-102965250D01*
X99314000Y-102489691D01*
X99217327Y-102256302D01*
X99038699Y-102077673D01*
X98805310Y-101981000D01*
X98552691Y-101981000D01*
X97313750Y-101981000D01*
X97155000Y-102139750D01*
X97155000Y-103124000D01*
X99155250Y-103124000D01*
X99314000Y-102965250D01*
X99314000Y-103536750D01*
X99155250Y-103378000D01*
X97155000Y-103378000D01*
X97155000Y-104362250D01*
X97313750Y-104521000D01*
X98552691Y-104521000D01*
X98805310Y-104521000D01*
X99038699Y-104424327D01*
X99217327Y-104245698D01*
X99314000Y-104012309D01*
X99314000Y-104242156D01*
X96901000Y-106655156D01*
X96901000Y-104362250D01*
X96901000Y-103378000D01*
X96901000Y-103124000D01*
X96901000Y-102139750D01*
X96742250Y-101981000D01*
X95503309Y-101981000D01*
X95250690Y-101981000D01*
X95017301Y-102077673D01*
X94838673Y-102256302D01*
X94742000Y-102489691D01*
X94742000Y-102965250D01*
X94900750Y-103124000D01*
X96901000Y-103124000D01*
X96901000Y-103378000D01*
X94900750Y-103378000D01*
X94742000Y-103536750D01*
X94742000Y-104012309D01*
X94838673Y-104245698D01*
X95017301Y-104424327D01*
X95250690Y-104521000D01*
X95503309Y-104521000D01*
X96742250Y-104521000D01*
X96901000Y-104362250D01*
X96901000Y-106655156D01*
X96190078Y-107366078D01*
X95933203Y-107750520D01*
X95842999Y-108204000D01*
X95843000Y-108204005D01*
X95843000Y-109334560D01*
X95377000Y-109334560D01*
X95134877Y-109381537D01*
X94922073Y-109521327D01*
X94779623Y-109732360D01*
X94729560Y-109982000D01*
X94729560Y-111252000D01*
X94776537Y-111494123D01*
X94916327Y-111706927D01*
X95127360Y-111849377D01*
X95377000Y-111899440D01*
X95843000Y-111899440D01*
X95843000Y-115570260D01*
X94627700Y-115570260D01*
X94385577Y-115617237D01*
X94172773Y-115757027D01*
X94030323Y-115968060D01*
X93980260Y-116217700D01*
X93980260Y-121018300D01*
X94027237Y-121260423D01*
X94167027Y-121473227D01*
X94378060Y-121615677D01*
X94627700Y-121665740D01*
X99139180Y-121665740D01*
X99071631Y-121829642D01*
X99072804Y-122489587D01*
X99012329Y-122550062D01*
X98742779Y-122137743D01*
X97626358Y-121677631D01*
X96418843Y-121679779D01*
X95313221Y-122137743D01*
X95043670Y-122550064D01*
X97028000Y-124534395D01*
X97042142Y-124520252D01*
X97221747Y-124699857D01*
X97207605Y-124714000D01*
X99191936Y-126698330D01*
X99604257Y-126428779D01*
X100064369Y-125312358D01*
X100063194Y-124652413D01*
X100123670Y-124591937D01*
X100393221Y-125004257D01*
X101509642Y-125464369D01*
X102717157Y-125462221D01*
X103822779Y-125004257D01*
X104092330Y-124591936D01*
X102108000Y-122607605D01*
X102093857Y-122621747D01*
X101914252Y-122442142D01*
X101928395Y-122428000D01*
X101914252Y-122413857D01*
X102093857Y-122234252D01*
X102108000Y-122248395D01*
X104092330Y-120264064D01*
X103822779Y-119851743D01*
X102706358Y-119391631D01*
X101498843Y-119393779D01*
X100393221Y-119851743D01*
X100123670Y-120264062D01*
X100075740Y-120216132D01*
X100075740Y-116217700D01*
X100028763Y-115975577D01*
X99888973Y-115762773D01*
X99677940Y-115620323D01*
X99428300Y-115570260D01*
X98213000Y-115570260D01*
X98213000Y-111899440D01*
X98679000Y-111899440D01*
X98921123Y-111852463D01*
X98997943Y-111802000D01*
X102234994Y-111802000D01*
X102235000Y-111802001D01*
X102235000Y-111802000D01*
X102688480Y-111711797D01*
X103072922Y-111454922D01*
X105011843Y-109516000D01*
X105690354Y-109516000D01*
X105711327Y-109547927D01*
X105922360Y-109690377D01*
X106172000Y-109740440D01*
X108204000Y-109740440D01*
X108446123Y-109693463D01*
X108658927Y-109553673D01*
X108684356Y-109516000D01*
X109916173Y-109516000D01*
X109986360Y-109563377D01*
X110236000Y-109613440D01*
X111103388Y-109613440D01*
X111252000Y-109643001D01*
X111400611Y-109613440D01*
X112268000Y-109613440D01*
X112510123Y-109566463D01*
X112722927Y-109426673D01*
X112865377Y-109215640D01*
X112915440Y-108966000D01*
X112915440Y-107950000D01*
X112868463Y-107707877D01*
X112728673Y-107495073D01*
X112517640Y-107352623D01*
X112331057Y-107315205D01*
X112510123Y-107280463D01*
X112535900Y-107263530D01*
X113792000Y-108519630D01*
X113792000Y-110490000D01*
X113850004Y-110781605D01*
X114015185Y-111028815D01*
X116288148Y-113301779D01*
X116077800Y-113511759D01*
X115735363Y-113168722D01*
X115134648Y-112919284D01*
X114484205Y-112918716D01*
X113883057Y-113167106D01*
X113537800Y-113511759D01*
X113195363Y-113168722D01*
X112594648Y-112919284D01*
X111944205Y-112918716D01*
X111343057Y-113167106D01*
X110997800Y-113511759D01*
X110655363Y-113168722D01*
X110054648Y-112919284D01*
X109404205Y-112918716D01*
X108803057Y-113167106D01*
X108457800Y-113511759D01*
X108115363Y-113168722D01*
X107781282Y-113030000D01*
X108077691Y-113030000D01*
X108330310Y-113030000D01*
X108563699Y-112933327D01*
X108742327Y-112754698D01*
X108839000Y-112521309D01*
X108839000Y-111918750D01*
X108839000Y-111347250D01*
X108839000Y-110744691D01*
X108742327Y-110511302D01*
X108563699Y-110332673D01*
X108330310Y-110236000D01*
X108077691Y-110236000D01*
X107473750Y-110236000D01*
X107315000Y-110394750D01*
X107315000Y-111506000D01*
X108680250Y-111506000D01*
X108839000Y-111347250D01*
X108839000Y-111918750D01*
X108680250Y-111760000D01*
X107315000Y-111760000D01*
X107315000Y-111780000D01*
X107061000Y-111780000D01*
X107061000Y-111760000D01*
X107061000Y-111506000D01*
X107061000Y-110394750D01*
X106902250Y-110236000D01*
X106298309Y-110236000D01*
X106045690Y-110236000D01*
X105812301Y-110332673D01*
X105633673Y-110511302D01*
X105537000Y-110744691D01*
X105537000Y-111347250D01*
X105695750Y-111506000D01*
X107061000Y-111506000D01*
X107061000Y-111760000D01*
X105695750Y-111760000D01*
X105537000Y-111918750D01*
X105537000Y-112521309D01*
X105633673Y-112754698D01*
X105812301Y-112933327D01*
X106045690Y-113030000D01*
X106298309Y-113030000D01*
X106594877Y-113030000D01*
X106263057Y-113167106D01*
X105917800Y-113511759D01*
X105575363Y-113168722D01*
X104974648Y-112919284D01*
X104324205Y-112918716D01*
X103723057Y-113167106D01*
X103262722Y-113626637D01*
X103013284Y-114227352D01*
X103012716Y-114877795D01*
X103261106Y-115478943D01*
X103720637Y-115939278D01*
X103886000Y-116007942D01*
X103886000Y-118364000D01*
X103944004Y-118655605D01*
X104109185Y-118902815D01*
X106395184Y-121188815D01*
X106395185Y-121188815D01*
X106642395Y-121353996D01*
X106934000Y-121412000D01*
X111310074Y-121412000D01*
X111188687Y-121704332D01*
X111188313Y-122133784D01*
X111352311Y-122530689D01*
X111580223Y-122759000D01*
X109728000Y-122759000D01*
X109465862Y-122811143D01*
X109243632Y-122959632D01*
X109095143Y-123181862D01*
X109043000Y-123444000D01*
X109043000Y-124714000D01*
X109043000Y-127839000D01*
X105144369Y-127839000D01*
X105144369Y-123026358D01*
X105142221Y-121818843D01*
X104684257Y-120713221D01*
X104271936Y-120443670D01*
X104092330Y-120623275D01*
X102287605Y-122428000D01*
X104271936Y-124412330D01*
X104684257Y-124142779D01*
X105144369Y-123026358D01*
X105144369Y-127839000D01*
X104092330Y-127839000D01*
X97095467Y-127839000D01*
X96647936Y-127749980D01*
X97637157Y-127748221D01*
X98742779Y-127290257D01*
X99012330Y-126877936D01*
X97028000Y-124893605D01*
X96848395Y-125073210D01*
X96848395Y-124714000D01*
X94864064Y-122729670D01*
X94451743Y-122999221D01*
X93991631Y-124115642D01*
X93993779Y-125323157D01*
X94451743Y-126428779D01*
X94864064Y-126698330D01*
X96848395Y-124714000D01*
X96848395Y-125073210D01*
X95043670Y-126877936D01*
X95313221Y-127290257D01*
X96224173Y-127665688D01*
X95351241Y-127492051D01*
X93929754Y-126542243D01*
X92979947Y-125120757D01*
X92633000Y-123376532D01*
X92633000Y-77791467D01*
X92979947Y-76047242D01*
X93929754Y-74625756D01*
X95351241Y-73675948D01*
X97095467Y-73329000D01*
X173160532Y-73329000D01*
X174904757Y-73675947D01*
X176326243Y-74625754D01*
X177276051Y-76047241D01*
X177623000Y-77791467D01*
X177623000Y-83553560D01*
X177623000Y-83553560D01*
G37*
X177623000Y-83553560D02*
X176250600Y-83553560D01*
X176008477Y-83600537D01*
X175795673Y-83740327D01*
X175653223Y-83951360D01*
X175619279Y-84120621D01*
X175503789Y-83947778D01*
X175042329Y-83639441D01*
X174498000Y-83531167D01*
X173953671Y-83639441D01*
X173492211Y-83947778D01*
X173228246Y-84342829D01*
X173223525Y-84326738D01*
X172873986Y-83892809D01*
X172384996Y-83625673D01*
X172305060Y-83608990D01*
X172085000Y-83731148D01*
X172085000Y-85217000D01*
X172105000Y-85217000D01*
X172105000Y-85471000D01*
X172085000Y-85471000D01*
X172085000Y-86956852D01*
X172305060Y-87079010D01*
X172384996Y-87062327D01*
X172873986Y-86795191D01*
X173223525Y-86361262D01*
X173228246Y-86345170D01*
X173492211Y-86740222D01*
X173736000Y-86903116D01*
X173736000Y-89473370D01*
X173293370Y-89916000D01*
X173228000Y-89916000D01*
X173228000Y-89789691D01*
X173228000Y-89185750D01*
X173228000Y-88614250D01*
X173228000Y-88010309D01*
X173228000Y-87757690D01*
X173131327Y-87524301D01*
X172952698Y-87345673D01*
X172719309Y-87249000D01*
X172116750Y-87249000D01*
X171958000Y-87407750D01*
X171958000Y-88773000D01*
X173069250Y-88773000D01*
X173228000Y-88614250D01*
X173228000Y-89185750D01*
X173069250Y-89027000D01*
X171958000Y-89027000D01*
X171958000Y-89047000D01*
X171831000Y-89047000D01*
X171831000Y-86956852D01*
X171831000Y-85471000D01*
X171831000Y-85217000D01*
X171831000Y-83731148D01*
X171610940Y-83608990D01*
X171531004Y-83625673D01*
X171042014Y-83892809D01*
X170692475Y-84326738D01*
X170688000Y-84341989D01*
X170683525Y-84326738D01*
X170333986Y-83892809D01*
X169844996Y-83625673D01*
X169765060Y-83608990D01*
X169545000Y-83731148D01*
X169545000Y-85217000D01*
X170535600Y-85217000D01*
X170840400Y-85217000D01*
X171831000Y-85217000D01*
X171831000Y-85471000D01*
X170840400Y-85471000D01*
X170535600Y-85471000D01*
X169545000Y-85471000D01*
X169545000Y-86956852D01*
X169765060Y-87079010D01*
X169844996Y-87062327D01*
X170333986Y-86795191D01*
X170683525Y-86361262D01*
X170688000Y-86346010D01*
X170692475Y-86361262D01*
X171042014Y-86795191D01*
X171531004Y-87062327D01*
X171610940Y-87079010D01*
X171831000Y-86956852D01*
X171831000Y-89047000D01*
X171704000Y-89047000D01*
X171704000Y-89027000D01*
X171704000Y-88773000D01*
X171704000Y-87407750D01*
X171545250Y-87249000D01*
X170942691Y-87249000D01*
X170709302Y-87345673D01*
X170530673Y-87524301D01*
X170434000Y-87757690D01*
X170434000Y-88010309D01*
X170434000Y-88614250D01*
X170592750Y-88773000D01*
X171704000Y-88773000D01*
X171704000Y-89027000D01*
X170592750Y-89027000D01*
X170434000Y-89185750D01*
X170434000Y-89789691D01*
X170434000Y-89916000D01*
X169938440Y-89916000D01*
X169938440Y-87884000D01*
X169891463Y-87641877D01*
X169751673Y-87429073D01*
X169540640Y-87286623D01*
X169291000Y-87236560D01*
X167767000Y-87236560D01*
X167524877Y-87283537D01*
X167312073Y-87423327D01*
X167169623Y-87634360D01*
X167119560Y-87884000D01*
X167119560Y-88138000D01*
X166497000Y-88138000D01*
X166205395Y-88196004D01*
X166106376Y-88262165D01*
X165958185Y-88361184D01*
X165196185Y-89123185D01*
X165149963Y-89192360D01*
X165100000Y-89192360D01*
X165100000Y-87503000D01*
X165093913Y-87472403D01*
X165097507Y-87441418D01*
X165065097Y-87327532D01*
X165041996Y-87211395D01*
X165024665Y-87185457D01*
X165016127Y-87155455D01*
X164942598Y-87062636D01*
X164917492Y-87025063D01*
X165343789Y-86740222D01*
X165608000Y-86344801D01*
X165872211Y-86740222D01*
X166333671Y-87048559D01*
X166878000Y-87156833D01*
X167422329Y-87048559D01*
X167883789Y-86740222D01*
X168147753Y-86345170D01*
X168152475Y-86361262D01*
X168502014Y-86795191D01*
X168991004Y-87062327D01*
X169070940Y-87079010D01*
X169291000Y-86956852D01*
X169291000Y-85471000D01*
X169271000Y-85471000D01*
X169271000Y-85217000D01*
X169291000Y-85217000D01*
X169291000Y-83731148D01*
X169070940Y-83608990D01*
X168991004Y-83625673D01*
X168502014Y-83892809D01*
X168152475Y-84326738D01*
X168147753Y-84342829D01*
X167883789Y-83947778D01*
X167422329Y-83639441D01*
X166878000Y-83531167D01*
X166688493Y-83568862D01*
X165130815Y-82011185D01*
X164883605Y-81846004D01*
X164592000Y-81788000D01*
X148082000Y-81788000D01*
X147790395Y-81846004D01*
X147543184Y-82011185D01*
X140939185Y-88615185D01*
X140774004Y-88862395D01*
X140716000Y-89154000D01*
X140716000Y-89413339D01*
X140550668Y-89344687D01*
X140121216Y-89344313D01*
X140017408Y-89387205D01*
X140017687Y-89067216D01*
X139853689Y-88670311D01*
X139550286Y-88366378D01*
X139153668Y-88201687D01*
X138724216Y-88201313D01*
X138327311Y-88365311D01*
X138173353Y-88519000D01*
X118388843Y-88519000D01*
X127998843Y-78909000D01*
X129662708Y-78909000D01*
X129701537Y-79109123D01*
X129841327Y-79321927D01*
X130052360Y-79464377D01*
X130302000Y-79514440D01*
X132334000Y-79514440D01*
X132576123Y-79467463D01*
X132788927Y-79327673D01*
X132931377Y-79116640D01*
X132973017Y-78909000D01*
X136144000Y-78909000D01*
X136503988Y-78837393D01*
X136738365Y-78994000D01*
X136423585Y-79204330D01*
X136098729Y-79690511D01*
X135984655Y-80264000D01*
X136098729Y-80837489D01*
X136423585Y-81323670D01*
X136909766Y-81648526D01*
X137483255Y-81762600D01*
X137852745Y-81762600D01*
X138426234Y-81648526D01*
X138912415Y-81323670D01*
X139237271Y-80837489D01*
X139351345Y-80264000D01*
X139237271Y-79690511D01*
X138912415Y-79204330D01*
X138597634Y-78994000D01*
X138724845Y-78909000D01*
X141691154Y-78909000D01*
X141818365Y-78994000D01*
X141503585Y-79204330D01*
X141178729Y-79690511D01*
X141064655Y-80264000D01*
X141178729Y-80837489D01*
X141503585Y-81323670D01*
X141989766Y-81648526D01*
X142563255Y-81762600D01*
X142932745Y-81762600D01*
X143506234Y-81648526D01*
X143992415Y-81323670D01*
X144317271Y-80837489D01*
X144431345Y-80264000D01*
X144317271Y-79690511D01*
X143992415Y-79204330D01*
X143677634Y-78994000D01*
X143804845Y-78909000D01*
X146771154Y-78909000D01*
X146898365Y-78994000D01*
X146583585Y-79204330D01*
X146258729Y-79690511D01*
X146144655Y-80264000D01*
X146258729Y-80837489D01*
X146583585Y-81323670D01*
X147069766Y-81648526D01*
X147643255Y-81762600D01*
X148012745Y-81762600D01*
X148586234Y-81648526D01*
X149072415Y-81323670D01*
X149397271Y-80837489D01*
X149511345Y-80264000D01*
X149397271Y-79690511D01*
X149072415Y-79204330D01*
X148757634Y-78994000D01*
X148884845Y-78909000D01*
X151851154Y-78909000D01*
X151978365Y-78994000D01*
X151663585Y-79204330D01*
X151338729Y-79690511D01*
X151224655Y-80264000D01*
X151338729Y-80837489D01*
X151663585Y-81323670D01*
X152149766Y-81648526D01*
X152723255Y-81762600D01*
X153092745Y-81762600D01*
X153666234Y-81648526D01*
X154152415Y-81323670D01*
X154477271Y-80837489D01*
X154591345Y-80264000D01*
X154477271Y-79690511D01*
X154152415Y-79204330D01*
X153837634Y-78994000D01*
X154152415Y-78783670D01*
X154477271Y-78297489D01*
X154591345Y-77724000D01*
X154477271Y-77150511D01*
X154152415Y-76664330D01*
X154130219Y-76649499D01*
X154283698Y-76585927D01*
X154462327Y-76407299D01*
X154559000Y-76173910D01*
X154559000Y-75921291D01*
X154559000Y-75469750D01*
X154559000Y-74898250D01*
X154559000Y-74446709D01*
X154559000Y-74194090D01*
X154462327Y-73960701D01*
X154283698Y-73782073D01*
X154050309Y-73685400D01*
X153193750Y-73685400D01*
X153035000Y-73844150D01*
X153035000Y-75057000D01*
X154400250Y-75057000D01*
X154559000Y-74898250D01*
X154559000Y-75469750D01*
X154400250Y-75311000D01*
X153035000Y-75311000D01*
X153035000Y-75331000D01*
X152781000Y-75331000D01*
X152781000Y-75311000D01*
X152781000Y-75057000D01*
X152781000Y-73844150D01*
X152622250Y-73685400D01*
X151765691Y-73685400D01*
X151532302Y-73782073D01*
X151353673Y-73960701D01*
X151257000Y-74194090D01*
X151257000Y-74446709D01*
X151257000Y-74898250D01*
X151415750Y-75057000D01*
X152781000Y-75057000D01*
X152781000Y-75311000D01*
X151415750Y-75311000D01*
X151257000Y-75469750D01*
X151257000Y-75921291D01*
X151257000Y-76173910D01*
X151353673Y-76407299D01*
X151485374Y-76539000D01*
X149250625Y-76539000D01*
X149382327Y-76407299D01*
X149479000Y-76173910D01*
X149479000Y-75921291D01*
X149479000Y-75469750D01*
X149479000Y-74898250D01*
X149479000Y-74446709D01*
X149479000Y-74194090D01*
X149382327Y-73960701D01*
X149203698Y-73782073D01*
X148970309Y-73685400D01*
X148113750Y-73685400D01*
X147955000Y-73844150D01*
X147955000Y-75057000D01*
X149320250Y-75057000D01*
X149479000Y-74898250D01*
X149479000Y-75469750D01*
X149320250Y-75311000D01*
X147955000Y-75311000D01*
X147955000Y-75331000D01*
X147701000Y-75331000D01*
X147701000Y-75311000D01*
X147701000Y-75057000D01*
X147701000Y-73844150D01*
X147542250Y-73685400D01*
X146685691Y-73685400D01*
X146452302Y-73782073D01*
X146273673Y-73960701D01*
X146177000Y-74194090D01*
X146177000Y-74446709D01*
X146177000Y-74898250D01*
X146335750Y-75057000D01*
X147701000Y-75057000D01*
X147701000Y-75311000D01*
X146335750Y-75311000D01*
X146177000Y-75469750D01*
X146177000Y-75921291D01*
X146177000Y-76173910D01*
X146273673Y-76407299D01*
X146405374Y-76539000D01*
X144170625Y-76539000D01*
X144302327Y-76407299D01*
X144399000Y-76173910D01*
X144399000Y-75921291D01*
X144399000Y-75469750D01*
X144399000Y-74898250D01*
X144399000Y-74446709D01*
X144399000Y-74194090D01*
X144302327Y-73960701D01*
X144123698Y-73782073D01*
X143890309Y-73685400D01*
X143033750Y-73685400D01*
X142875000Y-73844150D01*
X142875000Y-75057000D01*
X144240250Y-75057000D01*
X144399000Y-74898250D01*
X144399000Y-75469750D01*
X144240250Y-75311000D01*
X142875000Y-75311000D01*
X142875000Y-75331000D01*
X142621000Y-75331000D01*
X142621000Y-75311000D01*
X142621000Y-75057000D01*
X142621000Y-73844150D01*
X142462250Y-73685400D01*
X141605691Y-73685400D01*
X141372302Y-73782073D01*
X141193673Y-73960701D01*
X141097000Y-74194090D01*
X141097000Y-74446709D01*
X141097000Y-74898250D01*
X141255750Y-75057000D01*
X142621000Y-75057000D01*
X142621000Y-75311000D01*
X141255750Y-75311000D01*
X141097000Y-75469750D01*
X141097000Y-75921291D01*
X141097000Y-76173910D01*
X141193673Y-76407299D01*
X141325374Y-76539000D01*
X139090625Y-76539000D01*
X139222327Y-76407299D01*
X139319000Y-76173910D01*
X139319000Y-75921291D01*
X139319000Y-75469750D01*
X139319000Y-74898250D01*
X139319000Y-74446709D01*
X139319000Y-74194090D01*
X139222327Y-73960701D01*
X139043698Y-73782073D01*
X138810309Y-73685400D01*
X137953750Y-73685400D01*
X137795000Y-73844150D01*
X137795000Y-75057000D01*
X139160250Y-75057000D01*
X139319000Y-74898250D01*
X139319000Y-75469750D01*
X139160250Y-75311000D01*
X137795000Y-75311000D01*
X137795000Y-75331000D01*
X137541000Y-75331000D01*
X137541000Y-75311000D01*
X137541000Y-75057000D01*
X137541000Y-73844150D01*
X137382250Y-73685400D01*
X136525691Y-73685400D01*
X136292302Y-73782073D01*
X136113673Y-73960701D01*
X136017000Y-74194090D01*
X136017000Y-74446709D01*
X136017000Y-74898250D01*
X136175750Y-75057000D01*
X137541000Y-75057000D01*
X137541000Y-75311000D01*
X136175750Y-75311000D01*
X136017000Y-75469750D01*
X136017000Y-75921291D01*
X136017000Y-76173910D01*
X136113673Y-76407299D01*
X136270546Y-76564171D01*
X136144000Y-76539000D01*
X132969000Y-76539000D01*
X132969000Y-75691309D01*
X132969000Y-75088750D01*
X132969000Y-74517250D01*
X132969000Y-73914691D01*
X132872327Y-73681302D01*
X132693699Y-73502673D01*
X132460310Y-73406000D01*
X132207691Y-73406000D01*
X131603750Y-73406000D01*
X131445000Y-73564750D01*
X131445000Y-74676000D01*
X132810250Y-74676000D01*
X132969000Y-74517250D01*
X132969000Y-75088750D01*
X132810250Y-74930000D01*
X131445000Y-74930000D01*
X131445000Y-76041250D01*
X131603750Y-76200000D01*
X132207691Y-76200000D01*
X132460310Y-76200000D01*
X132693699Y-76103327D01*
X132872327Y-75924698D01*
X132969000Y-75691309D01*
X132969000Y-76539000D01*
X131191000Y-76539000D01*
X131191000Y-76041250D01*
X131191000Y-74930000D01*
X131191000Y-74676000D01*
X131191000Y-73564750D01*
X131032250Y-73406000D01*
X130428309Y-73406000D01*
X130175690Y-73406000D01*
X129942301Y-73502673D01*
X129763673Y-73681302D01*
X129667000Y-73914691D01*
X129667000Y-74517250D01*
X129825750Y-74676000D01*
X131191000Y-74676000D01*
X131191000Y-74930000D01*
X129825750Y-74930000D01*
X129667000Y-75088750D01*
X129667000Y-75691309D01*
X129763673Y-75924698D01*
X129942301Y-76103327D01*
X130175690Y-76200000D01*
X130428309Y-76200000D01*
X131032250Y-76200000D01*
X131191000Y-76041250D01*
X131191000Y-76539000D01*
X127508005Y-76539000D01*
X127508000Y-76538999D01*
X127054520Y-76629203D01*
X126670078Y-76886078D01*
X126670075Y-76886081D01*
X115113078Y-88443078D01*
X115113075Y-88443081D01*
X99314000Y-104242156D01*
X99314000Y-104012309D01*
X99314000Y-103536750D01*
X99314000Y-102965250D01*
X99314000Y-102489691D01*
X99217327Y-102256302D01*
X99038699Y-102077673D01*
X98805310Y-101981000D01*
X98552691Y-101981000D01*
X97313750Y-101981000D01*
X97155000Y-102139750D01*
X97155000Y-103124000D01*
X99155250Y-103124000D01*
X99314000Y-102965250D01*
X99314000Y-103536750D01*
X99155250Y-103378000D01*
X97155000Y-103378000D01*
X97155000Y-104362250D01*
X97313750Y-104521000D01*
X98552691Y-104521000D01*
X98805310Y-104521000D01*
X99038699Y-104424327D01*
X99217327Y-104245698D01*
X99314000Y-104012309D01*
X99314000Y-104242156D01*
X96901000Y-106655156D01*
X96901000Y-104362250D01*
X96901000Y-103378000D01*
X96901000Y-103124000D01*
X96901000Y-102139750D01*
X96742250Y-101981000D01*
X95503309Y-101981000D01*
X95250690Y-101981000D01*
X95017301Y-102077673D01*
X94838673Y-102256302D01*
X94742000Y-102489691D01*
X94742000Y-102965250D01*
X94900750Y-103124000D01*
X96901000Y-103124000D01*
X96901000Y-103378000D01*
X94900750Y-103378000D01*
X94742000Y-103536750D01*
X94742000Y-104012309D01*
X94838673Y-104245698D01*
X95017301Y-104424327D01*
X95250690Y-104521000D01*
X95503309Y-104521000D01*
X96742250Y-104521000D01*
X96901000Y-104362250D01*
X96901000Y-106655156D01*
X96190078Y-107366078D01*
X95933203Y-107750520D01*
X95842999Y-108204000D01*
X95843000Y-108204005D01*
X95843000Y-109334560D01*
X95377000Y-109334560D01*
X95134877Y-109381537D01*
X94922073Y-109521327D01*
X94779623Y-109732360D01*
X94729560Y-109982000D01*
X94729560Y-111252000D01*
X94776537Y-111494123D01*
X94916327Y-111706927D01*
X95127360Y-111849377D01*
X95377000Y-111899440D01*
X95843000Y-111899440D01*
X95843000Y-115570260D01*
X94627700Y-115570260D01*
X94385577Y-115617237D01*
X94172773Y-115757027D01*
X94030323Y-115968060D01*
X93980260Y-116217700D01*
X93980260Y-121018300D01*
X94027237Y-121260423D01*
X94167027Y-121473227D01*
X94378060Y-121615677D01*
X94627700Y-121665740D01*
X99139180Y-121665740D01*
X99071631Y-121829642D01*
X99072804Y-122489587D01*
X99012329Y-122550062D01*
X98742779Y-122137743D01*
X97626358Y-121677631D01*
X96418843Y-121679779D01*
X95313221Y-122137743D01*
X95043670Y-122550064D01*
X97028000Y-124534395D01*
X97042142Y-124520252D01*
X97221747Y-124699857D01*
X97207605Y-124714000D01*
X99191936Y-126698330D01*
X99604257Y-126428779D01*
X100064369Y-125312358D01*
X100063194Y-124652413D01*
X100123670Y-124591937D01*
X100393221Y-125004257D01*
X101509642Y-125464369D01*
X102717157Y-125462221D01*
X103822779Y-125004257D01*
X104092330Y-124591936D01*
X102108000Y-122607605D01*
X102093857Y-122621747D01*
X101914252Y-122442142D01*
X101928395Y-122428000D01*
X101914252Y-122413857D01*
X102093857Y-122234252D01*
X102108000Y-122248395D01*
X104092330Y-120264064D01*
X103822779Y-119851743D01*
X102706358Y-119391631D01*
X101498843Y-119393779D01*
X100393221Y-119851743D01*
X100123670Y-120264062D01*
X100075740Y-120216132D01*
X100075740Y-116217700D01*
X100028763Y-115975577D01*
X99888973Y-115762773D01*
X99677940Y-115620323D01*
X99428300Y-115570260D01*
X98213000Y-115570260D01*
X98213000Y-111899440D01*
X98679000Y-111899440D01*
X98921123Y-111852463D01*
X98997943Y-111802000D01*
X102234994Y-111802000D01*
X102235000Y-111802001D01*
X102235000Y-111802000D01*
X102688480Y-111711797D01*
X103072922Y-111454922D01*
X105011843Y-109516000D01*
X105690354Y-109516000D01*
X105711327Y-109547927D01*
X105922360Y-109690377D01*
X106172000Y-109740440D01*
X108204000Y-109740440D01*
X108446123Y-109693463D01*
X108658927Y-109553673D01*
X108684356Y-109516000D01*
X109916173Y-109516000D01*
X109986360Y-109563377D01*
X110236000Y-109613440D01*
X111103388Y-109613440D01*
X111252000Y-109643001D01*
X111400611Y-109613440D01*
X112268000Y-109613440D01*
X112510123Y-109566463D01*
X112722927Y-109426673D01*
X112865377Y-109215640D01*
X112915440Y-108966000D01*
X112915440Y-107950000D01*
X112868463Y-107707877D01*
X112728673Y-107495073D01*
X112517640Y-107352623D01*
X112331057Y-107315205D01*
X112510123Y-107280463D01*
X112535900Y-107263530D01*
X113792000Y-108519630D01*
X113792000Y-110490000D01*
X113850004Y-110781605D01*
X114015185Y-111028815D01*
X116288148Y-113301779D01*
X116077800Y-113511759D01*
X115735363Y-113168722D01*
X115134648Y-112919284D01*
X114484205Y-112918716D01*
X113883057Y-113167106D01*
X113537800Y-113511759D01*
X113195363Y-113168722D01*
X112594648Y-112919284D01*
X111944205Y-112918716D01*
X111343057Y-113167106D01*
X110997800Y-113511759D01*
X110655363Y-113168722D01*
X110054648Y-112919284D01*
X109404205Y-112918716D01*
X108803057Y-113167106D01*
X108457800Y-113511759D01*
X108115363Y-113168722D01*
X107781282Y-113030000D01*
X108077691Y-113030000D01*
X108330310Y-113030000D01*
X108563699Y-112933327D01*
X108742327Y-112754698D01*
X108839000Y-112521309D01*
X108839000Y-111918750D01*
X108839000Y-111347250D01*
X108839000Y-110744691D01*
X108742327Y-110511302D01*
X108563699Y-110332673D01*
X108330310Y-110236000D01*
X108077691Y-110236000D01*
X107473750Y-110236000D01*
X107315000Y-110394750D01*
X107315000Y-111506000D01*
X108680250Y-111506000D01*
X108839000Y-111347250D01*
X108839000Y-111918750D01*
X108680250Y-111760000D01*
X107315000Y-111760000D01*
X107315000Y-111780000D01*
X107061000Y-111780000D01*
X107061000Y-111760000D01*
X107061000Y-111506000D01*
X107061000Y-110394750D01*
X106902250Y-110236000D01*
X106298309Y-110236000D01*
X106045690Y-110236000D01*
X105812301Y-110332673D01*
X105633673Y-110511302D01*
X105537000Y-110744691D01*
X105537000Y-111347250D01*
X105695750Y-111506000D01*
X107061000Y-111506000D01*
X107061000Y-111760000D01*
X105695750Y-111760000D01*
X105537000Y-111918750D01*
X105537000Y-112521309D01*
X105633673Y-112754698D01*
X105812301Y-112933327D01*
X106045690Y-113030000D01*
X106298309Y-113030000D01*
X106594877Y-113030000D01*
X106263057Y-113167106D01*
X105917800Y-113511759D01*
X105575363Y-113168722D01*
X104974648Y-112919284D01*
X104324205Y-112918716D01*
X103723057Y-113167106D01*
X103262722Y-113626637D01*
X103013284Y-114227352D01*
X103012716Y-114877795D01*
X103261106Y-115478943D01*
X103720637Y-115939278D01*
X103886000Y-116007942D01*
X103886000Y-118364000D01*
X103944004Y-118655605D01*
X104109185Y-118902815D01*
X106395184Y-121188815D01*
X106395185Y-121188815D01*
X106642395Y-121353996D01*
X106934000Y-121412000D01*
X111310074Y-121412000D01*
X111188687Y-121704332D01*
X111188313Y-122133784D01*
X111352311Y-122530689D01*
X111580223Y-122759000D01*
X109728000Y-122759000D01*
X109465862Y-122811143D01*
X109243632Y-122959632D01*
X109095143Y-123181862D01*
X109043000Y-123444000D01*
X109043000Y-124714000D01*
X109043000Y-127839000D01*
X105144369Y-127839000D01*
X105144369Y-123026358D01*
X105142221Y-121818843D01*
X104684257Y-120713221D01*
X104271936Y-120443670D01*
X104092330Y-120623275D01*
X102287605Y-122428000D01*
X104271936Y-124412330D01*
X104684257Y-124142779D01*
X105144369Y-123026358D01*
X105144369Y-127839000D01*
X104092330Y-127839000D01*
X97095467Y-127839000D01*
X96647936Y-127749980D01*
X97637157Y-127748221D01*
X98742779Y-127290257D01*
X99012330Y-126877936D01*
X97028000Y-124893605D01*
X96848395Y-125073210D01*
X96848395Y-124714000D01*
X94864064Y-122729670D01*
X94451743Y-122999221D01*
X93991631Y-124115642D01*
X93993779Y-125323157D01*
X94451743Y-126428779D01*
X94864064Y-126698330D01*
X96848395Y-124714000D01*
X96848395Y-125073210D01*
X95043670Y-126877936D01*
X95313221Y-127290257D01*
X96224173Y-127665688D01*
X95351241Y-127492051D01*
X93929754Y-126542243D01*
X92979947Y-125120757D01*
X92633000Y-123376532D01*
X92633000Y-77791467D01*
X92979947Y-76047242D01*
X93929754Y-74625756D01*
X95351241Y-73675948D01*
X97095467Y-73329000D01*
X173160532Y-73329000D01*
X174904757Y-73675947D01*
X176326243Y-74625754D01*
X177276051Y-76047241D01*
X177623000Y-77791467D01*
X177623000Y-83553560D01*
M02*
