  0
SECTION
  2
HEADER
  9
$ACADVER
  1
AC1009
  9
$INSBASE
 10
0.0
 20
0.0
 30
0.0
  9
$EXTMIN
 10
-177.5057604293509996
 20
4.4310926988903132
 30
0.0
  9
$EXTMAX
 10
365.0481113981296062
 20
217.7108353826369012
 30
0.0
  9
$LIMMIN
 10
0.0
 20
0.0
  9
$LIMMAX
 10
420.0
 20
297.0
  9
$ORTHOMODE
 70
     0
  9
$REGENMODE
 70
     1
  9
$FILLMODE
 70
     1
  9
$QTEXTMODE
 70
     0
  9
$MIRRTEXT
 70
     0
  9
$DRAGMODE
 70
     2
  9
$LTSCALE
 40
1.0
  9
$OSMODE
 70
   183
  9
$ATTMODE
 70
     1
  9
$TEXTSIZE
 40
2.5
  9
$TRACEWID
 40
1.0
  9
$TEXTSTYLE
  7
STANDARD
  9
$CLAYER
  8
0
  9
$CELTYPE
  6
BYLAYER
  9
$CECOLOR
 62
   256
  9
$DIMSCALE
 40
1.0
  9
$DIMASZ
 40
2.5
  9
$DIMEXO
 40
0.625
  9
$DIMDLI
 40
3.75
  9
$DIMRND
 40
0.0
  9
$DIMDLE
 40
0.0
  9
$DIMEXE
 40
1.25
  9
$DIMTP
 40
0.0
  9
$DIMTM
 40
0.0
  9
$DIMTXT
 40
2.5
  9
$DIMCEN
 40
2.5
  9
$DIMTSZ
 40
0.0
  9
$DIMTOL
 70
     0
  9
$DIMLIM
 70
     0
  9
$DIMTIH
 70
     0
  9
$DIMTOH
 70
     0
  9
$DIMSE1
 70
     0
  9
$DIMSE2
 70
     0
  9
$DIMTAD
 70
     1
  9
$DIMZIN
 70
     8
  9
$DIMBLK
  1

  9
$DIMASO
 70
     1
  9
$DIMSHO
 70
     1
  9
$DIMPOST
  1

  9
$DIMAPOST
  1

  9
$DIMALT
 70
     0
  9
$DIMALTD
 70
     3
  9
$DIMALTF
 40
0.03937007874016
  9
$DIMLFAC
 40
1.0
  9
$DIMTOFL
 70
     1
  9
$DIMTVP
 40
0.0
  9
$DIMTIX
 70
     0
  9
$DIMSOXD
 70
     0
  9
$DIMSAH
 70
     0
  9
$DIMBLK1
  1

  9
$DIMBLK2
  1

  9
$DIMSTYLE
  2
ISO-25
  9
$DIMCLRD
 70
     0
  9
$DIMCLRE
 70
     0
  9
$DIMCLRT
 70
     0
  9
$DIMTFAC
 40
1.0
  9
$DIMGAP
 40
0.625
  9
$LUNITS
 70
     2
  9
$LUPREC
 70
     4
  9
$SKETCHINC
 40
1.0
  9
$FILLETRAD
 40
0.0
  9
$AUNITS
 70
     0
  9
$AUPREC
 70
     0
  9
$MENU
  1
.
  9
$ELEVATION
 40
0.0
  9
$PELEVATION
 40
0.0
  9
$THICKNESS
 40
0.0
  9
$LIMCHECK
 70
     0
  9
$BLIPMODE
 70
     0
  9
$CHAMFERA
 40
0.0
  9
$CHAMFERB
 40
0.0
  9
$SKPOLY
 70
     0
  9
$TDCREATE
 40
2458424.6156365741044283
  9
$TDUPDATE
 40
2458526.6864583338610828
  9
$TDINDWG
 40
4.1203240741
  9
$TDUSRTIMER
 40
4.1203240741
  9
$USRTIMER
 70
     1
  9
$ANGBASE
 50
0.0
  9
$ANGDIR
 70
     0
  9
$PDMODE
 70
     0
  9
$PDSIZE
 40
0.0
  9
$PLINEWID
 40
0.0
  9
$COORDS
 70
     1
  9
$SPLFRAME
 70
     0
  9
$SPLINETYPE
 70
     6
  9
$SPLINESEGS
 70
     8
  9
$ATTDIA
 70
     1
  9
$ATTREQ
 70
     1
  9
$HANDLING
 70
     1
  9
$HANDSEED
  5
155D
  9
$SURFTAB1
 70
     6
  9
$SURFTAB2
 70
     6
  9
$SURFTYPE
 70
     6
  9
$SURFU
 70
     6
  9
$SURFV
 70
     6
  9
$UCSNAME
  2

  9
$UCSORG
 10
0.0
 20
0.0
 30
0.0
  9
$UCSXDIR
 10
1.0
 20
0.0
 30
0.0
  9
$UCSYDIR
 10
0.0
 20
1.0
 30
0.0
  9
$PUCSNAME
  2

  9
$PUCSORG
 10
0.0
 20
0.0
 30
0.0
  9
$PUCSXDIR
 10
1.0
 20
0.0
 30
0.0
  9
$PUCSYDIR
 10
0.0
 20
1.0
 30
0.0
  9
$USERI1
 70
     0
  9
$USERI2
 70
     0
  9
$USERI3
 70
     0
  9
$USERI4
 70
     0
  9
$USERI5
 70
     0
  9
$USERR1
 40
0.0
  9
$USERR2
 40
0.0
  9
$USERR3
 40
0.0
  9
$USERR4
 40
0.0
  9
$USERR5
 40
0.0
  9
$WORLDVIEW
 70
     1
  9
$SHADEDGE
 70
     3
  9
$SHADEDIF
 70
    70
  9
$TILEMODE
 70
     1
  9
$MAXACTVP
 70
    64
  9
$PLIMCHECK
 70
     0
  9
$PEXTMIN
 10
0.0
 20
0.0
 30
0.0
  9
$PEXTMAX
 10
0.0
 20
0.0
 30
0.0
  9
$PLIMMIN
 10
0.0
 20
0.0
  9
$PLIMMAX
 10
12.0
 20
9.0
  9
$UNITMODE
 70
     0
  9
$VISRETAIN
 70
     1
  9
$PLINEGEN
 70
     0
  9
$PSLTSCALE
 70
     1
  0
ENDSEC
  0
SECTION
  2
TABLES
  0
TABLE
  2
VPORT
 70
     1
  0
VPORT
  2
*ACTIVE
 70
     0
 10
0.0
 20
0.0
 11
1.0
 21
1.0
 12
-52.2694496827098192
 22
59.2224090022199903
 13
0.0
 23
0.0
 14
10.0
 24
10.0
 15
10.0
 25
10.0
 16
0.0
 26
0.0
 36
1.0
 17
0.0
 27
0.0
 37
0.0
 40
405.5940579543583908
 41
3.1206611570247929
 42
50.0
 43
0.0
 44
0.0
 50
0.0
 51
0.0
 71
     0
 72
  1000
 73
     1
 74
     3
 75
     0
 76
     1
 77
     0
 78
     0
  0
ENDTAB
  0
TABLE
  2
LTYPE
 70
     3
  0
LTYPE
  2
CONTINUOUS
 70
     0
  3
Solid line
 72
    65
 73
     0
 40
0.0
  0
ENDTAB
  0
TABLE
  2
LAYER
 70
     3
  0
LAYER
  2
0
 70
     0
 62
     7
  6
CONTINUOUS
  0
LAYER
  2
LAYER_1
 70
     0
 62
     3
  6
CONTINUOUS
  0
LAYER
  2
FIRST_CUTS
 70
     0
 62
     1
  6
CONTINUOUS
  0
ENDTAB
  0
TABLE
  2
STYLE
 70
     3
  0
STYLE
  2
STANDARD
 70
     0
 40
0.0
 41
1.0
 50
0.0
 71
     0
 42
2.5
  3
txt
  4

  0
STYLE
  2
ANNOTATIVE
 70
     0
 40
0.0
 41
1.0
 50
0.0
 71
     0
 42
2.5
  3
txt
  4

  0
STYLE
  2
MTXPL_CNC_VECTOR
 70
     0
 40
0.0
 41
1.0
 50
0.0
 71
     0
 42
2.5
  3
txt
  4

  0
ENDTAB
  0
TABLE
  2
VIEW
 70
     0
  0
ENDTAB
  0
TABLE
  2
UCS
 70
     0
  0
ENDTAB
  0
TABLE
  2
APPID
 70
    11
  0
APPID
  2
ACAD
 70
     0
  0
APPID
  2
ACADANNOTATIVE
 70
     0
  0
APPID
  2
ACAD_PSEXT
 70
     0
  0
APPID
  2
ACADANNOPO
 70
     0
  0
APPID
  2
ACAD_DSTYLE_DIMJAG
 70
     0
  0
APPID
  2
ACAD_DSTYLE_DIMTALN
 70
     0
  0
APPID
  2
ACAD_MLEADERVER
 70
     0
  0
APPID
  2
ACAD_NAV_VCDISPLAY
 70
     0
  0
APPID
  2
ACAECLAYERSTANDARD
 70
     0
  0
APPID
  2
ACCMTRANSPARENCY
 70
     0
  0
APPID
  2
ACAD_EXEMPT_FROM_CAD_STANDARDS
 70
     0
  0
ENDTAB
  0
TABLE
  2
DIMSTYLE
 70
     4
  0
DIMSTYLE
  2
STANDARD
 70
     0
  3

  4

  5

  6

  7

 40
1.0
 41
0.18
 42
0.0625
 43
0.38
 44
0.18
 45
0.0
 46
0.0
 47
0.0
 48
0.0
140
0.18
141
0.09
142
0.0
143
25.3999999999999986
144
1.0
145
0.0
146
1.0
147
0.09
 71
     0
 72
     0
 73
     1
 74
     1
 75
     0
 76
     0
 77
     0
 78
     0
170
     0
171
     2
172
     0
173
     0
174
     0
175
     0
176
     0
177
     0
178
     0
  0
DIMSTYLE
  2
ANNOTATIVE
 70
     0
  3

  4

  5

  6

  7

 40
0.0
 41
2.5
 42
0.625
 43
3.75
 44
1.25
 45
0.0
 46
0.0
 47
0.0
 48
0.0
140
2.5
141
2.5
142
0.0
143
0.03937007874016
144
1.0
145
0.0
146
1.0
147
0.625
 71
     0
 72
     0
 73
     0
 74
     0
 75
     0
 76
     0
 77
     1
 78
     8
170
     0
171
     3
172
     1
173
     0
174
     0
175
     0
176
     0
177
     0
178
     0
  0
DIMSTYLE
  2
ISO-25
 70
     0
  3

  4

  5

  6

  7

 40
1.0
 41
2.5
 42
0.625
 43
3.75
 44
1.25
 45
0.0
 46
0.0
 47
0.0
 48
0.0
140
2.5
141
2.5
142
0.0
143
0.03937007874016
144
1.0
145
0.0
146
1.0
147
0.625
 71
     0
 72
     0
 73
     0
 74
     0
 75
     0
 76
     0
 77
     1
 78
     8
170
     0
171
     3
172
     1
173
     0
174
     0
175
     0
176
     0
177
     0
178
     0
  0
ENDTAB
  0
ENDSEC
  0
SECTION
  2
BLOCKS
  0
BLOCK
  8
0
  2
$MODEL_SPACE
 70
     0
 10
0.0
 20
0.0
 30
0.0
  3
$MODEL_SPACE
  1

  0
ENDBLK
  5
E67
  8
0
  0
BLOCK
 67
     1
  8
0
  2
$PAPER_SPACE
 70
     0
 10
0.0
 20
0.0
 30
0.0
  3
$PAPER_SPACE
  1

  0
ENDBLK
  5
E63
 67
     1
  8
0
  0
BLOCK
  8
0
  2
*U2
 70
     1
 10
0.0
 20
0.0
 30
0.0
  3
*U2
  1

  0
TEXT
  5
BE4
  8
0
 62
     4
 10
135.8134878704767914
 20
160.2806123007185874
 30
0.0
 40
4.0
  1
#1
 50
89.9999999999999147
  7
MTXPL_CNC_VECTOR
  0
ENDBLK
  5
BE7
  8
0
  0
BLOCK
  8
0
  2
*U3
 70
     1
 10
0.0
 20
0.0
 30
0.0
  3
*U3
  1

  0
TEXT
  5
BE9
  8
0
 62
     4
 10
209.472911252203204
 20
186.3225281137642071
 30
0.0
 40
4.0
  1
#2
 50
89.9999999999999147
  7
MTXPL_CNC_VECTOR
  0
ENDBLK
  5
BEB
  8
0
  0
BLOCK
  8
0
  2
*U4
 70
     1
 10
0.0
 20
0.0
 30
0.0
  3
*U4
  1

  0
TEXT
  5
BED
  8
0
 62
     4
 10
219.7820980430749103
 20
165.9305260593177138
 30
0.0
 40
4.0
  1
#2
 50
89.9999999999999147
  7
MTXPL_CNC_VECTOR
  0
ENDBLK
  5
BEF
  8
0
  0
BLOCK
  8
0
  2
*U5
 70
     1
 10
0.0
 20
0.0
 30
0.0
  3
*U5
  1

  0
TEXT
  5
BF1
  8
0
 62
     4
 10
20.0094439044744092
 20
145.4731981834653993
 30
0.0
 40
4.0
  1
#3
 50
89.9999999999999147
  7
MTXPL_CNC_VECTOR
  0
ENDBLK
  5
BF3
  8
0
  0
BLOCK
  8
0
  2
*U6
 70
     1
 10
0.0
 20
0.0
 30
0.0
  3
*U6
  1

  0
TEXT
  5
BF5
  8
0
 62
     4
 10
65.2058834266599376
 20
138.02058049353451
 30
0.0
 40
4.0
  1
#3
 50
89.9999999999999147
  7
MTXPL_CNC_VECTOR
  0
ENDBLK
  5
BF7
  8
0
  0
BLOCK
  8
0
  2
*U7
 70
     1
 10
0.0
 20
0.0
 30
0.0
  3
*U7
  1

  0
TEXT
  5
BF9
  8
0
 62
     4
 10
52.2113355131848635
 20
154.839863786908694
 30
0.0
 40
4.0
  1
#7
 50
89.9999999999999147
  7
MTXPL_CNC_VECTOR
  0
ENDBLK
  5
BFB
  8
0
  0
BLOCK
  8
0
  2
*U8
 70
     1
 10
0.0
 20
0.0
 30
0.0
  3
*U8
  1

  0
TEXT
  5
BFD
  8
0
 62
     4
 10
26.6874064542148304
 20
154.8387110719515078
 30
0.0
 40
4.0
  1
#7
 50
89.9999999999999147
  7
MTXPL_CNC_VECTOR
  0
ENDBLK
  5
BFF
  8
0
  0
BLOCK
  8
0
  2
*U9
 70
     1
 10
0.0
 20
0.0
 30
0.0
  3
*U9
  1

  0
TEXT
  5
C01
  8
0
 62
     4
 10
82.3714884730347592
 20
166.4282218871605039
 30
0.0
 40
4.0
  1
#8
 50
89.9999999999999147
  7
MTXPL_CNC_VECTOR
  0
ENDBLK
  5
C03
  8
0
  0
BLOCK
  8
0
  2
*U10
 70
     1
 10
0.0
 20
0.0
 30
0.0
  3
*U10
  1

  0
TEXT
  5
C05
  8
0
 62
     4
 10
90.1432538869924826
 20
166.1558062445413952
 30
0.0
 40
4.0
  1
#8
 50
89.9999999999999147
  7
MTXPL_CNC_VECTOR
  0
ENDBLK
  5
C07
  8
0
  0
BLOCK
  8
0
  2
*U11
 70
     1
 10
0.0
 20
0.0
 30
0.0
  3
*U11
  1

  0
TEXT
  5
C09
  8
0
 62
     4
 10
37.2801511963456278
 20
175.9275286933188909
 30
0.0
 40
4.0
  1
#11
 50
89.9999999999999147
  7
MTXPL_CNC_VECTOR
  0
ENDBLK
  5
C0B
  8
0
  0
BLOCK
  8
0
  2
*U12
 70
     1
 10
0.0
 20
0.0
 30
0.0
  3
*U12
  1

  0
TEXT
  5
C0D
  8
0
 62
     4
 10
50.0240501694374018
 20
188.4918517244732072
 30
0.0
 40
4.0
  1
#12
 50
89.9999999999999147
  7
MTXPL_CNC_VECTOR
  0
ENDBLK
  5
C0F
  8
0
  0
BLOCK
  8
0
  2
*U13
 70
     1
 10
0.0
 20
0.0
 30
0.0
  3
*U13
  1

  0
TEXT
  5
C11
  8
0
 62
     4
 10
102.0636205091030035
 20
148.6810581683303099
 30
0.0
 40
4.0
  1
#15
 50
89.9999999999999147
  7
MTXPL_CNC_VECTOR
  0
ENDBLK
  5
C13
  8
0
  0
BLOCK
  8
0
  2
*U14
 70
     1
 10
0.0
 20
0.0
 30
0.0
  3
*U14
  1

  0
TEXT
  5
C15
  8
0
 62
     4
 10
159.6972716342168894
 20
155.9325954260229139
 30
0.0
 40
4.0
  1
#17
 50
89.9999999999999147
  7
MTXPL_CNC_VECTOR
  0
ENDBLK
  5
C17
  8
0
  0
BLOCK
  8
0
  2
*U15
 70
     1
 10
0.0
 20
0.0
 30
0.0
  3
*U15
  1

  0
TEXT
  5
C19
  8
0
 62
     4
 10
159.6972716342168894
 20
180.9128445901712894
 30
0.0
 40
4.0
  1
#17
 50
89.9999999999999147
  7
MTXPL_CNC_VECTOR
  0
ENDBLK
  5
C1B
  8
0
  0
BLOCK
  8
0
  2
*U16
 70
     1
 10
0.0
 20
0.0
 30
0.0
  3
*U16
  1

  0
TEXT
  5
C1D
  8
0
 62
     4
 10
99.6078052691572537
 20
217.2050382986406021
 30
0.0
 40
4.0
  1
#18
 50
89.9999999999999147
  7
MTXPL_CNC_VECTOR
  0
ENDBLK
  5
C1F
  8
0
  0
BLOCK
  8
0
  2
*U17
 70
     1
 10
0.0
 20
0.0
 30
0.0
  3
*U17
  1

  0
TEXT
  5
C21
  8
0
 62
     4
 10
83.0200456209931161
 20
194.7618411063293138
 30
0.0
 40
4.0
  1
#21
 50
89.9999999999999147
  7
MTXPL_CNC_VECTOR
  0
ENDBLK
  5
C23
  8
0
  0
BLOCK
  8
0
  2
*U18
 70
     1
 10
0.0
 20
0.0
 30
0.0
  3
*U18
  1

  0
TEXT
  5
C25
  8
0
 62
     4
 10
24.2646713234502407
 20
206.9158905144396954
 30
0.0
 40
4.0
  1
#24
 50
89.9999999999999147
  7
MTXPL_CNC_VECTOR
  0
ENDBLK
  5
C27
  8
0
  0
BLOCK
  8
0
  2
*U19
 70
     1
 10
0.0
 20
0.0
 30
0.0
  3
*U19
  1

  0
TEXT
  5
C29
  8
0
 62
     4
 10
264.3311908009570743
 20
159.9371388956448072
 30
0.0
 40
4.0
  1
#26
 50
89.9999999999999147
  7
MTXPL_CNC_VECTOR
  0
ENDBLK
  5
C2B
  8
0
  0
BLOCK
  8
0
  2
*U20
 70
     1
 10
0.0
 20
0.0
 30
0.0
  3
*U20
  1

  0
TEXT
  5
C7E
  8
0
 62
     4
 10
143.524135087383911
 20
34.3283833774967704
 30
0.0
 40
4.0
  1
#1
 50
89.9999999999999147
  7
MTXPL_CNC_VECTOR
  0
ENDBLK
  5
C80
  8
0
  0
BLOCK
  8
0
  2
*U21
 70
     1
 10
0.0
 20
0.0
 30
0.0
  3
*U21
  1

  0
TEXT
  5
C82
  8
0
 62
     4
 10
217.1835584691102952
 20
60.3702991905424398
 30
0.0
 40
4.0
  1
#2
 50
89.9999999999999147
  7
MTXPL_CNC_VECTOR
  0
ENDBLK
  5
C84
  8
0
  0
BLOCK
  8
0
  2
*U22
 70
     1
 10
0.0
 20
0.0
 30
0.0
  3
*U22
  1

  0
TEXT
  5
C86
  8
0
 62
     4
 10
227.4927452599820015
 20
39.9782971360959607
 30
0.0
 40
4.0
  1
#2
 50
89.9999999999999147
  7
MTXPL_CNC_VECTOR
  0
ENDBLK
  5
C88
  8
0
  0
BLOCK
  8
0
  2
*U23
 70
     1
 10
0.0
 20
0.0
 30
0.0
  3
*U23
  1

  0
TEXT
  5
C8A
  8
0
 62
     4
 10
27.7200911213815004
 20
19.5209692602435787
 30
0.0
 40
4.0
  1
#3
 50
89.9999999999999147
  7
MTXPL_CNC_VECTOR
  0
ENDBLK
  5
C8C
  8
0
  0
BLOCK
  8
0
  2
*U24
 70
     1
 10
0.0
 20
0.0
 30
0.0
  3
*U24
  1

  0
TEXT
  5
C8E
  8
0
 62
     4
 10
72.9165306435670431
 20
12.0683515703126805
 30
0.0
 40
4.0
  1
#3
 50
89.9999999999999147
  7
MTXPL_CNC_VECTOR
  0
ENDBLK
  5
C90
  8
0
  0
BLOCK
  8
0
  2
*U25
 70
     1
 10
0.0
 20
0.0
 30
0.0
  3
*U25
  1

  0
TEXT
  5
C92
  8
0
 62
     4
 10
59.9219827300919405
 20
28.8876348636869409
 30
0.0
 40
4.0
  1
#7
 50
89.9999999999999147
  7
MTXPL_CNC_VECTOR
  0
ENDBLK
  5
C94
  8
0
  0
BLOCK
  8
0
  2
*U26
 70
     1
 10
0.0
 20
0.0
 30
0.0
  3
*U26
  1

  0
TEXT
  5
C96
  8
0
 62
     4
 10
34.3980536711219074
 20
28.8864821487297192
 30
0.0
 40
4.0
  1
#7
 50
89.9999999999999147
  7
MTXPL_CNC_VECTOR
  0
ENDBLK
  5
C98
  8
0
  0
BLOCK
  8
0
  2
*U27
 70
     1
 10
0.0
 20
0.0
 30
0.0
  3
*U27
  1

  0
TEXT
  5
C9A
  8
0
 62
     4
 10
90.082135689941893
 20
40.4759929639386371
 30
0.0
 40
4.0
  1
#8
 50
89.9999999999999147
  7
MTXPL_CNC_VECTOR
  0
ENDBLK
  5
C9C
  8
0
  0
BLOCK
  8
0
  2
*U28
 70
     1
 10
0.0
 20
0.0
 30
0.0
  3
*U28
  1

  0
TEXT
  5
C9E
  8
0
 62
     4
 10
97.8539011038995454
 20
40.2035773213196066
 30
0.0
 40
4.0
  1
#8
 50
89.9999999999999147
  7
MTXPL_CNC_VECTOR
  0
ENDBLK
  5
CA0
  8
0
  0
BLOCK
  8
0
  2
*U29
 70
     1
 10
0.0
 20
0.0
 30
0.0
  3
*U29
  1

  0
TEXT
  5
CA2
  8
0
 62
     4
 10
44.9907984132527119
 20
49.9752997700971022
 30
0.0
 40
4.0
  1
#11
 50
89.9999999999999147
  7
MTXPL_CNC_VECTOR
  0
ENDBLK
  5
CA4
  8
0
  0
BLOCK
  8
0
  2
*U30
 70
     1
 10
0.0
 20
0.0
 30
0.0
  3
*U30
  1

  0
TEXT
  5
CA6
  8
0
 62
     4
 10
57.7346973863445001
 20
62.5396228012514186
 30
0.0
 40
4.0
  1
#12
 50
89.9999999999999147
  7
MTXPL_CNC_VECTOR
  0
ENDBLK
  5
CA8
  8
0
  0
BLOCK
  8
0
  2
*U31
 70
     1
 10
0.0
 20
0.0
 30
0.0
  3
*U31
  1

  0
TEXT
  5
CAA
  8
0
 62
     4
 10
109.7742677260100947
 20
22.7288292451084715
 30
0.0
 40
4.0
  1
#15
 50
89.9999999999999147
  7
MTXPL_CNC_VECTOR
  0
ENDBLK
  5
CAC
  8
0
  0
BLOCK
  8
0
  2
*U32
 70
     1
 10
0.0
 20
0.0
 30
0.0
  3
*U32
  1

  0
TEXT
  5
CAE
  8
0
 62
     4
 10
167.4079188511240091
 20
29.9803665028011004
 30
0.0
 40
4.0
  1
#17
 50
89.9999999999999147
  7
MTXPL_CNC_VECTOR
  0
ENDBLK
  5
CB0
  8
0
  0
BLOCK
  8
0
  2
*U33
 70
     1
 10
0.0
 20
0.0
 30
0.0
  3
*U33
  1

  0
TEXT
  5
CB2
  8
0
 62
     4
 10
167.4079188511240091
 20
54.9606156669494368
 30
0.0
 40
4.0
  1
#17
 50
89.9999999999999147
  7
MTXPL_CNC_VECTOR
  0
ENDBLK
  5
CB4
  8
0
  0
BLOCK
  8
0
  2
*U34
 70
     1
 10
0.0
 20
0.0
 30
0.0
  3
*U34
  1

  0
TEXT
  5
CB6
  8
0
 62
     4
 10
107.3184524860643023
 20
91.2528093754187495
 30
0.0
 40
4.0
  1
#18
 50
89.9999999999999147
  7
MTXPL_CNC_VECTOR
  0
ENDBLK
  5
CB8
  8
0
  0
BLOCK
  8
0
  2
*U35
 70
     1
 10
0.0
 20
0.0
 30
0.0
  3
*U35
  1

  0
TEXT
  5
CBA
  8
0
 62
     4
 10
90.7306928379001647
 20
68.8096121831076886
 30
0.0
 40
4.0
  1
#21
 50
89.9999999999999147
  7
MTXPL_CNC_VECTOR
  0
ENDBLK
  5
CBC
  8
0
  0
BLOCK
  8
0
  2
*U36
 70
     1
 10
0.0
 20
0.0
 30
0.0
  3
*U36
  1

  0
TEXT
  5
CBE
  8
0
 62
     4
 10
31.975318540357339
 20
80.9636615912177433
 30
0.0
 40
4.0
  1
#24
 50
89.9999999999999147
  7
MTXPL_CNC_VECTOR
  0
ENDBLK
  5
CC0
  8
0
  0
BLOCK
  8
0
  2
*U37
 70
     1
 10
0.0
 20
0.0
 30
0.0
  3
*U37
  1

  0
TEXT
  5
CC2
  8
0
 62
     4
 10
272.0418380178642224
 20
33.9849099724231607
 30
0.0
 40
4.0
  1
#26
 50
89.9999999999999147
  7
MTXPL_CNC_VECTOR
  0
ENDBLK
  5
CC4
  8
0
  0
BLOCK
  8
0
  2
*U38
 70
     1
 10
0.0
 20
0.0
 30
0.0
  3
*U38
  1

  0
TEXT
  5
D17
  8
0
 62
     4
 10
135.8134878704767914
 20
160.2806123007185874
 30
0.0
 40
4.0
  1
#1
 50
89.9999999999999147
  7
MTXPL_CNC_VECTOR
  0
ENDBLK
  5
D19
  8
0
  0
BLOCK
  8
0
  2
*U39
 70
     1
 10
0.0
 20
0.0
 30
0.0
  3
*U39
  1

  0
TEXT
  5
D1B
  8
0
 62
     4
 10
209.472911252203204
 20
186.3225281137642071
 30
0.0
 40
4.0
  1
#2
 50
89.9999999999999147
  7
MTXPL_CNC_VECTOR
  0
ENDBLK
  5
D1D
  8
0
  0
BLOCK
  8
0
  2
*U40
 70
     1
 10
0.0
 20
0.0
 30
0.0
  3
*U40
  1

  0
TEXT
  5
D1F
  8
0
 62
     4
 10
219.7820980430749103
 20
165.9305260593177138
 30
0.0
 40
4.0
  1
#2
 50
89.9999999999999147
  7
MTXPL_CNC_VECTOR
  0
ENDBLK
  5
D21
  8
0
  0
BLOCK
  8
0
  2
*U41
 70
     1
 10
0.0
 20
0.0
 30
0.0
  3
*U41
  1

  0
TEXT
  5
D23
  8
0
 62
     4
 10
20.0094439044744092
 20
145.4731981834653993
 30
0.0
 40
4.0
  1
#3
 50
89.9999999999999147
  7
MTXPL_CNC_VECTOR
  0
ENDBLK
  5
D25
  8
0
  0
BLOCK
  8
0
  2
*U42
 70
     1
 10
0.0
 20
0.0
 30
0.0
  3
*U42
  1

  0
TEXT
  5
D27
  8
0
 62
     4
 10
65.2058834266599376
 20
138.02058049353451
 30
0.0
 40
4.0
  1
#3
 50
89.9999999999999147
  7
MTXPL_CNC_VECTOR
  0
ENDBLK
  5
D29
  8
0
  0
BLOCK
  8
0
  2
*U43
 70
     1
 10
0.0
 20
0.0
 30
0.0
  3
*U43
  1

  0
TEXT
  5
D2B
  8
0
 62
     4
 10
52.2113355131848635
 20
154.839863786908694
 30
0.0
 40
4.0
  1
#7
 50
89.9999999999999147
  7
MTXPL_CNC_VECTOR
  0
ENDBLK
  5
D2D
  8
0
  0
BLOCK
  8
0
  2
*U44
 70
     1
 10
0.0
 20
0.0
 30
0.0
  3
*U44
  1

  0
TEXT
  5
D2F
  8
0
 62
     4
 10
26.6874064542148304
 20
154.8387110719515078
 30
0.0
 40
4.0
  1
#7
 50
89.9999999999999147
  7
MTXPL_CNC_VECTOR
  0
ENDBLK
  5
D31
  8
0
  0
BLOCK
  8
0
  2
*U45
 70
     1
 10
0.0
 20
0.0
 30
0.0
  3
*U45
  1

  0
TEXT
  5
D33
  8
0
 62
     4
 10
82.3714884730347592
 20
166.4282218871605039
 30
0.0
 40
4.0
  1
#8
 50
89.9999999999999147
  7
MTXPL_CNC_VECTOR
  0
ENDBLK
  5
D35
  8
0
  0
BLOCK
  8
0
  2
*U46
 70
     1
 10
0.0
 20
0.0
 30
0.0
  3
*U46
  1

  0
TEXT
  5
D37
  8
0
 62
     4
 10
90.1432538869924826
 20
166.1558062445413952
 30
0.0
 40
4.0
  1
#8
 50
89.9999999999999147
  7
MTXPL_CNC_VECTOR
  0
ENDBLK
  5
D39
  8
0
  0
BLOCK
  8
0
  2
*U47
 70
     1
 10
0.0
 20
0.0
 30
0.0
  3
*U47
  1

  0
TEXT
  5
D3B
  8
0
 62
     4
 10
37.2801511963456278
 20
175.9275286933188909
 30
0.0
 40
4.0
  1
#11
 50
89.9999999999999147
  7
MTXPL_CNC_VECTOR
  0
ENDBLK
  5
D3D
  8
0
  0
BLOCK
  8
0
  2
*U48
 70
     1
 10
0.0
 20
0.0
 30
0.0
  3
*U48
  1

  0
TEXT
  5
D3F
  8
0
 62
     4
 10
50.0240501694374018
 20
188.4918517244732072
 30
0.0
 40
4.0
  1
#12
 50
89.9999999999999147
  7
MTXPL_CNC_VECTOR
  0
ENDBLK
  5
D41
  8
0
  0
BLOCK
  8
0
  2
*U49
 70
     1
 10
0.0
 20
0.0
 30
0.0
  3
*U49
  1

  0
TEXT
  5
D43
  8
0
 62
     4
 10
102.0636205091030035
 20
148.6810581683303099
 30
0.0
 40
4.0
  1
#15
 50
89.9999999999999147
  7
MTXPL_CNC_VECTOR
  0
ENDBLK
  5
D45
  8
0
  0
BLOCK
  8
0
  2
*U50
 70
     1
 10
0.0
 20
0.0
 30
0.0
  3
*U50
  1

  0
TEXT
  5
D47
  8
0
 62
     4
 10
159.6972716342168894
 20
155.9325954260229139
 30
0.0
 40
4.0
  1
#17
 50
89.9999999999999147
  7
MTXPL_CNC_VECTOR
  0
ENDBLK
  5
D49
  8
0
  0
BLOCK
  8
0
  2
*U51
 70
     1
 10
0.0
 20
0.0
 30
0.0
  3
*U51
  1

  0
TEXT
  5
D4B
  8
0
 62
     4
 10
159.6972716342168894
 20
180.9128445901712894
 30
0.0
 40
4.0
  1
#17
 50
89.9999999999999147
  7
MTXPL_CNC_VECTOR
  0
ENDBLK
  5
D4D
  8
0
  0
BLOCK
  8
0
  2
*U52
 70
     1
 10
0.0
 20
0.0
 30
0.0
  3
*U52
  1

  0
TEXT
  5
D4F
  8
0
 62
     4
 10
99.6078052691572537
 20
217.2050382986406021
 30
0.0
 40
4.0
  1
#18
 50
89.9999999999999147
  7
MTXPL_CNC_VECTOR
  0
ENDBLK
  5
D51
  8
0
  0
BLOCK
  8
0
  2
*U53
 70
     1
 10
0.0
 20
0.0
 30
0.0
  3
*U53
  1

  0
TEXT
  5
D53
  8
0
 62
     4
 10
83.0200456209931161
 20
194.7618411063293138
 30
0.0
 40
4.0
  1
#21
 50
89.9999999999999147
  7
MTXPL_CNC_VECTOR
  0
ENDBLK
  5
D55
  8
0
  0
BLOCK
  8
0
  2
*U54
 70
     1
 10
0.0
 20
0.0
 30
0.0
  3
*U54
  1

  0
TEXT
  5
D57
  8
0
 62
     4
 10
24.2646713234502407
 20
206.9158905144396954
 30
0.0
 40
4.0
  1
#24
 50
89.9999999999999147
  7
MTXPL_CNC_VECTOR
  0
ENDBLK
  5
D59
  8
0
  0
BLOCK
  8
0
  2
*U55
 70
     1
 10
0.0
 20
0.0
 30
0.0
  3
*U55
  1

  0
TEXT
  5
D5B
  8
0
 62
     4
 10
264.3311908009570743
 20
159.9371388956448072
 30
0.0
 40
4.0
  1
#26
 50
89.9999999999999147
  7
MTXPL_CNC_VECTOR
  0
ENDBLK
  5
D5D
  8
0
  0
BLOCK
  8
0
  2
*U56
 70
     1
 10
0.0
 20
0.0
 30
0.0
  3
*U56
  1

  0
TEXT
  5
DB0
  8
0
 62
     4
 10
161.8971645647781941
 20
168.7989158036257038
 30
0.0
 40
4.0
  1
#1
 50
269.9999999999998863
  7
MTXPL_CNC_VECTOR
  0
ENDBLK
  5
DB2
  8
0
  0
BLOCK
  8
0
  2
*U57
 70
     1
 10
0.0
 20
0.0
 30
0.0
  3
*U57
  1

  0
TEXT
  5
DB4
  8
0
 62
     4
 10
88.2377411830517531
 20
142.7569999905801978
 30
0.0
 40
4.0
  1
#2
 50
269.9999999999998863
  7
MTXPL_CNC_VECTOR
  0
ENDBLK
  5
DB6
  8
0
  0
BLOCK
  8
0
  2
*U58
 70
     1
 10
0.0
 20
0.0
 30
0.0
  3
*U58
  1

  0
TEXT
  5
DB8
  8
0
 62
     4
 10
77.9285543921800326
 20
163.1490020450266911
 30
0.0
 40
4.0
  1
#2
 50
269.9999999999998863
  7
MTXPL_CNC_VECTOR
  0
ENDBLK
  5
DBA
  8
0
  0
BLOCK
  8
0
  2
*U59
 70
     1
 10
0.0
 20
0.0
 30
0.0
  3
*U59
  1

  0
TEXT
  5
DBC
  8
0
 62
     4
 10
277.7012085307806046
 20
183.6063299208790056
 30
0.0
 40
4.0
  1
#3
 50
269.9999999999998863
  7
MTXPL_CNC_VECTOR
  0
ENDBLK
  5
DBE
  8
0
  0
BLOCK
  8
0
  2
*U60
 70
     1
 10
0.0
 20
0.0
 30
0.0
  3
*U60
  1

  0
TEXT
  5
DC0
  8
0
 62
     4
 10
232.504769008594991
 20
191.0589476108098097
 30
0.0
 40
4.0
  1
#3
 50
269.9999999999998863
  7
MTXPL_CNC_VECTOR
  0
ENDBLK
  5
DC2
  8
0
  0
BLOCK
  8
0
  2
*U61
 70
     1
 10
0.0
 20
0.0
 30
0.0
  3
*U61
  1

  0
TEXT
  5
DC4
  8
0
 62
     4
 10
245.4993169220701077
 20
174.2396643174357109
 30
0.0
 40
4.0
  1
#7
 50
269.9999999999998863
  7
MTXPL_CNC_VECTOR
  0
ENDBLK
  5
DC6
  8
0
  0
BLOCK
  8
0
  2
*U62
 70
     1
 10
0.0
 20
0.0
 30
0.0
  3
*U62
  1

  0
TEXT
  5
DC8
  8
0
 62
     4
 10
271.0232459810400769
 20
174.2408170323928971
 30
0.0
 40
4.0
  1
#7
 50
269.9999999999998863
  7
MTXPL_CNC_VECTOR
  0
ENDBLK
  5
DCA
  8
0
  0
BLOCK
  8
0
  2
*U63
 70
     1
 10
0.0
 20
0.0
 30
0.0
  3
*U63
  1

  0
TEXT
  5
DCC
  8
0
 62
     4
 10
215.3391639622201978
 20
162.6513062171839863
 30
0.0
 40
4.0
  1
#8
 50
269.9999999999998863
  7
MTXPL_CNC_VECTOR
  0
ENDBLK
  5
DCE
  8
0
  0
BLOCK
  8
0
  2
*U64
 70
     1
 10
0.0
 20
0.0
 30
0.0
  3
*U64
  1

  0
TEXT
  5
DD0
  8
0
 62
     4
 10
207.5673985482623891
 20
162.9237218598030097
 30
0.0
 40
4.0
  1
#8
 50
269.9999999999998863
  7
MTXPL_CNC_VECTOR
  0
ENDBLK
  5
DD2
  8
0
  0
BLOCK
  8
0
  2
*U65
 70
     1
 10
0.0
 20
0.0
 30
0.0
  3
*U65
  1

  0
TEXT
  5
DD4
  8
0
 62
     4
 10
260.4305012389094145
 20
153.1519994110255141
 30
0.0
 40
4.0
  1
#11
 50
269.9999999999998863
  7
MTXPL_CNC_VECTOR
  0
ENDBLK
  5
DD6
  8
0
  0
BLOCK
  8
0
  2
*U66
 70
     1
 10
0.0
 20
0.0
 30
0.0
  3
*U66
  1

  0
TEXT
  5
DD8
  8
0
 62
     4
 10
247.6866022658176121
 20
140.5876763798711977
 30
0.0
 40
4.0
  1
#12
 50
269.9999999999998863
  7
MTXPL_CNC_VECTOR
  0
ENDBLK
  5
DDA
  8
0
  0
BLOCK
  8
0
  2
*U67
 70
     1
 10
0.0
 20
0.0
 30
0.0
  3
*U67
  1

  0
TEXT
  5
DDC
  8
0
 62
     4
 10
195.6470319261518966
 20
180.3984699360142088
 30
0.0
 40
4.0
  1
#15
 50
269.9999999999998863
  7
MTXPL_CNC_VECTOR
  0
ENDBLK
  5
DDE
  8
0
  0
BLOCK
  8
0
  2
*U68
 70
     1
 10
0.0
 20
0.0
 30
0.0
  3
*U68
  1

  0
TEXT
  5
DE0
  8
0
 62
     4
 10
138.0133808010380108
 20
173.1469326783214058
 30
0.0
 40
4.0
  1
#17
 50
269.9999999999998863
  7
MTXPL_CNC_VECTOR
  0
ENDBLK
  5
DE2
  8
0
  0
BLOCK
  8
0
  2
*U69
 70
     1
 10
0.0
 20
0.0
 30
0.0
  3
*U69
  1

  0
TEXT
  5
DE4
  8
0
 62
     4
 10
138.0133808010380108
 20
148.1666835141730871
 30
0.0
 40
4.0
  1
#17
 50
269.9999999999998863
  7
MTXPL_CNC_VECTOR
  0
ENDBLK
  5
DE6
  8
0
  0
BLOCK
  8
0
  2
*U70
 70
     1
 10
0.0
 20
0.0
 30
0.0
  3
*U70
  1

  0
TEXT
  5
DE8
  8
0
 62
     4
 10
198.1028471660978028
 20
111.8744898057038029
 30
0.0
 40
4.0
  1
#18
 50
269.9999999999998863
  7
MTXPL_CNC_VECTOR
  0
ENDBLK
  5
DEA
  8
0
  0
BLOCK
  8
0
  2
*U71
 70
     1
 10
0.0
 20
0.0
 30
0.0
  3
*U71
  1

  0
TEXT
  5
DEC
  8
0
 62
     4
 10
214.6906068142619119
 20
134.3176869980148069
 30
0.0
 40
4.0
  1
#21
 50
269.9999999999998863
  7
MTXPL_CNC_VECTOR
  0
ENDBLK
  5
DEE
  8
0
  0
BLOCK
  8
0
  2
*U72
 70
     1
 10
0.0
 20
0.0
 30
0.0
  3
*U72
  1

  0
TEXT
  5
DF0
  8
0
 62
     4
 10
273.4459811118048265
 20
122.1636375899047948
 30
0.0
 40
4.0
  1
#24
 50
269.9999999999998863
  7
MTXPL_CNC_VECTOR
  0
ENDBLK
  5
DF2
  8
0
  0
BLOCK
  8
0
  2
*U73
 70
     1
 10
0.0
 20
0.0
 30
0.0
  3
*U73
  1

  0
TEXT
  5
DF4
  8
0
 62
     4
 10
33.3794616342979111
 20
169.1423892086993988
 30
0.0
 40
4.0
  1
#26
 50
269.9999999999998863
  7
MTXPL_CNC_VECTOR
  0
ENDBLK
  5
DF6
  8
0
  0
BLOCK
  8
0
  2
*U76
 70
     1
 10
0.0
 20
0.0
 30
0.0
  3
*U76
  1

  0
TEXT
  5
1269
  8
0
 62
     4
 10
217.1835584691102952
 20
60.3702991905424398
 30
0.0
 40
4.0
  1
#2
 50
89.9999999999999147
  7
MTXPL_CNC_VECTOR
  0
ENDBLK
  5
126A
  8
0
  0
BLOCK
  8
0
  2
*U77
 70
     1
 10
0.0
 20
0.0
 30
0.0
  3
*U77
  1

  0
TEXT
  5
126D
  8
0
 62
     4
 10
227.4927452599820015
 20
39.9782971360959607
 30
0.0
 40
4.0
  1
#2
 50
89.9999999999999147
  7
MTXPL_CNC_VECTOR
  0
ENDBLK
  5
126E
  8
0
  0
BLOCK
  8
0
  2
*U78
 70
     1
 10
0.0
 20
0.0
 30
0.0
  3
*U78
  1

  0
TEXT
  5
1271
  8
0
 62
     4
 10
167.4079188511240091
 20
29.9803665028011004
 30
0.0
 40
4.0
  1
#17
 50
89.9999999999999147
  7
MTXPL_CNC_VECTOR
  0
ENDBLK
  5
1272
  8
0
  0
BLOCK
  8
0
  2
*U79
 70
     1
 10
0.0
 20
0.0
 30
0.0
  3
*U79
  1

  0
TEXT
  5
1275
  8
0
 62
     4
 10
167.4079188511240091
 20
54.9606156669494368
 30
0.0
 40
4.0
  1
#17
 50
89.9999999999999147
  7
MTXPL_CNC_VECTOR
  0
ENDBLK
  5
1276
  8
0
  0
ENDSEC
  0
SECTION
  2
ENTITIES
  0
POLYLINE
  5
4BE
  8
0
 62
     7
 66
     1
 10
0.0
 20
0.0
 30
0.0
 70
     1
  0
VERTEX
  5
1409
  8
0
 62
     7
 10
252.6001761417298042
 20
52.0366737657410923
 30
0.0
  0
VERTEX
  5
140A
  8
0
 62
     7
 10
253.464563165688304
 20
40.1014055579651298
 30
0.0
 42
0.9301036214767748
  0
VERTEX
  5
140B
  8
0
 62
     7
 10
257.2546092026660745
 20
40.1010293845729606
 30
0.0
  0
VERTEX
  5
140C
  8
0
 62
     7
 10
258.1213654315396866
 20
52.0361257712155165
 30
0.0
 42
0.3277372598662773
  0
VERTEX
  5
140D
  8
0
 62
     7
 10
258.1217678527378894
 20
56.0906254153811901
 30
0.0
  0
VERTEX
  5
140E
  8
0
 62
     7
 10
257.257380828779219
 20
68.0258936231572306
 30
0.0
 42
0.9301036214767828
  0
VERTEX
  5
140F
  8
0
 62
     7
 10
253.4673347918015054
 20
68.0262697965495136
 30
0.0
  0
VERTEX
  5
1410
  8
0
 62
     7
 10
252.6005785629218963
 20
56.0911734098986301
 30
0.0
 42
0.3277372598654609
  0
SEQEND
  5
1411
  8
0
 62
     7
  0
CIRCLE
  5
4BF
  8
0
 62
     7
 10
205.9942926489248975
 20
82.8494708818985259
 30
0.0
 40
1.0749999999999991
  0
CIRCLE
  5
4C0
  8
0
 62
     7
 10
205.9942926488621993
 20
24.8494708818984407
 30
0.0
 40
1.0749999999999991
  0
CIRCLE
  5
4C1
  8
0
 62
     7
 10
156.9942926488762964
 20
24.8494708819514507
 30
0.0
 40
1.0749999999999991
  0
CIRCLE
  5
4C2
  8
0
 62
     7
 10
156.9942926489389095
 20
82.8494708819513335
 30
0.0
 40
1.0749999999999991
  0
LINE
  5
5B1
  8
LAYER_1
 62
     7
 10
188.6873375595442042
 20
79.1278495905613113
 30
0.0
 11
163.1148375595440996
 21
79.1278495905611408
 31
0.0
  0
ARC
  5
5B2
  8
LAYER_1
 62
     7
 10
163.0699192262862027
 20
75.1048875110831204
 30
0.0
 40
4.0232128392094912
 50
89.3602912665608358
 51
178.9850822990960069
  0
LINE
  5
5B3
  8
LAYER_1
 62
     7
 10
159.0473375595441894
 20
75.1761495905599872
 30
0.0
 11
159.0473375595441894
 21
72.9464838871305119
 31
0.0
  0
LINE
  5
5D4
  8
LAYER_1
 62
     7
 10
163.1148375595442985
 20
28.9994495905614613
 30
0.0
 11
188.687447714398786
 21
28.9995463881502715
 31
0.0
  0
ARC
  5
5D8
  8
LAYER_1
 62
     7
 10
163.0699181002541991
 20
33.0224105110103778
 30
0.0
 40
4.0232116928247823
 50
181.0149014814477084
 51
270.6397249528924931
  0
LINE
  5
5DF
  8
LAYER_1
 62
     7
 10
159.0473375595441894
 20
35.1795604448274801
 30
0.0
 11
159.0473375595441894
 21
32.9511495905618119
 31
0.0
  0
LINE
  5
601
  8
0
 62
     7
 10
240.6873375595438915
 20
63.2118880773598519
 30
0.0
 11
241.6873375595438063
 21
63.2118880773598519
 31
0.0
  0
ARC
  5
602
  8
0
 62
     7
 10
241.6873375595438063
 20
64.2118880773598448
 30
0.0
 40
0.9999999999999784
 50
270.0
 51
0.0
  0
LINE
  5
603
  8
0
 62
     7
 10
242.6873375595436926
 20
64.6118880773598221
 30
0.0
 11
242.6873375595438915
 21
70.2118880773598448
 31
0.0
  0
ARC
  5
604
  8
0
 62
     7
 10
241.6873375595438915
 20
70.2118880773598448
 30
0.0
 40
0.9999999999999784
 50
0.0
 51
90.0
  0
LINE
  5
605
  8
0
 62
     7
 10
241.6873375595438915
 20
71.2118880773598448
 30
0.0
 11
240.6873375595438915
 21
71.2118880773598448
 31
0.0
  0
LINE
  5
60C
  8
0
 62
     7
 10
240.6873375595436926
 20
36.9118880773597766
 30
0.0
 11
241.6873375595438063
 21
36.9118880773597482
 31
0.0
  0
ARC
  5
60D
  8
0
 62
     7
 10
241.6873375595438063
 20
37.9118880773597482
 30
0.0
 40
0.9999999999999784
 50
270.0
 51
0.0
  0
LINE
  5
60E
  8
0
 62
     7
 10
242.6873375595438063
 20
37.9118880773597482
 30
0.0
 11
242.6873375595438063
 21
44.5118880773597567
 31
0.0
  0
ARC
  5
60F
  8
0
 62
     7
 10
241.6873375595438063
 20
44.9118880773597482
 30
0.0
 40
1.0000000000000131
 50
359.9999999999935767
 51
90.0
  0
LINE
  5
610
  8
0
 62
     7
 10
241.6873375595438063
 20
45.9118880773597269
 30
0.0
 11
240.6873375595438063
 21
45.9118880773597695
 31
0.0
  0
LINE
  5
612
  8
0
 62
     7
 10
240.6873375595436926
 20
31.8118880773602086
 30
0.0
 11
240.6873375595436926
 21
36.9118880773597766
 31
0.0
  0
LINE
  5
613
  8
0
 62
     7
 10
240.6873375595438915
 20
71.2118880773598448
 30
0.0
 11
240.6873375595438915
 21
76.3118880773597255
 31
0.0
  0
LINE
  5
614
  8
0
 62
     7
 10
240.6873375595438063
 20
55.4618880773598306
 30
0.0
 11
240.6856955132209919
 21
55.4618880773598306
 31
0.0
  0
LINE
  5
615
  8
0
 62
     7
 10
240.6873375595438063
 20
45.9118880773597695
 30
0.0
 11
240.6873375595438915
 21
63.2118880773598519
 31
0.0
  0
LINE
  5
67E
  8
0
  6
CONTINUOUS
 62
     7
 10
152.7106498260810099
 20
16.5636495905613117
 30
0.0
 11
152.7106498260810099
 21
91.5636495905613401
 31
0.0
  0
ARC
  5
67F
  8
0
  6
CONTINUOUS
 62
     7
 10
287.7106498260808962
 20
91.5636495905611838
 30
0.0
 40
10.0
 50
0.0
 51
90.0
  0
ARC
  5
681
  8
0
  6
CONTINUOUS
 62
     7
 10
287.7106498260808962
 20
16.5636495905611696
 30
0.0
 40
10.0
 50
270.0
 51
0.0
  0
LINE
  5
682
  8
0
  6
CONTINUOUS
 62
     7
 10
297.7106498260810099
 20
16.5636495905612193
 30
0.0
 11
297.7106498260810099
 21
91.5636495905611838
 31
0.0
  0
ARC
  5
683
  8
0
  6
CONTINUOUS
 62
     7
 10
162.7106498260810099
 20
16.5636495905613401
 30
0.0
 40
10.0
 50
180.0
 51
270.0
  0
ARC
  5
684
  8
0
  6
CONTINUOUS
 62
     7
 10
162.7106498260810099
 20
91.5636495905613401
 30
0.0
 40
10.0
 50
90.0
 51
180.0
  0
ARC
  5
68B
  8
0
  6
CONTINUOUS
 62
     7
 10
237.9845055884470071
 20
31.6887970494844815
 30
0.0
 40
2.7056333944432449
 50
263.6943069737886276
 51
2.6075341587240839
  0
ARC
  5
68C
  8
0
  6
CONTINUOUS
 62
     7
 10
237.9792131792412135
 20
76.4327869175646128
 30
0.0
 40
2.7108216814746071
 50
357.4438408342015805
 51
96.1810494350000056
  0
LINE
  5
68D
  8
0
  6
CONTINUOUS
 62
     7
 10
237.6873375595438063
 20
28.9995326095819586
 30
0.0
 11
188.6874477143990134
 21
28.9995463881502715
 31
0.0
  0
LINE
  5
68E
  8
0
  6
CONTINUOUS
 62
     7
 10
159.0473375595441894
 20
35.5795604448274503
 30
0.0
 11
159.0473375595441894
 21
72.5464838871305204
 31
0.0
  0
CIRCLE
  5
6A3
  8
0
  6
CONTINUOUS
 62
     7
 10
255.3609719972336052
 20
29.0636495905612016
 30
0.0
 40
1.1999999999999991
  0
CIRCLE
  5
6A4
  8
0
  6
CONTINUOUS
 62
     7
 10
255.3609719972336904
 20
79.0636495905612122
 30
0.0
 40
1.1999999999999991
  0
LINE
  5
6A5
  8
0
  6
CONTINUOUS
 62
     7
 10
287.7106498260808962
 20
6.5636495905611678
 30
0.0
 11
162.7106498260810099
 21
6.5636495905612833
 31
0.0
  0
LINE
  5
6A6
  8
0
  6
CONTINUOUS
 62
     7
 10
237.6873375595438063
 20
79.1278495905611834
 30
0.0
 11
188.6873375595442894
 21
79.1278495905612544
 31
0.0
  0
CIRCLE
  5
6A7
  8
0
 62
     7
 10
198.5251873784420127
 20
86.5636495905612833
 30
0.0
 40
1.0749999999999991
  0
CIRCLE
  5
6A8
  8
0
 62
     7
 10
164.4521041060858977
 20
86.5636495905613401
 30
0.0
 40
1.0749999999999991
  0
CIRCLE
  5
6A9
  8
0
 62
     7
 10
198.4521041060856987
 20
21.5636495905613117
 30
0.0
 40
1.0749999999999991
  0
CIRCLE
  5
6AA
  8
0
 62
     7
 10
164.4521041060858124
 20
21.5636495905613401
 30
0.0
 40
1.0749999999999991
  0
CIRCLE
  5
6C5
  8
0
 62
     7
 10
179.9942926488762964
 20
24.8494708819514507
 30
0.0
 40
1.0749999999999991
  0
CIRCLE
  5
6C6
  8
0
 62
     7
 10
179.9942926489389095
 20
82.8494708819512624
 30
0.0
 40
1.0749999999999991
  0
CIRCLE
  5
6C7
  8
0
 62
     7
 10
189.0664162012120926
 20
21.5018478681744796
 30
0.0
 40
1.0749999999999991
  0
CIRCLE
  5
6C8
  8
0
 62
     7
 10
161.1566871564562007
 20
21.4960480575168411
 30
0.0
 40
1.0749999999999991
  0
CIRCLE
  5
6C9
  8
0
 62
     7
 10
156.0485176216070045
 20
73.5835783846808198
 30
0.0
 40
1.0749999999999991
  0
INSERT
  5
6DB
  8
0
 62
     7
  2
*U37
 10
0.0
 20
0.0
 30
0.0
  0
ARC
  5
910
  8
0
 62
     7
 10
198.9122315672452999
 20
165.8064026297946896
 30
0.0
 40
3.9999999999998952
 50
226.9498194414090051
 51
14.1647208772363999
  0
ARC
  5
911
  8
0
 62
     7
 10
231.8785027381410941
 20
174.126556780227105
 30
0.0
 40
30.0000000000000391
 50
160.0909355436610042
 51
194.1647208772363911
  0
ARC
  5
912
  8
0
 62
     7
 10
183.6784632232300112
 20
259.0795290841094243
 30
0.0
 40
70.0000000000020606
 50
250.7728218709289081
 51
281.9886376275981092
  0
ARC
  5
913
  8
0
 62
     7
 10
126.2112175078175937
 20
87.9808762600373342
 30
0.0
 40
102.4999999999947988
 50
47.1338523476183084
 51
71.8938149155993784
  0
POLYLINE
  5
914
  8
0
 62
     7
 66
     1
 10
0.0
 20
0.0
 30
0.0
 70
     1
  0
VERTEX
  5
1412
  8
0
 62
     7
 10
288.4770023723468739
 20
168.4574419672854049
 30
0.0
  0
VERTEX
  5
1413
  8
0
 62
     7
 10
282.4770023723485224
 20
168.4574419672854049
 30
0.0
 42
0.4142135623731368
  0
VERTEX
  5
1414
  8
0
 62
     7
 10
281.4770023723472718
 20
167.4574419672842112
 30
0.0
  0
VERTEX
  5
1415
  8
0
 62
     7
 10
281.4770023723476129
 20
161.457441967284808
 30
0.0
 42
0.4142135623730793
  0
VERTEX
  5
1416
  8
0
 62
     7
 10
282.4770023723468739
 20
160.4574419672854901
 30
0.0
  0
VERTEX
  5
1417
  8
0
 62
     7
 10
288.4770023723481813
 20
160.4574419672854901
 30
0.0
 42
0.4142135623731368
  0
VERTEX
  5
1418
  8
0
 62
     7
 10
289.4770023723474992
 20
161.4574419672846943
 30
0.0
  0
VERTEX
  5
1419
  8
0
 62
     7
 10
289.477002372347215
 20
167.4574419672852059
 30
0.0
 42
0.4142135623730898
  0
SEQEND
  5
141A
  8
0
 62
     7
  0
LINE
  5
915
  8
0
 62
     7
 10
252.0770023723482041
 20
155.9074419672843135
 30
0.0
 11
267.4770023723477834
 21
155.9074419672843987
 31
0.0
  0
ARC
  5
91B
  8
0
 62
     7
 10
199.2053620074904927
 20
185.9599153396179076
 30
0.0
 40
4.7499999999999831
 50
340.0909355436609758
 51
36.6502410039373601
  0
ARC
  5
91C
  8
0
 62
     7
 10
199.2053620074904927
 20
185.9599153396179076
 30
0.0
 40
4.7499999999999449
 50
39.5201414954756984
 51
101.9886376275944997
  0
ARC
  5
91D
  8
0
 62
     7
 10
159.3091848499659022
 20
189.2072293397419003
 30
0.0
 40
4.0000000000002727
 50
70.7728218709254833
 51
163.9257630842724041
  0
ARC
  5
91E
  8
0
 62
     7
 10
159.3091848499659022
 20
189.2072293397419003
 30
0.0
 40
4.0000000000002718
 50
163.9257630842724041
 51
251.8938149155993926
  0
LINE
  5
91F
  8
0
 62
     7
 10
293.4770023723474992
 20
155.9074419672836882
 30
0.0
 11
293.4770023723474992
 21
164.1772204645735087
 31
0.0
  0
LINE
  5
920
  8
0
 62
     7
 10
293.4770023723476129
 20
173.0074419672831993
 30
0.0
 11
293.4770023723474992
 21
164.8772204645734121
 31
0.0
  0
CIRCLE
  5
921
  8
0
 62
     7
 10
265.0394480525910126
 20
117.6861797844516957
 30
0.0
 40
3.9999999999999911
  0
POLYLINE
  5
922
  8
0
 62
     7
 66
     1
 10
0.0
 20
0.0
 30
0.0
 70
     1
  0
VERTEX
  5
141B
  8
0
 62
     7
 10
226.1024251399624063
 20
128.8191484329780963
 30
0.0
  0
VERTEX
  5
141C
  8
0
 62
     7
 10
218.7471678155835093
 20
114.680542076898206
 30
0.0
 42
1.1030890270828659
  0
VERTEX
  5
141D
  8
0
 62
     7
 10
226.2168779518408996
 20
111.9163187718282018
 30
0.0
  0
VERTEX
  5
141E
  8
0
 62
     7
 10
229.8372802080909025
 20
127.4370367804429947
 30
0.0
 42
0.9102589898327998
  0
SEQEND
  5
141F
  8
0
 62
     7
  0
LINE
  5
923
  8
LAYER_1
 62
     7
 10
273.0156983192275106
 20
130.2183797844517983
 30
0.0
 11
264.2282881643728842
 21
130.2182829868629881
 31
0.0
  0
ARC
  5
924
  8
LAYER_1
 62
     7
 10
264.2283983192274945
 20
120.2182829874697063
 30
0.0
 40
10.0
 50
90.0006311408275224
 51
180.0
  0
LINE
  5
925
  8
LAYER_1
 62
     7
 10
254.2283983192274945
 20
120.2182829874697063
 30
0.0
 11
254.2283983192274093
 21
114.1541797844520971
 31
0.0
  0
LINE
  5
926
  8
LAYER_1
 62
     7
 10
265.4983483192277731
 20
104.1541797844519976
 30
0.0
 11
282.5983483192030121
 21
104.1541797844519976
 31
0.0
  0
ARC
  5
927
  8
LAYER_1
 62
     7
 10
264.2283983192274945
 20
114.1541797844518982
 30
0.0
 40
10.0000000000001101
 50
180.0
 51
256.5259465243066188
  0
ARC
  5
928
  8
LAYER_1
 62
     7
 10
283.8683983192274241
 20
114.1541797844521966
 30
0.0
 40
10.0000000000002096
 50
283.4734643017728217
 51
359.9999999999935767
  0
LINE
  5
929
  8
LAYER_1
 62
     7
 10
293.8683983192274241
 20
114.1541797844519976
 30
0.0
 11
293.8683983192275946
 21
120.2183797844517983
 31
0.0
  0
LINE
  5
92A
  8
LAYER_1
 62
     7
 10
283.8683983192277083
 20
130.2183797844517983
 30
0.0
 11
273.6083983192277742
 21
130.2183797844517983
 31
0.0
  0
ARC
  5
92B
  8
LAYER_1
 62
     7
 10
283.8683983192275946
 20
120.2183797844517983
 30
0.0
 40
10.0
 50
0.0
 51
90.0
  0
LINE
  5
92C
  8
0
  6
CONTINUOUS
 62
     7
 10
282.5983483192030121
 20
104.1541797844519976
 30
0.0
 11
282.5983483192030121
 21
106.1541797844519976
 31
0.0
  0
LINE
  5
92D
  8
0
  6
CONTINUOUS
 62
     7
 10
282.5983483192030121
 20
106.1541797844519976
 30
0.0
 11
286.1983483192028075
 21
106.1541797844519976
 31
0.0
  0
LINE
  5
92E
  8
0
  6
CONTINUOUS
 62
     7
 10
286.1983483192028075
 20
106.1541797844519976
 30
0.0
 11
286.1983483192029212
 21
104.4294004554588042
 31
0.0
  0
LINE
  5
92F
  8
0
  6
CONTINUOUS
 62
     7
 10
261.8983483192276935
 20
104.4294244149065065
 30
0.0
 11
261.8983483192276935
 21
106.1592127981725042
 31
0.0
  0
LINE
  5
930
  8
0
  6
CONTINUOUS
 62
     7
 10
261.8983483192276935
 20
106.1592127981725042
 30
0.0
 11
265.4983483192277731
 21
106.1592127981725042
 31
0.0
  0
LINE
  5
931
  8
0
  6
CONTINUOUS
 62
     7
 10
265.4983483192277731
 20
106.1592127981725042
 30
0.0
 11
265.4983483192277731
 21
104.1541797844519976
 31
0.0
  0
LINE
  5
932
  8
LAYER_1
 62
     7
 10
209.8203601318521123
 20
121.0398981070251949
 30
0.0
 11
209.8204569294408088
 21
112.2524879521705969
 31
0.0
  0
LINE
  5
933
  8
LAYER_1
 62
     7
 10
219.8197735196590941
 20
102.1356890977422012
 30
0.0
 11
225.8788437089567083
 21
102.1356890977422012
 31
0.0
  0
LINE
  5
934
  8
LAYER_1
 62
     7
 10
240.492978221256493
 20
116.405639097742494
 30
0.0
 11
240.492978221256493
 21
127.5056390977427014
 31
0.0
  0
LINE
  5
935
  8
LAYER_1
 62
     7
 10
225.8889097363972098
 20
141.7756890977429123
 30
0.0
 11
219.9696767226770078
 21
141.7756890977427133
 31
0.0
  0
LINE
  5
936
  8
LAYER_1
 62
     7
 10
209.8203601318521123
 20
131.8925981070254068
 30
0.0
 11
209.8203601318521123
 21
121.6325981070255011
 31
0.0
  0
LINE
  5
937
  8
0
  6
CONTINUOUS
 62
     7
 10
237.492978221256493
 20
130.5056390977426872
 30
0.0
 11
235.583876722676905
 21
130.505639097742602
 31
0.0
  0
ARC
  5
938
  8
0
  6
CONTINUOUS
 62
     7
 10
237.492978221256493
 20
127.5056390977427014
 30
0.0
 40
3.0
 50
0.0
 51
90.0
  0
LINE
  5
939
  8
0
  6
CONTINUOUS
 62
     7
 10
235.583876722676905
 20
130.5056390924692096
 30
0.0
 11
235.583876722676905
 21
131.7756890924694062
 31
0.0
  0
ARC
  5
93A
  8
0
  6
CONTINUOUS
 62
     7
 10
225.583876722676905
 20
131.7756890977425996
 30
0.0
 40
10.0
 50
0.0
 51
90.0
  0
LINE
  5
93B
  8
0
  6
CONTINUOUS
 62
     7
 10
235.5838767226765071
 20
112.1356890977425991
 30
0.0
 11
235.5838767226765071
 21
113.4056390977426929
 31
0.0
  0
ARC
  5
93C
  8
0
  6
CONTINUOUS
 62
     7
 10
225.5838767226765071
 20
112.1356890977425991
 30
0.0
 40
10.0
 50
270.0
 51
0.0
  0
LINE
  5
93D
  8
0
  6
CONTINUOUS
 62
     7
 10
235.5838767226765071
 20
113.4056390977426929
 30
0.0
 11
237.0027706086742114
 21
113.4056390977426929
 31
0.0
  0
ARC
  5
93E
  8
0
  6
CONTINUOUS
 62
     7
 10
237.492978221256493
 20
116.405639097742494
 30
0.0
 40
3.0
 50
270.0
 51
0.0
  0
CIRCLE
  5
93F
  8
0
 62
     7
 10
231.8518828375574117
 20
121.9556390977181053
 30
0.0
 40
1.075000000000023
  0
CIRCLE
  5
940
  8
0
 62
     7
 10
213.5517767226772037
 20
121.9556390977181053
 30
0.0
 40
1.075000000000023
  0
CIRCLE
  5
941
  8
0
 62
     7
 10
222.3518767226771047
 20
130.9645393643301929
 30
0.0
 40
1.075000000000023
  0
POLYLINE
  5
942
  8
0
  6
CONTINUOUS
 62
     7
 66
     1
 10
0.0
 20
0.0
 30
0.0
 70
     1
  0
VERTEX
  5
1420
  8
0
  6
CONTINUOUS
 62
     7
 10
233.8838767226772859
 20
134.1056390977427952
 30
0.0
  0
VERTEX
  5
1421
  8
0
  6
CONTINUOUS
 62
     7
 10
233.8838767226772859
 20
130.5056390977428009
 30
0.0
  0
VERTEX
  5
1422
  8
0
  6
CONTINUOUS
 62
     7
 10
226.3838767226772859
 20
130.5056390977428009
 30
0.0
  0
VERTEX
  5
1423
  8
0
  6
CONTINUOUS
 62
     7
 10
226.3838767226772859
 20
134.1056390977427952
 30
0.0
  0
SEQEND
  5
1424
  8
0
  6
CONTINUOUS
 62
     7
  0
POLYLINE
  5
943
  8
0
  6
CONTINUOUS
 62
     7
 66
     1
 10
0.0
 20
0.0
 30
0.0
 70
     1
  0
VERTEX
  5
1425
  8
0
  6
CONTINUOUS
 62
     7
 10
233.8788437089567083
 20
113.4056390977426929
 30
0.0
  0
VERTEX
  5
1426
  8
0
  6
CONTINUOUS
 62
     7
 10
233.8788437089567083
 20
109.8056390977427981
 30
0.0
  0
VERTEX
  5
1427
  8
0
  6
CONTINUOUS
 62
     7
 10
230.8788437089567083
 20
109.8056390977427981
 30
0.0
  0
VERTEX
  5
1428
  8
0
  6
CONTINUOUS
 62
     7
 10
230.8788437089567083
 20
113.4056390977426929
 30
0.0
  0
SEQEND
  5
1429
  8
0
  6
CONTINUOUS
 62
     7
  0
ARC
  5
944
  8
0
 62
     7
 10
219.6678273002283106
 20
147.4559828998733053
 30
0.0
 40
3.9999999999999449
 50
97.354818197361837
 51
262.6230465393883833
  0
LINE
  5
945
  8
0
 62
     7
 10
219.1836012770264119
 20
143.3715870637437035
 30
0.0
 11
234.5408976691414011
 21
141.4971678137607114
 31
0.0
  0
ARC
  5
946
  8
0
 62
     7
 10
241.5906437120366093
 20
138.4517479757357989
 30
0.0
 40
4.9999999999994031
 50
89.9889323683854343
 51
125.0857335960265999
  0
ARC
  5
947
  8
0
 62
     7
 10
241.5941207110336109
 20
156.4517476399149984
 30
0.0
 40
5.0
 50
234.8921311407627002
 51
269.9889323683855196
  0
ARC
  5
948
  8
0
 62
     7
 10
235.2678270091836907
 20
147.4529695007421992
 30
0.0
 40
6.0000000000056124
 50
54.8921311407601635
 51
97.354818197361837
  0
LINE
  5
949
  8
0
 62
     7
 10
234.4997456895220012
 20
153.4036040119900122
 30
0.0
 11
219.1557730871207923
 21
151.4230725740343928
 31
0.0
  0
POLYLINE
  5
94A
  8
0
 62
     7
 66
     1
 10
0.0
 20
0.0
 30
0.0
 70
     1
  0
VERTEX
  5
142A
  8
0
 62
     7
 10
292.6435156416998211
 20
141.3995281310791938
 30
0.0
  0
VERTEX
  5
142B
  8
0
 62
     7
 10
276.7878147716490957
 20
142.931438676594297
 30
0.0
 42
1.098588436005097
  0
VERTEX
  5
142C
  8
0
 62
     7
 10
276.7708871516894078
 20
135.9622888437102119
 30
0.0
  0
VERTEX
  5
142D
  8
0
 62
     7
 10
292.6338427160089282
 20
137.4171567980025088
 30
0.0
 42
0.9102589898328103
  0
SEQEND
  5
142E
  8
0
 62
     7
  0
ARC
  5
94B
  8
0
  6
CONTINUOUS
 62
     7
 10
259.185228453379807
 20
144.6507255425819949
 30
0.0
 40
1.1999999999999991
 50
270.0070705622754872
 51
313.7099761208343125
  0
LINE
  5
94C
  8
0
 62
     7
 10
242.0931548686509132
 20
151.4516511498929106
 30
0.0
 11
254.8708395193654894
 21
151.4491829278074135
 31
0.0
  0
CIRCLE
  5
94D
  8
0
  6
CONTINUOUS
 62
     7
 10
283.0572485858151026
 20
117.6861797844516957
 30
0.0
 40
1.1999999999999991
  0
CIRCLE
  5
94E
  8
0
  6
CONTINUOUS
 62
     7
 10
235.2678270091840034
 20
147.4529695007421992
 30
0.0
 40
2.2249999999999992
  0
LINE
  5
94F
  8
FIRST_CUTS
 62
     7
 10
203.0883569294408915
 20
113.4114382188075041
 30
0.0
 11
190.7883569294409085
 21
113.4114382188075041
 31
0.0
  0
LINE
  5
950
  8
FIRST_CUTS
 62
     7
 10
190.7883569294409085
 20
113.4114382188075041
 30
0.0
 11
190.7883569294409085
 21
136.5814382188077047
 31
0.0
  0
LINE
  5
951
  8
FIRST_CUTS
 62
     7
 10
190.7883569294409085
 20
136.5814382188077047
 30
0.0
 11
194.3173569294409049
 21
136.58143821880779
 31
0.0
  0
LINE
  5
952
  8
FIRST_CUTS
 62
     7
 10
194.3173569294409049
 20
136.58143821880779
 30
0.0
 11
194.3173569294409049
 21
138.5815382188075091
 31
0.0
  0
LINE
  5
953
  8
FIRST_CUTS
 62
     7
 10
194.3173569294409049
 20
138.5815382188075091
 30
0.0
 11
199.5593569294406109
 21
138.5815382188075091
 31
0.0
  0
LINE
  5
954
  8
FIRST_CUTS
 62
     7
 10
199.5593569294406109
 20
138.5815382188075091
 30
0.0
 11
199.5593569294406109
 21
136.5814382188077047
 31
0.0
  0
LINE
  5
955
  8
FIRST_CUTS
 62
     7
 10
199.5593569294406109
 20
136.5814382188075911
 30
0.0
 11
203.0883569294408915
 21
136.5814382188075911
 31
0.0
  0
ARC
  5
956
  8
LAYER_1
 62
     7
 10
209.8387188091828079
 20
135.0361306520505877
 30
0.0
 40
0.5
 50
197.4212416024757886
 51
341.9095349968915798
  0
LINE
  5
957
  8
LAYER_1
 62
     7
 10
199.6703601324587964
 20
141.8924879521709954
 30
0.0
 11
193.7562569294410082
 21
141.8924879521711091
 31
0.0
  0
ARC
  5
958
  8
0
  6
CONTINUOUS
 62
     7
 10
190.0159069672916132
 20
141.5840085853513983
 30
0.0
 40
0.5
 50
134.8032932936376085
 51
292.6310287599640105
  0
ARC
  5
959
  8
LAYER_1
 62
     7
 10
194.0562569294411048
 20
112.2524879521708954
 30
0.0
 40
10.0
 50
193.4734643019133102
 51
269.9999999999968168
  0
LINE
  5
95A
  8
LAYER_1
 62
     7
 10
193.7562569294408092
 20
102.2524879521709948
 30
0.0
 11
199.8204569294406099
 21
102.2524879521707959
 31
0.0
  0
ARC
  5
95B
  8
LAYER_1
 62
     7
 10
209.801414842935003
 20
108.9920463978628931
 30
0.0
 40
0.5
 50
17.4212416024758312
 51
161.9095349968916082
  0
LINE
  5
95C
  8
0
  6
CONTINUOUS
 62
     7
 10
185.7562569294410082
 20
113.5225379521707936
 30
0.0
 11
185.7562569294410082
 21
109.9225379521708987
 31
0.0
  0
LINE
  5
95D
  8
0
  6
CONTINUOUS
 62
     7
 10
184.3315015598957132
 20
134.2225379521709101
 30
0.0
 11
185.7612899431615006
 21
134.2225379521709101
 31
0.0
  0
LINE
  5
95E
  8
0
  6
CONTINUOUS
 62
     7
 10
185.7612899431615006
 20
134.2225379521709101
 30
0.0
 11
185.7612899431615006
 21
130.6225379521708021
 31
0.0
  0
CIRCLE
  5
95F
  8
0
  6
CONTINUOUS
 62
     7
 10
187.7882508145607972
 20
122.0725379521956029
 30
0.0
 40
1.1999999999999991
  0
CIRCLE
  5
960
  8
0
  6
CONTINUOUS
 62
     7
 10
206.0883569294408062
 20
122.0725379521955034
 30
0.0
 40
1.1999999999999991
  0
LINE
  5
961
  8
0
  6
CONTINUOUS
 62
     7
 10
190.7883569294409085
 20
130.6225379521708021
 30
0.0
 11
188.7883569294409085
 21
130.6225379521708021
 31
0.0
  0
LINE
  5
962
  8
0
  6
CONTINUOUS
 62
     7
 10
188.7883569294409085
 20
130.6225379521708021
 30
0.0
 11
188.7883569294409085
 21
134.2225379521709101
 31
0.0
  0
LINE
  5
963
  8
0
  6
CONTINUOUS
 62
     7
 10
188.7883569294409085
 20
134.2225379521709101
 30
0.0
 11
190.7933899431614009
 21
134.2225379521709101
 31
0.0
  0
CIRCLE
  5
964
  8
0
  6
CONTINUOUS
 62
     7
 10
270.2671255643651875
 20
147.4520929204628032
 30
0.0
 40
1.1999999999999991
  0
ARC
  5
965
  8
0
 62
     7
 10
161.4352095122320065
 20
161.1614154655333948
 30
0.0
 40
1.288898193111321
 50
90.0
 51
180.0
  0
LINE
  5
966
  8
0
 62
     7
 10
161.4352095122320065
 20
162.4503136586446033
 30
0.0
 11
166.6602473846949977
 21
162.4503136586446885
 31
0.0
  0
ARC
  5
967
  8
0
 62
     7
 10
166.6602473846949977
 20
161.1614154655333095
 30
0.0
 40
1.288898193111395
 50
0.0
 51
90.0000000000065086
  0
LINE
  5
968
  8
0
 62
     7
 10
167.9491455778062914
 20
161.1614154655333095
 30
0.0
 11
167.9491455778060924
 21
153.4280263068654051
 31
0.0
  0
ARC
  5
969
  8
0
 62
     7
 10
166.6602473846947987
 20
153.4280263068654051
 30
0.0
 40
1.288898193111321
 50
270.0
 51
0.0
  0
LINE
  5
96A
  8
0
 62
     7
 10
166.6602473846947987
 20
152.1391281137539977
 30
0.0
 11
161.4352095122318076
 21
152.1391281137539977
 31
0.0
  0
ARC
  5
96B
  8
0
 62
     7
 10
161.4352095122318076
 20
153.4280263068654051
 30
0.0
 40
1.288898193111321
 50
180.0
 51
270.0
  0
LINE
  5
96C
  8
0
 62
     7
 10
160.1463113191205139
 20
153.4280263068654051
 30
0.0
 11
160.1463113191205991
 21
161.1614154655333948
 31
0.0
  0
CIRCLE
  5
96D
  8
0
 62
     7
 10
196.5633654740780116
 20
154.6726669508811938
 30
0.0
 40
1.075000000000023
  0
ARC
  5
96E
  8
0
 62
     7
 10
196.5633654740780116
 20
154.6726669508811938
 30
0.0
 40
5.9999999999206404
 50
299.5510558048172243
 51
80.5728971087000758
  0
LINE
  5
96F
  8
0
 62
     7
 10
197.5461212349254083
 20
160.591635705112509
 30
0.0
 11
175.910649826082107
 21
167.4838804100187986
 31
0.0
  0
LINE
  5
970
  8
0
 62
     7
 10
175.910649826082107
 20
167.4838804100187986
 30
0.0
 11
169.9164524286100004
 21
167.4755402684955072
 31
0.0
  0
LINE
  5
971
  8
0
 62
     7
 10
169.9164524286100004
 20
167.4755402684955072
 30
0.0
 11
169.9122783210671912
 21
170.4755402684955925
 31
0.0
  0
LINE
  5
972
  8
0
 62
     7
 10
155.7122918724045064
 20
170.456061118817189
 30
0.0
 11
155.7106498260814931
 21
162.98288556012821
 31
0.0
  0
LINE
  5
973
  8
0
 62
     7
 10
155.7106498260814931
 20
162.98288556012821
 30
0.0
 11
153.7106498260816068
 21
162.98288556012821
 31
0.0
  0
ARC
  5
974
  8
0
 62
     7
 10
153.7106498260816068
 20
161.9828855601282953
 30
0.0
 40
0.9999999999999784
 50
90.0
 51
180.0
  0
LINE
  5
975
  8
0
 62
     7
 10
152.7106498260816068
 20
161.9828855601282953
 30
0.0
 11
152.7106498260814931
 21
153.9828855601282953
 31
0.0
  0
ARC
  5
976
  8
0
 62
     7
 10
153.7106498260814078
 20
153.9828855601282953
 30
0.0
 40
0.9999999999999429
 50
180.0
 51
270.0
  0
LINE
  5
977
  8
0
 62
     7
 10
153.7106498260814931
 20
152.9828855601282953
 30
0.0
 11
155.7106498260814931
 21
152.98288556012821
 31
0.0
  0
LINE
  5
978
  8
0
 62
     7
 10
155.7106498260814931
 20
152.98288556012821
 30
0.0
 11
155.7106498260814931
 21
149.2237444354454112
 31
0.0
  0
LINE
  5
979
  8
0
 62
     7
 10
155.7106498260814931
 20
149.2237444354454112
 30
0.0
 11
176.8106498260819137
 21
149.2237444354447007
 31
0.0
  0
LINE
  5
97A
  8
0
 62
     7
 10
176.8106498260819137
 20
149.2237444354447007
 30
0.0
 11
176.8106498260818
 21
136.7237444354447007
 31
0.0
  0
LINE
  5
97B
  8
0
 62
     7
 10
176.8106498260818
 20
136.7237444354447007
 30
0.0
 11
155.7106498260812089
 21
136.7237444354450133
 31
0.0
  0
LINE
  5
97C
  8
0
 62
     7
 10
155.7106498260812089
 20
136.7237444354450133
 30
0.0
 11
155.7106498260812089
 21
130.9828865434402871
 31
0.0
  0
LINE
  5
97D
  8
0
 62
     7
 10
155.7106498260812089
 20
130.9828865434402871
 30
0.0
 11
153.7106498260810099
 21
130.9828865434402871
 31
0.0
  0
ARC
  5
97E
  8
0
 62
     7
 10
153.7106498260810099
 20
129.9828865434404861
 30
0.0
 40
0.9999999999999607
 50
89.9999999999934914
 51
180.0
  0
LINE
  5
97F
  8
0
 62
     7
 10
152.7106498260810099
 20
129.9828865434404861
 30
0.0
 11
152.7106498260810099
 21
123.9828865434404008
 31
0.0
  0
ARC
  5
980
  8
0
 62
     7
 10
153.7106498260810099
 20
123.9828865434404008
 30
0.0
 40
0.9999999999999784
 50
180.0
 51
270.0
  0
LINE
  5
981
  8
0
 62
     7
 10
153.7106498260808962
 20
122.9828865434404008
 30
0.0
 11
155.7106498260810099
 21
122.9828865434404008
 31
0.0
  0
LINE
  5
982
  8
0
 62
     7
 10
155.7106498260810099
 20
122.9828865434404008
 30
0.0
 11
155.710649826080811
 21
115.6058513935787033
 31
0.0
  0
LINE
  5
983
  8
0
 62
     7
 10
169.9106325829093009
 20
115.5838784894701945
 30
0.0
 11
169.9106325829093862
 21
118.5838813933309979
 31
0.0
  0
LINE
  5
984
  8
0
 62
     7
 10
169.9106325829093862
 20
118.5838813933309979
 30
0.0
 11
171.1329922054491988
 21
118.5838813933308984
 31
0.0
  0
LINE
  5
985
  8
0
 62
     7
 10
155.710649826080811
 20
115.6058513935787033
 30
0.0
 11
169.5606330019311088
 21
115.5844200751439956
 31
0.0
  0
LINE
  5
986
  8
0
 62
     7
 10
155.7122918724045064
 20
170.456061118817189
 30
0.0
 11
162.4622852793447976
 21
170.4651825856597043
 31
0.0
  0
LINE
  5
987
  8
0
 62
     7
 10
169.9122783210671912
 20
170.4755402684955925
 30
0.0
 11
162.91228533872399
 21
170.4658006939928896
 31
0.0
  0
ARC
  5
988
  8
0
  6
CONTINUOUS
 62
     7
 10
180.5190019378495094
 20
131.8225379521707055
 30
0.0
 40
1.1999999999999991
 50
270.0
 51
330.9689805185524278
  0
LINE
  5
989
  8
0
  6
CONTINUOUS
 62
     7
 10
171.1329922054491988
 20
129.4225379521708135
 30
0.0
 11
171.1329922054491988
 21
118.5838813933309979
 31
0.0
  0
LINE
  5
98A
  8
0
  6
CONTINUOUS
 62
     7
 10
172.3329922054493011
 20
130.6225379521708021
 30
0.0
 11
180.5190019378495094
 21
130.6225379521708021
 31
0.0
  0
ARC
  5
98B
  8
0
  6
CONTINUOUS
 62
     7
 10
172.3329922054493011
 20
129.4225379521708135
 30
0.0
 40
1.1999999999999991
 50
90.0
 51
180.0
  0
LINE
  5
98C
  8
0
  6
CONTINUOUS
 62
     7
 10
260.0144383904159895
 20
143.7833093331871055
 30
0.0
 11
261.8914390340383989
 21
145.5776354809551947
 31
0.0
  0
LINE
  5
98D
  8
0
  6
CONTINUOUS
 62
     7
 10
261.8914390340383989
 20
145.5776354809551947
 30
0.0
 11
263.5695891885652031
 21
143.8221636989385104
 31
0.0
  0
LINE
  5
98E
  8
0
 62
     7
 10
270.3511895319335281
 20
143.452103464319606
 30
0.0
 11
256.0380491164372074
 21
143.4503063562968919
 31
0.0
  0
ARC
  5
98F
  8
0
  6
CONTINUOUS
 62
     7
 10
264.4370053979598083
 20
144.6513736359746076
 30
0.0
 40
1.1999999999999991
 50
223.7099761208361031
 51
270.0070705622754872
  0
LINE
  5
990
  8
0
 62
     7
 10
270.2652911326600815
 20
151.4462092337060142
 30
0.0
 11
269.0610805515161132
 21
151.4464418469873124
 31
0.0
  0
LINE
  5
991
  8
0
  6
CONTINUOUS
 62
     7
 10
266.1704658533108727
 20
152.6824086489068861
 30
0.0
 11
264.9214300745787227
 21
153.9889943905816097
 31
0.0
  0
ARC
  5
992
  8
0
  6
CONTINUOUS
 62
     7
 10
262.0300427099297735
 20
151.224961267128009
 30
0.0
 40
4.0
 50
43.7099761208291895
 51
133.7099761208343978
  0
ARC
  5
993
  8
0
  6
CONTINUOUS
 62
     7
 10
269.0618532179598219
 20
155.4464417723607141
 30
0.0
 40
4.0
 50
223.7099761208361031
 51
269.9889323683789257
  0
LINE
  5
994
  8
0
  6
CONTINUOUS
 62
     7
 10
259.2660095864761161
 20
154.1163486317769014
 30
0.0
 11
257.635645309263225
 21
152.5577954885318093
 31
0.0
  0
ARC
  5
995
  8
0
  6
CONTINUOUS
 62
     7
 10
254.871612185809397
 20
155.4491828531807016
 30
0.0
 40
4.0
 50
269.9889323683789257
 51
313.7099761208343125
  0
ARC
  5
996
  8
0
 62
     7
 10
292.0512266385453017
 20
139.4446473533442088
 30
0.0
 40
3.9999999999999449
 50
277.354818197361908
 51
82.6230465393883833
  0
LINE
  5
997
  8
0
 62
     7
 10
292.535452661747172
 20
143.5290431894736969
 30
0.0
 11
277.1781562696322112
 21
145.4034624394568027
 31
0.0
  0
ARC
  5
998
  8
0
 62
     7
 10
274.4557471786991982
 20
145.6057694991727089
 30
0.0
 40
0.5
 50
155.776689359998187
 51
288.6658247188472046
  0
ARC
  5
999
  8
0
 62
     7
 10
237.3481386838911078
 20
141.2948607540448052
 30
0.0
 40
0.5
 50
335.7766893599982154
 51
108.6658247188471051
  0
ARC
  5
99A
  8
0
 62
     7
 10
270.1249332277400867
 20
130.4488826133026009
 30
0.0
 40
5.0
 50
54.8921311407601635
 51
89.9889323683854343
  0
ARC
  5
99B
  8
0
 62
     7
 10
276.4512269295900069
 20
139.4476607524752865
 30
0.0
 40
6.0000000000056124
 50
234.8921311407600001
 51
277.354818197361908
  0
LINE
  5
99C
  8
0
 62
     7
 10
277.2193082492516965
 20
133.4970262412275019
 30
0.0
 11
292.5632808516527916
 21
135.4775576791830076
 31
0.0
  0
ARC
  5
99D
  8
0
  6
CONTINUOUS
 62
     7
 10
252.5338254853938054
 20
142.2499047106356045
 30
0.0
 40
1.1999999999999991
 50
90.0070705622756151
 51
133.7099761208343978
  0
LINE
  5
99E
  8
0
 62
     7
 10
270.1258990607946089
 20
135.4488825200191968
 30
0.0
 11
257.2482144119455256
 21
135.4513700587658036
 31
0.0
  0
CIRCLE
  5
99F
  8
0
  6
CONTINUOUS
 62
     7
 10
241.4519283744083964
 20
139.4485373327545972
 30
0.0
 40
1.1999999999999991
  0
LINE
  5
9A0
  8
0
  6
CONTINUOUS
 62
     7
 10
251.7046155483577081
 20
143.1173209200304086
 30
0.0
 11
249.8276149047352988
 21
141.3229947722624047
 31
0.0
  0
LINE
  5
9A1
  8
0
  6
CONTINUOUS
 62
     7
 10
249.8276149047352988
 20
141.3229947722624047
 30
0.0
 11
248.1494647502084945
 21
143.078466554279089
 31
0.0
  0
ARC
  5
9A2
  8
0
  6
CONTINUOUS
 62
     7
 10
247.2820485408138893
 20
142.2492566172429065
 30
0.0
 40
1.1999999999999991
 50
43.7099761208384123
 51
90.0070705622756151
  0
LINE
  5
9A3
  8
0
 62
     7
 10
241.4537628061135877
 20
135.4544210195116136
 30
0.0
 11
242.6579733872576128
 21
135.454188406230287
 31
0.0
  0
LINE
  5
9A4
  8
0
  6
CONTINUOUS
 62
     7
 10
245.5485880854627965
 20
134.2182216043105996
 30
0.0
 11
246.7976238641950033
 21
132.9116358626359897
 31
0.0
  0
ARC
  5
9A5
  8
0
  6
CONTINUOUS
 62
     7
 10
249.6890112288438957
 20
135.6756689860895904
 30
0.0
 40
4.0
 50
223.7099761208384052
 51
313.7099761208343125
  0
ARC
  5
9A6
  8
0
  6
CONTINUOUS
 62
     7
 10
242.6572007208139894
 20
131.4541884808569137
 30
0.0
 40
4.0
 50
43.7099761208384123
 51
89.9889323683789257
  0
LINE
  5
9A7
  8
0
  6
CONTINUOUS
 62
     7
 10
252.4530443522974963
 20
132.784281621440698
 30
0.0
 11
254.083408629510501
 21
134.3428347646857901
 31
0.0
  0
ARC
  5
9A8
  8
0
  6
CONTINUOUS
 62
     7
 10
256.8474417529643006
 20
131.4514474000368978
 30
0.0
 40
4.0
 50
89.9889323683789257
 51
133.7099761208343978
  0
CIRCLE
  5
9A9
  8
0
  6
CONTINUOUS
 62
     7
 10
258.1143777110120823
 20
139.4481200108340033
 30
0.0
 40
1.1999999999999991
  0
CIRCLE
  5
9AA
  8
0
 62
     7
 10
253.6046762277615869
 20
147.4525102423835961
 30
0.0
 40
1.075000000000023
  0
CIRCLE
  5
9AB
  8
0
  6
CONTINUOUS
 62
     7
 10
199.2053620074904927
 20
185.9599153396179076
 30
0.0
 40
1.1999999999999991
  0
CIRCLE
  5
9AC
  8
0
  6
CONTINUOUS
 62
     7
 10
198.9122315672452999
 20
165.8064026297946896
 30
0.0
 40
1.1999999999999991
  0
CIRCLE
  5
9AD
  8
0
  6
CONTINUOUS
 62
     7
 10
159.3091848499659022
 20
189.2072293397419003
 30
0.0
 40
1.1999999999999991
  0
CIRCLE
  5
9F0
  8
0
 62
     7
 10
283.587493284421214
 20
180.9272533658192117
 30
0.0
 40
1.0750000000000031
  0
CIRCLE
  5
9F1
  8
0
 62
     7
 10
231.0874942677336037
 20
180.9272533658210023
 30
0.0
 40
1.0750000000000031
  0
LINE
  5
9F2
  8
0
 62
     7
 10
231.087494267733689
 20
184.9272533658208886
 30
0.0
 11
286.3942798565497014
 21
184.9272533658190127
 31
0.0
  0
LINE
  5
9F3
  8
0
  6
CONTINUOUS
 62
     7
 10
290.3942798565497014
 20
192.5272533658190071
 30
0.0
 11
290.3942798565494741
 21
177.9272533658173927
 31
0.0
  0
ARC
  5
9F4
  8
0
  6
CONTINUOUS
 62
     7
 10
289.3942798565494741
 20
177.9272533658173927
 30
0.0
 40
1.0
 50
269.9999999999968168
 51
0.0
  0
ARC
  5
9F5
  8
0
  6
CONTINUOUS
 62
     7
 10
289.3942798565497014
 20
192.5272533658190071
 30
0.0
 40
1.0
 50
0.0
 51
89.9999999999967315
  0
LINE
  5
9F6
  8
0
  6
CONTINUOUS
 62
     7
 10
287.3942798565499857
 20
189.5664907915493131
 30
0.0
 11
287.394279856549872
 21
185.9272533658190127
 31
0.0
  0
ARC
  5
9F7
  8
0
  6
CONTINUOUS
 62
     7
 10
286.394279856549872
 20
185.9272533658190127
 30
0.0
 40
1.0
 50
269.9999999999968168
 51
0.0
  0
LINE
  5
9F8
  8
0
  6
CONTINUOUS
 62
     7
 10
230.8874942677335866
 20
184.9272533658208886
 30
0.0
 11
228.3828393285805021
 21
184.9272533658210023
 31
0.0
  0
LINE
  5
9F9
  8
0
  6
CONTINUOUS
 62
     7
 10
227.3828393285803884
 20
183.9272533658210023
 30
0.0
 11
227.3828393285801042
 21
177.9272533658210875
 31
0.0
  0
ARC
  5
9FA
  8
0
  6
CONTINUOUS
 62
     7
 10
228.3828393285803884
 20
183.9272533658210023
 30
0.0
 40
1.0
 50
89.9999999999967315
 51
180.0
  0
LINE
  5
9FB
  8
0
  6
CONTINUOUS
 62
     7
 10
228.5328393285801099
 20
176.9272533658210875
 30
0.0
 11
288.9942798565494968
 21
176.9272533658173927
 31
0.0
  0
ARC
  5
9FC
  8
0
  6
CONTINUOUS
 62
     7
 10
228.3828393285801042
 20
177.9272533658210875
 30
0.0
 40
1.0
 50
180.0
 51
269.9999999999968168
  0
ARC
  5
A14
  8
0
 62
     7
 10
161.4352095122314097
 20
132.1168121907448096
 30
0.0
 40
1.288898193111321
 50
90.0
 51
180.0
  0
LINE
  5
A15
  8
0
 62
     7
 10
161.4352095122314097
 20
133.4057103838559897
 30
0.0
 11
166.6602473846944861
 21
133.4057103838559897
 31
0.0
  0
ARC
  5
A16
  8
0
 62
     7
 10
166.6602473846944861
 20
132.1168121907446107
 30
0.0
 40
1.288898193111395
 50
0.0
 51
90.0000000000065086
  0
LINE
  5
A17
  8
0
 62
     7
 10
167.9491455778058082
 20
132.116812190744696
 30
0.0
 11
167.9491455778054103
 21
124.3834230320767062
 31
0.0
  0
ARC
  5
A18
  8
0
 62
     7
 10
166.6602473846942019
 20
124.3834230320767062
 30
0.0
 40
1.288898193111321
 50
270.0
 51
0.0
  0
LINE
  5
A19
  8
0
 62
     7
 10
166.6602473846942019
 20
123.0945248389653983
 30
0.0
 11
161.435209512231296
 21
123.0945248389653983
 31
0.0
  0
ARC
  5
A1A
  8
0
 62
     7
 10
161.4352095122314097
 20
124.3834230320768057
 30
0.0
 40
1.288898193111321
 50
180.0
 51
270.0
  0
LINE
  5
A1B
  8
0
 62
     7
 10
160.1463113191200875
 20
124.3834230320768057
 30
0.0
 11
160.1463113191200875
 21
132.1168121907448096
 31
0.0
  0
LINE
  5
A1C
  8
0
  6
CONTINUOUS
 62
     7
 10
289.3942798565498151
 20
193.5272533658190071
 30
0.0
 11
286.3942798565497014
 21
193.5272533658190923
 31
0.0
  0
LINE
  5
A1D
  8
0
  6
CONTINUOUS
 62
     7
 10
285.3942798565495877
 20
192.527253365819206
 30
0.0
 11
285.3942798565495877
 21
191.9272533658188138
 31
0.0
  0
ARC
  5
A1E
  8
0
  6
CONTINUOUS
 62
     7
 10
286.3942798565497014
 20
192.5272533658190923
 30
0.0
 40
1.0
 50
89.9999999999967315
 51
180.0
  0
LINE
  5
A1F
  8
0
  6
CONTINUOUS
 62
     7
 10
286.3942798565494741
 20
189.5664907915493131
 30
0.0
 11
287.3942798565499857
 21
189.5664907915493131
 31
0.0
  0
ARC
  5
A20
  8
0
  6
CONTINUOUS
 62
     7
 10
286.3942798565495877
 20
190.5664907915491995
 30
0.0
 40
1.0
 50
180.0
 51
269.9999999999968168
  0
LINE
  5
A21
  8
0
  6
CONTINUOUS
 62
     7
 10
203.0883569294408915
 20
113.4114382188075041
 30
0.0
 11
203.0883569294408915
 21
136.5814382188075911
 31
0.0
  0
LINE
  5
A22
  8
0
  6
CONTINUOUS
 62
     7
 10
185.7562569294410082
 20
109.9225379521708987
 30
0.0
 11
184.3314776004536952
 21
109.9225379521708987
 31
0.0
  0
LINE
  5
A79
  8
0
  6
CONTINUOUS
 62
     7
 10
277.4770023723477266
 20
155.9074419672836882
 30
0.0
 11
293.4770023723474992
 21
155.9074419672836882
 31
0.0
  0
LINE
  5
A7A
  8
0
  6
CONTINUOUS
 62
     7
 10
277.4770023723480108
 20
173.0074419672830004
 30
0.0
 11
293.4770023723476129
 21
173.0074419672828867
 31
0.0
  0
LINE
  5
A7B
  8
0
  6
CONTINUOUS
 62
     7
 10
259.7770023723480222
 20
155.9074419672838019
 30
0.0
 11
259.7770023723472264
 21
160.6574419672843987
 31
0.0
  0
LINE
  5
A7C
  8
0
  6
CONTINUOUS
 62
     7
 10
259.777002372348079
 20
173.0074419672837962
 30
0.0
 11
259.777002372348079
 21
168.2574419672843931
 31
0.0
  0
LINE
  5
A7D
  8
0
  6
CONTINUOUS
 62
     7
 10
252.0770023723482893
 20
173.0074419672818919
 30
0.0
 11
267.4770023723481245
 21
173.0074419672833983
 31
0.0
  0
LINE
  5
A7E
  8
0
  6
CONTINUOUS
 62
     7
 10
257.077002372349682
 20
160.8574419672839042
 30
0.0
 11
257.0770023723483746
 21
168.0574419672840065
 31
0.0
  0
LINE
  5
A7F
  8
0
  6
CONTINUOUS
 62
     7
 10
262.4770023723485224
 20
168.0574419672848023
 30
0.0
 11
262.4770023723471013
 21
160.8574419672848137
 31
0.0
  0
LINE
  5
A80
  8
0
  6
CONTINUOUS
 62
     7
 10
267.4770023723465897
 20
160.8574419672848137
 30
0.0
 11
267.4770023723480108
 21
168.0574419672848023
 31
0.0
  0
LINE
  5
A81
  8
0
  6
CONTINUOUS
 62
     7
 10
275.2770023723472832
 20
168.057441967286195
 30
0.0
 11
275.2770023723459758
 21
160.8574419672862064
 31
0.0
  0
LINE
  5
A82
  8
0
  6
CONTINUOUS
 62
     7
 10
244.2770023723487895
 20
160.8574419672835063
 30
0.0
 11
244.2770023723487895
 21
168.0574419672836086
 31
0.0
  0
LINE
  5
A83
  8
0
  6
CONTINUOUS
 62
     7
 10
244.2770023723487895
 20
168.0574419672836086
 30
0.0
 11
252.0770023723482893
 21
168.0574419672848023
 31
0.0
  0
LINE
  5
A84
  8
0
  6
CONTINUOUS
 62
     7
 10
252.077002372345703
 20
168.0574419672848023
 30
0.0
 11
252.0770023723470104
 21
160.8574419672848137
 31
0.0
  0
LINE
  5
A85
  8
0
  6
CONTINUOUS
 62
     7
 10
252.0770023723470104
 20
160.8574419672848137
 30
0.0
 11
244.2770023723475106
 21
160.8574419672835063
 31
0.0
  0
LINE
  5
A86
  8
0
  6
CONTINUOUS
 62
     7
 10
226.0770023723488009
 20
173.0074456237439904
 30
0.0
 11
242.0770023723484883
 21
173.0074456237439051
 31
0.0
  0
LINE
  5
A87
  8
0
  6
CONTINUOUS
 62
     7
 10
226.0770023723488009
 20
155.9074419672843135
 30
0.0
 11
242.0770023723482893
 21
155.9074419672843135
 31
0.0
  0
POLYLINE
  5
A88
  8
0
 62
     7
 66
     1
 10
0.0
 20
0.0
 30
0.0
 70
     1
  0
VERTEX
  5
142F
  8
0
 62
     7
 10
237.0770023723478062
 20
168.457441967285888
 30
0.0
  0
VERTEX
  5
1430
  8
0
 62
     7
 10
231.0770023723493978
 20
168.457441967285888
 30
0.0
 42
0.4142135623731368
  0
VERTEX
  5
1431
  8
0
 62
     7
 10
230.0770023723482041
 20
167.4574419672846943
 30
0.0
  0
VERTEX
  5
1432
  8
0
 62
     7
 10
230.077002372348403
 20
161.4574419672854901
 30
0.0
 42
0.4142135623730793
  0
VERTEX
  5
1433
  8
0
 62
     7
 10
231.0770023723478062
 20
160.4574419672860017
 30
0.0
  0
VERTEX
  5
1434
  8
0
 62
     7
 10
237.0770023723491136
 20
160.4574419672860017
 30
0.0
 42
0.4142135623731368
  0
VERTEX
  5
1435
  8
0
 62
     7
 10
238.0770023723482893
 20
161.4574419672852059
 30
0.0
  0
VERTEX
  5
1436
  8
0
 62
     7
 10
238.0770023723480051
 20
167.4574419672856891
 30
0.0
 42
0.4142135623730898
  0
SEQEND
  5
1437
  8
0
 62
     7
  0
LINE
  5
A89
  8
0
  6
CONTINUOUS
 62
     7
 10
267.4770023723480108
 20
168.0574419672848023
 30
0.0
 11
275.2770023723472832
 21
168.057441967286195
 31
0.0
  0
LINE
  5
A8A
  8
0
  6
CONTINUOUS
 62
     7
 10
275.2770023723459758
 20
160.8574419672862064
 30
0.0
 11
267.4770023723465897
 21
160.8574419672848137
 31
0.0
  0
LINE
  5
A8B
  8
0
 62
     7
 10
132.3998767230035014
 20
192.1606274915473875
 30
0.0
 11
132.3998767230035014
 21
173.741412170384308
 31
0.0
  0
ARC
  5
A8C
  8
0
  6
CONTINUOUS
 62
     7
 10
131.1998767230035128
 20
192.1606274915473875
 30
0.0
 40
1.1999999999999991
 50
0.0
 51
90.0
  0
LINE
  5
A8D
  8
0
 62
     7
 10
124.3998767230029046
 20
192.1606274915473875
 30
0.0
 11
124.3998767230027056
 21
186.7606274915480071
 31
0.0
  0
ARC
  5
A8E
  8
0
  6
CONTINUOUS
 62
     7
 10
125.5998767230027937
 20
192.1606274915473875
 30
0.0
 40
1.1999999999999991
 50
90.0
 51
179.9999999999934062
  0
LINE
  5
A8F
  8
0
 62
     7
 10
132.3998767230033025
 20
161.1606274915639858
 30
0.0
 11
132.3998767230035014
 21
173.491412170384308
 31
0.0
  0
LINE
  5
A90
  8
0
 62
     7
 10
124.3998767230019951
 20
173.9606274915387019
 30
0.0
 11
124.3998767230019951
 21
179.360627491548712
 31
0.0
  0
ARC
  5
A91
  8
0
  6
CONTINUOUS
 62
     7
 10
125.5998767230018984
 20
173.9606274915387019
 30
0.0
 40
1.1999999999999991
 50
180.0
 51
269.9999999999902229
  0
ARC
  5
A92
  8
0
  6
CONTINUOUS
 62
     7
 10
125.5998767230018984
 20
179.360627491548712
 30
0.0
 40
1.1999999999999991
 50
90.0
 51
180.0
  0
LINE
  5
A93
  8
0
  6
CONTINUOUS
 62
     7
 10
125.5998767230027937
 20
193.3606274915474046
 30
0.0
 11
130.84987672300349
 21
193.3606274915474046
 31
0.0
  0
LINE
  5
A94
  8
0
  6
CONTINUOUS
 62
     7
 10
125.5998767230036037
 20
159.9606274915630877
 30
0.0
 11
131.199876723003598
 21
159.9606274915641109
 31
0.0
  0
ARC
  5
A95
  8
0
  6
CONTINUOUS
 62
     7
 10
131.1998767230033991
 20
161.1606274915639858
 30
0.0
 40
1.1999999999999991
 50
270.0000000000097771
 51
0.0
  0
LINE
  5
A96
  8
0
  6
CONTINUOUS
 62
     7
 10
125.5998767230037032
 20
167.7606274915391964
 30
0.0
 11
129.4748767230034048
 21
167.7606274915391964
 31
0.0
  0
LINE
  5
A97
  8
0
  6
CONTINUOUS
 62
     7
 10
125.5998767230016
 20
172.7606274915387132
 30
0.0
 11
129.4748767230034048
 21
172.7606274915374058
 31
0.0
  0
LINE
  5
A98
  8
0
  6
CONTINUOUS
 62
     7
 10
125.5998767230018984
 20
180.5606274915485869
 30
0.0
 11
129.4748767230034048
 21
180.5606274915485869
 31
0.0
  0
LINE
  5
A99
  8
0
  6
CONTINUOUS
 62
     7
 10
125.5998767230026942
 20
185.5606274915479048
 30
0.0
 11
129.4748767230034048
 21
185.5606274915479048
 31
0.0
  0
ARC
  5
A9A
  8
0
  6
CONTINUOUS
 62
     7
 10
125.5998767230026942
 20
186.7606274915480071
 30
0.0
 40
1.1999999999999991
 50
179.9999999999934062
 51
270.0
  0
CIRCLE
  5
A9B
  8
0
 62
     7
 10
128.3998767230033877
 20
176.6606274915490076
 30
0.0
 40
1.0750000000000131
  0
LINE
  5
A9C
  8
0
  6
CONTINUOUS
 62
     7
 10
129.4748767230034048
 20
180.5606274915485869
 30
0.0
 11
129.4748767230034048
 21
185.5606274915479048
 31
0.0
  0
LINE
  5
A9D
  8
0
  6
CONTINUOUS
 62
     7
 10
129.4748767230034048
 20
172.7606274915380027
 30
0.0
 11
129.4748767230034048
 21
167.7606274915384006
 31
0.0
  0
LINE
  5
A9E
  8
0
  6
CONTINUOUS
 62
     7
 10
124.3998767230034019
 20
161.1606274915631047
 30
0.0
 11
124.3998767230034019
 21
166.560627491539293
 31
0.0
  0
ARC
  5
A9F
  8
0
  6
CONTINUOUS
 62
     7
 10
125.5998767230034048
 20
161.1606274915631047
 30
0.0
 40
1.1999999999999991
 50
180.0
 51
270.0000000000097771
  0
ARC
  5
AA0
  8
0
  6
CONTINUOUS
 62
     7
 10
125.5998767230034048
 20
166.560627491539293
 30
0.0
 40
1.1999999999999991
 50
89.9999999999869686
 51
180.0
  0
ARC
  5
AA1
  8
0
  6
CONTINUOUS
 62
     7
 10
133.5998767230032058
 20
161.1606274915639005
 30
0.0
 40
1.1999999999999991
 50
180.0
 51
270.0
  0
LINE
  5
AA2
  8
0
 62
     7
 10
140.3998767230038993
 20
161.1606274915639005
 30
0.0
 11
140.3998767230038993
 21
166.5606274915633946
 31
0.0
  0
ARC
  5
AA3
  8
0
  6
CONTINUOUS
 62
     7
 10
139.1998767230039107
 20
161.1606274915639005
 30
0.0
 40
1.1999999999999991
 50
270.0
 51
359.9999999999935767
  0
LINE
  5
AA4
  8
0
 62
     7
 10
140.3998767230048088
 20
179.3606274915726999
 30
0.0
 11
140.3998767230048088
 21
173.9606274915628035
 31
0.0
  0
ARC
  5
AA5
  8
0
  6
CONTINUOUS
 62
     7
 10
139.1998767230049054
 20
179.3606274915726999
 30
0.0
 40
1.1999999999999991
 50
0.0
 51
89.9999999999869686
  0
ARC
  5
AA6
  8
0
  6
CONTINUOUS
 62
     7
 10
139.1998767230049054
 20
173.9606274915628035
 30
0.0
 40
1.1999999999999991
 50
270.0
 51
0.0
  0
LINE
  5
AA7
  8
0
  6
CONTINUOUS
 62
     7
 10
139.1998767230039107
 20
159.9606274915639972
 30
0.0
 11
133.8998767230031888
 21
159.9606274915639972
 31
0.0
  0
LINE
  5
AA8
  8
0
  6
CONTINUOUS
 62
     7
 10
139.1998767230030865
 20
193.3606274915483141
 30
0.0
 11
133.5998767230030921
 21
193.3606274915474046
 31
0.0
  0
ARC
  5
AA9
  8
0
  6
CONTINUOUS
 62
     7
 10
133.5998767230034048
 20
192.1606274915473023
 30
0.0
 40
1.1999999999999991
 50
90.0000000000065086
 51
180.0
  0
LINE
  5
AAA
  8
0
  6
CONTINUOUS
 62
     7
 10
139.1998767230030865
 20
185.5606274915720917
 30
0.0
 11
135.3248767230033991
 21
185.5606274915720917
 31
0.0
  0
LINE
  5
AAB
  8
0
  6
CONTINUOUS
 62
     7
 10
139.1998767230051044
 20
180.5606274915728022
 30
0.0
 11
135.3248767230033991
 21
180.5606274915739959
 31
0.0
  0
LINE
  5
AAC
  8
0
  6
CONTINUOUS
 62
     7
 10
139.1998767230049054
 20
172.7606274915627012
 30
0.0
 11
135.3248767230033991
 21
172.7606274915627012
 31
0.0
  0
LINE
  5
AAD
  8
0
  6
CONTINUOUS
 62
     7
 10
139.1998767230039959
 20
167.7606274915634117
 30
0.0
 11
135.3248767230033138
 21
167.7606274915634117
 31
0.0
  0
ARC
  5
AAE
  8
0
  6
CONTINUOUS
 62
     7
 10
139.1998767230039959
 20
166.5606274915635083
 30
0.0
 40
1.1999999999999991
 50
359.9999999999935767
 51
90.0
  0
CIRCLE
  5
AAF
  8
0
 62
     7
 10
136.3998767230031888
 20
176.6606274915625079
 30
0.0
 40
1.0750000000000131
  0
LINE
  5
AB0
  8
0
  6
CONTINUOUS
 62
     7
 10
135.3248767230033991
 20
172.7606274915627012
 30
0.0
 11
135.3248767230033138
 21
167.7606274915634117
 31
0.0
  0
LINE
  5
AB1
  8
0
  6
CONTINUOUS
 62
     7
 10
135.3248767230033991
 20
180.5606274915735128
 30
0.0
 11
135.3248767230033991
 21
185.5606274915730012
 31
0.0
  0
LINE
  5
AB2
  8
0
  6
CONTINUOUS
 62
     7
 10
140.3998767230031888
 20
192.1606274915484107
 30
0.0
 11
140.3998767230031888
 21
186.7606274915721087
 31
0.0
  0
ARC
  5
AB3
  8
0
  6
CONTINUOUS
 62
     7
 10
139.1998767230033991
 20
192.1606274915484107
 30
0.0
 40
1.1999999999999991
 50
0.0
 51
90.0000000000065086
  0
ARC
  5
AB4
  8
0
  6
CONTINUOUS
 62
     7
 10
139.1998767230033991
 20
186.7606274915721087
 30
0.0
 40
1.1999999999999991
 50
269.9999999999869829
 51
0.0
  0
LINE
  5
AB5
  8
LAYER_1
 62
     7
 10
174.1330530161501997
 20
127.6225379521708021
 30
0.0
 11
174.1330530161501997
 21
116.5225379521705946
 31
0.0
  0
LINE
  5
AB6
  8
0
  6
CONTINUOUS
 62
     7
 10
177.1330530161501997
 20
113.5225379521704951
 30
0.0
 11
185.4062569294409002
 21
113.5225379521704951
 31
0.0
  0
ARC
  5
AB7
  8
0
  6
CONTINUOUS
 62
     7
 10
177.133053016150086
 20
116.5225379521705946
 30
0.0
 40
3.0
 50
180.0
 51
270.0
  0
LINE
  5
AB8
  8
0
  6
CONTINUOUS
 62
     7
 10
185.7612899431615006
 20
130.6225379521708021
 30
0.0
 11
177.133053016150086
 21
130.6225379521708021
 31
0.0
  0
ARC
  5
AB9
  8
0
  6
CONTINUOUS
 62
     7
 10
177.133053016150086
 20
127.6225379521708021
 30
0.0
 40
3.0
 50
90.0
 51
180.0
  0
ARC
  5
ABA
  8
0
 62
     7
 10
178.4156821265912072
 20
118.072537952170606
 30
0.0
 40
1.0
 50
180.0
 51
270.0
  0
LINE
  5
ABB
  8
0
 62
     7
 10
177.4156821265912072
 20
118.072537952170606
 30
0.0
 11
177.4156821265912072
 21
126.0725379521709044
 31
0.0
  0
ARC
  5
ABC
  8
0
 62
     7
 10
178.4156821265912924
 20
126.0725379521709044
 30
0.0
 40
1.0000000000000551
 50
90.0000000000032543
 51
180.0
  0
LINE
  5
ABD
  8
0
 62
     7
 10
178.4156821265912924
 20
127.0725379521710039
 30
0.0
 11
182.7562569294410082
 21
127.0725379521709044
 31
0.0
  0
ARC
  5
ABE
  8
0
 62
     7
 10
182.7562569294410082
 20
126.0725379521709044
 30
0.0
 40
1.0
 50
0.0
 51
90.0
  0
LINE
  5
ABF
  8
0
 62
     7
 10
183.7562569294410082
 20
126.0725379521709044
 30
0.0
 11
183.7562569294408945
 21
118.0725379521707055
 31
0.0
  0
ARC
  5
AC0
  8
0
 62
     7
 10
182.7562569294410082
 20
118.0725379521707055
 30
0.0
 40
1.0
 50
270.0
 51
0.0
  0
LINE
  5
AC1
  8
0
 62
     7
 10
182.7562569294410082
 20
117.0725379521707055
 30
0.0
 11
178.4156821265912072
 21
117.072537952170606
 31
0.0
  0
CIRCLE
  5
AC2
  8
0
 62
     7
 10
229.1896259007085064
 20
188.9272533658206044
 30
0.0
 40
1.0750000000000031
  0
CIRCLE
  5
AC3
  8
0
 62
     7
 10
281.6896249173963156
 20
188.9272533658188138
 30
0.0
 40
1.0750000000000031
  0
LINE
  5
AC4
  8
0
 62
     7
 10
228.3828393285803884
 20
184.9272533658210023
 30
0.0
 11
226.3828393285799905
 21
184.9272533658208033
 31
0.0
  0
LINE
  5
AC5
  8
0
  6
CONTINUOUS
 62
     7
 10
222.3828393285799905
 20
177.32725336582061
 30
0.0
 11
222.3828393285803884
 21
191.9272533658223097
 31
0.0
  0
ARC
  5
AC6
  8
0
  6
CONTINUOUS
 62
     7
 10
223.3828393285803884
 20
191.9272533658223097
 30
0.0
 40
1.0
 50
89.9999999999967315
 51
180.0
  0
ARC
  5
AC7
  8
0
  6
CONTINUOUS
 62
     7
 10
223.3828393285799905
 20
177.32725336582061
 30
0.0
 40
1.0
 50
180.0
 51
269.9999999999968168
  0
LINE
  5
AC8
  8
0
  6
CONTINUOUS
 62
     7
 10
225.3828393285799052
 20
180.2880159400905029
 30
0.0
 11
225.3828393285799905
 21
183.9272533658208886
 31
0.0
  0
ARC
  5
AC9
  8
0
  6
CONTINUOUS
 62
     7
 10
226.3828393285799905
 20
183.9272533658208033
 30
0.0
 40
1.0
 50
89.9999999999967315
 51
180.0
  0
LINE
  5
ACA
  8
0
  6
CONTINUOUS
 62
     7
 10
281.6896249173960882
 20
184.9272533658190127
 30
0.0
 11
284.3942798565494172
 21
184.9272533658188138
 31
0.0
  0
LINE
  5
ACB
  8
0
  6
CONTINUOUS
 62
     7
 10
285.3942798565494172
 20
185.9272533658188138
 30
0.0
 11
285.3942798565495877
 21
191.9272533658187001
 31
0.0
  0
ARC
  5
ACC
  8
0
  6
CONTINUOUS
 62
     7
 10
284.3942798565494172
 20
185.9272533658188138
 30
0.0
 40
1.0
 50
269.9999999999968168
 51
0.0
  0
LINE
  5
ACD
  8
0
  6
CONTINUOUS
 62
     7
 10
284.2442798565496105
 20
192.9272533658188138
 30
0.0
 11
223.7328393285804111
 21
192.9272533658223949
 31
0.0
  0
ARC
  5
ACE
  8
0
  6
CONTINUOUS
 62
     7
 10
284.3942798565495877
 20
191.9272533658188138
 30
0.0
 40
1.0
 50
0.0
 51
89.9999999999967315
  0
LINE
  5
ACF
  8
0
  6
CONTINUOUS
 62
     7
 10
223.3828393285799905
 20
176.32725336582061
 30
0.0
 11
226.3828393285799905
 21
176.32725336582061
 31
0.0
  0
LINE
  5
AD0
  8
0
  6
CONTINUOUS
 62
     7
 10
227.3828393285801042
 20
177.3076346529554996
 30
0.0
 11
227.3828393285801894
 21
179.288015940090304
 31
0.0
  0
ARC
  5
AD1
  8
0
  6
CONTINUOUS
 62
     7
 10
226.3828393285801042
 20
177.32725336582061
 30
0.0
 40
1.0
 50
269.9999999999968168
 51
0.0
  0
LINE
  5
AD2
  8
0
  6
CONTINUOUS
 62
     7
 10
226.3828393285801894
 20
180.2880159400903892
 30
0.0
 11
225.3828393285799052
 21
180.2880159400905029
 31
0.0
  0
ARC
  5
AD3
  8
0
  6
CONTINUOUS
 62
     7
 10
226.3828393285801894
 20
179.288015940090304
 30
0.0
 40
1.0
 50
0.0
 51
89.9999999999967315
  0
CIRCLE
  5
AD4
  8
0
  6
CONTINUOUS
 62
     7
 10
208.3847941483014949
 20
147.9834160377409944
 30
0.0
 40
1.1999999999999991
  0
LINE
  5
ADF
  8
0
  6
CONTINUOUS
 62
     7
 10
162.7106498260810099
 20
101.5636495905612975
 30
0.0
 11
287.7106498260808962
 21
101.5636495905609991
 31
0.0
  0
LINE
  5
AE7
  8
0
  6
CONTINUOUS
 62
     7
 10
242.0770023723482893
 20
155.9074419672843135
 30
0.0
 11
242.0770023723482893
 21
153.4074419672843135
 31
0.0
  0
LINE
  5
AE8
  8
0
  6
CONTINUOUS
 62
     7
 10
242.5770023723482893
 20
152.9074419672843135
 30
0.0
 11
251.5770023723482041
 21
152.9074419672843135
 31
0.0
  0
ARC
  5
AE9
  8
0
  6
CONTINUOUS
 62
     7
 10
242.5770023723482893
 20
153.4074419672843135
 30
0.0
 40
0.5
 50
180.0
 51
270.0
  0
LINE
  5
AEA
  8
0
  6
CONTINUOUS
 62
     7
 10
252.0770023723482041
 20
153.4074419672843135
 30
0.0
 11
252.0770023723482041
 21
155.9074419672843135
 31
0.0
  0
ARC
  5
AEB
  8
0
  6
CONTINUOUS
 62
     7
 10
251.5770023723482041
 20
153.4074419672843135
 30
0.0
 40
0.5
 50
270.0
 51
0.0
  0
LINE
  5
AEC
  8
0
  6
CONTINUOUS
 62
     7
 10
242.0770023723484883
 20
173.0074456237439051
 30
0.0
 11
242.0770023723484883
 21
175.5074456237439051
 31
0.0
  0
LINE
  5
AED
  8
0
  6
CONTINUOUS
 62
     7
 10
242.577002372348403
 20
176.0074456237439051
 30
0.0
 11
251.577002372348403
 21
176.0074456237437914
 31
0.0
  0
ARC
  5
AEE
  8
0
  6
CONTINUOUS
 62
     7
 10
251.577002372348403
 20
175.5074456237437914
 30
0.0
 40
0.5
 50
0.0
 51
90.0
  0
ARC
  5
AEF
  8
0
  6
CONTINUOUS
 62
     7
 10
242.577002372348403
 20
175.5074456237439051
 30
0.0
 40
0.5
 50
90.0
 51
180.0
  0
LINE
  5
AF0
  8
0
  6
CONTINUOUS
 62
     7
 10
252.077002372348403
 20
175.5074456237437914
 30
0.0
 11
252.0770023723482893
 21
173.0074419672841088
 31
0.0
  0
LINE
  5
AF1
  8
0
  6
CONTINUOUS
 62
     7
 10
267.4770023723477834
 20
155.9074419672838019
 30
0.0
 11
267.4770023723480108
 21
153.4074419672838019
 31
0.0
  0
LINE
  5
AF2
  8
0
  6
CONTINUOUS
 62
     7
 10
267.9770023723480108
 20
152.9074419672838019
 30
0.0
 11
276.9770023723477266
 21
152.9074419672838019
 31
0.0
  0
ARC
  5
AF3
  8
0
  6
CONTINUOUS
 62
     7
 10
267.9770023723480108
 20
153.4074419672838019
 30
0.0
 40
0.5
 50
180.0
 51
270.0
  0
LINE
  5
AF4
  8
0
  6
CONTINUOUS
 62
     7
 10
277.4770023723477266
 20
153.4074419672838019
 30
0.0
 11
277.4770023723477266
 21
155.9074429857053019
 31
0.0
  0
ARC
  5
AF5
  8
0
  6
CONTINUOUS
 62
     7
 10
276.9770023723477266
 20
153.4074419672838019
 30
0.0
 40
0.5
 50
270.0
 51
0.0
  0
LINE
  5
AF6
  8
0
  6
CONTINUOUS
 62
     7
 10
267.4770023723481245
 20
173.0074419672831141
 30
0.0
 11
267.4770023723481245
 21
175.5074419672831993
 31
0.0
  0
LINE
  5
AF7
  8
0
  6
CONTINUOUS
 62
     7
 10
267.9770023723481245
 20
176.0074419672831141
 30
0.0
 11
276.9770023723478971
 21
176.0074419672831141
 31
0.0
  0
ARC
  5
AF8
  8
0
  6
CONTINUOUS
 62
     7
 10
276.9770023723478971
 20
175.5074419672831141
 30
0.0
 40
0.5
 50
0.0
 51
90.0
  0
ARC
  5
AF9
  8
0
  6
CONTINUOUS
 62
     7
 10
267.9770023723481245
 20
175.5074419672831993
 30
0.0
 40
0.5
 50
90.0
 51
180.0
  0
LINE
  5
AFA
  8
0
  6
CONTINUOUS
 62
     7
 10
277.4770023723480108
 20
175.5074419672831141
 30
0.0
 11
277.4770023723480108
 21
173.0074419672831141
 31
0.0
  0
LINE
  5
B03
  8
0
  6
CONTINUOUS
 62
     7
 10
190.7833239157203025
 20
109.9225379521706998
 30
0.0
 11
188.7833239157203025
 21
109.9225379521706998
 31
0.0
  0
LINE
  5
B04
  8
0
  6
CONTINUOUS
 62
     7
 10
188.7833239157203025
 20
109.9225379521706998
 30
0.0
 11
188.7833239157203025
 21
113.5225379521707936
 31
0.0
  0
LINE
  5
B05
  8
0
  6
CONTINUOUS
 62
     7
 10
188.7833239157203025
 20
113.5225379521707936
 30
0.0
 11
190.7883569294409085
 21
113.5225379521707936
 31
0.0
  0
LINE
  5
B06
  8
0
  6
CONTINUOUS
 62
     7
 10
190.7833239157203025
 20
109.9225379521706998
 30
0.0
 11
190.7883569294409085
 21
113.5225379521707936
 31
0.0
  0
LINE
  5
B07
  8
0
  6
CONTINUOUS
 62
     7
 10
257.077002372349682
 20
160.8574419672839042
 30
0.0
 11
262.4770023723471013
 21
160.8574419672818863
 31
0.0
  0
LINE
  5
B08
  8
0
  6
CONTINUOUS
 62
     7
 10
257.0770023723483746
 20
168.0574419672840065
 30
0.0
 11
262.4770023723485224
 21
168.0574419672848023
 31
0.0
  0
ARC
  5
B09
  8
0
  6
CONTINUOUS
 62
     7
 10
208.383703361725992
 20
147.9845068243164121
 30
0.0
 40
5.0010909055310249
 50
181.6924575143013101
 51
359.9875032330323279
  0
ARC
  5
B0A
  8
0
  6
CONTINUOUS
 62
     7
 10
208.3847941483014949
 20
147.9834160377409944
 30
0.0
 40
5.0000000000000142
 50
0.0
 51
178.2310771198816894
  0
ARC
  5
B0B
  8
LAYER_1
 62
     7
 10
219.8197735196592078
 20
112.1356890977422012
 30
0.0
 40
10.0
 50
180.0006311408274939
 51
270.0
  0
ARC
  5
B0C
  8
LAYER_1
 62
     7
 10
199.8204569294408088
 20
112.2524879521705969
 30
0.0
 40
10.0
 50
270.0
 51
0.0
  0
ARC
  5
B0D
  8
LAYER_1
 62
     7
 10
219.8196767226770021
 20
131.7756890977410933
 30
0.0
 40
10.0
 50
90.0
 51
180.0
  0
ARC
  5
B0E
  8
LAYER_1
 62
     7
 10
199.8203601324586884
 20
131.8924879521694038
 30
0.0
 40
10.0
 50
0.0006311408275203
 51
90.0
  0
ARC
  5
B0F
  8
LAYER_1
 62
     7
 10
194.0562569294420996
 20
131.8924879521727007
 30
0.0
 40
9.9999999999998863
 50
89.9999999999967315
 51
166.5259465243001102
  0
ARC
  5
B10
  8
0
 62
     7
 10
223.2828052919414006
 20
108.0878999608737985
 30
0.0
 40
47.7088531646915612
 50
119.5510558058377057
 51
150.9689805185523142
  0
ARC
  5
B11
  8
0
 62
     7
 10
235.2678270091828097
 20
147.4529695007425119
 30
0.0
 40
6.0000000000056692
 50
263.0412407614833228
 51
305.5039278180724978
  0
ARC
  5
B12
  8
0
 62
     7
 10
241.4519283744072027
 20
139.4485373327549098
 30
0.0
 40
4.0000000000000258
 50
89.9889323683528914
 51
269.9889323683855196
  0
ARC
  5
B13
  8
0
 62
     7
 10
270.3519621983792831
 20
147.4521033896930078
 30
0.0
 40
4.0000000000000258
 50
269.9889323683528914
 51
89.9889323683854343
  0
ARC
  5
B14
  8
0
 62
     7
 10
276.6041009611276991
 20
138.3710332092265105
 30
0.0
 40
7.063167147795741
 50
84.6536402285237557
 51
120.9763417197409012
  0
LINE
  5
B15
  8
0
  6
CONTINUOUS
 62
     7
 10
241.5916095450909893
 20
143.451747882451798
 30
0.0
 11
255.5380491200288873
 21
143.4502782183907073
 31
0.0
  0
CIRCLE
  5
B17
  8
0
  6
CONTINUOUS
 62
     7
 10
177.9754288249463912
 20
107.1217180581988941
 30
0.0
 40
2.2249999999999992
  0
CIRCLE
  5
B18
  8
0
 62
     7
 10
182.4254288249466072
 20
107.1217180581988941
 30
0.0
 40
1.2250000000000061
  0
INSERT
  5
B22
  8
0
 62
     7
  2
*U56
 10
0.0
 20
0.0
 30
0.0
  0
INSERT
  5
B25
  8
0
 62
     7
  2
*U59
 10
0.0
 20
0.0
 30
0.0
  0
INSERT
  5
B26
  8
0
 62
     7
  2
*U60
 10
0.0
 20
0.0
 30
0.0
  0
INSERT
  5
B27
  8
0
 62
     7
  2
*U61
 10
0.0
 20
0.0
 30
0.0
  0
INSERT
  5
B28
  8
0
 62
     7
  2
*U62
 10
0.0
 20
0.0
 30
0.0
  0
INSERT
  5
B29
  8
0
 62
     7
  2
*U63
 10
-80.8302854163688949
 20
3.5257609829269252
 30
0.0
  0
INSERT
  5
B2A
  8
0
 62
     7
  2
*U64
 10
-80.8302854163688949
 20
3.5257609829269252
 30
0.0
  0
INSERT
  5
B2B
  8
0
 62
     7
  2
*U65
 10
0.0
 20
0.0
 30
0.0
  0
INSERT
  5
B2C
  8
0
 62
     7
  2
*U66
 10
0.0
 20
0.0
 30
0.0
  0
INSERT
  5
B2D
  8
0
 62
     7
  2
*U67
 10
0.0
 20
0.0
 30
0.0
  0
INSERT
  5
B30
  8
0
 62
     7
  2
*U70
 10
0.0
 20
0.0
 30
0.0
  0
INSERT
  5
B31
  8
0
 62
     7
  2
*U71
 10
0.0
 20
0.0
 30
0.0
  0
INSERT
  5
B32
  8
0
 62
     7
  2
*U72
 10
0.0
 20
0.0
 30
0.0
  0
LINE
  5
B34
  8
0
  6
CONTINUOUS
 62
     7
 10
193.5913273844452078
 20
170.1593746547426917
 30
0.0
 11
196.9559032330865023
 21
172.3226197538332087
 31
0.0
  0
LINE
  5
B35
  8
0
  6
CONTINUOUS
 62
     7
 10
196.9559032330865023
 20
172.3226197538332087
 30
0.0
 11
197.1470405191905115
 21
168.3271890464050102
 31
0.0
  0
LINE
  5
B36
  8
0
  6
CONTINUOUS
 62
     7
 10
197.1470405191905115
 20
168.3271890464050102
 30
0.0
 11
193.5913273844452078
 21
170.1593746547426917
 31
0.0
  0
LINE
  5
B37
  8
0
 62
     7
 10
226.0770023723488009
 20
155.9074419672843135
 30
0.0
 11
226.0770023723488009
 21
164.1772204645739919
 31
0.0
  0
LINE
  5
B38
  8
0
 62
     7
 10
226.0770023723488862
 20
173.0074419672837109
 30
0.0
 11
226.0770023723488009
 21
164.8772204645740089
 31
0.0
  0
CIRCLE
  5
10BE
  8
0
 62
     7
 10
-10.3951289089938506
 20
193.8845896565998999
 30
0.0
 40
1.2250000000000061
  0
CIRCLE
  5
10BF
  8
0
 62
     7
 10
116.9126539357969961
 20
163.0464095584248128
 30
0.0
 40
1.0750000000000031
  0
CIRCLE
  5
10C0
  8
0
 62
     7
 10
36.9126539357966976
 20
163.0464095584248128
 30
0.0
 40
1.0750000000000031
  0
CIRCLE
  5
10C3
  8
0
 62
     7
 10
116.9126539357965981
 20
171.046409558424898
 30
0.0
 40
1.0749999999999991
  0
CIRCLE
  5
10C4
  8
0
 62
     7
 10
36.9126539357969818
 20
171.0464095584246138
 30
0.0
 40
1.0749999999999971
  0
LINE
  5
10C5
  8
0
 62
     7
 10
-12.9175080790281491
 20
197.8846098989641007
 30
0.0
 11
-52.0090707454528811
 21
197.8849236129584028
 31
0.0
  0
LINE
  5
10C6
  8
0
 62
     7
 10
-90.4347900855836144
 20
197.8749938523897924
 30
0.0
 11
-52.5090686823881185
 21
197.8847944062738122
 31
0.0
  0
LINE
  5
10C7
  8
0
 62
     7
 10
5.204976375666333
 20
171.6192421171056992
 30
0.0
 11
-73.9893083140451751
 21
171.6192421171056992
 31
0.0
  0
LINE
  5
10C8
  8
0
 62
     7
 10
116.9126539357970955
 20
167.0464095584248128
 30
0.0
 11
64.1003992323067564
 21
167.0464095584256086
 31
0.0
  0
LINE
  5
10C9
  8
0
 62
     7
 10
37.112653935796402
 20
159.0464095584250117
 30
0.0
 11
116.5126539357970046
 21
159.0464095584248128
 31
0.0
  0
LINE
  5
10CA
  8
0
 62
     7
 10
36.9126539357966976
 20
167.0464095584248128
 30
0.0
 11
63.8328635704656904
 21
167.0464095584248128
 31
0.0
  0
LINE
  5
10CB
  8
0
 62
     7
 10
36.9126539357969818
 20
175.0464095584246138
 30
0.0
 11
37.5248845359757581
 21
175.0464095584246138
 31
0.0
  0
CIRCLE
  5
10CC
  8
0
  6
CONTINUOUS
 62
     7
 10
-90.3948569272888562
 20
193.8749417617316055
 30
0.0
 40
1.1999999999999991
  0
POLYLINE
  5
10CD
  8
0
 62
     7
 66
     1
 10
0.0
 20
0.0
 30
0.0
 70
     1
  0
VERTEX
  5
14C7
  8
0
 62
     7
 10
-47.384976562069923
 20
117.924327327321194
 30
0.0
  0
VERTEX
  5
14C8
  8
0
 62
     7
 10
-47.384976562069923
 20
116.3243273273211997
 30
0.0
  0
VERTEX
  5
14C9
  8
0
 62
     7
 10
-57.3822632762418223
 20
116.3243273273211997
 30
0.0
  0
VERTEX
  5
14CA
  8
0
 62
     7
 10
-57.3822632762418721
 20
117.924327327321194
 30
0.0
  0
SEQEND
  5
14CB
  8
0
 62
     7
  0
POLYLINE
  5
10CE
  8
0
 62
     7
 66
     1
 10
0.0
 20
0.0
 30
0.0
 70
     1
  0
VERTEX
  5
14CC
  8
0
 62
     7
 10
-76.6382315859604404
 20
114.3243273273211003
 30
0.0
  0
VERTEX
  5
14CD
  8
0
 62
     7
 10
-81.6382315859604262
 20
114.3243273273211003
 30
0.0
 42
-0.4142135623730951
  0
VERTEX
  5
14CE
  8
0
 62
     7
 10
-82.6382315859604546
 20
115.3243273273211003
 30
0.0
  0
VERTEX
  5
14CF
  8
0
 62
     7
 10
-82.6382315859604546
 20
116.3243273273211003
 30
0.0
  0
VERTEX
  5
14D0
  8
0
 62
     7
 10
-86.1882315859604091
 20
116.3243273273211003
 30
0.0
  0
VERTEX
  5
14D1
  8
0
 62
     7
 10
-86.1882315859604944
 20
117.9243273273210946
 30
0.0
  0
VERTEX
  5
14D2
  8
0
 62
     7
 10
-84.0882316028827432
 20
117.924327327321194
 30
0.0
  0
VERTEX
  5
14D3
  8
0
 62
     7
 10
-83.0688965890361004
 20
125.2017551785296945
 30
0.0
 42
-0.3740168076009553
  0
VERTEX
  5
14D4
  8
0
 62
     7
 10
-81.0882316028827859
 20
126.924327327321194
 30
0.0
  0
VERTEX
  5
14D5
  8
0
 62
     7
 10
-77.0882316028827717
 20
126.9243273273210946
 30
0.0
 42
-0.3740168076009793
  0
VERTEX
  5
14D6
  8
0
 62
     7
 10
-75.1075666167285334
 20
125.2017551785287992
 30
0.0
  0
VERTEX
  5
14D7
  8
0
 62
     7
 10
-74.0882316028826864
 20
117.924327327321194
 30
0.0
  0
VERTEX
  5
14D8
  8
0
 62
     7
 10
-71.9882316028826921
 20
117.924327327321194
 30
0.0
  0
VERTEX
  5
14D9
  8
0
 62
     7
 10
-71.9882316028826068
 20
116.3243273273211997
 30
0.0
  0
VERTEX
  5
14DA
  8
0
 62
     7
 10
-75.638231585960412
 20
116.3243273273210008
 30
0.0
  0
VERTEX
  5
14DB
  8
0
 62
     7
 10
-75.6382315859604404
 20
115.3243273273211003
 30
0.0
 42
-0.4142135623730951
  0
SEQEND
  5
14DC
  8
0
 62
     7
  0
LINE
  5
10CF
  8
0
 62
     7
 10
-69.1938389329944954
 20
164.6270493258471106
 30
0.0
 11
-69.193838824107516
 21
152.3270429753166013
 31
0.0
  0
LINE
  5
10D0
  8
0
 62
     7
 10
-69.193838824107516
 20
152.3270429753166013
 30
0.0
 11
-46.4438388241075373
 21
152.3270429753166866
 31
0.0
  0
LINE
  5
10D1
  8
0
 62
     7
 10
-46.4438388241075373
 20
152.3270429753166866
 30
0.0
 11
-46.4438388241075728
 21
157.7109270256758009
 31
0.0
  0
LINE
  5
10D2
  8
0
 62
     7
 10
-46.4438388241075728
 20
157.6106586476271048
 30
0.0
 11
-44.9438388486903619
 21
158.4770461638609049
 31
0.0
  0
LINE
  5
10D3
  8
0
 62
     7
 10
-44.9438388486903619
 20
158.4770461638609049
 30
0.0
 11
-46.4438388241076296
 21
159.3427095025056133
 31
0.0
  0
LINE
  5
10D4
  8
0
 62
     7
 10
-40.379826919641431
 20
109.5824756738063002
 30
0.0
 11
-88.3974952937559948
 21
109.5737823439294942
 31
0.0
  0
LINE
  5
10D5
  8
0
 62
     7
 10
-88.782624381657925
 20
137.8243273273211003
 30
0.0
 11
-88.7826243816578966
 21
129.9243273273210946
 31
0.0
  0
LINE
  5
10D6
  8
0
 62
     7
 10
-88.7826243816578966
 20
129.9243273273210946
 30
0.0
 11
-92.3826243816578767
 21
129.9243273273216914
 31
0.0
  0
LINE
  5
10D7
  8
0
 62
     7
 10
-92.3826243816578767
 20
129.9243273273216914
 30
0.0
 11
-92.3826243816579193
 21
137.8243273273211003
 31
0.0
  0
LINE
  5
10D8
  8
0
 62
     7
 10
-92.3826243816579193
 20
137.8243273273211003
 30
0.0
 11
-88.782624381657925
 21
137.8243273273211003
 31
0.0
  0
POLYLINE
  5
10D9
  8
0
 62
     7
 66
     1
 10
0.0
 20
0.0
 30
0.0
 70
     1
  0
VERTEX
  5
14DD
  8
0
 62
     7
 10
-13.3994745951501493
 20
117.9243273273212935
 30
0.0
  0
VERTEX
  5
14DE
  8
0
 62
     7
 10
-13.3994745951501493
 20
116.3243273273211997
 30
0.0
  0
VERTEX
  5
14DF
  8
0
 62
     7
 10
-25.39676130932218
 20
116.3243273273211997
 30
0.0
  0
VERTEX
  5
14E0
  8
0
 62
     7
 10
-25.3967613093221303
 20
117.9243273273212935
 30
0.0
  0
SEQEND
  5
14E1
  8
0
 62
     7
  0
POLYLINE
  5
10DA
  8
0
 62
     7
 66
     1
 10
0.0
 20
0.0
 30
0.0
 70
     1
  0
VERTEX
  5
14E2
  8
0
 62
     7
 10
8.3064937314906757
 20
126.9243273273212935
 30
0.0
  0
VERTEX
  5
14E3
  8
0
 62
     7
 10
12.3064937314907592
 20
126.924327327321393
 30
0.0
 42
-0.3740168076009617
  0
VERTEX
  5
14E4
  8
0
 62
     7
 10
14.2871587176440595
 20
125.2017551785299929
 30
0.0
  0
VERTEX
  5
14E5
  8
0
 62
     7
 10
15.3064937314907592
 20
117.924327327321393
 30
0.0
  0
VERTEX
  5
14E6
  8
0
 62
     7
 10
17.4064937314907517
 20
117.924327327321393
 30
0.0
  0
VERTEX
  5
14E7
  8
0
 62
     7
 10
17.4064937314907517
 20
116.3243273273212992
 30
0.0
  0
VERTEX
  5
14E8
  8
0
 62
     7
 10
13.8564937145684599
 20
116.3243273273212992
 30
0.0
  0
VERTEX
  5
14E9
  8
0
 62
     7
 10
13.8564937145685398
 20
115.3243273273212992
 30
0.0
 42
-0.4142135623730951
  0
VERTEX
  5
14EA
  8
0
 62
     7
 10
12.8564937145685398
 20
114.3243273273213987
 30
0.0
  0
VERTEX
  5
14EB
  8
0
 62
     7
 10
7.8564937145685709
 20
114.3243273273213987
 30
0.0
 42
-0.4142135623730898
  0
VERTEX
  5
14EC
  8
0
 62
     7
 10
6.8564937145684581
 20
115.3243273273212992
 30
0.0
  0
VERTEX
  5
14ED
  8
0
 62
     7
 10
6.8564937145684581
 20
116.3243273273211003
 30
0.0
  0
VERTEX
  5
14EE
  8
0
 62
     7
 10
3.3064937314906748
 20
116.3243273273212992
 30
0.0
  0
VERTEX
  5
14EF
  8
0
 62
     7
 10
3.3064937314906748
 20
117.924327327321393
 30
0.0
  0
VERTEX
  5
14F0
  8
0
 62
     7
 10
5.3064937314906748
 20
117.924327327321393
 30
0.0
  0
VERTEX
  5
14F1
  8
0
 62
     7
 10
6.3258287453363797
 20
125.2017551785288987
 30
0.0
 42
-0.3740168076009721
  0
SEQEND
  5
14F2
  8
0
 62
     7
  0
LINE
  5
10DB
  8
0
 62
     7
 10
-22.3378990472848109
 20
164.6270429753168116
 30
0.0
 11
-22.3378990472847505
 21
159.3427063139614859
 31
0.0
  0
LINE
  5
10DC
  8
0
 62
     7
 10
-22.3378990472847505
 20
159.3427063139614859
 30
0.0
 11
-23.8378990227020005
 21
158.4770429753166923
 31
0.0
  0
LINE
  5
10DD
  8
0
 62
     7
 10
-23.8378990227020005
 20
158.4770429753166923
 30
0.0
 11
-22.3378990472847896
 21
157.6106554590830058
 31
0.0
  0
LINE
  5
10DE
  8
0
 62
     7
 10
-22.3378990472848109
 20
157.6106554590830058
 30
0.0
 11
-22.3378990472848109
 21
152.3270429753168003
 31
0.0
  0
LINE
  5
10DF
  8
0
 62
     7
 10
-22.3378990472848109
 20
152.3270429753168003
 30
0.0
 11
0.4121009527152637
 21
152.3270429753166013
 31
0.0
  0
LINE
  5
10E0
  8
0
 62
     7
 10
0.4121009527152637
 20
152.3270429753166013
 30
0.0
 11
0.4121009527152637
 21
164.6270429753166979
 31
0.0
  0
ARC
  5
10E1
  8
0
 62
     7
 10
19.5979671839816483
 20
165.5843138137973938
 30
0.0
 40
6.0
 50
0.0084176664364587
 51
89.9545034442305251
  0
LINE
  5
10E2
  8
0
 62
     7
 10
19.6064281914436691
 20
109.5737841312658958
 30
0.0
 11
-28.383085521522009
 21
109.5824723638989013
 31
0.0
  0
ARC
  5
10E3
  8
0
 62
     7
 10
19.6075144578153484
 20
115.5737840329346966
 30
0.0
 40
6.0
 50
269.9896269201894938
 51
0.0030282511637202
  0
LINE
  5
10E4
  8
0
 62
     7
 10
25.6075144494350404
 20
115.5741011506548972
 30
0.0
 11
25.6070542557464584
 21
124.2811583491251071
 31
0.0
  0
LINE
  5
10E5
  8
0
 62
     7
 10
25.597967119228759
 20
165.5851953097622129
 30
0.0
 11
25.6039618849477684
 21
124.7811583491252065
 31
0.0
  0
LINE
  5
10E6
  8
0
 62
     7
 10
-34.3819991568236318
 20
115.5813860243898006
 30
0.0
 11
-34.3882316186499679
 21
150.0066075223681992
 31
0.0
  0
ARC
  5
10E7
  8
0
 62
     7
 10
-34.3820000228459719
 20
113.0824741080379994
 30
0.0
 40
0.5
 50
22.6198473537454987
 51
157.3801219779608971
  0
LINE
  5
10E8
  8
0
 62
     7
 10
-34.3903343484030017
 20
161.6210525610586046
 30
0.0
 11
-34.3883221403874302
 21
150.506607514173993
 31
0.0
  0
ARC
  5
10E9
  8
0
 62
     7
 10
-24.3903340206322987
 20
161.6192421171056139
 30
0.0
 40
10.0
 50
89.9545034442305251
 51
180.0
  0
LINE
  5
10EA
  8
0
 62
     7
 10
114.6170006008585034
 20
175.0426624420373116
 30
0.0
 11
77.0025990181030835
 21
175.0415847708138131
 31
0.0
  0
LINE
  5
10EB
  8
0
 62
     7
 10
-36.2826253649701727
 20
137.8243273273214129
 30
0.0
 11
-36.28262536497013
 21
129.9243273273214925
 31
0.0
  0
LINE
  5
10EC
  8
0
 62
     7
 10
-39.8826253649701385
 20
129.9243273273220041
 30
0.0
 11
-39.8826253649702025
 21
137.8243273273214129
 31
0.0
  0
LINE
  5
10ED
  8
0
 62
     7
 10
-39.8826253649702025
 20
137.8243273273214129
 30
0.0
 11
-36.2826253649701727
 21
137.8243273273214129
 31
0.0
  0
CIRCLE
  5
10EE
  8
0
 62
     7
 10
-61.794988824082921
 20
167.6270493258471106
 30
0.0
 40
1.075000000000023
  0
CIRCLE
  5
10EF
  8
0
 62
     7
 10
-61.794988824082921
 20
149.326936860436092
 30
0.0
 40
1.075000000000023
  0
LINE
  5
10F0
  8
0
  6
CONTINUOUS
 62
     7
 10
-46.4438388241076296
 20
159.4429778805543094
 30
0.0
 11
-46.4438388241076296
 21
164.6270493258471106
 31
0.0
  0
CIRCLE
  5
10F1
  8
0
 62
     7
 10
-6.9868489353185623
 20
149.3270429753166866
 30
0.0
 40
1.075000000000023
  0
CIRCLE
  5
10F2
  8
0
 62
     7
 10
-6.9868489353185623
 20
167.6270429753166979
 30
0.0
 40
1.075000000000023
  0
CIRCLE
  5
10F3
  8
0
  6
CONTINUOUS
 62
     7
 10
-38.0826253649702124
 20
124.424327327321393
 30
0.0
 40
1.1999999999999991
  0
CIRCLE
  5
10F4
  8
0
  6
CONTINUOUS
 62
     7
 10
-90.5826243816579648
 20
124.4243273273210946
 30
0.0
 40
1.1999999999999991
  0
CIRCLE
  5
10F5
  8
0
  6
CONTINUOUS
 62
     7
 10
21.8008865102661495
 20
124.4243273273217056
 30
0.0
 40
1.1999999999999991
  0
CIRCLE
  5
10F6
  8
0
  6
CONTINUOUS
 62
     7
 10
-30.6991125064219688
 20
124.4243273273218051
 30
0.0
 40
1.1999999999999991
  0
ARC
  5
10F7
  8
0
 62
     7
 10
24.6543873996170504
 20
185.0997200848495083
 30
0.0
 40
4.0000000000000329
 50
269.8047925407950061
 51
89.8285189943228062
  0
ARC
  5
10F8
  8
0
 62
     7
 10
-90.3905611415989227
 20
185.0877352949611065
 30
0.0
 40
4.010454161557135
 50
89.890679370341914
 51
176.8207928718647111
  0
ARC
  5
10F9
  8
0
 62
     7
 10
-90.3904567465185664
 20
185.1087475034333067
 30
0.0
 40
4.0105629873038771
 50
183.1803051288337087
 51
269.7663359286437981
  0
CIRCLE
  5
10FA
  8
0
  6
CONTINUOUS
 62
     7
 10
24.6543874009657493
 20
185.0997213629914029
 30
0.0
 40
1.1999999999999991
  0
LINE
  5
10FB
  8
0
  6
CONTINUOUS
 62
     7
 10
-22.3378989560002204
 20
164.6270429753168116
 30
0.0
 11
0.4121009527152637
 21
164.6270429753166979
 31
0.0
  0
LINE
  5
10FC
  8
0
  6
CONTINUOUS
 62
     7
 10
-69.1938389329944954
 20
164.6270493258471106
 30
0.0
 11
-46.4438388241076296
 21
164.6270493258471106
 31
0.0
  0
CIRCLE
  5
10FD
  8
0
  6
CONTINUOUS
 62
     7
 10
-55.3956784531802526
 20
185.0997213629914881
 30
0.0
 40
1.1999999999999991
  0
CIRCLE
  5
10FE
  8
0
  6
CONTINUOUS
 62
     7
 10
-90.3948569272888562
 20
185.0997213629914881
 30
0.0
 40
1.1999999999999991
  0
LINE
  5
1101
  8
0
  6
CONTINUOUS
 62
     7
 10
90.2106498260809246
 20
6.563649590561524
 30
0.0
 11
142.7106498260810099
 21
6.563649590561524
 31
0.0
  0
ARC
  5
1107
  8
0
  6
CONTINUOUS
 62
     7
 10
-44.3903341845176627
 20
161.6192421171056139
 30
0.0
 40
10.0
 50
0.010373079812127
 51
90.0
  0
ARC
  5
1108
  8
0
  6
CONTINUOUS
 62
     7
 10
-77.8085241248179642
 20
177.6192421171056992
 30
0.0
 40
6.0
 50
188.2808100562403979
 51
270.0
  0
CIRCLE
  5
1109
  8
0
  6
CONTINUOUS
 62
     7
 10
-88.6938390318550347
 20
176.0349696106736985
 30
0.0
 40
1.1999999999999991
  0
CIRCLE
  5
110A
  8
0
 62
     7
 10
-74.3788779498569426
 20
175.6192285180204067
 30
0.0
 40
1.0749999999999971
  0
LINE
  5
110D
  8
0
 62
     7
 10
-74.368447585668477
 20
179.6192149189350005
 30
0.0
 11
5.6258371040427297
 21
179.6192149189350005
 31
0.0
  0
LINE
  5
110E
  8
0
  6
CONTINUOUS
 62
     7
 10
-64.9095933284061601
 20
175.5945364122717933
 30
0.0
 11
-68.3788983484847535
 21
173.6035761721722963
 31
0.0
  0
LINE
  5
110F
  8
0
  6
CONTINUOUS
 62
     7
 10
-68.3788983484847535
 20
173.6035761721722963
 30
0.0
 11
-68.3684679842965153
 21
177.6035625730870038
 31
0.0
  0
LINE
  5
1110
  8
0
  6
CONTINUOUS
 62
     7
 10
-68.3684679842965153
 20
177.6035625730870038
 30
0.0
 11
-64.9095933284061601
 21
175.5945364122717933
 31
0.0
  0
ARC
  5
1111
  8
0
 62
     7
 10
36.9126539357964134
 20
163.046409558425097
 30
0.0
 40
3.999999999999984
 50
90.0
 51
270.0
  0
ARC
  5
1113
  8
0
 62
     7
 10
116.9126539357969961
 20
163.0464095584248128
 30
0.0
 40
3.999999999999984
 50
270.0
 51
89.9999999999983658
  0
LINE
  5
1115
  8
0
 62
     7
 10
45.6045345487575204
 20
175.0464095584246138
 30
0.0
 11
76.8513745104147858
 21
175.0464095584245001
 31
0.0
  0
ARC
  5
1117
  8
0
 62
     7
 10
-88.3985815601278233
 20
115.573782245598295
 30
0.0
 40
6.0
 50
180.0
 51
270.0103730798105062
  0
ARC
  5
1118
  8
0
 62
     7
 10
116.912653837465399
 20
171.0474958247966129
 30
0.0
 40
4.0000000000000204
 50
270.0
 51
90.0
  0
LINE
  5
1119
  8
0
  6
CONTINUOUS
 62
     7
 10
-57.9182657014724711
 20
189.0996103858572042
 30
0.0
 11
-90.3829091799385367
 21
189.0981821565256951
 31
0.0
  0
LINE
  5
111A
  8
0
  6
CONTINUOUS
 62
     7
 10
-12.9346218956580401
 20
189.8941375138778938
 30
0.0
 11
-90.4544598186950708
 21
189.8750181164051867
 31
0.0
  0
ARC
  5
111B
  8
0
 62
     7
 10
-28.3819992551502409
 20
115.5824722655676027
 30
0.0
 40
6.0
 50
180.0103728392257949
 51
269.9896269201894938
  0
ARC
  5
111C
  8
0
 62
     7
 10
-40.3819994523849815
 20
115.5824754771439018
 30
0.0
 40
6.0
 50
270.0103730798105062
 51
0.0103728392258069
  0
LINE
  5
111D
  8
0
  6
CONTINUOUS
 62
     7
 10
-74.3893083140448681
 20
171.6192421171056139
 30
0.0
 11
-77.80852412481768
 21
171.6192421171056139
 31
0.0
  0
ARC
  5
111E
  8
0
 62
     7
 10
-74.3788779498566583
 20
175.619228518020293
 30
0.0
 40
3.999999999999984
 50
89.8505958689928406
 51
269.8505958689929116
  0
LINE
  5
111F
  8
0
 62
     7
 10
5.6049763756663671
 20
171.6192421171056992
 30
0.0
 11
19.4521930735339588
 21
171.5846875780638925
 31
0.0
  0
ARC
  5
1120
  8
0
  6
CONTINUOUS
 62
     7
 10
-89.0573725258020232
 20
175.6841954088500017
 30
0.0
 40
5.4182870104907437
 50
11.3992866176530896
 51
169.8773785448128137
  0
LINE
  5
1121
  8
0
  6
CONTINUOUS
 62
     7
 10
-57.9179179543357421
 20
181.0996130495684895
 30
0.0
 11
-90.4068126087886839
 21
181.0982178674748013
 31
0.0
  0
ARC
  5
1122
  8
0
  6
CONTINUOUS
 62
     7
 10
-55.3956784531802526
 20
185.0997213629914881
 30
0.0
 40
4.6587361452800202
 50
240.730267552960612
 51
299.2721919213537944
  0
ARC
  5
1123
  8
0
  6
CONTINUOUS
 62
     7
 10
-52.8732672547149889
 20
180.5997213227167038
 30
0.0
 40
0.5
 50
89.9999990851694633
 51
119.2721919213537944
  0
ARC
  5
1124
  8
0
  6
CONTINUOUS
 62
     7
 10
-57.917896482658918
 20
180.5996130500294896
 30
0.0
 40
0.5
 50
60.7302675529605622
 51
90.0024604729237581
  0
ARC
  5
1125
  8
0
  6
CONTINUOUS
 62
     7
 10
-55.3956784531802526
 20
185.0997213629914881
 30
0.0
 40
4.6587361452799723
 50
60.7277934283993304
 51
119.2747135589933976
  0
ARC
  5
1126
  8
0
  6
CONTINUOUS
 62
     7
 10
-52.8732661040873282
 20
189.5997207582981048
 30
0.0
 40
0.5
 50
240.7277934283993091
 51
269.9999862645861981
  0
ARC
  5
1127
  8
0
  6
CONTINUOUS
 62
     7
 10
-57.9182876981614498
 20
189.5996103853732961
 30
0.0
 40
0.5
 50
270.0025206348818756
 51
299.274713558993426
  0
ARC
  5
1129
  8
0
  6
CONTINUOUS
 62
     7
 10
-12.9175040664743292
 20
198.3846098989479003
 30
0.0
 40
0.5
 50
269.9995401952073735
 51
299.2717330343190838
  0
ARC
  5
112A
  8
0
  6
CONTINUOUS
 62
     7
 10
-12.9344985762768498
 20
189.3941375290854978
 30
0.0
 40
0.5
 50
60.5116570954146766
 51
90.0141313602966733
  0
LINE
  5
112B
  8
0
  6
CONTINUOUS
 62
     7
 10
24.166359014359351
 20
189.0997022897288105
 30
0.0
 11
-52.8732662239513189
 21
189.0997207582983037
 31
0.0
  0
ARC
  5
112C
  8
0
  6
CONTINUOUS
 62
     7
 10
-10.3951289089937404
 20
193.8845896566002125
 30
0.0
 40
4.6587361452800451
 50
240.5116570954147051
 51
119.271733034319098
  0
ARC
  5
112D
  8
0
 62
     7
 10
36.9126539357966976
 20
171.0464095584248128
 30
0.0
 40
3.999999999999984
 50
90.0
 51
270.0
  0
ARC
  5
112E
  8
0
  6
CONTINUOUS
 62
     7
 10
-90.3947310302099964
 20
193.8750685430073872
 30
0.0
 40
4.0001258990880748
 50
90.5737952324557938
 51
270.3991723850464268
  0
LINE
  5
112F
  8
0
  6
CONTINUOUS
 62
     7
 10
-52.8836976109197465
 20
181.099734921801911
 30
0.0
 11
24.6439570354288691
 21
181.0997336839348009
 31
0.0
  0
ARC
  5
1130
  8
0
 62
     7
 10
5.6049763756663671
 20
175.6192421171056139
 30
0.0
 40
3.9999999999998792
 50
269.8505958689929116
 51
89.8505958689928406
  0
LINE
  5
1135
  8
0
  6
CONTINUOUS
 62
     7
 10
37.5248845359757581
 20
175.0464095584246138
 30
0.0
 11
45.1806311199083481
 21
175.0464095584246138
 31
0.0
  0
LINE
  5
1136
  8
0
  6
CONTINUOUS
 62
     7
 10
116.912653837465399
 20
175.0474958247966981
 30
0.0
 11
115.1287747217424027
 21
175.046409558424898
 31
0.0
  0
CIRCLE
  5
1137
  8
0
  6
CONTINUOUS
 62
     7
 10
5.6154067398545768
 20
175.619228518020293
 30
0.0
 40
1.1999999999999991
  0
LINE
  5
1138
  8
0
 62
     7
 10
-36.2826253649701727
 20
129.9243273273214072
 30
0.0
 11
-39.8826253649701385
 21
129.9243273273220041
 31
0.0
  0
LINE
  5
1139
  8
0
 62
     7
 10
-28.8991125064219005
 20
137.8243273273216118
 30
0.0
 11
-28.8991125064218295
 21
129.9243273273216062
 31
0.0
  0
LINE
  5
113A
  8
0
 62
     7
 10
-32.4991125064218735
 20
129.9243273273220893
 30
0.0
 11
-32.4991125064219233
 21
137.8243273273216118
 31
0.0
  0
LINE
  5
113B
  8
0
 62
     7
 10
-32.4991125064219233
 20
137.8243273273216118
 30
0.0
 11
-28.8991125064219005
 21
137.8243273273216118
 31
0.0
  0
LINE
  5
113C
  8
0
 62
     7
 10
-28.8991125064218686
 20
129.9243273273214925
 30
0.0
 11
-32.4991125064218735
 21
129.9243273273220893
 31
0.0
  0
LINE
  5
113D
  8
0
 62
     7
 10
23.6008865102661609
 20
137.8243273273147054
 30
0.0
 11
23.6008865102661609
 21
129.9243273273148134
 31
0.0
  0
LINE
  5
113E
  8
0
 62
     7
 10
20.0008865102661701
 20
129.9243273273152965
 30
0.0
 11
20.00088651026606
 21
137.8243273273147054
 31
0.0
  0
LINE
  5
113F
  8
0
 62
     7
 10
20.00088651026606
 20
137.8243273273147054
 30
0.0
 11
23.6008865102661609
 21
137.8243273273147054
 31
0.0
  0
LINE
  5
1140
  8
0
 62
     7
 10
23.6008865102661609
 20
129.9243273273146997
 30
0.0
 11
20.0008865102661701
 21
129.9243273273152965
 31
0.0
  0
LINE
  5
1141
  8
0
 62
     7
 10
152.5655251732370061
 20
50.5606646603808088
 30
0.0
 11
110.3609719972334062
 21
50.5606646603799277
 31
0.0
  0
ARC
  5
1142
  8
0
 62
     7
 10
110.3609719972336052
 20
54.0636495905614183
 30
0.0
 40
3.502984930181527
 50
90.0
 51
270.0
  0
LINE
  5
1143
  8
0
 62
     7
 10
110.3609719972336052
 20
57.5666345207429231
 30
0.0
 11
152.5655251732308955
 21
57.5666345207429231
 31
0.0
  0
LINE
  5
1144
  8
0
 62
     7
 10
72.0042876635014437
 20
79.091814874286797
 30
0.0
 11
71.233450044843579
 21
75.5615241921527456
 31
0.0
  0
LINE
  5
1145
  8
0
 62
     7
 10
71.233450044843579
 20
75.5615241921527456
 30
0.0
 11
68.7242230535692613
 21
71.3697414588836239
 31
0.0
  0
ARC
  5
1146
  8
0
 62
     7
 10
88.8876952691459081
 20
59.2997626597499234
 30
0.0
 40
23.4999999999970193
 50
149.0950007532007078
 51
167.6828072039419055
  0
ARC
  5
1147
  8
0
 62
     7
 10
73.9155049983565533
 20
58.7018235490931204
 30
0.0
 40
8.9999999999998312
 50
167.6828072039419055
 51
212.7670473564056124
  0
LINE
  5
1148
  8
0
 62
     7
 10
66.3476028340695336
 20
53.830801394373033
 30
0.0
 11
67.1334776423494475
 21
52.6098207719223296
 31
0.0
  0
LINE
  5
1149
  8
0
 62
     7
 10
67.4656807136676235
 20
52.0936908380900192
 30
0.0
 11
67.1806247464879505
 21
50.0975363869427213
 31
0.0
  0
ARC
  5
114A
  8
0
 62
     7
 10
67.0392563437629576
 20
49.1075793299390213
 30
0.0
 40
0.999999999999979
 50
81.8729624498547253
 51
261.8729624498674866
  0
LINE
  5
114B
  8
0
 62
     7
 10
66.8978879410384053
 20
48.1176222729353071
 30
0.0
 11
66.8330066668985125
 21
47.663279761000922
 31
0.0
  0
ARC
  5
114C
  8
0
 62
     7
 10
66.6916382641737471
 20
46.6733227039977407
 30
0.0
 40
1.0000000000000091
 50
81.8729624498679556
 51
261.8729624498674866
  0
LINE
  5
114D
  8
0
 62
     7
 10
66.5502698614489532
 20
45.683365646993991
 30
0.0
 11
66.4853885873091883
 21
45.2290231350596272
 31
0.0
  0
ARC
  5
114E
  8
0
 62
     7
 10
66.344020184584295
 20
44.2390660780559273
 30
0.0
 40
1.0000000000000091
 50
81.8729624498679556
 51
261.8729624498674866
  0
LINE
  5
114F
  8
0
 62
     7
 10
66.2026517818596574
 20
43.2491090210527318
 30
0.0
 11
65.9175958146799559
 21
41.2529545699049223
 31
0.0
  0
LINE
  5
1150
  8
0
 62
     7
 10
65.9175958146799559
 20
41.2529545699049223
 30
0.0
 11
59.5697127190099707
 21
51.1153934364189126
 31
0.0
  0
ARC
  5
1151
  8
0
 62
     7
 10
73.0237610110759334
 20
59.7749883781434335
 30
0.0
 40
15.9999999999995808
 50
167.6828072039419055
 51
212.7670473564056124
  0
ARC
  5
1152
  8
0
 62
     7
 10
35.04856040054554
 20
71.0204762880997009
 30
0.0
 40
23.4999999999945217
 50
347.6828072039418203
 51
6.4063216948396189
  0
LINE
  5
1153
  8
0
 62
     7
 10
58.4018173355363786
 20
73.6425728782457156
 30
0.0
 11
57.8584535943038816
 21
78.4819495456994218
 31
0.0
  0
LINE
  5
1154
  8
0
 62
     7
 10
57.8584535943038816
 20
78.4819495456994218
 30
0.0
 11
58.6348212268072402
 21
82.0375666466255353
 31
0.0
  0
LINE
  5
1155
  8
0
 62
     7
 10
58.6348212268072402
 20
82.0375666466255353
 30
0.0
 11
57.9200537886476781
 21
81.894387103437424
 31
0.0
  0
ARC
  5
1156
  8
0
 62
     7
 10
57.3841677382193467
 20
84.5695870019850275
 30
0.0
 40
2.7283453513499301
 50
238.1544688151743117
 51
281.3273550871163025
  0
ARC
  5
1157
  8
0
 62
     7
 10
66.2976744224251604
 20
85.1830756743581219
 30
0.0
 40
10.75999999999995
 50
184.5578072039465098
 51
195.807807203949011
  0
ARC
  5
1158
  8
0
 62
     7
 10
57.7278421332183314
 20
82.6562309432001854
 30
0.0
 40
2.7283453513498741
 50
99.0382593207688586
 51
142.2111455927224881
  0
LINE
  5
1159
  8
0
 62
     7
 10
57.299235557434109
 20
85.3507002340675029
 30
0.0
 11
58.5316210259157472
 21
85.5467345765194409
 31
0.0
  0
ARC
  5
115A
  8
0
 62
     7
 10
58.4312206723430805
 20
86.1779093759236332
 30
0.0
 40
0.63911020833682
 50
279.0382593207684749
 51
352.7923363782884962
  0
ARC
  5
115B
  8
0
 62
     7
 10
66.2976744224251604
 20
85.1830756743581219
 30
0.0
 40
7.2900000000000009
 50
162.5732819118092038
 51
172.7923324960771936
  0
ARC
  5
115C
  8
0
 62
     7
 10
58.7325042287940065
 20
87.5577311519690227
 30
0.0
 40
0.6391102083368027
 50
342.5732780295991802
 51
56.3273550871213118
  0
LINE
  5
115D
  8
0
 62
     7
 10
59.0868570681563767
 20
88.0896107658253413
 30
0.0
 11
58.048348072364071
 21
88.7814940450022334
 31
0.0
  0
ARC
  5
115E
  8
0
 62
     7
 10
59.5610714014556777
 20
91.0520746944958148
 30
0.0
 40
2.7283453513499181
 50
193.154468815165302
 51
236.3273550871213047
  0
ARC
  5
115F
  8
0
 62
     7
 10
58.4511388526884375
 20
89.4561131552801214
 30
0.0
 40
2.7283453513499301
 50
54.0382593207662794
 51
97.2111455927101105
  0
LINE
  5
1160
  8
0
 62
     7
 10
60.0533457437613478
 20
91.664461278749755
 30
0.0
 11
61.0633910784537974
 21
90.9316503698440215
 31
0.0
  0
ARC
  5
1161
  8
0
 62
     7
 10
61.4387052883815272
 20
91.4489521214615309
 30
0.0
 40
0.6391102083368329
 50
234.0382593207662865
 51
307.7923363782937258
  0
ARC
  5
1162
  8
0
 62
     7
 10
66.2976744224251604
 20
85.1830756743581219
 30
0.0
 40
7.290000000000008
 50
117.5732819117893939
 51
127.7923324961013947
  0
ARC
  5
1163
  8
0
 62
     7
 10
62.6274262688784518
 20
92.2115938103053168
 30
0.0
 40
0.6391102083367681
 50
297.5732780296041824
 51
11.3273550871067297
  0
LINE
  5
1164
  8
0
 62
     7
 10
63.2540872462570718
 20
92.3371241963924092
 30
0.0
 11
63.008985851504427
 21
93.5606963081357321
 31
0.0
  0
ARC
  5
1165
  8
0
 62
     7
 10
65.6841857500521371
 20
94.0965823585638077
 30
0.0
 40
2.7283453513499221
 50
148.1544688151599019
 51
191.3273550871066959
  0
ARC
  5
1166
  8
0
 62
     7
 10
63.7708296912669326
 20
93.7529079635647236
 30
0.0
 40
2.7283453513499438
 50
9.0382593207556088
 51
52.2111455927097268
  0
LINE
  5
1167
  8
0
 62
     7
 10
66.4652989821341436
 20
94.1815145393492514
 30
0.0
 11
66.6613333245864794
 21
92.9491290708675137
 31
0.0
  0
ARC
  5
1168
  8
0
 62
     7
 10
67.2925081239903733
 20
93.0495294244406068
 30
0.0
 40
0.6391102083367992
 50
189.03825932078189
 51
262.7923363783016271
  0
ARC
  5
1169
  8
0
 62
     7
 10
66.2976744224251604
 20
85.1830756743581219
 30
0.0
 40
7.2899999999999929
 50
72.5732819117986736
 51
82.7923324960870417
  0
ARC
  5
116A
  8
0
 62
     7
 10
68.6723299000358054
 20
92.7482458679895103
 30
0.0
 40
0.6391102083368649
 50
252.5732780295957127
 51
326.3273550871048769
  0
LINE
  5
116B
  8
0
 62
     7
 10
69.204209513892323
 20
92.3938930286271329
 30
0.0
 11
69.8960927930688456
 21
93.4324020244193321
 31
0.0
  0
ARC
  5
116C
  8
0
 62
     7
 10
72.166673442562427
 20
91.9196786953277467
 30
0.0
 40
2.7283453513499301
 50
103.1544688151759033
 51
146.3273550871325028
  0
ARC
  5
116D
  8
0
 62
     7
 10
70.5707119033471315
 20
93.0296112440950083
 30
0.0
 40
2.7283453513498941
 50
324.0382593207825721
 51
7.2111455927231924
  0
LINE
  5
116E
  8
0
 62
     7
 10
72.7790600268165946
 20
91.4274043530223253
 30
0.0
 11
72.0462491179106053
 21
90.4173590183295346
 31
0.0
  0
ARC
  5
116F
  8
0
 62
     7
 10
72.563550869528143
 20
90.0420448084017266
 30
0.0
 40
0.6391102083367713
 50
144.0382593207804121
 51
217.7923363782857109
  0
ARC
  5
1170
  8
0
 62
     7
 10
66.2976744224251604
 20
85.1830756743581219
 30
0.0
 40
7.2899999999999521
 50
27.5732819117854113
 51
37.79233249610634
  0
ARC
  5
1171
  8
0
 62
     7
 10
73.326192558372199
 20
88.8533238279051147
 30
0.0
 40
0.6391102083367916
 50
207.5732780295863051
 51
281.3273550871163025
  0
LINE
  5
1172
  8
0
 62
     7
 10
73.4517229444593056
 20
88.2266628505265089
 30
0.0
 11
74.6752950562027706
 21
88.471764245278905
 31
0.0
  0
ARC
  5
1173
  8
0
 62
     7
 10
75.2111811066307325
 20
85.7965643467314294
 30
0.0
 40
2.7283453513498981
 50
58.1544688151743188
 51
101.3273550871163025
  0
ARC
  5
1174
  8
0
 62
     7
 10
74.8675067116317479
 20
87.7099204055166126
 30
0.0
 40
2.7283453513499221
 50
279.0382593207684749
 51
322.2111455927225165
  0
LINE
  5
1175
  8
0
 62
     7
 10
75.296113287416091
 20
85.0154511146489256
 30
0.0
 11
74.0637278189343249
 21
84.8194167721969166
 31
0.0
  0
ARC
  5
1176
  8
0
 62
     7
 10
74.1641281725071337
 20
84.1882419727927243
 30
0.0
 40
0.6391102083368537
 50
99.0382593207885407
 51
172.7923363782886099
  0
ARC
  5
1177
  8
0
 62
     7
 10
66.2976744224251604
 20
85.1830756743581219
 30
0.0
 40
7.2899999999999689
 50
342.5732819118092038
 51
352.792332496077222
  0
ARC
  5
1178
  8
0
 62
     7
 10
73.8628446160561793
 20
82.8084201967477043
 30
0.0
 40
0.6391102083368027
 50
162.5732780295990949
 51
236.3273550871213047
  0
LINE
  5
1179
  8
0
 62
     7
 10
73.5084917766938304
 20
82.2765405828911298
 30
0.0
 11
74.5470007724862569
 21
81.5846573037147351
 31
0.0
  0
ARC
  5
117A
  8
0
 62
     7
 10
66.2976744224251604
 20
85.1830756743581219
 30
0.0
 40
10.7599999999999199
 50
319.5578072039352833
 51
330.8078072039439803
  0
ARC
  5
117B
  8
0
  6
CONTINUOUS
 62
     7
 10
74.1677884434105579
 20
77.6817789466873307
 30
0.0
 40
0.5
 50
327.6426518691375236
 51
90.4184675453410449
  0
LINE
  5
117C
  8
0
 62
     7
 10
72.5420031010889659
 20
78.7016900699667019
 30
0.0
 11
72.0042876635014437
 21
79.091814874286797
 31
0.0
  0
LINE
  5
117D
  8
0
 62
     7
 10
57.3920553114137135
 20
63.1881653321179328
 30
0.0
 11
57.922298723070142
 21
65.6165799944601247
 31
0.0
  0
LINE
  5
117E
  8
0
 62
     7
 10
65.1226705422967314
 20
60.6217355857037319
 30
0.0
 11
65.5789799224390464
 21
62.7115463498584234
 31
0.0
  0
LINE
  5
117F
  8
0
 62
     7
 10
65.9286275227695597
 20
64.3128663108985279
 30
0.0
 11
65.5789799224390464
 21
62.7115463498584234
 31
0.0
  0
POLYLINE
  5
1180
  8
0
 62
     7
 66
     1
 10
0.0
 20
0.0
 30
0.0
 70
     1
  0
VERTEX
  5
14F3
  8
0
 62
     7
 10
48.8451755049153178
 20
71.053424221243489
 30
0.0
  0
VERTEX
  5
14F4
  8
0
 62
     7
 10
50.4367277730353578
 20
86.9032495003385179
 30
0.0
 42
1.098588436005099
  0
VERTEX
  5
14F5
  8
0
 62
     7
 10
43.4676909472803104
 20
86.9463964442857105
 30
0.0
  0
VERTEX
  5
14F6
  8
0
 62
     7
 10
44.8628687473410181
 20
71.0780796177848515
 30
0.0
 42
0.9102589898327998
  0
SEQEND
  5
14F7
  8
0
 62
     7
  0
ARC
  5
1181
  8
0
 62
     7
 10
53.8869955916674925
 20
81.6169962371614446
 30
0.0
 40
2.7283453476967261
 50
266.4503436617699776
 51
266.6736112920526125
  0
ARC
  5
1182
  8
0
 62
     7
 10
46.9542408201722026
 20
87.2529416837495262
 30
0.0
 40
10.7599999999999802
 50
309.020272903156922
 51
320.2702729031720992
  0
ARC
  5
1183
  8
0
 62
     7
 10
52.5039128763960079
 20
80.2509341267070226
 30
0.0
 40
2.7283453513497342
 50
2.6169345143777689
 51
45.7898207863356319
  0
LINE
  5
1184
  8
0
 62
     7
 10
54.4063675147824313
 20
82.2065758896873149
 30
0.0
 11
53.5119039933674401
 21
83.0767128991312092
 31
0.0
  0
ARC
  5
1185
  8
0
 62
     7
 10
53.9575507219565935
 20
83.5348186202243141
 30
0.0
 40
0.6391102083367926
 50
152.0357437287999005
 51
225.7898207863356106
  0
ARC
  5
1186
  8
0
 62
     7
 10
46.9542408201722026
 20
87.2529416837495262
 30
0.0
 40
7.2899999999999947
 50
332.0357476110124253
 51
342.2547981952948817
  0
ARC
  5
1187
  8
0
 62
     7
 10
54.5060944995500023
 20
84.8362715156837055
 30
0.0
 40
0.6391102083367639
 50
88.5007250199778355
 51
162.2548020775012105
  0
LINE
  5
1188
  8
0
 62
     7
 10
54.5228163699150414
 20
85.4751629285637051
 30
0.0
 11
55.7702687300449824
 21
85.4425130349632838
 31
0.0
  0
ARC
  5
1189
  8
0
 62
     7
 10
55.8416539726547114
 20
88.1699243540294191
 30
0.0
 40
2.728345351349998
 50
268.5007250199777786
 51
311.6736112919307971
  0
ARC
  5
118A
  8
0
 62
     7
 10
46.9542408201722026
 20
87.2529416837495262
 30
0.0
 40
10.7600000000000406
 50
354.0202729031577178
 51
5.2702729031553046
  0
ARC
  5
118B
  8
0
 62
     7
 10
55.8296185899938209
 20
86.2259854025627135
 30
0.0
 40
2.728345351349684
 50
47.6169345143779026
 51
90.7898207863296989
  0
LINE
  5
118C
  8
0
 62
     7
 10
55.792009613521337
 20
88.9540715304401317
 30
0.0
 11
54.5442486120659424
 21
88.9368700888633157
 31
0.0
  0
ARC
  5
118D
  8
0
 62
     7
 10
54.5354387739797204
 20
89.5759195745471288
 30
0.0
 40
0.6391102083367607
 50
197.035743728806608
 51
270.7898207863328821
  0
ARC
  5
118E
  8
0
 62
     7
 10
46.9542408201722026
 20
87.2529416837495262
 30
0.0
 40
7.2900000000000622
 50
17.0357476110218009
 51
27.2547981953081511
  0
ARC
  5
118F
  8
0
 62
     7
 10
54.0030516311192912
 20
90.8840647672353441
 30
0.0
 40
0.6391102083367742
 50
133.5007250199842019
 51
207.2548020775107034
  0
LINE
  5
1190
  8
0
 62
     7
 10
53.5631113285592875
 20
91.3476533656541108
 30
0.0
 11
54.4682803127841098
 21
92.2066484275393066
 31
0.0
  0
ARC
  5
1191
  8
0
 62
     7
 10
52.5901862631135018
 20
94.1856964554616951
 30
0.0
 40
2.728345351349827
 50
313.5007250199842019
 51
356.6736112919318771
  0
ARC
  5
1192
  8
0
 62
     7
 10
53.9562483772149122
 20
92.8026137399733244
 30
0.0
 40
2.7283453513497751
 50
92.616934514381029
 51
135.7898207863408118
  0
LINE
  5
1193
  8
0
 62
     7
 10
52.0006066142343215
 20
94.7050683783594991
 30
0.0
 11
51.1304696047905907
 21
93.8106048569444653
 31
0.0
  0
ARC
  5
1194
  8
0
 62
     7
 10
50.6723638836975567
 20
94.2562515855338177
 30
0.0
 40
0.6391102083368293
 50
242.0357437288116103
 51
315.7898207863407833
  0
ARC
  5
1195
  8
0
 62
     7
 10
46.9542408201722026
 20
87.2529416837495262
 30
0.0
 40
7.2900000000000862
 50
62.0357476110230905
 51
72.2547981953057246
  0
ARC
  5
1196
  8
0
 62
     7
 10
49.3709109882379167
 20
94.8047953631273259
 30
0.0
 40
0.6391102083367806
 50
178.5007250199778071
 51
252.2548020775149951
  0
LINE
  5
1197
  8
0
 62
     7
 10
48.7320195753580592
 20
94.8215172334926137
 30
0.0
 11
48.7646694689582034
 21
96.0689695936221995
 31
0.0
  0
ARC
  5
1198
  8
0
 62
     7
 10
46.0372581498921534
 20
96.140354836231765
 30
0.0
 40
2.7283453513500082
 50
358.5007250199777786
 51
41.6736112919380091
  0
ARC
  5
1199
  8
0
 62
     7
 10
47.9811971013595766
 20
96.1283194535709242
 30
0.0
 40
2.7283453513500682
 50
137.6169345143954956
 51
180.7898207863426876
  0
LINE
  5
119A
  8
0
 62
     7
 10
45.2531109734812418
 20
96.0907104770986962
 30
0.0
 11
45.2703124150585481
 21
94.8429494756430813
 31
0.0
  0
ARC
  5
119B
  8
0
 62
     7
 10
44.6312629293744507
 20
94.8341396375569161
 30
0.0
 40
0.639110208336796
 50
287.0357437288096207
 51
0.7898207863427177
  0
ARC
  5
119C
  8
0
 62
     7
 10
46.9542408201722026
 20
87.2529416837495262
 30
0.0
 40
7.2900000000001182
 50
107.0357476110182944
 51
117.2547981953106984
  0
ARC
  5
119D
  8
0
 62
     7
 10
43.3231177366861999
 20
94.3017524946969274
 30
0.0
 40
0.6391102083367893
 50
223.5007250199903126
 51
297.2548020775063833
  0
LINE
  5
119E
  8
0
 62
     7
 10
42.8595291382675114
 20
93.8618121921364548
 30
0.0
 11
42.0005340763823583
 21
94.7669811763614973
 31
0.0
  0
ARC
  5
119F
  8
0
 62
     7
 10
40.0214860484598418
 20
92.8888871266906051
 30
0.0
 40
2.728345351349899
 50
43.5007250199902913
 51
86.6736112919319197
  0
ARC
  5
11A0
  8
0
 62
     7
 10
41.4045687639486673
 20
94.2549492407922855
 30
0.0
 40
2.72834535134997
 50
182.6169345143810006
 51
225.7898207863356106
  0
LINE
  5
11A1
  8
0
 62
     7
 10
39.5021141255620378
 20
92.2993074778116664
 30
0.0
 11
40.3965776469770219
 21
91.4291704683677153
 31
0.0
  0
ARC
  5
11A2
  8
0
 62
     7
 10
39.9509309183877477
 20
90.9710647472745251
 30
0.0
 40
0.6391102083368355
 50
332.0357437288218989
 51
45.7898207863356319
  0
ARC
  5
11A3
  8
0
 62
     7
 10
46.9542408201722026
 20
87.2529416837495262
 30
0.0
 40
7.2900000000000649
 50
152.0357476110123116
 51
162.2547981952949101
  0
ARC
  5
11A4
  8
0
 62
     7
 10
39.4023871407944313
 20
89.669611851815219
 30
0.0
 40
0.6391102083367639
 50
268.5007250199777786
 51
342.2548020775012105
  0
LINE
  5
11A5
  8
0
 62
     7
 10
39.3856652704294277
 20
89.0307204389351341
 30
0.0
 11
38.1382129102994796
 21
89.0633703325354844
 31
0.0
  0
ARC
  5
11A6
  8
0
 62
     7
 10
38.0668276676897577
 20
86.3359590134695338
 30
0.0
 40
2.728345351349978
 50
88.5007250199778355
 51
131.6736112919302002
  0
ARC
  5
11A7
  8
0
 62
     7
 10
38.0788630503507619
 20
88.2798979649367084
 30
0.0
 40
2.728345351349855
 50
227.6169345143779026
 51
270.7898207863328821
  0
LINE
  5
11A8
  8
0
 62
     7
 10
38.1164720268227768
 20
85.5518118370587217
 30
0.0
 11
39.3642330282785196
 21
85.5690132786355946
 31
0.0
  0
ARC
  5
11A9
  8
0
 62
     7
 10
39.3730428663646066
 20
84.9299637929518099
 30
0.0
 40
0.6391102083368314
 50
17.0357437288032294
 51
90.7898207863296989
  0
ARC
  5
11AA
  8
0
 62
     7
 10
46.9542408201722026
 20
87.2529416837495262
 30
0.0
 40
7.2900000000000009
 50
197.0357476110218045
 51
207.2547981953082115
  0
ARC
  5
11AB
  8
0
 62
     7
 10
39.9054300092248297
 20
83.6218186002635093
 30
0.0
 40
0.6391102083368408
 50
313.5007250199842019
 51
27.2548020775106004
  0
LINE
  5
11AC
  8
0
 62
     7
 10
40.3453703117851603
 20
83.1582300018449132
 30
0.0
 11
39.4402013275603522
 21
82.2992349399595184
 31
0.0
  0
ARC
  5
11AD
  8
0
 62
     7
 10
41.3182953772309602
 20
80.3201869120371157
 30
0.0
 40
2.728345351349966
 50
133.5007250199842019
 51
176.6736112919286086
  0
ARC
  5
11AE
  8
0
 62
     7
 10
46.9542408201722026
 20
87.2529416837495262
 30
0.0
 40
10.7599999999999998
 50
219.0202729031562967
 51
229.9347255047275951
  0
LINE
  5
11AF
  8
0
 62
     7
 10
40.0284601647381635
 20
79.0181883594042347
 30
0.0
 11
40.0280287195977493
 21
78.9485019159238135
 31
0.0
  0
LINE
  5
11B0
  8
0
 62
     7
 10
40.0280287195977493
 20
78.9485019159238135
 30
0.0
 11
41.5565930683099225
 21
74.3083776063258199
 31
0.0
  0
ARC
  5
11B1
  8
0
 62
     7
 10
19.2364912054833006
 20
66.9556194277212171
 30
0.0
 40
23.4999999999997193
 50
359.6452729031465765
 51
18.233079353884019
  0
ARC
  5
11B2
  8
0
 62
     7
 10
33.7128226767143033
 20
63.0878242134049287
 30
0.0
 40
8.9999999999999734
 50
314.5610327506973931
 51
359.6452729031465765
  0
LINE
  5
11B3
  8
0
 62
     7
 10
40.0278404087012021
 20
56.6752934302669473
 30
0.0
 11
38.555929874703601
 21
55.225765710800232
 31
0.0
  0
LINE
  5
11B4
  8
0
 62
     7
 10
38.555929874703601
 20
55.225765710800232
 30
0.0
 11
38.3961499322608972
 21
53.215701068243618
 31
0.0
  0
ARC
  5
11B5
  8
0
 62
     7
 10
38.3169099308185324
 20
52.218845500886431
 30
0.0
 40
0.9999999999999994
 50
265.4551176572346094
 51
85.4551176572475555
  0
LINE
  5
11B6
  8
0
 62
     7
 10
38.2376699293755919
 20
51.2219899335291302
 30
0.0
 11
38.2013025929882417
 21
50.7644813382775908
 31
0.0
  0
ARC
  5
11B7
  8
0
 62
     7
 10
38.1220625915455287
 20
49.7676257709204606
 30
0.0
 40
1.0000000000000171
 50
265.4551176572346094
 51
85.4551176572345241
  0
LINE
  5
11B8
  8
0
 62
     7
 10
38.0428225901028014
 20
48.770770203563103
 30
0.0
 11
38.0064552537154796
 21
48.3132616083114996
 31
0.0
  0
ARC
  5
11B9
  8
0
 62
     7
 10
37.9272152522727666
 20
47.3164060409543126
 30
0.0
 40
1.0000000000000071
 50
265.4551176572346094
 51
85.4551176572345241
  0
LINE
  5
11BA
  8
0
 62
     7
 10
37.8479752508301672
 20
46.319550473596621
 30
0.0
 11
37.6881953083874635
 21
44.3094858310405186
 31
0.0
  0
LINE
  5
11BB
  8
0
 62
     7
 10
37.6881953083874635
 20
44.3094858310405186
 30
0.0
 11
46.0449620127428432
 21
52.5391741872903069
 31
0.0
  0
ARC
  5
11BC
  8
0
 62
     7
 10
34.8182638225435213
 20
63.9392289128685434
 30
0.0
 40
16.0000000000001386
 50
314.5610327506973931
 51
359.6452729031465765
  0
ARC
  5
11BD
  8
0
 62
     7
 10
74.3353720692960849
 20
66.5802543875441302
 30
0.0
 40
23.5000000000001599
 50
160.9217584122613118
 51
179.6452729031466049
  0
LINE
  5
11BE
  8
0
 62
     7
 10
52.1261540558376311
 20
74.2614414852963023
 30
0.0
 11
53.7178873940473167
 21
78.8637447852550935
 31
0.0
  0
LINE
  5
11BF
  8
0
 62
     7
 10
53.7178873940473167
 20
78.8637447852550935
 30
0.0
 11
53.718074000307837
 21
78.8938851795163316
 31
0.0
  0
LINE
  5
11C0
  8
0
 62
     7
 10
50.8179571802435106
 20
63.8401710531185174
 30
0.0
 11
50.8253420361504098
 21
66.7257456190571077
 31
0.0
  0
LINE
  5
11C1
  8
0
 62
     7
 10
42.7360408246046433
 20
66.8101281962132134
 30
0.0
 11
42.7255837307592685
 21
65.1211123487256032
 31
0.0
  0
LINE
  5
11C2
  8
0
 62
     7
 10
42.7126501904205327
 20
63.0321041672953015
 30
0.0
 11
42.7227977284539122
 21
64.6711209730401322
 31
0.0
  0
CIRCLE
  5
11C3
  8
0
  6
CONTINUOUS
 62
     7
 10
66.2976744224251604
 20
85.1830756743581219
 30
0.0
 40
1.1999999999999991
  0
LINE
  5
11C4
  8
0
  6
CONTINUOUS
 62
     7
 10
63.0262175282263399
 20
8.2991982169635605
 30
0.0
 11
53.526217528226347
 21
8.2991982169640863
 31
0.0
  0
ARC
  5
11C5
  8
0
  6
CONTINUOUS
 62
     7
 10
63.0262175282264394
 20
8.7991982169635605
 30
0.0
 40
0.5
 50
269.9999999999902229
 51
359.9999999999935199
  0
LINE
  5
11C6
  8
0
  6
CONTINUOUS
 62
     7
 10
53.0262175282265602
 20
13.2991982169641094
 30
0.0
 11
49.0262175282265602
 21
13.2991982169641094
 31
0.0
  0
ARC
  5
11C7
  8
0
  6
CONTINUOUS
 62
     7
 10
49.9339570102452086
 20
19.1099861499507107
 30
0.0
 40
0.5
 50
306.7116899580677227
 51
73.2684874787268825
  0
LINE
  5
11C8
  8
0
  6
CONTINUOUS
 62
     7
 10
63.5262175282265602
 20
15.2991982169637204
 30
0.0
 11
63.5262175282265602
 21
13.2991982169637097
 31
0.0
  0
LINE
  5
11C9
  8
0
  6
CONTINUOUS
 62
     7
 10
70.5262175282265531
 20
13.2991982169636191
 30
0.0
 11
74.2262175282265986
 21
13.2991982169635197
 31
0.0
  0
ARC
  5
11CA
  8
0
  6
CONTINUOUS
 62
     7
 10
74.2262175282265986
 20
13.7991982169635197
 30
0.0
 40
0.5
 50
269.9999999999968168
 51
359.9999999999968168
  0
LINE
  5
11CB
  8
0
  6
CONTINUOUS
 62
     7
 10
74.7262175282265986
 20
13.7991982169635197
 30
0.0
 11
74.7262175282267265
 21
16.3041982169633997
 31
0.0
  0
ARC
  5
11CC
  8
0
  6
CONTINUOUS
 62
     7
 10
71.7262175282267265
 20
16.3041982169635098
 30
0.0
 40
3.0
 50
359.9999999999935199
 51
89.9999999999967457
  0
LINE
  5
11CD
  8
0
  6
CONTINUOUS
 62
     7
 10
56.4844276215136105
 20
29.63589381046555
 30
0.0
 11
56.4826962393572813
 21
28.1408948130358105
 31
0.0
  0
LINE
  5
11CE
  8
0
  6
CONTINUOUS
 62
     7
 10
56.4826962393572813
 20
28.1408948130358105
 30
0.0
 11
60.4826935568949793
 21
28.1362623524169209
 31
0.0
  0
LINE
  5
11CF
  8
0
  6
CONTINUOUS
 62
     7
 10
43.9827046220519975
 20
28.1553712524698199
 30
0.0
 11
45.9827032808209069
 21
28.1530550221604088
 31
0.0
  0
ARC
  5
11D0
  8
0
  6
CONTINUOUS
 62
     7
 10
43.9832836796293876
 20
28.65537091716212
 30
0.0
 40
0.5
 50
179.933644874610394
 51
269.9336448746104793
  0
LINE
  5
11D1
  8
0
  6
CONTINUOUS
 62
     7
 10
34.7798097132527175
 20
25.6610275917853308
 30
0.0
 11
34.7792306556754269
 21
25.1610279270932011
 31
0.0
  0
ARC
  5
11D2
  8
0
  6
CONTINUOUS
 62
     7
 10
37.7792286438285672
 20
25.1575535816290206
 30
0.0
 40
3.0
 50
179.9336448746072108
 51
269.9336448746104793
  0
LINE
  5
11D3
  8
0
  6
CONTINUOUS
 62
     7
 10
52.0262175282267876
 20
19.3041982169637087
 30
0.0
 11
54.1808744678511687
 21
19.3041982169636306
 31
0.0
  0
LINE
  5
11D4
  8
0
  6
CONTINUOUS
 62
     7
 10
53.0262175282264394
 20
11.8041982169641209
 30
0.0
 11
53.0262175282265602
 21
13.2991982169641094
 31
0.0
  0
LINE
  5
11D5
  8
0
  6
CONTINUOUS
 62
     7
 10
63.5262175282264607
 20
10.2991982169636191
 30
0.0
 11
65.5262175282264394
 21
10.2991982169635197
 31
0.0
  0
LINE
  5
11D6
  8
0
  6
CONTINUOUS
 62
     7
 10
66.0262175282264536
 20
10.7991982169635197
 30
0.0
 11
66.0262175282265531
 21
12.4491982169636195
 31
0.0
  0
ARC
  5
11D7
  8
0
  6
CONTINUOUS
 62
     7
 10
65.5262175282264394
 20
10.7991982169635197
 30
0.0
 40
0.5
 50
269.9999999999968168
 51
359.9999999999968168
  0
LINE
  5
11D8
  8
0
  6
CONTINUOUS
 62
     7
 10
65.5262175282265531
 20
13.2991982169637097
 30
0.0
 11
63.5262175282265602
 21
13.2991982169637097
 31
0.0
  0
ARC
  5
11D9
  8
0
  6
CONTINUOUS
 62
     7
 10
65.5262175282265531
 20
12.7991982169636191
 30
0.0
 40
0.5
 50
359.9999999999968168
 51
89.9999999999967457
  0
LINE
  5
11DA
  8
0
  6
CONTINUOUS
 62
     7
 10
45.9913891444813032
 20
35.653049992543508
 30
0.0
 11
43.9913904857125075
 21
35.6553662228529902
 31
0.0
  0
LINE
  5
11DB
  8
0
  6
CONTINUOUS
 62
     7
 10
43.4904064231388006
 20
34.805945850453611
 30
0.0
 11
43.4832840149371194
 21
28.6559499747394106
 31
0.0
  0
ARC
  5
11DC
  8
0
  6
CONTINUOUS
 62
     7
 10
43.9908114281351033
 20
35.1553665581608428
 30
0.0
 40
0.5
 50
89.9336448746104793
 51
179.933644874610394
  0
CIRCLE
  5
11DD
  8
0
 62
     7
 10
58.2739925447337086
 20
18.026698216963819
 30
0.0
 40
1.075000000000023
  0
CIRCLE
  5
11DE
  8
0
 62
     7
 10
68.7410191684707286
 20
33.3992017897827012
 30
0.0
 40
1.075000000000023
  0
LINE
  5
11DF
  8
0
  6
CONTINUOUS
 62
     7
 10
45.9803812217019967
 20
26.1480233530462307
 30
0.0
 11
45.9827032808209069
 21
28.1530550221604088
 31
0.0
  0
LINE
  5
11E0
  8
0
  6
CONTINUOUS
 62
     7
 10
70.5262175282265531
 20
19.3041982169635098
 30
0.0
 11
71.7262175282267265
 21
19.3041982169635098
 31
0.0
  0
CIRCLE
  5
11E1
  8
0
 62
     7
 10
51.2294497526961266
 20
23.4194755111461212
 30
0.0
 40
1.075000000000023
  0
LINE
  5
11E2
  8
0
  6
CONTINUOUS
 62
     7
 10
38.9757534936259518
 20
22.1561658552900305
 30
0.0
 11
37.7757542983644328
 21
22.1575555934757489
 31
0.0
  0
LINE
  5
11E3
  8
0
  6
CONTINUOUS
 62
     7
 10
63.5262175282265602
 20
15.2991982169637204
 30
0.0
 11
69.5257175284765623
 21
15.3036977169637094
 31
0.0
  0
ARC
  5
11E4
  8
0
  6
CONTINUOUS
 62
     7
 10
69.5262175282265673
 20
14.8036979669635205
 30
0.0
 40
0.5
 50
359.9999999999968168
 51
90.0572957604101845
  0
LINE
  5
11E5
  8
0
  6
CONTINUOUS
 62
     7
 10
70.0262175282265673
 20
13.7991982169636103
 30
0.0
 11
70.0262175282265673
 21
14.8036979669635205
 31
0.0
  0
ARC
  5
11E6
  8
0
  6
CONTINUOUS
 62
     7
 10
70.5262175282265531
 20
13.7991982169636103
 30
0.0
 40
0.5
 50
179.9999999999967031
 51
269.9999999999968168
  0
LINE
  5
11E7
  8
0
  6
CONTINUOUS
 62
     7
 10
38.9827021463205767
 20
28.1561288178980185
 30
0.0
 11
35.2827046275980578
 21
28.1604138439705203
 31
0.0
  0
ARC
  5
11E8
  8
0
  6
CONTINUOUS
 62
     7
 10
35.2821255700206677
 20
27.6604141792783516
 30
0.0
 40
0.5
 50
89.9336448746104793
 51
179.933644874610394
  0
LINE
  5
11E9
  8
0
  6
CONTINUOUS
 62
     7
 10
34.7821259053285203
 20
27.6609932368558198
 30
0.0
 11
34.7792248268658923
 21
25.155994916747801
 31
0.0
  0
LINE
  5
11EA
  8
0
  6
CONTINUOUS
 62
     7
 10
45.9803812217019967
 20
26.1480233530462307
 30
0.0
 11
39.9808782966984211
 21
26.1489719689403195
 31
0.0
  0
ARC
  5
11EB
  8
0
  6
CONTINUOUS
 62
     7
 10
39.9809590917442677
 20
26.65047196168452
 30
0.0
 40
0.5
 50
179.933644874610394
 51
269.9909406350229233
  0
LINE
  5
11EC
  8
0
  6
CONTINUOUS
 62
     7
 10
39.4821227534354477
 20
27.6555500956285307
 30
0.0
 11
39.4809594270519995
 21
26.6510510192617289
 31
0.0
  0
ARC
  5
11ED
  8
0
  6
CONTINUOUS
 62
     7
 10
38.9821230887431867
 20
27.6561291532059315
 30
0.0
 40
0.5
 50
359.9336448746104793
 51
89.9336448746104793
  0
LINE
  5
11EE
  8
0
  6
CONTINUOUS
 62
     7
 10
53.0262175282265602
 20
13.2991982169641094
 30
0.0
 11
53.0262175282264394
 21
10.3042312306846107
 31
0.0
  0
LINE
  5
11EF
  8
0
  6
CONTINUOUS
 62
     7
 10
63.5262175282264607
 20
10.2991982169636191
 30
0.0
 11
63.5262175282264607
 21
8.7991982169635037
 31
0.0
  0
LINE
  5
11F0
  8
0
  6
CONTINUOUS
 62
     7
 10
53.6884886928543921
 20
33.1441341823912197
 30
0.0
 11
55.9884871504386368
 21
33.1414705175353106
 31
0.0
  0
LINE
  5
11F1
  8
0
  6
CONTINUOUS
 62
     7
 10
56.486164756012009
 20
31.1358597908434298
 30
0.0
 11
56.4826962393572813
 21
28.1408948130358105
 31
0.0
  0
LINE
  5
11F2
  8
0
 62
     7
 10
53.6884886928543921
 20
33.1441341823912197
 30
0.0
 11
53.7025018862265924
 21
45.2441260679427089
 31
0.0
  0
LINE
  5
11F3
  8
0
 62
     7
 10
53.7025018862265924
 20
45.2441260679427089
 30
0.0
 11
56.0025003438108513
 21
45.2414624030868069
 31
0.0
  0
ARC
  5
11F4
  8
0
 62
     7
 10
56.0030794013882414
 20
45.7414620677790325
 30
0.0
 40
0.5
 50
269.9336448746104793
 51
359.9336448746104793
  0
LINE
  5
11F5
  8
0
 62
     7
 10
56.503079066080403
 20
45.7408830102017134
 30
0.0
 11
56.5077115266993601
 21
49.740880327739319
 31
0.0
  0
ARC
  5
11F6
  8
0
 62
     7
 10
56.007711862007092
 20
49.7414593853167091
 30
0.0
 40
0.5
 50
359.9336448746104793
 51
89.9336448746104793
  0
LINE
  5
11F7
  8
0
 62
     7
 10
56.008290919584482
 20
50.2414590500089204
 30
0.0
 11
46.5082972904324023
 21
50.2524611439786995
 31
0.0
  0
ARC
  5
11F8
  8
0
 62
     7
 10
46.5077182328550123
 20
49.7524614792865165
 30
0.0
 40
0.5
 50
89.9336448746104793
 51
179.933644874610394
  0
LINE
  5
11F9
  8
0
 62
     7
 10
46.0077185681628578
 20
49.7530405368639208
 30
0.0
 11
45.997237626012712
 21
40.7030466059350076
 31
0.0
  0
LINE
  5
11FA
  8
0
 62
     7
 10
53.0262175282264394
 20
10.3042312306846107
 30
0.0
 11
51.0262175282264323
 21
10.3042312306847208
 31
0.0
  0
LINE
  5
11FB
  8
0
 62
     7
 10
50.5262175282264394
 20
9.8042312306847208
 30
0.0
 11
50.5262175282264394
 21
8.7991982169642569
 31
0.0
  0
ARC
  5
11FC
  8
0
 62
     7
 10
51.0262175282264323
 20
9.8042312306847208
 30
0.0
 40
0.5
 50
89.9999999999967457
 51
179.9999999999967031
  0
ARC
  5
11FD
  8
0
 62
     7
 10
51.0262175282264323
 20
8.7991982169642569
 30
0.0
 40
0.5
 50
179.9999999999967031
 51
269.9999999999968168
  0
LINE
  5
11FE
  8
0
 62
     7
 10
51.026217528226347
 20
8.2991982169642569
 30
0.0
 11
53.526217528226347
 21
8.2991982169640011
 31
0.0
  0
LINE
  5
11FF
  8
0
  6
CONTINUOUS
 62
     7
 10
45.9937632805484427
 20
37.7030486177817181
 30
0.0
 11
45.9913891444813032
 21
35.653049992543508
 31
0.0
  0
LINE
  5
1200
  8
0
  6
CONTINUOUS
 62
     7
 10
45.9937632805484427
 20
37.7030486177817181
 30
0.0
 11
47.9937619393172881
 21
37.7007323874722076
 31
0.0
  0
LINE
  5
1201
  8
0
  6
CONTINUOUS
 62
     7
 10
47.9937619393172881
 20
37.7007323874722076
 30
0.0
 11
47.9972362847815717
 21
40.7007303756255325
 31
0.0
  0
LINE
  5
1202
  8
0
  6
CONTINUOUS
 62
     7
 10
47.9972362847815717
 20
40.7007303756255325
 30
0.0
 11
45.997237626012712
 21
40.7030466059350076
 31
0.0
  0
LINE
  5
1203
  8
0
  6
CONTINUOUS
 62
     7
 10
49.0262175282265673
 20
13.7991982169642
 30
0.0
 11
49.0262175282266668
 21
16.3041982169639184
 31
0.0
  0
POLYLINE
  5
1204
  8
0
 62
     7
 66
     1
 10
0.0
 20
0.0
 30
0.0
 70
     1
  0
VERTEX
  5
14F8
  8
0
 62
     7
 10
309.8930841787434929
 20
73.356092698897271
 30
0.0
  0
VERTEX
  5
14F9
  8
0
 62
     7
 10
309.893084178743095
 20
63.3560926988973634
 30
0.0
  0
VERTEX
  5
14FA
  8
0
 62
     7
 10
313.4930841787432882
 20
63.3560926988973634
 30
0.0
  0
VERTEX
  5
14FB
  8
0
 62
     7
 10
313.4930841787435156
 20
73.3560926988970436
 30
0.0
  0
SEQEND
  5
14FC
  8
0
 62
     7
  0
CIRCLE
  5
1205
  8
0
 62
     7
 10
311.6930841787440158
 20
90.4310926988968333
 30
0.0
 40
1.0750000000000131
  0
LINE
  5
1206
  8
0
 62
     7
 10
317.681176186257801
 20
10.8089208471137503
 30
0.0
 11
316.4430841787423105
 21
30.4310926988959487
 31
0.0
  0
LINE
  5
1207
  8
0
 62
     7
 10
306.9430841787423105
 20
30.4310926988961512
 30
0.0
 11
305.7049921712255127
 21
10.8089208471140505
 31
0.0
  0
POLYLINE
  5
1208
  8
0
 62
     7
 66
     1
 10
0.0
 20
0.0
 30
0.0
 70
     1
  0
VERTEX
  5
14FD
  8
0
 62
     7
 10
31.0067156988801891
 20
78.1748126975015936
 30
0.0
  0
VERTEX
  5
14FE
  8
0
 62
     7
 10
32.5001093540741195
 20
94.0341876975015083
 30
0.0
 42
1.098588436005103
  0
VERTEX
  5
14FF
  8
0
 62
     7
 10
25.5309389631667187
 20
94.0341876975012099
 30
0.0
  0
VERTEX
  5
1500
  8
0
 62
     7
 10
27.0243326183617896
 20
78.1748126975012951
 30
0.0
 42
0.9102589898328064
  0
SEQEND
  5
1501
  8
0
 62
     7
  0
CIRCLE
  5
1209
  8
0
 62
     7
 10
29.0155241586237196
 20
14.3623126975019293
 30
0.0
 40
1.0749999999999971
  0
LINE
  5
120A
  8
0
 62
     7
 10
23.0274321511040299
 20
93.984484549283323
 30
0.0
 11
24.2655241586210515
 21
74.3623126975015225
 31
0.0
  0
LINE
  5
120B
  8
0
 62
     7
 10
33.7655241586212824
 20
74.3623126975019204
 30
0.0
 11
35.0036161661365881
 21
93.9844845492836498
 31
0.0
  0
LINE
  5
120C
  8
0
 62
     7
 10
306.9430841787439022
 20
90.4310926988968333
 30
0.0
 11
306.943084178742879
 21
60.9810926988965889
 31
0.0
  0
LINE
  5
120D
  8
0
 62
     7
 10
306.9430841787423105
 20
30.4310926988961512
 30
0.0
 11
306.9430841787423105
 21
60.4310926988963217
 31
0.0
  0
LINE
  5
120E
  8
0
 62
     7
 10
316.4430841787440158
 20
90.431092698896606
 30
0.0
 11
316.4430841787423105
 21
30.4310926988959487
 31
0.0
  0
LINE
  5
120F
  8
0
 62
     7
 10
33.7655241586212824
 20
74.3623126975019204
 30
0.0
 11
33.7655241586206003
 21
44.6623126975015268
 31
0.0
  0
LINE
  5
1210
  8
0
 62
     7
 10
24.2655241586234993
 20
14.3623126975018192
 30
0.0
 11
24.2655241586210515
 21
74.3623126975015225
 31
0.0
  0
LINE
  5
1211
  8
0
 62
     7
 10
33.7655241586237267
 20
14.36231269750213
 30
0.0
 11
33.7655241586226396
 21
44.112312697502432
 31
0.0
  0
CIRCLE
  5
1212
  8
0
  6
CONTINUOUS
 62
     7
 10
311.6930841787416284
 20
10.4310926988956503
 30
0.0
 40
1.1999999999999991
  0
POLYLINE
  5
1213
  8
0
 62
     7
 66
     1
 10
0.0
 20
0.0
 30
0.0
 70
     1
  0
VERTEX
  5
1502
  8
0
 62
     7
 10
30.8155241586224804
 20
31.4373126975015111
 30
0.0
  0
VERTEX
  5
1503
  8
0
 62
     7
 10
30.8155241586228215
 20
41.4373126975013122
 30
0.0
  0
VERTEX
  5
1504
  8
0
 62
     7
 10
27.2155241586226815
 20
41.4373126975014969
 30
0.0
  0
VERTEX
  5
1505
  8
0
 62
     7
 10
27.2155241586224506
 20
31.4373126975016213
 30
0.0
  0
SEQEND
  5
1506
  8
0
 62
     7
  0
POLYLINE
  5
1214
  8
0
 62
     7
 66
     1
 10
0.0
 20
0.0
 30
0.0
 70
     1
  0
VERTEX
  5
1507
  8
0
 62
     7
 10
30.8155241586220292
 20
59.4373126975011132
 30
0.0
  0
VERTEX
  5
1508
  8
0
 62
     7
 10
30.8155241586222388
 20
69.4373126975009427
 30
0.0
  0
VERTEX
  5
1509
  8
0
 62
     7
 10
27.2155241586222409
 20
69.4373126975009427
 30
0.0
  0
VERTEX
  5
150A
  8
0
 62
     7
 10
27.21552415862201
 20
59.4373126975011132
 30
0.0
  0
SEQEND
  5
150B
  8
0
 62
     7
  0
POLYLINE
  5
1215
  8
0
 62
     7
 66
     1
 10
0.0
 20
0.0
 30
0.0
 70
     1
  0
VERTEX
  5
150C
  8
0
 62
     7
 10
309.8930841787426971
 20
45.3560926988976334
 30
0.0
  0
VERTEX
  5
150D
  8
0
 62
     7
 10
309.8930841787425265
 20
35.3560926988978395
 30
0.0
  0
VERTEX
  5
150E
  8
0
 62
     7
 10
313.4930841787424924
 20
35.3560926988978395
 30
0.0
  0
VERTEX
  5
150F
  8
0
 62
     7
 10
313.4930841787427198
 20
45.3560926988975481
 30
0.0
  0
SEQEND
  5
1510
  8
0
 62
     7
  0
LINE
  5
1216
  8
0
  6
CONTINUOUS
 62
     7
 10
29.0155241586224086
 20
49.2373126975018067
 30
0.0
 11
28.4155241586223895
 21
49.2373126975018067
 31
0.0
  0
LINE
  5
1217
  8
0
  6
CONTINUOUS
 62
     7
 10
27.2155241586223404
 20
50.4373126975018167
 30
0.0
 11
27.2155241586223404
 21
50.4373126975018167
 31
0.0
  0
ARC
  5
1218
  8
0
  6
CONTINUOUS
 62
     7
 10
28.4155241586223895
 20
50.4373126975018167
 30
0.0
 40
1.1999999999999991
 50
90.0
 51
180.0
  0
ARC
  5
1219
  8
0
  6
CONTINUOUS
 62
     7
 10
28.4155241586223895
 20
50.4373126975018167
 30
0.0
 40
1.1999999999999991
 50
180.0
 51
270.0
  0
LINE
  5
121A
  8
0
  6
CONTINUOUS
 62
     7
 10
28.4155241586223895
 20
51.6373126975018124
 30
0.0
 11
29.6155241586224314
 21
51.6373126975018124
 31
0.0
  0
ARC
  5
121B
  8
0
  6
CONTINUOUS
 62
     7
 10
29.6155241586224314
 20
50.4373126975018167
 30
0.0
 40
1.1999999999999991
 50
0.0
 51
90.0
  0
LINE
  5
121C
  8
0
  6
CONTINUOUS
 62
     7
 10
30.8155241586223703
 20
50.4373126975018167
 30
0.0
 11
30.8155241586223703
 21
50.4373126975018167
 31
0.0
  0
ARC
  5
121D
  8
0
  6
CONTINUOUS
 62
     7
 10
29.6155241586224314
 20
50.4373126975018167
 30
0.0
 40
1.1999999999999991
 50
270.0
 51
0.0
  0
LINE
  5
121E
  8
0
  6
CONTINUOUS
 62
     7
 10
29.6155241586224314
 20
49.2373126975018067
 30
0.0
 11
29.0155241586224086
 21
49.2373126975018067
 31
0.0
  0
LINE
  5
121F
  8
0
  6
CONTINUOUS
 62
     7
 10
311.6930841787429927
 20
55.5560926988975368
 30
0.0
 11
312.2930841787430154
 21
55.5560926988975368
 31
0.0
  0
LINE
  5
1220
  8
0
  6
CONTINUOUS
 62
     7
 10
313.493084178743004
 20
54.35609269889747
 30
0.0
 11
313.493084178743004
 21
54.35609269889747
 31
0.0
  0
ARC
  5
1221
  8
0
  6
CONTINUOUS
 62
     7
 10
312.2930841787430154
 20
54.35609269889747
 30
0.0
 40
1.1999999999999991
 50
0.0
 51
90.0
  0
LINE
  5
1222
  8
0
  6
CONTINUOUS
 62
     7
 10
312.2930841787430154
 20
53.1560926988975382
 30
0.0
 11
311.0930841787430268
 21
53.1560926988975382
 31
0.0
  0
ARC
  5
1223
  8
0
  6
CONTINUOUS
 62
     7
 10
311.0930841787430268
 20
54.35609269889747
 30
0.0
 40
1.1999999999999991
 50
180.0
 51
270.0
  0
ARC
  5
1224
  8
0
  6
CONTINUOUS
 62
     7
 10
312.2930841787430154
 20
54.35609269889747
 30
0.0
 40
1.1999999999999991
 50
270.0
 51
0.0
  0
LINE
  5
1225
  8
0
  6
CONTINUOUS
 62
     7
 10
309.8930841787429245
 20
54.35609269889747
 30
0.0
 11
309.8930841787429245
 21
54.35609269889747
 31
0.0
  0
ARC
  5
1226
  8
0
  6
CONTINUOUS
 62
     7
 10
311.0930841787430268
 20
54.35609269889747
 30
0.0
 40
1.1999999999999991
 50
90.0
 51
180.0
  0
LINE
  5
1227
  8
0
  6
CONTINUOUS
 62
     7
 10
311.0930841787430268
 20
55.5560926988975368
 30
0.0
 11
311.693084178742879
 21
55.5560926988975368
 31
0.0
  0
ARC
  5
1228
  8
0
  6
CONTINUOUS
 62
     7
 10
70.2106498260810383
 20
88.3373906568297542
 30
0.0
 40
10.0
 50
320.0820426096735787
 51
0.0
  0
ARC
  5
1229
  8
0
  6
CONTINUOUS
 62
     7
 10
70.2106498260809246
 20
21.1528567718126084
 30
0.0
 40
10.0
 50
0.0
 51
39.9179573903263716
  0
ARC
  5
122E
  8
0
  6
CONTINUOUS
 62
     7
 10
142.7106498260810099
 20
91.5636495905613401
 30
0.0
 40
10.0
 50
0.0
 51
90.0
  0
ARC
  5
122F
  8
0
  6
CONTINUOUS
 62
     7
 10
142.710649826080811
 20
16.5636495905615213
 30
0.0
 40
10.0
 50
270.0
 51
0.0
  0
LINE
  5
1230
  8
0
  6
CONTINUOUS
 62
     7
 10
90.2106498260809815
 20
101.563649590561397
 30
0.0
 11
142.7106498260810099
 21
101.563649590561397
 31
0.0
  0
CIRCLE
  5
1231
  8
0
 62
     7
 10
110.3609719972336052
 20
79.0636495905614254
 30
0.0
 40
1.0749999999999971
  0
CIRCLE
  5
1232
  8
0
 62
     7
 10
110.3609719972336052
 20
29.0636495905615391
 30
0.0
 40
1.0749999999999971
  0
LINE
  5
1233
  8
0
  6
CONTINUOUS
 62
     7
 10
80.2106498260809246
 20
16.5636495905615213
 30
0.0
 11
80.2106498260809246
 21
20.562856771812541
 31
0.0
  0
LINE
  5
1236
  8
0
  6
CONTINUOUS
 62
     7
 10
80.2106498260810383
 20
91.313649590561397
 30
0.0
 11
80.2106498260810383
 21
88.8312511236060232
 31
0.0
  0
ARC
  5
1237
  8
0
  6
CONTINUOUS
 62
     7
 10
73.2409550978497634
 20
33.3412728801323013
 30
0.0
 40
0.5
 50
29.9624315304845688
 51
179.933644874610394
  0
LINE
  5
1238
  8
0
  6
CONTINUOUS
 62
     7
 10
62.4098492576370418
 20
19.3041982169636306
 30
0.0
 11
70.5262175282265531
 21
19.3041982169635098
 31
0.0
  0
LINE
  5
1239
  8
0
 62
     7
 10
56.486164756012009
 20
31.1358597908434298
 30
0.0
 11
58.4861634147808616
 21
31.1335435605340116
 31
0.0
  0
LINE
  5
123A
  8
0
 62
     7
 10
58.9867421370504132
 20
31.6329641676488187
 30
0.0
 11
58.9879060810146427
 21
32.6379965073785172
 31
0.0
  0
ARC
  5
123B
  8
0
 62
     7
 10
58.4867424723581379
 20
31.633543225226191
 30
0.0
 40
0.5
 50
269.9336448746104793
 51
359.9336448746104793
  0
ARC
  5
123C
  8
0
 62
     7
 10
58.4879064163223603
 20
32.6385755649558007
 30
0.0
 40
0.5
 50
359.9336448746104793
 51
89.9336448746104793
  0
LINE
  5
123D
  8
0
 62
     7
 10
58.4884854738997717
 20
33.1385752296480973
 30
0.0
 11
55.9884871504387718
 21
33.1414705175351401
 31
0.0
  0
LINE
  5
123E
  8
0
  6
CONTINUOUS
 62
     7
 10
56.4826962393572813
 20
28.1408948130358105
 30
0.0
 11
60.7349183712420526
 21
28.1359702468412287
 31
0.0
  0
ARC
  5
123F
  8
0
  6
CONTINUOUS
 62
     7
 10
68.7410191684707286
 20
33.3992017897827012
 30
0.0
 40
4.0
 50
89.9336448746104793
 51
179.933644874610394
  0
LINE
  5
1240
  8
0
  6
CONTINUOUS
 62
     7
 10
64.7410218509330377
 20
33.4038342504015304
 30
0.0
 11
64.7395481493986722
 21
32.1313351037599091
 31
0.0
  0
ARC
  5
1241
  8
0
  6
CONTINUOUS
 62
     7
 10
60.7395508318610098
 20
32.1359675643788023
 30
0.0
 40
4.0
 50
269.9336448746104793
 51
359.9336448746104793
  0
ARC
  5
1242
  8
0
  6
CONTINUOUS
 62
     7
 10
68.7326090654916868
 20
26.1373182847157395
 30
0.0
 40
4.0
 50
269.9336448746104793
 51
359.9336448746104793
  0
LINE
  5
1243
  8
0
  6
CONTINUOUS
 62
     7
 10
47.0915931345793695
 20
22.1514934434509989
 30
0.0
 11
38.9757534936259518
 21
22.1561658552900305
 31
0.0
  0
ARC
  5
1244
  8
0
  6
CONTINUOUS
 62
     7
 10
47.0913052770518732
 20
21.6514935263130113
 30
0.0
 40
0.5
 50
23.1341249209311002
 51
89.9670139553278574
  0
ARC
  5
1245
  8
0
  6
CONTINUOUS
 62
     7
 10
55.3622823896029885
 20
21.6391119540834005
 30
0.0
 40
0.5
 50
89.9923224154469352
 51
156.6943327587572128
  0
ARC
  5
1246
  8
0
  6
CONTINUOUS
 62
     7
 10
60.9699738514661504
 20
21.6383605283073202
 30
0.0
 40
0.5
 50
89.9923224154469352
 51
233.2513049128575062
  0
ARC
  5
1247
  8
0
  6
CONTINUOUS
 62
     7
 10
62.4098492576370418
 20
19.8041982169636306
 30
0.0
 40
0.5
 50
203.014764113656895
 51
270.0
  0
ARC
  5
1248
  8
0
  6
CONTINUOUS
 62
     7
 10
54.1808744678512824
 20
19.8041982169636306
 30
0.0
 40
0.5
 50
269.9999999999968168
 51
336.985235886343105
  0
ARC
  5
1249
  8
0
 62
     7
 10
311.6930841787416284
 20
10.4310926988957409
 30
0.0
 40
6.000000000005425
 50
176.389618171490298
 51
3.6103818285032361
  0
ARC
  5
124A
  8
0
 62
     7
 10
29.0155241586237196
 20
14.3623126975019293
 30
0.0
 40
4.749999999999976
 50
180.0
 51
0.0
  0
ARC
  5
124B
  8
0
 62
     7
 10
311.6930841787439022
 20
90.4310926988968333
 30
0.0
 40
4.7500000000000142
 50
0.0
 51
180.0
  0
ARC
  5
124C
  8
0
 62
     7
 10
29.0155241586202486
 20
94.3623126975015225
 30
0.0
 40
6.0000000000054241
 50
356.3896181714999898
 51
183.6103818285064904
  0
ARC
  5
124D
  8
0
  6
CONTINUOUS
 62
     7
 10
90.2106498260809673
 20
91.563649590561397
 30
0.0
 40
10.0
 50
90.0
 51
180.0
  0
ARC
  5
124E
  8
0
  6
CONTINUOUS
 62
     7
 10
90.2106498260809246
 20
16.5636495905615213
 30
0.0
 40
10.0
 50
180.0
 51
270.0
  0
ARC
  5
124F
  8
0
  6
CONTINUOUS
 62
     7
 10
52.0262175282267876
 20
16.3041982169637087
 30
0.0
 40
3.0
 50
89.9999999999967457
 51
179.9999999999967031
  0
ARC
  5
1250
  8
0
  6
CONTINUOUS
 62
     7
 10
51.2294497526961266
 20
23.4194755111461212
 30
0.0
 40
4.0
 50
203.1341249209311002
 51
336.6943327587572981
  0
LINE
  5
1251
  8
0
  6
CONTINUOUS
 62
     7
 10
55.362349389167413
 20
22.1391119495945183
 30
0.0
 11
68.7279766048728504
 21
22.1373209671780309
 31
0.0
  0
ARC
  5
1252
  8
0
  6
CONTINUOUS
 62
     7
 10
58.2953618627441514
 20
18.0564505371340189
 30
0.0
 40
3.9703051881367242
 50
23.0147641136568808
 51
156.9852358863429913
  0
CIRCLE
  5
1253
  8
0
  6
CONTINUOUS
 62
     7
 10
37.425428824946458
 20
12.1217180581992192
 30
0.0
 40
2.2249999999999992
  0
LINE
  5
1254
  8
0
  6
CONTINUOUS
 62
     7
 10
43.9827046220519975
 20
28.1553712524698199
 30
0.0
 11
38.9827021463205767
 21
28.1561288178980185
 31
0.0
  0
ARC
  5
1255
  8
0
  6
CONTINUOUS
 62
     7
 10
71.3204626554330332
 20
37.0865411147659074
 30
0.0
 40
0.5
 50
235.0256499738466971
 51
24.3331057723009003
  0
LINE
  5
1256
  8
0
  6
CONTINUOUS
 62
     7
 10
72.7410164860084194
 20
33.3945693291637511
 30
0.0
 11
72.7326063830293776
 21
26.1326858240968285
 31
0.0
  0
ARC
  5
1257
  8
0
  6
CONTINUOUS
 62
     7
 10
68.7410191684703733
 20
33.3992017897831488
 30
0.0
 40
4.0
 50
359.9336448746104793
 51
89.9336448746104793
  0
ARC
  5
1258
  8
0
  6
CONTINUOUS
 62
     7
 10
76.0633876994367881
 20
80.4306359962731108
 30
0.0
 40
0.5
 50
200.2343744317639107
 51
323.1774103490978973
  0
ARC
  5
1259
  8
0
 62
     7
 10
73.0342774433947568
 20
79.3140766542203153
 30
0.0
 40
2.728345351349915
 50
13.1544688151653304
 51
56.3273550871213118
  0
ARC
  5
125A
  8
0
 62
     7
 10
74.1442099921618762
 20
80.9100381934354971
 30
0.0
 40
2.7283453513499301
 50
234.0382593207662865
 51
277.2111455927101247
  0
ARC
  5
125B
  8
0
  6
CONTINUOUS
 62
     7
 10
67.5539166514765554
 20
52.8804331138511472
 30
0.0
 40
0.5
 50
212.7670473564112115
 51
2.4937391781794749
  0
LINE
  5
125C
  8
0
 62
     7
 10
66.3476028340693915
 20
53.8308013943735872
 30
0.0
 11
67.4656807136676235
 21
52.0936908380907084
 31
0.0
  0
ARC
  5
125D
  8
0
  6
CONTINUOUS
 62
     7
 10
110.3697135182836035
 20
54.7451237143215224
 30
0.0
 40
42.356382632872517
 50
140.0896304132139107
 51
219.9103695867860893
  0
ARC
  5
125E
  8
0
  6
CONTINUOUS
 62
     7
 10
66.2976744224252741
 20
85.1830756743581219
 30
0.0
 40
10.7600000000001206
 50
330.8078072039439803
 51
159.6344467535222975
  0
ARC
  5
125F
  8
0
  6
CONTINUOUS
 62
     7
 10
46.9542408201720676
 20
87.2529416837495262
 30
0.0
 40
10.76000000000003
 50
19.2046605821898488
 51
219.0202729031562967
  0
POLYLINE
  5
1260
  8
0
  6
CONTINUOUS
 62
     7
 66
     1
 10
0.0
 20
0.0
 30
0.0
 70
     1
  0
VERTEX
  5
1511
  8
0
  6
CONTINUOUS
 62
     7
 10
70.0262175282265673
 20
13.7991982169636103
 30
0.0
  0
VERTEX
  5
1512
  8
0
  6
CONTINUOUS
 62
     7
 10
66.0262175282264536
 20
13.7991982169636103
 30
0.0
  0
VERTEX
  5
1513
  8
0
  6
CONTINUOUS
 62
     7
 10
66.0262175282264536
 20
10.7991982169635197
 30
0.0
  0
VERTEX
  5
1514
  8
0
  6
CONTINUOUS
 62
     7
 10
70.0262175282265673
 20
10.7991982169635197
 30
0.0
  0
SEQEND
  5
1515
  8
0
  6
CONTINUOUS
 62
     7
  0
LINE
  5
1334
  8
0
 62
     7
 10
98.1163800963471857
 20
130.0586148968282885
 30
0.0
 11
104.6163665450092992
 21
129.6086148968284135
 31
0.0
  0
LINE
  5
1335
  8
0
 62
     7
 10
104.6163665450092992
 20
129.6086148968284135
 30
0.0
 11
104.1489138803224961
 21
130.212163904953087
 31
0.0
  0
LINE
  5
1336
  8
0
 62
     7
 10
104.1489138803224961
 20
130.212163904953087
 30
0.0
 11
102.0252467402164029
 21
131.2546368728930872
 31
0.0
  0
LINE
  5
1337
  8
0
 62
     7
 10
102.0252467402164029
 20
131.2546368728930872
 30
0.0
 11
101.058372547995404
 21
131.8992244747319944
 31
0.0
  0
ARC
  5
1338
  8
0
 62
     7
 10
101.3634592310491058
 20
132.3568510865273993
 30
0.0
 40
0.5500000000000791
 50
137.6132363326584027
 51
236.3097352647972116
  0
LINE
  5
1339
  8
0
 62
     7
 10
100.9572231279032053
 20
132.7276235619094962
 30
0.0
 11
101.0779426076410061
 21
132.8598896125969873
 31
0.0
  0
ARC
  5
133A
  8
0
 62
     7
 10
101.4841787107869067
 20
132.4891171372150893
 30
0.0
 40
0.5499999999999508
 50
65.7813509326288113
 51
137.6132363326584027
  0
LINE
  5
133B
  8
0
 62
     7
 10
101.7097996535513005
 20
132.9907097908555045
 30
0.0
 11
108.4482429451772987
 21
129.9596966426612141
 31
0.0
  0
LINE
  5
133C
  8
0
 62
     7
 10
108.4482429451772987
 20
129.9596966426612141
 30
0.0
 11
111.1163665450092992
 21
129.6086148968282998
 31
0.0
  0
LINE
  5
133D
  8
0
 62
     7
 10
111.1163665450092992
 20
129.6086148968282998
 30
0.0
 11
110.6489138803223966
 21
130.2121639049530017
 31
0.0
  0
LINE
  5
133E
  8
0
 62
     7
 10
110.6489138803223966
 20
130.2121639049530017
 30
0.0
 11
108.5252467402164029
 21
131.2546368728930872
 31
0.0
  0
LINE
  5
133F
  8
0
 62
     7
 10
108.5252467402164029
 20
131.2546368728930872
 30
0.0
 11
107.5582877212353026
 21
131.8992817695171027
 31
0.0
  0
ARC
  5
1340
  8
0
 62
     7
 10
107.8633746477894988
 20
132.3569082189775088
 30
0.0
 40
0.5499999999999563
 50
137.6130827297868109
 51
236.3097047780416062
  0
LINE
  5
1341
  8
0
 62
     7
 10
107.457139538640007
 20
132.7276817834267035
 30
0.0
 11
107.5101841368238951
 21
132.7857996758523882
 31
0.0
  0
ARC
  5
1342
  8
0
 62
     7
 10
107.9164192459732021
 20
132.4150261114031935
 30
0.0
 40
0.5499999999999731
 50
53.1415211877613203
 51
137.6130827297814108
  0
LINE
  5
1343
  8
0
 62
     7
 10
108.2463315490732043
 20
132.8550918704249
 30
0.0
 11
112.1163665450092992
 21
130.0586148968282885
 31
0.0
  0
LINE
  5
1344
  8
0
 62
     7
 10
112.1163665450092992
 20
130.0586148968282885
 30
0.0
 11
112.1163665450092992
 21
126.4586148968282941
 31
0.0
  0
LINE
  5
1345
  8
0
 62
     7
 10
112.1163665450092992
 20
126.4586148968282941
 30
0.0
 11
108.2463315490732043
 21
123.6621379232317963
 31
0.0
  0
ARC
  5
1346
  8
0
 62
     7
 10
107.9164192459732021
 20
124.1022036822536023
 30
0.0
 40
0.5500000000000042
 50
222.3869172702177082
 51
306.8584788122265081
  0
LINE
  5
1347
  8
0
 62
     7
 10
107.5101841368238951
 20
123.7314301178042939
 30
0.0
 11
107.4571395386401065
 21
123.789548010230007
 31
0.0
  0
ARC
  5
1348
  8
0
 62
     7
 10
107.8633746477894988
 20
124.1603215746792017
 30
0.0
 40
0.5500000000000015
 50
123.6902952219583938
 51
222.3869172702177082
  0
LINE
  5
1349
  8
0
 62
     7
 10
107.5582877212353026
 20
124.6179480241396931
 30
0.0
 11
108.5252467402164029
 21
125.2625929207636943
 31
0.0
  0
LINE
  5
134A
  8
0
 62
     7
 10
108.5252467402164029
 20
125.2625929207636943
 30
0.0
 11
110.6489138803223966
 21
126.3050658887036946
 31
0.0
  0
LINE
  5
134B
  8
0
 62
     7
 10
110.6489138803223966
 20
126.3050658887036946
 30
0.0
 11
111.1163665450092992
 21
126.9086148968283965
 31
0.0
  0
LINE
  5
134C
  8
0
 62
     7
 10
111.1163665450092992
 20
126.9086148968283965
 30
0.0
 11
108.4482429451772987
 21
126.5575331509954964
 31
0.0
  0
LINE
  5
134D
  8
0
 62
     7
 10
108.4482429451772987
 20
126.5575331509954964
 30
0.0
 11
101.7097996535513005
 21
123.526520002801206
 31
0.0
  0
ARC
  5
134E
  8
0
 62
     7
 10
101.4841787107869067
 20
124.028112656441607
 30
0.0
 40
0.5499999999999787
 50
222.3867636673402046
 51
294.2186490673711887
  0
LINE
  5
134F
  8
0
 62
     7
 10
101.0779426076410061
 20
123.6573401810596948
 30
0.0
 11
100.9572231279034042
 21
123.7896062317472996
 31
0.0
  0
ARC
  5
1350
  8
0
 62
     7
 10
101.3634592310490063
 20
124.160378707129297
 30
0.0
 40
0.5499999999999609
 50
123.6902647351909934
 51
222.3867636673523123
  0
LINE
  5
1351
  8
0
 62
     7
 10
101.058372547995404
 20
124.6180053189247019
 30
0.0
 11
102.0252467402164029
 21
125.2625929207636943
 31
0.0
  0
LINE
  5
1352
  8
0
 62
     7
 10
102.0252467402164029
 20
125.2625929207636943
 30
0.0
 11
104.1489138803224961
 21
126.3050658887036946
 31
0.0
  0
LINE
  5
1353
  8
0
 62
     7
 10
104.1489138803224961
 20
126.3050658887036946
 30
0.0
 11
104.6163665450092992
 21
126.9086148968283965
 31
0.0
  0
LINE
  5
1354
  8
0
 62
     7
 10
104.6163665450092992
 20
126.9086148968283965
 30
0.0
 11
98.1163800963469441
 21
126.4586148968283936
 31
0.0
  0
LINE
  5
1355
  8
0
 62
     7
 10
98.1147380500242861
 20
122.3086148968283027
 30
0.0
 11
97.1147380500242718
 21
122.3086148968283027
 31
0.0
  0
ARC
  5
1356
  8
0
 62
     7
 10
97.1147380500242718
 20
121.3086148968283027
 30
0.0
 40
0.9999999999999784
 50
90.0
 51
180.0
  0
LINE
  5
1357
  8
0
 62
     7
 10
96.1147380500243571
 20
120.9086148968283965
 30
0.0
 11
96.1147380500242718
 21
115.3086148968283027
 31
0.0
  0
ARC
  5
1358
  8
0
 62
     7
 10
97.1147380500242718
 20
115.3086148968283027
 30
0.0
 40
0.9999999999999784
 50
180.0
 51
270.0
  0
LINE
  5
1359
  8
0
 62
     7
 10
97.1147380500242718
 20
114.3086148968283027
 30
0.0
 11
98.1147380500242861
 21
114.3086148968283027
 31
0.0
  0
LINE
  5
135A
  8
0
 62
     7
 10
110.1147380500240018
 20
109.2086148968281947
 30
0.0
 11
110.1147380500240018
 21
107.3962594290502039
 31
0.0
  0
ARC
  5
135B
  8
0
 62
     7
 10
111.1147380500240018
 20
107.3962594290502039
 30
0.0
 40
1.0000000000000131
 50
180.0
 51
270.0
  0
ARC
  5
135C
  8
0
 62
     7
 10
117.1147380500241013
 20
107.3962594290502039
 30
0.0
 40
1.0000000000000131
 50
270.0
 51
0.0
  0
ARC
  5
135D
  8
0
 62
     7
 10
117.1147380500241013
 20
155.5245764100295105
 30
0.0
 40
0.9999999999999784
 50
0.0
 51
90.0
  0
ARC
  5
135E
  8
0
 62
     7
 10
111.1147380500248971
 20
155.5245764100295105
 30
0.0
 40
1.0000000000000491
 50
90.0
 51
179.9999999999934914
  0
LINE
  5
135F
  8
0
 62
     7
 10
110.1147380500246982
 20
155.5245764100295105
 30
0.0
 11
110.1147380500246982
 21
153.7086148968284931
 31
0.0
  0
LINE
  5
1360
  8
0
 62
     7
 10
98.1147380500243429
 20
148.6086148968284135
 30
0.0
 11
97.1147380500243571
 21
148.6086148968284135
 31
0.0
  0
ARC
  5
1361
  8
0
 62
     7
 10
97.1147380500243571
 20
147.6086148968284135
 30
0.0
 40
0.9999999999999784
 50
90.0
 51
180.0
  0
LINE
  5
1362
  8
0
 62
     7
 10
96.1147380500242718
 20
147.6086148968284135
 30
0.0
 11
96.1147380500242718
 21
142.0105348268284899
 31
0.0
  0
ARC
  5
1363
  8
0
 62
     7
 10
97.1147380500243571
 20
140.6086148968284135
 30
0.0
 40
1.0000000000000131
 50
179.9999999999934914
 51
270.0
  0
LINE
  5
1364
  8
0
 62
     7
 10
97.1147380500243571
 20
139.6086148968284135
 30
0.0
 11
98.1147380500242861
 21
139.6086148968284135
 31
0.0
  0
LINE
  5
1365
  8
0
 62
     7
 10
110.1147380500246982
 20
153.7086148968286068
 30
0.0
 11
98.1147380500243429
 21
153.7086148968280952
 31
0.0
  0
LINE
  5
1366
  8
0
 62
     7
 10
98.1147380500243429
 20
153.7086148968280952
 30
0.0
 11
98.1147380500243429
 21
148.6086148968284135
 31
0.0
  0
LINE
  5
1367
  8
0
 62
     7
 10
98.1147380500242861
 20
114.3086148968283027
 30
0.0
 11
98.1147380500242861
 21
109.2086148968283936
 31
0.0
  0
LINE
  5
1368
  8
0
 62
     7
 10
98.1147380500242861
 20
139.6086148968284135
 30
0.0
 11
98.1147380500242861
 21
122.3086148968283027
 31
0.0
  0
LINE
  5
1369
  8
0
 62
     7
 10
118.1147380500241013
 20
155.5245764100295105
 30
0.0
 11
118.1147380500237034
 21
131.7086148968280952
 31
0.0
  0
LINE
  5
136A
  8
0
 62
     7
 10
118.1147380500241013
 20
107.2086148968281947
 30
0.0
 11
118.1147380500239024
 21
131.2086148968280099
 31
0.0
  0
LINE
  5
136B
  8
0
 62
     7
 10
111.1147380500240018
 20
106.3962594290502039
 30
0.0
 11
113.8647380500241013
 21
106.3962594290502039
 31
0.0
  0
LINE
  5
136C
  8
0
 62
     7
 10
117.1147380500241013
 20
106.3962594290502039
 30
0.0
 11
114.3647380500240018
 21
106.3962594290503034
 31
0.0
  0
LINE
  5
136D
  8
0
 62
     7
 10
117.1147380500241013
 20
156.5245764100295105
 30
0.0
 11
111.1147380500248971
 21
156.5245764100295105
 31
0.0
  0
LINE
  5
136E
  8
0
  6
CONTINUOUS
 62
     7
 10
110.1147380500240018
 20
109.2086148968281947
 30
0.0
 11
98.1147380500242861
 21
109.2086148968281947
 31
0.0
  0
LINE
  5
136F
  8
0
  6
CONTINUOUS
 62
     7
 10
98.1147380500242861
 20
109.2086148968283936
 30
0.0
 11
100.8147380500242036
 21
109.2086148968283936
 31
0.0
  0
POLYLINE
  5
1370
  8
0
 62
     7
 66
     1
 10
0.0
 20
0.0
 30
0.0
 70
     1
  0
VERTEX
  5
153B
  8
0
 62
     7
 10
100.8147380500242036
 20
113.8086148968283027
 30
0.0
  0
VERTEX
  5
153C
  8
0
 62
     7
 10
108.6147380500243003
 20
113.8086148968283027
 30
0.0
  0
VERTEX
  5
153D
  8
0
 62
     7
 10
108.6147380500237034
 20
117.408614896828297
 30
0.0
  0
VERTEX
  5
153E
  8
0
 62
     7
 10
100.8147380500241042
 20
117.408614896828297
 30
0.0
  0
SEQEND
  5
153F
  8
0
 62
     7
  0
POLYLINE
  5
1371
  8
0
 62
     7
 66
     1
 10
0.0
 20
0.0
 30
0.0
 70
     1
  0
VERTEX
  5
1540
  8
0
 62
     7
 10
100.8147380500243031
 20
145.5086093336553006
 30
0.0
  0
VERTEX
  5
1541
  8
0
 62
     7
 10
108.6147380500243003
 20
145.5086093336553006
 30
0.0
  0
VERTEX
  5
1542
  8
0
 62
     7
 10
108.6147380500237034
 20
149.1086093336552949
 30
0.0
  0
VERTEX
  5
1543
  8
0
 62
     7
 10
100.8147380500242036
 20
149.1086093336552949
 30
0.0
  0
SEQEND
  5
1544
  8
0
 62
     7
  0
LINE
  5
1372
  8
0
  6
CONTINUOUS
 62
     7
 10
105.9147380500241979
 20
109.2086148968281947
 30
0.0
 11
105.9147380500241979
 21
113.8086148968283027
 31
0.0
  0
LINE
  5
1373
  8
0
  6
CONTINUOUS
 62
     7
 10
103.5147380500242065
 20
113.8086148968283027
 30
0.0
 11
103.5147380500242065
 21
109.2086148968281947
 31
0.0
  0
LINE
  5
1374
  8
0
  6
CONTINUOUS
 62
     7
 10
103.514738050024107
 20
153.7086093336554882
 30
0.0
 11
103.5147380500238938
 21
149.1086093336552949
 31
0.0
  0
LINE
  5
1375
  8
0
  6
CONTINUOUS
 62
     7
 10
105.914738050023999
 20
149.1086093336552949
 30
0.0
 11
105.914738050023999
 21
153.7086093336554882
 31
0.0
  0
POLYLINE
  5
1376
  8
FIRST_CUTS
 62
     7
 66
     1
 10
0.0
 20
0.0
 30
0.0
 70
     1
  0
VERTEX
  5
1545
  8
FIRST_CUTS
 62
     7
 10
61.9204380500241314
 20
139.9925764100294998
 30
0.0
  0
VERTEX
  5
1546
  8
FIRST_CUTS
 62
     7
 10
61.9204380500241314
 20
147.9925764100294998
 30
0.0
  0
VERTEX
  5
1547
  8
FIRST_CUTS
 62
     7
 10
59.4203854354068426
 20
147.9925764100294998
 30
0.0
 42
0.4142135623730951
  0
VERTEX
  5
1548
  8
FIRST_CUTS
 62
     7
 10
58.9203854354068426
 20
147.4925764100294998
 30
0.0
  0
VERTEX
  5
1549
  8
FIRST_CUTS
 62
     7
 10
58.9203854354068426
 20
140.4925764100294998
 30
0.0
 42
0.4142135623730951
  0
VERTEX
  5
154A
  8
FIRST_CUTS
 62
     7
 10
59.4203854354068426
 20
139.9925764100294998
 30
0.0
  0
SEQEND
  5
154B
  8
FIRST_CUTS
 62
     7
  0
LINE
  5
1377
  8
FIRST_CUTS
 62
     7
 10
66.6859380500241343
 20
137.8425248085206078
 30
0.0
 11
66.6859380500241343
 21
150.1425248085205908
 31
0.0
  0
LINE
  5
1378
  8
FIRST_CUTS
 62
     7
 10
66.6859380500241343
 20
150.1425248085205908
 30
0.0
 11
89.8559380500242355
 21
150.1425248085205908
 31
0.0
  0
LINE
  5
1379
  8
FIRST_CUTS
 62
     7
 10
89.8559380500242355
 20
150.1425248085205908
 30
0.0
 11
89.8559380500242355
 21
146.6135764100295091
 31
0.0
  0
LINE
  5
137A
  8
FIRST_CUTS
 62
     7
 10
89.8559380500242355
 20
146.6135764100295091
 30
0.0
 11
91.8560380500239262
 21
146.6135764100295091
 31
0.0
  0
LINE
  5
137B
  8
FIRST_CUTS
 62
     7
 10
91.8560380500239262
 20
146.6135764100295091
 30
0.0
 11
91.8560380500239262
 21
141.3715764100296042
 31
0.0
  0
LINE
  5
137C
  8
FIRST_CUTS
 62
     7
 10
91.8560380500239262
 20
141.3715764100296042
 30
0.0
 11
89.8559380500242355
 21
141.3715764100296042
 31
0.0
  0
LINE
  5
137D
  8
FIRST_CUTS
 62
     7
 10
89.8559380500242355
 20
141.3715764100296042
 30
0.0
 11
89.8559380500242355
 21
137.8425248085206078
 31
0.0
  0
LINE
  5
137E
  8
FIRST_CUTS
 62
     7
 10
89.8559380500242355
 20
137.8425248085206078
 30
0.0
 11
66.6859380500241343
 21
137.8425248085206078
 31
0.0
  0
LINE
  5
137F
  8
LAYER_1
 62
     7
 10
77.3274380500243694
 20
131.4603764100295962
 30
0.0
 11
86.1148482048788821
 21
131.4604732076184064
 31
0.0
  0
ARC
  5
1380
  8
LAYER_1
 62
     7
 10
86.1147380500242718
 20
141.4604732070116881
 30
0.0
 40
10.0000000000000107
 50
270.0006311408275224
 51
0.0
  0
ARC
  5
1381
  8
LAYER_1
 62
     7
 10
86.1147380500242718
 20
146.5245764100295105
 30
0.0
 40
10.0
 50
0.0
 51
90.0
  0
LINE
  5
1382
  8
LAYER_1
 62
     7
 10
86.1147380500242718
 20
156.5245764100295958
 30
0.0
 11
60.5422380500241388
 21
156.5245764100293968
 31
0.0
  0
ARC
  5
1383
  8
LAYER_1
 62
     7
 10
60.4973197167662704
 20
152.5016143305514049
 30
0.0
 40
4.0232128392094912
 50
89.3602912665608358
 51
178.9850822990960069
  0
LINE
  5
1384
  8
LAYER_1
 62
     7
 10
56.4747380500242571
 20
152.5728764100283001
 30
0.0
 11
56.4747380500242571
 21
150.3432107065987964
 31
0.0
  0
ARC
  5
1385
  8
LAYER_1
 62
     7
 10
60.4973185907341815
 20
135.4833373304784914
 30
0.0
 40
4.0232116928247823
 50
181.0149014814477937
 51
270.6397249528924931
  0
LINE
  5
1386
  8
LAYER_1
 62
     7
 10
60.542238050024018
 20
131.4603764100295962
 30
0.0
 11
76.9347380500240945
 21
131.4603764100295962
 31
0.0
  0
CIRCLE
  5
1387
  8
0
  6
CONTINUOUS
 62
     7
 10
74.2947880500488509
 20
153.1425248085205908
 30
0.0
 40
1.1999999999999991
  0
CIRCLE
  5
1388
  8
0
  6
CONTINUOUS
 62
     7
 10
74.2948880469448625
 20
134.8425248085206078
 30
0.0
 40
1.1999999999999991
  0
LINE
  5
1389
  8
0
  6
CONTINUOUS
 62
     7
 10
58.9203854354068426
 20
146.8148997311074027
 30
0.0
 11
56.9750862243250467
 21
146.8135451243934142
 31
0.0
  0
ARC
  5
138A
  8
0
  6
CONTINUOUS
 62
     7
 10
56.9747380500241434
 20
147.3135450031680875
 30
0.0
 40
0.5
 50
180.0
 51
270.0398978391754099
  0
LINE
  5
138B
  8
0
  6
CONTINUOUS
 62
     7
 10
56.9743898757233467
 20
141.1688979973361029
 30
0.0
 11
58.9203854354068426
 21
141.170253088951597
 31
0.0
  0
ARC
  5
138C
  8
0
  6
CONTINUOUS
 62
     7
 10
56.9747380500241434
 20
140.6688981185614864
 30
0.0
 40
0.5
 50
90.0398978391752962
 51
180.0
  0
POLYLINE
  5
138D
  8
FIRST_CUTS
 62
     7
 66
     1
 10
0.0
 20
0.0
 30
0.0
 70
     1
  0
VERTEX
  5
154C
  8
FIRST_CUTS
 62
     7
 10
61.9204380500243587
 20
114.9283764100295997
 30
0.0
  0
VERTEX
  5
154D
  8
FIRST_CUTS
 62
     7
 10
61.9204380500243587
 20
122.9283764100295997
 30
0.0
  0
VERTEX
  5
154E
  8
FIRST_CUTS
 62
     7
 10
59.4203854354069279
 20
122.9283764100295997
 30
0.0
 42
0.4142135623730951
  0
VERTEX
  5
154F
  8
FIRST_CUTS
 62
     7
 10
58.9203854354070629
 20
122.4283764100296992
 30
0.0
  0
VERTEX
  5
1550
  8
FIRST_CUTS
 62
     7
 10
58.9203854354070629
 20
115.4283764100295997
 30
0.0
 42
0.4142135623730951
  0
VERTEX
  5
1551
  8
FIRST_CUTS
 62
     7
 10
59.4203854354069279
 20
114.9283764100295997
 30
0.0
  0
SEQEND
  5
1552
  8
FIRST_CUTS
 62
     7
  0
LINE
  5
138E
  8
FIRST_CUTS
 62
     7
 10
66.685938050024248
 20
112.778324808520793
 30
0.0
 11
66.685938050024248
 21
125.0783248085208044
 31
0.0
  0
LINE
  5
138F
  8
FIRST_CUTS
 62
     7
 10
66.685938050024248
 20
125.0783248085208044
 30
0.0
 11
89.8559380500243634
 21
125.0783248085208044
 31
0.0
  0
LINE
  5
1390
  8
FIRST_CUTS
 62
     7
 10
89.8559380500243634
 20
125.0783248085208044
 30
0.0
 11
89.8559380500243634
 21
121.5493764100296943
 31
0.0
  0
LINE
  5
1391
  8
FIRST_CUTS
 62
     7
 10
89.8559380500243634
 20
121.5493764100296943
 30
0.0
 11
91.8560380500240541
 21
121.5493764100296943
 31
0.0
  0
LINE
  5
1392
  8
FIRST_CUTS
 62
     7
 10
91.8560380500240541
 20
121.5493764100296943
 30
0.0
 11
91.8560380500240541
 21
116.3073764100297041
 31
0.0
  0
LINE
  5
1393
  8
FIRST_CUTS
 62
     7
 10
91.8560380500240541
 20
116.3073764100297041
 30
0.0
 11
89.8559380500243634
 21
116.3073764100297041
 31
0.0
  0
LINE
  5
1394
  8
FIRST_CUTS
 62
     7
 10
89.8559380500243634
 20
116.3073764100297041
 30
0.0
 11
89.8559380500243634
 21
112.778324808520793
 31
0.0
  0
LINE
  5
1395
  8
FIRST_CUTS
 62
     7
 10
89.8559380500243634
 20
112.778324808520793
 30
0.0
 11
66.685938050024248
 21
112.778324808520793
 31
0.0
  0
LINE
  5
1396
  8
LAYER_1
 62
     7
 10
60.5422380500243591
 20
106.3961764100296961
 30
0.0
 11
86.1148482048789248
 21
106.3962732076185063
 31
0.0
  0
ARC
  5
1397
  8
LAYER_1
 62
     7
 10
86.1147380500244566
 20
116.3962732070119017
 30
0.0
 40
10.0000000000000107
 50
270.0006311408275224
 51
0.0
  0
ARC
  5
1398
  8
LAYER_1
 62
     7
 10
86.1147380500244566
 20
121.4603764100296956
 30
0.0
 40
10.0
 50
0.0
 51
90.0
  0
ARC
  5
1399
  8
LAYER_1
 62
     7
 10
60.4973197167662704
 20
127.4374143305517038
 30
0.0
 40
4.0232128392094912
 50
89.3602912665608358
 51
178.9850822990960069
  0
ARC
  5
139A
  8
LAYER_1
 62
     7
 10
60.4973185907342668
 20
110.4191373304787049
 30
0.0
 40
4.0232116928247823
 50
181.0149014814477937
 51
270.6397249528924931
  0
CIRCLE
  5
139B
  8
0
  6
CONTINUOUS
 62
     7
 10
74.2947880500489646
 20
128.0783248085207902
 30
0.0
 40
1.1999999999999991
  0
CIRCLE
  5
139C
  8
0
  6
CONTINUOUS
 62
     7
 10
74.2948880469449762
 20
109.778324808520793
 30
0.0
 40
1.1999999999999991
  0
LINE
  5
139D
  8
0
  6
CONTINUOUS
 62
     7
 10
58.9203854354070629
 20
121.7506997311075025
 30
0.0
 11
56.9750862243251674
 21
121.7493451243935993
 31
0.0
  0
ARC
  5
139E
  8
0
  6
CONTINUOUS
 62
     7
 10
56.9747380500243708
 20
122.2493450031682016
 30
0.0
 40
0.5
 50
180.0
 51
270.0398978391754099
  0
LINE
  5
139F
  8
0
  6
CONTINUOUS
 62
     7
 10
56.9743898757234604
 20
116.1046979973363023
 30
0.0
 11
58.9203854354070629
 21
116.1060530889517963
 31
0.0
  0
ARC
  5
13A0
  8
0
  6
CONTINUOUS
 62
     7
 10
56.9747380500243708
 20
115.6046981185616005
 30
0.0
 40
0.5
 50
90.0398978391752962
 51
180.0
  0
LINE
  5
13A1
  8
LAYER_1
 62
     7
 10
56.4747380500242571
 20
112.5762872642958001
 30
0.0
 11
56.4747380500242571
 21
110.3478764100300964
 31
0.0
  0
LINE
  5
13A2
  8
0
 62
     7
 10
138.1130960037010027
 20
132.8586148968281009
 30
0.0
 11
131.6131095550389034
 21
133.3086148968280895
 31
0.0
  0
LINE
  5
13A3
  8
0
 62
     7
 10
131.6131095550389034
 20
133.3086148968280895
 30
0.0
 11
132.0805622197256071
 21
132.7050658887033876
 31
0.0
  0
LINE
  5
13A4
  8
0
 62
     7
 10
132.0805622197256071
 20
132.7050658887033876
 30
0.0
 11
134.204229359831686
 21
131.6625929207633874
 31
0.0
  0
LINE
  5
13A5
  8
0
 62
     7
 10
134.204229359831686
 20
131.6625929207633874
 30
0.0
 11
135.1711035520526991
 21
131.0180053189243949
 31
0.0
  0
ARC
  5
13A6
  8
0
 62
     7
 10
134.8660168689989121
 20
130.5603787071291038
 30
0.0
 40
0.5500000000000791
 50
317.6132363326574932
 51
56.3097352647972471
  0
LINE
  5
13A7
  8
0
 62
     7
 10
135.2722529721449121
 20
130.1896062317470069
 30
0.0
 11
135.1515334924069975
 21
130.0573401810594021
 31
0.0
  0
ARC
  5
13A8
  8
0
 62
     7
 10
134.7452973892611965
 20
130.4281126564414137
 30
0.0
 40
0.5499999999999508
 50
245.7813509326288113
 51
317.6132363326574932
  0
LINE
  5
13A9
  8
0
 62
     7
 10
134.5196764464967032
 20
129.9265200028009986
 30
0.0
 11
127.781233154870705
 21
132.9575331509952036
 31
0.0
  0
LINE
  5
13AA
  8
0
 62
     7
 10
127.781233154870705
 20
132.9575331509952036
 30
0.0
 11
125.1131095550388039
 21
133.3086148968280895
 31
0.0
  0
LINE
  5
13AB
  8
0
 62
     7
 10
125.1131095550388039
 20
133.3086148968280895
 30
0.0
 11
125.5805622197257065
 21
132.7050658887033876
 31
0.0
  0
LINE
  5
13AC
  8
0
 62
     7
 10
125.5805622197257065
 20
132.7050658887033876
 30
0.0
 11
127.7042293598317002
 21
131.6625929207633874
 31
0.0
  0
LINE
  5
13AD
  8
0
 62
     7
 10
127.7042293598317002
 20
131.6625929207633874
 30
0.0
 11
128.6711883788129001
 21
131.0179480241392866
 31
0.0
  0
ARC
  5
13AE
  8
0
 62
     7
 10
128.3661014522587038
 20
130.560321574678909
 30
0.0
 40
0.5499999999999563
 50
317.6130827297868109
 51
56.3097047780415778
  0
LINE
  5
13AF
  8
0
 62
     7
 10
128.7723365614081104
 20
130.1895480102297995
 30
0.0
 11
128.7192919632242081
 21
130.1314301178040012
 31
0.0
  0
ARC
  5
13B0
  8
0
 62
     7
 10
128.3130568540748868
 20
130.5022036822531959
 30
0.0
 40
0.5499999999999731
 50
233.141521187761299
 51
317.6130827297799897
  0
LINE
  5
13B1
  8
0
 62
     7
 10
127.9831445509749983
 20
130.0621379232316031
 30
0.0
 11
124.1131095550388039
 21
132.8586148968281009
 31
0.0
  0
LINE
  5
13B2
  8
0
 62
     7
 10
124.1131095550388039
 20
132.8586148968281009
 30
0.0
 11
124.1131095550388039
 21
136.4586148968282089
 31
0.0
  0
LINE
  5
13B3
  8
0
 62
     7
 10
124.1131095550388039
 20
136.4586148968282089
 30
0.0
 11
127.9831445509749983
 21
139.2550918704247067
 31
0.0
  0
ARC
  5
13B4
  8
0
 62
     7
 10
128.3130568540748015
 20
138.8150261114028865
 30
0.0
 40
0.5500000000000042
 50
42.3869172702186319
 51
126.8584788122263944
  0
LINE
  5
13B5
  8
0
 62
     7
 10
128.7192919632242081
 20
139.1857996758521949
 30
0.0
 11
128.7723365614079967
 21
139.1276817834263966
 31
0.0
  0
ARC
  5
13B6
  8
0
 62
     7
 10
128.3661014522587038
 20
138.7569082189772018
 30
0.0
 40
0.5500000000000015
 50
303.6902952219584222
 51
42.3869172702131465
  0
LINE
  5
13B7
  8
0
 62
     7
 10
128.6711883788129001
 20
138.2992817695169094
 30
0.0
 11
127.7042293598317002
 21
137.6546368728928087
 31
0.0
  0
LINE
  5
13B8
  8
0
 62
     7
 10
127.7042293598317002
 20
137.6546368728928087
 30
0.0
 11
125.5805622197257065
 21
136.6121639049526948
 31
0.0
  0
LINE
  5
13B9
  8
0
 62
     7
 10
125.5805622197257065
 20
136.6121639049526948
 30
0.0
 11
125.1131095550388039
 21
136.0086148968279929
 31
0.0
  0
LINE
  5
13BA
  8
0
 62
     7
 10
125.1131095550388039
 20
136.0086148968279929
 30
0.0
 11
127.781233154870705
 21
136.3596966426609924
 31
0.0
  0
LINE
  5
13BB
  8
0
 62
     7
 10
127.781233154870705
 20
136.3596966426609924
 30
0.0
 11
134.5196764464967032
 21
139.3907097908553112
 31
0.0
  0
ARC
  5
13BC
  8
0
 62
     7
 10
134.7452973892611965
 20
138.889117137214896
 30
0.0
 40
0.5499999999999787
 50
42.3867636673415973
 51
114.2186490673712029
  0
LINE
  5
13BD
  8
0
 62
     7
 10
135.1515334924071965
 20
139.259889612596794
 30
0.0
 11
135.2722529721449121
 21
139.127623561909104
 31
0.0
  0
ARC
  5
13BE
  8
0
 62
     7
 10
134.866016868999111
 20
138.756851086527206
 30
0.0
 40
0.5499999999999609
 50
303.6902647351910218
 51
42.3867636673514028
  0
LINE
  5
13BF
  8
0
 62
     7
 10
135.1711035520526991
 20
138.2992244747318011
 30
0.0
 11
134.204229359831686
 21
137.6546368728928087
 31
0.0
  0
LINE
  5
13C0
  8
0
 62
     7
 10
134.204229359831686
 20
137.6546368728928087
 30
0.0
 11
132.0805622197256923
 21
136.6121639049526948
 31
0.0
  0
LINE
  5
13C1
  8
0
 62
     7
 10
132.0805622197256923
 20
136.6121639049526948
 30
0.0
 11
131.6131095550389034
 21
136.0086148968279929
 31
0.0
  0
LINE
  5
13C2
  8
0
 62
     7
 10
131.6131095550389034
 20
136.0086148968279929
 30
0.0
 11
138.1130960037012017
 21
136.4586148968280952
 31
0.0
  0
LINE
  5
13C3
  8
0
 62
     7
 10
138.1147380500239024
 20
140.6086148968281009
 30
0.0
 11
139.1147380500239024
 21
140.6086148968281009
 31
0.0
  0
ARC
  5
13C4
  8
0
 62
     7
 10
139.1147380500239024
 20
141.6086148968281009
 30
0.0
 40
0.9999999999999784
 50
270.0
 51
0.0
  0
LINE
  5
13C5
  8
0
 62
     7
 10
140.1147380500237034
 20
142.0086148968281066
 30
0.0
 11
140.1147380500239024
 21
147.6086148968281009
 31
0.0
  0
ARC
  5
13C6
  8
0
 62
     7
 10
139.1147380500239024
 20
147.6086148968281009
 30
0.0
 40
0.9999999999999784
 50
0.0
 51
90.0
  0
LINE
  5
13C7
  8
0
 62
     7
 10
139.1147380500239024
 20
148.6086148968281009
 30
0.0
 11
138.1147380500239024
 21
148.6086148968281009
 31
0.0
  0
LINE
  5
13C8
  8
0
 62
     7
 10
126.1147380500241013
 20
153.7086148968282941
 30
0.0
 11
126.1147380500241013
 21
155.5245764100293968
 31
0.0
  0
ARC
  5
13C9
  8
0
 62
     7
 10
125.1147380500241013
 20
155.5245764100293968
 30
0.0
 40
1.0000000000000131
 50
0.0
 51
90.0
  0
ARC
  5
13CA
  8
0
 62
     7
 10
119.1147380500241013
 20
155.5245764100295105
 30
0.0
 40
1.0000000000000131
 50
90.0
 51
180.0
  0
ARC
  5
13CB
  8
0
 62
     7
 10
119.1147380500241013
 20
107.3962594290502039
 30
0.0
 40
0.9999999999999784
 50
180.0
 51
270.0
  0
ARC
  5
13CC
  8
0
 62
     7
 10
125.1147380500233055
 20
107.3962594290502039
 30
0.0
 40
1.0000000000000491
 50
270.0
 51
359.9999999999935199
  0
LINE
  5
13CD
  8
0
 62
     7
 10
126.1147380500233055
 20
107.2086148968281947
 30
0.0
 11
126.1147380500233055
 21
109.2086148968279957
 31
0.0
  0
LINE
  5
13CE
  8
0
 62
     7
 10
138.1147380500237034
 20
114.3086148968281037
 30
0.0
 11
139.1147380500239024
 21
114.3086148968280042
 31
0.0
  0
ARC
  5
13CF
  8
0
 62
     7
 10
139.1147380500239024
 20
115.3086148968280042
 30
0.0
 40
0.9999999999999784
 50
270.0
 51
0.0
  0
LINE
  5
13D0
  8
0
 62
     7
 10
140.1147380500239024
 20
115.3086148968280042
 30
0.0
 11
140.1147380500239024
 21
121.9086148968279986
 31
0.0
  0
ARC
  5
13D1
  8
0
 62
     7
 10
139.1147380500239024
 20
122.3086148968280042
 30
0.0
 40
1.0000000000000131
 50
359.9999999999935199
 51
90.0
  0
LINE
  5
13D2
  8
0
 62
     7
 10
139.1147380500239024
 20
123.3086148968280042
 30
0.0
 11
138.1147380500237887
 21
123.3086148968281037
 31
0.0
  0
LINE
  5
13D3
  8
0
 62
     7
 10
126.1147380500233055
 20
109.2086148968279957
 30
0.0
 11
138.1147380500237034
 21
109.2086148968284931
 31
0.0
  0
LINE
  5
13D4
  8
0
 62
     7
 10
138.1147380500237034
 20
109.2086148968284931
 30
0.0
 11
138.1147380500237034
 21
114.3086148968281037
 31
0.0
  0
LINE
  5
13D5
  8
0
 62
     7
 10
138.1147380500239024
 20
148.6086148968281009
 30
0.0
 11
138.1147380500239024
 21
153.7086148968280099
 31
0.0
  0
LINE
  5
13D6
  8
0
 62
     7
 10
138.1147380500237887
 20
132.8586148968281009
 30
0.0
 11
138.1130960037010027
 21
132.8586148968281009
 31
0.0
  0
LINE
  5
13D7
  8
0
 62
     7
 10
138.1147380500237887
 20
123.3086148968281037
 30
0.0
 11
138.1147380500239024
 21
140.6086148968281009
 31
0.0
  0
LINE
  5
13D8
  8
0
 62
     7
 10
125.1147380500241013
 20
156.5245764100293968
 30
0.0
 11
122.3647380500241013
 21
156.5245764100295105
 31
0.0
  0
LINE
  5
13D9
  8
0
 62
     7
 10
119.1147380500241013
 20
156.5245764100295105
 30
0.0
 11
121.8647380500241013
 21
156.5245764100295105
 31
0.0
  0
LINE
  5
13DA
  8
0
 62
     7
 10
119.1147380500241013
 20
106.3962594290502039
 30
0.0
 11
125.1147380500233055
 21
106.3962594290502039
 31
0.0
  0
LINE
  5
13DB
  8
0
  6
CONTINUOUS
 62
     7
 10
126.1147380500241013
 20
153.7086148968282941
 30
0.0
 11
138.1147380500239024
 21
153.7086148968282941
 31
0.0
  0
LINE
  5
13DC
  8
0
  6
CONTINUOUS
 62
     7
 10
138.1147380500239024
 20
153.7086148968280099
 30
0.0
 11
135.4147380500239137
 21
153.7086148968280099
 31
0.0
  0
POLYLINE
  5
13DD
  8
0
 62
     7
 66
     1
 10
0.0
 20
0.0
 30
0.0
 70
     1
  0
VERTEX
  5
1553
  8
0
 62
     7
 10
135.4147380500239137
 20
149.1086148968281009
 30
0.0
  0
VERTEX
  5
1554
  8
0
 62
     7
 10
127.6147380500239024
 20
149.1086148968281009
 30
0.0
  0
VERTEX
  5
1555
  8
0
 62
     7
 10
127.6147380500244992
 20
145.5086148968281918
 30
0.0
  0
VERTEX
  5
1556
  8
0
 62
     7
 10
135.4147380500241127
 20
145.5086148968281918
 30
0.0
  0
SEQEND
  5
1557
  8
0
 62
     7
  0
POLYLINE
  5
13DE
  8
0
 62
     7
 66
     1
 10
0.0
 20
0.0
 30
0.0
 70
     1
  0
VERTEX
  5
1558
  8
0
 62
     7
 10
135.4147380500238
 20
117.4086204600012024
 30
0.0
  0
VERTEX
  5
1559
  8
0
 62
     7
 10
127.6147380500239024
 20
117.4086204600012024
 30
0.0
  0
VERTEX
  5
155A
  8
0
 62
     7
 10
127.6147380500244992
 20
113.8086204600010944
 30
0.0
  0
VERTEX
  5
155B
  8
0
 62
     7
 10
135.4147380500239137
 20
113.8086204600012934
 30
0.0
  0
SEQEND
  5
155C
  8
0
 62
     7
  0
LINE
  5
13DF
  8
0
  6
CONTINUOUS
 62
     7
 10
130.3147380500240899
 20
153.7086148968282941
 30
0.0
 11
130.3147380500240899
 21
149.1086148968281009
 31
0.0
  0
LINE
  5
13E0
  8
0
  6
CONTINUOUS
 62
     7
 10
132.7147380500238967
 20
149.1086148968281009
 30
0.0
 11
132.7147380500238967
 21
153.7086148968282941
 31
0.0
  0
LINE
  5
13E1
  8
0
  6
CONTINUOUS
 62
     7
 10
132.7147380500242093
 20
109.2086204600011001
 30
0.0
 11
132.7147380500240956
 21
113.8086204600011939
 31
0.0
  0
LINE
  5
13E2
  8
0
  6
CONTINUOUS
 62
     7
 10
130.3147380500242036
 20
113.8086204600011939
 30
0.0
 11
130.3147380500242036
 21
109.2086204600011001
 31
0.0
  0
LINE
  5
13E8
  8
0
  6
CONTINUOUS
 62
     7
 10
96.1147380500242718
 20
140.6086148968284135
 30
0.0
 11
96.1147380500242718
 21
141.6105348268285979
 31
0.0
  0
INSERT
  5
13E9
  8
0
 62
     7
  2
*U76
 10
-102.5725995095199039
 20
77.3967268194683129
 30
0.0
  0
INSERT
  5
13EA
  8
0
 62
     7
  2
*U77
 10
-102.5725995095199039
 20
77.3967268194683129
 30
0.0
  0
INSERT
  5
13EB
  8
0
 62
     7
  2
*U78
 10
-102.5725995095199039
 20
77.3967268194683129
 30
0.0
  0
INSERT
  5
13EC
  8
0
 62
     7
  2
*U79
 10
-102.5725995095199039
 20
77.3967268194683129
 30
0.0
  0
LINE
  5
13ED
  8
0
 62
     7
 10
56.4747380500242571
 20
150.3432107065987964
 30
0.0
 11
56.4747380500242571
 21
135.5545982509320027
 31
0.0
  0
LINE
  5
13EE
  8
0
 62
     7
 10
56.4747380500242997
 20
127.5086764100295937
 30
0.0
 11
56.4747380500242571
 21
112.5762872642958001
 31
0.0
  0
LINE
  5
13EF
  8
0
 62
     7
 10
-94.3913177500296428
 20
176.6364886793251117
 30
0.0
 11
-94.3985815601278233
 21
115.573782245598295
 31
0.0
  0
TEXT
  5
13F2
  8
0
 62
     7
 10
213.5141474185926995
 20
21.0998413181338798
 30
0.0
 40
2.5
  1
MeArm is a trademark of 
  0
TEXT
  5
13F3
  8
0
 62
     7
 10
213.5141474185926995
 20
16.933174651467219
 30
0.0
 40
2.5
  1
MeArm Limited.
  0
TEXT
  5
13F4
  8
0
 62
     7
 10
213.5141474185926995
 20
12.7665079848005707
 30
0.0
 40
2.5
  1
These designs are shared
  0
ENDSEC
  0
EOF
