G04 #@! TF.FileFunction,Profile,NP*
%FSLAX46Y46*%
G04 Gerber Fmt 4.6, Leading zero omitted, Abs format (unit mm)*
G04 Created by KiCad (PCBNEW (2015-01-16 BZR 5376)-product) date 26/03/2015 09:40:50*
%MOMM*%
G01*
G04 APERTURE LIST*
%ADD10C,0.100000*%
G04 APERTURE END LIST*
D10*
X122428000Y-123444000D02*
X122428000Y-124714000D01*
X118618000Y-123444000D02*
X122428000Y-123444000D01*
X118618000Y-124714000D02*
X118618000Y-123444000D01*
X113538000Y-123444000D02*
X113538000Y-124714000D01*
X109728000Y-123444000D02*
X113538000Y-123444000D01*
X109728000Y-124714000D02*
X109728000Y-123444000D01*
X122428000Y-128524000D02*
X173228000Y-128524000D01*
X122428000Y-124714000D02*
X122428000Y-128524000D01*
X118618000Y-128524000D02*
X118618000Y-124714000D01*
X113538000Y-128524000D02*
X118618000Y-128524000D01*
X113538000Y-124714000D02*
X113538000Y-128524000D01*
X109728000Y-128524000D02*
X109728000Y-124714000D01*
X97028000Y-128524000D02*
X109728000Y-128524000D01*
X91948000Y-77724000D02*
X91948000Y-123444000D01*
X178308000Y-77724000D02*
X178308000Y-123444000D01*
X97028000Y-72644000D02*
X173228000Y-72644000D01*
X91948000Y-123444000D02*
G75*
G03X97028000Y-128524000I5080000J0D01*
G01*
X173228000Y-128524000D02*
G75*
G03X178308000Y-123444000I0J5080000D01*
G01*
X178308000Y-77724000D02*
G75*
G03X173228000Y-72644000I-5080000J0D01*
G01*
X97028000Y-72644000D02*
G75*
G03X91948000Y-77724000I0J-5080000D01*
G01*
M02*
