M48
;DRILL file {kicad (2015-01-16 BZR 5376)-product} date 25/03/2015 13:56:08
;FORMAT={-:-/ absolute / inch / decimal}
FMAT,2
INCH,TZ
T1C0.025
T2C0.031
T3C0.032
T4C0.035
T5C0.039
T6C0.040
%
G90
G05
M72
T1
X4.1Y-4.41
X4.32Y-3.945
X4.42Y-4.8
X4.785Y-4.36
X4.94Y-4.59
X4.97Y-4.905
X4.99Y-4.58
X4.99Y-4.79
X5.01Y-4.48
X5.46Y-4.09
X5.46Y-4.16
X5.47Y-3.515
X5.47Y-3.6
X5.525Y-3.56
X5.57Y-4.11
X5.57Y-4.75
X5.66Y-3.79
X5.67Y-4.06
X5.775Y-4.2
X5.805Y-4.155
X5.81Y-4.24
X6.05Y-4.45
X6.12Y-3.44
X6.15Y-3.785
X6.19Y-3.52
X6.195Y-3.57
X6.385Y-3.715
X6.53Y-3.825
X6.635Y-3.695
X6.92Y-3.63
T2
X5.8869Y-4.3041
X5.8869Y-4.3828
X5.8869Y-4.4616
X5.8869Y-4.5403
X5.8869Y-4.6191
X5.8869Y-4.6978
X5.8869Y-4.7765
X5.8869Y-4.8553
X5.8869Y-4.934
X5.8869Y-5.0128
X6.7531Y-4.3041
X6.7531Y-4.3828
X6.7531Y-4.4616
X6.7531Y-4.5403
X6.7531Y-4.6191
X6.7531Y-4.6978
X6.7531Y-4.7765
X6.7531Y-4.8553
X6.7531Y-4.934
X6.7531Y-5.0128
T3
X5.87Y-3.36
X5.87Y-3.96
X5.97Y-3.36
X5.97Y-3.96
X6.07Y-3.36
X6.07Y-3.96
X6.17Y-3.36
X6.17Y-3.96
X6.27Y-3.36
X6.27Y-3.96
X6.37Y-3.36
X6.37Y-3.96
X6.47Y-3.36
X6.47Y-3.96
X6.57Y-3.36
X6.57Y-3.96
X6.67Y-3.36
X6.67Y-3.96
X6.77Y-3.36
X6.77Y-3.96
X6.87Y-3.36
X6.87Y-3.96
X6.97Y-3.36
X6.97Y-3.96
T4
X4.12Y-4.51
T5
X4.22Y-4.51
X4.32Y-4.51
X4.42Y-4.51
X4.52Y-4.51
X4.62Y-4.51
X4.72Y-4.51
X4.82Y-4.51
T6
X5.12Y-4.86
X5.12Y-4.96
X5.22Y-4.86
X5.22Y-4.96
X5.32Y-4.86
X5.32Y-4.96
X5.42Y-2.96
X5.42Y-3.06
X5.42Y-3.16
X5.42Y-4.86
X5.42Y-4.96
X5.52Y-4.86
X5.52Y-4.96
X5.62Y-2.96
X5.62Y-3.06
X5.62Y-3.16
X5.82Y-2.96
X5.82Y-3.06
X5.82Y-3.16
X6.02Y-2.96
X6.02Y-3.06
X6.02Y-3.16
T6
X3.79Y-4.67G85X3.85Y-4.67
G05
X3.79Y-4.91G85X3.85Y-4.91
G05
X4.02Y-4.85G85X4.02Y-4.79
G05
T0
M30
